<svg xmlns="http://www.w3.org/2000/svg" width="48" height="48" viewBox="0 0 48 48"><path d="M18.888 18H18v-6h-1v6h-1v-6h-1v6h-1v-5.949a2.509 2.509 0 0 0-2 2.449V19h6.068a7.21 7.21 0 0 1 .82-1zM31.154 23c0 3.949-3.204 7.154-7.154 7.154S16.845 26.949 16.845 23c0-1.072.243-2.087.667-3H12v13.5c0 1.375 1.125 2.5 2.5 2.5h19c1.375 0 2.5-1.125 2.5-2.5V20h-5.512c.424.913.666 1.928.666 3zM33.5 12H19v5.889A7.15 7.15 0 0 1 29.932 19H36v-4.5c0-1.375-1.125-2.5-2.5-2.5zm.5 5c0 .55-.45 1-1 1h-2c-.55 0-1-.45-1-1v-2c0-.55.45-1 1-1h2c.55 0 1 .45 1 1v2z"/><path d="M24 17.479a5.522 5.522 0 0 0 0 11.042 5.522 5.522 0 0 0 0-11.042zm0 9.865a4.345 4.345 0 1 1 0-8.69 4.345 4.345 0 0 1 0 8.69z"/></svg>