<svg xmlns="http://www.w3.org/2000/svg" width="35" height="35" viewBox="6.5 6.5 35 35"><path d="M15.264 29.488a10.136 10.136 0 0 0 5.495 1.611c6.593 0 10.198-5.463 10.198-10.199 0-.155-.004-.312-.01-.464a7.336 7.336 0 0 0 1.789-1.855 7.056 7.056 0 0 1-2.059.563 3.596 3.596 0 0 0 1.576-1.983 7.168 7.168 0 0 1-2.277.871 3.576 3.576 0 0 0-2.617-1.132 3.584 3.584 0 0 0-3.491 4.4 10.175 10.175 0 0 1-7.39-3.745 3.575 3.575 0 0 0-.485 1.803c0 1.243.634 2.34 1.596 2.981a3.533 3.533 0 0 1-1.624-.445v.044a3.583 3.583 0 0 0 2.876 3.515 3.675 3.675 0 0 1-1.619.064 3.585 3.585 0 0 0 3.349 2.488 7.193 7.193 0 0 1-4.452 1.533 7.088 7.088 0 0 1-.855-.05z"/></svg>