<svg xmlns="http://www.w3.org/2000/svg" width="35" height="35" viewBox="6.5 6.5 35 35"><path d="M28.491 28.402c0-.196-.032-.338-.099-.433-.052-.071-.151-.155-.34-.155-.195 0-.296.084-.347.154-.065.094-.099.234-.099.434v.521h.884v-.521zM19.173 23.5H21v-3.371l1.227-4.629h-1.643l-.621 2.604-.653-2.604h-1.629l1.501 4.861zM25.023 30.898a.473.473 0 0 0 .229.056c.129 0 .227-.043.29-.129.06-.077.088-.19.088-.347v-2.15a.617.617 0 0 0-.104-.38.383.383 0 0 0-.32-.148.477.477 0 0 0-.207.05.735.735 0 0 0-.189.148l-.026 2.665c.099.148.169.202.239.235zM22 21.895c0 .538-.011.973.303 1.296.316.325.567.491 1.086.491.534 0 .918-.161 1.232-.477.313-.315.379-.749.379-1.289v-2.947c0-.49-.07-.896-.389-1.208-.316-.313-.607-.473-1.099-.472-.532 0-.845.15-1.168.446-.327.3-.344.705-.344 1.203v2.957zm1-3c0-.071.153-.12.197-.163.021-.02.204-.053.309-.053.092 0 .234.02.281.061.044.041.213.086.213.155v3.106c0 .1-.173.173-.221.224-.028.028-.23.068-.348.068-.107 0-.249-.036-.274-.063-.039-.045-.157-.122-.157-.229v-3.106zM26.711 23.619c.232 0 .561-.069.803-.207.105-.061.486-.134.486-.22v.308h1v-6h-1v4.391c0 .086-.368.157-.451.212-.121.083-.387.087-.396.087-.055-.01-.153-.049-.153-.184V17.5h-1v4.901c0 .386-.042.674.109.882.162.22.293.336.602.336z"/><path d="M20 32.5h8a3 3 0 0 0 3-3v-2a3 3 0 0 0-3-3h-8a3 3 0 0 0-3 3v2a3 3 0 0 0 3 3zm7.01-4.09c0-.333.102-.607.301-.814.201-.209.455-.312.774-.312.324 0 .573.096.742.284.173.188.26.473.26.842v.961h-1.479v.885c0 .239.029.405.09.508.072.116.189.176.348.176.162 0 .28-.051.352-.149.063-.09.095-.26.095-.533v-.188h.597v.214c0 .399-.089.702-.265.896-.177.195-.435.291-.796.291-.314 0-.564-.104-.743-.309-.183-.21-.274-.506-.274-.88V28.41zm-2.81-2.502h.582v1.998l.177-.217c.096-.115.199-.205.305-.267a.618.618 0 0 1 .307-.086c.213 0 .371.074.48.226.116.16.176.401.176.719v2.312c0 .272-.055.48-.162.618-.103.133-.248.198-.447.198a.785.785 0 0 1-.36-.081.986.986 0 0 1-.297-.255l-.178-.222v.504H24.2v-5.447zm-2.965 1.483h.573v3.094c0 .121.022.211.069.272.037.05.108.106.238.106a.51.51 0 0 0 .272-.104c.096-.065.184-.147.261-.243l.021-3.125h.575v3.965h-.574v-.633l-.177.209a1.599 1.599 0 0 1-.418.364.806.806 0 0 1-.399.12c-.146 0-.253-.048-.325-.146-.077-.105-.116-.272-.116-.498v-3.381zm-2.666-1.483h2.476v.621h-.902v4.826h-.673v-4.826h-.901v-.621z"/></svg>