<svg width="27" height="20" viewBox="0 0 27 20" xmlns="http://www.w3.org/2000/svg"><title>Group</title><g fill="#000106" fill-rule="evenodd"><path d="M2 18h23V2H2v16zM27 1v18c0 .55-.45 1-1 1H1c-.55 0-1-.45-1-1V1c0-.55.45-1 1-1h25c.55 0 1 .45 1 1z"/><path d="M6 15.5c0 .28.225.5.5.5h14c.275 0 .5-.22.5-.5v-2c0-.27-.225-.5-.5-.5h-14c-.275 0-.5.23-.5.5v2M9 9.5c0-.27-.225-.5-.5-.5h-2c-.275 0-.5.23-.5.5v2c0 .28.225.5.5.5h2c.275 0 .5-.22.5-.5v-2M17 9.5c0-.27-.225-.5-.5-.5h-2c-.275 0-.5.23-.5.5v2c0 .28.225.5.5.5h2c.275 0 .5-.22.5-.5v-2M13 9.5c0-.27-.225-.5-.5-.5h-2c-.275 0-.5.23-.5.5v2c0 .28.225.5.5.5h2c.275 0 .5-.22.5-.5v-2M21 9.5c0-.27-.225-.5-.5-.5h-2c-.275 0-.5.23-.5.5v2c0 .28.225.5.5.5h2c.275 0 .5-.22.5-.5v-2M23 5.5c0-.27-.225-.5-.5-.5h-2c-.275 0-.5.23-.5.5v2c0 .28.225.5.5.5h2c.275 0 .5-.22.5-.5v-2M7 5.5c0-.27-.225-.5-.5-.5h-2c-.275 0-.5.23-.5.5v2c0 .28.225.5.5.5h2c.275 0 .5-.22.5-.5v-2M15 5.5c0-.27-.225-.5-.5-.5h-2c-.275 0-.5.23-.5.5v2c0 .28.225.5.5.5h2c.275 0 .5-.22.5-.5v-2M11 5.5c0-.27-.225-.5-.5-.5h-2c-.275 0-.5.23-.5.5v2c0 .28.225.5.5.5h2c.275 0 .5-.22.5-.5v-2M19 5.5c0-.27-.225-.5-.5-.5h-2c-.275 0-.5.23-.5.5v2c0 .28.225.5.5.5h2c.275 0 .5-.22.5-.5v-2M8.5 4h-2c-.275 0-.5-.22-.5-.5 0-.27.225-.5.5-.5h2c.275 0 .5.24.5.5s-.225.5-.5.5M12.5 4h-2c-.275 0-.5-.22-.5-.5 0-.27.225-.5.5-.5h2c.275 0 .5.24.5.5s-.225.5-.5.5M16.5 4h-2c-.275 0-.5-.22-.5-.5 0-.27.225-.5.5-.5h2c.275 0 .5.24.5.5s-.225.5-.5.5M20.5 4h-2c-.275 0-.5-.22-.5-.5 0-.27.225-.5.5-.5h2c.275 0 .5.24.5.5s-.225.5-.5.5"/></g></svg>