<svg width="892" height="778" viewBox="0 0 892 778" xmlns="http://www.w3.org/2000/svg"><title>notes-bg</title><g fill="#EDEDED" fill-rule="evenodd"><path d="M53.113 193.986c0 8.616-6.984 15.598-15.6 15.598-8.614 0-15.598-6.982-15.598-15.598s6.984-15.6 15.598-15.6c8.616 0 15.6 6.984 15.6 15.6M96.167 182.962c0 8.616-6.982 15.6-15.598 15.6s-15.598-6.984-15.598-15.6c0-8.614 6.982-15.598 15.598-15.598s15.598 6.984 15.598 15.598"/><path d="M41.619 130.476v63.51h11.492v-37.872l31.562-6.376v33.226h11.496v-49.908c0-3.338-1.498-6.5-4.082-8.612a11.12 11.12 0 0 0-9.252-2.296l-41.216 8.328M848.37 469.364c0 8.616-6.986 15.598-15.6 15.598-8.616 0-15.598-6.982-15.598-15.598s6.982-15.598 15.598-15.598c8.614 0 15.6 6.982 15.6 15.598M891.424 458.342c0 8.614-6.982 15.598-15.6 15.598-8.616 0-15.598-6.984-15.598-15.598 0-8.616 6.982-15.598 15.598-15.598 8.618 0 15.6 6.982 15.6 15.598"/><path d="M836.872 405.854v63.51h11.494v-37.87l31.564-6.378v33.226h11.496v-49.906a11.13 11.13 0 0 0-13.334-10.91l-41.22 8.328M111.765 577.896c0 8.616-6.982 15.598-15.598 15.598-8.614 0-15.598-6.982-15.598-15.598s6.984-15.6 15.598-15.6c8.616 0 15.598 6.984 15.598 15.6"/><path d="M154.823 523.34l-54.552-8.954v63.51h11.494v-33.108l14.63 2.512a24.307 24.307 0 0 0 19.784-5.372 24.309 24.309 0 0 0 8.644-18.588M826.842 197.51c0 8.616-6.982 15.598-15.6 15.598-8.612 0-15.598-6.982-15.598-15.598s6.986-15.598 15.598-15.598c8.618 0 15.6 6.982 15.6 15.598"/><path d="M869.898 142.956L815.348 134v63.51h11.492v-33.106l14.63 2.512a24.312 24.312 0 0 0 28.428-23.96M312.876 761.114c0 8.614-6.98 15.596-15.596 15.596-8.614 0-15.598-6.982-15.598-15.596 0-8.616 6.984-15.6 15.598-15.6 8.616 0 15.596 6.984 15.596 15.6"/><path d="M301.384 697.602v63.512h11.492V699.49l-11.492-1.888M642.196 108.66c0 7.847-6.982 14.207-15.598 14.207-8.614 0-15.598-6.36-15.598-14.206 0-7.849 6.984-14.208 15.598-14.208 8.616 0 15.598 6.36 15.598 14.208"/><path d="M630.704 50.808v57.853h11.492V52.528l-11.492-1.72M567.396 538.153c0 8.616-6.982 15.598-15.598 15.598-8.614 0-15.598-6.982-15.598-15.598s6.984-15.6 15.598-15.6c8.616 0 15.598 6.984 15.598 15.6"/><path d="M610.454 483.597l-54.552-8.954v63.51h11.494v-33.108l14.63 2.512a24.307 24.307 0 0 0 19.784-5.372 24.309 24.309 0 0 0 8.644-18.588"/><g><path d="M425.712 258.739c0 8.614-6.98 15.596-15.596 15.596-8.614 0-15.598-6.982-15.598-15.596 0-8.616 6.984-15.6 15.598-15.6 8.616 0 15.596 6.984 15.596 15.6"/><path d="M414.22 195.227v63.512h11.492v-61.624l-11.492-1.888"/></g></g></svg>