<svg width="1047" height="1693" viewBox="0 0 1047 1693" xmlns="http://www.w3.org/2000/svg"><title>Artboard</title><path d="M524.896 1693c-38.782-190.248-107.16-348.575-189.98-495.305-61.433-108.84-132.599-209.302-198.446-314.853-21.98-35.234-40.95-72.457-62.072-109.024C32.164 700.701-2.078 615.927.098 505.96 2.224 398.516 33.32 312.329 78.16 241.86 151.91 125.957 275.442 30.929 441.194 5.955c135.52-20.418 262.581 14.079 352.687 66.73 73.625 43.026 130.649 100.5 173.987 168.234 45.238 70.697 76.39 154.218 79.002 263.16 1.34 55.815-7.804 107.503-20.689 150.377-13.035 43.397-34.004 79.673-52.661 118.422-36.425 75.638-82.084 144.944-127.913 214.285C709.114 1193.717 581.003 1404.36 524.896 1693zM519.5 177.499c186.38 0 337.47 150.987 337.47 337.24 0 186.253-151.09 337.241-337.47 337.241-186.38 0-337.471-150.988-337.471-337.24 0-186.254 151.09-337.241 337.47-337.241z" fill="#000" fill-rule="evenodd"/></svg>