<svg width="44" height="105" viewBox="0 0 44 105" xmlns="http://www.w3.org/2000/svg"><title>Artboard</title><g fill="none" fill-rule="evenodd"><path d="M10.695 83.282v15.093c0 3.598 5.033 6.512 11.24 6.512 6.208 0 11.24-2.914 11.24-6.512V83.282" fill="#FF9951"/><path d="M8.611 72.444v13.922c0 4.262 5.967 7.718 13.324 7.718 7.358 0 13.324-3.456 13.324-7.718V72.444" fill="#FF9951"/><path d="M35.259 72.443c0 4.262-5.966 7.719-13.324 7.719-7.357 0-13.324-3.457-13.324-7.719 0-4.262 5.967-7.716 13.324-7.716 7.358 0 13.324 3.454 13.324 7.716" fill="#A97C50"/><path d="M10.86 76.732c2.39-2.066 6.457-3.426 11.075-3.426 4.617 0 8.686 1.36 11.076 3.426 1.419-1.226 2.248-2.701 2.248-4.289 0-4.262-5.966-7.716-13.324-7.716-7.357 0-13.324 3.454-13.324 7.716 0 1.588.83 3.063 2.249 4.289" fill="#FF6F49"/><path d="M29.233 38.461c5.93 0 10.752-4.822 10.752-10.751v-9.48a4.077 4.077 0 0 0-4.073-4.073h-.108a4.078 4.078 0 0 0-4.074 4.073v8.859a3.12 3.12 0 0 1-3.118 3.117h-2.549V4.117A4.078 4.078 0 0 0 21.989.044a4.186 4.186 0 0 0-4.181 4.182V52.8h-2.487a3.121 3.121 0 0 1-3.117-3.117v-3.291a4.078 4.078 0 0 0-4.074-4.074h-.109a4.077 4.077 0 0 0-4.072 4.074v3.911c0 5.928 4.822 10.752 10.752 10.752h3.107v18.727c1.3.245 2.686.38 4.127.38 1.441 0 2.828-.135 4.128-.38V70.73h3.107c5.929 0 10.752-4.823 10.752-10.753v-9.478a4.077 4.077 0 0 0-4.074-4.072h-.107a4.077 4.077 0 0 0-4.074 4.072v8.858a3.123 3.123 0 0 1-3.118 3.119h-2.486V38.461h3.17" fill="#A9DB60"/><path d="M18.957 71.157h-3.212a1.246 1.246 0 1 1 0-2.493h3.212a1.246 1.246 0 1 1 0 2.493M33.315 57.454h-3.704a1.246 1.246 0 1 1 0-2.493h3.704a1.247 1.247 0 0 1 0 2.493M41.774 53.492H38.07a1.247 1.247 0 1 1 0-2.493h3.704a1.246 1.246 0 1 1 0 2.493M5.8 48.799H2.096a1.246 1.246 0 0 1 0-2.493H5.8a1.247 1.247 0 1 1 0 2.493M5.842 60.226a1.248 1.248 0 0 1-.882-2.128l2.472-2.473a1.247 1.247 0 0 1 1.763 1.763L6.724 59.86a1.248 1.248 0 0 1-.882.366M39.306 68.548c-.319 0-.639-.122-.882-.365l-2.471-2.472a1.246 1.246 0 1 1 1.762-1.764l2.472 2.473a1.246 1.246 0 0 1-.881 2.128M19.552 40.265h-3.977a1.247 1.247 0 0 1 0-2.494h3.977a1.247 1.247 0 1 1 0 2.494M19.552 24.477h-3.977a1.246 1.246 0 0 1 0-2.493h3.977a1.246 1.246 0 1 1 0 2.493M28.115 14.577h-3.978a1.246 1.246 0 1 1 0-2.493h3.978a1.247 1.247 0 0 1 0 2.493M19.796 6.3h-3.977a1.246 1.246 0 1 1 0-2.493h3.977a1.247 1.247 0 1 1 0 2.493M33.451 21.405h-3.977a1.247 1.247 0 1 1 0-2.493h3.977a1.246 1.246 0 0 1 0 2.493M41.911 26.525h-3.978a1.246 1.246 0 1 1 0-2.492h3.978a1.246 1.246 0 1 1 0 2.492M38.643 37.404a1.24 1.24 0 0 1-.882-.365l-2.813-2.812a1.246 1.246 0 1 1 1.763-1.763l2.813 2.812a1.246 1.246 0 0 1-.881 2.128M28.065 46.323h-3.878a1.246 1.246 0 1 1 0-2.493h3.878a1.246 1.246 0 1 1 0 2.493M26.126 66.72a1.247 1.247 0 0 1-1.247-1.247v-2.997a1.247 1.247 0 1 1 2.494 0v2.997c0 .688-.559 1.247-1.247 1.247M17.808 56.224a1.248 1.248 0 0 1-1.247-1.247V52.8a1.246 1.246 0 0 1 2.493 0v2.177c0 .688-.558 1.247-1.246 1.247M26.063 39.707h-1.409a1.246 1.246 0 0 1 0-2.493h1.409a1.247 1.247 0 0 1 0 2.493" fill="#FFF"/></g></svg>