<?xml version="1.0" encoding="utf-8"?>
<!-- Generator: Adobe Illustrator 16.0.0, SVG Export Plug-In . SVG Version: 6.00 Build 0)  -->
<!DOCTYPE svg PUBLIC "-//W3C//DTD SVG 1.1//EN" "http://www.w3.org/Graphics/SVG/1.1/DTD/svg11.dtd">
<svg version="1.1" id="Layer_1" xmlns="http://www.w3.org/2000/svg" xmlns:xlink="http://www.w3.org/1999/xlink" x="0px" y="0px"
	 width="35px" height="56.595px" viewBox="0 0 35 56.595" enable-background="new 0 0 35 56.595" xml:space="preserve">
<g>
	<path fill="#373636" d="M17.547,56.595c-1.298-6.357-3.583-11.654-6.351-16.557c-2.055-3.637-4.434-6.998-6.635-10.525
		c-0.735-1.18-1.369-2.423-2.075-3.645c-1.411-2.444-2.556-5.278-2.483-8.955c0.071-3.592,1.11-6.473,2.61-8.828
		C5.078,4.209,9.208,1.033,14.749,0.2c4.531-0.684,8.777,0.471,11.79,2.229c2.461,1.439,4.368,3.36,5.817,5.626
		c1.512,2.361,2.553,5.154,2.64,8.797c0.045,1.866-0.261,3.593-0.69,5.025c-0.438,1.453-1.139,2.666-1.762,3.96
		c-1.217,2.526-2.744,4.844-4.277,7.162C23.704,39.903,19.422,46.946,17.547,56.595z"/>
	<g>
		<path fill="#FFFEFE" d="M19.18,22.719h-2.376v-6.506l0.023-1.069l0.039-1.169c-0.395,0.395-0.669,0.654-0.823,0.777L14.75,15.79
			l-1.146-1.43l3.622-2.884h1.954V22.719z"/>
	</g>
</g>
</svg>
