<?xml version="1.0" encoding="utf-8"?>
<!-- Generator: Adobe Illustrator 16.0.0, SVG Export Plug-In . SVG Version: 6.00 Build 0)  -->
<!DOCTYPE svg PUBLIC "-//W3C//DTD SVG 1.1//EN" "http://www.w3.org/Graphics/SVG/1.1/DTD/svg11.dtd">
<svg version="1.1" id="Layer_1" xmlns="http://www.w3.org/2000/svg" xmlns:xlink="http://www.w3.org/1999/xlink" x="0px" y="0px"
	 width="35px" height="56.597px" viewBox="0 0 35 56.597" enable-background="new 0 0 35 56.597" xml:space="preserve">
<g>
	<path fill="#373636" d="M17.547,56.597c-1.298-6.359-3.582-11.656-6.351-16.559c-2.055-3.637-4.434-6.998-6.635-10.525
		c-0.735-1.18-1.369-2.423-2.076-3.645c-1.411-2.444-2.556-5.278-2.482-8.955c0.07-3.593,1.11-6.473,2.609-8.829
		c2.465-3.876,6.595-7.051,12.136-7.885c4.53-0.684,8.777,0.47,11.79,2.228c2.461,1.438,4.368,3.36,5.816,5.625
		c1.513,2.362,2.554,5.156,2.641,8.799c0.045,1.865-0.26,3.592-0.689,5.025c-0.438,1.453-1.139,2.666-1.763,3.96
		c-1.218,2.526-2.743,4.845-4.277,7.162C23.703,39.903,19.424,46.946,17.547,56.597z"/>
	<g>
		<path fill="#FFFEFE" d="M21.045,22.718h-7.86v-1.653l2.822-2.854c0.835-0.856,1.382-1.45,1.638-1.78
			c0.257-0.331,0.441-0.637,0.555-0.919c0.112-0.282,0.168-0.574,0.168-0.877c0-0.451-0.123-0.787-0.373-1.007
			c-0.248-0.22-0.58-0.331-0.995-0.331c-0.436,0-0.859,0.1-1.269,0.3c-0.41,0.2-0.838,0.484-1.284,0.854l-1.292-1.53
			c0.554-0.472,1.012-0.805,1.376-1c0.364-0.195,0.761-0.345,1.192-0.45s0.913-0.158,1.446-0.158c0.703,0,1.322,0.128,1.861,0.385
			c0.538,0.256,0.956,0.615,1.254,1.077c0.297,0.461,0.445,0.989,0.445,1.584c0,0.518-0.091,1.004-0.272,1.458
			c-0.183,0.454-0.464,0.919-0.847,1.396c-0.381,0.477-1.055,1.156-2.018,2.038l-1.447,1.361v0.108h4.9V22.718z"/>
	</g>
</g>
</svg>
