<?xml version="1.0" encoding="utf-8"?>
<!-- Generator: Adobe Illustrator 16.0.0, SVG Export Plug-In . SVG Version: 6.00 Build 0)  -->
<!DOCTYPE svg PUBLIC "-//W3C//DTD SVG 1.1//EN" "http://www.w3.org/Graphics/SVG/1.1/DTD/svg11.dtd">
<svg version="1.1" id="Layer_1" xmlns="http://www.w3.org/2000/svg" xmlns:xlink="http://www.w3.org/1999/xlink" x="0px" y="0px"
	 width="35px" height="56.596px" viewBox="0 0 35 56.596" enable-background="new 0 0 35 56.596" xml:space="preserve">
<g>
	<path fill="#373636" d="M17.546,56.596c-1.297-6.358-3.582-11.655-6.35-16.558c-2.055-3.637-4.434-6.998-6.635-10.525
		c-0.735-1.18-1.369-2.423-2.076-3.645c-1.411-2.444-2.556-5.278-2.482-8.955c0.07-3.593,1.11-6.473,2.609-8.829
		C5.078,4.208,9.208,1.033,14.749,0.2c4.53-0.684,8.777,0.47,11.79,2.228c2.461,1.439,4.368,3.36,5.817,5.626
		c1.513,2.362,2.553,5.155,2.64,8.798c0.045,1.865-0.26,3.592-0.689,5.025c-0.438,1.453-1.139,2.666-1.762,3.96
		C31.327,28.364,29.8,30.682,28.267,33C23.704,39.904,19.423,46.947,17.546,56.596z"/>
	<g>
		<path fill="#FFFEFE" d="M21.275,13.992c0,0.703-0.213,1.3-0.639,1.792s-1.022,0.831-1.792,1.015v0.046
			c0.907,0.113,1.595,0.388,2.062,0.827s0.699,1.029,0.699,1.772c0,1.082-0.392,1.924-1.176,2.526
			c-0.785,0.603-1.905,0.904-3.361,0.904c-1.22,0-2.302-0.203-3.245-0.607v-2.023c0.436,0.221,0.915,0.4,1.438,0.539
			c0.523,0.138,1.041,0.208,1.553,0.208c0.785,0,1.363-0.133,1.738-0.4c0.374-0.267,0.562-0.695,0.562-1.284
			c0-0.528-0.216-0.902-0.646-1.123c-0.432-0.22-1.118-0.331-2.062-0.331h-0.854V16.03h0.869c0.872,0,1.509-0.114,1.912-0.342
			c0.402-0.228,0.604-0.619,0.604-1.173c0-0.851-0.533-1.276-1.6-1.276c-0.37,0-0.745,0.062-1.127,0.185s-0.806,0.336-1.273,0.638
			l-1.1-1.638c1.025-0.738,2.248-1.107,3.668-1.107c1.163,0,2.083,0.236,2.757,0.708S21.275,13.151,21.275,13.992z"/>
	</g>
</g>
</svg>
