<?xml version="1.0" encoding="utf-8"?>
<!-- Generator: Adobe Illustrator 16.0.0, SVG Export Plug-In . SVG Version: 6.00 Build 0)  -->
<!DOCTYPE svg PUBLIC "-//W3C//DTD SVG 1.1//EN" "http://www.w3.org/Graphics/SVG/1.1/DTD/svg11.dtd">
<svg version="1.1" id="Layer_1" xmlns="http://www.w3.org/2000/svg" xmlns:xlink="http://www.w3.org/1999/xlink" x="0px" y="0px"
	 width="35px" height="56.594px" viewBox="0 0 35 56.594" enable-background="new 0 0 35 56.594" xml:space="preserve">
<g>
	<path fill="#373636" d="M17.547,56.594c-1.298-6.357-3.582-11.653-6.351-16.556c-2.055-3.637-4.434-7-6.635-10.526
		c-0.735-1.179-1.369-2.422-2.075-3.644c-1.412-2.444-2.557-5.278-2.483-8.955c0.07-3.592,1.11-6.473,2.609-8.829
		C5.078,4.208,9.208,1.033,14.749,0.2c4.53-0.684,8.777,0.47,11.789,2.228c2.461,1.439,4.368,3.36,5.818,5.626
		c1.512,2.362,2.553,5.155,2.639,8.798c0.045,1.865-0.26,3.592-0.689,5.025c-0.438,1.453-1.139,2.666-1.762,3.96
		c-1.217,2.526-2.744,4.845-4.277,7.16C23.704,39.902,19.423,46.945,17.547,56.594z"/>
	<g>
		<path fill="#FFFEFE" d="M20.679,20.48h-1.354v2.33h-2.323v-2.33h-4.799v-1.654l4.93-7.26h2.192v7.068h1.354V20.48z M17.002,18.634
			v-1.907c0-0.318,0.013-0.779,0.039-1.384s0.046-0.957,0.062-1.054h-0.062c-0.189,0.42-0.418,0.831-0.685,1.23l-2.061,3.115H17.002
			z"/>
	</g>
</g>
</svg>
