<?xml version="1.0" encoding="utf-8"?>
<!-- Generator: Adobe Illustrator 16.0.0, SVG Export Plug-In . SVG Version: 6.00 Build 0)  -->
<!DOCTYPE svg PUBLIC "-//W3C//DTD SVG 1.1//EN" "http://www.w3.org/Graphics/SVG/1.1/DTD/svg11.dtd">
<svg version="1.1" id="Layer_1" xmlns="http://www.w3.org/2000/svg" xmlns:xlink="http://www.w3.org/1999/xlink" x="0px" y="0px"
	 width="35px" height="56.594px" viewBox="0 0 35 56.594" enable-background="new 0 0 35 56.594" xml:space="preserve">
<g>
	<path fill="#373636" d="M17.547,56.594c-1.298-6.357-3.583-11.652-6.351-16.555c-2.055-3.637-4.434-6.999-6.635-10.527
		c-0.735-1.179-1.369-2.422-2.075-3.644c-1.411-2.444-2.556-5.278-2.483-8.955c0.07-3.593,1.11-6.473,2.609-8.829
		C5.078,4.208,9.208,1.033,14.749,0.2c4.531-0.684,8.777,0.471,11.79,2.228c2.461,1.439,4.368,3.36,5.817,5.626
		c1.512,2.362,2.553,5.155,2.641,8.798c0.045,1.865-0.261,3.592-0.69,5.025c-0.438,1.453-1.139,2.666-1.763,3.96
		c-1.217,2.526-2.743,4.845-4.277,7.161C23.704,39.905,19.423,46.946,17.547,56.594z"/>
	<g>
		<path fill="#FFFEFE" d="M17.276,15.537c1.088,0,1.953,0.305,2.596,0.915c0.644,0.61,0.965,1.446,0.965,2.507
			c0,1.256-0.387,2.223-1.16,2.899c-0.775,0.677-1.883,1.015-3.323,1.015c-1.251,0-2.261-0.203-3.03-0.607v-2.054
			c0.405,0.215,0.877,0.391,1.415,0.527c0.539,0.136,1.048,0.204,1.53,0.204c1.451,0,2.177-0.595,2.177-1.784
			c0-1.133-0.752-1.7-2.254-1.7c-0.272,0-0.572,0.027-0.9,0.081s-0.595,0.112-0.8,0.173l-0.946-0.508l0.423-5.729h6.099v2.015
			h-4.015l-0.208,2.207l0.269-0.054C16.428,15.573,16.815,15.537,17.276,15.537z"/>
	</g>
</g>
</svg>
