<?xml version="1.0" encoding="utf-8"?>
<!-- Generator: Adobe Illustrator 16.0.0, SVG Export Plug-In . SVG Version: 6.00 Build 0)  -->
<!DOCTYPE svg PUBLIC "-//W3C//DTD SVG 1.1//EN" "http://www.w3.org/Graphics/SVG/1.1/DTD/svg11.dtd">
<svg version="1.1" id="Layer_1" xmlns="http://www.w3.org/2000/svg" xmlns:xlink="http://www.w3.org/1999/xlink" x="0px" y="0px"
	 width="35px" height="56.595px" viewBox="0 0 35 56.595" enable-background="new 0 0 35 56.595" xml:space="preserve">
<g>
	<path fill="#373636" d="M17.547,56.595c-1.298-6.358-3.582-11.654-6.351-16.556c-2.055-3.638-4.434-7.001-6.635-10.527
		c-0.735-1.179-1.369-2.425-2.075-3.644c-1.411-2.442-2.556-5.279-2.483-8.955c0.07-3.593,1.11-6.475,2.609-8.83
		C5.078,4.209,9.208,1.034,14.749,0.2c4.531-0.684,8.777,0.47,11.79,2.229C29,3.868,30.907,5.787,32.356,8.053
		c1.512,2.362,2.553,5.154,2.641,8.799c0.045,1.864-0.261,3.594-0.69,5.025c-0.438,1.45-1.14,2.666-1.763,3.96
		C31.327,28.364,29.8,30.68,28.266,33C23.704,39.904,19.424,46.947,17.547,56.595z"/>
	<g>
		<path fill="#FFFEFE" d="M13.108,17.946c0-2.226,0.47-3.882,1.411-4.969s2.35-1.63,4.226-1.63c0.642,0,1.144,0.038,1.508,0.115
			v1.899c-0.457-0.103-0.907-0.154-1.354-0.154c-0.814,0-1.48,0.123-1.996,0.369s-0.901,0.61-1.158,1.093
			c-0.256,0.481-0.407,1.166-0.454,2.053h0.1c0.507-0.871,1.32-1.307,2.438-1.307c1.004,0,1.791,0.314,2.36,0.945
			s0.854,1.503,0.854,2.615c0,1.199-0.339,2.149-1.015,2.85c-0.678,0.699-1.615,1.05-2.815,1.05c-0.831,0-1.555-0.192-2.173-0.577
			s-1.095-0.946-1.43-1.685C13.276,19.875,13.108,18.986,13.108,17.946z M17.168,20.975c0.508,0,0.897-0.17,1.169-0.511
			c0.272-0.341,0.407-0.827,0.407-1.458c0-0.548-0.127-0.98-0.381-1.296c-0.253-0.315-0.636-0.473-1.149-0.473
			c-0.482,0-0.894,0.156-1.234,0.469c-0.341,0.313-0.512,0.677-0.512,1.093c0,0.609,0.16,1.125,0.481,1.546
			C16.27,20.765,16.676,20.975,17.168,20.975z"/>
	</g>
</g>
</svg>
