<?xml version="1.0" encoding="utf-8"?>
<!-- Generator: Adobe Illustrator 16.0.0, SVG Export Plug-In . SVG Version: 6.00 Build 0)  -->
<!DOCTYPE svg PUBLIC "-//W3C//DTD SVG 1.1//EN" "http://www.w3.org/Graphics/SVG/1.1/DTD/svg11.dtd">
<svg version="1.1" id="Layer_1" xmlns="http://www.w3.org/2000/svg" xmlns:xlink="http://www.w3.org/1999/xlink" x="0px" y="0px"
	 width="35px" height="56.595px" viewBox="0 0 35 56.595" enable-background="new 0 0 35 56.595" xml:space="preserve">
<g>
	<path fill="#373636" d="M17.547,56.595c-1.298-6.358-3.582-11.654-6.351-16.557c-2.055-3.637-4.434-7-6.635-10.527
		c-0.735-1.178-1.369-2.424-2.075-3.643c-1.412-2.441-2.557-5.277-2.483-8.955c0.07-3.593,1.109-6.474,2.609-8.829
		C5.078,4.209,9.208,1.034,14.749,0.2c4.53-0.684,8.776,0.471,11.789,2.229c2.461,1.438,4.368,3.359,5.818,5.624
		c1.512,2.362,2.553,5.155,2.639,8.799c0.045,1.864-0.26,3.594-0.689,5.025c-0.438,1.45-1.139,2.666-1.762,3.96
		c-1.217,2.526-2.744,4.843-4.277,7.161C23.704,39.904,19.423,46.947,17.547,56.595z"/>
	<g>
		<path fill="#FFFEFE" d="M14.299,22.72l4.222-9.229h-5.545v-2h8.067v1.492l-4.253,9.736H14.299z"/>
	</g>
</g>
</svg>
