<?xml version="1.0" encoding="utf-8"?>
<!-- Generator: Adobe Illustrator 16.0.0, SVG Export Plug-In . SVG Version: 6.00 Build 0)  -->
<!DOCTYPE svg PUBLIC "-//W3C//DTD SVG 1.1//EN" "http://www.w3.org/Graphics/SVG/1.1/DTD/svg11.dtd">
<svg version="1.1" id="Layer_1" xmlns="http://www.w3.org/2000/svg" xmlns:xlink="http://www.w3.org/1999/xlink" x="0px" y="0px"
	 width="35px" height="56.595px" viewBox="0 0 35 56.595" enable-background="new 0 0 35 56.595" xml:space="preserve">
<g>
	<path fill="#373636" d="M17.547,56.595c-1.298-6.358-3.582-11.654-6.351-16.557c-2.055-3.637-4.434-7-6.635-10.526
		c-0.735-1.179-1.369-2.422-2.075-3.644c-1.412-2.444-2.557-5.278-2.483-8.955c0.07-3.593,1.11-6.474,2.609-8.829
		c2.465-3.875,6.595-7.051,12.136-7.885c4.531-0.684,8.777,0.471,11.79,2.229C29,3.867,30.907,5.787,32.356,8.054
		c1.512,2.362,2.553,5.155,2.64,8.798c0.045,1.865-0.261,3.593-0.69,5.025c-0.438,1.453-1.139,2.666-1.762,3.96
		c-1.217,2.526-2.743,4.845-4.277,7.161C23.704,39.902,19.422,46.946,17.547,56.595z"/>
	<g>
		<path fill="#FFFEFE" d="M17.062,11.331c1.077,0,1.945,0.245,2.603,0.734c0.658,0.49,0.988,1.15,0.988,1.98
			c0,0.574-0.159,1.085-0.477,1.534c-0.318,0.449-0.831,0.85-1.539,1.204c0.842,0.451,1.445,0.921,1.812,1.411
			c0.365,0.49,0.549,1.027,0.549,1.611c0,0.923-0.361,1.665-1.084,2.226c-0.723,0.562-1.674,0.842-2.853,0.842
			c-1.23,0-2.197-0.262-2.899-0.785c-0.703-0.523-1.054-1.264-1.054-2.222c0-0.641,0.17-1.21,0.511-1.708
			c0.341-0.497,0.889-0.936,1.642-1.315c-0.641-0.405-1.103-0.838-1.384-1.3c-0.282-0.461-0.423-0.966-0.423-1.515
			c0-0.805,0.333-1.456,1-1.953C15.121,11.579,15.99,11.331,17.062,11.331z M15.308,19.729c0,0.441,0.154,0.785,0.461,1.031
			s0.728,0.369,1.261,0.369c0.589,0,1.03-0.127,1.323-0.381c0.291-0.254,0.438-0.588,0.438-1.003c0-0.344-0.145-0.666-0.435-0.965
			s-0.76-0.619-1.411-0.958C15.854,18.324,15.308,18.959,15.308,19.729z M17.046,13.069c-0.405,0-0.732,0.104-0.98,0.311
			c-0.249,0.208-0.373,0.486-0.373,0.834c0,0.308,0.099,0.583,0.296,0.827c0.198,0.244,0.555,0.494,1.073,0.75
			c0.502-0.236,0.853-0.477,1.053-0.723s0.3-0.531,0.3-0.854c0-0.354-0.128-0.633-0.385-0.838
			C17.774,13.171,17.446,13.069,17.046,13.069z"/>
	</g>
</g>
</svg>
