<?xml version="1.0" encoding="utf-8"?>
<!-- Generator: Adobe Illustrator 16.0.0, SVG Export Plug-In . SVG Version: 6.00 Build 0)  -->
<!DOCTYPE svg PUBLIC "-//W3C//DTD SVG 1.1//EN" "http://www.w3.org/Graphics/SVG/1.1/DTD/svg11.dtd">
<svg version="1.1" id="Layer_1" xmlns="http://www.w3.org/2000/svg" xmlns:xlink="http://www.w3.org/1999/xlink" x="0px" y="0px"
	 width="35px" height="56.595px" viewBox="0 0 35 56.595" enable-background="new 0 0 35 56.595" xml:space="preserve">
<g>
	<path fill="#373636" d="M17.547,56.595c-1.298-6.358-3.582-11.654-6.351-16.555c-2.055-3.639-4.434-7.002-6.635-10.529
		c-0.735-1.178-1.369-2.424-2.076-3.643c-1.411-2.443-2.556-5.28-2.482-8.955c0.07-3.593,1.11-6.476,2.609-8.83
		c2.465-3.874,6.595-7.051,12.136-7.884c4.53-0.684,8.777,0.47,11.79,2.229C29,3.866,30.907,5.786,32.355,8.053
		c1.513,2.362,2.554,5.153,2.641,8.799c0.045,1.864-0.26,3.594-0.689,5.025c-0.438,1.45-1.139,2.666-1.763,3.96
		c-1.218,2.526-2.743,4.843-4.277,7.161C23.703,39.904,19.424,46.947,17.547,56.595z"/>
	<g>
		<path fill="#FFFEFE" d="M21.941,16.274c0,2.215-0.467,3.868-1.4,4.96c-0.933,1.092-2.345,1.639-4.237,1.639
			c-0.667,0-1.172-0.036-1.515-0.108v-1.907c0.431,0.107,0.882,0.162,1.354,0.162c0.795,0,1.448-0.117,1.961-0.351
			s0.905-0.6,1.177-1.1c0.272-0.5,0.429-1.188,0.47-2.064h-0.093c-0.298,0.481-0.642,0.82-1.03,1.015
			c-0.391,0.195-0.877,0.292-1.461,0.292c-0.979,0-1.751-0.313-2.315-0.941s-0.846-1.501-0.846-2.619
			c0-1.205,0.342-2.157,1.026-2.857c0.685-0.699,1.616-1.05,2.796-1.05c0.831,0,1.558,0.195,2.181,0.585s1.101,0.955,1.434,1.696
			C21.775,14.365,21.941,15.249,21.941,16.274z M17.873,13.252c-0.492,0-0.877,0.169-1.154,0.507
			c-0.277,0.339-0.415,0.826-0.415,1.462c0,0.543,0.125,0.974,0.377,1.292c0.251,0.317,0.633,0.477,1.146,0.477
			c0.481,0,0.895-0.158,1.237-0.473c0.344-0.315,0.516-0.679,0.516-1.089c0-0.609-0.16-1.125-0.48-1.546
			C18.779,13.462,18.37,13.252,17.873,13.252z"/>
	</g>
</g>
</svg>
