<?xml version="1.0" encoding="utf-8"?>
<!-- Generator: Adobe Illustrator 16.0.0, SVG Export Plug-In . SVG Version: 6.00 Build 0)  -->
<!DOCTYPE svg PUBLIC "-//W3C//DTD SVG 1.1//EN" "http://www.w3.org/Graphics/SVG/1.1/DTD/svg11.dtd">
<svg version="1.1" id="Layer_1" xmlns="http://www.w3.org/2000/svg" xmlns:xlink="http://www.w3.org/1999/xlink" x="0px" y="0px"
	 width="35px" height="56.595px" viewBox="0 0 35 56.595" enable-background="new 0 0 35 56.595" xml:space="preserve">
<g>
	<path fill="#373636" d="M17.547,56.595c-1.298-6.358-3.582-11.654-6.351-16.557c-2.055-3.637-4.434-7-6.635-10.527
		c-0.735-1.178-1.369-2.424-2.075-3.643c-1.412-2.443-2.557-5.277-2.483-8.955c0.07-3.593,1.11-6.475,2.609-8.829
		C5.078,4.21,9.208,1.034,14.749,0.2c4.53-0.684,8.776,0.471,11.79,2.229C29,3.869,30.906,5.788,32.355,8.053
		c1.512,2.362,2.554,5.155,2.641,8.799c0.045,1.864-0.261,3.594-0.69,5.025c-0.438,1.45-1.139,2.666-1.762,3.96
		c-1.218,2.526-2.744,4.843-4.277,7.16C23.703,39.903,19.423,46.946,17.547,56.595z"/>
	<g>
		<path fill="#FFFEFE" d="M14.361,22.722h-2.376v-6.506l0.023-1.069l0.039-1.169c-0.395,0.395-0.669,0.653-0.823,0.776l-1.292,1.039
			l-1.146-1.431l3.622-2.884h1.954V22.722z"/>
		<path fill="#FFFEFE" d="M25.273,17.1c0,1.964-0.322,3.418-0.965,4.36c-0.644,0.944-1.635,1.416-2.973,1.416
			c-1.297,0-2.275-0.487-2.934-1.462c-0.659-0.974-0.988-2.412-0.988-4.314c0-1.983,0.32-3.446,0.961-4.387
			c0.641-0.941,1.628-1.411,2.961-1.411c1.297,0,2.277,0.492,2.941,1.477S25.273,15.204,25.273,17.1z M19.775,17.1
			c0,1.38,0.119,2.368,0.357,2.965c0.238,0.598,0.639,0.896,1.203,0.896c0.554,0,0.953-0.303,1.199-0.908
			c0.246-0.604,0.369-1.589,0.369-2.953c0-1.379-0.124-2.369-0.373-2.972c-0.248-0.603-0.646-0.904-1.195-0.904
			c-0.559,0-0.959,0.302-1.199,0.904C19.895,14.731,19.775,15.721,19.775,17.1z"/>
	</g>
</g>
</svg>
