<?xml version="1.0" encoding="UTF-8" standalone="no"?>
<svg width="36px" height="57px" viewBox="0 0 36 57" version="1.1" xmlns="http://www.w3.org/2000/svg" xmlns:xlink="http://www.w3.org/1999/xlink">
    <!-- Generator: Sketch 39.1 (31720) - http://www.bohemiancoding.com/sketch -->
    <title>Artboard</title>
    <desc>Created with Sketch.</desc>
    <defs></defs>
    <g id="Page-1" stroke="none" stroke-width="1" fill="none" fill-rule="evenodd">
        <g id="Artboard">
            <path d="M17.547,56.595 C16.249,50.238 13.964,44.941 11.196,40.038 C9.141,36.401 6.762,33.04 4.561,29.513 C3.826,28.333 3.192,27.09 2.486,25.868 C1.075,23.424 -0.07,20.59 0.003,16.913 C0.074,13.321 1.113,10.44 2.613,8.085 C5.078,4.209 9.208,1.033 14.749,0.2 C19.28,-0.484 23.526,0.671 26.539,2.429 C29,3.868 30.907,5.789 32.356,8.055 C33.868,10.416 34.909,13.209 34.996,16.852 C35.041,18.718 34.735,20.445 34.306,21.877 C33.868,23.33 33.167,24.543 32.544,25.837 C31.327,28.363 29.8,30.681 28.267,32.999 C23.704,39.903 19.422,46.946 17.547,56.595 L17.547,56.595 Z" id="Shape" fill="#373636"></path>
            <path d="M14.492334,23 L12.0933595,23 L12.0933595,16.4319338 L12.1166505,15.3527834 L12.1554689,14.1727053 C11.7569317,14.5712424 11.4800302,14.8326168 11.324756,14.9568361 L10.0204592,16.0049318 L8.86367207,14.5608889 L12.5203614,11.649512 L14.492334,11.649512 L14.492334,23 Z M23.5680662,23 L21.1690917,23 L21.1690917,16.4319338 L21.1923827,15.3527834 L21.2312011,14.1727053 C20.8326639,14.5712424 20.5557624,14.8326168 20.4004882,14.9568361 L19.0961914,16.0049318 L17.9394043,14.5608889 L21.5960936,11.649512 L23.5680662,11.649512 L23.5680662,23 Z" id="11" fill="#FFFFFF"></path>
        </g>
    </g>
</svg>