<?xml version="1.0" encoding="UTF-8" standalone="no"?>
<svg width="36px" height="57px" viewBox="0 0 36 57" version="1.1" xmlns="http://www.w3.org/2000/svg" xmlns:xlink="http://www.w3.org/1999/xlink">
    <!-- Generator: Sketch 39.1 (31720) - http://www.bohemiancoding.com/sketch -->
    <title>Artboard</title>
    <desc>Created with Sketch.</desc>
    <defs></defs>
    <g id="Page-1" stroke="none" stroke-width="1" fill="none" fill-rule="evenodd">
        <g id="Artboard">
            <path d="M17.547,56.595 C16.249,50.238 13.964,44.941 11.196,40.038 C9.141,36.401 6.762,33.04 4.561,29.513 C3.826,28.333 3.192,27.09 2.486,25.868 C1.075,23.424 -0.07,20.59 0.003,16.913 C0.074,13.321 1.113,10.44 2.613,8.085 C5.078,4.209 9.208,1.033 14.749,0.2 C19.28,-0.484 23.526,0.671 26.539,2.429 C29,3.868 30.907,5.789 32.356,8.055 C33.868,10.416 34.909,13.209 34.996,16.852 C35.041,18.718 34.735,20.445 34.306,21.877 C33.868,23.33 33.167,24.543 32.544,25.837 C31.327,28.363 29.8,30.681 28.267,32.999 C23.704,39.903 19.422,46.946 17.547,56.595 L17.547,56.595 Z" id="Shape" fill="#373636"></path>
            <path d="M14.492334,23 L12.0933595,23 L12.0933595,16.4319338 L12.1166505,15.3527834 L12.1554689,14.1727053 C11.7569317,14.5712424 11.4800302,14.8326168 11.324756,14.9568361 L10.0204592,16.0049318 L8.86367207,14.5608889 L12.5203614,11.649512 L14.492334,11.649512 L14.492334,23 Z M25.5710935,23 L17.6366211,23 L17.6366211,21.3308106 L20.4858886,18.4504884 C21.3295451,17.5861286 21.8807603,16.9870379 22.1395507,16.6531984 C22.398341,16.3193588 22.5846673,16.010109 22.698535,15.7254396 C22.8124028,15.4407702 22.8693358,15.1457537 22.8693358,14.8403811 C22.8693358,14.38491 22.7438244,14.0458998 22.4927977,13.8233401 C22.2417711,13.6007804 21.9066426,13.4895022 21.4874022,13.4895022 C21.0474586,13.4895022 20.620461,13.5904289 20.2063964,13.7922854 C19.7923318,13.9941419 19.3601584,14.2813948 18.9098632,14.6540529 L17.6055664,13.1090823 C18.1645535,12.632908 18.6277813,12.2964856 18.9952636,12.0998049 C19.3627459,11.9031243 19.7638649,11.7517342 20.1986327,11.6456302 C20.6334005,11.5395261 21.1199191,11.4864749 21.658203,11.4864749 C22.3672886,11.4864749 22.9935518,11.6158681 23.5370116,11.8746585 C24.0804713,12.1334488 24.5022932,12.4957499 24.80249,12.9615725 C25.1026869,13.4273951 25.252783,13.9604953 25.252783,14.5608889 C25.252783,15.0836454 25.1609138,15.5740457 24.9771727,16.0321047 C24.7934315,16.4901636 24.5087664,16.959861 24.1231688,17.4412111 C23.7375712,17.9225611 23.0582567,18.6083453 22.085205,19.4985841 L20.6256347,20.872754 L20.6256347,20.9814454 L25.5710935,20.9814454 L25.5710935,23 Z" id="12" fill="#FFFFFF"></path>
        </g>
    </g>
</svg>