<?xml version="1.0" encoding="UTF-8" standalone="no"?>
<svg width="36px" height="57px" viewBox="0 0 36 57" version="1.1" xmlns="http://www.w3.org/2000/svg" xmlns:xlink="http://www.w3.org/1999/xlink">
    <!-- Generator: Sketch 39.1 (31720) - http://www.bohemiancoding.com/sketch -->
    <title>Artboard</title>
    <desc>Created with Sketch.</desc>
    <defs></defs>
    <g id="Page-1" stroke="none" stroke-width="1" fill="none" fill-rule="evenodd">
        <g id="Artboard">
            <path d="M17.547,56.595 C16.249,50.238 13.964,44.941 11.196,40.038 C9.141,36.401 6.762,33.04 4.561,29.513 C3.826,28.333 3.192,27.09 2.486,25.868 C1.075,23.424 -0.07,20.59 0.003,16.913 C0.074,13.321 1.113,10.44 2.613,8.085 C5.078,4.209 9.208,1.033 14.749,0.2 C19.28,-0.484 23.526,0.671 26.539,2.429 C29,3.868 30.907,5.789 32.356,8.055 C33.868,10.416 34.909,13.209 34.996,16.852 C35.041,18.718 34.735,20.445 34.306,21.877 C33.868,23.33 33.167,24.543 32.544,25.837 C31.327,28.363 29.8,30.681 28.267,32.999 C23.704,39.903 19.422,46.946 17.547,56.595 L17.547,56.595 Z" id="Shape" fill="#373636"></path>
            <path d="M14.492334,23 L12.0933595,23 L12.0933595,16.4319338 L12.1166505,15.3527834 L12.1554689,14.1727053 C11.7569317,14.5712424 11.4800302,14.8326168 11.324756,14.9568361 L10.0204592,16.0049318 L8.86367207,14.5608889 L12.5203614,11.649512 L14.492334,11.649512 L14.492334,23 Z M25.1285643,14.1882326 C25.1285643,14.8973182 24.9137715,15.5002907 24.4841795,15.9971681 C24.0545875,16.4940456 23.4516151,16.8356437 22.675244,17.0219728 L22.675244,17.0685548 C23.5913618,17.1824226 24.2849096,17.460618 24.755908,17.9031495 C25.2269065,18.345681 25.4624021,18.9421838 25.4624021,19.6926759 C25.4624021,20.7847711 25.0664588,21.6348847 24.2745604,22.243042 C23.4826619,22.8511993 22.351765,23.1552734 20.8818358,23.1552734 C19.6499938,23.1552734 18.5579149,22.9508321 17.6055664,22.5419434 L17.6055664,20.5000977 C18.04551,20.7226574 18.5294407,20.9038079 19.057373,21.0435547 C19.5853053,21.1833015 20.108054,21.2531739 20.6256347,21.2531739 C21.4175332,21.2531739 22.0023906,21.1186049 22.3802245,20.8494629 C22.7580584,20.580321 22.9469725,20.1481476 22.9469725,19.5529298 C22.9469725,19.0198216 22.7295919,18.6419934 22.2948241,18.4194337 C21.8600563,18.196874 21.1665086,18.0855958 20.2141601,18.0855958 L19.3523925,18.0855958 L19.3523925,16.2456056 L20.2296874,16.2456056 C21.1095746,16.2456056 21.752659,16.1304457 22.1589598,15.9001222 C22.5652607,15.6697988 22.7684081,15.2751495 22.7684081,14.7161623 C22.7684081,13.8569783 22.2301322,13.4273928 21.1535644,13.4273928 C20.7809062,13.4273928 20.4017841,13.4895016 20.0161865,13.6137209 C19.6305888,13.7379403 19.2022972,13.9527331 18.7312988,14.2581057 L17.6210937,12.6044436 C18.6562551,11.8591274 19.8906666,11.4864749 21.3243651,11.4864749 C22.4992733,11.4864749 23.4270228,11.7245584 24.1076414,12.2007327 C24.7882601,12.6769069 25.1285643,13.3394003 25.1285643,14.1882326 L25.1285643,14.1882326 Z" id="13" fill="#FFFFFF"></path>
        </g>
    </g>
</svg>