<?xml version="1.0" encoding="UTF-8" standalone="no"?>
<svg width="36px" height="57px" viewBox="0 0 36 57" version="1.1" xmlns="http://www.w3.org/2000/svg" xmlns:xlink="http://www.w3.org/1999/xlink">
    <!-- Generator: Sketch 39.1 (31720) - http://www.bohemiancoding.com/sketch -->
    <title>Artboard</title>
    <desc>Created with Sketch.</desc>
    <defs></defs>
    <g id="Page-1" stroke="none" stroke-width="1" fill="none" fill-rule="evenodd">
        <g id="Artboard">
            <path d="M17.547,56.595 C16.249,50.238 13.964,44.941 11.196,40.038 C9.141,36.401 6.762,33.04 4.561,29.513 C3.826,28.333 3.192,27.09 2.486,25.868 C1.075,23.424 -0.07,20.59 0.003,16.913 C0.074,13.321 1.113,10.44 2.613,8.085 C5.078,4.209 9.208,1.033 14.749,0.2 C19.28,-0.484 23.526,0.671 26.539,2.429 C29,3.868 30.907,5.789 32.356,8.055 C33.868,10.416 34.909,13.209 34.996,16.852 C35.041,18.718 34.735,20.445 34.306,21.877 C33.868,23.33 33.167,24.543 32.544,25.837 C31.327,28.363 29.8,30.681 28.267,32.999 C23.704,39.903 19.422,46.946 17.547,56.595 L17.547,56.595 Z" id="Shape" fill="#373636"></path>
            <path d="M14.492334,23 L12.0933595,23 L12.0933595,16.4319338 L12.1166505,15.3527834 L12.1554689,14.1727053 C11.7569317,14.5712424 11.4800302,14.8326168 11.324756,14.9568361 L10.0204592,16.0049318 L8.86367207,14.5608889 L12.5203614,11.649512 L14.492334,11.649512 L14.492334,23 Z M21.7668944,15.7487306 C22.8641655,15.7487306 23.7375698,16.0566865 24.3871336,16.6726076 C25.0366974,17.2885286 25.3614744,18.1321725 25.3614744,19.2035645 C25.3614744,20.4716373 24.9707068,21.4472622 24.18916,22.1304688 C23.4076131,22.8136753 22.2896556,23.1552734 20.8352538,23.1552734 C19.5723569,23.1552734 18.5527382,22.9508321 17.7763672,22.5419434 L17.7763672,20.469043 C18.1852559,20.6864269 18.661423,20.8636957 19.2048828,21.0008545 C19.7483425,21.1380134 20.2633276,21.2065918 20.7498534,21.2065918 C22.2146068,21.2065918 22.9469725,20.6062072 22.9469725,19.40542 C22.9469725,18.2615667 22.1887282,17.6896486 20.6722167,17.6896486 C20.3978989,17.6896486 20.0951188,17.7168211 19.7638671,17.7711671 C19.4326155,17.8255131 19.1634775,17.88374 18.9564453,17.9458497 L18.0015136,17.4334474 L18.4285156,11.649512 L24.5851072,11.649512 L24.5851072,13.683594 L20.5324706,13.683594 L20.3228515,15.9117677 L20.59458,15.857422 C20.9103042,15.7849607 21.3010718,15.7487306 21.7668944,15.7487306 L21.7668944,15.7487306 Z" id="15" fill="#FFFFFF"></path>
        </g>
    </g>
</svg>