<?xml version="1.0" encoding="utf-8"?>
<!-- Generator: Adobe Illustrator 16.0.0, SVG Export Plug-In . SVG Version: 6.00 Build 0)  -->
<!DOCTYPE svg PUBLIC "-//W3C//DTD SVG 1.1//EN" "http://www.w3.org/Graphics/SVG/1.1/DTD/svg11.dtd">
<svg version="1.1" id="Layer_1" xmlns="http://www.w3.org/2000/svg" xmlns:xlink="http://www.w3.org/1999/xlink" x="0px" y="0px"
	 width="35px" height="56.594px" viewBox="0 0 35 56.594" enable-background="new 0 0 35 56.594" xml:space="preserve">
<path fill="#373636" d="M17.547,56.594c-1.298-6.357-3.582-11.653-6.351-16.557c-2.055-3.637-4.434-7-6.635-10.527
	c-0.735-1.177-1.369-2.423-2.075-3.642c-1.412-2.443-2.557-5.277-2.483-8.955c0.07-3.593,1.11-6.475,2.609-8.829
	C5.078,4.21,9.208,1.034,14.749,0.2c4.53-0.684,8.776,0.471,11.79,2.229c2.461,1.44,4.367,3.359,5.816,5.624
	c1.512,2.362,2.554,5.155,2.641,8.799c0.045,1.864-0.262,3.594-0.689,5.025c-0.438,1.45-1.14,2.666-1.763,3.96
	c-1.218,2.526-2.744,4.843-4.276,7.16C23.703,39.903,19.423,46.946,17.547,56.594z"/>
<g enable-background="new    ">
	<path fill="#FFFEFE" d="M15.651,19.977V19.26c0-0.62,0.132-1.158,0.396-1.616c0.265-0.458,0.749-0.945,1.451-1.461
		c0.678-0.484,1.125-0.877,1.342-1.181c0.215-0.304,0.323-0.643,0.323-1.017c0-0.419-0.155-0.738-0.465-0.958
		c-0.31-0.219-0.741-0.328-1.297-0.328c-0.967,0-2.07,0.316-3.31,0.948l-1.054-2.119c1.438-0.807,2.964-1.21,4.576-1.21
		c1.328,0,2.386,0.319,3.169,0.958c0.784,0.639,1.177,1.491,1.177,2.555c0,0.709-0.161,1.322-0.483,1.838
		c-0.323,0.516-0.937,1.097-1.84,1.743c-0.619,0.458-1.011,0.806-1.176,1.044c-0.164,0.238-0.246,0.552-0.246,0.938v0.582H15.651z
		 M15.342,23.286c0-0.542,0.145-0.951,0.436-1.229c0.29-0.278,0.713-0.417,1.268-0.417c0.535,0,0.949,0.143,1.243,0.427
		c0.294,0.284,0.44,0.689,0.44,1.219c0,0.51-0.148,0.911-0.445,1.204c-0.297,0.294-0.71,0.441-1.238,0.441
		c-0.542,0-0.962-0.144-1.258-0.431C15.489,24.213,15.342,23.808,15.342,23.286z"/>
</g>
</svg>
