<svg xmlns="http://www.w3.org/2000/svg" width="35" height="56.595" viewBox="0 0 35 56.595"><path fill="#373636" d="M17.547 56.595c-1.298-6.357-3.583-11.654-6.351-16.557-2.055-3.637-4.434-6.998-6.635-10.525-.735-1.18-1.369-2.423-2.075-3.645C1.075 23.424-.07 20.59.003 16.913c.071-3.592 1.11-6.473 2.61-8.828C5.078 4.209 9.208 1.033 14.749.2c4.531-.684 8.777.471 11.79 2.229 2.461 1.439 4.368 3.36 5.817 5.626 1.512 2.361 2.553 5.154 2.64 8.797a16.274 16.274 0 0 1-.69 5.025c-.438 1.453-1.139 2.666-1.762 3.96-1.217 2.526-2.744 4.844-4.277 7.162-4.563 6.904-8.845 13.947-10.72 23.596z"/><path fill="#FFFEFE" d="M19.18 22.719h-2.376v-6.506l.023-1.069.039-1.169c-.395.395-.669.654-.823.777L14.75 15.79l-1.146-1.43 3.622-2.884h1.954v11.243z"/></svg>