<svg xmlns="http://www.w3.org/2000/svg" width="35" height="56.597" viewBox="0 0 35 56.597"><path fill="#373636" d="M17.547 56.597c-1.298-6.359-3.582-11.656-6.351-16.559-2.055-3.637-4.434-6.998-6.635-10.525-.735-1.18-1.369-2.423-2.076-3.645C1.074 23.424-.071 20.59.003 16.913c.07-3.593 1.11-6.473 2.609-8.829C5.077 4.208 9.207 1.033 14.748.199c4.53-.684 8.777.47 11.79 2.228 2.461 1.438 4.368 3.36 5.816 5.625 1.513 2.362 2.554 5.156 2.641 8.799a16.285 16.285 0 0 1-.689 5.025c-.438 1.453-1.139 2.666-1.763 3.96-1.218 2.526-2.743 4.845-4.277 7.162-4.563 6.905-8.842 13.948-10.719 23.599z"/><path fill="#FFFEFE" d="M21.045 22.718h-7.86v-1.653l2.822-2.854c.835-.856 1.382-1.45 1.638-1.78a3.95 3.95 0 0 0 .555-.919c.112-.282.168-.574.168-.877 0-.451-.123-.787-.373-1.007-.248-.22-.58-.331-.995-.331-.436 0-.859.1-1.269.3-.41.2-.838.484-1.284.854l-1.292-1.53c.554-.472 1.012-.805 1.376-1 .364-.195.761-.345 1.192-.45s.913-.158 1.446-.158c.703 0 1.322.128 1.861.385a2.97 2.97 0 0 1 1.254 1.077c.297.461.445.989.445 1.584a3.9 3.9 0 0 1-.272 1.458 5.6 5.6 0 0 1-.847 1.396c-.381.477-1.055 1.156-2.018 2.038l-1.447 1.361v.108h4.9v1.998z"/></svg>