<svg xmlns="http://www.w3.org/2000/svg" width="35" height="56.596" viewBox="0 0 35 56.596"><path fill="#373636" d="M17.546 56.596c-1.297-6.358-3.582-11.655-6.35-16.558-2.055-3.637-4.434-6.998-6.635-10.525-.735-1.18-1.369-2.423-2.076-3.645C1.074 23.424-.071 20.59.003 16.913c.07-3.593 1.11-6.473 2.609-8.829C5.078 4.208 9.208 1.033 14.749.2c4.53-.684 8.777.47 11.79 2.228 2.461 1.439 4.368 3.36 5.817 5.626 1.513 2.362 2.553 5.155 2.64 8.798a16.285 16.285 0 0 1-.689 5.025c-.438 1.453-1.139 2.666-1.762 3.96-1.218 2.527-2.745 4.845-4.278 7.163-4.563 6.904-8.844 13.947-10.721 23.596z"/><path fill="#FFFEFE" d="M21.275 13.992c0 .703-.213 1.3-.639 1.792s-1.022.831-1.792 1.015v.046c.907.113 1.595.388 2.062.827s.699 1.029.699 1.772c0 1.082-.392 1.924-1.176 2.526-.785.603-1.905.904-3.361.904-1.22 0-2.302-.203-3.245-.607v-2.023c.436.221.915.4 1.438.539a6.072 6.072 0 0 0 1.553.208c.785 0 1.363-.133 1.738-.4.374-.267.562-.695.562-1.284 0-.528-.216-.902-.646-1.123-.432-.22-1.118-.331-2.062-.331h-.854V16.03h.869c.872 0 1.509-.114 1.912-.342.402-.228.604-.619.604-1.173 0-.851-.533-1.276-1.6-1.276-.37 0-.745.062-1.127.185s-.806.336-1.273.638l-1.1-1.638c1.025-.738 2.248-1.107 3.668-1.107 1.163 0 2.083.236 2.757.708s1.013 1.126 1.013 1.967z"/></svg>