<svg xmlns="http://www.w3.org/2000/svg" width="35" height="56.594" viewBox="0 0 35 56.594"><path fill="#373636" d="M17.547 56.594c-1.298-6.357-3.582-11.653-6.351-16.556-2.055-3.637-4.434-7-6.635-10.526-.735-1.179-1.369-2.422-2.075-3.644C1.074 23.424-.071 20.59.003 16.913c.07-3.592 1.11-6.473 2.609-8.829C5.078 4.208 9.208 1.033 14.749.2c4.53-.684 8.777.47 11.789 2.228 2.461 1.439 4.368 3.36 5.818 5.626 1.512 2.362 2.553 5.155 2.639 8.798a16.285 16.285 0 0 1-.689 5.025c-.438 1.453-1.139 2.666-1.762 3.96-1.217 2.526-2.744 4.845-4.277 7.16-4.563 6.905-8.844 13.948-10.72 23.597z"/><path fill="#FFFEFE" d="M20.679 20.48h-1.354v2.33h-2.323v-2.33h-4.799v-1.654l4.93-7.26h2.192v7.068h1.354v1.846zm-3.677-1.846v-1.907c0-.318.013-.779.039-1.384s.046-.957.062-1.054h-.062c-.189.42-.418.831-.685 1.23l-2.061 3.115h2.707z"/></svg>