<svg xmlns="http://www.w3.org/2000/svg" width="35" height="56.594" viewBox="0 0 35 56.594"><path fill="#373636" d="M17.547 56.594c-1.298-6.357-3.583-11.652-6.351-16.555-2.055-3.637-4.434-6.999-6.635-10.527-.735-1.179-1.369-2.422-2.075-3.644C1.075 23.424-.07 20.59.003 16.913c.07-3.593 1.11-6.473 2.609-8.829C5.078 4.208 9.208 1.033 14.749.2c4.531-.684 8.777.471 11.79 2.228 2.461 1.439 4.368 3.36 5.817 5.626 1.512 2.362 2.553 5.155 2.641 8.798a16.283 16.283 0 0 1-.69 5.025c-.438 1.453-1.139 2.666-1.763 3.96-1.217 2.526-2.743 4.845-4.277 7.161-4.563 6.907-8.844 13.948-10.72 23.596z"/><path fill="#FFFEFE" d="M17.276 15.537c1.088 0 1.953.305 2.596.915.644.61.965 1.446.965 2.507 0 1.256-.387 2.223-1.16 2.899-.775.677-1.883 1.015-3.323 1.015-1.251 0-2.261-.203-3.03-.607v-2.054c.405.215.877.391 1.415.527a6.256 6.256 0 0 0 1.53.204c1.451 0 2.177-.595 2.177-1.784 0-1.133-.752-1.7-2.254-1.7-.272 0-.572.027-.9.081s-.595.112-.8.173l-.946-.508.423-5.729h6.099v2.015h-4.015l-.208 2.207.269-.054a5.364 5.364 0 0 1 1.162-.107z"/></svg>