<svg xmlns="http://www.w3.org/2000/svg" width="35" height="56.595" viewBox="0 0 35 56.595"><path fill="#373636" d="M17.547 56.595c-1.298-6.358-3.582-11.654-6.351-16.556-2.055-3.638-4.434-7.001-6.635-10.527-.735-1.179-1.369-2.425-2.075-3.644C1.075 23.426-.07 20.589.003 16.913c.07-3.593 1.11-6.475 2.609-8.83C5.078 4.209 9.208 1.034 14.749.2c4.531-.684 8.777.47 11.79 2.229C29 3.868 30.907 5.787 32.356 8.053c1.512 2.362 2.553 5.154 2.641 8.799a16.279 16.279 0 0 1-.69 5.025c-.438 1.45-1.14 2.666-1.763 3.96C31.327 28.364 29.8 30.68 28.266 33c-4.562 6.904-8.842 13.947-10.719 23.595z"/><path fill="#FFFEFE" d="M13.108 17.946c0-2.226.47-3.882 1.411-4.969s2.35-1.63 4.226-1.63c.642 0 1.144.038 1.508.115v1.899a6.134 6.134 0 0 0-1.354-.154c-.814 0-1.48.123-1.996.369s-.901.61-1.158 1.093c-.256.481-.407 1.166-.454 2.053h.1c.507-.871 1.32-1.307 2.438-1.307 1.004 0 1.791.314 2.36.945s.854 1.503.854 2.615c0 1.199-.339 2.149-1.015 2.85-.678.699-1.615 1.05-2.815 1.05-.831 0-1.555-.192-2.173-.577s-1.095-.946-1.43-1.685c-.334-.738-.502-1.627-.502-2.667zm4.06 3.029c.508 0 .897-.17 1.169-.511.272-.341.407-.827.407-1.458 0-.548-.127-.98-.381-1.296-.253-.315-.636-.473-1.149-.473-.482 0-.894.156-1.234.469-.341.313-.512.677-.512 1.093 0 .609.16 1.125.481 1.546.321.42.727.63 1.219.63z"/></svg>