<svg xmlns="http://www.w3.org/2000/svg" width="35" height="56.595" viewBox="0 0 35 56.595"><path fill="#373636" d="M17.547 56.595c-1.298-6.358-3.582-11.654-6.351-16.557-2.055-3.637-4.434-7-6.635-10.527-.735-1.178-1.369-2.424-2.075-3.643-1.412-2.441-2.557-5.277-2.483-8.955.07-3.593 1.109-6.474 2.609-8.829C5.078 4.209 9.208 1.034 14.749.2c4.53-.684 8.776.471 11.789 2.229 2.461 1.438 4.368 3.359 5.818 5.624 1.512 2.362 2.553 5.155 2.639 8.799a16.28 16.28 0 0 1-.689 5.025c-.438 1.45-1.139 2.666-1.762 3.96-1.217 2.526-2.744 4.843-4.277 7.161-4.563 6.906-8.844 13.949-10.72 23.597z"/><path fill="#FFFEFE" d="M14.299 22.72l4.222-9.229h-5.545v-2h8.067v1.492l-4.253 9.736h-2.491z"/></svg>