<svg xmlns="http://www.w3.org/2000/svg" width="35" height="56.595" viewBox="0 0 35 56.595"><path fill="#373636" d="M17.547 56.595c-1.298-6.358-3.582-11.654-6.351-16.557-2.055-3.637-4.434-7-6.635-10.526-.735-1.179-1.369-2.422-2.075-3.644C1.074 23.424-.071 20.59.003 16.913c.07-3.593 1.11-6.474 2.609-8.829C5.077 4.209 9.207 1.033 14.748.199c4.531-.684 8.777.471 11.79 2.229C29 3.867 30.907 5.787 32.356 8.054c1.512 2.362 2.553 5.155 2.64 8.798a16.279 16.279 0 0 1-.69 5.025c-.438 1.453-1.139 2.666-1.762 3.96-1.217 2.526-2.743 4.845-4.277 7.161-4.563 6.904-8.845 13.948-10.72 23.597z"/><path fill="#FFFEFE" d="M17.062 11.331c1.077 0 1.945.245 2.603.734.658.49.988 1.15.988 1.98 0 .574-.159 1.085-.477 1.534-.318.449-.831.85-1.539 1.204.842.451 1.445.921 1.812 1.411a2.64 2.64 0 0 1 .549 1.611c0 .923-.361 1.665-1.084 2.226-.723.562-1.674.842-2.853.842-1.23 0-2.197-.262-2.899-.785-.703-.523-1.054-1.264-1.054-2.222 0-.641.17-1.21.511-1.708.341-.497.889-.936 1.642-1.315-.641-.405-1.103-.838-1.384-1.3a2.848 2.848 0 0 1-.423-1.515c0-.805.333-1.456 1-1.953.667-.496 1.536-.744 2.608-.744zm-1.754 8.398c0 .441.154.785.461 1.031s.728.369 1.261.369c.589 0 1.03-.127 1.323-.381.291-.254.438-.588.438-1.003 0-.344-.145-.666-.435-.965s-.76-.619-1.411-.958c-1.091.502-1.637 1.137-1.637 1.907zm1.738-6.66c-.405 0-.732.104-.98.311-.249.208-.373.486-.373.834 0 .308.099.583.296.827.198.244.555.494 1.073.75.502-.236.853-.477 1.053-.723s.3-.531.3-.854c0-.354-.128-.633-.385-.838-.256-.205-.584-.307-.984-.307z"/></svg>