<svg xmlns="http://www.w3.org/2000/svg" width="35" height="56.595" viewBox="0 0 35 56.595"><path fill="#373636" d="M17.547 56.595c-1.298-6.358-3.582-11.654-6.351-16.555-2.055-3.639-4.434-7.002-6.635-10.529-.735-1.178-1.369-2.424-2.076-3.643-1.411-2.443-2.556-5.28-2.482-8.955.07-3.593 1.11-6.476 2.609-8.83C5.077 4.209 9.207 1.032 14.748.199c4.53-.684 8.777.47 11.79 2.229C29 3.866 30.907 5.786 32.355 8.053c1.513 2.362 2.554 5.153 2.641 8.799a16.28 16.28 0 0 1-.689 5.025c-.438 1.45-1.139 2.666-1.763 3.96-1.218 2.526-2.743 4.843-4.277 7.161-4.564 6.906-8.843 13.949-10.72 23.597z"/><path fill="#FFFEFE" d="M21.941 16.274c0 2.215-.467 3.868-1.4 4.96-.933 1.092-2.345 1.639-4.237 1.639-.667 0-1.172-.036-1.515-.108v-1.907c.431.107.882.162 1.354.162.795 0 1.448-.117 1.961-.351s.905-.6 1.177-1.1c.272-.5.429-1.188.47-2.064h-.093c-.298.481-.642.82-1.03 1.015-.391.195-.877.292-1.461.292-.979 0-1.751-.313-2.315-.941s-.846-1.501-.846-2.619c0-1.205.342-2.157 1.026-2.857.685-.699 1.616-1.05 2.796-1.05.831 0 1.558.195 2.181.585s1.101.955 1.434 1.696c.332.739.498 1.623.498 2.648zm-4.068-3.022c-.492 0-.877.169-1.154.507-.277.339-.415.826-.415 1.462 0 .543.125.974.377 1.292.251.317.633.477 1.146.477.481 0 .895-.158 1.237-.473.344-.315.516-.679.516-1.089 0-.609-.16-1.125-.48-1.546-.321-.42-.73-.63-1.227-.63z"/></svg>