<svg xmlns="http://www.w3.org/2000/svg" width="35" height="56.595" viewBox="0 0 35 56.595"><path fill="#373636" d="M17.547 56.595c-1.298-6.358-3.582-11.654-6.351-16.557-2.055-3.637-4.434-7-6.635-10.527-.735-1.178-1.369-2.424-2.075-3.643-1.412-2.443-2.557-5.277-2.483-8.955.07-3.593 1.11-6.475 2.609-8.829C5.078 4.21 9.208 1.034 14.749.2c4.53-.684 8.776.471 11.79 2.229 2.461 1.44 4.367 3.359 5.816 5.624 1.512 2.362 2.554 5.155 2.641 8.799a16.279 16.279 0 0 1-.69 5.025c-.438 1.45-1.139 2.666-1.762 3.96-1.218 2.526-2.744 4.843-4.277 7.16-4.564 6.906-8.844 13.949-10.72 23.598z"/><g fill="#FFFEFE"><path d="M14.361 22.722h-2.376v-6.506l.023-1.069.039-1.169c-.395.395-.669.653-.823.776l-1.292 1.039-1.146-1.431 3.622-2.884h1.954v11.244zM25.273 17.1c0 1.964-.322 3.418-.965 4.36-.644.944-1.635 1.416-2.973 1.416-1.297 0-2.275-.487-2.934-1.462-.659-.974-.988-2.412-.988-4.314 0-1.983.32-3.446.961-4.387.641-.941 1.628-1.411 2.961-1.411 1.297 0 2.277.492 2.941 1.477s.997 2.425.997 4.321zm-5.498 0c0 1.38.119 2.368.357 2.965.238.598.639.896 1.203.896.554 0 .953-.303 1.199-.908.246-.604.369-1.589.369-2.953 0-1.379-.124-2.369-.373-2.972-.248-.603-.646-.904-1.195-.904-.559 0-.959.302-1.199.904-.241.603-.361 1.593-.361 2.972z"/></g></svg>