<svg width="36" height="57" viewBox="0 0 36 57" xmlns="http://www.w3.org/2000/svg"><title>Artboard</title><g fill="none" fill-rule="evenodd"><path d="M17.547 56.595c-1.298-6.357-3.583-11.654-6.351-16.557-2.055-3.637-4.434-6.998-6.635-10.525-.735-1.18-1.369-2.423-2.075-3.645C1.075 23.424-.07 20.59.003 16.913c.071-3.592 1.11-6.473 2.61-8.828C5.078 4.209 9.208 1.033 14.749.2c4.531-.684 8.777.471 11.79 2.229 2.461 1.439 4.368 3.36 5.817 5.626 1.512 2.361 2.553 5.154 2.64 8.797a16.274 16.274 0 0 1-.69 5.025c-.438 1.453-1.139 2.666-1.762 3.96-1.217 2.526-2.744 4.844-4.277 7.162-4.563 6.904-8.845 13.947-10.72 23.596z" fill="#373636"/><path d="M14.492 23h-2.399v-6.568l.024-1.08.038-1.18c-.398.4-.675.66-.83.785l-1.305 1.048-1.156-1.444 3.656-2.911h1.972V23zm11.08 0h-7.935v-1.67l2.849-2.88c.844-.864 1.395-1.463 1.654-1.797.258-.334.445-.643.559-.928.113-.284.17-.58.17-.885 0-.455-.125-.794-.376-1.017-.251-.222-.586-.333-1.006-.333-.44 0-.867.1-1.28.302a6.61 6.61 0 0 0-1.297.862l-1.304-1.545c.559-.476 1.022-.813 1.39-1.01a5.101 5.101 0 0 1 1.203-.453c.434-.106.92-.16 1.46-.16.708 0 1.335.13 1.878.389.543.258.965.62 1.265 1.087.3.465.45.998.45 1.599 0 .523-.091 1.013-.275 1.471-.184.458-.468.928-.854 1.41-.385.48-1.065 1.166-2.038 2.057l-1.46 1.374v.108h4.946V23z" fill="#FFF"/></g></svg>