<svg width="36" height="57" viewBox="0 0 36 57" xmlns="http://www.w3.org/2000/svg"><title>Artboard</title><g fill="none" fill-rule="evenodd"><path d="M17.547 56.595c-1.298-6.357-3.583-11.654-6.351-16.557-2.055-3.637-4.434-6.998-6.635-10.525-.735-1.18-1.369-2.423-2.075-3.645C1.075 23.424-.07 20.59.003 16.913c.071-3.592 1.11-6.473 2.61-8.828C5.078 4.209 9.208 1.033 14.749.2c4.531-.684 8.777.471 11.79 2.229 2.461 1.439 4.368 3.36 5.817 5.626 1.512 2.361 2.553 5.154 2.64 8.797a16.274 16.274 0 0 1-.69 5.025c-.438 1.453-1.139 2.666-1.762 3.96-1.217 2.526-2.744 4.844-4.277 7.162-4.563 6.904-8.845 13.947-10.72 23.596z" fill="#373636"/><path d="M14.492 23h-2.399v-6.568l.024-1.08.038-1.18c-.398.4-.675.66-.83.785l-1.305 1.048-1.156-1.444 3.656-2.911h1.972V23zm10.637-8.812c0 .71-.215 1.312-.645 1.81-.43.496-1.032.838-1.809 1.024v.047c.916.113 1.61.392 2.08.834.472.443.707 1.04.707 1.79 0 1.092-.396 1.942-1.187 2.55-.792.608-1.923.912-3.393.912-1.232 0-2.324-.204-3.276-.613V20.5c.44.223.923.404 1.451.544s1.051.21 1.569.21c.792 0 1.376-.135 1.754-.405.378-.269.567-.7.567-1.296 0-.533-.217-.911-.652-1.134-.435-.222-1.128-.333-2.08-.333h-.863v-1.84h.878c.88 0 1.523-.116 1.929-.346.406-.23.61-.625.61-1.184 0-.859-.539-1.289-1.615-1.289-.373 0-.752.063-1.138.187-.385.124-.814.339-1.285.644l-1.11-1.654c1.035-.745 2.27-1.118 3.703-1.118 1.175 0 2.103.239 2.784.715.68.476 1.02 1.138 1.02 1.987z" fill="#FFF"/></g></svg>