<svg width="36" height="57" viewBox="0 0 36 57" xmlns="http://www.w3.org/2000/svg"><title>Artboard</title><g fill="none" fill-rule="evenodd"><path d="M17.547 56.595c-1.298-6.357-3.583-11.654-6.351-16.557-2.055-3.637-4.434-6.998-6.635-10.525-.735-1.18-1.369-2.423-2.075-3.645C1.075 23.424-.07 20.59.003 16.913c.071-3.592 1.11-6.473 2.61-8.828C5.078 4.209 9.208 1.033 14.749.2c4.531-.684 8.777.471 11.79 2.229 2.461 1.439 4.368 3.36 5.817 5.626 1.512 2.361 2.553 5.154 2.64 8.797a16.274 16.274 0 0 1-.69 5.025c-.438 1.453-1.139 2.666-1.762 3.96-1.217 2.526-2.744 4.844-4.277 7.162-4.563 6.904-8.845 13.947-10.72 23.596z" fill="#373636"/><path d="M14.492 23h-2.399v-6.568l.024-1.08.038-1.18c-.398.4-.675.66-.83.785l-1.305 1.048-1.156-1.444 3.656-2.911h1.972V23zm11.335-2.352h-1.366V23h-2.345v-2.352h-4.844v-1.67l4.976-7.328h2.213v7.134h1.366v1.864zm-3.71-1.864V16.86c0-.321.012-.787.038-1.398.026-.61.047-.965.062-1.063h-.062a8.658 8.658 0 0 1-.69 1.242l-2.082 3.144h2.733z" fill="#FFF"/></g></svg>