<svg width="36" height="57" viewBox="0 0 36 57" xmlns="http://www.w3.org/2000/svg"><title>Artboard</title><g fill="none" fill-rule="evenodd"><path d="M17.547 56.595c-1.298-6.357-3.583-11.654-6.351-16.557-2.055-3.637-4.434-6.998-6.635-10.525-.735-1.18-1.369-2.423-2.075-3.645C1.075 23.424-.07 20.59.003 16.913c.071-3.592 1.11-6.473 2.61-8.828C5.078 4.209 9.208 1.033 14.749.2c4.531-.684 8.777.471 11.79 2.229 2.461 1.439 4.368 3.36 5.817 5.626 1.512 2.361 2.553 5.154 2.64 8.797a16.274 16.274 0 0 1-.69 5.025c-.438 1.453-1.139 2.666-1.762 3.96-1.217 2.526-2.744 4.844-4.277 7.162-4.563 6.904-8.845 13.947-10.72 23.596z" fill="#373636"/><path d="M14.492 23h-2.399v-6.568l.024-1.08.038-1.18c-.398.4-.675.66-.83.785l-1.305 1.048-1.156-1.444 3.656-2.911h1.972V23zm7.275-7.251c1.097 0 1.97.308 2.62.924.65.616.974 1.46.974 2.53 0 1.269-.39 2.244-1.172 2.927-.781.684-1.9 1.025-3.354 1.025-1.263 0-2.282-.204-3.059-.613v-2.073a6.35 6.35 0 0 0 1.429.532 6.32 6.32 0 0 0 1.545.206c1.465 0 2.197-.6 2.197-1.802 0-1.143-.758-1.715-2.275-1.715-.274 0-.577.027-.908.081-.331.055-.6.113-.808.175l-.954-.513.427-5.783h6.156v2.034h-4.053l-.21 2.228.273-.055a5.344 5.344 0 0 1 1.172-.108z" fill="#FFF"/></g></svg>