<svg xmlns="http://www.w3.org/2000/svg" width="35" height="56.594" viewBox="0 0 35 56.594"><path fill="#373636" d="M17.547 56.594c-1.298-6.357-3.582-11.653-6.351-16.557-2.055-3.637-4.434-7-6.635-10.527-.735-1.177-1.369-2.423-2.075-3.642-1.412-2.443-2.557-5.277-2.483-8.955.07-3.593 1.11-6.475 2.609-8.829C5.078 4.21 9.208 1.034 14.749.2c4.53-.684 8.776.471 11.79 2.229 2.461 1.44 4.367 3.359 5.816 5.624 1.512 2.362 2.554 5.155 2.641 8.799a16.34 16.34 0 0 1-.689 5.025c-.438 1.45-1.14 2.666-1.763 3.96-1.218 2.526-2.744 4.843-4.276 7.16-4.565 6.906-8.845 13.949-10.721 23.597z"/><path fill="#FFFEFE" d="M15.651 19.977v-.717c0-.62.132-1.158.396-1.616.265-.458.749-.945 1.451-1.461.678-.484 1.125-.877 1.342-1.181.215-.304.323-.643.323-1.017 0-.419-.155-.738-.465-.958-.31-.219-.741-.328-1.297-.328-.967 0-2.07.316-3.31.948l-1.054-2.119a9.21 9.21 0 0 1 4.576-1.21c1.328 0 2.386.319 3.169.958.784.639 1.177 1.491 1.177 2.555 0 .709-.161 1.322-.483 1.838-.323.516-.937 1.097-1.84 1.743-.619.458-1.011.806-1.176 1.044-.164.238-.246.552-.246.938v.582h-2.563zm-.309 3.309c0-.542.145-.951.436-1.229.29-.278.713-.417 1.268-.417.535 0 .949.143 1.243.427.294.284.44.689.44 1.219 0 .51-.148.911-.445 1.204-.297.294-.71.441-1.238.441-.542 0-.962-.144-1.258-.431-.299-.287-.446-.692-.446-1.214z"/></svg>