<?xml version="1.0" encoding="UTF-8" standalone="no"?>
<svg width="1440px" height="752px" viewBox="0 0 1440 752" version="1.1" xmlns="http://www.w3.org/2000/svg" xmlns:xlink="http://www.w3.org/1999/xlink" xmlns:sketch="http://www.bohemiancoding.com/sketch/ns">
    <!-- Generator: Sketch 3.3.2 (12043) - http://www.bohemiancoding.com/sketch -->
    <title>aquarium-piano</title>
    <desc>Created with Sketch.</desc>
    <defs></defs>
    <g id="Page-1" stroke="none" stroke-width="1" fill="none" fill-rule="evenodd" sketch:type="MSPage">
        <g id="aquarium-piano" sketch:type="MSArtboardGroup">
            <g id="Imported-Layers" sketch:type="MSLayerGroup" transform="translate(473.000000, 473.000000)">
                <path d="M427.14,246.118 C427.14,239.398 421.692,233.951 414.973,233.951 L75.275,233.951 C68.556,233.951 63.108,239.398 63.108,246.118 C63.108,252.837 68.556,258.285 75.275,258.285 L414.973,258.285 C421.692,258.285 427.14,252.837 427.14,246.118" id="Fill-1" fill="#C7C7C4" sketch:type="MSShapeGroup"></path>
                <path d="M494.277,192.287 L494.277,192.287 C494.277,185.567 488.829,180.121 482.11,180.121 L12.461,180.121 C9.941,180.121 7.6,180.887 5.658,182.199 C2.422,184.386 0.294,188.088 0.294,192.287 L0.294,192.288 C0.294,199.008 5.742,204.454 12.461,204.454 L482.11,204.454 C484.63,204.454 486.971,203.689 488.913,202.376 C492.149,200.19 494.277,196.487 494.277,192.288 L494.277,192.287" id="Fill-2" fill="#C7C7C4" sketch:type="MSShapeGroup"></path>
                <path d="M461.021,15.76 C461.021,7.381 454.229,0.588 445.85,0.588 L46.241,0.588 C37.862,0.588 31.07,7.381 31.07,15.76 L31.07,76.159 L461.021,76.159 L461.021,15.76" id="Fill-3" fill="#28D2FF" sketch:type="MSShapeGroup"></path>
                <path d="M402.179,12.703 L438.512,12.703 L438.512,56.254 L402.179,56.254 L402.179,12.703 Z" id="Fill-4" fill="#FFFFFF" sketch:type="MSShapeGroup"></path>
                <path d="M405.762,16.386 L434.929,16.386 L434.929,19.236 L405.762,19.236 L405.762,16.386 Z" id="Fill-5" fill="#323232" sketch:type="MSShapeGroup"></path>
                <path d="M405.762,22.04 L434.929,22.04 L434.929,24.889 L405.762,24.889 L405.762,22.04 Z" id="Fill-6" fill="#323232" sketch:type="MSShapeGroup"></path>
                <path d="M405.762,27.694 L434.929,27.694 L434.929,30.543 L405.762,30.543 L405.762,27.694 Z" id="Fill-7" fill="#323232" sketch:type="MSShapeGroup"></path>
                <path d="M405.762,33.348 L434.929,33.348 L434.929,36.198 L405.762,36.198 L405.762,33.348 Z" id="Fill-8" fill="#323232" sketch:type="MSShapeGroup"></path>
                <path d="M405.762,39.002 L434.929,39.002 L434.929,41.852 L405.762,41.852 L405.762,39.002 Z" id="Fill-9" fill="#323232" sketch:type="MSShapeGroup"></path>
                <path d="M405.762,44.656 L434.929,44.656 L434.929,47.505 L405.762,47.505 L405.762,44.656 Z" id="Fill-10" fill="#323232" sketch:type="MSShapeGroup"></path>
                <path d="M405.762,50.31 L434.929,50.31 L434.929,53.159 L405.762,53.159 L405.762,50.31 Z" id="Fill-11" fill="#323232" sketch:type="MSShapeGroup"></path>
                <path d="M376.26,20.076 L412.593,20.076 L412.593,63.627 L376.26,63.627 L376.26,20.076 Z" id="Fill-12" fill="#FFFFFF" sketch:type="MSShapeGroup"></path>
                <path d="M379.844,23.759 L409.011,23.759 L409.011,26.609 L379.844,26.609 L379.844,23.759 Z" id="Fill-13" fill="#323232" sketch:type="MSShapeGroup"></path>
                <path d="M379.844,29.413 L409.011,29.413 L409.011,32.262 L379.844,32.262 L379.844,29.413 Z" id="Fill-14" fill="#323232" sketch:type="MSShapeGroup"></path>
                <path d="M379.844,35.067 L409.011,35.067 L409.011,37.916 L379.844,37.916 L379.844,35.067 Z" id="Fill-15" fill="#323232" sketch:type="MSShapeGroup"></path>
                <path d="M379.844,40.721 L409.011,40.721 L409.011,43.571 L379.844,43.571 L379.844,40.721 Z" id="Fill-16" fill="#323232" sketch:type="MSShapeGroup"></path>
                <path d="M379.844,46.375 L409.011,46.375 L409.011,49.225 L379.844,49.225 L379.844,46.375 Z" id="Fill-17" fill="#323232" sketch:type="MSShapeGroup"></path>
                <path d="M379.844,52.029 L409.011,52.029 L409.011,54.878 L379.844,54.878 L379.844,52.029 Z" id="Fill-18" fill="#323232" sketch:type="MSShapeGroup"></path>
                <path d="M379.844,57.684 L409.011,57.684 L409.011,60.533 L379.844,60.533 L379.844,57.684 Z" id="Fill-19" fill="#323232" sketch:type="MSShapeGroup"></path>
                <path d="M31.07,99.609 L461.021,99.609 L461.021,191.882 L31.07,191.882 L31.07,99.609 Z" id="Fill-20" fill="#4881C2" sketch:type="MSShapeGroup"></path>
                <path d="M88.5,154.001 L53.834,154.001 L53.834,135.334 C53.834,125.025 61.594,116.668 71.167,116.668 C80.74,116.668 88.5,125.025 88.5,135.334 L88.5,154.001" id="Fill-21" fill="#A9D163" sketch:type="MSShapeGroup"></path>
                <path d="M56.933,178.922 C59.72,176.134 59.72,171.623 56.933,168.836 C54.145,166.049 54.145,161.538 56.933,158.75 C59.72,155.962 59.72,151.451 56.933,148.664 M68.908,178.922 C71.696,176.134 71.696,171.623 68.908,168.836 C66.121,166.049 66.121,161.538 68.908,158.75 C71.696,155.962 71.696,151.451 68.908,148.664 M80.884,178.922 C83.671,176.134 83.671,171.623 80.884,168.836 C78.097,166.049 78.097,161.538 80.884,158.75 C83.671,155.962 83.671,151.451 80.884,148.664" id="Stroke-22" stroke="#A9D163" stroke-width="4" stroke-linecap="round" stroke-linejoin="round" sketch:type="MSShapeGroup"></path>
                <path d="M171.384,143.935 L148.449,143.935 L148.449,131.584 C148.449,124.765 153.584,119.235 159.917,119.235 C166.25,119.235 171.384,124.765 171.384,131.584 L171.384,143.935" id="Fill-23" fill="#E75056" sketch:type="MSShapeGroup"></path>
                <path d="M150.499,160.422 C152.344,158.577 152.344,155.594 150.499,153.749 C148.655,151.904 148.655,148.921 150.499,147.076 C152.344,145.231 152.344,142.248 150.499,140.403 M158.423,160.422 C160.267,158.577 160.267,155.594 158.423,153.749 C156.578,151.904 156.578,148.921 158.423,147.076 C160.267,145.231 160.267,142.248 158.423,140.403 M166.346,160.422 C168.189,158.577 168.189,155.594 166.346,153.749 C164.501,151.904 164.501,148.921 166.346,147.076 C168.189,145.231 168.189,142.248 166.346,140.403" id="Stroke-24" stroke="#E75056" stroke-width="2.646" stroke-linecap="round" stroke-linejoin="round" sketch:type="MSShapeGroup"></path>
                <path d="M231.257,139.418 L254.191,139.418 L254.191,127.067 C254.191,120.248 249.057,114.719 242.723,114.719 C236.391,114.719 231.257,120.248 231.257,127.067 L231.257,139.418" id="Fill-25" fill="#A9D163" sketch:type="MSShapeGroup"></path>
                <path d="M252.142,155.905 C250.297,154.06 250.297,151.077 252.142,149.232 C253.985,147.388 253.985,144.404 252.142,142.56 C250.297,140.715 250.297,137.731 252.142,135.887 M244.218,155.905 C242.373,154.06 242.373,151.077 244.218,149.232 C246.062,147.388 246.062,144.404 244.218,142.56 C242.373,140.715 242.373,137.731 244.218,135.887 M236.295,155.905 C234.451,154.06 234.451,151.077 236.295,149.232 C238.14,147.388 238.14,144.404 236.295,142.56 C234.451,140.715 234.451,137.731 236.295,135.887" id="Stroke-26" stroke="#A9D163" stroke-width="2.646" stroke-linecap="round" stroke-linejoin="round" sketch:type="MSShapeGroup"></path>
                <path d="M410.702,152.99 L438.153,152.99 L438.153,138.208 C438.153,130.046 432.007,123.428 424.427,123.428 C416.848,123.428 410.702,130.046 410.702,138.208 L410.702,152.99" id="Fill-27" fill="#4FC1B3" sketch:type="MSShapeGroup"></path>
                <path d="M435.699,172.724 C433.492,170.516 433.492,166.944 435.699,164.737 C437.906,162.529 437.906,158.958 435.699,156.75 C433.492,154.542 433.492,150.972 435.699,148.764 M426.216,172.724 C424.009,170.516 424.009,166.944 426.216,164.737 C428.423,162.529 428.423,158.958 426.216,156.75 C424.009,154.542 424.009,150.972 426.216,148.764 M416.733,172.724 C414.526,170.516 414.526,166.944 416.733,164.737 C418.94,162.529 418.94,158.958 416.733,156.75 C414.526,154.542 414.526,150.972 416.733,148.764" id="Stroke-28" stroke="#4FC1B3" stroke-width="3.167" stroke-linecap="round" stroke-linejoin="round" sketch:type="MSShapeGroup"></path>
                <path d="M322.369,160.994 L349.819,160.994 L349.819,146.212 C349.819,138.05 343.673,131.432 336.093,131.432 C328.514,131.432 322.369,138.05 322.369,146.212 L322.369,160.994" id="Fill-29" fill="#FFCF01" sketch:type="MSShapeGroup"></path>
                <path d="M347.365,180.728 C345.158,178.52 345.158,174.948 347.365,172.741 C349.572,170.533 349.572,166.962 347.365,164.754 C345.158,162.546 345.158,158.976 347.365,156.768 M337.882,180.728 C335.675,178.52 335.675,174.948 337.882,172.741 C340.089,170.533 340.089,166.962 337.882,164.754 C335.675,162.546 335.675,158.976 337.882,156.768 M328.399,180.728 C326.192,178.52 326.192,174.948 328.399,172.741 C330.606,170.533 330.606,166.962 328.399,164.754 C326.192,162.546 326.192,158.976 328.399,156.768" id="Stroke-30" stroke="#A9D163" stroke-width="3.167" stroke-linecap="round" stroke-linejoin="round" sketch:type="MSShapeGroup"></path>
                <path d="M31.07,88.536 L461.021,88.536 L461.021,110.144 L31.07,110.144 L31.07,88.536 Z" id="Fill-31" fill="#28D2FF" sketch:type="MSShapeGroup"></path>
                <path d="M16.489,77.004 L39.883,77.004 L39.883,191.883 L16.489,191.883 L16.489,77.004 Z" id="Fill-32" fill="#28D2FF" sketch:type="MSShapeGroup"></path>
                <path d="M452.207,77.004 L475.6,77.004 L475.6,191.883 L452.207,191.883 L452.207,77.004 Z" id="Fill-33" fill="#28D2FF" sketch:type="MSShapeGroup"></path>
                <path d="M481.534,60.113 C481.534,57.981 479.805,56.254 477.675,56.254 L14.415,56.254 C12.285,56.254 10.557,57.981 10.557,60.113 L10.557,84.677 C10.557,86.809 12.285,88.536 14.415,88.536 L477.282,88.536 C479.63,88.536 481.534,86.633 481.534,84.284 L481.534,60.113" id="Fill-34" fill="#7EE4FF" sketch:type="MSShapeGroup"></path>
                <path d="M443.045,78.535 L47.535,78.535 L47.535,74.113 C47.535,71.981 49.264,70.254 51.394,70.254 L439.186,70.254 C441.317,70.254 443.045,71.981 443.045,74.113 L443.045,78.535" id="Fill-35" fill="#000000" sketch:type="MSShapeGroup"></path>
                <path d="M457.536,82.452 C457.536,80.29 455.807,78.536 453.676,78.536 L36.904,78.536 C34.773,78.536 33.045,80.29 33.045,82.452 L33.045,88.536 L457.536,88.536 L457.536,82.452" id="Fill-36" fill="#FFFFFF" sketch:type="MSShapeGroup"></path>
                <path d="M79.245,163.75 L412.845,163.75 L412.845,199.173 L79.245,199.173 L79.245,163.75 Z" id="Fill-37" fill="#98E9FF" sketch:type="MSShapeGroup"></path>
                <path d="M79.245,172.175 L99.915,172.175 L99.915,245.784 L79.245,245.784 L79.245,172.175 Z" id="Fill-38" fill="#98E9FF" sketch:type="MSShapeGroup"></path>
                <path d="M392.175,172.175 L412.845,172.175 L412.845,245.784 L392.175,245.784 L392.175,172.175 Z" id="Fill-39" fill="#98E9FF" sketch:type="MSShapeGroup"></path>
                <path d="M420.345,153.131 C420.345,150.999 418.617,149.272 416.486,149.272 L75.604,149.272 C73.473,149.272 71.745,150.999 71.745,153.131 L71.745,174.369 C71.745,176.501 73.473,178.229 75.604,178.229 L416.486,178.229 C418.617,178.229 420.345,176.501 420.345,174.369 L420.345,153.131" id="Fill-40" fill="#28D2FF" sketch:type="MSShapeGroup"></path>
                <path d="M189.479,11.048 L275.219,11.048 L275.219,47.081 L189.479,47.081 L189.479,11.048 Z" id="Fill-41" fill="#98E9FF" sketch:type="MSShapeGroup"></path>
                <path d="M188.667,47.223 C188.666,47.223 188.667,27.006 188.667,17.287 C188.667,7.568 200.667,7.673 200.667,17.287 C200.667,26.901 184,18.981 176,22.941 C168,26.901 167.333,41.568 179.333,43.047 C188.596,44.189 196,39.699 196,34.195" id="Stroke-42" stroke="#4881C2" stroke-width="4" stroke-linecap="round" stroke-linejoin="round" sketch:type="MSShapeGroup"></path>
            </g>
        </g>
    </g>
</svg>