<?xml version="1.0" encoding="UTF-8" standalone="no"?>
<svg width="1440px" height="752px" viewBox="0 0 1440 752" version="1.1" xmlns="http://www.w3.org/2000/svg" xmlns:xlink="http://www.w3.org/1999/xlink" xmlns:sketch="http://www.bohemiancoding.com/sketch/ns">
    <!-- Generator: Sketch 3.3.2 (12043) - http://www.bohemiancoding.com/sketch -->
    <title>aquarium</title>
    <desc>Created with Sketch.</desc>
    <defs></defs>
    <g id="Page-1" stroke="none" stroke-width="1" fill="none" fill-rule="evenodd" sketch:type="MSPage">
        <g id="aquarium" sketch:type="MSArtboardGroup">
            <g id="Imported-Layers" sketch:type="MSLayerGroup" transform="translate(-3.000000, -2.000000)">
                <path d="M0.67440111,0.748984064 L1443.7595,0.748984064 L1443.7595,666.737191 L0.67440111,666.737191 L0.67440111,0.748984064 Z" id="Fill-1" fill="#28D2FF" sketch:type="MSShapeGroup"></path>
                <path d="M1096.3798,52.1521514 C1096.3798,60.8802722 1089.3071,67.9570186 1080.58298,67.9570186 L1040.76125,67.9570186 C1032.03712,67.9570186 1024.96443,60.8802722 1024.96443,52.1521514 C1024.96443,43.4230279 1032.03712,36.3462815 1040.76125,36.3462815 L1080.58298,36.3462815 C1089.3071,36.3462815 1096.3798,43.4230279 1096.3798,52.1521514" id="Fill-2" fill="#D7F4FF" sketch:type="MSShapeGroup"></path>
                <path d="M1188.06829,86.040923 C1188.06829,98.0838247 1178.31001,107.846687 1166.27401,107.846687 L1016.53692,107.846687 C1004.49991,107.846687 994.74264,98.0838247 994.74264,86.040923 C994.74264,73.9970186 1004.49991,64.2331541 1016.53692,64.2331541 L1166.27401,64.2331541 C1178.31001,64.2331541 1188.06829,73.9970186 1188.06829,86.040923" id="Fill-3" fill="#D7F4FF" sketch:type="MSShapeGroup"></path>
                <path d="M1081.91875,86.040923 C1081.91875,98.0838247 1072.16148,107.846687 1060.12447,107.846687 L1016.53692,107.846687 C1004.49991,107.846687 994.74264,98.0838247 994.74264,86.040923 C994.74264,73.9970186 1004.49991,64.2331541 1016.53692,64.2331541 L1060.12447,64.2331541 C1072.16148,64.2331541 1081.91875,73.9970186 1081.91875,86.040923" id="Fill-4" fill="#FFFFFF" sketch:type="MSShapeGroup"></path>
                <path d="M1056.55706,52.1521514 C1056.55706,60.8812749 1049.48537,67.9570186 1040.76125,67.9570186 C1032.03712,67.9570186 1024.96443,60.8812749 1024.96443,52.1521514 C1024.96443,43.4220252 1032.03712,36.3462815 1040.76125,36.3462815 C1049.48537,36.3462815 1056.55706,43.4220252 1056.55706,52.1521514" id="Fill-5" fill="#FFFFFF" sketch:type="MSShapeGroup"></path>
                <path d="M1226.21053,123.638519 C1226.21053,132.360624 1219.14385,139.430352 1210.42774,139.430352 L1130.76824,139.430352 C1122.05213,139.430352 1114.98545,132.360624 1114.98545,123.638519 C1114.98545,114.916414 1122.05213,107.846687 1130.76824,107.846687 L1210.42774,107.846687 C1219.14385,107.846687 1226.21053,114.916414 1226.21053,123.638519" id="Fill-6" fill="#D7F4FF" sketch:type="MSShapeGroup"></path>
                <path d="M1114.98545,123.638519 C1114.98545,114.916414 1122.05213,107.846687 1130.76824,107.846687 L1142.22304,107.846687 C1150.93915,107.846687 1158.00583,114.916414 1158.00583,123.638519 C1158.00583,132.360624 1150.93915,139.430352 1142.22304,139.430352 L1130.76824,139.430352 C1122.05213,139.430352 1114.98545,132.360624 1114.98545,123.638519" id="Fill-7" fill="#FFFFFF" sketch:type="MSShapeGroup"></path>
                <path d="M1057.65935,155.974177 C1057.65935,148.614681 1051.69697,142.648878 1044.34168,142.648878 C1036.9864,142.648878 1031.02402,148.614681 1031.02402,155.974177 C1031.02402,163.332669 1036.9864,169.299475 1044.34168,169.299475 C1051.69697,169.299475 1057.65935,163.332669 1057.65935,155.974177" id="Fill-8" fill="#FFFFFF" sketch:type="MSShapeGroup"></path>
                <path d="M1443.7595,165.274814 C1442.51491,165.1184 1441.24929,165.028161 1439.96261,165.028161 L1420.62544,165.028161 C1404.02194,165.028161 1390.56298,178.494834 1390.56298,195.107842 L1390.56298,438.73822 C1390.56298,455.351228 1404.02194,468.817902 1420.62544,468.817902 L1439.96261,468.817902 C1441.24929,468.817902 1442.51491,468.727663 1443.7595,468.571248 L1443.7595,165.274814" id="Fill-9" fill="#5AB55C" sketch:type="MSShapeGroup"></path>
                <path d="M1430.62622,390.615744 C1430.62622,374.003738 1417.16826,360.536062 1400.56376,360.536062 L1395.41606,360.536062 C1378.81257,360.536062 1365.35361,374.003738 1365.35361,390.615744 L1365.35361,429.699276 C1365.35361,446.312284 1378.81257,459.778958 1395.41606,459.778958 L1400.56376,459.778958 C1417.16826,459.778958 1430.62622,446.312284 1430.62622,429.699276 L1430.62622,390.615744" id="Fill-10" fill="#5AB55C" sketch:type="MSShapeGroup"></path>
                <path d="M1184.13411,601.570564 C1184.13411,576.980425 1164.21072,557.04662 1139.63566,557.04662 C1115.0586,557.04662 1095.13521,576.980425 1095.13521,601.570564 C1095.13521,626.161707 1115.0586,646.096514 1139.63566,646.096514 C1164.21072,646.096514 1184.13411,626.161707 1184.13411,601.570564" id="Fill-11" fill="#3B9F86" sketch:type="MSShapeGroup"></path>
                <path d="M1113.63164,626.60488 C1113.63164,609.636932 1099.88408,595.881494 1082.92384,595.881494 C1065.96361,595.881494 1052.21604,609.636932 1052.21604,626.60488 C1052.21604,643.574834 1065.96361,657.330272 1082.92384,657.330272 C1099.88408,657.330272 1113.63164,643.574834 1113.63164,626.60488" id="Fill-12" fill="#3B9F86" sketch:type="MSShapeGroup"></path>
                <path d="M1232.38736,551.363566 C1232.38736,528.682483 1214.01219,510.29678 1191.34309,510.29678 C1168.67399,510.29678 1150.29882,528.682483 1150.29882,551.363566 C1150.29882,574.043645 1168.67399,592.430352 1191.34309,592.430352 C1214.01219,592.430352 1232.38736,574.043645 1232.38736,551.363566" id="Fill-13" fill="#3B9F86" sketch:type="MSShapeGroup"></path>
                <path d="M1304.18853,552.169701 C1304.18853,529.488619 1285.81436,511.101912 1263.14526,511.101912 C1240.47516,511.101912 1222.10099,529.488619 1222.10099,552.169701 C1222.10099,574.850784 1240.47516,593.236487 1263.14526,593.236487 C1285.81436,593.236487 1304.18853,574.850784 1304.18853,552.169701" id="Fill-14" fill="#3B9F86" sketch:type="MSShapeGroup"></path>
                <path d="M1443.75449,511.102915 C1443.75449,467.770126 1408.64856,432.642072 1365.33858,432.642072 C1322.02759,432.642072 1286.92166,467.770126 1286.92166,511.102915 C1286.92166,554.435704 1322.02759,589.561753 1365.33858,589.561753 C1408.64856,589.561753 1443.75449,554.435704 1443.75449,511.102915" id="Fill-15" fill="#3B9F86" sketch:type="MSShapeGroup"></path>
                <path d="M1173.11121,545.99334 L1443.75449,545.99334 L1443.75449,646.754256 L1173.11121,646.754256 L1173.11121,545.99334 Z" id="Fill-16" fill="#3B9F86" sketch:type="MSShapeGroup"></path>
                <path d="M1085.9341,607.652676 L1443.75449,607.652676 L1443.75449,667.511242 L1085.9341,667.511242 L1085.9341,607.652676 Z" id="Fill-17" fill="#3B9F86" sketch:type="MSShapeGroup"></path>
                <path d="M1325.33046,646.339157 C1325.33046,630.799993 1312.7413,618.203625 1297.21204,618.203625 C1281.68278,618.203625 1269.09262,630.799993 1269.09262,646.339157 C1269.09262,661.87832 1281.68278,674.474688 1297.21204,674.474688 C1312.7413,674.474688 1325.33046,661.87832 1325.33046,646.339157" id="Fill-18" fill="#3B8186" sketch:type="MSShapeGroup"></path>
                <path d="M1367.35777,511.102915 L1443.75449,511.102915 L1443.75449,605.573167 L1367.35777,605.573167 L1367.35777,511.102915 Z" id="Fill-19" fill="#3B9F86" sketch:type="MSShapeGroup"></path>
                <path d="M1368.16946,606.150697 C1368.16946,585.97826 1351.8255,569.62494 1331.66662,569.62494 C1311.50573,569.62494 1295.16178,585.97826 1295.16178,606.150697 C1295.16178,626.322131 1311.50573,642.675452 1331.66662,642.675452 C1351.8255,642.675452 1368.16946,626.322131 1368.16946,606.150697" id="Fill-20" fill="#3B8186" sketch:type="MSShapeGroup"></path>
                <path d="M1383.54841,538.711049 L1443.75449,538.711049 L1443.75449,663.489588 L1383.54841,663.489588 L1383.54841,538.711049 Z" id="Fill-21" fill="#3B8186" sketch:type="MSShapeGroup"></path>
                <path d="M1377.66619,543.00743 C1377.66619,524.747058 1392.46092,509.944847 1410.70984,509.944847 C1428.95975,509.944847 1443.75449,524.747058 1443.75449,543.00743 C1443.75449,561.267802 1428.95975,576.071016 1410.70984,576.071016 C1392.46092,576.071016 1377.66619,561.267802 1377.66619,543.00743" id="Fill-22" fill="#3B8186" sketch:type="MSShapeGroup"></path>
                <path d="M1392.12322,570.483214 C1392.12322,558.853406 1382.70165,549.427437 1371.0795,549.427437 C1359.45836,549.427437 1350.03578,558.853406 1350.03578,570.483214 C1350.03578,582.110013 1359.45836,591.538991 1371.0795,591.538991 C1382.70165,591.538991 1392.12322,582.110013 1392.12322,570.483214" id="Fill-23" fill="#3B8186" sketch:type="MSShapeGroup"></path>
                <path d="M1320.41725,585.352603 L1410.70984,585.352603 L1410.70984,646.754256 L1320.41725,646.754256 L1320.41725,585.352603 Z" id="Fill-24" fill="#3B8186" sketch:type="MSShapeGroup"></path>
                <path d="M1412.60878,624.500305 L1443.67332,624.500305 L1443.67332,652.768187 L1412.60878,652.768187 L1412.60878,624.500305 Z" id="Fill-25" fill="#A9D163" sketch:type="MSShapeGroup"></path>
                <path d="M1443.67332,624.065153 C1443.67332,632.648891 1436.71887,639.606321 1428.14105,639.606321 C1419.56223,639.606321 1412.60878,632.648891 1412.60878,624.065153 C1412.60878,615.482417 1419.56223,608.523984 1428.14105,608.523984 C1436.71887,608.523984 1443.67332,615.482417 1443.67332,624.065153" id="Fill-26" fill="#A9D163" sketch:type="MSShapeGroup"></path>
                <path d="M1364.50885,634.80761 C1364.50885,620.410471 1376.17309,608.738552 1390.56298,608.738552 C1404.95188,608.738552 1416.61711,620.410471 1416.61711,634.80761 C1416.61711,649.204748 1404.95188,660.876667 1390.56298,660.876667 C1376.17309,660.876667 1364.50885,649.204748 1364.50885,634.80761" id="Fill-27" fill="#A9D163" sketch:type="MSShapeGroup"></path>
                <path d="M1443.67332,432.947882 C1443.67332,417.165073 1430.88676,404.372185 1415.11399,404.372185 C1399.34122,404.372185 1386.55465,417.165073 1386.55465,432.947882 C1386.55465,448.729688 1399.34122,461.523579 1415.11399,461.523579 C1430.88676,461.523579 1443.67332,448.729688 1443.67332,432.947882" id="Fill-28" fill="#3B9F86" sketch:type="MSShapeGroup"></path>
                <path d="M1405.55613,432.947882 L1443.67332,432.947882 L1443.67332,489.618001 L1405.55613,489.618001 L1405.55613,432.947882 Z" id="Fill-29" fill="#3B9F86" sketch:type="MSShapeGroup"></path>
                <path d="M1327.23642,622.967244 C1327.23642,639.580252 1313.77645,653.046926 1297.17396,653.046926 L30.7378598,653.046926 C14.1353671,653.046926 0.675403192,639.580252 0.675403192,622.967244 L0.675403192,202.038201 L1297.17396,202.038201 C1313.77645,202.038201 1327.23642,215.505876 1327.23642,232.117882 L1327.23642,622.967244" id="Fill-30" fill="#CFF1E8" sketch:type="MSShapeGroup"></path>
                <path d="M123.178912,247.448493 L234.357893,247.448493 L234.357893,337.837935 L123.178912,337.837935 L123.178912,247.448493 Z" id="Fill-31" fill="#F2FAF9" sketch:type="MSShapeGroup"></path>
                <path d="M263.490418,247.448493 L374.669399,247.448493 L374.669399,337.837935 L263.490418,337.837935 L263.490418,247.448493 Z" id="Fill-32" fill="#F2FAF9" sketch:type="MSShapeGroup"></path>
                <path d="M403.802926,247.448493 L514.981907,247.448493 L514.981907,337.837935 L403.802926,337.837935 L403.802926,247.448493 Z" id="Fill-33" fill="#F2FAF9" sketch:type="MSShapeGroup"></path>
                <path d="M123.178912,364.101507 L234.357893,364.101507 L234.357893,454.49095 L123.178912,454.49095 L123.178912,364.101507 Z" id="Fill-34" fill="#F2FAF9" sketch:type="MSShapeGroup"></path>
                <path d="M263.490418,364.101507 L374.669399,364.101507 L374.669399,454.49095 L263.490418,454.49095 L263.490418,364.101507 Z" id="Fill-35" fill="#F2FAF9" sketch:type="MSShapeGroup"></path>
                <path d="M403.802926,364.101507 L514.981907,364.101507 L514.981907,454.49095 L403.802926,454.49095 L403.802926,364.101507 Z" id="Fill-36" fill="#F2FAF9" sketch:type="MSShapeGroup"></path>
                <path d="M552.776929,247.448493 L663.95591,247.448493 L663.95591,337.837935 L552.776929,337.837935 L552.776929,247.448493 Z" id="Fill-33-Copy" fill="#F2FAF9" sketch:type="MSShapeGroup"></path>
                <path d="M552.776929,364.101507 L663.95591,364.101507 L663.95591,454.49095 L552.776929,454.49095 L552.776929,364.101507 Z" id="Fill-36-Copy" fill="#F2FAF9" sketch:type="MSShapeGroup"></path>
                <path d="M123.178912,484.282869 L234.403989,484.282869 L234.403989,610.413991 L123.178912,610.413991 L123.178912,484.282869 Z" id="Fill-37" fill="#F2FAF9" sketch:type="MSShapeGroup"></path>
                <path d="M263.444322,480.754522 L374.669399,480.754522 L374.669399,606.885644 L263.444322,606.885644 L263.444322,480.754522 Z" id="Fill-37-Copy-2" fill="#F2FAF9" sketch:type="MSShapeGroup"></path>
                <path d="M424.785518,480.754522 L514.981907,480.754522 L514.981907,606.885644 L424.785518,606.885644 L424.785518,480.754522 Z" id="Fill-37-Copy" fill="#F2FAF9" sketch:type="MSShapeGroup"></path>
                <path d="M552.776929,480.754522 L664.002006,480.754522 L664.002006,606.885644 L552.776929,606.885644 L552.776929,480.754522 Z" id="Fill-37-Copy-3" fill="#F2FAF9" sketch:type="MSShapeGroup"></path>
                <path d="M1167.64586,247.448493 L1278.82584,247.448493 L1278.82584,337.837935 L1167.64586,337.837935 L1167.64586,247.448493 Z" id="Fill-38" fill="#F2FAF9" sketch:type="MSShapeGroup"></path>
                <path d="M1167.64586,364.10251 L1278.82584,364.10251 L1278.82584,454.49095 L1167.64586,454.49095 L1167.64586,364.10251 Z" id="Fill-39" fill="#F2FAF9" sketch:type="MSShapeGroup"></path>
                <path d="M1167.64586,480.754522 L1278.82584,480.754522 L1278.82584,571.143964 L1167.64586,571.143964 L1167.64586,480.754522 Z" id="Fill-40" fill="#F2FAF9" sketch:type="MSShapeGroup"></path>
                <path d="M1027.33335,247.448493 L1138.51333,247.448493 L1138.51333,337.837935 L1027.33335,337.837935 L1027.33335,247.448493 Z" id="Fill-41" fill="#F2FAF9" sketch:type="MSShapeGroup"></path>
                <path d="M1027.33335,364.10251 L1138.51333,364.10251 L1138.51333,454.49095 L1027.33335,454.49095 L1027.33335,364.10251 Z" id="Fill-42" fill="#F2FAF9" sketch:type="MSShapeGroup"></path>
                <path d="M1027.33335,480.754522 L1138.51333,480.754522 L1138.51333,571.143964 L1027.33335,571.143964 L1027.33335,480.754522 Z" id="Fill-43" fill="#F2FAF9" sketch:type="MSShapeGroup"></path>
                <path d="M887.020841,247.448493 L998.200824,247.448493 L998.200824,337.837935 L887.020841,337.837935 L887.020841,247.448493 Z" id="Fill-44" fill="#F2FAF9" sketch:type="MSShapeGroup"></path>
                <path d="M887.020841,364.10251 L998.200824,364.10251 L998.200824,454.49095 L887.020841,454.49095 L887.020841,364.10251 Z" id="Fill-45" fill="#F2FAF9" sketch:type="MSShapeGroup"></path>
                <path d="M887.020841,480.754522 L998.200824,480.754522 L998.200824,571.143964 L887.020841,571.143964 L887.020841,480.754522 Z" id="Fill-46" fill="#F2FAF9" sketch:type="MSShapeGroup"></path>
                <path d="M0.67440111,228.192483 L817.702829,228.192483 L910.892436,202.038201 L0.67440111,202.038201 L0.67440111,228.192483" id="Fill-47" fill="#F48939" sketch:type="MSShapeGroup"></path>
                <path d="M56.2739126,228.192483 L86.3243442,228.192483 L86.3243442,626.605883 L56.2739126,626.605883 L56.2739126,228.192483 Z" id="Fill-48" fill="#B7D3CB" sketch:type="MSShapeGroup"></path>
                <path d="M416.875084,228.192483 L386.824652,228.192483 L386.824652,603.368327 L416.875084,603.368327 L416.875084,455.853207 L403.802926,455.853207 L403.802926,364.919644 L416.875084,364.919644 L416.875084,338.497972 L403.802926,338.497972 L403.802926,247.564409 L416.875084,247.564409 L416.875084,228.192483" id="Fill-49" fill="#B7D3CB" sketch:type="MSShapeGroup"></path>
                <path d="M403.802926,247.448493 L416.875084,247.448493 L416.875084,337.837935 L403.802926,337.837935 L403.802926,247.448493 Z" id="Fill-50" fill="#D4DBD9" sketch:type="MSShapeGroup"></path>
                <path d="M403.802926,364.101507 L416.875084,364.101507 L416.875084,454.49095 L403.802926,454.49095 L403.802926,364.101507 Z" id="Fill-51" fill="#D4DBD9" sketch:type="MSShapeGroup"></path>
                <path d="M717.375392,228.192483 L747.425824,228.192483 L747.425824,603.368327 L717.375392,603.368327 L717.375392,228.192483 Z" id="Fill-52" fill="#B7D3CB" sketch:type="MSShapeGroup"></path>
                <path d="M70.0575489,216.161614 L100.119003,216.161614 L100.119003,626.605883 L70.0575489,626.605883 L70.0575489,216.161614 Z" id="Fill-53" fill="#FFFFFF" sketch:type="MSShapeGroup"></path>
                <path d="M400.728539,216.161614 L430.789993,216.161614 L430.789993,603.368327 L400.728539,603.368327 L400.728539,216.161614 Z" id="Fill-54" fill="#FFFFFF" sketch:type="MSShapeGroup"></path>
                <path d="M731.398526,216.161614 L761.459981,216.161614 L761.459981,603.368327 L731.398526,603.368327 L731.398526,216.161614 Z" id="Fill-55" fill="#FFFFFF" sketch:type="MSShapeGroup"></path>
                <path d="M0.67440111,156.005259 L910.892436,156.005259 L910.892436,202.038201 L0.67440111,202.038201 L0.67440111,156.005259 Z" id="Fill-56" fill="#ECECEB" sketch:type="MSShapeGroup"></path>
                <path d="M0.67440111,603.368327 L1443.7595,603.368327 L1443.7595,754.747331 L0.67440111,754.747331 L0.67440111,603.368327 Z" id="Fill-61" fill="#ECECEB" sketch:type="MSShapeGroup"></path>
                <path d="M1006.22149,711.727371 C1006.22149,704.600491 1011.99548,698.82419 1019.11728,698.82419 C1026.23908,698.82419 1032.01307,704.600491 1032.01307,711.727371" id="Fill-62" fill="#A7A7A5" sketch:type="MSShapeGroup"></path>
                <path d="M1333.54853,673.189283 C1333.54853,666.063406 1339.32253,660.286102 1346.44532,660.286102 C1353.56712,660.286102 1359.34112,666.063406 1359.34112,673.189283" id="Fill-63" fill="#C7C7C4" sketch:type="MSShapeGroup"></path>
                <path d="M389.966179,653.207351 C389.966179,646.080471 395.740175,640.303167 402.861971,640.303167 C409.984769,640.303167 415.758765,646.080471 415.758765,653.207351" id="Fill-64" fill="#C7C7C4" sketch:type="MSShapeGroup"></path>
                <path d="M182.247631,670.998479 C182.247631,663.8716 188.021627,658.095299 195.143423,658.095299 C202.266221,658.095299 208.039214,663.8716 208.039214,670.998479" id="Fill-65" fill="#A7A7A5" sketch:type="MSShapeGroup"></path>
                <path d="M250.08156,702.466839 C250.08156,695.33996 255.854554,689.562656 262.977352,689.562656 C270.099148,689.562656 275.873144,695.33996 275.873144,702.466839" id="Fill-66" fill="#C7C7C4" sketch:type="MSShapeGroup"></path>
                <path d="M328.438351,60.9755246 C328.438351,74.2657304 317.671983,85.0382669 304.389388,85.0382669 L189.262204,85.0382669 C175.980611,85.0382669 165.214243,74.2657304 165.214243,60.9755246 C165.214243,47.687324 175.980611,36.9137849 189.262204,36.9137849 L304.389388,36.9137849 C317.671983,36.9137849 328.438351,47.687324 328.438351,60.9755246" id="Fill-72" fill="#D7F4FF" sketch:type="MSShapeGroup"></path>
                <path d="M400.590251,100.255578 C400.590251,109.213307 393.333174,116.475544 384.37857,116.475544 L244.515997,116.475544 C235.562396,116.475544 228.304316,109.213307 228.304316,100.255578 C228.304316,91.2968459 235.563398,84.0356109 244.515997,84.0356109 L384.37857,84.0356109 C393.333174,84.0356109 400.590251,91.2968459 400.590251,100.255578" id="Fill-73" fill="#D7F4FF" sketch:type="MSShapeGroup"></path>
                <path d="M286.352916,100.255578 C286.352916,109.214309 279.094837,116.475544 270.141235,116.475544 L229.077924,116.475544 C220.124322,116.475544 212.866243,109.213307 212.866243,100.255578 C212.866243,91.2968459 220.124322,84.0356109 229.077924,84.0356109 L270.141235,84.0356109 C279.094837,84.0356109 286.352916,91.2978486 286.352916,100.255578" id="Fill-74" fill="#FFFFFF" sketch:type="MSShapeGroup"></path>
                <path d="M265.916458,60.9755246 C265.916458,74.2657304 255.149088,85.0382669 241.867495,85.0382669 L189.262204,85.0382669 C175.980611,85.0382669 165.214243,74.2657304 165.214243,60.9755246 C165.214243,47.687324 175.980611,36.9137849 189.262204,36.9137849 L241.867495,36.9137849 C255.149088,36.9137849 265.916458,47.687324 265.916458,60.9755246" id="Fill-75" fill="#FFFFFF" sketch:type="MSShapeGroup"></path>
                <path d="M150.235123,100.936381 C150.235123,93.4605777 144.17854,87.4005246 136.707017,87.4005246 C129.235495,87.4005246 123.178912,93.4605777 123.178912,100.936381 C123.178912,108.412185 129.235495,114.472238 136.707017,114.472238 C144.17854,114.472238 150.235123,108.412185 150.235123,100.936381" id="Fill-76" fill="#FFFFFF" sketch:type="MSShapeGroup"></path>
            </g>
            <g id="Imported-Layers" sketch:type="MSLayerGroup" transform="translate(784.000000, 174.000000)">
                <path d="M205.119392,337.397173 C205.119392,350.150957 215.464672,360.490698 228.22701,360.490698 L235.65919,360.490698 C248.421527,360.490698 258.766808,350.150957 258.766808,337.397173 L258.766808,292.202374 C258.766808,279.44782 248.421527,269.108849 235.65919,269.108849 L228.22701,269.108849 C215.464672,269.108849 205.119392,279.44782 205.119392,292.202374 L205.119392,337.397173" id="Fill-1" fill="#383B33" sketch:type="MSShapeGroup"></path>
                <path d="M335.658177,80.3208201 C335.658177,106.10859 343.097289,121.889165 343.097289,121.889165 L318.835831,121.889165 L335.658177,80.3208201" id="Fill-2" fill="#383B33" sketch:type="MSShapeGroup"></path>
                <path d="M414.053851,310.160669 L442.919888,321.591964 C447.301092,323.325518 452.30081,322.004568 455.250883,318.332698 C458.200955,314.660827 458.412005,309.495576 455.770804,305.595079 L424.452279,259.357993 L414.053851,310.160669" id="Fill-3" fill="#383B33" sketch:type="MSShapeGroup"></path>
                <path d="M341.555241,15.8675612 C341.555241,31.5626906 335.658177,36.8641942 335.658177,66.5193597 L335.658177,128.510079 L273.360809,118.904712 L273.377755,118.903173 C284.682001,117.155763 293.043878,106.49964 293.043878,93.8859568 L293.043878,66.5193597 C293.043878,34.6210432 298.2662,18.1099424 310.103462,6.15057554 C321.940724,-5.80879137 341.555241,0.919122302 341.555241,15.8675612" id="Fill-4" fill="#383B33" sketch:type="MSShapeGroup"></path>
                <path d="M431.393037,339.692669 C435.485397,342.296849 440.817094,341.835748 444.400316,338.568014 C447.985077,335.299511 448.931719,330.035727 446.710307,325.725705 L442.788174,318.113309 C434.784466,302.575986 430.608149,285.352835 430.608149,267.877194 L430.608149,219.88346 C430.608149,161.523813 383.270653,114.215187 324.876162,114.215187 L305.85243,114.215187 C239.502757,114.215187 185.715925,167.969216 185.715925,234.278424 L185.715925,272.301914 L185.889232,272.298835 L185.889232,327.016633 C185.889232,339.771187 196.235283,350.110158 208.99685,350.110158 L209.559906,350.110158 C222.322243,350.110158 232.667524,339.771187 232.667524,327.016633 L232.667524,277.939813 C232.667524,274.339532 235.553665,271.401266 239.156143,271.336604 C240.930037,271.304273 242.641542,271.986302 243.906299,273.227964 C245.172596,274.470396 245.885081,276.16777 245.885081,277.939813 L245.885081,334.133288 C245.885081,339.489446 250.228543,343.831029 255.58874,343.831029 C260.946626,343.831029 265.291629,339.489446 265.291629,334.133288 L265.291629,260.667396 C265.291629,227.386547 292.287489,200.407151 325.588647,200.407151 C357.684358,200.407151 384.154904,225.533676 385.806329,257.567475 L386.028932,261.892892 C387.664952,293.633403 404.567404,322.621165 431.393037,339.692669" id="Fill-5" fill="#51534B" sketch:type="MSShapeGroup"></path>
                <path d="M50.071127,343.306036 L587.696046,343.306036 L587.696046,427.341065 L50.071127,427.341065 L50.071127,343.306036 Z" id="Fill-6" fill="#383B33" sketch:type="MSShapeGroup"></path>
                <path d="M37.7409021,343.306036 L600.026271,343.306036 L600.026271,353.686576 L37.7409021,353.686576 L37.7409021,343.306036 Z" id="Fill-7" fill="#74766E" sketch:type="MSShapeGroup"></path>
                <path d="M0.768713422,379.876173 L636.998459,379.876173 L636.998459,427.341065 L0.768713422,427.341065 L0.768713422,379.876173 Z" id="Fill-8" fill="#A6A7A1" sketch:type="MSShapeGroup"></path>
                <path d="M117.847311,379.876173 L636.998459,379.876173 L636.998459,427.341065 L117.847311,427.341065 L117.847311,379.876173 Z" id="Fill-9" fill="#C3C4BE" sketch:type="MSShapeGroup"></path>
            </g>
        </g>
    </g>
</svg>