<?xml version="1.0" encoding="UTF-8" standalone="no"?>
<svg width="1440px" height="752px" viewBox="0 0 1440 752" version="1.1" xmlns="http://www.w3.org/2000/svg" xmlns:xlink="http://www.w3.org/1999/xlink" xmlns:sketch="http://www.bohemiancoding.com/sketch/ns">
    <!-- Generator: Sketch 3.3.2 (12043) - http://www.bohemiancoding.com/sketch -->
    <title>Artboard</title>
    <desc>Created with Sketch.</desc>
    <defs></defs>
    <g id="Page-1" stroke="none" stroke-width="1" fill="none" fill-rule="evenodd" sketch:type="MSPage">
        <g id="Artboard" sketch:type="MSArtboardGroup">
            <g id="_x31_BG" sketch:type="MSLayerGroup" fill="#28D2FF">
                <rect id="Rectangle-path" sketch:type="MSShapeGroup" x="0" y="0" width="1440" height="664.629"></rect>
            </g>
            <g id="_x31_Cloudbehind_mountian" sketch:type="MSLayerGroup" transform="translate(1081.000000, 110.000000)">
                <path d="M282.633,17.677 C282.633,27.203 274.91,34.926 265.384,34.926 L139.39,34.926 C129.864,34.926 122.141,27.203 122.141,17.677 L122.141,17.677 C122.141,8.151 129.864,0.427 139.39,0.427 L265.384,0.427 C274.91,0.427 282.633,8.15 282.633,17.677 L282.633,17.677 L282.633,17.677 Z" id="Shape" fill="#D7F4FF" sketch:type="MSShapeGroup"></path>
                <path d="M79.619,49.848 C79.619,58.64 86.748,65.769 95.541,65.769 L179.715,65.769 C188.508,65.769 195.637,58.641 195.637,49.848 L195.637,49.848 C195.637,41.054 188.508,33.925 179.715,33.925 L95.541,33.925 C86.748,33.925 79.619,41.053 79.619,49.848 L79.619,49.848 L79.619,49.848 Z" id="Shape" fill="#D7F4FF" sketch:type="MSShapeGroup"></path>
                <path d="M127.56,49.848 C127.56,58.641 120.431,65.769 111.638,65.769 L90.056,65.769 C81.263,65.769 74.134,58.641 74.134,49.848 L74.134,49.848 C74.134,41.054 81.263,33.926 90.056,33.926 L111.638,33.926 C120.431,33.925 127.56,41.054 127.56,49.848 L127.56,49.848 L127.56,49.848 Z" id="Shape" fill="#FFFFFF" sketch:type="MSShapeGroup"></path>
                <path d="M154.927,17.677 C154.927,27.203 147.204,34.926 137.678,34.926 L137.678,34.926 C128.152,34.926 120.429,27.203 120.429,17.677 L120.429,17.677 C120.429,8.151 128.152,0.427 137.678,0.427 L137.678,0.427 C147.204,0.427 154.927,8.15 154.927,17.677 L154.927,17.677 L154.927,17.677 Z" id="Shape" fill="#FFFFFF" sketch:type="MSShapeGroup"></path>
                <path d="M32.674,50.848 C32.674,42.076 25.563,34.964 16.79,34.964 L16.79,34.964 C8.018,34.964 0.906,42.075 0.906,50.848 L0.906,50.848 C0.906,59.621 8.017,66.732 16.79,66.732 L16.79,66.732 C25.562,66.731 32.674,59.621 32.674,50.848 L32.674,50.848 L32.674,50.848 Z" id="Shape" fill="#D7F4FF" sketch:type="MSShapeGroup"></path>
            </g>
            <g id="_x31_Canada_Place" sketch:type="MSLayerGroup" transform="translate(0.000000, 160.000000)">
                <g id="Group" sketch:type="MSShapeGroup">
                    <path d="M665.873,238.957 C686.894,213.131 714.836,194.364 746.66,184.561 C834.831,157.397 953.467,65.152 1029.229,65.152 C1118.071,65.152 1132.215,0.83 1201.639,0.83 C1271.063,0.83 1324.116,138.389 1382.058,165.518 C1440,192.646 1440.081,200.928 1440.081,200.928 L1440.081,377.397 L553.2,377.397 L665.873,238.957 L665.873,238.957 Z" id="Shape" fill="#5AB55C"></path>
                    <path d="M1260.563,273.715 C1236.564,215.292 1139.069,188.145 1086.572,185.294 C1034.074,182.443 1004.076,176.146 1004.076,149.64 C1004.076,123.134 1077.572,114.649 1106.071,99.511 C1134.568,84.374 1178.061,41.159 1197.628,0.911 C1131.639,3.334 1116.33,65.152 1029.229,65.152 C953.663,65.152 835.442,156.923 747.341,184.35 C715.051,194.402 686.756,213.615 665.597,239.996 L553.2,377.396 L1253.828,377.396 C1253.828,377.396 1284.562,332.138 1260.563,273.715 L1260.563,273.715 Z" id="Shape" fill="#5A9780"></path>
                    <path d="M12.626,241.571 C122.747,158.146 245.818,12.654 323.814,12.654 C401.81,12.654 430.606,83.851 503.204,94 C570.241,103.372 576.655,184.541 684.714,196.92 C703.609,199.084 721.28,207.431 734.922,220.683 C758.32,243.412 797.842,276.498 836.322,284.29 C856.896,288.456 936.855,301.411 980.281,308.381 C998.823,311.357 1016.219,319.48 1030.353,331.845 L1030.36,331.851 C1063.726,361.044 1106.553,377.135 1150.888,377.135 L1160.829,377.135 L19.329,377.135 L12.626,241.571 L12.626,241.571 Z" id="Shape" fill="#5AB55C"></path>
                    <path d="M358.476,351.343 C345.844,322.55 284.112,318.639 283.45,258.713 C282.788,198.787 248.908,162.551 243.615,119.149 C236.115,57.652 320.111,48.922 323.814,12.654 C246.34,12.654 109.553,168.707 0,252.39 L0,377.136 L355.192,377.136 C360.755,372.79 364.491,365.053 358.476,351.343 L358.476,351.343 Z" id="Shape" fill="#5A9780"></path>
                </g>
                <rect id="Rectangle-path" fill="#3499DF" sketch:type="MSShapeGroup" x="0" y="374.547" width="1440" height="173.336"></rect>
                <rect id="Rectangle-path" fill="#392722" sketch:type="MSShapeGroup" x="0" y="409.647" width="597.833" height="32.586"></rect>
                <g id="Group" transform="translate(0.000000, 409.000000)" fill="#392722" sketch:type="MSShapeGroup">
                    <rect id="Rectangle-path" x="0" y="0.647" width="10.565" height="43.586"></rect>
                    <rect id="Rectangle-path" x="27.276" y="0.647" width="10.565" height="43.586"></rect>
                    <rect id="Rectangle-path" x="54.551" y="0.647" width="10.565" height="43.586"></rect>
                    <rect id="Rectangle-path" x="81.827" y="0.647" width="10.565" height="43.586"></rect>
                    <rect id="Rectangle-path" x="109.103" y="0.647" width="10.565" height="43.586"></rect>
                    <rect id="Rectangle-path" x="136.378" y="0.647" width="10.565" height="43.586"></rect>
                    <rect id="Rectangle-path" x="163.653" y="0.647" width="10.565" height="43.586"></rect>
                    <rect id="Rectangle-path" x="190.929" y="0.647" width="10.565" height="43.586"></rect>
                    <rect id="Rectangle-path" x="218.204" y="0.647" width="10.565" height="43.586"></rect>
                    <rect id="Rectangle-path" x="245.479" y="0.647" width="10.565" height="43.586"></rect>
                    <rect id="Rectangle-path" x="272.755" y="0.647" width="10.565" height="43.586"></rect>
                    <rect id="Rectangle-path" x="300.03" y="0.647" width="10.565" height="43.586"></rect>
                    <rect id="Rectangle-path" x="327.306" y="0.647" width="10.565" height="43.586"></rect>
                    <rect id="Rectangle-path" x="354.581" y="0.647" width="10.565" height="43.586"></rect>
                    <rect id="Rectangle-path" x="381.856" y="0.647" width="10.565" height="43.586"></rect>
                    <rect id="Rectangle-path" x="409.132" y="0.647" width="10.565" height="43.586"></rect>
                    <rect id="Rectangle-path" x="436.407" y="0.647" width="10.565" height="43.586"></rect>
                    <rect id="Rectangle-path" x="463.683" y="0.647" width="10.565" height="43.586"></rect>
                </g>
                <rect id="Rectangle-path" fill="#D7F4FF" sketch:type="MSShapeGroup" x="0" y="336.879" width="566.335" height="27.197"></rect>
                <rect id="Rectangle-path" fill="#FFFFFF" sketch:type="MSShapeGroup" x="0" y="360.434" width="597.833" height="49.213"></rect>
                <rect id="Rectangle-path" fill="#D7F4FF" sketch:type="MSShapeGroup" x="0" y="377.576" width="566.335" height="14.316"></rect>
                <g id="Group" transform="translate(34.000000, 209.000000)" sketch:type="MSShapeGroup">
                    <g transform="translate(252.000000, 0.000000)" id="Shape">
                        <path d="M0.562,127.788 L134.562,127.788 L136.711,127.788 L270.711,127.788 L241.465,0.349 C224.213,30.203 185.631,50.079 136.625,50.079 L134.648,50.079" fill="#FFFFFF"></path>
                        <path d="M270.711,127.788 L241.465,0.349 L241.465,0.348 L212.219,127.787 L241.465,127.787 L241.465,127.788 L270.711,127.788 Z" fill="#EFFBFF"></path>
                    </g>
                    <g transform="translate(189.000000, 0.000000)" id="Shape">
                        <path d="M0.562,127.788 L134.562,127.788 L136.711,127.788 L270.711,127.788 L241.465,0.349 C224.213,30.203 185.631,50.079 136.625,50.079 L134.648,50.079" fill="#FFFFFF"></path>
                        <path d="M270.711,127.788 L241.465,0.349 L241.465,0.348 L212.219,127.787 L241.465,127.787 L241.465,127.788 L270.711,127.788 Z" fill="#EFFBFF"></path>
                    </g>
                    <g transform="translate(126.000000, 0.000000)" id="Shape">
                        <path d="M241.465,0.349 C224.213,30.203 185.631,50.079 136.625,50.079 L134.648,50.079 C85.642,50.079 47.06,30.202 29.808,0.349 L0.562,127.788 L134.562,127.788 L136.711,127.788 L270.711,127.788 L241.465,0.349 L241.465,0.349 Z" fill="#FFFFFF"></path>
                        <path d="M270.711,127.788 L241.465,0.349 L241.465,0.348 L212.219,127.787 L241.465,127.787 L241.465,127.788 L270.711,127.788 Z" fill="#EFFBFF"></path>
                        <path d="M135.637,50.079 L134.649,50.079 C85.643,50.079 47.061,30.202 29.809,0.349 L0.563,127.788 L134.563,127.788 L135.638,127.788 L135.638,50.079 L135.637,50.079 Z" fill="#EFFBFF"></path>
                    </g>
                    <g transform="translate(63.000000, 0.000000)" id="Shape">
                        <path d="M241.465,0.349 C224.213,30.203 185.631,50.079 136.625,50.079 L134.648,50.079 C85.642,50.079 47.06,30.202 29.808,0.349 L0.562,127.788 L134.562,127.788 L136.711,127.788 L270.711,127.788 L241.465,0.349 L241.465,0.349 Z" fill="#FFFFFF"></path>
                        <path d="M270.711,127.788 L241.465,0.349 L241.465,0.348 L212.219,127.787 L241.465,127.787 L241.465,127.788 L270.711,127.788 Z" fill="#EFFBFF"></path>
                        <path d="M135.637,50.079 L134.649,50.079 C85.643,50.079 47.061,30.202 29.809,0.349 L0.562,127.788 L134.562,127.788 L135.637,127.788 L135.637,50.079 L135.637,50.079 Z" fill="#EFFBFF"></path>
                    </g>
                    <g id="Shape">
                        <path d="M241.465,0.349 C224.213,30.203 185.631,50.079 136.625,50.079 L134.648,50.079 C85.642,50.079 47.06,30.202 29.808,0.349 L0.56,127.788 L134.562,127.788 L136.711,127.788 L270.711,127.788 L241.465,0.349 L241.465,0.349 Z" fill="#FFFFFF"></path>
                        <path d="M270.711,127.788 L241.465,0.349 L241.465,0.348 L212.219,127.787 L241.465,127.787 L241.465,127.788 L270.711,127.788 Z" fill="#EFFBFF"></path>
                        <path d="M135.637,50.079 L134.649,50.079 C85.643,50.079 47.061,30.202 29.809,0.349 L0.56,127.788 L134.562,127.788 L135.637,127.788 L135.637,50.079 L135.637,50.079 Z" fill="#FFFFFF"></path>
                    </g>
                </g>
                <rect id="Rectangle-path" fill="#C7C7C4" sketch:type="MSShapeGroup" x="0" y="475.726" width="1440.081" height="116.274"></rect>
                <path d="M992.98,546.732 C992.98,539.625 998.742,533.862 1005.85,533.862 C1012.958,533.862 1018.72,539.624 1018.72,546.732" id="Shape" fill="#A7A7A5" sketch:type="MSShapeGroup"></path>
                <path d="M1369.423,527.754 C1369.423,520.647 1375.185,514.884 1382.293,514.884 C1389.401,514.884 1395.163,520.646 1395.163,527.754" id="Shape" fill="#EBEBEA" sketch:type="MSShapeGroup"></path>
                <path d="M333.981,552.731 C333.981,545.624 339.743,539.861 346.85,539.861 C353.957,539.861 359.719,545.624 359.719,552.731" id="Shape" fill="#A7A7A5" sketch:type="MSShapeGroup"></path>
                <path d="M28.491,511.064 C28.491,503.957 34.252,498.194 41.36,498.194 C48.467,498.194 54.229,503.957 54.229,511.064" id="Shape" fill="#A7A7A5" sketch:type="MSShapeGroup"></path>
                <path d="M430.905,567.857 C430.905,560.75 436.667,554.987 443.774,554.987 C450.882,554.987 456.644,560.749 456.644,567.857" id="Shape" fill="#EBEBEA" sketch:type="MSShapeGroup"></path>
                <path d="M101.566,335.805 L0,335.805 L0,362.651 L142.063,362.651 L101.566,335.805 Z" id="Shape" fill="#FFFFFF" sketch:type="MSShapeGroup"></path>
                <path d="M650.065,422.582 L637.065,400.707 L490.444,400.877 L513.838,422.484 L650.065,422.582 Z" id="Shape" fill="#FBC851" sketch:type="MSShapeGroup"></path>
                <path d="M657.565,312.929 C657.565,327.288 669.206,338.929 683.565,338.929 C697.924,338.929 709.565,327.288 709.565,312.929 L657.565,312.929 L657.565,312.929 Z" id="Shape" fill="#28D2FF" sketch:type="MSShapeGroup"></path>
            </g>
            <g id="piano" sketch:type="MSLayerGroup" transform="translate(484.000000, 473.000000)">
                <g id="Group" sketch:type="MSShapeGroup">
                    <path d="M450.99,15.322 C450.99,6.943 444.197,0.15 435.818,0.15 L36.21,0.15 C27.831,0.15 21.039,6.942 21.039,15.322 L21.039,109.706 L450.99,109.706 L450.99,15.322 L450.99,15.322 Z" id="Shape" fill="#DFD7C1"></path>
                    <g transform="translate(236.000000, 12.000000)" id="Rectangle-path">
                        <rect fill="#FFFFFF" x="0.682" y="0.265" width="36.333" height="43.551"></rect>
                        <rect fill="#323232" x="4.265" y="3.948" width="29.167" height="2.849"></rect>
                        <rect fill="#323232" x="4.265" y="9.602" width="29.167" height="2.849"></rect>
                        <rect fill="#323232" x="4.265" y="15.256" width="29.167" height="2.849"></rect>
                        <rect fill="#323232" x="4.265" y="20.91" width="29.167" height="2.85"></rect>
                        <rect fill="#323232" x="4.265" y="26.564" width="29.167" height="2.85"></rect>
                        <rect fill="#323232" x="4.265" y="32.218" width="29.167" height="2.849"></rect>
                        <rect fill="#323232" x="4.265" y="37.873" width="29.167" height="2.849"></rect>
                    </g>
                    <g transform="translate(286.000000, 24.000000)" id="Rectangle-path">
                        <rect fill="#FFFFFF" x="0.348" y="0.161" width="36.333" height="43.551"></rect>
                        <rect fill="#323232" x="3.931" y="3.843" width="29.167" height="2.849"></rect>
                        <rect fill="#323232" x="3.931" y="9.498" width="29.167" height="2.849"></rect>
                        <rect fill="#323232" x="3.931" y="15.151" width="29.167" height="2.849"></rect>
                        <rect fill="#323232" x="3.931" y="20.805" width="29.167" height="2.85"></rect>
                        <rect fill="#323232" x="3.931" y="26.459" width="29.167" height="2.849"></rect>
                        <rect fill="#323232" x="3.931" y="32.114" width="29.167" height="2.849"></rect>
                        <rect fill="#323232" x="3.931" y="37.768" width="29.167" height="2.849"></rect>
                    </g>
                    <rect id="Rectangle-path" fill="#C1BBA9" x="21.039" y="109.706" width="429.951" height="81.739"></rect>
                    <rect id="Rectangle-path" fill="#DFD7C1" x="6.458" y="76.566" width="23.395" height="114.879"></rect>
                    <rect id="Rectangle-path" fill="#DFD7C1" x="442.177" y="76.566" width="23.394" height="114.879"></rect>
                    <path d="M471.503,59.675 C471.503,57.543 469.775,55.816 467.644,55.816 L4.386,55.816 C2.254,55.816 0.527,57.544 0.527,59.675 L0.527,84.238 C0.527,86.37 2.255,88.097 4.386,88.097 L467.251,88.097 C469.6,88.097 471.503,86.194 471.503,83.845 L471.503,59.675 L471.503,59.675 Z" id="Shape" fill="#FAEFD5"></path>
                    <rect id="Rectangle-path" opacity="0.7" fill="#0079C0" x="49.412" y="0.15" width="8.985" height="191.701"></rect>
                    <rect id="Rectangle-path" opacity="0.7" fill="#FFCF01" x="70.022" y="0.15" width="8.985" height="191.701"></rect>
                    <rect id="Rectangle-path" opacity="0.7" fill="#E42F40" x="90.632" y="0.15" width="8.985" height="191.701"></rect>
                    <rect id="Rectangle-path" opacity="0.7" fill="#129771" x="111.242" y="0.15" width="8.985" height="191.701"></rect>
                    <path d="M433.015,78.097 L37.505,78.097 L37.505,73.675 C37.505,71.543 39.233,69.816 41.364,69.816 L429.155,69.816 C431.287,69.816 433.014,71.544 433.014,73.675 L433.014,78.097 L433.015,78.097 Z" id="Shape" fill="#323232"></path>
                    <path d="M447.505,81.957 C447.505,79.826 445.777,78.098 443.646,78.098 L26.874,78.098 C24.742,78.098 23.015,79.826 23.015,81.957 L23.015,87.951 L447.505,87.951 L447.505,81.957 L447.505,81.957 Z" id="Shape" fill="#FFFFFF"></path>
                </g>
                <g id="Group" transform="translate(61.000000, 148.000000)" sketch:type="MSShapeGroup">
                    <rect id="Rectangle-path" fill="#FAEFD5" x="8.215" y="15.312" width="333.6" height="35.423"></rect>
                    <rect id="Rectangle-path" fill="#FAEFD5" x="8.215" y="23.736" width="20.67" height="73.61"></rect>
                    <rect id="Rectangle-path" fill="#FAEFD5" x="321.145" y="23.736" width="20.67" height="73.61"></rect>
                    <path d="M349.314,4.693 C349.314,2.561 347.586,0.834 345.455,0.834 L4.574,0.834 C2.442,0.834 0.715,2.562 0.715,4.693 L0.715,25.931 C0.715,28.063 2.443,29.79 4.574,29.79 L345.455,29.79 C347.587,29.79 349.314,28.062 349.314,25.931 L349.314,4.693 L349.314,4.693 Z" id="Shape" fill="#6E3F30"></path>
                </g>
            </g>
            <g id="_x31_Boat" sketch:type="MSLayerGroup" transform="translate(1014.000000, 457.000000)">
                <g id="Group" sketch:type="MSShapeGroup">
                    <path d="M179.128,90.244 L189.549,76.35 L189.549,41.771 L161.871,41.771 L116.603,86.889 L179.128,90.244 Z" id="Shape" fill="#DCE4DD"></path>
                    <path d="M332.15,86.889 L45.551,86.889 L9.171,111.506 L9.171,126.583 L368.542,126.583 L368.542,111.506 L332.15,86.889 Z" id="Shape" fill="#FFFFFF"></path>
                    <g transform="translate(46.000000, 96.000000)" id="Rectangle-path" fill="#B1DBF5">
                        <rect x="0.645" y="0.486" width="7.082" height="14.441"></rect>
                        <rect x="12.382" y="0.486" width="7.085" height="14.441"></rect>
                        <rect x="46.578" y="0.486" width="7.085" height="14.441"></rect>
                        <rect x="58.317" y="0.486" width="7.077" height="14.441"></rect>
                        <rect x="26.045" y="0.486" width="13.949" height="14.441"></rect>
                    </g>
                    <g transform="translate(263.000000, 96.000000)" id="Rectangle-path" fill="#B1DBF5">
                        <rect x="0.169" y="0.486" width="7.078" height="14.441"></rect>
                        <rect x="11.906" y="0.486" width="7.082" height="14.441"></rect>
                        <rect x="46.104" y="0.486" width="7.077" height="14.441"></rect>
                        <rect x="57.841" y="0.486" width="7.079" height="14.441"></rect>
                        <rect x="25.691" y="0.486" width="13.954" height="14.441"></rect>
                    </g>
                    <rect id="Rectangle-path" fill="#FFFFFF" x="146.424" y="72.124" width="77.67" height="18.12"></rect>
                    <rect id="Rectangle-path" fill="#DCE4DD" x="0.787" y="125.582" width="375.848" height="10.532"></rect>
                    <path d="M8.885,151.949 L352.705,151.949 C361.451,151.949 368.54,144.859 368.54,136.113 L8.884,136.113 L8.884,151.949 L8.885,151.949 Z" id="Shape" fill="#145492"></path>
                    <g transform="translate(146.000000, 96.000000)" id="Rectangle-path" fill="#B1DBF5">
                        <g>
                            <rect x="0.424" y="0.486" width="7.088" height="14.441"></rect>
                            <rect x="12.161" y="0.486" width="7.083" height="14.441"></rect>
                        </g>
                        <g transform="translate(65.000000, 0.000000)">
                            <rect x="0.344" y="0.486" width="7.085" height="14.441"></rect>
                            <rect x="12.083" y="0.486" width="7.081" height="14.441"></rect>
                        </g>
                    </g>
                    <rect id="Rectangle-path" fill="#B1DBF5" x="171.126" y="96.486" width="12.02" height="14.441"></rect>
                    <path d="M161.871,41.771 L189.549,41.771 L185.519,30.627 L165.908,30.627 L161.871,41.771 Z" id="Shape" fill="#B2B2B2"></path>
                    <path d="M157.351,30.627 L194.069,30.627 L186.532,24.241 L164.888,24.241 L157.351,30.627 Z" id="Shape" fill="#E8E9EA"></path>
                    <rect id="Rectangle-path" fill="#DBDCDD" x="173.212" y="0.229" width="4.999" height="24.012"></rect>
                    <rect id="Rectangle-path" fill="#DCE4DD" x="120.521" y="96.486" width="21.127" height="21.381"></rect>
                    <rect id="Rectangle-path" fill="#DCE4DD" x="236.002" y="96.486" width="21.13" height="21.381"></rect>
                </g>
            </g>
            <g id="_x31_Waves" sketch:type="MSLayerGroup" transform="translate(974.000000, 600.000000)">
                <g id="Group" sketch:type="MSShapeGroup">
                    <path d="M50.429,8.949 C50.429,4.097 46.495,0.164 41.644,0.164 C36.793,0.164 32.86,4.097 32.86,8.949 L50.429,8.949 L50.429,8.949 Z" id="Shape" fill="#28D2FF"></path>
                    <path d="M62.313,8.949 C62.313,5.049 59.151,1.887 55.251,1.887 C51.351,1.887 48.189,5.049 48.189,8.949 L62.313,8.949 L62.313,8.949 Z" id="Shape" fill="#3499DF"></path>
                    <path d="M77.988,8.949 C77.988,4.097 74.055,0.164 69.203,0.164 C64.351,0.164 60.418,4.097 60.418,8.949 L77.988,8.949 L77.988,8.949 Z" id="Shape" fill="#28D2FF"></path>
                    <path d="M89.874,8.949 C89.874,5.049 86.712,1.887 82.812,1.887 C78.912,1.887 75.75,5.049 75.75,8.949 L89.874,8.949 L89.874,8.949 Z" id="Shape" fill="#3499DF"></path>
                    <path d="M14.275,8.949 C14.275,5.049 11.113,1.887 7.213,1.887 C3.313,1.887 0.151,5.049 0.151,8.949 L14.275,8.949 L14.275,8.949 Z" id="Shape" fill="#28D2FF"></path>
                    <path d="M98.446,8.949 C98.446,6.309 96.305,4.168 93.664,4.168 C91.023,4.168 88.883,6.31 88.883,8.949 L98.446,8.949 L98.446,8.949 Z" id="Shape" fill="#28D2FF"></path>
                    <path d="M118.752,8.949 C118.752,6.309 116.611,4.168 113.971,4.168 C111.331,4.168 109.19,6.31 109.19,8.949 L118.752,8.949 L118.752,8.949 Z" id="Shape" fill="#28D2FF"></path>
                    <path d="M185.326,8.949 C185.326,5.661 182.661,2.995 179.373,2.995 C176.085,2.995 173.42,5.661 173.42,8.949 L185.326,8.949 L185.326,8.949 Z" id="Shape" fill="#28D2FF"></path>
                </g>
            </g>
            <g id="_x31_Clouds" sketch:type="MSLayerGroup" transform="translate(331.000000, 224.000000)">
                <g id="Group" sketch:type="MSShapeGroup">
                    <g>
                        <path d="M91.005,45.954 C91.005,36.013 82.946,27.954 73.005,27.954 L18.613,27.954 C8.672,27.954 0.613,36.013 0.613,45.954 L0.613,45.954 C0.613,55.895 8.672,63.954 18.613,63.954 L73.005,63.954 C82.946,63.954 91.005,55.895 91.005,45.954 L91.005,45.954 L91.005,45.954 Z" id="Shape" fill="#D7F4FF"></path>
                        <path d="M51.005,45.954 C51.005,36.013 42.946,27.954 33.005,27.954 L18.613,27.954 C8.672,27.954 0.613,36.013 0.613,45.954 L0.613,45.954 C0.613,55.895 8.672,63.954 18.613,63.954 L33.005,63.954 C42.946,63.954 51.005,55.895 51.005,45.954 L51.005,45.954 L51.005,45.954 Z" id="Shape" fill="#FFFFFF"></path>
                        <circle id="Oval" fill="#FFFFFF" cx="31.923" cy="16.305" r="15.764"></circle>
                    </g>
                    <g transform="translate(703.000000, 80.000000)">
                        <path d="M204.968,24.791 C204.968,38.045 194.223,48.79 180.969,48.79 L66.081,48.79 C52.827,48.79 42.082,38.046 42.082,24.791 L42.082,24.791 C42.082,11.537 52.827,0.792 66.081,0.792 L180.969,0.792 C194.224,0.792 204.968,11.537 204.968,24.791 L204.968,24.791 L204.968,24.791 Z" id="Shape" fill="#D7F4FF"></path>
                        <path d="M276.97,63.966 C276.97,72.901 269.727,80.144 260.793,80.144 L121.221,80.144 C112.286,80.144 105.043,72.901 105.043,63.966 L105.043,63.966 C105.043,55.031 112.286,47.789 121.221,47.789 L260.793,47.789 C269.728,47.789 276.97,55.031 276.97,63.966 L276.97,63.966 L276.97,63.966 Z" id="Shape" fill="#D7F4FF"></path>
                        <path d="M162.97,63.967 C162.97,72.901 155.727,80.144 146.793,80.144 L105.814,80.144 C96.879,80.144 89.636,72.901 89.636,63.966 C89.636,55.031 96.879,47.789 105.813,47.789 L146.792,47.789 C155.728,47.789 162.97,55.031 162.97,63.967 L162.97,63.967 Z" id="Shape" fill="#FFFFFF"></path>
                        <path d="M142.577,24.791 C142.577,38.045 131.832,48.79 118.578,48.79 L66.082,48.79 C52.828,48.79 42.083,38.046 42.083,24.791 L42.083,24.791 C42.083,11.537 52.828,0.792 66.082,0.792 L118.578,0.792 C131.832,0.792 142.577,11.537 142.577,24.791 L142.577,24.791 L142.577,24.791 Z" id="Shape" fill="#FFFFFF"></path>
                        <circle id="Oval" fill="#FFFFFF" cx="13.635" cy="64.645" r="13.5"></circle>
                    </g>
                </g>
            </g>
        </g>
    </g>
</svg>