<?xml version="1.0" encoding="UTF-8" standalone="no"?>
<svg width="1440px" height="752px" viewBox="0 0 1440 752" version="1.1" xmlns="http://www.w3.org/2000/svg" xmlns:xlink="http://www.w3.org/1999/xlink" xmlns:sketch="http://www.bohemiancoding.com/sketch/ns">
    <!-- Generator: Sketch 3.3.2 (12043) - http://www.bohemiancoding.com/sketch -->
    <title>canada-place</title>
    <desc>Created with Sketch.</desc>
    <defs></defs>
    <g id="Page-1" stroke="none" stroke-width="1" fill="none" fill-rule="evenodd" sketch:type="MSPage">
        <g id="canada-place" sketch:type="MSArtboardGroup">
            <g id="_x31_BG" sketch:type="MSLayerGroup" fill="#28D2FF">
                <rect id="Rectangle-path" sketch:type="MSShapeGroup" x="0" y="0" width="1440" height="664.629"></rect>
            </g>
            <g id="_x31_Cloudbehind_mountian" sketch:type="MSLayerGroup" transform="translate(1081.000000, 110.000000)">
                <path d="M282.633,17.677 C282.633,27.203 274.91,34.926 265.384,34.926 L139.39,34.926 C129.864,34.926 122.141,27.203 122.141,17.677 L122.141,17.677 C122.141,8.151 129.864,0.427 139.39,0.427 L265.384,0.427 C274.91,0.427 282.633,8.15 282.633,17.677 L282.633,17.677 L282.633,17.677 Z" id="Shape" fill="#D7F4FF" sketch:type="MSShapeGroup"></path>
                <path d="M79.619,49.848 C79.619,58.64 86.748,65.769 95.541,65.769 L179.715,65.769 C188.508,65.769 195.637,58.641 195.637,49.848 L195.637,49.848 C195.637,41.054 188.508,33.925 179.715,33.925 L95.541,33.925 C86.748,33.925 79.619,41.053 79.619,49.848 L79.619,49.848 L79.619,49.848 Z" id="Shape" fill="#D7F4FF" sketch:type="MSShapeGroup"></path>
                <path d="M127.56,49.848 C127.56,58.641 120.431,65.769 111.638,65.769 L90.056,65.769 C81.263,65.769 74.134,58.641 74.134,49.848 L74.134,49.848 C74.134,41.054 81.263,33.926 90.056,33.926 L111.638,33.926 C120.431,33.925 127.56,41.054 127.56,49.848 L127.56,49.848 L127.56,49.848 Z" id="Shape" fill="#FFFFFF" sketch:type="MSShapeGroup"></path>
                <path d="M154.927,17.677 C154.927,27.203 147.204,34.926 137.678,34.926 L137.678,34.926 C128.152,34.926 120.429,27.203 120.429,17.677 L120.429,17.677 C120.429,8.151 128.152,0.427 137.678,0.427 L137.678,0.427 C147.204,0.427 154.927,8.15 154.927,17.677 L154.927,17.677 L154.927,17.677 Z" id="Shape" fill="#FFFFFF" sketch:type="MSShapeGroup"></path>
                <path d="M32.674,50.848 C32.674,42.076 25.563,34.964 16.79,34.964 L16.79,34.964 C8.018,34.964 0.906,42.075 0.906,50.848 L0.906,50.848 C0.906,59.621 8.017,66.732 16.79,66.732 L16.79,66.732 C25.562,66.731 32.674,59.621 32.674,50.848 L32.674,50.848 L32.674,50.848 Z" id="Shape" fill="#D7F4FF" sketch:type="MSShapeGroup"></path>
            </g>
            <g id="_x31_Canada_Place" sketch:type="MSLayerGroup" transform="translate(0.000000, 160.000000)">
                <g id="Group" sketch:type="MSShapeGroup">
                    <path d="M665.873,238.957 C686.894,213.131 714.836,194.364 746.66,184.561 C834.831,157.397 953.467,65.152 1029.229,65.152 C1118.071,65.152 1132.215,0.83 1201.639,0.83 C1271.063,0.83 1324.116,138.389 1382.058,165.518 C1440,192.646 1440.081,200.928 1440.081,200.928 L1440.081,377.397 L553.2,377.397 L665.873,238.957 L665.873,238.957 Z" id="Shape" fill="#5AB55C"></path>
                    <path d="M1260.563,273.715 C1236.564,215.292 1139.069,188.145 1086.572,185.294 C1034.074,182.443 1004.076,176.146 1004.076,149.64 C1004.076,123.134 1077.572,114.649 1106.071,99.511 C1134.568,84.374 1178.061,41.159 1197.628,0.911 C1131.639,3.334 1116.33,65.152 1029.229,65.152 C953.663,65.152 835.442,156.923 747.341,184.35 C715.051,194.402 686.756,213.615 665.597,239.996 L553.2,377.396 L1253.828,377.396 C1253.828,377.396 1284.562,332.138 1260.563,273.715 L1260.563,273.715 Z" id="Shape" fill="#5A9780"></path>
                    <path d="M12.626,241.571 C122.747,158.146 245.818,12.654 323.814,12.654 C401.81,12.654 430.606,83.851 503.204,94 C570.241,103.372 576.655,184.541 684.714,196.92 C703.609,199.084 721.28,207.431 734.922,220.683 C758.32,243.412 797.842,276.498 836.322,284.29 C856.896,288.456 936.855,301.411 980.281,308.381 C998.823,311.357 1016.219,319.48 1030.353,331.845 L1030.36,331.851 C1063.726,361.044 1106.553,377.135 1150.888,377.135 L1160.829,377.135 L19.329,377.135 L12.626,241.571 L12.626,241.571 Z" id="Shape" fill="#5AB55C"></path>
                    <path d="M358.476,351.343 C345.844,322.55 284.112,318.639 283.45,258.713 C282.788,198.787 248.908,162.551 243.615,119.149 C236.115,57.652 320.111,48.922 323.814,12.654 C246.34,12.654 109.553,168.707 0,252.39 L0,377.136 L355.192,377.136 C360.755,372.79 364.491,365.053 358.476,351.343 L358.476,351.343 Z" id="Shape" fill="#5A9780"></path>
                </g>
                <rect id="Rectangle-path" fill="#3499DF" sketch:type="MSShapeGroup" x="0" y="374.547" width="1440" height="173.336"></rect>
                <rect id="Rectangle-path" fill="#392722" sketch:type="MSShapeGroup" x="0" y="409.647" width="597.833" height="32.586"></rect>
                <g id="Group" transform="translate(0.000000, 409.000000)" fill="#392722" sketch:type="MSShapeGroup">
                    <rect id="Rectangle-path" x="0" y="0.647" width="10.565" height="43.586"></rect>
                    <rect id="Rectangle-path" x="27.276" y="0.647" width="10.565" height="43.586"></rect>
                    <rect id="Rectangle-path" x="54.551" y="0.647" width="10.565" height="43.586"></rect>
                    <rect id="Rectangle-path" x="81.827" y="0.647" width="10.565" height="43.586"></rect>
                    <rect id="Rectangle-path" x="109.103" y="0.647" width="10.565" height="43.586"></rect>
                    <rect id="Rectangle-path" x="136.378" y="0.647" width="10.565" height="43.586"></rect>
                    <rect id="Rectangle-path" x="163.653" y="0.647" width="10.565" height="43.586"></rect>
                    <rect id="Rectangle-path" x="190.929" y="0.647" width="10.565" height="43.586"></rect>
                    <rect id="Rectangle-path" x="218.204" y="0.647" width="10.565" height="43.586"></rect>
                    <rect id="Rectangle-path" x="245.479" y="0.647" width="10.565" height="43.586"></rect>
                    <rect id="Rectangle-path" x="272.755" y="0.647" width="10.565" height="43.586"></rect>
                    <rect id="Rectangle-path" x="300.03" y="0.647" width="10.565" height="43.586"></rect>
                    <rect id="Rectangle-path" x="327.306" y="0.647" width="10.565" height="43.586"></rect>
                    <rect id="Rectangle-path" x="354.581" y="0.647" width="10.565" height="43.586"></rect>
                    <rect id="Rectangle-path" x="381.856" y="0.647" width="10.565" height="43.586"></rect>
                    <rect id="Rectangle-path" x="409.132" y="0.647" width="10.565" height="43.586"></rect>
                    <rect id="Rectangle-path" x="436.407" y="0.647" width="10.565" height="43.586"></rect>
                    <rect id="Rectangle-path" x="463.683" y="0.647" width="10.565" height="43.586"></rect>
                </g>
                <rect id="Rectangle-path" fill="#D7F4FF" sketch:type="MSShapeGroup" x="0" y="336.879" width="566.335" height="27.197"></rect>
                <rect id="Rectangle-path" fill="#FFFFFF" sketch:type="MSShapeGroup" x="0" y="360.434" width="597.833" height="49.213"></rect>
                <rect id="Rectangle-path" fill="#D7F4FF" sketch:type="MSShapeGroup" x="0" y="377.576" width="566.335" height="14.316"></rect>
                <g id="Group" transform="translate(34.000000, 209.000000)" sketch:type="MSShapeGroup">
                    <g transform="translate(252.000000, 0.000000)" id="Shape">
                        <path d="M0.562,127.788 L134.562,127.788 L136.711,127.788 L270.711,127.788 L241.465,0.349 C224.213,30.203 185.631,50.079 136.625,50.079 L134.648,50.079" fill="#FFFFFF"></path>
                        <path d="M270.711,127.788 L241.465,0.349 L241.465,0.348 L212.219,127.787 L241.465,127.787 L241.465,127.788 L270.711,127.788 Z" fill="#EFFBFF"></path>
                    </g>
                    <g transform="translate(189.000000, 0.000000)" id="Shape">
                        <path d="M0.562,127.788 L134.562,127.788 L136.711,127.788 L270.711,127.788 L241.465,0.349 C224.213,30.203 185.631,50.079 136.625,50.079 L134.648,50.079" fill="#FFFFFF"></path>
                        <path d="M270.711,127.788 L241.465,0.349 L241.465,0.348 L212.219,127.787 L241.465,127.787 L241.465,127.788 L270.711,127.788 Z" fill="#EFFBFF"></path>
                    </g>
                    <g transform="translate(126.000000, 0.000000)" id="Shape">
                        <path d="M241.465,0.349 C224.213,30.203 185.631,50.079 136.625,50.079 L134.648,50.079 C85.642,50.079 47.06,30.202 29.808,0.349 L0.562,127.788 L134.562,127.788 L136.711,127.788 L270.711,127.788 L241.465,0.349 L241.465,0.349 Z" fill="#FFFFFF"></path>
                        <path d="M270.711,127.788 L241.465,0.349 L241.465,0.348 L212.219,127.787 L241.465,127.787 L241.465,127.788 L270.711,127.788 Z" fill="#EFFBFF"></path>
                        <path d="M135.637,50.079 L134.649,50.079 C85.643,50.079 47.061,30.202 29.809,0.349 L0.563,127.788 L134.563,127.788 L135.638,127.788 L135.638,50.079 L135.637,50.079 Z" fill="#EFFBFF"></path>
                    </g>
                    <g transform="translate(63.000000, 0.000000)" id="Shape">
                        <path d="M241.465,0.349 C224.213,30.203 185.631,50.079 136.625,50.079 L134.648,50.079 C85.642,50.079 47.06,30.202 29.808,0.349 L0.562,127.788 L134.562,127.788 L136.711,127.788 L270.711,127.788 L241.465,0.349 L241.465,0.349 Z" fill="#FFFFFF"></path>
                        <path d="M270.711,127.788 L241.465,0.349 L241.465,0.348 L212.219,127.787 L241.465,127.787 L241.465,127.788 L270.711,127.788 Z" fill="#EFFBFF"></path>
                        <path d="M135.637,50.079 L134.649,50.079 C85.643,50.079 47.061,30.202 29.809,0.349 L0.562,127.788 L134.562,127.788 L135.637,127.788 L135.637,50.079 L135.637,50.079 Z" fill="#EFFBFF"></path>
                    </g>
                    <g id="Shape">
                        <path d="M241.465,0.349 C224.213,30.203 185.631,50.079 136.625,50.079 L134.648,50.079 C85.642,50.079 47.06,30.202 29.808,0.349 L0.56,127.788 L134.562,127.788 L136.711,127.788 L270.711,127.788 L241.465,0.349 L241.465,0.349 Z" fill="#FFFFFF"></path>
                        <path d="M270.711,127.788 L241.465,0.349 L241.465,0.348 L212.219,127.787 L241.465,127.787 L241.465,127.788 L270.711,127.788 Z" fill="#EFFBFF"></path>
                        <path d="M135.637,50.079 L134.649,50.079 C85.643,50.079 47.061,30.202 29.809,0.349 L0.56,127.788 L134.562,127.788 L135.637,127.788 L135.637,50.079 L135.637,50.079 Z" fill="#FFFFFF"></path>
                    </g>
                </g>
                <rect id="Rectangle-path" fill="#C7C7C4" sketch:type="MSShapeGroup" x="0" y="475.726" width="1440.081" height="116.274"></rect>
                <path d="M992.98,546.732 C992.98,539.625 998.742,533.862 1005.85,533.862 C1012.958,533.862 1018.72,539.624 1018.72,546.732" id="Shape" fill="#A7A7A5" sketch:type="MSShapeGroup"></path>
                <path d="M1369.423,527.754 C1369.423,520.647 1375.185,514.884 1382.293,514.884 C1389.401,514.884 1395.163,520.646 1395.163,527.754" id="Shape" fill="#EBEBEA" sketch:type="MSShapeGroup"></path>
                <path d="M333.981,552.731 C333.981,545.624 339.743,539.861 346.85,539.861 C353.957,539.861 359.719,545.624 359.719,552.731" id="Shape" fill="#A7A7A5" sketch:type="MSShapeGroup"></path>
                <path d="M28.491,511.064 C28.491,503.957 34.252,498.194 41.36,498.194 C48.467,498.194 54.229,503.957 54.229,511.064" id="Shape" fill="#A7A7A5" sketch:type="MSShapeGroup"></path>
                <path d="M430.905,567.857 C430.905,560.75 436.667,554.987 443.774,554.987 C450.882,554.987 456.644,560.749 456.644,567.857" id="Shape" fill="#EBEBEA" sketch:type="MSShapeGroup"></path>
                <path d="M101.566,335.805 L0,335.805 L0,362.651 L142.063,362.651 L101.566,335.805 Z" id="Shape" fill="#FFFFFF" sketch:type="MSShapeGroup"></path>
                <path d="M657.565,312.929 C657.565,327.288 669.206,338.929 683.565,338.929 C697.924,338.929 709.565,327.288 709.565,312.929 L657.565,312.929 L657.565,312.929 Z" id="Shape" fill="#28D2FF" sketch:type="MSShapeGroup"></path>
            </g>
            <g id="_x31_Boat" sketch:type="MSLayerGroup" transform="translate(1081.000000, 487.000000)">
                <g id="Group" sketch:type="MSShapeGroup">
                    <path d="M107.381772,54.0276579 L113.628844,45.7095395 L113.628844,25.0076382 L97.0367268,25.0076382 L69.8999416,52.0190724 L107.381772,54.0276579 Z" id="Shape" fill="#DCE4DD"></path>
                    <path d="M199.113793,52.0190724 L27.306435,52.0190724 L5.49773475,66.7568816 L5.49773475,75.7832434 L220.929687,75.7832434 L220.929687,66.7568816 L199.113793,52.0190724 Z" id="Shape" fill="#FFFFFF"></path>
                    <g transform="translate(27.575597, 57.473684)" id="Rectangle-path" fill="#B1DBF5">
                        <rect x="0.386657825" y="0.290960526" width="4.24544297" height="8.64559868"></rect>
                        <rect x="7.4226313" y="0.290960526" width="4.24724138" height="8.64559868"></rect>
                        <rect x="27.9220902" y="0.290960526" width="4.24724138" height="8.64559868"></rect>
                        <rect x="34.9592626" y="0.290960526" width="4.24244562" height="8.64559868"></rect>
                        <rect x="15.613183" y="0.290960526" width="8.362" height="8.64559868"></rect>
                    </g>
                    <g transform="translate(157.660477, 57.473684)" id="Rectangle-path" fill="#B1DBF5">
                        <rect x="0.101310345" y="0.290960526" width="4.24304509" height="8.64559868"></rect>
                        <rect x="7.13728382" y="0.290960526" width="4.24544297" height="8.64559868"></rect>
                        <rect x="27.6379416" y="0.290960526" width="4.24244562" height="8.64559868"></rect>
                        <rect x="34.6739151" y="0.290960526" width="4.24364456" height="8.64559868"></rect>
                        <rect x="15.4009708" y="0.290960526" width="8.36499735" height="8.64559868"></rect>
                    </g>
                    <rect id="Rectangle-path" fill="#FFFFFF" x="87.7767215" y="43.1795" width="46.5607958" height="10.8481579"></rect>
                    <rect id="Rectangle-path" fill="#DCE4DD" x="0.471782493" y="75.1839605" width="225.309411" height="6.30534211"></rect>
                    <path d="M5.32628647,90.9694671 L211.435889,90.9694671 C216.678849,90.9694671 220.928488,86.7247961 220.928488,81.4887039 L5.325687,81.4887039 L5.325687,90.9694671 L5.32628647,90.9694671 Z" id="Shape" fill="#145492"></path>
                    <g transform="translate(87.522546, 57.473684)" id="Rectangle-path" fill="#B1DBF5">
                        <g>
                            <rect x="0.254175066" y="0.290960526" width="4.24903979" height="8.64559868"></rect>
                            <rect x="7.29014854" y="0.290960526" width="4.24604244" height="8.64559868"></rect>
                        </g>
                        <g transform="translate(38.965517, 0.000000)">
                            <rect x="0.206217507" y="0.290960526" width="4.24724138" height="8.64559868"></rect>
                            <rect x="7.24338992" y="0.290960526" width="4.2448435" height="8.64559868"></rect>
                        </g>
                    </g>
                    <rect id="Rectangle-path" fill="#B1DBF5" x="102.584817" y="57.7646447" width="7.20562334" height="8.64559868"></rect>
                    <path d="M97.0367268,25.0076382 L113.628844,25.0076382 L111.212981,18.3359013 L99.4567851,18.3359013 L97.0367268,25.0076382 Z" id="Shape" fill="#B2B2B2"></path>
                    <path d="M94.3271247,18.3359013 L116.338446,18.3359013 L111.820244,14.5127039 L98.8453263,14.5127039 L94.3271247,18.3359013 Z" id="Shape" fill="#E8E9EA"></path>
                    <rect id="Rectangle-path" fill="#DBDCDD" x="103.83531" y="0.137098684" width="2.99674801" height="14.3756053"></rect>
                    <rect id="Rectangle-path" fill="#DCE4DD" x="72.2486631" y="57.7646447" width="12.664992" height="12.8004671"></rect>
                    <rect id="Rectangle-path" fill="#DCE4DD" x="141.476" y="57.7646447" width="12.6667905" height="12.8004671"></rect>
                </g>
            </g>
            <g id="_x31_Waves" sketch:type="MSLayerGroup" transform="translate(1057.000000, 573.000000)">
                <g id="Group" sketch:type="MSShapeGroup">
                    <path d="M30.3658495,4.97166667 C30.3658495,2.27611111 27.9969892,0.0911111111 25.075957,0.0911111111 C22.1549247,0.0911111111 19.7866667,2.27611111 19.7866667,4.97166667 L30.3658495,4.97166667 L30.3658495,4.97166667 Z" id="Shape" fill="#28D2FF"></path>
                    <path d="M37.5218065,4.97166667 C37.5218065,2.805 35.6178065,1.04833333 33.2694194,1.04833333 C30.9210323,1.04833333 29.0170323,2.805 29.0170323,4.97166667 L37.5218065,4.97166667 L37.5218065,4.97166667 Z" id="Shape" fill="#3499DF"></path>
                    <path d="M46.9605161,4.97166667 C46.9605161,2.27611111 44.5922581,0.0911111111 41.6706237,0.0911111111 C38.7489892,0.0911111111 36.3807312,2.27611111 36.3807312,4.97166667 L46.9605161,4.97166667 L46.9605161,4.97166667 Z" id="Shape" fill="#28D2FF"></path>
                    <path d="M54.1176774,4.97166667 C54.1176774,2.805 52.2136774,1.04833333 49.8652903,1.04833333 C47.5169032,1.04833333 45.6129032,2.805 45.6129032,4.97166667 L54.1176774,4.97166667 L54.1176774,4.97166667 Z" id="Shape" fill="#3499DF"></path>
                    <path d="M8.59569892,4.97166667 C8.59569892,2.805 6.69169892,1.04833333 4.34331183,1.04833333 C1.99492473,1.04833333 0.0909247312,2.805 0.0909247312,4.97166667 L8.59569892,4.97166667 L8.59569892,4.97166667 Z" id="Shape" fill="#28D2FF"></path>
                    <path d="M59.2793118,4.97166667 C59.2793118,3.505 57.9901075,2.31555556 56.399828,2.31555556 C54.8095484,2.31555556 53.5209462,3.50555556 53.5209462,4.97166667 L59.2793118,4.97166667 L59.2793118,4.97166667 Z" id="Shape" fill="#28D2FF"></path>
                    <path d="M71.5065806,4.97166667 C71.5065806,3.505 70.2173763,2.31555556 68.6276989,2.31555556 C67.0380215,2.31555556 65.7488172,3.50555556 65.7488172,4.97166667 L71.5065806,4.97166667 L71.5065806,4.97166667 Z" id="Shape" fill="#28D2FF"></path>
                    <path d="M111.594151,4.97166667 C111.594151,3.145 109.989419,1.66388889 108.009548,1.66388889 C106.029677,1.66388889 104.424946,3.145 104.424946,4.97166667 L111.594151,4.97166667 L111.594151,4.97166667 Z" id="Shape" fill="#28D2FF"></path>
                </g>
            </g>
            <g id="_x31_Clouds" sketch:type="MSLayerGroup" transform="translate(331.000000, 224.000000)">
                <g id="Group" sketch:type="MSShapeGroup">
                    <g>
                        <path d="M91.005,45.954 C91.005,36.013 82.946,27.954 73.005,27.954 L18.613,27.954 C8.672,27.954 0.613,36.013 0.613,45.954 L0.613,45.954 C0.613,55.895 8.672,63.954 18.613,63.954 L73.005,63.954 C82.946,63.954 91.005,55.895 91.005,45.954 L91.005,45.954 L91.005,45.954 Z" id="Shape" fill="#D7F4FF"></path>
                        <path d="M51.005,45.954 C51.005,36.013 42.946,27.954 33.005,27.954 L18.613,27.954 C8.672,27.954 0.613,36.013 0.613,45.954 L0.613,45.954 C0.613,55.895 8.672,63.954 18.613,63.954 L33.005,63.954 C42.946,63.954 51.005,55.895 51.005,45.954 L51.005,45.954 L51.005,45.954 Z" id="Shape" fill="#FFFFFF"></path>
                        <circle id="Oval" fill="#FFFFFF" cx="31.923" cy="16.305" r="15.764"></circle>
                    </g>
                    <g transform="translate(703.000000, 80.000000)">
                        <path d="M204.968,24.791 C204.968,38.045 194.223,48.79 180.969,48.79 L66.081,48.79 C52.827,48.79 42.082,38.046 42.082,24.791 L42.082,24.791 C42.082,11.537 52.827,0.792 66.081,0.792 L180.969,0.792 C194.224,0.792 204.968,11.537 204.968,24.791 L204.968,24.791 L204.968,24.791 Z" id="Shape" fill="#D7F4FF"></path>
                        <path d="M276.97,63.966 C276.97,72.901 269.727,80.144 260.793,80.144 L121.221,80.144 C112.286,80.144 105.043,72.901 105.043,63.966 L105.043,63.966 C105.043,55.031 112.286,47.789 121.221,47.789 L260.793,47.789 C269.728,47.789 276.97,55.031 276.97,63.966 L276.97,63.966 L276.97,63.966 Z" id="Shape" fill="#D7F4FF"></path>
                        <path d="M162.97,63.967 C162.97,72.901 155.727,80.144 146.793,80.144 L105.814,80.144 C96.879,80.144 89.636,72.901 89.636,63.966 C89.636,55.031 96.879,47.789 105.813,47.789 L146.792,47.789 C155.728,47.789 162.97,55.031 162.97,63.967 L162.97,63.967 Z" id="Shape" fill="#FFFFFF"></path>
                        <path d="M142.577,24.791 C142.577,38.045 131.832,48.79 118.578,48.79 L66.082,48.79 C52.828,48.79 42.083,38.046 42.083,24.791 L42.083,24.791 C42.083,11.537 52.828,0.792 66.082,0.792 L118.578,0.792 C131.832,0.792 142.577,11.537 142.577,24.791 L142.577,24.791 L142.577,24.791 Z" id="Shape" fill="#FFFFFF"></path>
                        <circle id="Oval" fill="#FFFFFF" cx="13.635" cy="64.645" r="13.5"></circle>
                    </g>
                </g>
            </g>
        </g>
    </g>
</svg>