<?xml version="1.0" encoding="UTF-8" standalone="no"?>
<svg width="1440px" height="752px" viewBox="0 0 1440 752" version="1.1" xmlns="http://www.w3.org/2000/svg" xmlns:xlink="http://www.w3.org/1999/xlink">
    <!-- Generator: Sketch 39.1 (31720) - http://www.bohemiancoding.com/sketch -->
    <title>cathedral-piano</title>
    <desc>Created with Sketch.</desc>
    <defs>
        <polygon id="path-1" points="0.792 73.624 389.177 73.624 389.177 0.464 0.792 0.464 0.792 73.624"></polygon>
        <polygon id="path-3" points="491.571 25.0996 491.571 0.7666 0.0003 0.7666 0.0003 25.0996 491.571 25.0996"></polygon>
        <polygon id="path-5" points="0 367 491.571 367 491.571 0.447 0 0.447"></polygon>
    </defs>
    <g id="Page-1" stroke="none" stroke-width="1" fill="none" fill-rule="evenodd">
        <g id="cathedral-piano">
            <g id="Page-1" transform="translate(474.000000, 384.000000)">
                <polygon id="Fill-1" fill="#CCCCCC" points="338.776 236.857 439.978 236.857 439.978 76.902 338.776 76.902"></polygon>
                <polygon id="Fill-2" fill="#BFBFBF" points="338.776 76.832 439.978 76.832 439.978 47.617 338.776 47.617"></polygon>
                <polygon id="Fill-3" fill="#BFBFBF" points="372.5102 76.8318 389.3772 47.6168 406.2442 76.8318"></polygon>
                <polygon id="Fill-4" fill="#BFBFBF" points="406.2442 76.8318 418.8942 47.6168 431.5452 76.8318"></polygon>
                <polygon id="Fill-5" fill="#DADAD8" points="406.2442 76.8116 417.1912 51.5296 428.1392 76.8116"></polygon>
                <polygon id="Fill-6" fill="#BFBFBF" points="347.2096 76.8318 359.8596 47.6168 372.5106 76.8318"></polygon>
                <polygon id="Fill-7" fill="#DADAD8" points="350.6154 76.8116 361.5624 51.5296 372.5104 76.8116"></polygon>
                <polygon id="Fill-8" fill="#A3A3A2" points="406.2442 76.8318 406.2442 47.6168 418.8942 47.6168"></polygon>
                <polygon id="Fill-9" fill="#A3A3A2" points="439.9783 76.8318 439.9783 47.6168 423.1113 47.6168"></polygon>
                <polygon id="Fill-10" fill="#8F8F8F" points="372.5102 76.8318 372.5102 47.6168 359.8602 47.6168"></polygon>
                <polygon id="Fill-11" fill="#8F8F8F" points="338.7761 76.8318 355.6431 47.6168 338.7761 47.6168"></polygon>
                <polygon id="Fill-12" fill="#DADAD8" points="376.5648 76.902 389.3768 53.075 402.1898 76.902"></polygon>
                <polygon id="Fill-13" fill="#BFBFBF" points="392.9625 1.0001 401.1275 47.6171 423.1115 47.6171 399.0265 1.0001"></polygon>
                <polygon id="Fill-14" fill="#BFBFBF" points="380.4156 1.0001 355.6436 47.6171 377.9236 47.6171 386.5616 1.0001"></polygon>
                <polygon id="Fill-15" fill="#999999" points="389.3772 47.6171 406.2442 76.8321 401.1272 47.6171"></polygon>
                <polygon id="Fill-16" fill="#999999" points="389.7216 1.0001 389.3766 47.6171 401.1276 47.6171 392.9626 1.0001"></polygon>
                <polygon id="Fill-17" fill="#A3A3A2" points="372.5102 76.8317 389.3772 47.6167 377.9232 47.6167"></polygon>
                <polygon id="Fill-18" fill="#A3A3A2" points="386.5617 1.0001 377.9237 47.6171 389.3767 47.6171 389.7217 1.0001"></polygon>
                <polygon id="Fill-19" fill="#CCCCCC" points="51.593 236.857 152.795 236.857 152.795 76.902 51.593 76.902"></polygon>
                <polygon id="Fill-20" fill="#BFBFBF" points="51.593 76.832 152.795 76.832 152.795 47.617 51.593 47.617"></polygon>
                <polygon id="Fill-21" fill="#BFBFBF" points="85.3271 76.8318 102.1941 47.6168 119.0611 76.8318"></polygon>
                <polygon id="Fill-22" fill="#BFBFBF" points="119.0612 76.8318 131.7112 47.6168 144.3622 76.8318"></polygon>
                <polygon id="Fill-23" fill="#DADAD8" points="119.0612 76.8116 130.0082 51.5296 140.9562 76.8116"></polygon>
                <polygon id="Fill-24" fill="#BFBFBF" points="60.0266 76.8318 72.6766 47.6168 85.3276 76.8318"></polygon>
                <polygon id="Fill-25" fill="#DADAD8" points="63.4324 76.8116 74.3794 51.5296 85.3274 76.8116"></polygon>
                <polygon id="Fill-26" fill="#A3A3A2" points="119.0612 76.8318 119.0612 47.6168 131.7112 47.6168"></polygon>
                <polygon id="Fill-27" fill="#A3A3A2" points="152.7953 76.8318 152.7953 47.6168 135.9283 47.6168"></polygon>
                <polygon id="Fill-28" fill="#8F8F8F" points="85.3271 76.8318 85.3271 47.6168 72.6771 47.6168"></polygon>
                <polygon id="Fill-29" fill="#8F8F8F" points="51.5931 76.8318 68.4601 47.6168 51.5931 47.6168"></polygon>
                <polygon id="Fill-30" fill="#DADAD8" points="89.3817 76.902 102.1937 53.075 115.0067 76.902"></polygon>
                <polygon id="Fill-31" fill="#BFBFBF" points="105.7797 1.0001 113.9447 47.6171 135.9277 47.6171 111.8437 1.0001"></polygon>
                <polygon id="Fill-32" fill="#BFBFBF" points="93.2328 1.0001 68.4598 47.6171 90.7408 47.6171 99.3788 1.0001"></polygon>
                <polygon id="Fill-33" fill="#999999" points="102.1942 47.6171 119.0612 76.8321 113.9442 47.6171"></polygon>
                <polygon id="Fill-34" fill="#999999" points="102.5379 1.0001 102.1939 47.6171 113.9449 47.6171 105.7799 1.0001"></polygon>
                <polygon id="Fill-35" fill="#A3A3A2" points="85.3271 76.8317 102.1941 47.6167 90.7401 47.6167"></polygon>
                <polygon id="Fill-36" fill="#A3A3A2" points="99.3789 1.0001 90.7409 47.6171 102.1939 47.6171 102.5379 1.0001"></polygon>
                <path d="M460.7613,123.7773 C460.7613,115.3983 453.9683,108.6053 445.5903,108.6053 C445.5903,108.6053 336.7103,90.4173 245.7853,90.4173 C154.8603,90.4173 45.9823,108.6053 45.9823,108.6053 C37.6023,108.6053 30.8103,115.3983 30.8103,123.7773 L30.8103,184.1763 L460.7613,184.1763 L460.7613,123.7773 Z" id="Fill-37" fill="#CCCCCC"></path>
                <g id="Group-52" transform="translate(51.000000, 110.553000)">
                    <mask id="mask-2" fill="white">
                        <use xlink:href="#path-1"></use>
                    </mask>
                    <g id="Clip-40"></g>
                    <polygon id="Fill-39" fill="#CCCCCC" mask="url(#mask-2)" points="0.792 102.429 389.177 102.429 389.177 0.464 0.792 0.464"></polygon>
                    <polygon id="Fill-41" fill="#5D5D5D" mask="url(#mask-2)" points="0.792 17.121 389.177 17.121 389.177 0.464 0.792 0.464"></polygon>
                    <polygon id="Fill-42" fill="#5D5D5D" mask="url(#mask-2)" points="9.081 87.148 92.757 87.148 92.757 0.464 9.081 0.464"></polygon>
                    <polygon id="Fill-43" fill="#5D5D5D" mask="url(#mask-2)" points="152.948 87.148 236.624 87.148 236.624 0.464 152.948 0.464"></polygon>
                    <polygon id="Fill-44" fill="#5D5D5D" mask="url(#mask-2)" points="296.814 87.148 380.49 87.148 380.49 0.464 296.814 0.464"></polygon>
                    <polygon id="Fill-45" fill="#999999" mask="url(#mask-2)" points="15.785 77.245 86.053 77.245 86.053 0.464 15.785 0.464"></polygon>
                    <polygon id="Fill-46" fill="#999999" mask="url(#mask-2)" points="159.652 77.245 229.92 77.245 229.92 0.464 159.652 0.464"></polygon>
                    <polygon id="Fill-47" fill="#999999" mask="url(#mask-2)" points="303.518 77.245 373.786 77.245 373.786 0.464 303.518 0.464"></polygon>
                    <polygon id="Fill-48" fill="#CCCCCC" mask="url(#mask-2)" points="0.792 8.793 389.177 8.793 389.177 0.465 0.792 0.465"></polygon>
                    <polygon id="Fill-49" fill="#CCCCCC" mask="url(#mask-2)" points="22.751 69.159 79.087 69.159 79.087 0.464 22.751 0.464"></polygon>
                    <polygon id="Fill-50" fill="#CCCCCC" mask="url(#mask-2)" points="310.484 69.159 366.82 69.159 366.82 0.464 310.484 0.464"></polygon>
                    <polygon id="Fill-51" fill="#CCCCCC" mask="url(#mask-2)" points="166.617 69.159 222.953 69.159 222.953 0.464 166.617 0.464"></polygon>
                </g>
                <g id="Group-85" transform="translate(0.000000, 0.553000)">
                    <g id="Group-55" transform="translate(0.000000, 288.000000)">
                        <mask id="mask-4" fill="white">
                            <use xlink:href="#path-3"></use>
                        </mask>
                        <g id="Clip-54"></g>
                        <path d="M491.5713,12.9336 C491.5713,6.2136 486.1233,0.7666 479.4053,0.7666 L12.1673,0.7666 C5.4473,0.7666 0.0003,6.2136 0.0003,12.9336 C0.0003,19.6526 5.4473,25.0996 12.1673,25.0996 L479.4053,25.0996 C486.1233,25.0996 491.5713,19.6526 491.5713,12.9336" id="Fill-53" fill="#95B256" mask="url(#mask-4)"></path>
                    </g>
                    <mask id="mask-6" fill="white">
                        <use xlink:href="#path-5"></use>
                    </mask>
                    <g id="Clip-57"></g>
                    <polygon id="Fill-56" fill="#FFFFFF" mask="url(#mask-6)" points="30.623 300.933 460.574 300.933 460.574 213.709 30.623 213.709"></polygon>
                    <polygon id="Fill-58" fill="#ECE3D2" mask="url(#mask-6)" points="30.623 219.193 460.574 219.193 460.574 197.586 30.623 197.586"></polygon>
                    <polygon id="Fill-59" fill="#ECE3D2" mask="url(#mask-6)" points="16.042 300.933 39.437 300.933 39.437 186.054 16.042 186.054"></polygon>
                    <polygon id="Fill-60" fill="#ECE3D2" mask="url(#mask-6)" points="451.761 300.933 475.154 300.933 475.154 186.054 451.761 186.054"></polygon>
                    <path d="M427.6143,354.834 C427.6143,348.114 422.1673,342.667 415.4483,342.667 L75.7503,342.667 C69.0303,342.667 63.5833,348.114 63.5833,354.834 C63.5833,361.553 69.0303,367 75.7503,367 L415.4483,367 C422.1673,367 427.6143,361.553 427.6143,354.834" id="Fill-61" fill="#95B256" mask="url(#mask-6)"></path>
                    <polygon id="Fill-62" fill="#9A7459" mask="url(#mask-6)" points="78.798 308.223 412.398 308.223 412.398 272.8 78.798 272.8"></polygon>
                    <polygon id="Fill-63" fill="#9A7459" mask="url(#mask-6)" points="78.799 354.834 99.469 354.834 99.469 281.225 78.799 281.225"></polygon>
                    <polygon id="Fill-64" fill="#9A7459" mask="url(#mask-6)" points="391.728 354.834 412.398 354.834 412.398 281.225 391.728 281.225"></polygon>
                    <path d="M419.8985,262.1807 C419.8985,260.0487 418.1705,258.3217 416.0395,258.3217 L75.1575,258.3217 C73.0265,258.3217 71.2985,260.0487 71.2985,262.1807 L71.2985,283.4187 C71.2985,285.5507 73.0265,287.2787 75.1575,287.2787 L416.0395,287.2787 C418.1705,287.2787 419.8985,285.5507 419.8985,283.4187 L419.8985,262.1807 Z" id="Fill-65" fill="#CC9D72" mask="url(#mask-6)"></path>
                    <polygon id="Fill-66" fill="#FFFFFF" mask="url(#mask-6)" points="302.432 165.304 338.765 165.304 338.765 121.753 302.432 121.753"></polygon>
                    <polygon id="Fill-67" fill="#323232" mask="url(#mask-6)" points="306.015 128.286 335.182 128.286 335.182 125.436 306.015 125.436"></polygon>
                    <polygon id="Fill-68" fill="#323232" mask="url(#mask-6)" points="306.015 133.939 335.182 133.939 335.182 131.09 306.015 131.09"></polygon>
                    <polygon id="Fill-69" fill="#323232" mask="url(#mask-6)" points="306.015 139.593 335.182 139.593 335.182 136.744 306.015 136.744"></polygon>
                    <polygon id="Fill-70" fill="#323232" mask="url(#mask-6)" points="306.015 145.248 335.182 145.248 335.182 142.398 306.015 142.398"></polygon>
                    <polygon id="Fill-71" fill="#323232" mask="url(#mask-6)" points="306.015 150.902 335.182 150.902 335.182 148.052 306.015 148.052"></polygon>
                    <polygon id="Fill-72" fill="#323232" mask="url(#mask-6)" points="306.015 156.555 335.182 156.555 335.182 153.706 306.015 153.706"></polygon>
                    <polygon id="Fill-73" fill="#323232" mask="url(#mask-6)" points="306.015 162.209 335.182 162.209 335.182 159.36 306.015 159.36"></polygon>
                    <polygon id="Fill-74" fill="#FFFFFF" mask="url(#mask-6)" points="157.203 173.093 193.536 173.093 193.536 129.542 157.203 129.542"></polygon>
                    <polygon id="Fill-75" fill="#323232" mask="url(#mask-6)" points="160.786 136.075 189.953 136.075 189.953 133.225 160.786 133.225"></polygon>
                    <polygon id="Fill-76" fill="#323232" mask="url(#mask-6)" points="160.786 141.728 189.953 141.728 189.953 138.879 160.786 138.879"></polygon>
                    <polygon id="Fill-77" fill="#323232" mask="url(#mask-6)" points="160.786 147.382 189.953 147.382 189.953 144.533 160.786 144.533"></polygon>
                    <polygon id="Fill-78" fill="#323232" mask="url(#mask-6)" points="160.786 153.037 189.953 153.037 189.953 150.187 160.786 150.187"></polygon>
                    <polygon id="Fill-79" fill="#323232" mask="url(#mask-6)" points="160.786 158.691 189.953 158.691 189.953 155.841 160.786 155.841"></polygon>
                    <polygon id="Fill-80" fill="#323232" mask="url(#mask-6)" points="160.786 164.344 189.953 164.344 189.953 161.495 160.786 161.495"></polygon>
                    <polygon id="Fill-81" fill="#323232" mask="url(#mask-6)" points="160.786 169.999 189.953 169.999 189.953 167.15 160.786 167.15"></polygon>
                    <path d="M481.087,169.1631 C481.087,167.0311 479.359,165.3041 477.228,165.3041 L13.97,165.3041 C11.838,165.3041 10.11,167.0311 10.11,169.1631 L10.11,193.7261 C10.11,195.8581 11.838,197.5861 13.97,197.5861 L476.836,197.5861 C479.184,197.5861 481.087,195.6831 481.087,193.3341 L481.087,169.1631 Z" id="Fill-82" fill="#ECE3D2" mask="url(#mask-6)"></path>
                    <path d="M442.5987,187.585 L47.0887,187.585 L47.0887,183.163 C47.0887,181.031 48.8167,179.304 50.9487,179.304 L438.7397,179.304 C440.8707,179.304 442.5987,181.031 442.5987,183.163 L442.5987,187.585 Z" id="Fill-83" fill="#000000" mask="url(#mask-6)"></path>
                    <path d="M457.0889,191.502 C457.0889,189.34 455.3609,187.586 453.2299,187.586 L36.4569,187.586 C34.3259,187.586 32.5989,189.34 32.5989,191.502 L32.5989,197.586 L457.0889,197.586 L457.0889,191.502 Z" id="Fill-84" fill="#FFFFFF" mask="url(#mask-6)"></path>
                </g>
            </g>
        </g>
    </g>
</svg>