<?xml version="1.0" encoding="UTF-8" standalone="no"?>
<svg width="1440px" height="752px" viewBox="0 0 1440 752" version="1.1" xmlns="http://www.w3.org/2000/svg" xmlns:xlink="http://www.w3.org/1999/xlink" xmlns:sketch="http://www.bohemiancoding.com/sketch/ns">
    <!-- Generator: Sketch 3.3.2 (12043) - http://www.bohemiancoding.com/sketch -->
    <title>chinatown</title>
    <desc>Created with Sketch.</desc>
    <defs></defs>
    <g id="Page-1" stroke="none" stroke-width="1" fill="none" fill-rule="evenodd" sketch:type="MSPage">
        <g id="chinatown" sketch:type="MSArtboardGroup">
            <rect id="Rectangle-path" fill="#C7C7C4" sketch:type="MSShapeGroup" x="0.959" y="531.741" width="957.008" height="81.675"></rect>
            <rect id="Rectangle-path" fill="#A3A4A5" sketch:type="MSShapeGroup" x="49.013" y="0" width="327.021" height="554.579"></rect>
            <rect id="Rectangle-path" fill="#D9DADC" sketch:type="MSShapeGroup" x="99.854" y="205.153" width="199.786" height="288"></rect>
            <rect id="Rectangle-path" fill="#C7C7C4" sketch:type="MSShapeGroup" x="122.853" y="402.307" width="60.311" height="63.693"></rect>
            <rect id="Rectangle-path" fill="#C7C7C4" sketch:type="MSShapeGroup" x="216.331" y="402.307" width="60.311" height="63.693"></rect>
            <rect id="Rectangle-path" fill="#6D6D6E" sketch:type="MSShapeGroup" x="0.959" y="0" width="48.054" height="554.579"></rect>
            <path d="M49.054,554.579 L1.041,510.526 L1,570.753 L49.054,554.579 Z" id="Shape" fill="#C7C7C4" sketch:type="MSShapeGroup"></path>
            <rect id="Rectangle-path" fill="#91B7C5" sketch:type="MSShapeGroup" x="1054.003" y="0" width="386.957" height="498.929"></rect>
            <path d="M1383.164,364.443 L1072.001,154.312 L1072.001,100.657 L1383.164,310.788 L1383.164,364.443 Z" id="Shape" opacity="0.7" fill="#FFFFFF" sketch:type="MSShapeGroup"></path>
            <path d="M1383.164,403.38 L1072.001,193.25 L1072.001,175.732 L1383.164,385.863 L1383.164,403.38 Z" id="Shape" opacity="0.7" fill="#FFFFFF" sketch:type="MSShapeGroup"></path>
            <path d="M1054.003,0 L1054.003,498.929 L1440.96,498.929 L1440.96,0 L1054.003,0 L1054.003,0 Z M1161.292,444.747 L1072.001,444.747 L1072.001,308.885 L1161.292,308.885 L1161.292,444.747 L1161.292,444.747 Z M1161.292,293.002 L1072.001,293.002 L1072.001,157.139 L1161.292,157.139 L1161.292,293.002 L1161.292,293.002 Z M1161.292,141.874 L1072.001,141.874 L1072.001,100.657 L1161.292,100.657 L1161.292,141.874 L1161.292,141.874 Z M1265.452,444.747 L1176.161,444.747 L1176.161,308.885 L1265.452,308.885 L1265.452,444.747 L1265.452,444.747 Z M1265.452,293.002 L1176.161,293.002 L1176.161,157.139 L1265.452,157.139 L1265.452,293.002 L1265.452,293.002 Z M1265.452,141.874 L1176.161,141.874 L1176.161,100.657 L1265.452,100.657 L1265.452,141.874 L1265.452,141.874 Z M1369.612,444.747 L1280.321,444.747 L1280.321,308.885 L1369.612,308.885 L1369.612,444.747 L1369.612,444.747 Z M1369.612,293.002 L1280.321,293.002 L1280.321,157.139 L1369.612,157.139 L1369.612,293.002 L1369.612,293.002 Z M1369.612,141.874 L1280.321,141.874 L1280.321,100.657 L1369.612,100.657 L1369.612,141.874 L1369.612,141.874 Z" id="Shape" fill="#6D6D6E" sketch:type="MSShapeGroup"></path>
            <rect id="Rectangle-path" fill="#C7C7C4" sketch:type="MSShapeGroup" x="1054.003" y="0" width="386.957" height="84"></rect>
            <rect id="Rectangle-path" fill="#F04E3B" sketch:type="MSShapeGroup" x="1387.164" y="84" width="53.795" height="375.576"></rect>
            <rect id="Rectangle-path" fill="#C7C7C4" sketch:type="MSShapeGroup" x="1054.003" y="459.576" width="386.957" height="153.841"></rect>
            <rect id="Rectangle-path" fill="#C7C7C4" sketch:type="MSShapeGroup" x="0.959" y="582.582" width="1440" height="169.418"></rect>
            <g id="Group" sketch:type="MSLayerGroup" transform="translate(0.000000, 598.000000)" fill="#A3A4A5">
                <rect id="Rectangle-path" sketch:type="MSShapeGroup" x="0.959" y="0.633" width="1438.205" height="8.151"></rect>
                <path d="M1409.485,154 L1401.333,154 L1239.329,0.633 L1247.481,0.633 L1409.485,154 Z" id="Shape" sketch:type="MSShapeGroup"></path>
                <path d="M1207.814,154 L1199.663,154 L1037.659,0.633 L1045.811,0.633 L1207.814,154 Z" id="Shape" sketch:type="MSShapeGroup"></path>
                <path d="M1006.144,154 L997.992,154 L835.988,0.633 L844.14,0.633 L1006.144,154 Z" id="Shape" sketch:type="MSShapeGroup"></path>
                <path d="M804.473,154 L796.321,154 L634.317,0.633 L642.469,0.633 L804.473,154 Z" id="Shape" sketch:type="MSShapeGroup"></path>
                <path d="M602.803,154 L594.65,154 L432.646,0.633 L440.799,0.633 L602.803,154 Z" id="Shape" sketch:type="MSShapeGroup"></path>
                <path d="M401.132,154 L392.98,154 L230.976,0.633 L239.128,0.633 L401.132,154 Z" id="Shape" sketch:type="MSShapeGroup"></path>
                <path d="M199.461,154 L191.31,154 L29.306,0.633 L37.457,0.633 L199.461,154 Z" id="Shape" sketch:type="MSShapeGroup"></path>
            </g>
            <path d="M1322.295,555.78 C1322.295,548.673 1328.057,542.91 1335.164,542.91 C1342.271,542.91 1348.033,548.673 1348.033,555.78" id="Shape" fill="#A7A7A5" sketch:type="MSShapeGroup"></path>
            <path d="M1145.772,516.912 C1145.772,509.805 1151.534,504.042 1158.641,504.042 C1165.748,504.042 1171.51,509.805 1171.51,516.912" id="Shape" fill="#A7A7A5" sketch:type="MSShapeGroup"></path>
            <path d="M79.243,707.883 C79.243,700.777 85.005,695.013 92.112,695.013 C99.219,695.013 104.981,700.776 104.981,707.883" id="Shape" fill="#A7A7A5" sketch:type="MSShapeGroup"></path>
            <path d="M278.192,585.94 C278.192,578.834 283.954,573.07 291.061,573.07 C298.168,573.07 303.93,578.833 303.93,585.94" id="Shape" fill="#A7A7A5" sketch:type="MSShapeGroup"></path>
            <path d="M1158.642,648.595 C1158.642,641.488 1164.404,635.725 1171.511,635.725 C1178.618,635.725 1184.38,641.488 1184.38,648.595" id="Shape" fill="#A7A7A5" sketch:type="MSShapeGroup"></path>
            <rect id="Rectangle-path" fill="#D9DADC" sketch:type="MSShapeGroup" x="398.536" y="0" width="655.467" height="598.633"></rect>
            <rect id="Rectangle-path" fill="#C7C7C4" sketch:type="MSShapeGroup" x="122.853" y="234.307" width="153.789" height="137.693"></rect>
            <rect id="Rectangle-path" fill="#BEBEBA" sketch:type="MSShapeGroup" x="268.042" y="234.307" width="8.6" height="137.693"></rect>
            <rect id="Rectangle-path" fill="#BEBEBA" sketch:type="MSShapeGroup" x="268.042" y="402.307" width="8.6" height="63.693"></rect>
            <rect id="Rectangle-path" fill="#BEBEBA" sketch:type="MSShapeGroup" x="174.564" y="402.307" width="8.6" height="63.693"></rect>
            <path d="M398.534,554.579 L398.535,554.579 L398.535,0 L350.522,0 L350.522,540.651 L350.482,540.639 L350.522,554.579 L398.536,598.633 L398.536,554.579 L398.534,554.579 Z" id="Shape" fill="#6D6D6E" sketch:type="MSShapeGroup"></path>
            <rect id="Rectangle-path" fill="#6D6D6E" sketch:type="MSShapeGroup" x="469.164" y="84" width="514" height="453.576"></rect>
            <rect id="Rectangle-path" fill="#91B7C5" sketch:type="MSShapeGroup" x="491.829" y="104" width="468.671" height="413.576"></rect>
            <rect id="Rectangle-path" fill="#585859" sketch:type="MSShapeGroup" x="946.305" y="104" width="14.194" height="413.576"></rect>
            <rect id="Rectangle-path" fill="#F04E3B" sketch:type="MSShapeGroup" x="582.802" y="171.154" width="286.725" height="194.99"></rect>
            <path d="M960.5,478.639 L491.829,157.655 L491.829,104 L960.5,424.984 L960.5,478.639 Z" id="Shape" opacity="0.7" fill="#FFFFFF" sketch:type="MSShapeGroup"></path>
            <path d="M960.5,517.576 L491.829,196.593 L491.829,179.075 L960.5,500.059 L960.5,517.576 Z" id="Shape" opacity="0.7" fill="#FFFFFF" sketch:type="MSShapeGroup"></path>
            <path d="M1360.7665,379.3554 C1359.79316,379.112065 1358.58867,378.941734 1357.153,378.8444 C1355.71733,378.747066 1354.14784,378.6984 1352.4445,378.6984 C1350.69249,378.6984 1349.11084,378.747066 1347.6995,378.8444 C1346.28816,378.941734 1345.09584,379.112065 1344.1225,379.3554 L1344.1225,374.7564 C1345.09584,374.999735 1346.28816,375.1579 1347.6995,375.2309 C1349.11084,375.3039 1350.69249,375.3404 1352.4445,375.3404 C1354.14784,375.3404 1355.71733,375.3039 1357.153,375.2309 C1358.58867,375.1579 1359.79316,374.999735 1360.7665,374.7564 L1360.7665,379.3554 Z M1355.4375,429.2874 C1355.4375,430.455406 1355.27933,431.453063 1354.963,432.2804 C1354.64667,433.107737 1354.014,433.776897 1353.065,434.2879 C1352.116,434.798903 1350.80201,435.176065 1349.123,435.4194 C1347.44399,435.662735 1345.24185,435.7844 1342.5165,435.7844 C1342.85717,433.302388 1342.22451,431.258408 1340.6185,429.6524 C1342.75984,430.090402 1344.51183,430.358066 1345.8745,430.4554 C1347.23717,430.552734 1348.29566,430.491901 1349.05,430.2729 C1349.80434,430.053899 1350.3275,429.676736 1350.6195,429.1414 C1350.9115,428.606064 1351.0575,427.900404 1351.0575,427.0244 L1351.0575,397.4594 C1349.15949,397.508067 1347.52917,397.581066 1346.1665,397.6784 C1344.80383,397.775734 1343.56284,397.921732 1342.4435,398.1164 L1342.4435,393.5174 C1343.75751,393.760735 1345.22966,393.9189 1346.86,393.9919 C1348.49034,394.0649 1350.49782,394.1014 1352.8825,394.1014 C1355.26718,394.1014 1357.20166,394.0649 1358.686,393.9919 C1360.17034,393.9189 1361.54516,393.760735 1362.8105,393.5174 L1362.8105,398.1164 C1361.73983,397.921732 1360.64484,397.775734 1359.5255,397.6784 C1358.40616,397.581066 1357.04351,397.508067 1355.4375,397.4594 L1355.4375,429.2874 Z M1313.3895,372.3474 C1314.07084,372.688068 1314.39933,373.065231 1314.375,373.4789 C1314.35067,373.892569 1313.99784,374.172399 1313.3165,374.3184 C1312.82983,374.415734 1312.23367,374.914562 1311.528,375.8149 C1310.82233,376.715238 1310.1045,377.773727 1309.3745,378.9904 C1308.40116,380.645075 1307.28184,382.336225 1306.0165,384.0639 C1304.75116,385.791575 1303.24251,387.726056 1301.4905,389.8674 C1300.80916,389.23473 1300.067,388.711569 1299.264,388.2979 C1298.461,387.884231 1297.57284,387.628734 1296.5995,387.5314 C1297.23217,387.142065 1297.82833,386.740569 1298.388,386.3269 C1298.94767,385.913231 1299.54383,385.39007 1300.1765,384.7574 C1300.80917,384.12473 1301.50266,383.346071 1302.257,382.4214 C1303.01134,381.496729 1303.92383,380.32874 1304.9945,378.9174 C1305.67584,378.041396 1306.39366,376.812575 1307.148,375.2309 C1307.90234,373.649225 1308.59583,371.958076 1309.2285,370.1574 C1309.8125,370.498068 1310.45733,370.850898 1311.163,371.2159 C1311.86867,371.580902 1312.61083,371.958065 1313.3895,372.3474 L1313.3895,372.3474 Z M1309.8855,435.4194 L1305.3595,435.4194 C1305.60283,433.424057 1305.761,431.550409 1305.834,429.7984 C1305.907,428.046391 1305.9435,426.124077 1305.9435,424.0314 L1305.9435,403.6644 C1305.0675,404.881073 1304.16717,406.049061 1303.2425,407.1684 C1302.31783,408.287739 1301.29584,409.48006 1300.1765,410.7454 C1299.34916,410.210064 1298.59484,409.772068 1297.9135,409.4314 C1297.23216,409.090732 1296.47784,408.725735 1295.6505,408.3364 C1297.49984,406.92506 1299.23966,405.343409 1300.87,403.5914 C1302.50034,401.839391 1304.24016,399.600747 1306.0895,396.8754 C1306.77084,395.902062 1307.3305,395.06257 1307.7685,394.3569 C1308.2065,393.65123 1308.5715,392.98207 1308.8635,392.3494 C1309.1555,391.71673 1309.411,391.096236 1309.63,390.4879 C1309.849,389.879564 1310.05583,389.186071 1310.2505,388.4074 C1310.78584,388.796735 1311.35766,389.125232 1311.966,389.3929 C1312.57434,389.660568 1313.12183,389.891732 1313.6085,390.0864 C1314.4845,390.378401 1314.91033,390.755564 1314.886,391.2179 C1314.86167,391.680236 1314.5575,392.033065 1313.9735,392.2764 C1313.8275,392.325067 1313.6815,392.422399 1313.5355,392.5684 C1313.3895,392.714401 1313.1705,392.994231 1312.8785,393.4079 C1312.5865,393.821569 1312.19717,394.38123 1311.7105,395.0869 C1311.22383,395.79257 1310.6155,396.729394 1309.8855,397.8974 L1309.8855,435.4194 Z M1330.3255,394.1744 C1332.36951,394.125733 1334.24316,394.052734 1335.9465,393.9554 C1337.64984,393.858066 1339.20716,393.687735 1340.6185,393.4444 L1340.6185,397.9704 C1339.79116,397.824399 1338.96384,397.7149 1338.1365,397.6419 C1337.30916,397.5689 1336.421,397.4959 1335.472,397.4229 C1334.523,397.3499 1333.46451,397.301233 1332.2965,397.2769 C1331.12849,397.252567 1329.74151,397.2404 1328.1355,397.2404 C1324.92348,397.2404 1322.30768,397.301233 1320.288,397.4229 C1318.26832,397.544567 1316.40684,397.727065 1314.7035,397.9704 L1314.7035,393.4444 C1316.26084,393.687735 1317.93982,393.858066 1319.7405,393.9554 C1321.54118,394.052734 1323.77982,394.125733 1326.4565,394.1744 L1326.4565,384.6844 C1325.23983,384.6844 1324.18134,384.708733 1323.281,384.7574 C1322.38066,384.806067 1321.5655,384.854733 1320.8355,384.9034 C1320.1055,384.952067 1319.412,385.0129 1318.755,385.0859 C1318.098,385.1589 1317.4045,385.268399 1316.6745,385.4144 L1316.6745,380.7424 C1317.4045,380.888401 1318.098,380.9979 1318.755,381.0709 C1319.412,381.1439 1320.1055,381.204733 1320.8355,381.2534 C1321.5655,381.302067 1322.38066,381.350733 1323.281,381.3994 C1324.18134,381.448067 1325.23983,381.4724 1326.4565,381.4724 C1326.4565,376.362374 1326.28617,372.955742 1325.9455,371.2524 C1327.01617,371.447068 1327.9165,371.568733 1328.6465,371.6174 C1329.3765,371.666067 1330.15516,371.6904 1330.9825,371.6904 C1331.61517,371.6904 1331.95583,371.885065 1332.0045,372.2744 C1332.05317,372.663735 1331.80984,373.053065 1331.2745,373.4424 C1330.9825,373.685735 1330.75133,374.038564 1330.581,374.5009 C1330.41067,374.963236 1330.3255,375.462064 1330.3255,375.9974 L1330.3255,381.4724 C1331.54217,381.4724 1332.60066,381.448067 1333.501,381.3994 C1334.40134,381.350733 1335.2165,381.302067 1335.9465,381.2534 C1336.6765,381.204733 1337.38216,381.1439 1338.0635,381.0709 C1338.74484,380.9979 1339.4505,380.888401 1340.1805,380.7424 L1340.1805,385.4144 C1339.4505,385.268399 1338.74484,385.1589 1338.0635,385.0859 C1337.38216,385.0129 1336.6765,384.952067 1335.9465,384.9034 C1335.2165,384.854733 1334.40134,384.806067 1333.501,384.7574 C1332.60066,384.708733 1331.54217,384.6844 1330.3255,384.6844 L1330.3255,394.1744 Z M1326.0915,411.9864 C1323.51215,412.035067 1321.40734,412.108066 1319.777,412.2054 C1318.14666,412.302734 1316.57717,412.473065 1315.0685,412.7164 L1315.0685,408.1904 C1316.57717,408.433735 1318.14666,408.604066 1319.777,408.7014 C1321.40734,408.798734 1323.51215,408.871733 1326.0915,408.9204 C1326.04283,406.925057 1325.96983,405.063575 1325.8725,403.3359 C1325.77517,401.608225 1325.6535,400.282071 1325.5075,399.3574 C1326.52951,399.600735 1327.442,399.7589 1328.245,399.8319 C1329.048,399.9049 1329.93616,399.9414 1330.9095,399.9414 C1331.59084,399.9414 1331.95583,400.075232 1332.0045,400.3429 C1332.05317,400.610568 1331.7855,400.914732 1331.2015,401.2554 C1330.56883,401.596068 1330.2525,402.180063 1330.2525,403.0074 L1330.2525,408.9204 C1332.73451,408.871733 1334.79066,408.798734 1336.421,408.7014 C1338.05134,408.604066 1339.59649,408.433735 1341.0565,408.1904 L1341.0565,412.7164 C1339.59649,412.473065 1338.05134,412.302734 1336.421,412.2054 C1334.79066,412.108066 1332.73451,412.035067 1330.2525,411.9864 L1330.2525,422.6444 C1332.29651,422.352399 1334.34049,422.023902 1336.3845,421.6589 C1338.42851,421.293898 1340.49682,420.868069 1342.5895,420.3814 C1342.2975,421.062737 1342.115,421.731897 1342.042,422.3889 C1341.969,423.045903 1341.95683,423.715063 1342.0055,424.3964 C1338.20948,424.931736 1334.87585,425.430564 1332.0045,425.8929 C1329.13315,426.355236 1326.60251,426.768898 1324.4125,427.1339 C1322.22249,427.498902 1320.31234,427.827399 1318.682,428.1194 C1317.05166,428.411401 1315.62817,428.679065 1314.4115,428.9224 C1314.2655,427.219058 1313.7545,425.564408 1312.8785,423.9584 C1315.16584,423.909733 1317.39232,423.824567 1319.558,423.7029 C1321.72368,423.581233 1323.90149,423.398735 1326.0915,423.1554 L1326.0915,411.9864 Z" id="街" fill="#6D8994" sketch:type="MSShapeGroup"></path>
            <path d="M1221.5955,398.7004 C1220.8655,401.620415 1219.69751,404.649884 1218.0915,407.7889 C1216.48549,410.927916 1214.42935,414.066884 1211.923,417.2059 C1209.41665,420.344916 1206.47235,423.423052 1203.09,426.4404 C1199.70765,429.457748 1195.85085,432.30472 1191.5195,434.9814 C1191.13016,433.959395 1190.63134,433.144236 1190.023,432.5359 C1189.41466,431.927564 1188.57517,431.355736 1187.5045,430.8204 C1191.73852,428.825057 1195.65615,426.45258 1199.2575,423.7029 C1202.85885,420.95322 1205.99782,417.88725 1208.6745,414.5049 C1211.35118,411.12255 1213.51683,407.46042 1215.1715,403.5184 C1216.82617,399.57638 1217.84816,395.366756 1218.2375,390.8894 C1218.43217,388.650722 1218.59033,386.740575 1218.712,385.1589 C1218.83367,383.577225 1218.90667,382.105073 1218.931,380.7424 C1218.95533,379.379727 1218.90667,377.968407 1218.785,376.5084 C1218.66333,375.048393 1218.48083,373.29641 1218.2375,371.2524 C1220.33018,371.739069 1222.37416,371.933734 1224.3695,371.8364 C1224.9535,371.8364 1225.29417,372.031065 1225.3915,372.4204 C1225.48883,372.809735 1225.29417,373.174732 1224.8075,373.5154 C1224.5155,373.758735 1224.32083,374.160231 1224.2235,374.7199 C1224.12617,375.279569 1224.05317,376.046062 1224.0045,377.0194 C1223.95583,377.749404 1223.895,378.661895 1223.822,379.7569 C1223.749,380.851905 1223.65167,382.019894 1223.53,383.2609 C1223.40833,384.501906 1223.28667,385.803727 1223.165,387.1664 C1223.04333,388.529073 1222.9095,389.867393 1222.7635,391.1814 C1223.59084,393.809413 1224.63716,396.42522 1225.9025,399.0289 C1227.16784,401.63258 1228.56699,404.126721 1230.1,406.5114 C1231.63301,408.896079 1233.27549,411.171223 1235.0275,413.3369 C1236.77951,415.502577 1238.55582,417.461391 1240.3565,419.2134 C1242.01117,420.819408 1243.47116,422.182061 1244.7365,423.3014 C1246.00184,424.420739 1247.18199,425.381896 1248.277,426.1849 C1249.37201,426.987904 1250.44266,427.681397 1251.489,428.2654 C1252.53534,428.849403 1253.66683,429.384731 1254.8835,429.8714 C1253.18016,430.844738 1251.72017,432.377723 1250.5035,434.4704 C1249.23816,433.594396 1248.03367,432.706238 1246.89,431.8059 C1245.74633,430.905562 1244.60267,429.944405 1243.459,428.9224 C1242.31533,427.900395 1241.15951,426.793239 1239.9915,425.6009 C1238.82349,424.408561 1237.58251,423.082407 1236.2685,421.6224 C1232.81315,417.826381 1229.88101,414.018252 1227.472,410.1979 C1225.06299,406.377548 1223.10417,402.545086 1221.5955,398.7004 L1221.5955,398.7004 Z" id="人" fill="#6D8994" sketch:type="MSShapeGroup"></path>
            <path d="M1123.5815,403.3724 L1137.1595,403.3724 L1137.1595,398.5544 L1123.5815,398.5544 L1123.5815,403.3724 Z M1123.5815,395.1964 L1137.1595,395.1964 L1137.1595,390.7434 L1123.5815,390.7434 L1123.5815,395.1964 Z M1137.8895,416.0014 L1105.6235,416.0014 L1105.6235,426.0754 L1137.8895,426.0754 L1137.8895,416.0014 Z M1096.0605,381.9104 C1096.15783,386.874425 1096.18217,391.339547 1096.1335,395.3059 C1096.08483,399.272253 1095.951,402.861384 1095.732,406.0734 C1095.513,409.285416 1095.221,412.181054 1094.856,414.7604 C1094.491,417.339746 1094.02867,419.736556 1093.469,421.9509 C1092.90933,424.165244 1092.2645,426.270057 1091.5345,428.2654 C1090.8045,430.260743 1090.0015,432.28039 1089.1255,434.3244 C1088.3955,433.740397 1087.629,433.302401 1086.826,433.0104 C1086.023,432.718399 1085.01317,432.450735 1083.7965,432.2074 C1084.91584,430.601392 1085.9135,428.946742 1086.7895,427.2434 C1087.6655,425.540058 1088.41983,423.642077 1089.0525,421.5494 C1089.68517,419.456723 1090.2205,417.096413 1090.6585,414.4684 C1091.0965,411.840387 1091.41283,408.774418 1091.6075,405.2704 C1091.80217,401.766382 1091.88733,397.775756 1091.863,393.2984 C1091.83867,388.821044 1091.70483,383.662429 1091.4615,377.8224 C1092.09417,377.919734 1092.97016,378.0049 1094.0895,378.0779 C1095.20884,378.1509 1096.79049,378.199567 1098.8345,378.2239 C1100.87851,378.248233 1103.49432,378.272567 1106.682,378.2969 C1109.86968,378.321233 1113.84814,378.3334 1118.6175,378.3334 C1118.08216,377.019393 1117.43734,375.827072 1116.683,374.7564 C1115.92866,373.685728 1114.91884,372.566406 1113.6535,371.3984 L1117.7415,369.0624 C1118.71484,370.47374 1119.603,371.88506 1120.406,373.2964 C1121.209,374.70774 1122.09716,376.386724 1123.0705,378.3334 C1127.40185,378.3334 1131.02749,378.321233 1133.9475,378.2969 C1136.86751,378.272567 1139.26432,378.248233 1141.138,378.2239 C1143.01168,378.199567 1144.47166,378.1509 1145.518,378.0779 C1146.56434,378.0049 1147.3795,377.919734 1147.9635,377.8224 L1147.9635,382.3484 C1147.33083,382.299733 1146.51567,382.2389 1145.518,382.1659 C1144.52033,382.0929 1143.27934,382.044233 1141.795,382.0199 C1140.31066,381.995567 1138.51001,381.971233 1136.393,381.9469 C1134.27599,381.922567 1131.78185,381.9104 1128.9105,381.9104 L1123.5815,381.9104 L1123.5815,387.5314 C1126.06351,387.5314 1128.24132,387.519233 1130.115,387.4949 C1131.98868,387.470567 1133.65549,387.4219 1135.1155,387.3489 C1136.57551,387.2759 1137.85299,387.190734 1138.948,387.0934 C1140.04301,386.996066 1141.05283,386.874401 1141.9775,386.7284 C1141.88017,387.312403 1141.795,387.847731 1141.722,388.3344 C1141.649,388.821069 1141.58817,389.368564 1141.5395,389.9769 C1141.49083,390.585236 1141.45433,391.290896 1141.43,392.0939 C1141.40567,392.896904 1141.3935,393.906727 1141.3935,395.1234 C1142.99951,395.026066 1144.56899,394.928734 1146.102,394.8314 C1147.63501,394.734066 1149.13149,394.636734 1150.5915,394.5394 L1150.5915,399.2114 C1149.13149,399.065399 1147.63501,398.9559 1146.102,398.8829 C1144.56899,398.8099 1142.99951,398.724734 1141.3935,398.6274 C1141.3935,400.67141 1141.43,402.36256 1141.503,403.7009 C1141.576,405.03924 1141.6855,406.122063 1141.8315,406.9494 C1140.71216,406.852066 1139.59284,406.7669 1138.4735,406.6939 C1137.35416,406.6209 1136.10101,406.572233 1134.714,406.5479 C1133.32699,406.523567 1131.73318,406.487067 1129.9325,406.4384 C1128.13182,406.389733 1126.01485,406.3654 1123.5815,406.3654 L1123.5815,412.3514 L1129.8595,412.3514 C1131.70884,412.3514 1133.39999,412.339233 1134.933,412.3149 C1136.46601,412.290567 1137.86516,412.266233 1139.1305,412.2419 C1140.39584,412.217567 1141.58816,412.2054 1142.7075,412.2054 C1142.5615,412.740736 1142.4885,413.263897 1142.4885,413.7749 L1142.4885,416.1474 L1142.4885,427.5354 C1142.4885,428.80074 1142.51283,429.920062 1142.5615,430.8934 C1142.61017,431.866738 1142.73183,432.961727 1142.9265,434.1784 L1137.8895,434.1784 L1137.8895,429.6524 L1105.6235,429.6524 L1105.6235,435.1274 L1100.6595,435.1274 C1100.8055,433.910727 1100.915,432.815738 1100.988,431.8424 C1101.061,430.869062 1101.0975,429.774073 1101.0975,428.5574 L1101.0975,416.1474 C1101.0975,415.222729 1101.07317,414.468403 1101.0245,413.8844 C1100.97583,413.300397 1100.8785,412.740736 1100.7325,412.2054 C1101.85184,412.2054 1102.99549,412.217567 1104.1635,412.2419 C1105.33151,412.266233 1106.63333,412.290567 1108.069,412.3149 C1109.50467,412.339233 1111.13499,412.3514 1112.96,412.3514 L1119.3475,412.3514 L1119.3475,406.3654 L1113.909,406.3654 C1112.32733,406.3654 1110.89167,406.389733 1109.602,406.4384 C1108.31233,406.487067 1107.09567,406.5479 1105.952,406.6209 C1104.80833,406.6939 1103.65251,406.803399 1102.4845,406.9494 L1102.4845,402.8614 C1103.65251,402.958734 1104.80833,403.0439 1105.952,403.1169 C1107.09567,403.1899 1108.32449,403.238567 1109.6385,403.2629 C1110.95251,403.287233 1112.40033,403.311567 1113.982,403.3359 C1115.56367,403.360233 1117.35216,403.3724 1119.3475,403.3724 L1119.3475,398.5544 L1112.5585,398.5544 C1107.20514,398.5544 1102.19252,398.773398 1097.5205,399.2114 L1097.5205,394.5394 C1102.19252,394.977402 1107.20514,395.1964 1112.5585,395.1964 L1119.3475,395.1964 L1119.3475,390.7434 C1116.96282,390.7434 1114.93101,390.755567 1113.252,390.7799 C1111.57299,390.804233 1110.10084,390.8529 1108.8355,390.9259 C1107.57016,390.9989 1106.463,391.0719 1105.514,391.1449 C1104.565,391.2179 1103.62817,391.327399 1102.7035,391.4734 L1102.7035,386.7284 C1103.62817,386.874401 1104.565,386.996066 1105.514,387.0934 C1106.463,387.190734 1107.57016,387.2759 1108.8355,387.3489 C1110.10084,387.4219 1111.57299,387.470567 1113.252,387.4949 C1114.93101,387.519233 1116.96282,387.5314 1119.3475,387.5314 L1119.3475,381.9104 L1096.0605,381.9104 Z" id="唐" fill="#6D8994" sketch:type="MSShapeGroup"></path>
            <g id="Imported-Layers" sketch:type="MSLayerGroup" transform="translate(45.000000, 0.000000)">
                <path d="M91.082,92.579 C86.971,92.579 83.441,90.974 81.097,87.953 C77.86,83.784 77.398,77.485 79.947,72.279 C82.572,66.919 87.666,63.845 93.924,63.845 C107.208,63.845 112.321,69.531 117.266,75.03 C118.958,76.91 120.706,78.854 122.844,80.648 C125.967,83.269 130.585,83.903 134.609,82.267 C138.695,80.604 141.304,77 141.766,72.382 C141.961,70.42 143.712,68.992 145.672,69.185 C147.632,69.382 149.063,71.13 148.868,73.091 C148.145,80.322 143.82,86.224 137.299,88.877 C130.756,91.541 123.46,90.481 118.257,86.116 C115.735,83.999 113.729,81.77 111.96,79.803 C107.355,74.682 104.027,70.982 93.924,70.982 C89.229,70.982 87.168,73.761 86.357,75.417 C85.022,78.143 85.18,81.575 86.735,83.577 C88.054,85.278 90.23,85.828 93.198,85.211 C95.13,84.811 97.017,86.05 97.418,87.979 C97.819,89.909 96.58,91.798 94.65,92.199 C93.424,92.453 92.23,92.579 91.082,92.579" id="Fill-1" fill="#FBC851" sketch:type="MSShapeGroup"></path>
                <path d="M151.893,90.295 L129.52,90.295 C127.55,90.295 125.952,88.697 125.952,86.726 C125.952,84.755 127.55,83.157 129.52,83.157 L151.893,83.157 C153.864,83.157 155.462,84.755 155.462,86.726 C155.462,88.697 153.864,90.295 151.893,90.295" id="Fill-2" fill="#FBC851" sketch:type="MSShapeGroup"></path>
                <path d="M142.156,81.299 C142.156,86.677 146.516,91.036 151.893,91.036 C157.271,91.036 161.631,86.677 161.631,81.299 L161.631,67.128 C161.631,61.75 157.271,57.39 151.893,57.39 C146.516,57.39 142.156,61.75 142.156,67.128 L142.156,81.299" id="Fill-3" fill="#FBC851" sketch:type="MSShapeGroup"></path>
                <path d="M153.258,82.937 C153.084,82.937 152.907,82.929 152.729,82.911 C149.835,82.621 147.724,80.041 148.014,77.147 C149.019,67.099 152.968,58.958 159.133,54.226 C163.92,50.553 169.913,49.079 176.004,50.074 C179.607,50.663 182.377,53.611 182.741,57.244 C183.107,60.877 180.977,64.319 177.561,65.611 L168.852,68.904 C166.27,69.88 163.402,68.694 162.238,66.247 C160.268,69.301 158.972,73.388 158.49,78.196 C158.22,80.911 155.93,82.937 153.258,82.937" id="Fill-4" fill="#FBC851" sketch:type="MSShapeGroup"></path>
                <path d="M154.957,69.245 C154.957,74.645 159.334,79.022 164.734,79.022 C170.134,79.022 174.511,74.645 174.511,69.245 L174.511,63.227 C174.511,57.828 170.134,53.45 164.734,53.45 C159.334,53.45 154.957,57.828 154.957,63.227 L154.957,69.245" id="Fill-5" fill="#FBC851" sketch:type="MSShapeGroup"></path>
                <path d="M81.879,82.887 C81.788,82.887 81.697,82.883 81.605,82.876 C79.639,82.726 78.168,81.012 78.318,79.047 C78.741,73.487 82.455,69.165 88.506,67.19 C97.121,64.378 110.381,66.845 119.056,77 C120.337,78.498 120.16,80.751 118.662,82.031 C117.164,83.31 114.911,83.134 113.631,81.636 C107.061,73.947 96.923,71.949 90.72,73.974 C88.447,74.717 85.685,76.293 85.434,79.589 C85.291,81.462 83.727,82.887 81.879,82.887" id="Fill-6" fill="#FBC851" sketch:type="MSShapeGroup"></path>
                <path d="M0,0 L61.686,0 L61.686,752 L0,752 L0,0 Z" id="Fill-7" fill="#F04E3B" sketch:type="MSShapeGroup"></path>
                <path d="M0,0 L21.179,0 L21.179,752 L0,752 L0,0 Z" id="Fill-8" fill="#CB3822" sketch:type="MSShapeGroup"></path>
                <path d="M84.885,102.644 L168.881,102.644 L168.881,206.139 L84.885,206.139 L84.885,102.644 Z" id="Fill-9" fill="#E0C38F" sketch:type="MSShapeGroup"></path>
                <path d="M84.885,102.644 L126.882,102.644 L126.882,206.139 L84.885,206.139 L84.885,102.644 Z" id="Fill-10" fill="#C2B779" sketch:type="MSShapeGroup"></path>
                <path d="M190.149,105.157 C190.149,113.441 183.434,120.157 175.149,120.157 L63.645,120.157 C55.361,120.157 48.645,113.441 48.645,105.157 C48.645,96.873 55.361,90.157 63.645,90.157 L175.149,90.157 C183.434,90.157 190.149,96.873 190.149,105.157" id="Fill-11" fill="#F04E3B" sketch:type="MSShapeGroup"></path>
                <path d="M24.888,98.407 C24.888,102.964 28.581,106.658 33.138,106.658 L123.132,106.658 C127.689,106.658 131.382,102.964 131.382,98.407 C131.382,93.852 127.689,90.157 123.132,90.157 L33.138,90.157 C28.581,90.157 24.888,93.852 24.888,98.407" id="Fill-12" fill="#F04E3B" sketch:type="MSShapeGroup"></path>
                <path d="M75.829,206.139 C75.829,209.867 78.851,212.888 82.578,212.888 L171.187,212.888 C174.914,212.888 177.936,209.867 177.936,206.139 C177.936,202.411 174.914,199.39 171.187,199.39 L82.578,199.39 C78.851,199.39 75.829,202.411 75.829,206.139" id="Fill-13" fill="#F04E3B" sketch:type="MSShapeGroup"></path>
            </g>
        </g>
    </g>
</svg>