<?xml version="1.0" encoding="UTF-8" standalone="no"?>
<svg width="1440px" height="752px" viewBox="0 0 1440 752" version="1.1" xmlns="http://www.w3.org/2000/svg" xmlns:xlink="http://www.w3.org/1999/xlink" xmlns:sketch="http://www.bohemiancoding.com/sketch/ns">
    <!-- Generator: Sketch 3.3.2 (12043) - http://www.bohemiancoding.com/sketch -->
    <title>chinatown-piano</title>
    <desc>Created with Sketch.</desc>
    <defs></defs>
    <g id="Page-1" stroke="none" stroke-width="1" fill="none" fill-rule="evenodd" sketch:type="MSPage">
        <g id="chinatown-piano" sketch:type="MSArtboardGroup">
            <g id="Imported-Layers" sketch:type="MSLayerGroup" transform="translate(474.000000, 472.000000)">
                <path d="M414.763,234.291 L75.065,234.291 C68.346,234.291 62.898,239.739 62.898,246.458 C62.898,253.178 68.346,258.626 75.065,258.626 L414.763,258.626 C421.482,258.626 426.93,253.178 426.93,246.458 C426.93,239.739 421.482,234.291 414.763,234.291" id="Fill-1" fill="#999999" sketch:type="MSShapeGroup"></path>
                <path d="M481.901,180.461 L12.251,180.461 C5.531,180.461 0.084,185.909 0.084,192.628 C0.084,199.348 5.531,204.795 12.251,204.795 L481.901,204.795 C488.62,204.795 494.068,199.348 494.068,192.628 C494.068,185.909 488.62,180.461 481.901,180.461" id="Fill-2" fill="#999999" sketch:type="MSShapeGroup"></path>
                <path d="M445.64,0.929 L156.199,0.929 L166.699,19.576 L152.401,39.93 L156.735,56.595 L30.86,56.595 L30.86,110.484 L460.811,110.484 L460.811,16.101 C460.811,7.721 454.019,0.929 445.64,0.929" id="Fill-3" fill="#333333" sketch:type="MSShapeGroup"></path>
                <path d="M246.503,13.044 L282.836,13.044 L282.836,56.595 L246.503,56.595 L246.503,13.044 Z" id="Fill-4" fill="#FFFFFF" sketch:type="MSShapeGroup"></path>
                <path d="M250.086,16.727 L279.253,16.727 L279.253,19.576 L250.086,19.576 L250.086,16.727 Z" id="Fill-5" fill="#323232" sketch:type="MSShapeGroup"></path>
                <path d="M250.086,22.381 L279.253,22.381 L279.253,25.23 L250.086,25.23 L250.086,22.381 Z" id="Fill-6" fill="#323232" sketch:type="MSShapeGroup"></path>
                <path d="M250.086,28.035 L279.253,28.035 L279.253,30.884 L250.086,30.884 L250.086,28.035 Z" id="Fill-7" fill="#323232" sketch:type="MSShapeGroup"></path>
                <path d="M250.086,33.689 L279.253,33.689 L279.253,36.539 L250.086,36.539 L250.086,33.689 Z" id="Fill-8" fill="#323232" sketch:type="MSShapeGroup"></path>
                <path d="M250.086,39.343 L279.253,39.343 L279.253,42.193 L250.086,42.193 L250.086,39.343 Z" id="Fill-9" fill="#323232" sketch:type="MSShapeGroup"></path>
                <path d="M250.086,44.997 L279.253,44.997 L279.253,47.846 L250.086,47.846 L250.086,44.997 Z" id="Fill-10" fill="#323232" sketch:type="MSShapeGroup"></path>
                <path d="M250.086,50.651 L279.253,50.651 L279.253,53.5 L250.086,53.5 L250.086,50.651 Z" id="Fill-11" fill="#323232" sketch:type="MSShapeGroup"></path>
                <path d="M296.169,24.939 L332.502,24.939 L332.502,68.49 L296.169,68.49 L296.169,24.939 Z" id="Fill-12" fill="#FFFFFF" sketch:type="MSShapeGroup"></path>
                <path d="M299.752,28.622 L328.919,28.622 L328.919,31.471 L299.752,31.471 L299.752,28.622 Z" id="Fill-13" fill="#323232" sketch:type="MSShapeGroup"></path>
                <path d="M299.752,34.276 L328.919,34.276 L328.919,37.125 L299.752,37.125 L299.752,34.276 Z" id="Fill-14" fill="#323232" sketch:type="MSShapeGroup"></path>
                <path d="M299.752,39.93 L328.919,39.93 L328.919,42.779 L299.752,42.779 L299.752,39.93 Z" id="Fill-15" fill="#323232" sketch:type="MSShapeGroup"></path>
                <path d="M299.752,45.584 L328.919,45.584 L328.919,48.434 L299.752,48.434 L299.752,45.584 Z" id="Fill-16" fill="#323232" sketch:type="MSShapeGroup"></path>
                <path d="M299.752,51.238 L328.919,51.238 L328.919,54.087 L299.752,54.087 L299.752,51.238 Z" id="Fill-17" fill="#323232" sketch:type="MSShapeGroup"></path>
                <path d="M299.752,56.893 L328.919,56.893 L328.919,59.742 L299.752,59.742 L299.752,56.893 Z" id="Fill-18" fill="#323232" sketch:type="MSShapeGroup"></path>
                <path d="M299.752,62.547 L328.919,62.547 L328.919,65.396 L299.752,65.396 L299.752,62.547 Z" id="Fill-19" fill="#323232" sketch:type="MSShapeGroup"></path>
                <path d="M39.674,110.484 L451.997,110.484 L451.997,186.667 L39.674,186.667 L39.674,110.484 Z" id="Fill-20" fill="#1B1B1B" sketch:type="MSShapeGroup"></path>
                <path d="M220.901,192.224 L189.401,110.484 L39.674,110.484 L39.674,134.784 L169.836,192.224 L220.901,192.224" id="Fill-21" fill="#FAB514" sketch:type="MSShapeGroup"></path>
                <path d="M37.947,128.5 C37.947,128.5 146.901,111.582 169.836,192.224 L37.947,192.224 L37.947,128.5" id="Fill-22" fill="#FFFFFF" sketch:type="MSShapeGroup"></path>
                <path d="M37.947,128.5 C37.947,128.5 146.901,111.582 169.836,192.224" id="Fill-23" fill="#FFFFFF" sketch:type="MSShapeGroup"></path>
                <path d="M16.28,77.345 L39.674,77.345 L39.674,192.224 L16.28,192.224 L16.28,77.345 Z" id="Fill-24" fill="#333333" sketch:type="MSShapeGroup"></path>
                <path d="M451.997,77.345 L475.391,77.345 L475.391,183.5 L451.997,183.5 L451.997,77.345 Z" id="Fill-25" fill="#333333" sketch:type="MSShapeGroup"></path>
                <path d="M481.324,60.454 C481.324,58.322 479.596,56.595 477.465,56.595 L14.206,56.595 C12.075,56.595 10.348,58.322 10.348,60.454 L10.348,85.018 C10.348,87.149 12.075,88.877 14.206,88.877 L477.073,88.877 C479.421,88.877 481.324,86.974 481.324,84.625 L481.324,60.454" id="Fill-26" fill="#858585" sketch:type="MSShapeGroup"></path>
                <path d="M10.348,60.454 L10.348,85.018 C10.348,86.774 11.528,88.24 13.134,88.707 L157.401,88.707 L142.053,56.595 L14.206,56.595 C12.075,56.595 10.348,58.322 10.348,60.454" id="Fill-27" fill="#FAB514" sketch:type="MSShapeGroup"></path>
                <path d="M442.836,78.876 L47.326,78.876 L47.326,74.454 C47.326,72.322 49.054,70.595 51.186,70.595 L438.976,70.595 C441.108,70.595 442.836,72.322 442.836,74.454 L442.836,78.876" id="Fill-28" fill="#1B1B1B" sketch:type="MSShapeGroup"></path>
                <path d="M457.326,82.735 C457.326,80.605 455.598,78.876 453.467,78.876 L36.695,78.876 C34.564,78.876 32.836,80.605 32.836,82.735 L32.836,88.729 L457.326,88.729 L457.326,82.735" id="Fill-29" fill="#FFFFFF" sketch:type="MSShapeGroup"></path>
                <path d="M225.901,165 C226.401,136 264.901,110.484 293.401,110.484 L451.997,110.484 L451.997,192.224 L225.901,192.224 L225.901,165" id="Fill-30" fill="#FFFFFF" sketch:type="MSShapeGroup"></path>
                <path d="M451.997,192.224 L451.997,163.726 L475.391,154 L475.391,192.224 L451.997,192.224" id="Fill-31" fill="#FAB514" sketch:type="MSShapeGroup"></path>
                <path d="M30.86,16.101 L30.86,56.595 L156.735,56.595 L152.401,39.93 L166.699,19.576 L156.199,0.929 L46.032,0.929 C37.653,0.929 30.86,7.721 30.86,16.101" id="Fill-32" fill="#FBC851" sketch:type="MSShapeGroup"></path>
                <path d="M79.036,164.091 L412.636,164.091 L412.636,199.514 L79.036,199.514 L79.036,164.091 Z" id="Fill-33" fill="#333333" sketch:type="MSShapeGroup"></path>
                <path d="M79.036,172.515 L99.706,172.515 L99.706,246.125 L79.036,246.125 L79.036,172.515 Z" id="Fill-34" fill="#333333" sketch:type="MSShapeGroup"></path>
                <path d="M391.965,172.515 L412.635,172.515 L412.635,246.125 L391.965,246.125 L391.965,172.515 Z" id="Fill-35" fill="#333333" sketch:type="MSShapeGroup"></path>
                <path d="M420.135,153.472 C420.135,151.34 418.408,149.612 416.276,149.612 L75.395,149.612 C73.264,149.612 71.536,151.34 71.536,153.472 L71.536,174.71 C71.536,176.842 73.264,178.569 75.395,178.569 L416.276,178.569 C418.408,178.569 420.135,176.842 420.135,174.71 L420.135,153.472" id="Fill-36" fill="#858585" sketch:type="MSShapeGroup"></path>
                <path d="M183.401,0.929 C183.401,15.288 195.042,26.929 209.401,26.929 C223.761,26.929 235.401,15.288 235.401,0.929 L183.401,0.929" id="Fill-37" fill="#28D2FF" sketch:type="MSShapeGroup"></path>
            </g>
        </g>
    </g>
</svg>