<?xml version="1.0" encoding="UTF-8" standalone="no"?>
<svg width="1440px" height="752px" viewBox="0 0 1440 752" version="1.1" xmlns="http://www.w3.org/2000/svg" xmlns:xlink="http://www.w3.org/1999/xlink" xmlns:sketch="http://www.bohemiancoding.com/sketch/ns">
    <!-- Generator: Sketch 3.3.2 (12043) - http://www.bohemiancoding.com/sketch -->
    <title>creekside</title>
    <desc>Created with Sketch.</desc>
    <defs></defs>
    <g id="Page-1" stroke="none" stroke-width="1" fill="none" fill-rule="evenodd" sketch:type="MSPage">
        <g id="creekside" sketch:type="MSArtboardGroup">
            <g id="Imported-Layers" sketch:type="MSLayerGroup" transform="translate(-22.000000, -1.000000)">
                <path d="M20.3896312,0.748965161 L1462.2842,0.748965161 L1462.2842,259.334194 L20.3896312,259.334194 L20.3896312,0.748965161 Z" id="Fill-1" fill="#28D2FF" sketch:type="MSShapeGroup"></path>
                <path d="M1388.58555,47.3339974 C1388.58555,56.8732903 1380.85283,64.6062555 1371.31484,64.6062555 L1245.16326,64.6062555 C1235.62327,64.6062555 1227.89155,56.8732903 1227.89155,47.3339974 C1227.89155,37.7957058 1235.62327,30.0637419 1245.16326,30.0637419 L1371.31484,30.0637419 C1380.85283,30.0637419 1388.58555,37.7957058 1388.58555,47.3339974" id="Fill-2" fill="#D7F4FF" sketch:type="MSShapeGroup"></path>
                <path d="M1185.31603,79.5465084 C1185.31603,88.3508542 1192.454,95.4890529 1201.25807,95.4890529 L1285.53801,95.4890529 C1294.34208,95.4890529 1301.48005,88.3508542 1301.48005,79.5465084 C1301.48005,70.74016 1294.34208,63.6029626 1285.53801,63.6029626 L1201.25807,63.6029626 C1192.454,63.6029626 1185.31603,70.74016 1185.31603,79.5465084" id="Fill-3" fill="#D7F4FF" sketch:type="MSShapeGroup"></path>
                <path d="M1233.31737,79.5465084 C1233.31737,88.3508542 1226.17939,95.4890529 1217.37533,95.4890529 L1195.76616,95.4890529 C1186.9621,95.4890529 1179.82412,88.3508542 1179.82412,79.5465084 C1179.82412,70.7421626 1186.9621,63.6049652 1195.76616,63.6049652 L1217.37533,63.6049652 C1226.17939,63.6049652 1233.31737,70.7421626 1233.31737,79.5465084" id="Fill-4" fill="#FFFFFF" sketch:type="MSShapeGroup"></path>
                <path d="M1260.71881,47.3339974 C1260.71881,56.8732903 1252.98709,64.6062555 1243.4471,64.6062555 C1233.91011,64.6062555 1226.17839,56.8732903 1226.17839,47.3339974 C1226.17839,37.7957058 1233.91011,30.0637419 1243.4471,30.0637419 C1252.98709,30.0637419 1260.71881,37.7957058 1260.71881,47.3339974" id="Fill-5" fill="#FFFFFF" sketch:type="MSShapeGroup"></path>
                <path d="M931.719237,80.5477987 C931.719237,71.76448 924.599287,64.6443045 915.816246,64.6443045 C907.032204,64.6443045 899.911252,71.76448 899.911252,80.5477987 C899.911252,89.33312 907.032204,96.4522942 915.816246,96.4522942 C924.599287,96.4522942 931.719237,89.33312 931.719237,80.5477987" id="Fill-6" fill="#D7F4FF" sketch:type="MSShapeGroup"></path>
                <path d="M568.564726,218.136103 C648.21285,194.889146 681.439618,139.674994 738.19997,168.734441 C794.960322,197.793889 839.078782,231.213956 866.41915,250.101295 C893.76052,268.99264 866.41915,299.50496 866.41915,299.50496 L558.129609,282.06849 L568.564726,218.136103" id="Fill-7" fill="#135156" sketch:type="MSShapeGroup"></path>
                <path d="M943.103548,246.137187 C1022.75167,226.102369 1055.97944,178.518049 1112.73979,203.561321 C1169.49914,228.605595 1213.6176,257.40671 1240.95897,273.686689 C1268.30034,289.965667 1240.95897,316.262555 1240.95897,316.262555 L932.66843,301.236191 L943.103548,246.137187" id="Fill-8" fill="#135156" sketch:type="MSShapeGroup"></path>
                <path d="M20.3896312,252.434302 C97.1220894,220.393012 235.295784,154.30785 295.371303,132.279463 C355.446822,110.251076 384.77569,127.081765 423.53241,160.315592 C473.595343,203.244914 526.050283,165.670493 566.540181,212.382689 C595.167167,245.41025 611.282425,280.470431 741.337914,280.470431 C861.045395,280.470431 1028.29264,331.467148 1164.46381,203.244914 C1286.61737,88.222689 1344.53718,128.274302 1385.95324,164.320754 C1427.3693,200.367205 1462.2842,206.374947 1462.2842,206.374947 L1462.2842,332.537528 L20.3896312,332.537528 L20.3896312,252.434302" id="Fill-9" fill="#1B6C72" sketch:type="MSShapeGroup"></path>
                <path d="M20.3896312,315.406452 L1462.2842,315.406452 L1462.2842,665.829027 L20.3896312,665.829027 L20.3896312,315.406452 Z" id="Fill-10" fill="#28D2FF" sketch:type="MSShapeGroup"></path>
                <path d="M20.3896312,315.406452 L1462.2842,315.406452 L1462.2842,371.47871 L20.3896312,371.47871 L20.3896312,315.406452 Z" id="Fill-11" fill="#3499DF" sketch:type="MSShapeGroup"></path>
                <path d="M1590.85882,414.862617 L1590.85882,423.122261 L837.601925,423.122261 C833.039189,423.122261 829.341541,419.424495 829.341541,414.862617 C829.341541,410.300738 833.039189,406.601972 837.601925,406.601972 L1590.85882,406.601972 L1590.85882,414.862617" id="Fill-12" fill="#3499DF" sketch:type="MSShapeGroup"></path>
                <path d="M20.3896312,313.487979 L1462.2842,313.487979 L1462.2842,364.056145 L20.3896312,364.056145 L20.3896312,313.487979 Z" id="Fill-13" fill="#91B7C5" sketch:type="MSShapeGroup"></path>
                <path d="M1339.00322,0.748965161 L1462.2842,0.748965161 L1462.2842,313.487979 L1339.00322,313.487979 L1339.00322,0.748965161 Z" id="Fill-14" fill="#6D8994" sketch:type="MSShapeGroup"></path>
                <path d="M168.027222,151.991866 L232.146825,151.991866 L232.146825,313.487979 L168.027222,313.487979 L168.027222,151.991866 Z" id="Fill-15" fill="#6D8994" sketch:type="MSShapeGroup"></path>
                <path d="M105.845055,259.071855 L169.964658,259.071855 L169.964658,313.487979 L105.845055,313.487979 L105.845055,259.071855 Z" id="Fill-16" fill="#6D8994" sketch:type="MSShapeGroup"></path>
                <path d="M20.3896312,176.692697 L84.5092341,176.692697 L84.5092341,313.487979 L20.3896312,313.487979 L20.3896312,176.692697 Z" id="Fill-17" fill="#6D8994" sketch:type="MSShapeGroup"></path>
                <path d="M917.382215,182.233837 C917.382215,269.362116 988.012001,339.992134 1075.13652,339.992134 C1162.26205,339.992134 1232.89183,269.362116 1232.89183,182.233837 C1232.89183,95.1045574 1162.26205,24.4735381 1075.13652,24.4735381 C988.012001,24.4735381 917.382215,95.1045574 917.382215,182.233837" id="Fill-18" fill="#FFFFFF" sketch:type="MSShapeGroup"></path>
                <path d="M959.864618,227.433084 L983.43725,177.139272 L1007.00988,227.433084 L959.864618,227.433084" id="Fill-19" fill="#BDE2F0" sketch:type="MSShapeGroup"></path>
                <path d="M1007.00988,227.433084 L1030.58252,177.139272 L1054.15515,227.433084 L1007.00988,227.433084" id="Fill-20" fill="#BDE2F0" sketch:type="MSShapeGroup"></path>
                <path d="M1054.15515,227.433084 L1077.72778,177.139272 L1101.30141,227.433084 L1054.15515,227.433084" id="Fill-21" fill="#BDE2F0" sketch:type="MSShapeGroup"></path>
                <path d="M1101.30141,227.433084 L1124.87405,177.139272 L1148.44668,227.433084 L1101.30141,227.433084" id="Fill-22" fill="#BDE2F0" sketch:type="MSShapeGroup"></path>
                <path d="M983.43725,177.139272 L1007.00988,126.846462 L1030.58252,177.139272 L983.43725,177.139272" id="Fill-23" fill="#BDE2F0" sketch:type="MSShapeGroup"></path>
                <path d="M1030.58252,177.139272 L1054.15615,126.846462 L1077.72778,177.139272 L1030.58252,177.139272" id="Fill-24" fill="#BDE2F0" sketch:type="MSShapeGroup"></path>
                <path d="M1077.72778,177.139272 L1101.30141,126.846462 L1124.87405,177.139272 L1077.72778,177.139272" id="Fill-25" fill="#BDE2F0" sketch:type="MSShapeGroup"></path>
                <path d="M1124.87405,177.139272 L1148.44668,126.846462 L1172.01931,177.139272 L1124.87405,177.139272" id="Fill-26" fill="#BDE2F0" sketch:type="MSShapeGroup"></path>
                <path d="M1007.00988,126.967618 L1030.58252,76.6738065 L1054.15515,126.967618 L1007.00988,126.967618" id="Fill-27" fill="#BDE2F0" sketch:type="MSShapeGroup"></path>
                <path d="M1054.15515,126.967618 L1077.72778,76.6738065 L1101.30141,126.967618 L1054.15515,126.967618" id="Fill-28" fill="#BDE2F0" sketch:type="MSShapeGroup"></path>
                <path d="M1101.30141,126.967618 L1124.87405,76.6738065 L1148.44668,126.967618 L1101.30141,126.967618" id="Fill-29" fill="#BDE2F0" sketch:type="MSShapeGroup"></path>
                <path d="M1038.26317,177.139272 C1038.26317,172.896805 1034.82385,169.456372 1030.58252,169.456372 C1026.34018,169.456372 1022.90086,172.896805 1022.90086,177.139272 C1022.90086,181.381739 1026.34018,184.821172 1030.58252,184.821172 C1034.82385,184.821172 1038.26317,181.381739 1038.26317,177.139272" id="Fill-30" fill="#3499DF" sketch:type="MSShapeGroup"></path>
                <path d="M1038.26317,76.6738065 C1038.26317,72.4323406 1034.82385,68.9919071 1030.58252,68.9919071 C1026.34018,68.9919071 1022.90086,72.4323406 1022.90086,76.6738065 C1022.90086,80.9172748 1026.34018,84.3567071 1030.58252,84.3567071 C1034.82385,84.3567071 1038.26317,80.9172748 1038.26317,76.6738065" id="Fill-31" fill="#3499DF" sketch:type="MSShapeGroup"></path>
                <path d="M1014.69054,227.433084 C1014.69054,223.189615 1011.25121,219.750183 1007.00988,219.750183 C1002.76755,219.750183 999.328227,223.189615 999.328227,227.433084 C999.328227,231.67455 1002.76755,235.114983 1007.00988,235.114983 C1011.25121,235.114983 1014.69054,231.67455 1014.69054,227.433084" id="Fill-32" fill="#3499DF" sketch:type="MSShapeGroup"></path>
                <path d="M1061.8358,126.967618 C1061.8358,122.725151 1058.39748,119.285719 1054.15515,119.285719 C1049.91281,119.285719 1046.47349,122.725151 1046.47349,126.967618 C1046.47349,131.210085 1049.91281,134.649517 1054.15515,134.649517 C1058.39748,134.649517 1061.8358,131.210085 1061.8358,126.967618" id="Fill-33" fill="#3499DF" sketch:type="MSShapeGroup"></path>
                <path d="M1014.69154,126.967618 C1014.69154,122.725151 1011.25222,119.285719 1007.00988,119.285719 C1002.76755,119.285719 999.328227,122.725151 999.328227,126.967618 C999.328227,131.210085 1002.76755,134.649517 1007.00988,134.649517 C1011.25222,134.649517 1014.69154,131.210085 1014.69154,126.967618" id="Fill-34" fill="#3499DF" sketch:type="MSShapeGroup"></path>
                <path d="M1085.40944,177.139272 C1085.40944,172.896805 1081.97011,169.456372 1077.72778,169.456372 C1073.48545,169.456372 1070.04713,172.896805 1070.04713,177.139272 C1070.04713,181.381739 1073.48545,184.821172 1077.72778,184.821172 C1081.97011,184.821172 1085.40944,181.381739 1085.40944,177.139272" id="Fill-35" fill="#3499DF" sketch:type="MSShapeGroup"></path>
                <path d="M1132.5547,177.139272 C1132.5547,172.896805 1129.11538,169.456372 1124.87405,169.456372 C1120.63171,169.456372 1117.19239,172.896805 1117.19239,177.139272 C1117.19239,181.381739 1120.63171,184.821172 1124.87405,184.821172 C1129.11538,184.821172 1132.5547,181.381739 1132.5547,177.139272" id="Fill-36" fill="#3499DF" sketch:type="MSShapeGroup"></path>
                <path d="M991.118907,177.139272 C991.118907,172.896805 987.679583,169.456372 983.43725,169.456372 C979.194918,169.456372 975.756595,172.896805 975.756595,177.139272 C975.756595,181.381739 979.194918,184.821172 983.43725,184.821172 C987.679583,184.821172 991.118907,181.381739 991.118907,177.139272" id="Fill-37" fill="#3499DF" sketch:type="MSShapeGroup"></path>
                <path d="M20.3896312,544.045089 L1462.2842,544.045089 L1462.2842,753.720289 L20.3896312,753.720289 L20.3896312,544.045089 Z" id="Fill-38" fill="#C7C7C4" sketch:type="MSShapeGroup"></path>
                <path d="M1102.3237,685.105868 C1102.3237,677.988697 1108.09295,672.218261 1115.2089,672.218261 C1122.32484,672.218261 1128.09409,677.988697 1128.09409,685.105868" id="Fill-39" fill="#ECECEB" sketch:type="MSShapeGroup"></path>
                <path d="M226.083203,593.113321 C226.083203,585.99615 231.852455,580.226715 238.9684,580.226715 C246.084346,580.226715 251.853598,585.99615 251.853598,593.113321" id="Fill-40" fill="#A7A7A5" sketch:type="MSShapeGroup"></path>
                <path d="M1276.12218,706.130963 C1276.12218,699.013791 1281.89143,693.244356 1289.00737,693.244356 C1296.12332,693.244356 1301.89257,699.013791 1301.89257,706.130963" id="Fill-41" fill="#A7A7A5" sketch:type="MSShapeGroup"></path>
                <path d="M240.388185,711.923427 C240.388185,704.806255 246.157437,699.036821 253.273383,699.036821 C260.389328,699.036821 266.15858,704.806255 266.15858,711.923427" id="Fill-42" fill="#ECECEB" sketch:type="MSShapeGroup"></path>
                <path d="M841.436746,395.93823 L857.630102,395.93823 L857.630102,414.181739 L841.436746,414.181739 L841.436746,395.93823 Z" id="Fill-43" fill="#392722" sketch:type="MSShapeGroup"></path>
                <path d="M889.108673,395.93823 L905.302029,395.93823 L905.302029,414.181739 L889.108673,414.181739 L889.108673,395.93823 Z" id="Fill-44" fill="#392722" sketch:type="MSShapeGroup"></path>
                <path d="M936.779598,395.93823 L952.971953,395.93823 L952.971953,414.181739 L936.779598,414.181739 L936.779598,395.93823 Z" id="Fill-45" fill="#392722" sketch:type="MSShapeGroup"></path>
                <path d="M984.451525,395.93823 L1000.64388,395.93823 L1000.64388,414.181739 L984.451525,414.181739 L984.451525,395.93823 Z" id="Fill-46" fill="#392722" sketch:type="MSShapeGroup"></path>
                <path d="M1032.12245,395.93823 L1048.31581,395.93823 L1048.31581,414.181739 L1032.12245,414.181739 L1032.12245,395.93823 Z" id="Fill-47" fill="#392722" sketch:type="MSShapeGroup"></path>
                <path d="M1079.79438,395.93823 L1095.98773,395.93823 L1095.98773,414.181739 L1079.79438,414.181739 L1079.79438,395.93823 Z" id="Fill-48" fill="#392722" sketch:type="MSShapeGroup"></path>
                <path d="M1127.46631,395.93823 L1143.65966,395.93823 L1143.65966,414.181739 L1127.46631,414.181739 L1127.46631,395.93823 Z" id="Fill-49" fill="#392722" sketch:type="MSShapeGroup"></path>
                <path d="M1175.13823,395.93823 L1191.33059,395.93823 L1191.33059,414.181739 L1175.13823,414.181739 L1175.13823,395.93823 Z" id="Fill-50" fill="#392722" sketch:type="MSShapeGroup"></path>
                <path d="M1222.80916,395.93823 L1239.00251,395.93823 L1239.00251,414.181739 L1222.80916,414.181739 L1222.80916,395.93823 Z" id="Fill-51" fill="#392722" sketch:type="MSShapeGroup"></path>
                <path d="M1270.48108,395.93823 L1286.67444,395.93823 L1286.67444,414.181739 L1270.48108,414.181739 L1270.48108,395.93823 Z" id="Fill-52" fill="#392722" sketch:type="MSShapeGroup"></path>
                <path d="M1318.15301,395.93823 L1334.34637,395.93823 L1334.34637,414.181739 L1318.15301,414.181739 L1318.15301,395.93823 Z" id="Fill-53" fill="#392722" sketch:type="MSShapeGroup"></path>
                <path d="M1365.82494,395.93823 L1382.0183,395.93823 L1382.0183,414.181739 L1365.82494,414.181739 L1365.82494,395.93823 Z" id="Fill-54" fill="#392722" sketch:type="MSShapeGroup"></path>
                <path d="M1413.49586,395.93823 L1429.68822,395.93823 L1429.68822,414.181739 L1413.49586,414.181739 L1413.49586,395.93823 Z" id="Fill-55" fill="#392722" sketch:type="MSShapeGroup"></path>
                <path d="M1461.16779,395.93823 L1477.36115,395.93823 L1477.36115,414.181739 L1461.16779,414.181739 L1461.16779,395.93823 Z" id="Fill-56" fill="#392722" sketch:type="MSShapeGroup"></path>
                <path d="M829.341541,364.056145 L1590.85882,364.056145 L1590.85882,395.93823 L829.341541,395.93823 L829.341541,364.056145 Z" id="Fill-59" fill="#FFFFFF" sketch:type="MSShapeGroup"></path>
                <path d="M856.783037,251.911628 L1099.48113,251.911628 L1099.48113,364.056145 L856.783037,364.056145 L856.783037,251.911628 Z" id="Fill-60" fill="#BDE2F0" sketch:type="MSShapeGroup"></path>
                <path d="M1099.48113,251.911628 L1253.01513,251.911628 L1253.01513,364.056145 L1099.48113,364.056145 L1099.48113,251.911628 Z" id="Fill-61" fill="#EF5281" sketch:type="MSShapeGroup"></path>
                <path d="M1253.01513,251.911628 L1288.86119,251.911628 L1288.86119,364.056145 L1253.01513,364.056145 L1253.01513,251.911628 Z" id="Fill-62" fill="#BDE2F0" sketch:type="MSShapeGroup"></path>
                <path d="M1120.65875,239.957223 L1171.71994,239.957223 L1171.71994,330.155458 L1120.65875,330.155458 L1120.65875,239.957223 Z" id="Fill-63" fill="#BDE2F0" sketch:type="MSShapeGroup"></path>
                <path d="M1186.73881,239.957223 L1237.8,239.957223 L1237.8,330.155458 L1186.73881,330.155458 L1186.73881,239.957223 Z" id="Fill-64" fill="#BDE2F0" sketch:type="MSShapeGroup"></path>
                <path d="M1288.86119,251.911628 L1442.39519,251.911628 L1442.39519,364.056145 L1288.86119,364.056145 L1288.86119,251.911628 Z" id="Fill-65" fill="#EF5281" sketch:type="MSShapeGroup"></path>
                <path d="M1442.39519,251.911628 L1478.24226,251.911628 L1478.24226,369.053585 L1442.39519,369.053585 L1442.39519,251.911628 Z" id="Fill-66" fill="#FFFFFF" sketch:type="MSShapeGroup"></path>
                <path d="M1310.03881,239.957223 L1361.1,239.957223 L1361.1,330.155458 L1310.03881,330.155458 L1310.03881,239.957223 Z" id="Fill-67" fill="#BDE2F0" sketch:type="MSShapeGroup"></path>
                <path d="M1376.11888,239.957223 L1427.18007,239.957223 L1427.18007,330.155458 L1376.11888,330.155458 L1376.11888,239.957223 Z" id="Fill-68" fill="#BDE2F0" sketch:type="MSShapeGroup"></path>
                <path d="M877.36491,272.937724 L919.415771,272.937724 L919.415771,349.532428 L877.36491,349.532428 L877.36491,272.937724 Z" id="Fill-69" fill="#FFFFFF" sketch:type="MSShapeGroup"></path>
                <path d="M949.068046,272.937724 L991.117906,272.937724 L991.117906,349.532428 L949.068046,349.532428 L949.068046,272.937724 Z" id="Fill-70" fill="#FFFFFF" sketch:type="MSShapeGroup"></path>
                <path d="M1020.77218,272.937724 L1062.82304,272.937724 L1062.82304,349.532428 L1020.77218,349.532428 L1020.77218,272.937724 Z" id="Fill-71" fill="#FFFFFF" sketch:type="MSShapeGroup"></path>
                <path d="M544.395344,414.090622 L622.62969,414.090622 C627.616959,414.090622 631.660042,418.134834 631.660042,423.122261 C631.660042,428.110689 627.616959,432.153899 622.62969,432.153899 L544.395344,432.153899 C539.407073,432.153899 535.362989,428.110689 535.362989,423.122261 C535.362989,418.134834 539.407073,414.090622 544.395344,414.090622" id="Fill-72" fill="#3499DF" sketch:type="MSShapeGroup"></path>
                <path d="M584.934304,343.523685 L596.949408,343.523685 L596.949408,423.122261 L584.934304,423.122261 L584.934304,343.523685 Z" id="Fill-73" fill="#392722" sketch:type="MSShapeGroup"></path>
                <path d="M556.389421,343.523685 L568.404525,343.523685 L568.404525,423.122261 L556.389421,423.122261 L556.389421,343.523685 Z" id="Fill-74" fill="#392722" sketch:type="MSShapeGroup"></path>
                <path d="M535.362989,343.523685 L547.378093,343.523685 L547.378093,423.122261 L535.362989,423.122261 L535.362989,343.523685 Z" id="Fill-75" fill="#392722" sketch:type="MSShapeGroup"></path>
                <path d="M436.853155,473.469141 L492.04854,473.469141 C497.036811,473.469141 501.079893,477.513352 501.079893,482.501781 C501.079893,487.489208 497.036811,491.532418 492.04854,491.532418 L436.853155,491.532418 C431.864885,491.532418 427.820801,487.489208 427.820801,482.501781 C427.820801,477.513352 431.864885,473.469141 436.853155,473.469141" id="Fill-76" fill="#3499DF" sketch:type="MSShapeGroup"></path>
                <path d="M427.820801,402.902204 L439.835905,402.902204 L439.835905,482.500779 L427.820801,482.500779 L427.820801,402.902204 Z" id="Fill-77" fill="#392722" sketch:type="MSShapeGroup"></path>
                <path d="M454.354155,402.902204 L466.369259,402.902204 L466.369259,482.500779 L454.354155,482.500779 L454.354155,402.902204 Z" id="Fill-78" fill="#392722" sketch:type="MSShapeGroup"></path>
                <path d="M1181.86969,493.710225 L1345.984,493.710225 L1345.984,594.335897 L1181.86969,594.335897 L1181.86969,493.710225 Z" id="Fill-79" fill="#91B7C5" sketch:type="MSShapeGroup"></path>
                <path d="M1109.59684,493.710225 L1273.71014,493.710225 L1273.71014,594.335897 L1109.59684,594.335897 L1109.59684,493.710225 Z" id="Fill-80" fill="#6D8994" sketch:type="MSShapeGroup"></path>
                <path d="M395.846607,678.661564 C395.846607,690.274529 376.348096,699.687659 352.29486,699.687659 C328.241623,699.687659 308.743112,690.274529 308.743112,678.661564 C308.743112,667.0496 328.241623,657.635468 352.29486,657.635468 C376.348096,657.635468 395.846607,667.0496 395.846607,678.661564" id="Fill-81" fill="#815130" sketch:type="MSShapeGroup"></path>
                <path d="M368.814626,274.039143 C368.814626,264.914385 361.41933,257.518854 352.29486,257.518854 C343.171391,257.518854 335.775093,264.914385 335.775093,274.039143 L335.775093,678.661564 L368.814626,678.661564 L368.814626,274.039143" id="Fill-82" fill="#9A7459" sketch:type="MSShapeGroup"></path>
                <path d="M504.504198,328.657528 C504.504198,407.978746 439.262184,472.280609 358.782014,472.280609 C278.302846,472.280609 213.059831,407.978746 213.059831,328.657528 L213.059831,200.695628 C213.059831,121.376413 278.301845,57.0745497 358.782014,57.0735484 C439.262184,57.0735484 504.504198,121.376413 504.504198,200.695628 L504.504198,328.657528" id="Fill-83" fill="#5AB55C" sketch:type="MSShapeGroup"></path>
                <path d="M350.070063,477.223979 C347.266539,482.962374 340.988647,486.476903 334.340289,485.475613 C327.691932,484.474323 322.715677,479.2576 321.734443,472.939458 C317.909635,478.05505 311.061026,480.338994 304.723059,478.096103 C298.375079,475.863226 294.47017,469.794405 294.700459,463.407174 C289.974519,467.711721 282.825532,468.653935 277.008219,465.259561 L277.008219,465.269574 C271.200919,461.865187 268.517546,455.176568 269.939333,448.937528 C264.492486,452.272826 257.283424,451.862297 252.217055,447.426581 L252.217055,447.435592 C247.150686,443.000877 245.778962,435.911742 248.362209,430.064206 C242.374682,432.307097 235.375884,430.533812 231.240686,425.217961 C227.105488,419.900108 227.095475,412.680805 230.750069,407.424031 C224.44214,408.4864 217.903921,405.392413 214.860094,399.384671 C211.816268,393.365915 213.21803,386.267768 217.813807,381.811025 C211.415765,381.631794 205.598452,377.326245 203.786174,370.827871 C201.973896,364.328495 204.727357,357.640877 210.114128,354.176413 C203.866274,352.744568 199.01017,347.386663 198.499528,340.669006 C197.998899,334.119566 201.773644,328.232981 207.480818,325.749781 C201.943858,323.536929 198.038949,318.129961 198.038949,311.800805 C198.038949,305.553755 201.853744,300.196852 207.280566,297.933935 C201.853744,295.671019 198.038949,290.313115 198.038949,284.066065 C198.038949,277.818013 201.853744,272.460108 207.280566,270.198194 C201.853744,267.935277 198.038949,262.578374 198.038949,256.330323 C198.038949,250.082271 201.853744,244.725368 207.280566,242.46145 C201.853744,240.199535 198.038949,234.842632 198.038949,228.594581 C198.038949,222.346529 201.853744,216.989626 207.280566,214.72671 C201.853744,212.462792 198.038949,207.10689 198.038949,200.858839 C198.038949,194.120155 202.464512,188.422813 208.57219,186.520361 C202.935104,183.476439 199.671001,177.028129 200.972637,170.4096 C202.264261,163.791071 207.731133,159.044955 214.099138,158.364077 C209.162933,154.278813 207.220491,147.309832 209.783713,141.071794 C212.346935,134.833755 218.624827,131.249135 225.002845,131.819871 C220.95776,126.863484 220.407067,119.654194 224.121737,114.036955 C227.846419,108.419716 234.685016,106.106735 240.833745,107.899045 C237.808943,102.261781 238.639987,95.082529 243.365928,90.2763355 C248.081857,85.4801548 255.230843,84.5189161 260.917992,87.432671 C259.025614,81.3248 261.198345,74.4459355 266.735305,70.6210065 C272.272266,66.7960774 279.481328,67.2066065 284.517659,71.1416774 C283.806765,64.7934968 287.241082,58.4453161 293.399824,55.7318194 C299.556564,53.0283355 306.555362,54.7805935 310.750636,59.5968 C311.261278,53.2285935 315.827017,47.6413935 322.385261,46.1394581 C328.943505,44.6475355 335.471712,47.6814452 338.695765,53.1985548 C340.387892,47.0406194 345.904827,42.4146581 352.623272,42.1643355 L352.623272,42.1743484 C359.331705,41.9240258 365.179056,46.1094194 367.32175,52.1171613 C370.125274,46.3797677 376.403166,42.8552258 383.051523,43.8465032 L383.051523,43.8565161 C389.69988,44.8477935 394.676136,50.0645161 395.667382,56.3726452 C399.493191,51.2560516 406.330787,48.9630968 412.678767,51.1959742 C419.026746,53.4288516 422.931655,59.4866581 422.711378,65.8849032 C427.437319,61.5693419 434.586306,60.6181161 440.403619,64.0024774 C446.220931,67.3868387 448.914317,74.085471 447.49253,80.3134968 C452.939377,76.9691871 460.138427,77.3797161 465.214808,81.8054194 C470.281177,86.2311226 471.662914,93.3202581 469.089679,99.1677935 C475.077206,96.9148903 482.076004,98.6871742 486.221215,103.994013 C490.366425,109.310865 490.376438,116.530168 486.721844,121.786942 C493.039786,120.725574 499.578005,123.799535 502.621831,129.81729 C505.67567,135.825032 504.283921,142.924181 499.688143,147.389935 C506.086186,147.560155 511.913512,151.865703 513.72579,158.354065 C515.548081,164.852439 512.805633,171.541058 507.427873,175.015535 C513.665714,176.447381 518.531831,181.794271 519.052486,188.512929 C519.564129,195.061368 515.77837,200.958968 510.081208,203.442168 C515.618169,205.655019 519.523077,211.061987 519.523077,217.389141 C519.523077,223.638194 515.708282,228.995097 510.28146,231.258013 C515.708282,233.520929 519.523077,238.876831 519.523077,245.125884 C519.523077,251.373935 515.708282,256.729837 510.28146,258.993755 C515.708282,261.256671 519.523077,266.613574 519.523077,272.861626 C519.523077,279.109677 515.708282,284.466581 510.28146,286.728495 C515.708282,288.992413 519.523077,294.349316 519.523077,300.597368 C519.523077,306.855432 515.708282,312.212335 510.28146,314.47425 C515.708282,316.738168 519.523077,322.095071 519.523077,328.343123 L519.523077,328.653523 C519.523077,335.392206 515.087502,341.088547 508.979824,343.002013 C514.606897,346.045935 517.860988,352.504258 516.560353,359.111773 C515.257716,365.731303 509.790843,370.467406 503.412826,371.148284 C508.349031,375.233548 510.28146,382.212542 507.718238,388.440568 C505.145003,394.678606 498.857099,398.253213 492.479081,397.682477 C496.524166,402.648877 497.064846,409.847154 493.340164,415.465394 C489.615481,421.082632 482.766872,423.375587 476.630158,421.583277 C479.642945,427.230555 478.801888,434.399794 474.075947,439.195974 C469.350006,443.992155 462.20102,444.943381 456.51387,442.029626 C458.406249,448.127484 456.223505,455.006348 450.686545,458.831277 C445.139572,462.646194 437.940522,462.235665 432.904191,458.290581 C433.605072,464.648774 430.170755,470.986942 424.003002,473.690426 C417.845261,476.39391 410.856476,474.631639 406.651189,469.805419 C406.140548,476.182637 401.564795,481.760826 395.006551,483.252748 C388.448307,484.744671 381.920101,481.689734 378.70606,476.182637 C377.013933,482.331561 371.486986,486.946508 364.76854,487.187819 C364.578301,487.196831 364.398074,487.196831 364.217848,487.196831 C357.739704,487.196831 352.152681,483.062503 350.070063,477.223979 L350.070063,477.223979 Z M338.815916,455.776341 C344.48304,456.628439 348.928628,460.533471 350.730894,465.579974 C353.083851,460.773781 357.949969,457.379406 363.677168,457.169135 C369.404368,456.968877 374.490761,459.991773 377.19416,464.608723 C378.62596,459.451076 382.771171,455.226632 388.348181,453.954994 C393.925192,452.692366 399.482177,454.705961 402.996595,458.731148 C403.437149,453.403283 406.701252,448.476934 411.937835,446.183979 L411.937835,446.174968 C417.174418,443.882013 423.021768,444.813213 427.227055,448.107458 C426.646325,442.790606 428.929194,437.333574 433.645123,434.089394 C438.351038,430.845213 444.268477,430.654968 449.024456,433.098116 C447.45248,427.990534 448.664003,422.204077 452.669037,418.118813 C456.684084,414.053574 462.451334,412.751897 467.577778,414.233806 C465.064619,409.527742 465.154733,403.620129 468.308697,398.864 C471.472675,394.097858 476.869459,391.7248 482.17613,392.195406 C478.821913,388.060077 477.770592,382.262606 479.943323,376.985806 C482.116054,371.719019 486.942121,368.344671 492.248792,367.773935 C488.143631,364.379561 485.990925,358.89249 487.09231,353.30529 C488.193694,347.708077 492.268817,343.462606 497.355211,341.870555 C492.66932,339.327277 489.485318,334.360877 489.485318,328.653523 L489.485318,328.343123 C489.485318,322.095071 493.300113,316.738168 498.726935,314.47425 C493.300113,312.212335 489.485318,306.855432 489.485318,300.597368 C489.485318,294.349316 493.300113,288.992413 498.726935,286.728495 C493.300113,284.466581 489.485318,279.109677 489.485318,272.861626 C489.485318,266.613574 493.300113,261.256671 498.726935,258.993755 C493.300113,256.729837 489.485318,251.373935 489.485318,245.125884 C489.485318,238.876831 493.300113,233.520929 498.726935,231.258013 C493.300113,228.995097 489.485318,223.638194 489.485318,217.389141 C489.485318,211.222194 493.199987,205.935381 498.506658,203.612387 C493.36119,201.559742 489.555406,196.713497 489.10484,190.814895 C488.664286,185.137579 491.457797,179.941884 495.923411,177.048155 C490.736891,175.856619 486.341366,171.941574 484.80944,166.454503 C483.267502,160.967432 484.989666,155.330168 488.814475,151.625394 C483.487778,151.465187 478.401385,148.481342 475.82815,143.394787 C473.244902,138.298219 473.845658,132.430658 476.879471,128.045006 C471.612851,128.926142 466.045853,126.973626 462.531435,122.467819 C459.017017,117.962013 458.476337,112.074426 460.629043,107.188129 C455.62275,109.060542 449.7754,108.199432 445.459975,104.444594 C441.154563,100.679742 439.512498,95.0024258 440.693984,89.7857032 C436.128244,92.5793032 430.220818,92.8396387 425.284613,89.9559226 C420.338395,87.0722065 417.645009,81.8054194 417.825236,76.458529 C413.880277,80.0631742 408.12304,81.4349419 402.726256,79.5425032 C397.329471,77.6400516 393.694902,72.9740387 392.863858,67.6972387 C389.65983,71.9827613 384.264047,74.4058839 378.605935,73.5648 C372.938811,72.7137032 368.494223,68.808671 366.680944,63.7621677 C364.327986,68.5783742 359.471882,71.9727484 353.744682,72.1830194 C348.017483,72.4033032 342.921076,69.3794065 340.217678,64.7634581 C338.79589,69.9201032 334.660692,74.1455484 329.073669,75.4272 C323.496658,76.6988387 317.939673,74.6862452 314.415242,70.671071 C313.994714,75.9979355 310.73061,80.9242839 305.494028,83.2272516 C300.257445,85.5302194 294.420107,84.6090323 290.204808,81.3248 C290.785538,86.6316387 288.512681,92.088671 283.806765,95.3428645 C279.090837,98.5970581 273.183411,98.7873032 268.427432,96.3541677 C269.999408,101.460748 268.797898,107.248206 264.792863,111.333471 C260.787829,115.408723 255.020579,116.720413 249.894135,115.22849 C252.407294,119.944568 252.327193,125.852181 249.173228,130.60831 C246.019264,135.374452 240.62248,137.757523 235.315809,137.286916 C238.680038,141.422245 239.731359,147.219716 237.568641,152.496516 C235.395909,157.773316 230.569843,161.147665 225.274186,161.7184 C229.378345,165.112774 231.541064,170.589832 230.449692,176.187045 C229.348307,181.784258 225.274186,186.039742 220.196803,187.631794 C224.892706,190.175071 228.076709,195.141471 228.076709,200.858839 C228.076709,207.10689 224.261913,212.462792 218.835091,214.72671 C224.261913,216.989626 228.076709,222.346529 228.076709,228.594581 C228.076709,234.842632 224.261913,240.199535 218.835091,242.46145 C224.261913,244.725368 228.076709,250.082271 228.076709,256.330323 C228.076709,262.578374 224.261913,267.935277 218.835091,270.198194 C224.261913,272.460108 228.076709,277.818013 228.076709,284.066065 C228.076709,290.313115 224.261913,295.671019 218.835091,297.933935 C224.261913,300.196852 228.076709,305.553755 228.076709,311.800805 C228.076709,317.969755 224.362039,323.266581 219.056369,325.579561 C224.191825,327.651231 227.996608,332.488465 228.447174,338.396077 C228.877716,344.073394 226.084204,349.260077 221.608578,352.153806 C226.795098,353.345342 231.190623,357.2704 232.722549,362.767484 C234.254475,368.254555 232.522297,373.880805 228.697489,377.595592 C234.024185,377.746787 239.100566,380.740645 241.673801,385.837213 C244.247036,390.933781 243.646281,396.791329 240.602454,401.176981 C245.869075,400.295845 251.436073,402.258374 254.940478,406.774194 C258.454896,411.28 258.985563,417.167587 256.832857,422.053884 C261.83915,420.181471 267.686501,421.052594 271.991913,424.817445 C276.297325,428.582297 277.93939,434.269626 276.747892,439.476335 C281.313631,436.692748 287.221057,436.442426 292.157262,439.326142 C297.10348,442.209858 299.786853,447.486658 299.596614,452.823535 C303.551586,449.227902 309.308823,447.867148 314.705607,449.768599 C320.102391,451.672052 323.726948,456.338065 324.557992,461.614865 C327.331479,457.920103 331.74703,455.607123 336.563084,455.607123 C337.304015,455.607123 338.054959,455.656186 338.815916,455.776341 L338.815916,455.776341 Z" id="Fill-84" fill="#5AB55C" sketch:type="MSShapeGroup"></path>
                <path d="M469.548256,332.485461 C469.548256,416.551794 423.645553,484.699613 352.295861,484.699613 C268.233188,484.699613 200.086523,416.551794 200.086523,332.485461 L200.086523,196.868697 C200.086523,112.810374 268.222174,44.6545445 352.27884,44.6545445 L352.295861,44.6545445 C423.645553,44.6545445 469.548256,112.803365 469.548256,196.868697 L469.548256,332.485461" id="Fill-85" fill="#A9D163" sketch:type="MSShapeGroup"></path>
                <path d="M341.289025,499.36351 L341.289025,499.36351 C334.450428,498.912929 328.973543,493.955541 327.581794,487.578323 C324.287653,493.215587 317.549182,496.239484 310.910837,494.547303 C304.252467,492.855123 299.776841,486.967535 299.596614,480.42911 C295.32124,485.375484 288.132203,487.117729 281.904374,484.224 C275.686558,481.330271 272.373393,474.711742 273.393675,468.263432 C268.287256,472.338684 260.90798,472.729187 255.320957,468.744052 C249.733933,464.758916 247.691366,457.658766 249.87411,451.501832 C244.10686,454.575794 236.787659,453.604542 232.021668,448.678194 C227.255677,443.741832 226.544783,436.392361 229.808886,430.735071 C223.581057,432.706612 216.552222,430.413657 212.767464,424.696289 C208.982706,418.978921 209.623512,411.620439 213.858836,406.654039 C207.380692,407.445058 200.892536,403.910503 198.219176,397.592361 C195.545815,391.274219 197.528307,384.155045 202.614701,380.049755 C196.096507,379.638225 190.369308,374.962199 188.90747,368.254555 C187.445632,361.555923 190.699723,354.927381 196.45696,351.833394 C190.129006,350.231329 185.363014,344.593063 185.15275,337.745239 C184.942486,331.1968 188.957533,325.509471 194.734795,323.266581 C189.077684,321.113806 185.072649,315.635747 185.072649,309.22849 C185.072649,302.840258 189.057659,297.373213 194.694745,295.210426 C189.057659,293.047639 185.072649,287.580594 185.072649,281.192361 C185.072649,274.793115 189.067671,269.337084 194.694745,267.163283 C189.067671,265.001497 185.072649,259.534452 185.072649,253.145218 C185.072649,246.747974 189.067671,241.289941 194.694745,239.118142 C189.067671,236.954354 185.072649,231.498323 185.072649,225.100077 C185.072649,218.701832 189.057659,213.2448 194.694745,211.082013 C189.057659,208.909213 185.072649,203.451179 185.072649,197.053935 C185.072649,190.20511 189.648402,184.437677 195.906268,182.625342 C190.058918,179.7216 186.58455,173.2032 187.826111,166.464516 C189.067671,159.715819 194.63467,154.849548 201.142851,154.228748 C195.926293,150.293677 193.703499,143.244594 196.166595,136.836335 C198.629692,130.428077 205.007709,126.683252 211.51589,127.264 C207.110352,122.437781 206.229245,115.098323 209.823763,109.2608 C213.428295,103.423277 220.367017,100.900026 226.664934,102.662297 C223.210592,97.1151484 223.691196,89.7456516 228.286973,84.6590968 C232.892763,79.5825548 240.181926,78.3709935 246.039289,81.2547097 C243.666306,75.1768774 245.468571,68.0076387 250.925431,63.8522839 C256.372278,59.6869161 263.761567,59.8371097 268.99815,63.732129 C267.766602,57.3138581 270.860491,50.6052129 276.978181,47.5112258 C283.105884,44.4172387 290.344984,45.9191742 294.78056,50.7153548 C294.750522,44.176929 299.025897,38.1491613 305.614179,36.2366968 C312.202461,34.3242323 319.041057,37.1278452 322.515425,42.6649806 C323.69691,36.2366968 329.003581,31.1000774 335.832165,30.4292129 C342.680774,29.7683613 348.908603,33.8035613 351.291598,39.9214452 C353.73467,33.7034323 360.132712,29.6782452 367.071435,30.519329 C374.090258,31.3604129 379.386916,36.9275871 380.177911,43.6562581 C384.20297,38.1892129 391.582247,35.9863742 398.110453,38.7399226 C404.618634,41.4834581 408.183115,48.2922323 407.101756,54.9808516 C412.438464,50.8555355 420.098093,50.7353806 425.615028,55.1310452 C431.091913,59.4866581 432.713952,66.8962065 429.980516,73.0140903 C436.098206,70.4007226 443.437432,72.112929 447.712807,77.6200258 C451.958143,83.0770581 451.837992,90.536671 447.893033,95.813471 C454.341139,94.6019097 461.059585,97.7259355 464.123436,103.883871 C467.167262,110.001755 465.655362,117.201032 460.879358,121.60671 C467.357502,121.566658 473.355041,125.752052 475.338534,132.270452 C477.3,138.7488 474.676702,145.527535 469.330982,149.112155 C475.677961,150.053368 480.944581,155.039794 481.965865,161.7184 C482.967124,168.366968 479.442694,174.665084 473.705481,177.468697 C479.823172,179.250994 484.358874,184.847205 484.509062,191.565863 C484.649239,198.065239 480.644204,203.69249 474.917004,205.905342 C480.554091,208.068129 484.569138,213.535174 484.569138,219.943432 C484.569138,226.331665 480.574116,231.788697 474.947042,233.961497 C480.574116,236.123283 484.569138,241.591329 484.569138,247.979561 C484.569138,254.377806 480.574116,259.834839 474.93703,262.007639 C480.574116,264.170426 484.569138,269.627458 484.569138,276.025703 C484.569138,282.423948 480.574116,287.880981 474.93703,290.043768 C480.574116,292.216568 484.569138,297.6736 484.569138,304.071845 C484.569138,310.460077 480.574116,315.927123 474.947042,318.08991 C480.574116,320.26271 484.569138,325.719742 484.569138,332.117987 L484.569138,332.488465 C484.569138,339.19711 480.1636,344.884439 474.08596,346.805915 C479.883247,349.480361 483.547854,355.688361 482.696784,362.356955 C481.845714,369.044573 476.709257,374.152155 470.391315,375.253574 C475.818137,378.698013 478.621661,385.395644 476.829408,391.915045 C475.027143,398.473497 469.159767,402.809084 462.691636,402.958276 C467.587791,407.224774 469.319969,414.35296 466.476394,420.551948 C463.612794,426.789987 457.0145,430.123283 450.546369,429.133006 C454.671554,434.259613 455.052033,441.689187 451.036986,447.296413 C446.981888,452.933677 439.732775,454.936258 433.524972,452.593239 C436.508722,458.560929 435.217099,466.020542 429.950478,470.606452 C424.65382,475.232413 417.024229,475.46271 411.497281,471.617755 C412.909056,478.236284 409.685003,485.19425 403.327011,488.2592 C396.948993,491.333161 389.479604,489.5008 385.184204,484.244026 C384.723625,491.002735 379.697306,496.829244 372.718534,498.011768 C365.799836,499.19329 359.171504,495.428439 356.458093,489.290529 C354.405513,495.218168 348.768427,499.393548 342.280271,499.393548 C341.949855,499.393548 341.61944,499.383535 341.289025,499.36351 L341.289025,499.36351 Z M343.241479,469.384877 C349.008729,469.765368 353.804758,473.349987 355.997514,478.296361 C357.739704,473.28991 362.075154,469.354839 367.67219,468.403613 C373.189125,467.461399 378.505809,469.655226 381.819975,473.690426 C382.180428,468.493729 385.254292,463.627458 390.28061,461.203334 C395.336967,458.761187 401.084191,459.411025 405.389604,462.395871 C404.298232,457.249239 405.960321,451.682065 410.21567,447.967277 C414.521082,444.212439 420.378446,443.351329 425.384739,445.233755 C422.991731,440.417548 423.272083,434.45887 426.6263,429.773832 C430.040592,425.027716 435.697703,422.863928 441.1045,423.685987 C437.670183,419.390452 436.718987,413.362684 439.17207,408.025806 C441.645179,402.62785 446.9118,399.394684 452.478798,399.264516 C448.263499,395.589781 446.281007,389.712206 447.862996,383.9648 C449.444984,378.176341 454.210975,374.112103 459.757948,373.140852 C454.991957,370.116955 452.13837,364.519742 452.899327,358.562065 L452.899327,358.552052 C453.670296,352.563334 457.86557,347.847257 463.262354,346.13505 C458.105872,343.752981 454.531378,338.536258 454.531378,332.488465 L454.531378,332.117987 C454.531378,325.719742 458.5264,320.26271 464.153474,318.08991 C458.5264,315.927123 454.531378,310.460077 454.531378,304.071845 C454.531378,297.6736 458.5264,292.216568 464.153474,290.043768 C458.5264,287.880981 454.531378,282.423948 454.531378,276.025703 C454.531378,269.627458 458.5264,264.170426 464.153474,262.007639 C458.5264,259.834839 454.531378,254.377806 454.531378,247.979561 C454.531378,241.591329 458.5264,236.123283 464.153474,233.961497 C458.5264,231.788697 454.531378,226.331665 454.531378,219.943432 C454.531378,213.5552 458.516388,208.098168 464.123436,205.925368 C458.596488,203.812645 454.611479,198.505806 454.481315,192.217703 C454.351152,186.16991 457.805494,180.882095 462.901901,178.389884 C457.475079,176.807845 453.169666,172.191897 452.268534,166.224206 C451.357388,160.286555 454.070799,154.629265 458.746677,151.495226 C453.189692,150.654142 448.333587,146.729084 446.592398,141.001703 C444.869232,135.304361 446.68151,129.386735 450.766646,125.601858 C445.219673,125.631897 439.872952,122.567948 437.229629,117.271123 C434.626356,112.024361 435.367288,105.996594 438.641403,101.600929 C433.285671,102.602219 427.567483,100.649703 423.992989,96.0537806 C420.478571,91.5179355 419.957917,85.6003097 422.140661,80.704 C417.234493,82.7866839 411.37713,82.1859097 406.911517,78.631329 C402.505979,75.1368258 400.593575,69.6597677 401.434632,64.4730839 C397.289421,67.6672 391.592259,68.5883871 386.425765,66.4155871 C381.279295,64.2427871 377.975142,59.5267097 377.354361,54.3500387 C374.240447,58.5554581 369.023889,61.0086194 363.456891,60.3377548 C357.779755,59.6468645 353.224028,55.872 351.271573,50.8855742 C349.269056,55.9621161 344.56314,59.7670194 338.75584,60.3277419 C332.90849,60.8984774 327.511705,58.0347871 324.578018,53.3787871 C323.576759,58.7857548 319.6318,63.4517677 313.984701,65.083871 C308.347615,66.7259871 302.520289,64.9036387 298.775582,60.8584258 C298.795607,66.3655226 295.771806,71.6723613 290.525211,74.3257806 C285.278615,76.9792 279.210988,76.258271 274.785425,72.9740387 C275.816721,78.3810065 273.824216,84.1584516 269.148339,87.7330581 C264.472461,91.2976516 258.364783,91.6981677 253.418565,89.2750452 C255.421082,94.4116645 254.509937,100.459458 250.554965,104.825084 C246.610006,109.180697 240.682555,110.692645 235.375884,109.210735 C238.279534,113.896774 238.489799,120.004645 235.395909,125.011097 C232.312033,130.017548 226.76506,132.580852 221.278162,132.100232 C224.992832,136.165471 226.314493,142.133161 224.201838,147.620232 C222.089182,153.107303 217.112926,156.641858 211.636042,157.182555 C216.031567,160.496826 218.434588,166.114065 217.373254,171.89151 C216.311919,177.678968 212.066583,182.074632 206.779937,183.606606 C211.716142,186.069781 215.110409,191.166348 215.110409,197.053935 C215.110409,203.451179 211.115387,208.909213 205.478301,211.082013 C211.115387,213.2448 215.110409,218.701832 215.110409,225.100077 C215.110409,231.498323 211.105374,236.954354 205.478301,239.118142 C211.105374,241.289941 215.110409,246.747974 215.110409,253.145218 C215.110409,259.534452 211.105374,265.001497 205.478301,267.163283 C211.105374,269.337084 215.110409,274.793115 215.110409,281.192361 C215.110409,287.580594 211.115387,293.047639 205.478301,295.210426 C211.115387,297.373213 215.110409,302.840258 215.110409,309.22849 C215.110409,315.60671 211.1254,321.062741 205.518351,323.235541 C211.00625,325.339252 214.980245,330.565987 215.170485,336.814039 C215.350711,342.691613 212.136671,347.88831 207.290579,350.501677 C212.617275,351.863432 217.002788,356.118916 218.254361,361.85631 C219.505935,367.603716 217.293153,373.291045 213.017778,376.75551 C218.504676,377.105961 223.59107,380.48031 225.883952,385.887277 L225.883952,385.896289 C228.176834,391.304258 227.045412,397.301987 223.480931,401.497394 C228.947804,400.835541 234.564865,403.208599 237.808943,408.115923 C241.063033,413.022245 241.053021,419.140129 238.309572,423.90527 C243.556167,422.254142 249.533682,423.575845 253.618817,427.80129 C257.713965,432.035747 258.815349,438.054503 256.983046,443.2512 C261.849163,440.667871 267.966853,440.868129 272.75287,444.282529 C277.548899,447.696929 279.731643,453.414297 278.87056,458.851303 C283.185985,455.42689 289.233587,454.505703 294.560283,456.97889 C299.896992,459.46209 303.091007,464.667799 303.251208,470.165884 C306.855739,466.010529 312.622989,463.996934 318.320151,465.439794 C324.017313,466.891665 328.112461,471.417497 329.293946,476.794426 C331.917244,472.318658 336.773348,469.354839 342.250233,469.354839 C342.570636,469.354839 342.901051,469.364852 343.241479,469.384877 L343.241479,469.384877 Z" id="Fill-86" fill="#A9D163" sketch:type="MSShapeGroup"></path>
                <path d="M435.870921,332.485461 C435.870921,416.551794 382.542884,484.699613 352.295861,484.699613 C268.233188,484.699613 200.086523,416.551794 200.086523,332.485461 L200.086523,196.868697 C200.086523,112.810374 268.222174,44.6545445 352.27884,44.6545445 L352.295861,44.6545445 C395.1247,44.6545445 435.870921,112.803365 435.870921,196.868697 L435.870921,332.485461" id="Fill-87" fill="#D0D766" sketch:type="MSShapeGroup"></path>
                <path d="M339.687011,499.252366 C332.848414,498.74271 327.41158,493.716232 326.099931,487.307974 C322.755727,492.935226 315.977206,495.909058 309.338861,494.146787 L309.328848,494.146787 C302.690503,492.384516 298.26494,486.426839 298.164814,479.8784 C293.839377,484.804748 286.620302,486.476903 280.412498,483.522095 C274.214707,480.56929 270.970629,473.91071 272.072014,467.452387 C266.915532,471.487587 259.51623,471.808 253.959245,467.762787 C248.412272,463.727587 246.439792,456.588387 248.702637,450.439463 C242.905349,453.474374 235.577137,452.433032 230.850195,447.456619 C226.124254,442.469192 225.493461,435.090684 228.827653,429.463432 C222.579799,431.38591 215.560975,429.022865 211.826281,423.265445 C208.091586,417.498013 208.812492,410.128516 213.127917,405.211179 C206.619736,405.943123 200.161617,402.337476 197.548332,395.989295 C194.935047,389.632103 197.007653,382.512929 202.154122,378.467716 C195.625916,377.99711 189.928754,373.261006 188.537004,366.532335 C187.145255,359.813677 190.489459,353.205161 196.286746,350.180263 C189.958792,348.50911 185.242863,342.821781 185.102687,335.952929 C184.972524,329.454555 188.987571,323.827303 194.734795,321.624465 C189.087697,319.47169 185.062637,313.994632 185.062637,307.585373 C185.062637,301.178116 189.077684,295.711071 194.724783,293.548284 C189.077684,291.39551 185.062637,285.928465 185.062637,279.520206 C185.062637,273.111948 189.077684,267.644903 194.724783,265.482116 C189.077684,263.329342 185.062637,257.862297 185.062637,251.454039 C185.062637,245.044779 189.077684,239.578735 194.724783,237.414947 C189.077684,235.263174 185.062637,229.796129 185.062637,223.387871 C185.062637,216.979613 189.077684,211.512568 194.724783,209.349781 C189.027621,207.176981 185.012574,201.629832 185.072649,195.17151 C185.142738,188.31167 189.79859,182.575277 196.10652,180.833032 C190.279194,177.869213 186.864902,171.300748 188.186564,164.562065 C189.508225,157.823381 195.155324,153.017187 201.683531,152.47649 C196.486998,148.491355 194.344305,141.392206 196.887502,135.003974 C199.430699,128.625755 205.858779,124.951019 212.376973,125.621884 C208.002474,120.7456 207.200466,113.386116 210.875085,107.578632 C214.550705,101.771148 221.53849,99.3380129 227.816381,101.1904 C224.422115,95.6032 224.972807,88.2236903 229.648685,83.1872 C234.31455,78.1507097 241.633751,77.0392774 247.461076,80.0030968 C245.138156,73.8852129 247.030535,66.7259871 252.54747,62.6307097 C258.054393,58.5254194 265.443682,58.765729 270.640214,62.7508645 C269.478754,56.3125677 272.652744,49.6239484 278.820497,46.6000516 C284.98825,43.5761548 292.227351,45.1682065 296.602851,50.0444903 C296.642901,43.4960516 300.988364,37.4983226 307.616696,35.6659613 C314.235016,33.8436129 321.053587,36.7373419 324.447854,42.3345548 C325.699427,35.906271 331.076186,30.829729 337.924795,30.2389677 C345.003694,29.6381935 351.361687,34.0538839 353.475344,40.5322323 C356.818546,33.8336 364.72849,30.5393548 371.957577,33.1226839 C379.056501,35.6659613 383.061536,42.9954065 381.639748,50.1646452 C387.437036,46.1694968 395.437093,46.6901677 400.663663,51.7967484 L400.663663,51.8067613 C405.720019,56.7431226 406.541051,64.3829677 403.086709,70.2004645 C409.454714,68.2779871 416.573663,70.8012387 420.218244,76.7388903 C423.80275,82.5864258 422.901617,89.915871 418.496079,94.7320774 C424.944185,94.1212903 431.302177,97.776 433.845374,104.104155 C436.358534,110.372232 434.335991,117.351226 429.339711,121.386426 C435.737753,121.726865 441.434915,126.172594 443.086992,132.701006 L443.086992,132.711019 C444.729056,139.219406 441.845431,145.807897 436.428622,149.162219 C442.686488,150.293677 447.782895,155.360206 448.643977,162.008774 C449.515072,168.647329 445.900529,174.835303 440.153304,177.538787 C446.230944,179.371148 450.70657,184.948335 450.836734,191.636955 C450.966897,198.135329 446.941838,203.741554 441.214638,205.945394 C446.87175,208.098168 450.886797,213.575226 450.886797,219.993497 C450.886797,226.391742 446.881762,231.858787 441.234663,234.021574 C446.881762,236.184361 450.886797,241.651406 450.886797,248.059665 C450.886797,254.45791 446.881762,259.924955 441.234663,262.087742 C446.881762,264.250529 450.886797,269.717574 450.886797,276.125832 C450.886797,282.524077 446.881762,287.991123 441.234663,290.15391 C446.881762,292.316697 450.886797,297.782741 450.886797,304.181987 C450.886797,310.589244 446.881762,316.056289 441.234663,318.220077 C446.881762,320.382865 450.886797,325.84991 450.886797,332.247154 L450.886797,332.488465 C450.886797,339.247174 446.421183,344.964542 440.273455,346.845966 C446.10078,349.559463 449.725337,355.838555 448.794166,362.536186 C447.852983,369.225806 442.656451,374.262297 436.318483,375.283613 C441.705255,378.768103 444.458716,385.466735 442.636425,391.96511 C440.814135,398.463484 434.986809,402.759019 428.578754,402.929239 C433.454884,407.093605 435.297199,414.102637 432.623839,420.311639 L432.623839,420.301626 C429.940466,426.519639 423.562448,430.004129 417.164405,429.293213 C421.459805,434.109419 422.29085,441.358761 418.746394,447.136206 C415.161888,452.963716 408.243191,455.496981 401.965299,453.764748 C405.500743,459.301884 405.089226,466.741471 400.483436,471.87809 C395.757495,477.15489 388.137917,478.296361 382.160403,475.072206 C384.43326,481.769837 381.699824,489.350606 375.311794,492.95425 C368.363059,496.870297 359.632083,494.667458 355.346696,488.067954 C353.644556,494.607381 347.707093,499.292418 340.828446,499.292418 C340.447967,499.292418 340.067489,499.273394 339.687011,499.252366 L339.687011,499.252366 Z M317.028527,465.109368 C322.725689,466.621316 326.780787,471.197213 327.892184,476.594168 C330.715733,471.858065 336.052442,468.854194 341.92983,469.29376 C346.785935,469.655226 350.931145,472.288619 353.404254,476.08351 C354.3955,472.278606 356.858597,468.874219 360.553241,466.790534 C365.209094,464.158142 370.675966,464.28831 375.071492,466.651355 C373.39939,461.694968 374.37061,456.007639 378.115318,451.822245 L378.115318,451.832258 C382.040252,447.446606 387.967703,445.904619 393.284386,447.366503 C390.290623,442.670452 390.030296,436.49249 393.14421,431.425961 C396.288162,426.299355 402.005349,423.726039 407.602385,424.346839 C403.847665,420.121394 402.646155,413.953445 405.02915,408.41631 C407.422159,402.869161 412.758867,399.494813 418.425991,399.344619 C414.110566,395.65887 412.078011,389.682168 413.710063,383.864671 C415.342115,378.047174 420.178194,373.991948 425.776231,373.080774 C421.019251,370.006813 418.205714,364.359535 419.036759,358.381832 C419.877816,352.414142 424.103128,347.758142 429.509924,346.094999 C424.393493,343.702916 420.849037,338.505218 420.849037,332.488465 L420.849037,332.247154 C420.849037,325.84991 424.864084,320.382865 430.511183,318.220077 C424.864084,316.056289 420.849037,310.589244 420.849037,304.181987 C420.849037,297.782741 424.864084,292.316697 430.511183,290.15391 C424.864084,287.991123 420.849037,282.524077 420.849037,276.125832 C420.849037,269.717574 424.864084,264.250529 430.501171,262.087742 C424.864084,259.924955 420.849037,254.45791 420.849037,248.059665 C420.849037,241.651406 424.864084,236.184361 430.511183,234.021574 C424.864084,231.858787 420.849037,226.391742 420.849037,219.993497 C420.849037,213.59425 424.854072,208.127205 430.481145,205.965419 C424.92416,203.852697 420.929138,198.525832 420.808987,192.20769 C420.688836,186.098818 424.233291,180.782968 429.429824,178.329806 C423.942926,176.677677 419.647527,171.941574 418.856532,165.883768 C418.075551,159.845987 420.999226,154.178684 425.85533,151.1648 C420.238269,150.153497 415.452253,145.95809 413.97039,140.06049 C412.478515,134.192929 414.671271,128.26529 419.096834,124.690684 C413.439723,124.380284 408.213153,120.885781 405.960321,115.288568 C403.747539,109.751432 405.049176,103.6736 408.823921,99.5482839 C403.296973,100.058942 397.699937,97.4856258 394.606048,92.4491355 L394.606048,92.4391226 C391.592259,87.5328 391.742448,81.5651097 394.495909,76.9291355 C389.429541,78.4410839 383.712354,77.2395355 379.667269,73.2744258 C375.902536,69.5996903 374.480749,64.4330323 375.421932,59.6368516 C371.587111,62.2802581 366.570806,63.1013161 361.844865,61.4091355 C357.29915,59.7870452 354.025035,56.1924129 352.623272,51.936929 C350.360428,56.4527484 345.874789,59.7169548 340.467992,60.1775484 C334.600617,60.6781935 329.23387,57.7243871 326.370271,53.0183226 C325.308936,58.4353032 321.293889,63.0512516 315.626765,64.6232774 C309.949629,66.1953032 304.132316,64.2828387 300.447684,60.1875613 C300.407634,65.704671 297.323757,70.981471 292.037111,73.5748129 C286.740453,76.1681548 280.672826,75.3671226 276.297325,72.0128 C277.268546,77.4397935 275.205953,83.2072258 270.480013,86.7217548 C265.744059,90.2462968 259.626369,90.5667097 254.700176,88.0734968 C256.652631,93.2301419 255.68141,99.2879484 251.676375,103.60351 C247.661328,107.929084 241.703839,109.360929 236.407181,107.808929 C239.27078,112.525006 239.410957,118.652903 236.256992,123.629316 C233.11304,128.615742 227.516004,131.108955 222.029106,130.548232 C225.703726,134.663535 226.965312,140.651252 224.79258,146.12831 C222.609836,151.595355 217.573505,155.079845 212.076595,155.540439 C216.452096,158.904774 218.795041,164.562065 217.663619,170.33951 C216.532196,176.116955 212.226784,180.472568 206.910101,181.934452 C211.826281,184.44769 215.170485,189.58431 215.110409,195.471897 C215.050334,201.820077 211.045299,207.217032 205.458276,209.359794 C211.095362,211.512568 215.100396,216.979613 215.100396,223.387871 C215.100396,229.796129 211.095362,235.263174 205.448263,237.414947 C211.095362,239.578735 215.100396,245.044779 215.100396,251.454039 C215.100396,257.862297 211.095362,263.329342 205.448263,265.482116 C211.095362,267.644903 215.100396,273.111948 215.100396,279.520206 C215.100396,285.928465 211.095362,291.39551 205.448263,293.548284 C211.095362,295.711071 215.100396,301.178116 215.100396,307.585373 C215.100396,313.984619 211.105374,319.441652 205.468288,321.614452 C211.015261,323.727174 215.010283,329.044026 215.130434,335.342142 C215.250585,341.239742 211.966457,346.4064 207.080315,348.95969 C212.407011,350.37151 216.762486,354.677058 217.953984,360.44449 C219.145481,366.211923 216.862612,371.889239 212.527162,375.293626 C218.034084,375.704155 223.100453,379.128568 225.33326,384.575587 C227.576079,390.022606 226.374569,396.020335 222.750013,400.17569 C228.226897,399.55489 233.843958,401.997037 237.037974,406.9344 C240.242001,411.880774 240.171913,418.008671 237.358376,422.7648 C242.635009,421.151721 248.612524,422.514477 252.657609,426.8 C256.712706,431.07551 257.754015,437.123303 255.861636,442.299974 C260.757791,439.755695 266.875481,440.006018 271.641473,443.481497 C276.407464,446.945961 278.530132,452.692366 277.608974,458.140387 C281.954437,454.734999 288.022064,453.87489 293.338748,456.407154 C298.656432,458.941419 301.799383,464.198194 301.899509,469.70529 C304.713046,466.511174 308.818206,464.59871 313.173682,464.59871 C314.44528,464.59871 315.746916,464.768929 317.028527,465.109368 L317.028527,465.109368 Z" id="Fill-88" fill="#D0D766" sketch:type="MSShapeGroup"></path>
                <path d="M200.086523,635.391804 C200.086523,600.816248 172.057288,572.784124 137.480823,572.784124 C133.672035,572.784124 129.948354,573.143587 126.326802,573.795427 C126.349831,573.307799 126.36485,572.819169 126.36485,572.324532 C126.36485,555.048268 112.358242,541.042219 95.0825255,541.042219 C90.4827432,541.042219 86.1212605,542.04351 82.1893178,543.822803 C82.5547772,541.920351 82.7540277,539.960826 82.7540277,537.952237 C82.7540277,520.906271 68.9366583,507.090467 51.8922322,507.090467 C35.9722196,507.090467 22.8727527,519.145001 21.2116646,534.621946 L21.0304368,534.621946 L21.0304368,698.000485 L137.480823,698.000485 C172.057288,698.000485 200.086523,669.969363 200.086523,635.391804" id="Fill-89" fill="#3B9F86" sketch:type="MSShapeGroup"></path>
                <path d="M135.179931,681.805615 C134.084554,681.805615 133.026223,681.955809 132.009946,682.210137 C133.904327,677.495061 134.957651,672.34943 134.957651,666.958483 C134.957651,644.347345 116.62861,626.018725 94.0211913,626.018725 C92.8837615,626.018725 91.7603493,626.077801 90.6459484,626.166916 C87.9055035,615.552237 78.2663864,607.712134 66.7969685,607.712134 C64.882562,607.712134 63.0242259,607.938426 61.2369792,608.350957 C62.3143335,605.157843 62.9080799,601.743443 62.9080799,598.185858 C62.9080799,580.644253 48.6882045,566.423928 31.1461529,566.423928 C27.6067036,566.423928 24.2084317,567.010684 21.0304368,568.081063 L21.0304368,707.895236 L135.179931,707.895236 C142.383987,707.895236 148.224329,702.055711 148.224329,694.849425 C148.224329,687.645141 142.383987,681.805615 135.179931,681.805615 L135.179931,681.805615 Z M55.1293014,654.17601 L55.1293014,654.040836 L55.1673493,654.060862 L55.1293014,654.17601 L55.1293014,654.17601 Z" id="Fill-90" fill="#3BB67D" sketch:type="MSShapeGroup"></path>
                <path d="M74.4766224,710.112093 C74.4766224,723.797729 85.5705683,734.892026 99.2567728,734.892026 C112.941976,734.892026 124.036923,723.797729 124.036923,710.112093 C124.036923,696.425455 112.941976,685.331159 99.2567728,685.331159 C85.5705683,685.331159 74.4766224,696.425455 74.4766224,710.112093" id="Fill-91" fill="#4FC1B3" sketch:type="MSShapeGroup"></path>
                <path d="M0.888116425,731.62081 C0.888116425,756.014245 20.6619736,775.788728 45.0546369,775.788728 C69.4473002,775.788728 89.2211573,756.014245 89.2211573,731.62081 C89.2211573,707.227375 69.4473002,687.451892 45.0546369,687.451892 C20.6619736,687.451892 0.888116425,707.227375 0.888116425,731.62081" id="Fill-92" fill="#4FC1B3" sketch:type="MSShapeGroup"></path>
                <path d="M48.3157363,683.596924 C48.3157363,669.81216 59.4897829,658.63776 73.2741108,658.63776 C87.0584386,658.63776 98.2324852,669.81216 98.2324852,683.596924 C98.2324852,697.381688 87.0584386,708.557089 73.2741108,708.557089 C59.4897829,708.557089 48.3157363,697.381688 48.3157363,683.596924" id="Fill-93" fill="#4FC1B3" sketch:type="MSShapeGroup"></path>
                <path d="M1380.26509,559.792382 C1380.26509,544.862142 1368.16288,532.758545 1353.23211,532.758545 C1338.30234,532.758545 1326.20013,544.862142 1326.20013,559.792382 L1326.20013,753.719288 L1380.26509,753.719288 L1380.26509,559.792382" id="Fill-94" fill="#FFFFFF" sketch:type="MSShapeGroup"></path>
                <path d="M638.849079,54.2208723 C638.849079,62.9371045 631.782195,70.0052129 623.066239,70.0052129 L583.275218,70.0052129 C574.559262,70.0052129 567.491377,62.9371045 567.491377,54.2208723 C567.491377,45.50464 574.559262,38.4385342 583.275218,38.4385342 L623.066239,38.4385342 C631.782195,38.4385342 638.849079,45.50464 638.849079,54.2208723" id="Fill-95" fill="#D7F4FF" sketch:type="MSShapeGroup"></path>
                <path d="M730.462243,88.0634839 C730.462243,100.090983 720.711986,109.839546 708.684867,109.839546 L559.070792,109.839546 C547.044674,109.839546 537.295419,100.090983 537.295419,88.0634839 C537.295419,76.0369858 547.044674,66.2874219 559.070792,66.2874219 L708.684867,66.2874219 C720.711986,66.2874219 730.462243,76.0369858 730.462243,88.0634839" id="Fill-96" fill="#D7F4FF" sketch:type="MSShapeGroup"></path>
                <path d="M624.398914,88.0634839 C624.398914,100.090983 614.65066,109.839546 602.624542,109.839546 L559.070792,109.839546 C547.044674,109.839546 537.295419,100.090983 537.295419,88.0634839 C537.295419,76.0369858 547.044674,66.2874219 559.070792,66.2874219 L602.624542,66.2874219 C614.65066,66.2874219 624.398914,76.0369858 624.398914,88.0634839" id="Fill-97" fill="#FFFFFF" sketch:type="MSShapeGroup"></path>
                <path d="M599.05906,54.2208723 C599.05906,62.9391071 591.993177,70.0052129 583.275218,70.0052129 C574.559262,70.0052129 567.491377,62.9391071 567.491377,54.2208723 C567.491377,45.5036387 574.559262,38.4385342 583.275218,38.4385342 C591.993177,38.4385342 599.05906,45.5036387 599.05906,54.2208723" id="Fill-98" fill="#FFFFFF" sketch:type="MSShapeGroup"></path>
                <path d="M768.573151,124.607577 C768.573151,133.318803 761.513276,140.377899 752.803327,140.377899 L673.208271,140.377899 C664.500324,140.377899 657.438447,133.318803 657.438447,124.607577 C657.438447,115.899355 664.500324,108.837254 673.208271,108.837254 L752.803327,108.837254 C761.513276,108.837254 768.573151,115.899355 768.573151,124.607577" id="Fill-99" fill="#D7F4FF" sketch:type="MSShapeGroup"></path>
                <path d="M657.438447,124.607577 C657.438447,115.899355 664.500324,108.837254 673.208271,108.837254 L684.65466,108.837254 C693.362606,108.837254 700.424483,115.899355 700.424483,124.607577 C700.424483,133.318803 693.362606,140.377899 684.65466,140.377899 L673.208271,140.377899 C664.500324,140.377899 657.438447,133.318803 657.438447,124.607577" id="Fill-100" fill="#FFFFFF" sketch:type="MSShapeGroup"></path>
                <path d="M600.160444,157.901481 C600.160444,150.553012 594.202955,144.595334 586.854718,144.595334 C579.504478,144.595334 573.545988,150.553012 573.545988,157.901481 C573.545988,165.250952 579.504478,171.209631 586.854718,171.209631 C594.202955,171.209631 600.160444,165.250952 600.160444,157.901481" id="Fill-101" fill="#FFFFFF" sketch:type="MSShapeGroup"></path>
            </g>
        </g>
    </g>
</svg>