<?xml version="1.0" encoding="UTF-8" standalone="no"?>
<svg width="1440px" height="752px" viewBox="0 0 1440 752" version="1.1" xmlns="http://www.w3.org/2000/svg" xmlns:xlink="http://www.w3.org/1999/xlink" xmlns:sketch="http://www.bohemiancoding.com/sketch/ns">
    <!-- Generator: Sketch 3.3.2 (12043) - http://www.bohemiancoding.com/sketch -->
    <title>creekside-piano</title>
    <desc>Created with Sketch.</desc>
    <defs></defs>
    <g id="Page-1" stroke="none" stroke-width="1" fill="none" fill-rule="evenodd" sketch:type="MSPage">
        <g id="creekside-piano" sketch:type="MSArtboardGroup">
            <path d="M888.436483,706.951308 L548.311923,706.951308 C541.583464,706.951308 536.129609,712.405337 536.129609,719.135009 C536.129609,725.86368 541.583464,731.317708 548.311923,731.317708 L888.436483,731.317708 C895.164941,731.317708 900.618797,725.86368 900.618797,719.135009 C900.618797,712.405337 895.164941,706.951308 888.436483,706.951308" id="Fill-102" fill="#888888" sketch:type="MSShapeGroup"></path>
            <path d="M955.657986,653.052852 L485.41786,653.052852 C478.689402,653.052852 473.234545,658.50688 473.234545,665.235551 C473.234545,671.963221 478.689402,677.417249 485.41786,677.417249 L955.657986,677.417249 C962.387445,677.417249 967.841301,671.963221 967.841301,665.235551 C967.841301,658.50688 962.387445,653.052852 955.657986,653.052852" id="Fill-103" fill="#888888" sketch:type="MSShapeGroup"></path>
            <path d="M934.542442,488.479773 C934.542442,480.089961 927.741893,473.288196 919.352347,473.288196 L519.240378,473.288196 C510.850831,473.288196 504.050283,480.089961 504.050283,488.479773 L504.050283,548.956707 L934.542442,548.956707 L934.542442,488.479773" id="Fill-104" fill="#FFFFFF" sketch:type="MSShapeGroup"></path>
            <path d="M623.165018,506.090467 C653.201777,500.219902 713.026981,459.318194 731.295947,485.201548 C743.96287,503.149677 719.337914,518.395324 708.768628,506.090467 C708.768628,506.090467 721.795003,507.728578 720.538424,498.717966 C719.281844,489.707355 699.963559,491.719948 701.910006,506.153548 C703.856453,520.587148 720.538424,521.245997 720.538424,521.245997 L630.674458,521.245997 L623.165018,506.090467" id="Fill-105" fill="#86A0AE" sketch:type="MSShapeGroup"></path>
            <path d="M504.050283,582.984557 L934.542442,582.984557 L934.542442,664.829027 L504.050283,664.829027 L504.050283,582.984557 Z" id="Fill-106" fill="#366178" sketch:type="MSShapeGroup"></path>
            <path d="M794.30215,632.275076 C794.30215,647.265394 760.720936,659.417053 719.295862,659.417053 C677.871789,659.417053 644.290575,647.265394 644.290575,632.275076 C644.290575,617.28576 677.871789,605.134101 719.295862,605.134101 C760.720936,605.134101 794.30215,617.28576 794.30215,632.275076" id="Fill-107" fill="#EB672E" sketch:type="MSShapeGroup"></path>
            <path d="M504.050283,561.349677 L934.542442,561.349677 L934.542442,582.984557 L504.050283,582.984557 L504.050283,561.349677 Z" id="Fill-108" fill="#91E8FF" sketch:type="MSShapeGroup"></path>
            <path d="M489.45093,549.802797 L512.875376,549.802797 L512.875376,664.830028 L489.45093,664.830028 L489.45093,549.802797 Z" id="Fill-109" fill="#91E8FF" sketch:type="MSShapeGroup"></path>
            <path d="M925.718349,549.802797 L949.140793,549.802797 L949.140793,664.830028 L925.718349,664.830028 L925.718349,549.802797 Z" id="Fill-110" fill="#91E8FF" sketch:type="MSShapeGroup"></path>
            <path d="M955.081261,532.890003 C955.081261,530.755252 953.351086,529.026023 951.216402,529.026023 L487.375321,529.026023 C485.241639,529.026023 483.511464,530.755252 483.511464,532.890003 L483.511464,557.485698 C483.511464,559.620449 485.241639,561.349677 487.375321,561.349677 L950.823909,561.349677 C953.175865,561.349677 955.081261,559.444222 955.081261,557.092191 L955.081261,532.890003" id="Fill-111" fill="#91E8FF" sketch:type="MSShapeGroup"></path>
            <path d="M916.544817,551.335773 L520.537008,551.335773 L520.537008,546.908067 C520.537008,544.773316 522.267183,543.044088 524.400865,543.044088 L912.679959,543.044088 C914.813641,543.044088 916.544817,544.773316 916.544817,546.908067 L916.544817,551.335773" id="Fill-112" fill="#000000" sketch:type="MSShapeGroup"></path>
            <path d="M931.053055,555.257827 C931.053055,553.093037 929.32288,551.336774 927.189198,551.336774 L509.891626,551.336774 C507.758945,551.336774 506.027768,553.093037 506.027768,555.257827 L506.027768,561.349677 L931.053055,561.349677 L931.053055,555.257827" id="Fill-113" fill="#FFFFFF" sketch:type="MSShapeGroup"></path>
            <path d="M552.286919,636.660728 L886.306806,636.660728 L886.306806,672.129435 L552.286919,672.129435 L552.286919,636.660728 Z" id="Fill-114" fill="#F2ECEC" sketch:type="MSShapeGroup"></path>
            <path d="M552.286919,645.096599 L572.982936,645.096599 L572.982936,718.800578 L552.286919,718.800578 L552.286919,645.096599 Z" id="Fill-115" fill="#F2ECEC" sketch:type="MSShapeGroup"></path>
            <path d="M865.609789,645.096599 L886.305805,645.096599 L886.305805,718.800578 L865.609789,718.800578 L865.609789,645.096599 Z" id="Fill-116" fill="#F2ECEC" sketch:type="MSShapeGroup"></path>
            <path d="M893.815245,626.028026 C893.815245,623.893275 892.08507,622.163045 889.951388,622.163045 L548.641337,622.163045 C546.507654,622.163045 544.77748,623.893275 544.77748,626.028026 L544.77748,647.29343 C544.77748,649.428181 546.507654,651.157409 548.641337,651.157409 L889.951388,651.157409 C892.08507,651.157409 893.815245,649.428181 893.815245,647.29343 L893.815245,626.028026" id="Fill-117" fill="#FFFFFF" sketch:type="MSShapeGroup"></path>
            <path d="M504.050283,507.729579 C546.572736,489.707355 598.656209,486.066663 644.190449,506.090467 C696.351018,529.026023 791.409514,515.046008 856.435256,503.223773 C897.742181,495.714095 934.542442,518.242126 934.542442,518.242126 L934.542442,529.026023 L504.050283,529.026023 L504.050283,507.729579" id="Fill-118" fill="#366178" sketch:type="MSShapeGroup"></path>
        </g>
    </g>
</svg>