<?xml version="1.0" encoding="UTF-8" standalone="no"?>
<svg width="1440px" height="752px" viewBox="0 0 1440 752" version="1.1" xmlns="http://www.w3.org/2000/svg" xmlns:xlink="http://www.w3.org/1999/xlink" xmlns:sketch="http://www.bohemiancoding.com/sketch/ns">
    <!-- Generator: Sketch 3.3.2 (12043) - http://www.bohemiancoding.com/sketch -->
    <title>creekside</title>
    <desc>Created with Sketch.</desc>
    <defs></defs>
    <g id="Page-1" stroke="none" stroke-width="1" fill="none" fill-rule="evenodd" sketch:type="MSPage">
        <g id="creekside" sketch:type="MSArtboardGroup">
            <path d="M-1.61036879,-0.251034839 L1440.2842,-0.251034839 L1440.2842,258.334194 L-1.61036879,258.334194 L-1.61036879,-0.251034839 Z" id="Fill-1" fill="#28D2FF" sketch:type="MSShapeGroup"></path>
            <path d="M548.72798,217.136103 C644.887571,193.889146 685.00242,138.674994 753.529486,167.734441 C822.056552,196.793889 875.320997,230.213956 908.329166,249.101295 C941.338543,267.99264 908.329166,298.50496 908.329166,298.50496 L536.129609,281.06849 L548.72798,217.136103" id="Fill-7" fill="#135156" sketch:type="MSShapeGroup"></path>
            <path d="M-1.61036879,251.434302 C75.1220894,219.393012 213.295784,153.30785 273.371303,131.279463 C333.446822,109.251076 362.77569,126.081765 401.53241,159.315592 C451.595343,202.244914 504.050283,164.670493 544.540181,211.382689 C573.167167,244.41025 589.282425,279.470431 719.337914,279.470431 C839.045395,279.470431 1006.29264,330.467148 1142.46381,202.244914 C1264.61737,87.222689 1322.53718,127.274302 1363.95324,163.320754 C1405.3693,199.367205 1440.2842,205.374947 1440.2842,205.374947 L1440.2842,331.537528 L-1.61036879,331.537528 L-1.61036879,251.434302" id="Fill-9" fill="#1B6C72" sketch:type="MSShapeGroup"></path>
            <path d="M-1.61036879,314.406452 L1440.2842,314.406452 L1440.2842,664.829027 L-1.61036879,664.829027 L-1.61036879,314.406452 Z" id="Fill-10" fill="#28D2FF" sketch:type="MSShapeGroup"></path>
            <path d="M-1.61036879,314.406452 L1440.2842,314.406452 L1440.2842,370.47871 L-1.61036879,370.47871 L-1.61036879,314.406452 Z" id="Fill-11" fill="#3499DF" sketch:type="MSShapeGroup"></path>
            <path d="M-1.61036879,312.487979 L1440.2842,312.487979 L1440.2842,363.056145 L-1.61036879,363.056145 L-1.61036879,312.487979 Z" id="Fill-13" fill="#91B7C5" sketch:type="MSShapeGroup"></path>
            <path d="M146.027222,150.991866 L210.146825,150.991866 L210.146825,312.487979 L146.027222,312.487979 L146.027222,150.991866 Z" id="Fill-15" fill="#6D8994" sketch:type="MSShapeGroup"></path>
            <path d="M83.8450548,258.071855 L147.964658,258.071855 L147.964658,312.487979 L83.8450548,312.487979 L83.8450548,258.071855 Z" id="Fill-16" fill="#6D8994" sketch:type="MSShapeGroup"></path>
            <path d="M-1.61036879,175.692697 L62.5092341,175.692697 L62.5092341,312.487979 L-1.61036879,312.487979 L-1.61036879,175.692697 Z" id="Fill-17" fill="#6D8994" sketch:type="MSShapeGroup"></path>
            <path d="M-1.61036879,543.045089 L1440.2842,543.045089 L1440.2842,752.720289 L-1.61036879,752.720289 L-1.61036879,543.045089 Z" id="Fill-38" fill="#C7C7C4" sketch:type="MSShapeGroup"></path>
            <path d="M1080.3237,684.105868 C1080.3237,676.988697 1086.09295,671.218261 1093.2089,671.218261 C1100.32484,671.218261 1106.09409,676.988697 1106.09409,684.105868" id="Fill-39" fill="#ECECEB" sketch:type="MSShapeGroup"></path>
            <path d="M204.083203,592.113321 C204.083203,584.99615 209.852455,579.226715 216.9684,579.226715 C224.084346,579.226715 229.853598,584.99615 229.853598,592.113321" id="Fill-40" fill="#A7A7A5" sketch:type="MSShapeGroup"></path>
            <path d="M1254.12218,705.130963 C1254.12218,698.013791 1259.89143,692.244356 1267.00737,692.244356 C1274.12332,692.244356 1279.89257,698.013791 1279.89257,705.130963" id="Fill-41" fill="#A7A7A5" sketch:type="MSShapeGroup"></path>
            <path d="M218.388185,710.923427 C218.388185,703.806255 224.157437,698.036821 231.273383,698.036821 C238.389328,698.036821 244.15858,703.806255 244.15858,710.923427" id="Fill-42" fill="#ECECEB" sketch:type="MSShapeGroup"></path>
            <g id="the-ball" sketch:type="MSLayerGroup" transform="translate(877.000000, 23.000000)">
                <path d="M559.585551,23.3339974 C559.585551,32.8732903 551.85283,40.6062555 542.31484,40.6062555 L416.163259,40.6062555 C406.623266,40.6062555 398.891547,32.8732903 398.891547,23.3339974 C398.891547,13.7957058 406.623266,6.06374194 416.163259,6.06374194 L542.31484,6.06374194 C551.85283,6.06374194 559.585551,13.7957058 559.585551,23.3339974" id="Fill-2" fill="#D7F4FF" sketch:type="MSShapeGroup"></path>
                <path d="M356.316026,55.5465084 C356.316026,64.3508542 363.453999,71.4890529 372.258067,71.4890529 L456.538013,71.4890529 C465.34208,71.4890529 472.480053,64.3508542 472.480053,55.5465084 C472.480053,46.74016 465.34208,39.6029626 456.538013,39.6029626 L372.258067,39.6029626 C363.453999,39.6029626 356.316026,46.74016 356.316026,55.5465084" id="Fill-3" fill="#D7F4FF" sketch:type="MSShapeGroup"></path>
                <path d="M404.317368,55.5465084 C404.317368,64.3508542 397.179395,71.4890529 388.375327,71.4890529 L366.766163,71.4890529 C357.962096,71.4890529 350.824123,64.3508542 350.824123,55.5465084 C350.824123,46.7421626 357.962096,39.6049652 366.766163,39.6049652 L388.375327,39.6049652 C397.179395,39.6049652 404.317368,46.7421626 404.317368,55.5465084" id="Fill-4" fill="#FFFFFF" sketch:type="MSShapeGroup"></path>
                <path d="M431.718813,23.3339974 C431.718813,32.8732903 423.987094,40.6062555 414.447101,40.6062555 C404.910113,40.6062555 397.178393,32.8732903 397.178393,23.3339974 C397.178393,13.7957058 404.910113,6.06374194 414.447101,6.06374194 C423.987094,6.06374194 431.718813,13.7957058 431.718813,23.3339974" id="Fill-5" fill="#FFFFFF" sketch:type="MSShapeGroup"></path>
                <path d="M102.719237,56.5477987 C102.719237,47.76448 95.599287,40.6443045 86.8162461,40.6443045 C78.0322039,40.6443045 70.9112524,47.76448 70.9112524,56.5477987 C70.9112524,65.33312 78.0322039,72.4522942 86.8162461,72.4522942 C95.599287,72.4522942 102.719237,65.33312 102.719237,56.5477987" id="Fill-6" fill="#D7F4FF" sketch:type="MSShapeGroup"></path>
                <path d="M114.103548,222.137187 C193.751671,202.102369 226.979441,154.518049 283.739793,179.561321 C340.499143,204.605595 384.617604,233.40671 411.958974,249.686689 C439.300344,265.965667 411.958974,292.262555 411.958974,292.262555 L103.66843,277.236191 L114.103548,222.137187" id="Fill-8" fill="#135156" sketch:type="MSShapeGroup"></path>
                <path d="M761.858823,390.862617 L761.858823,399.122261 L8.60192511,399.122261 C4.03918943,399.122261 0.341541221,395.424495 0.341541221,390.862617 C0.341541221,386.300738 4.03918943,382.601972 8.60192511,382.601972 L761.858823,382.601972 L761.858823,390.862617" id="Fill-12" fill="#3499DF" sketch:type="MSShapeGroup"></path>
                <path d="M88.3822146,158.233837 C88.3822146,245.362116 159.012001,315.992134 246.136523,315.992134 C333.262046,315.992134 403.891833,245.362116 403.891833,158.233837 C403.891833,71.1045574 333.262046,0.473538065 246.136523,0.473538065 C159.012001,0.473538065 88.3822146,71.1045574 88.3822146,158.233837" id="Fill-18" fill="#FFFFFF" sketch:type="MSShapeGroup"></path>
                <path d="M130.864618,203.433084 L154.43725,153.139272 L178.009883,203.433084 L130.864618,203.433084" id="Fill-19" fill="#BDE2F0" sketch:type="MSShapeGroup"></path>
                <path d="M178.009883,203.433084 L201.582515,153.139272 L225.155148,203.433084 L178.009883,203.433084" id="Fill-20" fill="#BDE2F0" sketch:type="MSShapeGroup"></path>
                <path d="M225.155148,203.433084 L248.72778,153.139272 L272.301414,203.433084 L225.155148,203.433084" id="Fill-21" fill="#BDE2F0" sketch:type="MSShapeGroup"></path>
                <path d="M272.301414,203.433084 L295.874047,153.139272 L319.446679,203.433084 L272.301414,203.433084" id="Fill-22" fill="#BDE2F0" sketch:type="MSShapeGroup"></path>
                <path d="M154.43725,153.139272 L178.009883,102.846462 L201.582515,153.139272 L154.43725,153.139272" id="Fill-23" fill="#BDE2F0" sketch:type="MSShapeGroup"></path>
                <path d="M201.582515,153.139272 L225.156149,102.846462 L248.72778,153.139272 L201.582515,153.139272" id="Fill-24" fill="#BDE2F0" sketch:type="MSShapeGroup"></path>
                <path d="M248.72778,153.139272 L272.301414,102.846462 L295.874047,153.139272 L248.72778,153.139272" id="Fill-25" fill="#BDE2F0" sketch:type="MSShapeGroup"></path>
                <path d="M295.874047,153.139272 L319.446679,102.846462 L343.019312,153.139272 L295.874047,153.139272" id="Fill-26" fill="#BDE2F0" sketch:type="MSShapeGroup"></path>
                <path d="M178.009883,102.967618 L201.582515,52.6738065 L225.155148,102.967618 L178.009883,102.967618" id="Fill-27" fill="#BDE2F0" sketch:type="MSShapeGroup"></path>
                <path d="M225.155148,102.967618 L248.72778,52.6738065 L272.301414,102.967618 L225.155148,102.967618" id="Fill-28" fill="#BDE2F0" sketch:type="MSShapeGroup"></path>
                <path d="M272.301414,102.967618 L295.874047,52.6738065 L319.446679,102.967618 L272.301414,102.967618" id="Fill-29" fill="#BDE2F0" sketch:type="MSShapeGroup"></path>
                <path d="M209.263171,153.139272 C209.263171,148.896805 205.823847,145.456372 201.582515,145.456372 C197.340183,145.456372 193.900859,148.896805 193.900859,153.139272 C193.900859,157.381739 197.340183,160.821172 201.582515,160.821172 C205.823847,160.821172 209.263171,157.381739 209.263171,153.139272" id="Fill-30" fill="#3499DF" sketch:type="MSShapeGroup"></path>
                <path d="M209.263171,52.6738065 C209.263171,48.4323406 205.823847,44.9919071 201.582515,44.9919071 C197.340183,44.9919071 193.900859,48.4323406 193.900859,52.6738065 C193.900859,56.9172748 197.340183,60.3567071 201.582515,60.3567071 C205.823847,60.3567071 209.263171,56.9172748 209.263171,52.6738065" id="Fill-31" fill="#3499DF" sketch:type="MSShapeGroup"></path>
                <path d="M185.690538,203.433084 C185.690538,199.189615 182.251215,195.750183 178.009883,195.750183 C173.76755,195.750183 170.328227,199.189615 170.328227,203.433084 C170.328227,207.67455 173.76755,211.114983 178.009883,211.114983 C182.251215,211.114983 185.690538,207.67455 185.690538,203.433084" id="Fill-32" fill="#3499DF" sketch:type="MSShapeGroup"></path>
                <path d="M232.835803,102.967618 C232.835803,98.725151 229.397481,95.2857187 225.155148,95.2857187 C220.912815,95.2857187 217.473492,98.725151 217.473492,102.967618 C217.473492,107.210085 220.912815,110.649517 225.155148,110.649517 C229.397481,110.649517 232.835803,107.210085 232.835803,102.967618" id="Fill-33" fill="#3499DF" sketch:type="MSShapeGroup"></path>
                <path d="M185.691539,102.967618 C185.691539,98.725151 182.252216,95.2857187 178.009883,95.2857187 C173.76755,95.2857187 170.328227,98.725151 170.328227,102.967618 C170.328227,107.210085 173.76755,110.649517 178.009883,110.649517 C182.252216,110.649517 185.691539,107.210085 185.691539,102.967618" id="Fill-34" fill="#3499DF" sketch:type="MSShapeGroup"></path>
                <path d="M256.409437,153.139272 C256.409437,148.896805 252.970113,145.456372 248.72778,145.456372 C244.485447,145.456372 241.047125,148.896805 241.047125,153.139272 C241.047125,157.381739 244.485447,160.821172 248.72778,160.821172 C252.970113,160.821172 256.409437,157.381739 256.409437,153.139272" id="Fill-35" fill="#3499DF" sketch:type="MSShapeGroup"></path>
                <path d="M303.554702,153.139272 C303.554702,148.896805 300.115378,145.456372 295.874047,145.456372 C291.631714,145.456372 288.19239,148.896805 288.19239,153.139272 C288.19239,157.381739 291.631714,160.821172 295.874047,160.821172 C300.115378,160.821172 303.554702,157.381739 303.554702,153.139272" id="Fill-36" fill="#3499DF" sketch:type="MSShapeGroup"></path>
                <path d="M162.118907,153.139272 C162.118907,148.896805 158.679583,145.456372 154.43725,145.456372 C150.194918,145.456372 146.756595,148.896805 146.756595,153.139272 C146.756595,157.381739 150.194918,160.821172 154.43725,160.821172 C158.679583,160.821172 162.118907,157.381739 162.118907,153.139272" id="Fill-37" fill="#3499DF" sketch:type="MSShapeGroup"></path>
                <path d="M12.4367458,371.93823 L28.630102,371.93823 L28.630102,390.181739 L12.4367458,390.181739 L12.4367458,371.93823 Z" id="Fill-43" fill="#392722" sketch:type="MSShapeGroup"></path>
                <path d="M60.1086728,371.93823 L76.3020289,371.93823 L76.3020289,390.181739 L60.1086728,390.181739 L60.1086728,371.93823 Z" id="Fill-44" fill="#392722" sketch:type="MSShapeGroup"></path>
                <path d="M107.779598,371.93823 L123.971953,371.93823 L123.971953,390.181739 L107.779598,390.181739 L107.779598,371.93823 Z" id="Fill-45" fill="#392722" sketch:type="MSShapeGroup"></path>
                <path d="M155.451525,371.93823 L171.64388,371.93823 L171.64388,390.181739 L155.451525,390.181739 L155.451525,371.93823 Z" id="Fill-46" fill="#392722" sketch:type="MSShapeGroup"></path>
                <path d="M203.122451,371.93823 L219.315807,371.93823 L219.315807,390.181739 L203.122451,390.181739 L203.122451,371.93823 Z" id="Fill-47" fill="#392722" sketch:type="MSShapeGroup"></path>
                <path d="M250.794378,371.93823 L266.987734,371.93823 L266.987734,390.181739 L250.794378,390.181739 L250.794378,371.93823 Z" id="Fill-48" fill="#392722" sketch:type="MSShapeGroup"></path>
                <path d="M298.466305,371.93823 L314.659661,371.93823 L314.659661,390.181739 L298.466305,390.181739 L298.466305,371.93823 Z" id="Fill-49" fill="#392722" sketch:type="MSShapeGroup"></path>
                <path d="M346.138232,371.93823 L362.330587,371.93823 L362.330587,390.181739 L346.138232,390.181739 L346.138232,371.93823 Z" id="Fill-50" fill="#392722" sketch:type="MSShapeGroup"></path>
                <path d="M393.809158,371.93823 L410.002514,371.93823 L410.002514,390.181739 L393.809158,390.181739 L393.809158,371.93823 Z" id="Fill-51" fill="#392722" sketch:type="MSShapeGroup"></path>
                <path d="M441.481085,371.93823 L457.674441,371.93823 L457.674441,390.181739 L441.481085,390.181739 L441.481085,371.93823 Z" id="Fill-52" fill="#392722" sketch:type="MSShapeGroup"></path>
                <path d="M489.153012,371.93823 L505.346368,371.93823 L505.346368,390.181739 L489.153012,390.181739 L489.153012,371.93823 Z" id="Fill-53" fill="#392722" sketch:type="MSShapeGroup"></path>
                <path d="M536.824939,371.93823 L553.018295,371.93823 L553.018295,390.181739 L536.824939,390.181739 L536.824939,371.93823 Z" id="Fill-54" fill="#392722" sketch:type="MSShapeGroup"></path>
                <path d="M0.341541221,340.056145 L761.858823,340.056145 L761.858823,371.93823 L0.341541221,371.93823 L0.341541221,340.056145 Z" id="Fill-59" fill="#FFFFFF" sketch:type="MSShapeGroup"></path>
                <path d="M27.7830371,227.911628 L270.481126,227.911628 L270.481126,340.056145 L27.7830371,340.056145 L27.7830371,227.911628 Z" id="Fill-60" fill="#BDE2F0" sketch:type="MSShapeGroup"></path>
                <path d="M270.481126,227.911628 L424.015129,227.911628 L424.015129,340.056145 L270.481126,340.056145 L270.481126,227.911628 Z" id="Fill-61" fill="#EF5281" sketch:type="MSShapeGroup"></path>
                <path d="M424.015129,227.911628 L459.86119,227.911628 L459.86119,340.056145 L424.015129,340.056145 L424.015129,227.911628 Z" id="Fill-62" fill="#BDE2F0" sketch:type="MSShapeGroup"></path>
                <path d="M291.658748,215.957223 L342.719935,215.957223 L342.719935,306.155458 L291.658748,306.155458 L291.658748,215.957223 Z" id="Fill-63" fill="#BDE2F0" sketch:type="MSShapeGroup"></path>
                <path d="M357.738815,215.957223 L408.800003,215.957223 L408.800003,306.155458 L357.738815,306.155458 L357.738815,215.957223 Z" id="Fill-64" fill="#BDE2F0" sketch:type="MSShapeGroup"></path>
                <path d="M459.86119,227.911628 L613.395193,227.911628 L613.395193,340.056145 L459.86119,340.056145 L459.86119,227.911628 Z" id="Fill-65" fill="#EF5281" sketch:type="MSShapeGroup"></path>
                <path d="M481.038812,215.957223 L532.099999,215.957223 L532.099999,306.155458 L481.038812,306.155458 L481.038812,215.957223 Z" id="Fill-67" fill="#BDE2F0" sketch:type="MSShapeGroup"></path>
                <path d="M547.118879,215.957223 L598.180067,215.957223 L598.180067,306.155458 L547.118879,306.155458 L547.118879,215.957223 Z" id="Fill-68" fill="#BDE2F0" sketch:type="MSShapeGroup"></path>
                <path d="M48.36491,248.937724 L90.4157709,248.937724 L90.4157709,325.532428 L48.36491,325.532428 L48.36491,248.937724 Z" id="Fill-69" fill="#FFFFFF" sketch:type="MSShapeGroup"></path>
                <path d="M120.068046,248.937724 L162.117906,248.937724 L162.117906,325.532428 L120.068046,325.532428 L120.068046,248.937724 Z" id="Fill-70" fill="#FFFFFF" sketch:type="MSShapeGroup"></path>
                <path d="M191.772183,248.937724 L233.823044,248.937724 L233.823044,325.532428 L191.772183,325.532428 L191.772183,248.937724 Z" id="Fill-71" fill="#FFFFFF" sketch:type="MSShapeGroup"></path>
            </g>
            <g id="pilons" sketch:type="MSLayerGroup" transform="translate(733.000000, 342.000000)">
                <path d="M9.96800383,71.0906219 L88.5839809,71.0906219 C93.5955784,71.0906219 97.6583832,75.1348335 97.6583832,80.1222606 C97.6583832,85.110689 93.5955784,89.1538994 88.5839809,89.1538994 L9.96800383,89.1538994 C4.95540019,89.1538994 0.891589249,85.110689 0.891589249,80.1222606 C0.891589249,75.1348335 4.95540019,71.0906219 9.96800383,71.0906219" id="Fill-72" fill="#3499DF" sketch:type="MSShapeGroup"></path>
                <path d="M50.7047152,0.523685161 L62.7784293,0.523685161 L62.7784293,80.1222606 L50.7047152,80.1222606 L50.7047152,0.523685161 Z" id="Fill-73" fill="#392722" sketch:type="MSShapeGroup"></path>
                <path d="M22.0205889,0.523685161 L34.094303,0.523685161 L34.094303,80.1222606 L22.0205889,80.1222606 L22.0205889,0.523685161 Z" id="Fill-74" fill="#392722" sketch:type="MSShapeGroup"></path>
                <path d="M0.891589249,0.523685161 L12.9653034,0.523685161 L12.9653034,80.1222606 L0.891589249,80.1222606 L0.891589249,0.523685161 Z" id="Fill-75" fill="#392722" sketch:type="MSShapeGroup"></path>
            </g>
            <path d="M1159.86969,492.710225 L1323.984,492.710225 L1323.984,593.335897 L1159.86969,593.335897 L1159.86969,492.710225 Z" id="Fill-79" fill="#91B7C5" sketch:type="MSShapeGroup"></path>
            <path d="M1087.59684,492.710225 L1251.71014,492.710225 L1251.71014,593.335897 L1087.59684,593.335897 L1087.59684,492.710225 Z" id="Fill-80" fill="#6D8994" sketch:type="MSShapeGroup"></path>
            <path d="M373.846607,677.661564 C373.846607,689.274529 354.348096,698.687659 330.29486,698.687659 C306.241623,698.687659 286.743112,689.274529 286.743112,677.661564 C286.743112,666.0496 306.241623,656.635468 330.29486,656.635468 C354.348096,656.635468 373.846607,666.0496 373.846607,677.661564" id="Fill-81" fill="#815130" sketch:type="MSShapeGroup"></path>
            <path d="M346.814626,273.039143 C346.814626,263.914385 339.41933,256.518854 330.29486,256.518854 C321.171391,256.518854 313.775093,263.914385 313.775093,273.039143 L313.775093,677.661564 L346.814626,677.661564 L346.814626,273.039143" id="Fill-82" fill="#9A7459" sketch:type="MSShapeGroup"></path>
            <path d="M482.504198,327.657528 C482.504198,406.978746 417.262184,471.280609 336.782014,471.280609 C256.302846,471.280609 191.059831,406.978746 191.059831,327.657528 L191.059831,199.695628 C191.059831,120.376413 256.301845,56.0745497 336.782014,56.0735484 C417.262184,56.0735484 482.504198,120.376413 482.504198,199.695628 L482.504198,327.657528" id="Fill-83" fill="#5AB55C" sketch:type="MSShapeGroup"></path>
            <path d="M328.070063,476.223979 C325.266539,481.962374 318.988647,485.476903 312.340289,484.475613 C305.691932,483.474323 300.715677,478.2576 299.734443,471.939458 C295.909635,477.05505 289.061026,479.338994 282.723059,477.096103 C276.375079,474.863226 272.47017,468.794405 272.700459,462.407174 C267.974519,466.711721 260.825532,467.653935 255.008219,464.259561 L255.008219,464.269574 C249.200919,460.865187 246.517546,454.176568 247.939333,447.937528 C242.492486,451.272826 235.283424,450.862297 230.217055,446.426581 L230.217055,446.435592 C225.150686,442.000877 223.778962,434.911742 226.362209,429.064206 C220.374682,431.307097 213.375884,429.533812 209.240686,424.217961 C205.105488,418.900108 205.095475,411.680805 208.750069,406.424031 C202.44214,407.4864 195.903921,404.392413 192.860094,398.384671 C189.816268,392.365915 191.21803,385.267768 195.813807,380.811025 C189.415765,380.631794 183.598452,376.326245 181.786174,369.827871 C179.973896,363.328495 182.727357,356.640877 188.114128,353.176413 C181.866274,351.744568 177.01017,346.386663 176.499528,339.669006 C175.998899,333.119566 179.773644,327.232981 185.480818,324.749781 C179.943858,322.536929 176.038949,317.129961 176.038949,310.800805 C176.038949,304.553755 179.853744,299.196852 185.280566,296.933935 C179.853744,294.671019 176.038949,289.313115 176.038949,283.066065 C176.038949,276.818013 179.853744,271.460108 185.280566,269.198194 C179.853744,266.935277 176.038949,261.578374 176.038949,255.330323 C176.038949,249.082271 179.853744,243.725368 185.280566,241.46145 C179.853744,239.199535 176.038949,233.842632 176.038949,227.594581 C176.038949,221.346529 179.853744,215.989626 185.280566,213.72671 C179.853744,211.462792 176.038949,206.10689 176.038949,199.858839 C176.038949,193.120155 180.464512,187.422813 186.57219,185.520361 C180.935104,182.476439 177.671001,176.028129 178.972637,169.4096 C180.264261,162.791071 185.731133,158.044955 192.099138,157.364077 C187.162933,153.278813 185.220491,146.309832 187.783713,140.071794 C190.346935,133.833755 196.624827,130.249135 203.002845,130.819871 C198.95776,125.863484 198.407067,118.654194 202.121737,113.036955 C205.846419,107.419716 212.685016,105.106735 218.833745,106.899045 C215.808943,101.261781 216.639987,94.082529 221.365928,89.2763355 C226.081857,84.4801548 233.230843,83.5189161 238.917992,86.432671 C237.025614,80.3248 239.198345,73.4459355 244.735305,69.6210065 C250.272266,65.7960774 257.481328,66.2066065 262.517659,70.1416774 C261.806765,63.7934968 265.241082,57.4453161 271.399824,54.7318194 C277.556564,52.0283355 284.555362,53.7805935 288.750636,58.5968 C289.261278,52.2285935 293.827017,46.6413935 300.385261,45.1394581 C306.943505,43.6475355 313.471712,46.6814452 316.695765,52.1985548 C318.387892,46.0406194 323.904827,41.4146581 330.623272,41.1643355 L330.623272,41.1743484 C337.331705,40.9240258 343.179056,45.1094194 345.32175,51.1171613 C348.125274,45.3797677 354.403166,41.8552258 361.051523,42.8465032 L361.051523,42.8565161 C367.69988,43.8477935 372.676136,49.0645161 373.667382,55.3726452 C377.493191,50.2560516 384.330787,47.9630968 390.678767,50.1959742 C397.026746,52.4288516 400.931655,58.4866581 400.711378,64.8849032 C405.437319,60.5693419 412.586306,59.6181161 418.403619,63.0024774 C424.220931,66.3868387 426.914317,73.085471 425.49253,79.3134968 C430.939377,75.9691871 438.138427,76.3797161 443.214808,80.8054194 C448.281177,85.2311226 449.662914,92.3202581 447.089679,98.1677935 C453.077206,95.9148903 460.076004,97.6871742 464.221215,102.994013 C468.366425,108.310865 468.376438,115.530168 464.721844,120.786942 C471.039786,119.725574 477.578005,122.799535 480.621831,128.81729 C483.67567,134.825032 482.283921,141.924181 477.688143,146.389935 C484.086186,146.560155 489.913512,150.865703 491.72579,157.354065 C493.548081,163.852439 490.805633,170.541058 485.427873,174.015535 C491.665714,175.447381 496.531831,180.794271 497.052486,187.512929 C497.564129,194.061368 493.77837,199.958968 488.081208,202.442168 C493.618169,204.655019 497.523077,210.061987 497.523077,216.389141 C497.523077,222.638194 493.708282,227.995097 488.28146,230.258013 C493.708282,232.520929 497.523077,237.876831 497.523077,244.125884 C497.523077,250.373935 493.708282,255.729837 488.28146,257.993755 C493.708282,260.256671 497.523077,265.613574 497.523077,271.861626 C497.523077,278.109677 493.708282,283.466581 488.28146,285.728495 C493.708282,287.992413 497.523077,293.349316 497.523077,299.597368 C497.523077,305.855432 493.708282,311.212335 488.28146,313.47425 C493.708282,315.738168 497.523077,321.095071 497.523077,327.343123 L497.523077,327.653523 C497.523077,334.392206 493.087502,340.088547 486.979824,342.002013 C492.606897,345.045935 495.860988,351.504258 494.560353,358.111773 C493.257716,364.731303 487.790843,369.467406 481.412826,370.148284 C486.349031,374.233548 488.28146,381.212542 485.718238,387.440568 C483.145003,393.678606 476.857099,397.253213 470.479081,396.682477 C474.524166,401.648877 475.064846,408.847154 471.340164,414.465394 C467.615481,420.082632 460.766872,422.375587 454.630158,420.583277 C457.642945,426.230555 456.801888,433.399794 452.075947,438.195974 C447.350006,442.992155 440.20102,443.943381 434.51387,441.029626 C436.406249,447.127484 434.223505,454.006348 428.686545,457.831277 C423.139572,461.646194 415.940522,461.235665 410.904191,457.290581 C411.605072,463.648774 408.170755,469.986942 402.003002,472.690426 C395.845261,475.39391 388.856476,473.631639 384.651189,468.805419 C384.140548,475.182637 379.564795,480.760826 373.006551,482.252748 C366.448307,483.744671 359.920101,480.689734 356.70606,475.182637 C355.013933,481.331561 349.486986,485.946508 342.76854,486.187819 C342.578301,486.196831 342.398074,486.196831 342.217848,486.196831 C335.739704,486.196831 330.152681,482.062503 328.070063,476.223979 L328.070063,476.223979 Z M316.815916,454.776341 C322.48304,455.628439 326.928628,459.533471 328.730894,464.579974 C331.083851,459.773781 335.949969,456.379406 341.677168,456.169135 C347.404368,455.968877 352.490761,458.991773 355.19416,463.608723 C356.62596,458.451076 360.771171,454.226632 366.348181,452.954994 C371.925192,451.692366 377.482177,453.705961 380.996595,457.731148 C381.437149,452.403283 384.701252,447.476934 389.937835,445.183979 L389.937835,445.174968 C395.174418,442.882013 401.021768,443.813213 405.227055,447.107458 C404.646325,441.790606 406.929194,436.333574 411.645123,433.089394 C416.351038,429.845213 422.268477,429.654968 427.024456,432.098116 C425.45248,426.990534 426.664003,421.204077 430.669037,417.118813 C434.684084,413.053574 440.451334,411.751897 445.577778,413.233806 C443.064619,408.527742 443.154733,402.620129 446.308697,397.864 C449.472675,393.097858 454.869459,390.7248 460.17613,391.195406 C456.821913,387.060077 455.770592,381.262606 457.943323,375.985806 C460.116054,370.719019 464.942121,367.344671 470.248792,366.773935 C466.143631,363.379561 463.990925,357.89249 465.09231,352.30529 C466.193694,346.708077 470.268817,342.462606 475.355211,340.870555 C470.66932,338.327277 467.485318,333.360877 467.485318,327.653523 L467.485318,327.343123 C467.485318,321.095071 471.300113,315.738168 476.726935,313.47425 C471.300113,311.212335 467.485318,305.855432 467.485318,299.597368 C467.485318,293.349316 471.300113,287.992413 476.726935,285.728495 C471.300113,283.466581 467.485318,278.109677 467.485318,271.861626 C467.485318,265.613574 471.300113,260.256671 476.726935,257.993755 C471.300113,255.729837 467.485318,250.373935 467.485318,244.125884 C467.485318,237.876831 471.300113,232.520929 476.726935,230.258013 C471.300113,227.995097 467.485318,222.638194 467.485318,216.389141 C467.485318,210.222194 471.199987,204.935381 476.506658,202.612387 C471.36119,200.559742 467.555406,195.713497 467.10484,189.814895 C466.664286,184.137579 469.457797,178.941884 473.923411,176.048155 C468.736891,174.856619 464.341366,170.941574 462.80944,165.454503 C461.267502,159.967432 462.989666,154.330168 466.814475,150.625394 C461.487778,150.465187 456.401385,147.481342 453.82815,142.394787 C451.244902,137.298219 451.845658,131.430658 454.879471,127.045006 C449.612851,127.926142 444.045853,125.973626 440.531435,121.467819 C437.017017,116.962013 436.476337,111.074426 438.629043,106.188129 C433.62275,108.060542 427.7754,107.199432 423.459975,103.444594 C419.154563,99.6797419 417.512498,94.0024258 418.693984,88.7857032 C414.128244,91.5793032 408.220818,91.8396387 403.284613,88.9559226 C398.338395,86.0722065 395.645009,80.8054194 395.825236,75.458529 C391.880277,79.0631742 386.12304,80.4349419 380.726256,78.5425032 C375.329471,76.6400516 371.694902,71.9740387 370.863858,66.6972387 C367.65983,70.9827613 362.264047,73.4058839 356.605935,72.5648 C350.938811,71.7137032 346.494223,67.808671 344.680944,62.7621677 C342.327986,67.5783742 337.471882,70.9727484 331.744682,71.1830194 C326.017483,71.4033032 320.921076,68.3794065 318.217678,63.7634581 C316.79589,68.9201032 312.660692,73.1455484 307.073669,74.4272 C301.496658,75.6988387 295.939673,73.6862452 292.415242,69.671071 C291.994714,74.9979355 288.73061,79.9242839 283.494028,82.2272516 C278.257445,84.5302194 272.420107,83.6090323 268.204808,80.3248 C268.785538,85.6316387 266.512681,91.088671 261.806765,94.3428645 C257.090837,97.5970581 251.183411,97.7873032 246.427432,95.3541677 C247.999408,100.460748 246.797898,106.248206 242.792863,110.333471 C238.787829,114.408723 233.020579,115.720413 227.894135,114.22849 C230.407294,118.944568 230.327193,124.852181 227.173228,129.60831 C224.019264,134.374452 218.62248,136.757523 213.315809,136.286916 C216.680038,140.422245 217.731359,146.219716 215.568641,151.496516 C213.395909,156.773316 208.569843,160.147665 203.274186,160.7184 C207.378345,164.112774 209.541064,169.589832 208.449692,175.187045 C207.348307,180.784258 203.274186,185.039742 198.196803,186.631794 C202.892706,189.175071 206.076709,194.141471 206.076709,199.858839 C206.076709,206.10689 202.261913,211.462792 196.835091,213.72671 C202.261913,215.989626 206.076709,221.346529 206.076709,227.594581 C206.076709,233.842632 202.261913,239.199535 196.835091,241.46145 C202.261913,243.725368 206.076709,249.082271 206.076709,255.330323 C206.076709,261.578374 202.261913,266.935277 196.835091,269.198194 C202.261913,271.460108 206.076709,276.818013 206.076709,283.066065 C206.076709,289.313115 202.261913,294.671019 196.835091,296.933935 C202.261913,299.196852 206.076709,304.553755 206.076709,310.800805 C206.076709,316.969755 202.362039,322.266581 197.056369,324.579561 C202.191825,326.651231 205.996608,331.488465 206.447174,337.396077 C206.877716,343.073394 204.084204,348.260077 199.608578,351.153806 C204.795098,352.345342 209.190623,356.2704 210.722549,361.767484 C212.254475,367.254555 210.522297,372.880805 206.697489,376.595592 C212.024185,376.746787 217.100566,379.740645 219.673801,384.837213 C222.247036,389.933781 221.646281,395.791329 218.602454,400.176981 C223.869075,399.295845 229.436073,401.258374 232.940478,405.774194 C236.454896,410.28 236.985563,416.167587 234.832857,421.053884 C239.83915,419.181471 245.686501,420.052594 249.991913,423.817445 C254.297325,427.582297 255.93939,433.269626 254.747892,438.476335 C259.313631,435.692748 265.221057,435.442426 270.157262,438.326142 C275.10348,441.209858 277.786853,446.486658 277.596614,451.823535 C281.551586,448.227902 287.308823,446.867148 292.705607,448.768599 C298.102391,450.672052 301.726948,455.338065 302.557992,460.614865 C305.331479,456.920103 309.74703,454.607123 314.563084,454.607123 C315.304015,454.607123 316.054959,454.656186 316.815916,454.776341 L316.815916,454.776341 Z" id="Fill-84" fill="#5AB55C" sketch:type="MSShapeGroup"></path>
            <path d="M447.548256,331.485461 C447.548256,415.551794 401.645553,483.699613 330.295861,483.699613 C246.233188,483.699613 178.086523,415.551794 178.086523,331.485461 L178.086523,195.868697 C178.086523,111.810374 246.222174,43.6545445 330.27884,43.6545445 L330.295861,43.6545445 C401.645553,43.6545445 447.548256,111.803365 447.548256,195.868697 L447.548256,331.485461" id="Fill-85" fill="#A9D163" sketch:type="MSShapeGroup"></path>
            <path d="M319.289025,498.36351 L319.289025,498.36351 C312.450428,497.912929 306.973543,492.955541 305.581794,486.578323 C302.287653,492.215587 295.549182,495.239484 288.910837,493.547303 C282.252467,491.855123 277.776841,485.967535 277.596614,479.42911 C273.32124,484.375484 266.132203,486.117729 259.904374,483.224 C253.686558,480.330271 250.373393,473.711742 251.393675,467.263432 C246.287256,471.338684 238.90798,471.729187 233.320957,467.744052 C227.733933,463.758916 225.691366,456.658766 227.87411,450.501832 C222.10686,453.575794 214.787659,452.604542 210.021668,447.678194 C205.255677,442.741832 204.544783,435.392361 207.808886,429.735071 C201.581057,431.706612 194.552222,429.413657 190.767464,423.696289 C186.982706,417.978921 187.623512,410.620439 191.858836,405.654039 C185.380692,406.445058 178.892536,402.910503 176.219176,396.592361 C173.545815,390.274219 175.528307,383.155045 180.614701,379.049755 C174.096507,378.638225 168.369308,373.962199 166.90747,367.254555 C165.445632,360.555923 168.699723,353.927381 174.45696,350.833394 C168.129006,349.231329 163.363014,343.593063 163.15275,336.745239 C162.942486,330.1968 166.957533,324.509471 172.734795,322.266581 C167.077684,320.113806 163.072649,314.635747 163.072649,308.22849 C163.072649,301.840258 167.057659,296.373213 172.694745,294.210426 C167.057659,292.047639 163.072649,286.580594 163.072649,280.192361 C163.072649,273.793115 167.067671,268.337084 172.694745,266.163283 C167.067671,264.001497 163.072649,258.534452 163.072649,252.145218 C163.072649,245.747974 167.067671,240.289941 172.694745,238.118142 C167.067671,235.954354 163.072649,230.498323 163.072649,224.100077 C163.072649,217.701832 167.057659,212.2448 172.694745,210.082013 C167.057659,207.909213 163.072649,202.451179 163.072649,196.053935 C163.072649,189.20511 167.648402,183.437677 173.906268,181.625342 C168.058918,178.7216 164.58455,172.2032 165.826111,165.464516 C167.067671,158.715819 172.63467,153.849548 179.142851,153.228748 C173.926293,149.293677 171.703499,142.244594 174.166595,135.836335 C176.629692,129.428077 183.007709,125.683252 189.51589,126.264 C185.110352,121.437781 184.229245,114.098323 187.823763,108.2608 C191.428295,102.423277 198.367017,99.9000258 204.664934,101.662297 C201.210592,96.1151484 201.691196,88.7456516 206.286973,83.6590968 C210.892763,78.5825548 218.181926,77.3709935 224.039289,80.2547097 C221.666306,74.1768774 223.468571,67.0076387 228.925431,62.8522839 C234.372278,58.6869161 241.761567,58.8371097 246.99815,62.732129 C245.766602,56.3138581 248.860491,49.6052129 254.978181,46.5112258 C261.105884,43.4172387 268.344984,44.9191742 272.78056,49.7153548 C272.750522,43.176929 277.025897,37.1491613 283.614179,35.2366968 C290.202461,33.3242323 297.041057,36.1278452 300.515425,41.6649806 C301.69691,35.2366968 307.003581,30.1000774 313.832165,29.4292129 C320.680774,28.7683613 326.908603,32.8035613 329.291598,38.9214452 C331.73467,32.7034323 338.132712,28.6782452 345.071435,29.519329 C352.090258,30.3604129 357.386916,35.9275871 358.177911,42.6562581 C362.20297,37.1892129 369.582247,34.9863742 376.110453,37.7399226 C382.618634,40.4834581 386.183115,47.2922323 385.101756,53.9808516 C390.438464,49.8555355 398.098093,49.7353806 403.615028,54.1310452 C409.091913,58.4866581 410.713952,65.8962065 407.980516,72.0140903 C414.098206,69.4007226 421.437432,71.112929 425.712807,76.6200258 C429.958143,82.0770581 429.837992,89.536671 425.893033,94.813471 C432.341139,93.6019097 439.059585,96.7259355 442.123436,102.883871 C445.167262,109.001755 443.655362,116.201032 438.879358,120.60671 C445.357502,120.566658 451.355041,124.752052 453.338534,131.270452 C455.3,137.7488 452.676702,144.527535 447.330982,148.112155 C453.677961,149.053368 458.944581,154.039794 459.965865,160.7184 C460.967124,167.366968 457.442694,173.665084 451.705481,176.468697 C457.823172,178.250994 462.358874,183.847205 462.509062,190.565863 C462.649239,197.065239 458.644204,202.69249 452.917004,204.905342 C458.554091,207.068129 462.569138,212.535174 462.569138,218.943432 C462.569138,225.331665 458.574116,230.788697 452.947042,232.961497 C458.574116,235.123283 462.569138,240.591329 462.569138,246.979561 C462.569138,253.377806 458.574116,258.834839 452.93703,261.007639 C458.574116,263.170426 462.569138,268.627458 462.569138,275.025703 C462.569138,281.423948 458.574116,286.880981 452.93703,289.043768 C458.574116,291.216568 462.569138,296.6736 462.569138,303.071845 C462.569138,309.460077 458.574116,314.927123 452.947042,317.08991 C458.574116,319.26271 462.569138,324.719742 462.569138,331.117987 L462.569138,331.488465 C462.569138,338.19711 458.1636,343.884439 452.08596,345.805915 C457.883247,348.480361 461.547854,354.688361 460.696784,361.356955 C459.845714,368.044573 454.709257,373.152155 448.391315,374.253574 C453.818137,377.698013 456.621661,384.395644 454.829408,390.915045 C453.027143,397.473497 447.159767,401.809084 440.691636,401.958276 C445.587791,406.224774 447.319969,413.35296 444.476394,419.551948 C441.612794,425.789987 435.0145,429.123283 428.546369,428.133006 C432.671554,433.259613 433.052033,440.689187 429.036986,446.296413 C424.981888,451.933677 417.732775,453.936258 411.524972,451.593239 C414.508722,457.560929 413.217099,465.020542 407.950478,469.606452 C402.65382,474.232413 395.024229,474.46271 389.497281,470.617755 C390.909056,477.236284 387.685003,484.19425 381.327011,487.2592 C374.948993,490.333161 367.479604,488.5008 363.184204,483.244026 C362.723625,490.002735 357.697306,495.829244 350.718534,497.011768 C343.799836,498.19329 337.171504,494.428439 334.458093,488.290529 C332.405513,494.218168 326.768427,498.393548 320.280271,498.393548 C319.949855,498.393548 319.61944,498.383535 319.289025,498.36351 L319.289025,498.36351 Z M321.241479,468.384877 C327.008729,468.765368 331.804758,472.349987 333.997514,477.296361 C335.739704,472.28991 340.075154,468.354839 345.67219,467.403613 C351.189125,466.461399 356.505809,468.655226 359.819975,472.690426 C360.180428,467.493729 363.254292,462.627458 368.28061,460.203334 C373.336967,457.761187 379.084191,458.411025 383.389604,461.395871 C382.298232,456.249239 383.960321,450.682065 388.21567,446.967277 C392.521082,443.212439 398.378446,442.351329 403.384739,444.233755 C400.991731,439.417548 401.272083,433.45887 404.6263,428.773832 C408.040592,424.027716 413.697703,421.863928 419.1045,422.685987 C415.670183,418.390452 414.718987,412.362684 417.17207,407.025806 C419.645179,401.62785 424.9118,398.394684 430.478798,398.264516 C426.263499,394.589781 424.281007,388.712206 425.862996,382.9648 C427.444984,377.176341 432.210975,373.112103 437.757948,372.140852 C432.991957,369.116955 430.13837,363.519742 430.899327,357.562065 L430.899327,357.552052 C431.670296,351.563334 435.86557,346.847257 441.262354,345.13505 C436.105872,342.752981 432.531378,337.536258 432.531378,331.488465 L432.531378,331.117987 C432.531378,324.719742 436.5264,319.26271 442.153474,317.08991 C436.5264,314.927123 432.531378,309.460077 432.531378,303.071845 C432.531378,296.6736 436.5264,291.216568 442.153474,289.043768 C436.5264,286.880981 432.531378,281.423948 432.531378,275.025703 C432.531378,268.627458 436.5264,263.170426 442.153474,261.007639 C436.5264,258.834839 432.531378,253.377806 432.531378,246.979561 C432.531378,240.591329 436.5264,235.123283 442.153474,232.961497 C436.5264,230.788697 432.531378,225.331665 432.531378,218.943432 C432.531378,212.5552 436.516388,207.098168 442.123436,204.925368 C436.596488,202.812645 432.611479,197.505806 432.481315,191.217703 C432.351152,185.16991 435.805494,179.882095 440.901901,177.389884 C435.475079,175.807845 431.169666,171.191897 430.268534,165.224206 C429.357388,159.286555 432.070799,153.629265 436.746677,150.495226 C431.189692,149.654142 426.333587,145.729084 424.592398,140.001703 C422.869232,134.304361 424.68151,128.386735 428.766646,124.601858 C423.219673,124.631897 417.872952,121.567948 415.229629,116.271123 C412.626356,111.024361 413.367288,104.996594 416.641403,100.600929 C411.285671,101.602219 405.567483,99.6497032 401.992989,95.0537806 C398.478571,90.5179355 397.957917,84.6003097 400.140661,79.704 C395.234493,81.7866839 389.37713,81.1859097 384.911517,77.631329 C380.505979,74.1368258 378.593575,68.6597677 379.434632,63.4730839 C375.289421,66.6672 369.592259,67.5883871 364.425765,65.4155871 C359.279295,63.2427871 355.975142,58.5267097 355.354361,53.3500387 C352.240447,57.5554581 347.023889,60.0086194 341.456891,59.3377548 C335.779755,58.6468645 331.224028,54.872 329.271573,49.8855742 C327.269056,54.9621161 322.56314,58.7670194 316.75584,59.3277419 C310.90849,59.8984774 305.511705,57.0347871 302.578018,52.3787871 C301.576759,57.7857548 297.6318,62.4517677 291.984701,64.083871 C286.347615,65.7259871 280.520289,63.9036387 276.775582,59.8584258 C276.795607,65.3655226 273.771806,70.6723613 268.525211,73.3257806 C263.278615,75.9792 257.210988,75.258271 252.785425,71.9740387 C253.816721,77.3810065 251.824216,83.1584516 247.148339,86.7330581 C242.472461,90.2976516 236.364783,90.6981677 231.418565,88.2750452 C233.421082,93.4116645 232.509937,99.4594581 228.554965,103.825084 C224.610006,108.180697 218.682555,109.692645 213.375884,108.210735 C216.279534,112.896774 216.489799,119.004645 213.395909,124.011097 C210.312033,129.017548 204.76506,131.580852 199.278162,131.100232 C202.992832,135.165471 204.314493,141.133161 202.201838,146.620232 C200.089182,152.107303 195.112926,155.641858 189.636042,156.182555 C194.031567,159.496826 196.434588,165.114065 195.373254,170.89151 C194.311919,176.678968 190.066583,181.074632 184.779937,182.606606 C189.716142,185.069781 193.110409,190.166348 193.110409,196.053935 C193.110409,202.451179 189.115387,207.909213 183.478301,210.082013 C189.115387,212.2448 193.110409,217.701832 193.110409,224.100077 C193.110409,230.498323 189.105374,235.954354 183.478301,238.118142 C189.105374,240.289941 193.110409,245.747974 193.110409,252.145218 C193.110409,258.534452 189.105374,264.001497 183.478301,266.163283 C189.105374,268.337084 193.110409,273.793115 193.110409,280.192361 C193.110409,286.580594 189.115387,292.047639 183.478301,294.210426 C189.115387,296.373213 193.110409,301.840258 193.110409,308.22849 C193.110409,314.60671 189.1254,320.062741 183.518351,322.235541 C189.00625,324.339252 192.980245,329.565987 193.170485,335.814039 C193.350711,341.691613 190.136671,346.88831 185.290579,349.501677 C190.617275,350.863432 195.002788,355.118916 196.254361,360.85631 C197.505935,366.603716 195.293153,372.291045 191.017778,375.75551 C196.504676,376.105961 201.59107,379.48031 203.883952,384.887277 L203.883952,384.896289 C206.176834,390.304258 205.045412,396.301987 201.480931,400.497394 C206.947804,399.835541 212.564865,402.208599 215.808943,407.115923 C219.063033,412.022245 219.053021,418.140129 216.309572,422.90527 C221.556167,421.254142 227.533682,422.575845 231.618817,426.80129 C235.713965,431.035747 236.815349,437.054503 234.983046,442.2512 C239.849163,439.667871 245.966853,439.868129 250.75287,443.282529 C255.548899,446.696929 257.731643,452.414297 256.87056,457.851303 C261.185985,454.42689 267.233587,453.505703 272.560283,455.97889 C277.896992,458.46209 281.091007,463.667799 281.251208,469.165884 C284.855739,465.010529 290.622989,462.996934 296.320151,464.439794 C302.017313,465.891665 306.112461,470.417497 307.293946,475.794426 C309.917244,471.318658 314.773348,468.354839 320.250233,468.354839 C320.570636,468.354839 320.901051,468.364852 321.241479,468.384877 L321.241479,468.384877 Z" id="Fill-86" fill="#A9D163" sketch:type="MSShapeGroup"></path>
            <path d="M413.870921,331.485461 C413.870921,415.551794 360.542884,483.699613 330.295861,483.699613 C246.233188,483.699613 178.086523,415.551794 178.086523,331.485461 L178.086523,195.868697 C178.086523,111.810374 246.222174,43.6545445 330.27884,43.6545445 L330.295861,43.6545445 C373.1247,43.6545445 413.870921,111.803365 413.870921,195.868697 L413.870921,331.485461" id="Fill-87" fill="#D0D766" sketch:type="MSShapeGroup"></path>
            <path d="M317.687011,498.252366 C310.848414,497.74271 305.41158,492.716232 304.099931,486.307974 C300.755727,491.935226 293.977206,494.909058 287.338861,493.146787 L287.328848,493.146787 C280.690503,491.384516 276.26494,485.426839 276.164814,478.8784 C271.839377,483.804748 264.620302,485.476903 258.412498,482.522095 C252.214707,479.56929 248.970629,472.91071 250.072014,466.452387 C244.915532,470.487587 237.51623,470.808 231.959245,466.762787 C226.412272,462.727587 224.439792,455.588387 226.702637,449.439463 C220.905349,452.474374 213.577137,451.433032 208.850195,446.456619 C204.124254,441.469192 203.493461,434.090684 206.827653,428.463432 C200.579799,430.38591 193.560975,428.022865 189.826281,422.265445 C186.091586,416.498013 186.812492,409.128516 191.127917,404.211179 C184.619736,404.943123 178.161617,401.337476 175.548332,394.989295 C172.935047,388.632103 175.007653,381.512929 180.154122,377.467716 C173.625916,376.99711 167.928754,372.261006 166.537004,365.532335 C165.145255,358.813677 168.489459,352.205161 174.286746,349.180263 C167.958792,347.50911 163.242863,341.821781 163.102687,334.952929 C162.972524,328.454555 166.987571,322.827303 172.734795,320.624465 C167.087697,318.47169 163.062637,312.994632 163.062637,306.585373 C163.062637,300.178116 167.077684,294.711071 172.724783,292.548284 C167.077684,290.39551 163.062637,284.928465 163.062637,278.520206 C163.062637,272.111948 167.077684,266.644903 172.724783,264.482116 C167.077684,262.329342 163.062637,256.862297 163.062637,250.454039 C163.062637,244.044779 167.077684,238.578735 172.724783,236.414947 C167.077684,234.263174 163.062637,228.796129 163.062637,222.387871 C163.062637,215.979613 167.077684,210.512568 172.724783,208.349781 C167.027621,206.176981 163.012574,200.629832 163.072649,194.17151 C163.142738,187.31167 167.79859,181.575277 174.10652,179.833032 C168.279194,176.869213 164.864902,170.300748 166.186564,163.562065 C167.508225,156.823381 173.155324,152.017187 179.683531,151.47649 C174.486998,147.491355 172.344305,140.392206 174.887502,134.003974 C177.430699,127.625755 183.858779,123.951019 190.376973,124.621884 C186.002474,119.7456 185.200466,112.386116 188.875085,106.578632 C192.550705,100.771148 199.53849,98.3380129 205.816381,100.1904 C202.422115,94.6032 202.972807,87.2236903 207.648685,82.1872 C212.31455,77.1507097 219.633751,76.0392774 225.461076,79.0030968 C223.138156,72.8852129 225.030535,65.7259871 230.54747,61.6307097 C236.054393,57.5254194 243.443682,57.765729 248.640214,61.7508645 C247.478754,55.3125677 250.652744,48.6239484 256.820497,45.6000516 C262.98825,42.5761548 270.227351,44.1682065 274.602851,49.0444903 C274.642901,42.4960516 278.988364,36.4983226 285.616696,34.6659613 C292.235016,32.8436129 299.053587,35.7373419 302.447854,41.3345548 C303.699427,34.906271 309.076186,29.829729 315.924795,29.2389677 C323.003694,28.6381935 329.361687,33.0538839 331.475344,39.5322323 C334.818546,32.8336 342.72849,29.5393548 349.957577,32.1226839 C357.056501,34.6659613 361.061536,41.9954065 359.639748,49.1646452 C365.437036,45.1694968 373.437093,45.6901677 378.663663,50.7967484 L378.663663,50.8067613 C383.720019,55.7431226 384.541051,63.3829677 381.086709,69.2004645 C387.454714,67.2779871 394.573663,69.8012387 398.218244,75.7388903 C401.80275,81.5864258 400.901617,88.915871 396.496079,93.7320774 C402.944185,93.1212903 409.302177,96.776 411.845374,103.104155 C414.358534,109.372232 412.335991,116.351226 407.339711,120.386426 C413.737753,120.726865 419.434915,125.172594 421.086992,131.701006 L421.086992,131.711019 C422.729056,138.219406 419.845431,144.807897 414.428622,148.162219 C420.686488,149.293677 425.782895,154.360206 426.643977,161.008774 C427.515072,167.647329 423.900529,173.835303 418.153304,176.538787 C424.230944,178.371148 428.70657,183.948335 428.836734,190.636955 C428.966897,197.135329 424.941838,202.741554 419.214638,204.945394 C424.87175,207.098168 428.886797,212.575226 428.886797,218.993497 C428.886797,225.391742 424.881762,230.858787 419.234663,233.021574 C424.881762,235.184361 428.886797,240.651406 428.886797,247.059665 C428.886797,253.45791 424.881762,258.924955 419.234663,261.087742 C424.881762,263.250529 428.886797,268.717574 428.886797,275.125832 C428.886797,281.524077 424.881762,286.991123 419.234663,289.15391 C424.881762,291.316697 428.886797,296.782741 428.886797,303.181987 C428.886797,309.589244 424.881762,315.056289 419.234663,317.220077 C424.881762,319.382865 428.886797,324.84991 428.886797,331.247154 L428.886797,331.488465 C428.886797,338.247174 424.421183,343.964542 418.273455,345.845966 C424.10078,348.559463 427.725337,354.838555 426.794166,361.536186 C425.852983,368.225806 420.656451,373.262297 414.318483,374.283613 C419.705255,377.768103 422.458716,384.466735 420.636425,390.96511 C418.814135,397.463484 412.986809,401.759019 406.578754,401.929239 C411.454884,406.093605 413.297199,413.102637 410.623839,419.311639 L410.623839,419.301626 C407.940466,425.519639 401.562448,429.004129 395.164405,428.293213 C399.459805,433.109419 400.29085,440.358761 396.746394,446.136206 C393.161888,451.963716 386.243191,454.496981 379.965299,452.764748 C383.500743,458.301884 383.089226,465.741471 378.483436,470.87809 C373.757495,476.15489 366.137917,477.296361 360.160403,474.072206 C362.43326,480.769837 359.699824,488.350606 353.311794,491.95425 C346.363059,495.870297 337.632083,493.667458 333.346696,487.067954 C331.644556,493.607381 325.707093,498.292418 318.828446,498.292418 C318.447967,498.292418 318.067489,498.273394 317.687011,498.252366 L317.687011,498.252366 Z M295.028527,464.109368 C300.725689,465.621316 304.780787,470.197213 305.892184,475.594168 C308.715733,470.858065 314.052442,467.854194 319.92983,468.29376 C324.785935,468.655226 328.931145,471.288619 331.404254,475.08351 C332.3955,471.278606 334.858597,467.874219 338.553241,465.790534 C343.209094,463.158142 348.675966,463.28831 353.071492,465.651355 C351.39939,460.694968 352.37061,455.007639 356.115318,450.822245 L356.115318,450.832258 C360.040252,446.446606 365.967703,444.904619 371.284386,446.366503 C368.290623,441.670452 368.030296,435.49249 371.14421,430.425961 C374.288162,425.299355 380.005349,422.726039 385.602385,423.346839 C381.847665,419.121394 380.646155,412.953445 383.02915,407.41631 C385.422159,401.869161 390.758867,398.494813 396.425991,398.344619 C392.110566,394.65887 390.078011,388.682168 391.710063,382.864671 C393.342115,377.047174 398.178194,372.991948 403.776231,372.080774 C399.019251,369.006813 396.205714,363.359535 397.036759,357.381832 C397.877816,351.414142 402.103128,346.758142 407.509924,345.094999 C402.393493,342.702916 398.849037,337.505218 398.849037,331.488465 L398.849037,331.247154 C398.849037,324.84991 402.864084,319.382865 408.511183,317.220077 C402.864084,315.056289 398.849037,309.589244 398.849037,303.181987 C398.849037,296.782741 402.864084,291.316697 408.511183,289.15391 C402.864084,286.991123 398.849037,281.524077 398.849037,275.125832 C398.849037,268.717574 402.864084,263.250529 408.501171,261.087742 C402.864084,258.924955 398.849037,253.45791 398.849037,247.059665 C398.849037,240.651406 402.864084,235.184361 408.511183,233.021574 C402.864084,230.858787 398.849037,225.391742 398.849037,218.993497 C398.849037,212.59425 402.854072,207.127205 408.481145,204.965419 C402.92416,202.852697 398.929138,197.525832 398.808987,191.20769 C398.688836,185.098818 402.233291,179.782968 407.429824,177.329806 C401.942926,175.677677 397.647527,170.941574 396.856532,164.883768 C396.075551,158.845987 398.999226,153.178684 403.85533,150.1648 C398.238269,149.153497 393.452253,144.95809 391.97039,139.06049 C390.478515,133.192929 392.671271,127.26529 397.096834,123.690684 C391.439723,123.380284 386.213153,119.885781 383.960321,114.288568 C381.747539,108.751432 383.049176,102.6736 386.823921,98.5482839 C381.296973,99.0589419 375.699937,96.4856258 372.606048,91.4491355 L372.606048,91.4391226 C369.592259,86.5328 369.742448,80.5651097 372.495909,75.9291355 C367.429541,77.4410839 361.712354,76.2395355 357.667269,72.2744258 C353.902536,68.5996903 352.480749,63.4330323 353.421932,58.6368516 C349.587111,61.2802581 344.570806,62.1013161 339.844865,60.4091355 C335.29915,58.7870452 332.025035,55.1924129 330.623272,50.936929 C328.360428,55.4527484 323.874789,58.7169548 318.467992,59.1775484 C312.600617,59.6781935 307.23387,56.7243871 304.370271,52.0183226 C303.308936,57.4353032 299.293889,62.0512516 293.626765,63.6232774 C287.949629,65.1953032 282.132316,63.2828387 278.447684,59.1875613 C278.407634,64.704671 275.323757,69.981471 270.037111,72.5748129 C264.740453,75.1681548 258.672826,74.3671226 254.297325,71.0128 C255.268546,76.4397935 253.205953,82.2072258 248.480013,85.7217548 C243.744059,89.2462968 237.626369,89.5667097 232.700176,87.0734968 C234.652631,92.2301419 233.68141,98.2879484 229.676375,102.60351 C225.661328,106.929084 219.703839,108.360929 214.407181,106.808929 C217.27078,111.525006 217.410957,117.652903 214.256992,122.629316 C211.11304,127.615742 205.516004,130.108955 200.029106,129.548232 C203.703726,133.663535 204.965312,139.651252 202.79258,145.12831 C200.609836,150.595355 195.573505,154.079845 190.076595,154.540439 C194.452096,157.904774 196.795041,163.562065 195.663619,169.33951 C194.532196,175.116955 190.226784,179.472568 184.910101,180.934452 C189.826281,183.44769 193.170485,188.58431 193.110409,194.471897 C193.050334,200.820077 189.045299,206.217032 183.458276,208.359794 C189.095362,210.512568 193.100396,215.979613 193.100396,222.387871 C193.100396,228.796129 189.095362,234.263174 183.448263,236.414947 C189.095362,238.578735 193.100396,244.044779 193.100396,250.454039 C193.100396,256.862297 189.095362,262.329342 183.448263,264.482116 C189.095362,266.644903 193.100396,272.111948 193.100396,278.520206 C193.100396,284.928465 189.095362,290.39551 183.448263,292.548284 C189.095362,294.711071 193.100396,300.178116 193.100396,306.585373 C193.100396,312.984619 189.105374,318.441652 183.468288,320.614452 C189.015261,322.727174 193.010283,328.044026 193.130434,334.342142 C193.250585,340.239742 189.966457,345.4064 185.080315,347.95969 C190.407011,349.37151 194.762486,353.677058 195.953984,359.44449 C197.145481,365.211923 194.862612,370.889239 190.527162,374.293626 C196.034084,374.704155 201.100453,378.128568 203.33326,383.575587 C205.576079,389.022606 204.374569,395.020335 200.750013,399.17569 C206.226897,398.55489 211.843958,400.997037 215.037974,405.9344 C218.242001,410.880774 218.171913,417.008671 215.358376,421.7648 C220.635009,420.151721 226.612524,421.514477 230.657609,425.8 C234.712706,430.07551 235.754015,436.123303 233.861636,441.299974 C238.757791,438.755695 244.875481,439.006018 249.641473,442.481497 C254.407464,445.945961 256.530132,451.692366 255.608974,457.140387 C259.954437,453.734999 266.022064,452.87489 271.338748,455.407154 C276.656432,457.941419 279.799383,463.198194 279.899509,468.70529 C282.713046,465.511174 286.818206,463.59871 291.173682,463.59871 C292.44528,463.59871 293.746916,463.768929 295.028527,464.109368 L295.028527,464.109368 Z" id="Fill-88" fill="#D0D766" sketch:type="MSShapeGroup"></path>
            <path d="M178.086523,634.391804 C178.086523,599.816248 150.057288,571.784124 115.480823,571.784124 C111.672035,571.784124 107.948354,572.143587 104.326802,572.795427 C104.349831,572.307799 104.36485,571.819169 104.36485,571.324532 C104.36485,554.048268 90.3582423,540.042219 73.0825255,540.042219 C68.4827432,540.042219 64.1212605,541.04351 60.1893178,542.822803 C60.5547772,540.920351 60.7540277,538.960826 60.7540277,536.952237 C60.7540277,519.906271 46.9366583,506.090467 29.8922322,506.090467 C13.9722196,506.090467 0.872752675,518.145001 -0.788335431,533.621946 L-0.969563247,533.621946 L-0.969563247,697.000485 L115.480823,697.000485 C150.057288,697.000485 178.086523,668.969363 178.086523,634.391804" id="Fill-89" fill="#3B9F86" sketch:type="MSShapeGroup"></path>
            <path d="M113.179931,680.805615 C112.084554,680.805615 111.026223,680.955809 110.009946,681.210137 C111.904327,676.495061 112.957651,671.34943 112.957651,665.958483 C112.957651,643.347345 94.6286104,625.018725 72.0211913,625.018725 C70.8837615,625.018725 69.7603493,625.077801 68.6459484,625.166916 C65.9055035,614.552237 56.2663864,606.712134 44.7969685,606.712134 C42.882562,606.712134 41.0242259,606.938426 39.2369792,607.350957 C40.3143335,604.157843 40.9080799,600.743443 40.9080799,597.185858 C40.9080799,579.644253 26.6882045,565.423928 9.14615293,565.423928 C5.60670359,565.423928 2.20843172,566.010684 -0.969563247,567.081063 L-0.969563247,706.895236 L113.179931,706.895236 C120.383987,706.895236 126.224329,701.055711 126.224329,693.849425 C126.224329,686.645141 120.383987,680.805615 113.179931,680.805615 L113.179931,680.805615 Z M33.1293014,653.17601 L33.1293014,653.040836 L33.1673493,653.060862 L33.1293014,653.17601 L33.1293014,653.17601 Z" id="Fill-90" fill="#3BB67D" sketch:type="MSShapeGroup"></path>
            <path d="M52.4766224,709.112093 C52.4766224,722.797729 63.5705683,733.892026 77.2567728,733.892026 C90.9419761,733.892026 102.036923,722.797729 102.036923,709.112093 C102.036923,695.425455 90.9419761,684.331159 77.2567728,684.331159 C63.5705683,684.331159 52.4766224,695.425455 52.4766224,709.112093" id="Fill-91" fill="#4FC1B3" sketch:type="MSShapeGroup"></path>
            <path d="M-21.1118836,730.62081 C-21.1118836,755.014245 -1.33802643,774.788728 23.0546369,774.788728 C47.4473002,774.788728 67.2211573,755.014245 67.2211573,730.62081 C67.2211573,706.227375 47.4473002,686.451892 23.0546369,686.451892 C-1.33802643,686.451892 -21.1118836,706.227375 -21.1118836,730.62081" id="Fill-92" fill="#4FC1B3" sketch:type="MSShapeGroup"></path>
            <path d="M26.3157363,682.596924 C26.3157363,668.81216 37.4897829,657.63776 51.2741108,657.63776 C65.0584386,657.63776 76.2324852,668.81216 76.2324852,682.596924 C76.2324852,696.381688 65.0584386,707.557089 51.2741108,707.557089 C37.4897829,707.557089 26.3157363,696.381688 26.3157363,682.596924" id="Fill-93" fill="#4FC1B3" sketch:type="MSShapeGroup"></path>
            <path d="M1358.26509,558.792382 C1358.26509,543.862142 1346.16288,531.758545 1331.23211,531.758545 C1316.30234,531.758545 1304.20013,543.862142 1304.20013,558.792382 L1304.20013,752.719288 L1358.26509,752.719288 L1358.26509,558.792382" id="Fill-94" fill="#FFFFFF" sketch:type="MSShapeGroup"></path>
            <path d="M616.849079,53.2208723 C616.849079,61.9371045 609.782195,69.0052129 601.066239,69.0052129 L561.275218,69.0052129 C552.559262,69.0052129 545.491377,61.9371045 545.491377,53.2208723 C545.491377,44.50464 552.559262,37.4385342 561.275218,37.4385342 L601.066239,37.4385342 C609.782195,37.4385342 616.849079,44.50464 616.849079,53.2208723" id="Fill-95" fill="#D7F4FF" sketch:type="MSShapeGroup"></path>
            <path d="M708.462243,87.0634839 C708.462243,99.0909832 698.711986,108.839546 686.684867,108.839546 L537.070792,108.839546 C525.044674,108.839546 515.295419,99.0909832 515.295419,87.0634839 C515.295419,75.0369858 525.044674,65.2874219 537.070792,65.2874219 L686.684867,65.2874219 C698.711986,65.2874219 708.462243,75.0369858 708.462243,87.0634839" id="Fill-96" fill="#D7F4FF" sketch:type="MSShapeGroup"></path>
            <path d="M602.398914,87.0634839 C602.398914,99.0909832 592.65066,108.839546 580.624542,108.839546 L537.070792,108.839546 C525.044674,108.839546 515.295419,99.0909832 515.295419,87.0634839 C515.295419,75.0369858 525.044674,65.2874219 537.070792,65.2874219 L580.624542,65.2874219 C592.65066,65.2874219 602.398914,75.0369858 602.398914,87.0634839" id="Fill-97" fill="#FFFFFF" sketch:type="MSShapeGroup"></path>
            <path d="M577.05906,53.2208723 C577.05906,61.9391071 569.993177,69.0052129 561.275218,69.0052129 C552.559262,69.0052129 545.491377,61.9391071 545.491377,53.2208723 C545.491377,44.5036387 552.559262,37.4385342 561.275218,37.4385342 C569.993177,37.4385342 577.05906,44.5036387 577.05906,53.2208723" id="Fill-98" fill="#FFFFFF" sketch:type="MSShapeGroup"></path>
            <path d="M746.573151,123.607577 C746.573151,132.318803 739.513276,139.377899 730.803327,139.377899 L651.208271,139.377899 C642.500324,139.377899 635.438447,132.318803 635.438447,123.607577 C635.438447,114.899355 642.500324,107.837254 651.208271,107.837254 L730.803327,107.837254 C739.513276,107.837254 746.573151,114.899355 746.573151,123.607577" id="Fill-99" fill="#D7F4FF" sketch:type="MSShapeGroup"></path>
            <path d="M635.438447,123.607577 C635.438447,114.899355 642.500324,107.837254 651.208271,107.837254 L662.65466,107.837254 C671.362606,107.837254 678.424483,114.899355 678.424483,123.607577 C678.424483,132.318803 671.362606,139.377899 662.65466,139.377899 L651.208271,139.377899 C642.500324,139.377899 635.438447,132.318803 635.438447,123.607577" id="Fill-100" fill="#FFFFFF" sketch:type="MSShapeGroup"></path>
            <path d="M578.160444,156.901481 C578.160444,149.553012 572.202955,143.595334 564.854718,143.595334 C557.504478,143.595334 551.545988,149.553012 551.545988,156.901481 C551.545988,164.250952 557.504478,170.209631 564.854718,170.209631 C572.202955,170.209631 578.160444,164.250952 578.160444,156.901481" id="Fill-101" fill="#FFFFFF" sketch:type="MSShapeGroup"></path>
        </g>
    </g>
</svg>