<?xml version="1.0" encoding="UTF-8" standalone="no"?>
<svg width="1440px" height="752px" viewBox="0 0 1440 752" version="1.1" xmlns="http://www.w3.org/2000/svg" xmlns:xlink="http://www.w3.org/1999/xlink" xmlns:sketch="http://www.bohemiancoding.com/sketch/ns">
    <!-- Generator: Sketch 3.3.2 (12043) - http://www.bohemiancoding.com/sketch -->
    <title>generic-piano</title>
    <desc>Created with Sketch.</desc>
    <defs></defs>
    <g id="Page-1" stroke="none" stroke-width="1" fill="none" fill-rule="evenodd" sketch:type="MSPage">
        <g id="generic-piano" sketch:type="MSArtboardGroup">
            <g id="shadow-copy" sketch:type="MSLayerGroup" transform="translate(473.000000, 653.000000)" fill="#999999">
                <path d="M414.752,54.04 L75.056,54.04 C68.335,54.04 62.889,59.486 62.889,66.207 C62.889,72.927 68.335,78.375 75.056,78.375 L414.752,78.375 C421.473,78.375 426.92,72.927 426.92,66.207 C426.92,59.486 421.473,54.04 414.752,54.04" id="Fill-1" sketch:type="MSShapeGroup"></path>
                <path d="M481.89,0.211 L12.24,0.211 C5.521,0.211 0.075,5.657 0.075,12.376 C0.075,19.096 5.521,24.543 12.24,24.543 L481.89,24.543 C488.61,24.543 494.057,19.096 494.057,12.376 C494.057,5.657 488.61,0.211 481.89,0.211" id="Fill-2" sketch:type="MSShapeGroup"></path>
            </g>
            <g id="Imported-Layers" sketch:type="MSLayerGroup" transform="translate(485.000000, 472.000000)">
                <path d="M450.976,16.101 C450.976,7.721 444.183,0.929 435.804,0.929 L36.196,0.929 C27.817,0.929 21.024,7.721 21.024,16.101 L21.024,110.484 L450.976,110.484 L450.976,16.101" id="Fill-1" fill="#392722" sketch:type="MSShapeGroup"></path>
                <path d="M236.667,13.044 L273,13.044 L273,56.595 L236.667,56.595 L236.667,13.044 Z" id="Fill-2" fill="#FFFFFF" sketch:type="MSShapeGroup"></path>
                <path d="M240.25,16.727 L269.417,16.727 L269.417,19.576 L240.25,19.576 L240.25,16.727 Z" id="Fill-3" fill="#323232" sketch:type="MSShapeGroup"></path>
                <path d="M240.25,22.381 L269.417,22.381 L269.417,25.23 L240.25,25.23 L240.25,22.381 Z" id="Fill-4" fill="#323232" sketch:type="MSShapeGroup"></path>
                <path d="M240.25,28.035 L269.417,28.035 L269.417,30.884 L240.25,30.884 L240.25,28.035 Z" id="Fill-5" fill="#323232" sketch:type="MSShapeGroup"></path>
                <path d="M240.25,33.689 L269.417,33.689 L269.417,36.539 L240.25,36.539 L240.25,33.689 Z" id="Fill-6" fill="#323232" sketch:type="MSShapeGroup"></path>
                <path d="M240.25,39.343 L269.417,39.343 L269.417,42.193 L240.25,42.193 L240.25,39.343 Z" id="Fill-7" fill="#323232" sketch:type="MSShapeGroup"></path>
                <path d="M240.25,44.997 L269.417,44.997 L269.417,47.846 L240.25,47.846 L240.25,44.997 Z" id="Fill-8" fill="#323232" sketch:type="MSShapeGroup"></path>
                <path d="M240.25,50.651 L269.417,50.651 L269.417,53.5 L240.25,53.5 L240.25,50.651 Z" id="Fill-9" fill="#323232" sketch:type="MSShapeGroup"></path>
                <path d="M286.333,24.939 L322.666,24.939 L322.666,68.49 L286.333,68.49 L286.333,24.939 Z" id="Fill-10" fill="#FFFFFF" sketch:type="MSShapeGroup"></path>
                <path d="M289.916,28.622 L319.083,28.622 L319.083,31.471 L289.916,31.471 L289.916,28.622 Z" id="Fill-11" fill="#323232" sketch:type="MSShapeGroup"></path>
                <path d="M289.916,34.276 L319.083,34.276 L319.083,37.125 L289.916,37.125 L289.916,34.276 Z" id="Fill-12" fill="#323232" sketch:type="MSShapeGroup"></path>
                <path d="M289.916,39.93 L319.083,39.93 L319.083,42.779 L289.916,42.779 L289.916,39.93 Z" id="Fill-13" fill="#323232" sketch:type="MSShapeGroup"></path>
                <path d="M289.916,45.584 L319.083,45.584 L319.083,48.434 L289.916,48.434 L289.916,45.584 Z" id="Fill-14" fill="#323232" sketch:type="MSShapeGroup"></path>
                <path d="M289.916,51.238 L319.083,51.238 L319.083,54.087 L289.916,54.087 L289.916,51.238 Z" id="Fill-15" fill="#323232" sketch:type="MSShapeGroup"></path>
                <path d="M289.916,56.893 L319.083,56.893 L319.083,59.742 L289.916,59.742 L289.916,56.893 Z" id="Fill-16" fill="#323232" sketch:type="MSShapeGroup"></path>
                <path d="M289.916,62.547 L319.083,62.547 L319.083,65.396 L289.916,65.396 L289.916,62.547 Z" id="Fill-17" fill="#323232" sketch:type="MSShapeGroup"></path>
                <path d="M21.024,110.484 L450.975,110.484 L450.975,192.223 L21.024,192.223 L21.024,110.484 Z" id="Fill-18" fill="#000000" sketch:type="MSShapeGroup"></path>
                <path d="M6.444,77.345 L29.839,77.345 L29.839,192.224 L6.444,192.224 L6.444,77.345 Z" id="Fill-19" fill="#392722" sketch:type="MSShapeGroup"></path>
                <path d="M442.162,77.345 L465.556,77.345 L465.556,192.224 L442.162,192.224 L442.162,77.345 Z" id="Fill-20" fill="#392722" sketch:type="MSShapeGroup"></path>
                <path d="M471.488,60.454 C471.488,58.322 469.761,56.595 467.629,56.595 L4.371,56.595 C2.239,56.595 0.512,58.322 0.512,60.454 L0.512,85.018 C0.512,87.149 2.239,88.877 4.371,88.877 L467.236,88.877 C469.585,88.877 471.488,86.974 471.488,84.625 L471.488,60.454" id="Fill-21" fill="#6E3F30" sketch:type="MSShapeGroup"></path>
                <path d="M433,78.876 L37.49,78.876 L37.49,74.454 C37.49,72.322 39.218,70.595 41.35,70.595 L429.141,70.595 C431.273,70.595 433,72.322 433,74.454 L433,78.876" id="Fill-22" fill="#323232" sketch:type="MSShapeGroup"></path>
                <path d="M447.49,82.735 C447.49,80.605 445.763,78.876 443.631,78.876 L26.859,78.876 C24.728,78.876 23,80.605 23,82.735 L23,88.729 L447.49,88.729 L447.49,82.735" id="Fill-23" fill="#FFFFFF" sketch:type="MSShapeGroup"></path>
                <path d="M69.2,164.091 L402.8,164.091 L402.8,199.514 L69.2,199.514 L69.2,164.091 Z" id="Fill-24" fill="#392722" sketch:type="MSShapeGroup"></path>
                <path d="M69.2,172.515 L89.87,172.515 L89.87,246.125 L69.2,246.125 L69.2,172.515 Z" id="Fill-25" fill="#392722" sketch:type="MSShapeGroup"></path>
                <path d="M382.13,172.515 L402.8,172.515 L402.8,246.125 L382.13,246.125 L382.13,172.515 Z" id="Fill-26" fill="#392722" sketch:type="MSShapeGroup"></path>
                <path d="M410.3,153.472 C410.3,151.34 408.572,149.612 406.44,149.612 L65.56,149.612 C63.428,149.612 61.7,151.34 61.7,153.472 L61.7,174.71 C61.7,176.842 63.428,178.569 65.56,178.569 L406.44,178.569 C408.572,178.569 410.3,176.842 410.3,174.71 L410.3,153.472" id="Fill-27" fill="#6E3F30" sketch:type="MSShapeGroup"></path>
            </g>
            <g id="Imported-EPS" sketch:type="MSLayerGroup">
                <g id="Page-1" sketch:type="MSShapeGroup">
                    <path d="M266.301,438.301 C266.301,454.869 279.732,468.301 296.301,468.301 L305.95,468.301 C322.519,468.301 335.95,454.869 335.95,438.301 L335.95,379.59 C335.95,363.021 322.519,349.59 305.95,349.59 L296.301,349.59 C279.732,349.59 266.301,363.021 266.301,379.59 L266.301,438.301" id="Fill-1" fill="#383B33"></path>
                    <path d="M435.776,104.342 C435.776,137.842 445.434,158.342 445.434,158.342 L413.936,158.342 L435.776,104.342" id="Fill-2" fill="#383B33"></path>
                    <path d="M537.555,402.919 L575.031,417.769 C580.719,420.021 587.21,418.305 591.04,413.535 C594.87,408.765 595.144,402.055 591.715,396.988 L551.055,336.923 L537.555,402.919" id="Fill-3" fill="#383B33"></path>
                    <path d="M443.432,20.613 C443.432,41.002 435.776,47.889 435.776,86.413 L435.776,166.943 L354.897,154.465 L354.919,154.463 C369.595,152.193 380.451,138.35 380.451,121.964 L380.451,86.413 C380.451,44.975 387.231,23.526 402.599,7.99 C417.967,-7.546 443.432,1.194 443.432,20.613" id="Fill-4" fill="#383B33"></path>
                    <path d="M560.066,441.283 C565.379,444.666 572.301,444.067 576.953,439.822 C581.607,435.576 582.836,428.738 579.952,423.139 L574.86,413.25 C564.469,393.066 559.047,370.692 559.047,347.99 L559.047,285.643 C559.047,209.83 497.59,148.373 421.778,148.373 L397.08,148.373 C310.94,148.373 241.11,218.203 241.11,304.343 L241.11,353.738 L241.335,353.734 L241.335,424.816 C241.335,441.385 254.767,454.816 271.335,454.816 L272.066,454.816 C288.635,454.816 302.066,441.385 302.066,424.816 L302.066,361.062 C302.066,356.385 305.813,352.568 310.49,352.484 C312.793,352.442 315.015,353.328 316.657,354.941 C318.301,356.555 319.226,358.76 319.226,361.062 L319.226,434.061 C319.226,441.019 324.865,446.659 331.824,446.659 C338.78,446.659 344.421,441.019 344.421,434.061 L344.421,338.624 C344.421,295.39 379.469,260.342 422.703,260.342 C464.372,260.342 498.738,292.983 500.882,334.597 L501.171,340.216 C503.295,381.449 525.239,419.106 560.066,441.283" id="Fill-5" fill="#51534B"></path>
                    <path d="M65.006,445.977 L762.99,445.977 L762.99,555.144 L65.006,555.144 L65.006,445.977 Z" id="Fill-6" fill="#383B33"></path>
                    <path d="M48.998,445.977 L778.998,445.977 L778.998,459.462 L48.998,459.462 L48.998,445.977 Z" id="Fill-7" fill="#74766E"></path>
                    <path d="M0.998,493.484 L826.998,493.484 L826.998,555.144 L0.998,555.144 L0.998,493.484 Z" id="Fill-8" fill="#A6A7A1"></path>
                    <path d="M152.998,493.484 L826.998,493.484 L826.998,555.144 L152.998,555.144 L152.998,493.484 Z" id="Fill-9" fill="#C3C4BE"></path>
                </g>
            </g>
        </g>
    </g>
</svg>