<?xml version="1.0" encoding="UTF-8" standalone="no"?>
<svg width="1440px" height="752px" viewBox="0 0 1440 752" version="1.1" xmlns="http://www.w3.org/2000/svg" xmlns:xlink="http://www.w3.org/1999/xlink" xmlns:sketch="http://www.bohemiancoding.com/sketch/ns">
    <!-- Generator: Sketch 3.3.2 (12043) - http://www.bohemiancoding.com/sketch -->
    <title>library</title>
    <desc>Created with Sketch.</desc>
    <defs></defs>
    <g id="Page-1" stroke="none" stroke-width="1" fill="none" fill-rule="evenodd" sketch:type="MSPage">
        <g id="library" sketch:type="MSArtboardGroup">
            <g id="Imported-Layers" sketch:type="MSLayerGroup" transform="translate(-2.000000, -1.000000)">
                <path d="M2.826,665.378 L1442.826,665.378 L1442.907,0.748 L2.826,0.748 L2.826,665.378" id="Fill-1" fill="#28D2FF" sketch:type="MSShapeGroup"></path>
                <path d="M1428.244,116.083 C1428.244,125.61 1420.522,133.333 1410.996,133.333 L1285.002,133.333 C1275.475,133.333 1267.752,125.61 1267.752,116.083 C1267.752,106.558 1275.475,98.835 1285.002,98.835 L1410.996,98.835 C1420.522,98.835 1428.244,106.558 1428.244,116.083" id="Fill-2" fill="#D7F4FF" sketch:type="MSShapeGroup"></path>
                <path d="M1225.23,148.255 C1225.23,157.048 1232.359,164.177 1241.153,164.177 L1325.326,164.177 C1334.119,164.177 1341.248,157.048 1341.248,148.255 C1341.248,139.46 1334.119,132.332 1325.326,132.332 L1241.153,132.332 C1232.359,132.332 1225.23,139.46 1225.23,148.255" id="Fill-3" fill="#D7F4FF" sketch:type="MSShapeGroup"></path>
                <path d="M1273.172,148.255 C1273.172,157.048 1266.043,164.177 1257.25,164.177 L1235.668,164.177 C1226.874,164.177 1219.746,157.048 1219.746,148.255 C1219.746,139.461 1226.874,132.333 1235.668,132.333 L1257.25,132.333 C1266.043,132.333 1273.172,139.461 1273.172,148.255" id="Fill-4" fill="#FFFFFF" sketch:type="MSShapeGroup"></path>
                <path d="M1300.539,116.084 C1300.539,125.61 1292.816,133.333 1283.289,133.333 C1273.764,133.333 1266.041,125.61 1266.041,116.084 C1266.041,106.558 1273.764,98.835 1283.289,98.835 C1292.816,98.835 1300.539,106.558 1300.539,116.084" id="Fill-5" fill="#FFFFFF" sketch:type="MSShapeGroup"></path>
                <path d="M1085.887,58.161 C1085.887,66.866 1078.828,73.925 1070.123,73.925 L1030.383,73.925 C1021.678,73.925 1014.619,66.866 1014.619,58.161 C1014.619,49.456 1021.678,42.398 1030.383,42.398 L1070.123,42.398 C1078.828,42.398 1085.887,49.456 1085.887,58.161" id="Fill-6" fill="#D7F4FF" sketch:type="MSShapeGroup"></path>
                <path d="M1177.385,91.96 C1177.385,103.972 1167.646,113.708 1155.635,113.708 L1006.208,113.708 C994.197,113.708 984.461,103.972 984.461,91.96 C984.461,79.948 994.197,70.212 1006.208,70.212 L1155.635,70.212 C1167.646,70.212 1177.385,79.948 1177.385,91.96" id="Fill-7" fill="#D7F4FF" sketch:type="MSShapeGroup"></path>
                <path d="M1071.455,91.96 C1071.455,103.972 1061.719,113.708 1049.707,113.708 L1006.208,113.708 C994.197,113.708 984.461,103.972 984.461,91.96 C984.461,79.948 994.197,70.212 1006.208,70.212 L1049.707,70.212 C1061.719,70.212 1071.455,79.948 1071.455,91.96" id="Fill-8" fill="#FFFFFF" sketch:type="MSShapeGroup"></path>
                <path d="M1046.146,58.161 C1046.146,66.868 1039.09,73.925 1030.383,73.925 C1021.678,73.925 1014.619,66.868 1014.619,58.161 C1014.619,49.455 1021.678,42.398 1030.383,42.398 C1039.09,42.398 1046.146,49.455 1046.146,58.161" id="Fill-9" fill="#FFFFFF" sketch:type="MSShapeGroup"></path>
                <path d="M1215.447,129.458 C1215.447,138.157 1208.397,145.208 1199.697,145.208 L1120.203,145.208 C1111.506,145.208 1104.453,138.157 1104.453,129.458 C1104.453,120.761 1111.506,113.708 1120.203,113.708 L1199.697,113.708 C1208.397,113.708 1215.447,120.761 1215.447,129.458" id="Fill-10" fill="#D7F4FF" sketch:type="MSShapeGroup"></path>
                <path d="M1104.453,129.458 C1104.453,120.761 1111.506,113.708 1120.203,113.708 L1131.635,113.708 C1140.331,113.708 1147.385,120.761 1147.385,129.458 C1147.385,138.157 1140.331,145.208 1131.635,145.208 L1120.203,145.208 C1111.506,145.208 1104.453,138.157 1104.453,129.458" id="Fill-11" fill="#FFFFFF" sketch:type="MSShapeGroup"></path>
                <path d="M1047.246,161.708 C1047.246,154.368 1041.297,148.419 1033.957,148.419 C1026.617,148.419 1020.666,154.368 1020.666,161.708 C1020.666,169.047 1026.617,174.999 1033.957,174.999 C1041.297,174.999 1047.246,169.047 1047.246,161.708" id="Fill-12" fill="#FFFFFF" sketch:type="MSShapeGroup"></path>
                <path d="M283.573,76.153 C283.573,89.408 272.828,100.152 259.575,100.152 L144.687,100.152 C131.433,100.152 120.688,89.408 120.688,76.153 C120.688,62.899 131.433,52.154 144.687,52.154 L259.575,52.154 C272.828,52.154 283.573,62.899 283.573,76.153" id="Fill-13" fill="#D7F4FF" sketch:type="MSShapeGroup"></path>
                <path d="M355.576,115.328 C355.576,124.263 348.333,131.506 339.399,131.506 L199.827,131.506 C190.892,131.506 183.649,124.263 183.649,115.328 C183.649,106.394 190.891,99.15 199.827,99.15 L339.399,99.15 C348.333,99.15 355.576,106.394 355.576,115.328" id="Fill-14" fill="#D7F4FF" sketch:type="MSShapeGroup"></path>
                <path d="M241.575,115.329 C241.575,124.263 234.333,131.506 225.398,131.506 L184.419,131.506 C175.485,131.506 168.242,124.263 168.242,115.329 C168.242,106.394 175.485,99.151 184.419,99.151 L225.397,99.151 C234.332,99.151 241.575,106.395 241.575,115.329" id="Fill-15" fill="#FFFFFF" sketch:type="MSShapeGroup"></path>
                <path d="M221.182,76.153 C221.182,89.408 210.438,100.152 197.182,100.152 L144.687,100.152 C131.433,100.152 120.688,89.408 120.688,76.153 C120.688,62.899 131.433,52.154 144.687,52.154 L197.182,52.154 C210.438,52.154 221.182,62.899 221.182,76.153" id="Fill-16" fill="#FFFFFF" sketch:type="MSShapeGroup"></path>
                <path d="M105.74,116.008 C105.74,108.552 99.697,102.508 92.24,102.508 C84.784,102.508 78.74,108.552 78.74,116.008 C78.74,123.464 84.784,129.508 92.24,129.508 C99.697,129.508 105.74,123.464 105.74,116.008" id="Fill-17" fill="#FFFFFF" sketch:type="MSShapeGroup"></path>
                <path d="M1205.551,197 L1345.905,197 L1345.905,675.984 L1205.551,675.984 L1205.551,197 Z" id="Fill-18" fill="#6D8994" sketch:type="MSShapeGroup"></path>
                <path d="M1326.405,349.993 L1442.825,349.993 L1442.825,675.985 L1326.405,675.985 L1326.405,349.993 Z" id="Fill-19" fill="#6D8994" sketch:type="MSShapeGroup"></path>
                <path d="M187.982,359.581 L343.401,359.581 L343.401,614.49 L187.982,614.49 L187.982,359.581 Z" id="Fill-20" fill="#6D8994" sketch:type="MSShapeGroup"></path>
                <path d="M0.471,176.463 L118.965,176.463 L118.965,614.488 L0.471,614.488 L0.471,176.463 Z" id="Fill-21" fill="#6D8994" sketch:type="MSShapeGroup"></path>
                <path d="M1219.295,664.972 L1219.295,604.427 L3.267,604.427 L3.267,662.373 L2.826,662.373 L2.826,752.748 L1442.907,752.748 L1442.826,664.972 L1219.295,664.972" id="Fill-22" fill="#C7C7C4" sketch:type="MSShapeGroup"></path>
                <path d="M1146.382,39.704 C1104.58,158.257 1024.6,189.834 1024.6,189.834 L1024.6,604.426 L1072.493,604.426 C1093.559,604.426 1113.213,615.016 1124.8,632.607 L1146.382,665.374 L1146.382,39.704" id="Fill-23" fill="#BF957B" sketch:type="MSShapeGroup"></path>
                <path d="M1174.263,39.704 L1221.742,39.704 L1221.742,665.377 L1174.263,665.377 L1174.263,39.704 Z" id="Fill-24" fill="#BF957B" sketch:type="MSShapeGroup"></path>
                <path d="M299.274,270.106 C299.274,270.106 424.104,154.198 603.236,152.442 C782.368,150.686 963.256,186.688 1011.551,256.058 L1011.551,604.426 L299.274,604.426 L299.274,270.106" id="Fill-25" fill="#BF957B" sketch:type="MSShapeGroup"></path>
                <path d="M286.216,207.624 L286.215,207.626 L286.215,604.426 L312.337,604.426 L312.337,568.167 C312.337,559.785 316.139,551.823 322.666,546.564 L322.741,546.504 C325.792,544.048 329.984,543.562 333.517,545.255 C337.05,546.948 339.291,550.518 339.291,554.435 L339.291,604.426 L365.412,604.426 L365.412,531.434 C365.412,524.367 369.569,517.947 376.017,515.059 L376.021,515.057 C379.198,513.634 382.881,513.917 385.801,515.81 C388.722,517.705 390.479,520.949 390.479,524.43 L390.479,604.426 L416.601,604.426 L416.601,59.844 C336.897,95.212 286.218,148.285 286.216,207.624 L286.216,207.624 Z M321.453,175.852 C324.288,172.702 328.77,171.624 332.726,173.143 C336.681,174.661 339.291,178.461 339.291,182.698 L339.291,200.227 C339.291,207.647 336.075,214.724 330.48,219.597 L330.463,219.612 C327.229,222.431 322.646,223.1 318.742,221.322 C314.838,219.545 312.337,215.65 312.337,211.361 L312.337,199.614 C312.337,190.845 315.579,182.382 321.444,175.861 L321.453,175.852 L321.453,175.852 Z M312.336,296.208 C312.336,287.632 315.762,279.41 321.855,273.373 L321.858,273.371 C324.792,270.464 329.185,269.606 332.996,271.195 C336.808,272.785 339.29,276.51 339.29,280.639 L339.29,313.286 C339.29,320.792 335.686,327.878 329.614,332.29 L329.607,332.295 C326.295,334.701 321.914,335.046 318.268,333.187 C314.622,331.326 312.336,327.579 312.336,323.486 L312.336,296.208 L312.336,296.208 Z M328.605,484.172 C325.502,486.458 321.375,486.804 317.936,485.064 C314.497,483.324 312.337,479.797 312.337,475.941 L312.337,404.312 C312.337,395.931 316.139,387.969 322.665,382.709 L322.67,382.706 C325.733,380.237 329.942,379.747 333.49,381.446 C337.039,383.145 339.29,386.73 339.29,390.665 L339.29,463.034 C339.29,471.358 335.325,479.223 328.623,484.16 L328.605,484.172 L328.605,484.172 Z M390.479,439.196 C390.479,446.32 386.248,452.776 379.714,455.617 L379.698,455.624 C376.54,456.998 372.901,456.688 370.021,454.798 C367.142,452.908 365.412,449.695 365.412,446.251 L365.412,364.625 C365.412,359.406 368.458,354.654 373.202,352.479 L373.207,352.476 C376.983,350.743 381.382,351.053 384.877,353.297 C388.372,355.541 390.479,359.41 390.479,363.564 L390.479,439.196 L390.479,439.196 Z M390.479,289.102 C390.479,295.607 386.606,301.495 380.633,304.072 L380.602,304.086 C377.238,305.537 373.369,305.199 370.309,303.185 C367.249,301.172 365.412,297.754 365.412,294.09 L365.412,249.938 C365.412,243.935 368.68,238.381 373.933,235.475 L373.977,235.45 C377.424,233.543 381.622,233.602 385.015,235.603 C388.408,237.606 390.479,241.253 390.479,245.192 L390.479,289.102 L390.479,289.102 Z M390.479,169.618 C390.479,176.571 386.613,182.975 380.455,186.204 L380.439,186.212 C377.257,187.882 373.431,187.766 370.357,185.904 C367.282,184.043 365.412,180.709 365.412,177.115 L365.412,146.057 C365.412,141.377 367.824,137.004 371.787,134.516 L371.812,134.5 C375.57,132.14 380.316,132.008 384.198,134.158 C388.081,136.308 390.479,140.396 390.479,144.834 L390.479,169.618 L390.479,169.618 Z" id="Fill-26" fill="#FFC7A4" sketch:type="MSShapeGroup"></path>
                <path d="M661.679,14.826 C584.38,14.826 512.705,27.558 453.728,49.273 L453.728,604.426 L479.85,604.426 L479.85,497.549 C479.85,490.301 484.938,484.036 492.035,482.569 C493.194,482.33 494.356,482.093 495.522,481.858 C500.017,480.954 504.681,482.115 508.23,485.019 C511.779,487.922 513.852,492.268 513.852,496.854 L513.852,604.426 L539.974,604.426 L539.974,487.792 C539.974,480.065 545.737,473.54 553.406,472.608 C570.864,470.489 588.884,468.871 607.357,467.793 C611.564,467.547 615.685,469.048 618.749,471.941 C621.813,474.834 623.544,478.862 623.544,483.076 L623.544,604.426 L649.665,604.426 L649.665,482.261 C649.665,478.037 651.369,473.993 654.389,471.04 C657.408,468.087 661.492,466.47 665.714,466.565 C682.943,466.955 710.427,467.75 730.755,468.93 C739.061,469.411 745.525,476.275 745.525,484.596 L745.525,604.426 L771.645,604.426 L771.645,490.781 C771.645,486.223 773.63,481.89 777.079,478.907 C780.527,475.925 785.107,474.573 789.618,475.235 C807.622,477.876 824.948,481.059 841.47,484.731 C848.656,486.328 853.742,492.688 853.742,500.05 L853.742,604.426 L879.864,604.426 L879.864,515.975 C879.864,510.914 882.305,506.164 886.419,503.217 C890.533,500.27 895.818,499.484 900.609,501.113 C911.387,504.776 921.609,508.684 931.22,512.812 C936.983,515.288 940.722,520.965 940.722,527.238 L940.722,604.426 L966.844,604.426 L966.844,553.242 C966.844,548.695 969.421,544.54 973.495,542.519 C977.569,540.498 982.439,540.957 986.058,543.711 L986.088,543.734 C994.868,550.42 1000.014,560.829 1000.014,571.865 L1000.014,604.426 L1026.136,604.426 L1026.136,207.626 C1026.136,101.146 862.964,14.826 661.679,14.826 L661.679,14.826 Z M940.722,289.168 C940.722,293.299 938.669,297.159 935.244,299.469 C931.819,301.779 927.468,302.239 923.639,300.689 C913.242,296.482 902.19,292.523 890.542,288.842 C884.179,286.829 879.863,280.93 879.863,274.255 L879.863,220.587 C879.863,215.607 882.288,210.938 886.362,208.074 C890.437,205.21 895.652,204.505 900.338,206.19 C911.428,210.182 921.932,214.444 931.788,218.956 C937.23,221.446 940.722,226.888 940.722,232.873 L940.722,289.168 L940.722,289.168 Z M966.844,263.89 C966.844,258.708 969.847,253.996 974.544,251.807 C979.241,249.619 984.783,250.349 988.748,253.684 C989.206,254.069 989.66,254.455 990.11,254.842 C996.4,260.248 1000.014,268.133 1000.014,276.428 L1000.014,318.745 C1000.014,323.699 997.266,328.244 992.88,330.547 C988.493,332.85 983.188,332.534 979.113,329.716 L979.094,329.703 C971.419,324.397 966.844,315.654 966.844,306.323 L966.844,263.89 L966.844,263.89 Z M607.301,170.953 C611.516,170.691 615.652,172.185 618.727,175.079 C621.804,177.973 623.542,182.01 623.542,186.233 L623.542,243.457 C623.542,251.564 617.217,258.271 609.123,258.729 C591.315,259.732 573.923,261.238 557.046,263.212 C552.706,263.719 548.357,262.347 545.095,259.439 C541.833,256.533 539.973,252.37 539.973,248.001 L539.973,191.24 C539.973,183.557 545.673,177.054 553.294,176.071 C570.768,173.818 588.808,172.099 607.301,170.953 L607.301,170.953 Z M557.15,135.59 C552.796,136.129 548.42,134.773 545.134,131.865 C541.848,128.957 539.973,124.778 539.973,120.391 L539.973,89.674 C539.973,82.181 545.384,75.823 552.776,74.602 C570.324,71.7 588.443,69.486 607.02,68.011 C611.275,67.673 615.475,69.129 618.611,72.022 C621.747,74.917 623.544,78.991 623.544,83.258 L623.544,115.591 C623.544,123.69 617.246,130.361 609.161,130.845 C591.376,131.909 574.007,133.502 557.15,135.59 L557.15,135.59 Z M649.665,181.268 C649.665,174.633 655.042,169.254 661.677,169.254 L661.679,169.254 C686.624,169.254 710.983,170.294 734.518,172.275 C740.735,172.798 745.525,177.994 745.525,184.233 L745.525,244.403 C745.525,248.654 743.755,252.711 740.643,255.606 C737.53,258.502 733.35,259.984 729.112,259.674 C707.258,258.073 684.72,257.233 661.679,257.233 L661.677,257.233 C658.491,257.233 655.435,255.968 653.182,253.715 C650.929,251.461 649.665,248.406 649.665,245.22 L649.665,181.268 L649.665,181.268 Z M771.645,193.925 C771.645,189.459 773.599,185.218 776.988,182.311 C780.378,179.402 784.874,178.106 789.287,178.791 C807.596,181.631 825.206,185.064 841.983,189.035 C848.889,190.67 853.742,196.823 853.742,203.92 L853.742,259.445 C853.742,264.06 851.658,268.426 848.074,271.331 C844.489,274.236 839.78,275.381 835.267,274.422 C819.139,270.997 802.277,268.035 784.795,265.581 C777.235,264.519 771.645,258.068 771.645,250.435 L771.645,193.925 L771.645,193.925 Z M784.693,138.098 C777.205,136.984 771.645,130.558 771.645,122.988 L771.645,93.116 C771.645,88.533 773.7,84.192 777.244,81.287 C780.787,78.381 785.447,77.221 789.942,78.115 C808.345,81.776 826.039,86.203 842.888,91.321 C849.329,93.278 853.742,99.22 853.742,105.951 L853.742,132.525 C853.742,137.174 851.627,141.57 847.996,144.473 C844.365,147.376 839.611,148.468 835.075,147.448 C818.974,143.826 802.142,140.693 784.693,138.098 L784.693,138.098 Z M890.302,162.704 C884.062,160.615 879.864,154.775 879.864,148.196 L879.864,127.383 C879.864,122.165 882.524,117.308 886.92,114.497 C891.315,111.686 896.843,111.304 901.578,113.496 C912.738,118.662 923.297,124.183 933.193,130.025 C937.849,132.775 940.722,137.798 940.722,143.206 L940.722,159.497 C940.722,164.608 938.169,169.381 933.919,172.219 C929.668,175.057 924.278,175.588 919.559,173.626 C910.29,169.773 900.525,166.125 890.302,162.704 L890.302,162.704 Z M734.797,69.708 C740.893,70.364 745.525,75.507 745.525,81.638 L745.525,120.148 C745.525,123.507 744.119,126.712 741.648,128.987 C739.177,131.262 735.867,132.396 732.518,132.122 C709.604,130.248 685.92,129.262 661.68,129.262 L661.678,129.262 C658.492,129.262 655.436,127.996 653.183,125.743 C650.93,123.49 649.665,120.435 649.665,117.248 L649.665,77.84 C649.665,71.206 655.044,65.826 661.68,65.826 C686.723,65.826 711.175,67.164 734.797,69.708 L734.797,69.708 Z M479.85,102.987 C479.85,96.141 484.402,90.118 490.991,88.263 C492.159,87.934 493.331,87.608 494.506,87.286 C499.109,86.023 504.037,86.981 507.832,89.876 C511.626,92.771 513.852,97.272 513.852,102.045 L513.852,129.612 C513.852,136.875 508.743,143.15 501.624,144.6 C500.506,144.827 499.391,145.058 498.279,145.29 C493.768,146.233 489.073,145.091 485.497,142.184 C481.922,139.276 479.85,134.911 479.85,130.303 L479.85,102.987 L479.85,102.987 Z M479.85,201.602 C479.85,194.424 484.842,188.199 491.853,186.661 C493.013,186.406 494.176,186.154 495.344,185.905 C499.86,184.939 504.569,186.067 508.16,188.97 C511.752,191.872 513.853,196.244 513.853,200.862 L513.853,256.706 C513.853,264.032 508.657,270.343 501.462,271.727 C500.341,271.941 499.224,272.159 498.111,272.379 C493.619,273.266 488.966,272.093 485.43,269.184 C481.895,266.275 479.85,261.935 479.85,257.356 L479.85,201.602 L479.85,201.602 Z M498.11,423.525 C493.618,424.412 488.965,423.239 485.43,420.33 C481.894,417.421 479.85,413.081 479.85,408.503 L479.85,333.693 C479.85,326.445 484.938,320.181 492.035,318.714 C494.68,318.168 497.343,317.634 500.026,317.111 C503.431,316.449 506.954,317.346 509.63,319.553 C512.305,321.761 513.851,325.05 513.851,328.518 L513.851,407.853 C513.851,415.18 508.655,421.49 501.46,422.873 C500.34,423.088 499.223,423.306 498.11,423.525 L498.11,423.525 Z M557.047,414.356 C552.708,414.864 548.358,413.491 545.096,410.585 C541.834,407.678 539.974,403.515 539.974,399.146 L539.974,323.936 C539.974,316.21 545.737,309.685 553.406,308.754 C570.864,306.633 588.884,305.016 607.357,303.938 C611.564,303.692 615.685,305.193 618.749,308.086 C621.811,310.979 623.543,315.008 623.543,319.222 L623.543,394.602 C623.543,402.709 617.218,409.416 609.124,409.873 C591.316,410.877 573.924,412.384 557.047,414.356 L557.047,414.356 Z M661.679,408.379 L661.677,408.379 C658.491,408.379 655.435,407.113 653.182,404.86 C650.929,402.607 649.665,399.551 649.665,396.365 L649.665,314.354 C649.665,307.721 655.042,302.341 661.677,302.341 L661.679,302.341 C686.609,302.341 710.953,303.321 734.475,305.186 C740.728,305.682 745.526,310.89 745.526,317.162 L745.526,399.09 C745.526,402.437 744.129,405.631 741.675,407.906 C739.219,410.181 735.924,411.339 732.587,411.081 C709.65,409.31 685.944,408.379 661.679,408.379 L661.679,408.379 Z M782.016,416.34 C776.059,415.524 771.645,410.449 771.645,404.437 L771.645,322.676 C771.645,319.197 773.155,315.891 775.78,313.607 C778.405,311.324 781.895,310.279 785.34,310.765 C805.954,313.674 825.703,317.289 844.4,321.536 C849.876,322.779 853.742,327.637 853.742,333.252 L853.742,414.658 C853.742,418.295 852.093,421.735 849.261,424.017 C846.43,426.299 842.713,427.184 839.16,426.407 C821.011,422.439 801.908,419.062 782.016,416.34 L782.016,416.34 Z M888.303,439.283 C883.278,437.72 879.863,433.073 879.863,427.811 L879.863,347.013 C879.863,343.161 881.71,339.544 884.829,337.284 C887.948,335.023 891.962,334.395 895.622,335.595 C909.123,340.02 921.792,344.82 933.523,349.956 C937.895,351.869 940.722,356.194 940.722,360.967 L940.722,440.922 C940.722,444.92 938.733,448.655 935.417,450.888 C932.102,453.121 927.891,453.562 924.188,452.057 C912.968,447.497 900.981,443.227 888.303,439.283 L888.303,439.283 Z M979.857,481.381 C971.697,475.683 966.843,466.351 966.843,456.397 L966.843,392.158 C966.843,387.052 969.76,382.395 974.354,380.165 C978.948,377.936 984.414,378.524 988.423,381.688 L988.456,381.715 C995.76,387.479 1000.014,396.275 1000.014,405.579 L1000.014,474.118 C1000.014,478.3 997.672,482.13 993.949,484.035 C990.225,485.941 985.747,485.604 982.357,483.155 C981.534,482.561 980.701,481.97 979.857,481.381 L979.857,481.381 Z M993.495,178.78 C997.709,183.671 1000.014,189.891 1000.014,196.346 L1000.014,203.646 C1000.014,207.152 998.006,210.349 994.848,211.871 C991.69,213.393 987.937,212.975 985.197,210.789 C981.915,208.172 978.454,205.6 974.82,203.075 C969.836,199.611 966.845,193.904 966.845,187.835 L966.845,183.853 C966.845,178.353 970.223,173.417 975.351,171.426 C980.478,169.436 986.305,170.797 990.015,174.857 C991.202,176.157 992.363,177.465 993.495,178.78 L993.495,178.78 Z" id="Fill-27" fill="#FFC7A4" sketch:type="MSShapeGroup"></path>
                <path d="M1216.989,39.704 L1216.989,51.322 C1216.989,57.957 1211.61,63.336 1204.976,63.336 L1191.031,63.336 C1184.396,63.336 1179.017,57.957 1179.017,51.322 L1179.017,39.704 L1146.382,39.704 L1146.382,665.377 L1179.017,665.377 L1179.017,327.41 C1179.017,320.775 1184.396,315.396 1191.031,315.396 L1204.976,315.396 C1211.61,315.396 1216.989,320.775 1216.989,327.41 L1216.989,665.377 L1249.623,665.377 L1249.623,39.704 L1216.989,39.704 L1216.989,39.704 Z M1204.976,88.214 C1211.61,88.214 1216.989,93.593 1216.989,100.228 L1216.989,135.906 C1216.989,142.541 1211.61,147.919 1204.976,147.919 L1191.031,147.919 C1184.397,147.919 1179.018,142.541 1179.018,135.906 L1179.018,100.228 C1179.018,93.593 1184.397,88.214 1191.031,88.214 L1204.976,88.214 L1204.976,88.214 Z M1191.031,290.519 C1184.396,290.519 1179.017,285.14 1179.017,278.505 L1179.017,184.811 C1179.017,178.177 1184.396,172.798 1191.031,172.798 L1204.976,172.798 C1211.61,172.798 1216.989,178.177 1216.989,184.811 L1216.989,278.505 C1216.989,285.14 1211.61,290.519 1204.976,290.519 L1191.031,290.519 L1191.031,290.519 Z" id="Fill-28" fill="#FFC7A4" sketch:type="MSShapeGroup"></path>
                <path d="M416.599,59.844 L453.727,59.844 L453.727,604.426 L416.599,604.426 L416.599,59.844 Z" id="Fill-29" fill="#BF957B" sketch:type="MSShapeGroup"></path>
                <path d="M224.97,683.571 C224.97,695.169 205.496,704.57 181.473,704.57 C157.45,704.57 137.976,695.169 137.976,683.571 C137.976,671.974 157.45,662.572 181.473,662.572 C205.496,662.572 224.97,671.974 224.97,683.571" id="Fill-30" fill="#815130" sketch:type="MSShapeGroup"></path>
                <path d="M197.972,471.873 C197.972,462.761 190.586,455.374 181.473,455.374 C172.361,455.374 164.974,462.761 164.974,471.873 L164.974,683.571 L197.972,683.571 L197.972,471.873" id="Fill-31" fill="#9A7459" sketch:type="MSShapeGroup"></path>
                <path d="M341.475,392.014 C341.475,469.885 277.424,533.013 198.41,533.013 C119.398,533.013 55.344,469.885 55.344,392.014 L55.344,391.322 C55.344,313.451 119.398,250.324 198.41,250.322 C277.424,250.322 341.475,313.451 341.475,391.322 L341.475,392.014" id="Fill-32" fill="#5AB55C" sketch:type="MSShapeGroup"></path>
                <path d="M341.475,392.014 C341.475,469.885 277.424,533.013 198.41,533.013 C119.398,533.013 55.344,469.885 55.344,392.014 L55.344,391.322 C55.344,313.451 119.398,250.324 198.41,250.322 C277.424,250.322 341.475,313.451 341.475,391.322 L341.475,392.014 L341.475,392.014 Z" id="Stroke-33" stroke="#5AB55C" stroke-width="30" stroke-linecap="round" stroke-linejoin="round" stroke-dasharray="0,27.933" sketch:type="MSShapeGroup"></path>
                <path d="M298.58,395.841 C298.58,479.799 252.734,547.859 181.475,547.859 C97.518,547.859 29.457,479.799 29.457,395.842 L29.457,394.803 C29.457,310.846 97.517,242.785 181.475,242.784 C252.734,242.784 298.58,310.846 298.58,394.803 L298.58,395.841" id="Fill-34" fill="#A9D163" sketch:type="MSShapeGroup"></path>
                <path d="M298.58,395.841 C298.58,479.799 252.734,547.859 181.475,547.859 C97.518,547.859 29.457,479.799 29.457,395.842 L29.457,394.803 C29.457,310.846 97.517,242.785 181.475,242.784 C252.734,242.784 298.58,310.846 298.58,394.803 L298.58,395.841 L298.58,395.841 Z" id="Stroke-35" stroke="#A9D163" stroke-width="30" stroke-linecap="round" stroke-linejoin="round" stroke-dasharray="0,28.36" sketch:type="MSShapeGroup"></path>
                <path d="M264.945,395.841 C264.945,479.799 211.683,547.859 181.475,547.859 C97.518,547.859 29.457,479.799 29.457,395.842 L29.457,394.803 C29.457,310.846 97.517,242.785 181.475,242.784 C224.25,242.784 264.945,310.846 264.945,394.803 L264.945,395.841" id="Fill-36" fill="#D0D766" sketch:type="MSShapeGroup"></path>
                <path d="M264.945,395.841 C264.945,479.799 211.683,547.859 181.475,547.859 C97.518,547.859 29.457,479.799 29.457,395.842 L29.457,394.803 C29.457,310.846 97.517,242.785 181.475,242.784 C224.25,242.784 264.945,310.846 264.945,394.803 L264.945,395.841 L264.945,395.841 Z" id="Stroke-37" stroke="#D0D766" stroke-width="30" stroke-linecap="round" stroke-linejoin="round" stroke-dasharray="0,28.412" sketch:type="MSShapeGroup"></path>
            </g>
        </g>
    </g>
</svg>