<?xml version="1.0" encoding="UTF-8" standalone="no"?>
<svg width="1440px" height="752px" viewBox="0 0 1440 752" version="1.1" xmlns="http://www.w3.org/2000/svg" xmlns:xlink="http://www.w3.org/1999/xlink" xmlns:sketch="http://www.bohemiancoding.com/sketch/ns">
    <!-- Generator: Sketch 3.3.2 (12043) - http://www.bohemiancoding.com/sketch -->
    <title>library-piano</title>
    <desc>Created with Sketch.</desc>
    <defs></defs>
    <g id="Page-1" stroke="none" stroke-width="1" fill="none" fill-rule="evenodd" sketch:type="MSPage">
        <g id="library-piano" sketch:type="MSArtboardGroup">
            <g id="Imported-Layers" sketch:type="MSLayerGroup" transform="translate(473.000000, 473.000000)">
                <path d="M414.752,234.04 L75.056,234.04 C68.335,234.04 62.889,239.486 62.889,246.207 C62.889,252.927 68.335,258.375 75.056,258.375 L414.752,258.375 C421.473,258.375 426.92,252.927 426.92,246.207 C426.92,239.486 421.473,234.04 414.752,234.04" id="Fill-1" fill="#999999" sketch:type="MSShapeGroup"></path>
                <path d="M481.89,180.211 L12.24,180.211 C5.521,180.211 0.075,185.657 0.075,192.376 C0.075,199.096 5.521,204.543 12.24,204.543 L481.89,204.543 C488.61,204.543 494.057,199.096 494.057,192.376 C494.057,185.657 488.61,180.211 481.89,180.211" id="Fill-2" fill="#999999" sketch:type="MSShapeGroup"></path>
                <path d="M460.76,15.849 C460.76,7.47 453.968,0.677 445.589,0.677 L45.981,0.677 C37.602,0.677 30.809,7.47 30.809,15.849 L30.809,76.248 L460.76,76.248 L460.76,15.849" id="Fill-3" fill="#E5E5E5" sketch:type="MSShapeGroup"></path>
                <path d="M30.81,99.429 L460.761,99.429 L460.761,191.972 L30.81,191.972 L30.81,99.429 Z" id="Fill-4" fill="#B0B0B0" sketch:type="MSShapeGroup"></path>
                <path d="M437.333,166.102 L399.835,166.102 L399.835,136.103 L423.833,136.103 C431.29,136.103 437.333,142.146 437.333,149.602 L437.333,166.102" id="Fill-5" fill="#EF5281" sketch:type="MSShapeGroup"></path>
                <path d="M57.026,164 L125,164 L125,191.972 L57.026,191.972 L57.026,164 Z" id="Fill-6" fill="#0573E9" sketch:type="MSShapeGroup"></path>
                <path d="M30.81,88.625 L460.761,88.625 L460.761,110.232 L30.81,110.232 L30.81,88.625 Z" id="Fill-7" fill="#E5E5E5" sketch:type="MSShapeGroup"></path>
                <path d="M16.229,77.093 L39.623,77.093 L39.623,191.972 L16.229,191.972 L16.229,77.093 Z" id="Fill-8" fill="#E5E5E5" sketch:type="MSShapeGroup"></path>
                <path d="M451.947,77.093 L475.341,77.093 L475.341,191.972 L451.947,191.972 L451.947,77.093 Z" id="Fill-9" fill="#E5E5E5" sketch:type="MSShapeGroup"></path>
                <path d="M481.273,60.202 C481.273,58.07 479.545,56.343 477.414,56.343 L14.155,56.343 C12.024,56.343 10.297,58.07 10.297,60.202 L10.297,84.766 C10.297,86.897 12.024,88.625 14.155,88.625 L477.022,88.625 C479.37,88.625 481.273,86.722 481.273,84.373 L481.273,60.202" id="Fill-10" fill="#FFFFFF" sketch:type="MSShapeGroup"></path>
                <path d="M442.785,78.624 L47.275,78.624 L47.275,74.202 C47.275,72.07 49.003,70.343 51.134,70.343 L438.926,70.343 C441.057,70.343 442.785,72.07 442.785,74.202 L442.785,78.624" id="Fill-11" fill="#000000" sketch:type="MSShapeGroup"></path>
                <path d="M457.276,82.541 C457.276,80.379 455.547,78.625 453.416,78.625 L36.644,78.625 C34.513,78.625 32.785,80.379 32.785,82.541 L32.785,88.625 L457.276,88.625 L457.276,82.541" id="Fill-12" fill="#FFFFFF" sketch:type="MSShapeGroup"></path>
                <path d="M78.985,163.839 L412.584,163.839 L412.584,199.262 L78.985,199.262 L78.985,163.839 Z" id="Fill-13" fill="#E5E5E5" sketch:type="MSShapeGroup"></path>
                <path d="M78.985,172.264 L99.655,172.264 L99.655,245.873 L78.985,245.873 L78.985,172.264 Z" id="Fill-14" fill="#E5E5E5" sketch:type="MSShapeGroup"></path>
                <path d="M391.915,172.264 L412.585,172.264 L412.585,245.873 L391.915,245.873 L391.915,172.264 Z" id="Fill-15" fill="#E5E5E5" sketch:type="MSShapeGroup"></path>
                <path d="M420.084,153.22 C420.084,151.088 418.357,149.36 416.226,149.36 L75.344,149.36 C73.213,149.36 71.484,151.088 71.484,153.22 L71.484,174.458 C71.484,176.59 73.213,178.317 75.344,178.317 L416.226,178.317 C418.357,178.317 420.084,176.59 420.084,174.458 L420.084,153.22" id="Fill-16" fill="#FFFFFF" sketch:type="MSShapeGroup"></path>
                <path d="M143,199.262 L143,198.159 C143,187.201 151.883,178.317 162.842,178.317 L196.158,178.317 C207.117,178.317 216,187.201 216,198.159 L216,199.262 L143,199.262" id="Fill-17" fill="#EF5281" sketch:type="MSShapeGroup"></path>
                <path d="M328,199.262 C328,192.49 322.51,187 315.738,187 L244.262,187 C237.49,187 232,192.49 232,199.262 L328,199.262" id="Fill-18" fill="#0573E9" sketch:type="MSShapeGroup"></path>
                <path d="M78.985,235.67 C90.401,235.67 99.655,226.416 99.655,215 L78.985,215 L78.985,235.67" id="Fill-19" fill="#0573E9" sketch:type="MSShapeGroup"></path>
                <path d="M391.915,220.335 L412.584,220.335 L412.584,199.665 L402.249,199.665 C396.541,199.665 391.915,204.292 391.915,210 L391.915,220.335" id="Fill-20" fill="#0573E9" sketch:type="MSShapeGroup"></path>
                <path d="M136,149.36 C136,157.445 129.446,164 121.36,164 L116.64,164 C108.554,164 102,157.445 102,149.36 L136,149.36" id="Fill-21" fill="#0573E9" sketch:type="MSShapeGroup"></path>
                <path d="M114,178.317 C114,173.398 110.012,169.41 105.093,169.41 L89.32,169.41 L89.32,178.317 L114,178.317" id="Fill-22" fill="#EF5281" sketch:type="MSShapeGroup"></path>
                <path d="M182.202,88.625 L245.393,88.625 C257.326,88.625 267,98.299 267,110.232 L203.81,110.232 C191.876,110.232 182.202,100.559 182.202,88.625" id="Fill-23" fill="#0573E9" sketch:type="MSShapeGroup"></path>
                <path d="M16.229,88.625 L57.026,88.625 C57.026,100.559 47.353,110.232 35.419,110.232 L16.229,110.232 L16.229,88.625" id="Fill-24" fill="#5AB55C" sketch:type="MSShapeGroup"></path>
                <path d="M384.5,110.232 C384.5,122.254 374.754,132 362.732,132 L329.268,132 C317.246,132 307.5,122.254 307.5,110.232 L384.5,110.232" id="Fill-25" fill="#0573E9" sketch:type="MSShapeGroup"></path>
                <path d="M164.036,12.792 L200.369,12.792 L200.369,56.343 L164.036,56.343 L164.036,12.792 Z" id="Fill-26" fill="#FFFFFF" sketch:type="MSShapeGroup"></path>
                <path d="M167.619,16.475 L196.786,16.475 L196.786,19.325 L167.619,19.325 L167.619,16.475 Z" id="Fill-27" fill="#323232" sketch:type="MSShapeGroup"></path>
                <path d="M167.619,22.129 L196.786,22.129 L196.786,24.978 L167.619,24.978 L167.619,22.129 Z" id="Fill-28" fill="#323232" sketch:type="MSShapeGroup"></path>
                <path d="M167.619,27.783 L196.786,27.783 L196.786,30.632 L167.619,30.632 L167.619,27.783 Z" id="Fill-29" fill="#323232" sketch:type="MSShapeGroup"></path>
                <path d="M167.619,33.437 L196.786,33.437 L196.786,36.287 L167.619,36.287 L167.619,33.437 Z" id="Fill-30" fill="#323232" sketch:type="MSShapeGroup"></path>
                <path d="M167.619,39.091 L196.786,39.091 L196.786,41.941 L167.619,41.941 L167.619,39.091 Z" id="Fill-31" fill="#323232" sketch:type="MSShapeGroup"></path>
                <path d="M167.619,44.745 L196.786,44.745 L196.786,47.594 L167.619,47.594 L167.619,44.745 Z" id="Fill-32" fill="#323232" sketch:type="MSShapeGroup"></path>
                <path d="M167.619,50.399 L196.786,50.399 L196.786,53.248 L167.619,53.248 L167.619,50.399 Z" id="Fill-33" fill="#323232" sketch:type="MSShapeGroup"></path>
                <path d="M359.585,0.677 C359.585,17.977 345.561,32 328.261,32 L295.323,32 C278.024,32 264,17.977 264,0.677 L359.585,0.677" id="Fill-34" fill="#0573E9" sketch:type="MSShapeGroup"></path>
                <path d="M45.981,0.677 C37.602,0.677 30.809,7.47 30.809,15.849 L30.809,32 L87.954,32 C105.253,32 119.277,17.977 119.277,0.677 L45.981,0.677" id="Fill-35" fill="#0573E9" sketch:type="MSShapeGroup"></path>
                <path d="M457.276,76.248 L475.342,76.248 L475.342,100.172 L457.276,100.172 L457.276,76.248 Z" id="Fill-36" fill="#5AB55C" sketch:type="MSShapeGroup"></path>
                <path d="M457.276,76.248 L457.276,88.625 L477.022,88.625 C479.37,88.625 481.273,86.722 481.273,84.373 L481.273,76.248 L457.276,76.248" id="Fill-37" fill="#5AB55C" sketch:type="MSShapeGroup"></path>
            </g>
        </g>
    </g>
</svg>