<?xml version="1.0" encoding="UTF-8" standalone="no"?>
<svg width="1440px" height="752px" viewBox="0 0 1440 752" version="1.1" xmlns="http://www.w3.org/2000/svg" xmlns:xlink="http://www.w3.org/1999/xlink" xmlns:sketch="http://www.bohemiancoding.com/sketch/ns">
    <!-- Generator: Sketch 3.3.2 (12043) - http://www.bohemiancoding.com/sketch -->
    <title>library</title>
    <desc>Created with Sketch.</desc>
    <defs></defs>
    <g id="Page-1" stroke="none" stroke-width="1" fill="none" fill-rule="evenodd" sketch:type="MSPage">
        <g id="library" sketch:type="MSArtboardGroup">
            <g id="Imported-Layers" sketch:type="MSLayerGroup" transform="translate(-5.000000, -2.000000)">
                <path d="M2.83383368,667.145272 L1446.82552,667.145272 L1446.90674,0.74998672 L2.83383368,0.74998672 L2.83383368,667.145272" id="Fill-1" fill="#28D2FF" sketch:type="MSShapeGroup"></path>
                <path d="M1309.68642,67.6923174 C1309.68642,76.4204382 1302.60885,83.4981873 1293.87972,83.4981873 L1254.02956,83.4981873 C1245.30043,83.4981873 1238.22187,76.4204382 1238.22187,67.6923174 C1238.22187,58.9641965 1245.30043,51.8874502 1254.02956,51.8874502 L1293.87972,51.8874502 C1302.60885,51.8874502 1309.68642,58.9641965 1309.68642,67.6923174" id="Fill-2" fill="#D7F4FF" sketch:type="MSShapeGroup"></path>
                <path d="M1401.43905,101.581089 C1401.43905,113.624993 1391.67306,123.386853 1379.62876,123.386853 L1229.78855,123.386853 C1217.74326,123.386853 1207.98027,113.624993 1207.98027,101.581089 C1207.98027,89.5371846 1217.74326,79.7753254 1229.78855,79.7753254 L1379.62876,79.7753254 C1391.67306,79.7753254 1401.43905,89.5371846 1401.43905,101.581089" id="Fill-3" fill="#D7F4FF" sketch:type="MSShapeGroup"></path>
                <path d="M1295.21542,101.581089 C1295.21542,113.624993 1285.45243,123.386853 1273.40713,123.386853 L1229.78855,123.386853 C1217.74326,123.386853 1207.98027,113.624993 1207.98027,101.581089 C1207.98027,89.5371846 1217.74326,79.7753254 1229.78855,79.7753254 L1273.40713,79.7753254 C1285.45243,79.7753254 1295.21542,89.5371846 1295.21542,101.581089" id="Fill-4" fill="#FFFFFF" sketch:type="MSShapeGroup"></path>
                <path d="M1269.83626,67.6923174 C1269.83626,76.4224436 1262.7607,83.4981873 1254.02956,83.4981873 C1245.30043,83.4981873 1238.22187,76.4224436 1238.22187,67.6923174 C1238.22187,58.9631939 1245.30043,51.8874502 1254.02956,51.8874502 C1262.7607,51.8874502 1269.83626,58.9631939 1269.83626,67.6923174" id="Fill-5" fill="#FFFFFF" sketch:type="MSShapeGroup"></path>
                <path d="M1439.60656,139.178685 C1439.60656,147.90079 1432.53602,154.970518 1423.8129,154.970518 L1344.09855,154.970518 C1335.37744,154.970518 1328.30489,147.90079 1328.30489,139.178685 C1328.30489,130.458586 1335.37744,123.386853 1344.09855,123.386853 L1423.8129,123.386853 C1432.53602,123.386853 1439.60656,130.458586 1439.60656,139.178685" id="Fill-6" fill="#D7F4FF" sketch:type="MSShapeGroup"></path>
                <path d="M1328.30489,139.178685 C1328.30489,130.458586 1335.37744,123.386853 1344.09855,123.386853 L1355.56223,123.386853 C1364.28334,123.386853 1371.35589,130.458586 1371.35589,139.178685 C1371.35589,147.90079 1364.28334,154.970518 1355.56223,154.970518 L1344.09855,154.970518 C1335.37744,154.970518 1328.30489,147.90079 1328.30489,139.178685" id="Fill-7" fill="#FFFFFF" sketch:type="MSShapeGroup"></path>
                <path d="M1062.01176,88.1835989 C1062.01176,80.8241036 1056.04627,74.8593028 1048.68592,74.8593028 C1041.32558,74.8593028 1035.35708,80.8241036 1035.35708,88.1835989 C1035.35708,95.5420916 1041.32558,101.508898 1048.68592,101.508898 C1056.04627,101.508898 1062.01176,95.5420916 1062.01176,88.1835989" id="Fill-8" fill="#FFFFFF" sketch:type="MSShapeGroup"></path>
                <path d="M284.359065,76.3552656 C284.359065,89.6454714 273.58428,100.418008 260.294543,100.418008 L145.088073,100.418008 C131.797333,100.418008 121.022547,89.6454714 121.022547,76.3552656 C121.022547,63.0660624 131.797333,52.2925232 145.088073,52.2925232 L260.294543,52.2925232 C273.58428,52.2925232 284.359065,63.0660624 284.359065,76.3552656" id="Fill-9" fill="#D7F4FF" sketch:type="MSShapeGroup"></path>
                <path d="M356.561658,115.634316 C356.561658,124.593048 349.29858,131.855286 340.339815,131.855286 L200.380921,131.855286 C191.421153,131.855286 184.158076,124.593048 184.158076,115.634316 C184.158076,106.676587 191.42015,99.4133466 200.380921,99.4133466 L340.339815,99.4133466 C349.29858,99.4133466 356.561658,106.676587 356.561658,115.634316" id="Fill-10" fill="#D7F4FF" sketch:type="MSShapeGroup"></path>
                <path d="M242.244647,115.635319 C242.244647,124.593048 234.982572,131.855286 226.022804,131.855286 L184.93021,131.855286 C175.971445,131.855286 168.708367,124.593048 168.708367,115.635319 C168.708367,106.676587 175.971445,99.4143493 184.93021,99.4143493 L226.021801,99.4143493 C234.981569,99.4143493 242.244647,106.67759 242.244647,115.635319" id="Fill-11" fill="#FFFFFF" sketch:type="MSShapeGroup"></path>
                <path d="M221.795117,76.3552656 C221.795117,89.6454714 211.021335,100.418008 197.728589,100.418008 L145.088073,100.418008 C131.797333,100.418008 121.022547,89.6454714 121.022547,76.3552656 C121.022547,63.0660624 131.797333,52.2925232 145.088073,52.2925232 L197.728589,52.2925232 C211.021335,52.2925232 221.795117,63.0660624 221.795117,76.3552656" id="Fill-12" fill="#FFFFFF" sketch:type="MSShapeGroup"></path>
                <path d="M106.033112,116.316122 C106.033112,108.840319 99.9733604,102.780266 92.4956895,102.780266 C85.0190215,102.780266 78.9582675,108.840319 78.9582675,116.316122 C78.9582675,123.791926 85.0190215,129.851979 92.4956895,129.851979 C99.9733604,129.851979 106.033112,123.791926 106.033112,116.316122" id="Fill-13" fill="#FFFFFF" sketch:type="MSShapeGroup"></path>
                <path d="M1208.89279,197.52324 L1349.63585,197.52324 L1349.63585,677.779442 L1208.89279,677.779442 L1208.89279,197.52324 Z" id="Fill-14" fill="#6D8994" sketch:type="MSShapeGroup"></path>
                <path d="M1330.0818,350.922596 L1446.82451,350.922596 L1446.82451,677.780445 L1330.0818,677.780445 L1330.0818,350.922596 Z" id="Fill-15" fill="#6D8994" sketch:type="MSShapeGroup"></path>
                <path d="M188.503087,360.536062 L344.352909,360.536062 L344.352909,616.122112 L188.503087,616.122112 L188.503087,360.536062 Z" id="Fill-16" fill="#6D8994" sketch:type="MSShapeGroup"></path>
                <path d="M0.472305613,176.931693 L119.294771,176.931693 L119.294771,616.120106 L0.472305613,616.120106 L0.472305613,176.931693 Z" id="Fill-17" fill="#6D8994" sketch:type="MSShapeGroup"></path>
                <path d="M1222.67489,666.738194 L1222.67489,606.032384 L3.27605613,606.032384 L3.27605613,664.132291 L2.83383368,664.132291 L2.83383368,754.747331 L1446.90674,754.747331 L1446.82552,666.738194 L1222.67489,666.738194" id="Fill-18" fill="#C7C7C4" sketch:type="MSShapeGroup"></path>
                <path d="M308.439632,650.569363 C308.439632,643.442483 314.216602,637.665179 321.344305,637.665179 C328.470003,637.665179 334.248978,643.442483 334.248978,650.569363" id="Fill-19" fill="#A7A7A5" sketch:type="MSShapeGroup"></path>
                <path d="M1012.42268,734.021428 C1012.42268,726.895551 1018.19965,721.117244 1025.32735,721.117244 C1032.45405,721.117244 1038.23203,726.895551 1038.23203,734.021428" id="Fill-20" fill="#A7A7A5" sketch:type="MSShapeGroup"></path>
                <path d="M376.77353,707.094097 C376.77353,699.967218 382.5505,694.189914 389.678203,694.189914 C396.803901,694.189914 402.582876,699.967218 402.582876,707.094097" id="Fill-21" fill="#ECECEB" sketch:type="MSShapeGroup"></path>
                <path d="M1149.55977,39.8094555 C1107.6419,158.677337 1027.44019,190.338207 1027.44019,190.338207 L1027.44019,606.031381 L1075.46595,606.031381 C1096.59035,606.031381 1116.29883,616.649509 1127.91795,634.287231 L1149.55977,667.141262 L1149.55977,39.8094555" id="Fill-22" fill="#BF957B" sketch:type="MSShapeGroup"></path>
                <path d="M1177.51806,39.8094555 L1225.12867,39.8094555 L1225.12867,667.14427 L1177.51806,667.14427 L1177.51806,39.8094555 Z" id="Fill-23" fill="#BF957B" sketch:type="MSShapeGroup"></path>
                <path d="M300.103588,270.823413 C300.103588,270.823413 425.279617,154.607556 604.908172,152.846892 C784.536726,151.086228 965.926148,187.183851 1014.35502,256.738101 L1014.35502,606.031381 L300.103588,606.031381 L300.103588,270.823413" id="Fill-24" fill="#BF957B" sketch:type="MSShapeGroup"></path>
                <path d="M287.009392,208.175458 L287.008389,208.177463 L287.008389,606.031381 L313.202799,606.031381 L313.202799,569.676076 C313.202799,561.271813 317.015338,553.288665 323.560431,548.015697 L323.635639,547.955538 C326.695096,545.493015 330.898717,545.005724 334.44151,546.70322 C337.984304,548.400717 340.231516,551.980199 340.231516,555.907603 L340.231516,606.031381 L366.424923,606.031381 L366.424923,532.845511 C366.424923,525.759741 370.593446,519.322689 377.05932,516.427019 L377.063331,516.425013 C380.249138,514.998234 383.942347,515.281985 386.870441,517.180013 C389.799538,519.080046 391.561409,522.332663 391.561409,525.822908 L391.561409,606.031381 L417.755819,606.031381 L417.755819,60.0029482 C337.830879,95.4648871 287.011397,148.678851 287.009392,208.175458 L287.009392,208.175458 Z M322.344069,176.31907 C325.186927,173.160704 329.681351,172.079841 333.648317,173.602875 C337.614281,175.124907 340.231516,178.935 340.231516,183.183254 L340.231516,200.758811 C340.231516,208.198519 337.006601,215.294316 331.396091,220.180259 L331.379044,220.195299 C328.13608,223.021786 323.540376,223.692563 319.625554,221.909841 C315.710732,220.128121 313.202799,216.222776 313.202799,211.922384 L313.202799,200.144183 C313.202799,191.351892 316.453786,182.866414 322.335044,176.328094 L322.344069,176.31907 L322.344069,176.31907 Z M313.201796,296.981707 C313.201796,288.389947 316.635288,280.15413 322.739161,274.107112 L322.750191,274.097085 C325.692324,271.182364 330.097502,270.322085 333.919066,271.915305 C337.741633,273.509529 340.230513,277.244422 340.230513,281.384389 L340.230513,314.142165 C340.230513,321.654064 336.623542,328.74585 330.544738,333.159542 L330.520672,333.17759 C327.199491,335.58998 322.806347,335.935896 319.15024,334.071959 C315.494133,332.206016 313.201796,328.449064 313.201796,324.345193 L313.201796,296.981707 L313.201796,296.981707 Z M329.515894,485.457981 C326.404292,487.750053 322.265852,488.096972 318.817319,486.352351 C315.368787,484.607729 313.202799,481.071361 313.202799,477.20512 L313.202799,405.38587 C313.202799,396.98261 317.015338,388.999462 323.559428,383.725491 L323.564442,383.722483 C326.635933,381.246926 330.8566,380.755624 334.414435,382.459137 C337.973273,384.162649 340.230513,387.757171 340.230513,391.702623 L340.230513,464.263838 C340.230513,472.609947 336.254522,480.495837 329.533944,485.44595 L329.515894,485.457981 L329.515894,485.457981 Z M391.561409,440.362523 C391.561409,447.505445 387.318681,453.978592 380.766568,456.827138 L380.750524,456.834157 C377.58377,458.211806 373.934683,457.900983 371.046699,456.005963 C368.159719,454.110943 366.424923,450.889409 366.424923,447.436262 L366.424923,365.593459 C366.424923,360.360598 369.479367,355.595976 374.236517,353.415199 L374.241531,353.412191 C378.027998,351.674588 382.439192,351.985412 385.94388,354.235372 C389.448568,356.485332 391.561409,360.364608 391.561409,364.529641 L391.561409,440.362523 L391.561409,440.362523 Z M391.561409,289.869867 C391.561409,296.392145 387.677673,302.295784 381.688116,304.879628 L381.65703,304.893665 C378.283705,306.348519 374.40398,306.009622 371.335498,303.990272 C368.267015,301.971926 366.424923,298.544847 366.424923,294.871116 L366.424923,250.601846 C366.424923,244.582902 369.701982,239.01415 374.969543,236.100432 L375.013665,236.075365 C378.47022,234.1633 382.679857,234.222457 386.082263,236.228772 C389.484668,238.237092 391.561409,241.893778 391.561409,245.84324 L391.561409,289.869867 L391.561409,289.869867 Z M391.561409,170.068513 C391.561409,177.03998 387.684692,183.460989 381.509622,186.698566 L381.493578,186.706587 C378.302757,188.381023 374.466152,188.264714 371.383631,186.397769 C368.300107,184.531826 366.424923,181.188971 366.424923,177.585425 L366.424923,146.444934 C366.424923,141.752503 368.843609,137.367888 372.817595,134.87328 L372.842664,134.857238 C376.611081,132.490969 381.370237,132.358619 385.262998,134.514329 C389.156762,136.67004 391.561409,140.768898 391.561409,145.218685 L391.561409,170.068513 L391.561409,170.068513 Z" id="Fill-25" fill="#FFC7A4" sketch:type="MSShapeGroup"></path>
                <path d="M663.513176,14.8653785 C585.999903,14.8653785 514.12622,27.6311952 454.985735,49.4038712 L454.985735,606.031381 L481.180146,606.031381 L481.180146,498.870511 C481.180146,491.60326 486.282249,485.32162 493.398922,483.850724 C494.561135,483.611089 495.726356,483.373459 496.895588,483.137835 C501.403049,482.231434 506.079977,483.395518 509.638815,486.307231 C513.197653,489.217942 515.276399,493.575485 515.276399,498.173665 L515.276399,606.031381 L541.470809,606.031381 L541.470809,489.087596 C541.470809,481.340073 547.249784,474.797742 554.940043,473.863267 C572.446437,471.738639 590.516388,470.116341 609.040595,469.035478 C613.259257,468.788825 617.391681,470.293811 620.464174,473.194495 C623.536667,476.095179 625.272466,480.133878 625.272466,484.35907 L625.272466,606.031381 L651.465873,606.031381 L651.465873,483.541906 C651.465873,479.306687 653.174597,475.251946 656.202968,472.291102 C659.230337,469.330259 663.325658,467.708964 667.559361,467.804216 C684.83612,468.195252 712.396306,468.992364 732.780655,470.175498 C741.109679,470.657776 747.591597,477.540007 747.591597,485.883108 L747.591597,606.031381 L773.784002,606.031381 L773.784002,492.084535 C773.784002,487.514429 775.774505,483.16992 779.233065,480.178997 C782.690623,477.189077 787.283319,475.833486 791.806823,476.497244 C809.86073,479.145259 827.234758,482.336713 843.802557,486.018466 C851.008477,487.619708 856.108575,493.9966 856.108575,501.378154 L856.108575,606.031381 L882.302985,606.031381 L882.302985,517.345452 C882.302985,512.271009 884.750752,507.508393 888.876156,504.553566 C893.00156,501.598738 898.30121,500.810651 903.105491,502.443977 C913.913367,506.116707 924.163703,510.035086 933.801344,514.17405 C939.580319,516.656627 943.329684,522.348705 943.329684,528.638367 L943.329684,606.031381 L969.524094,606.031381 L969.524094,554.711434 C969.524094,550.152357 972.108238,545.986321 976.193531,543.959954 C980.278824,541.933586 985.162324,542.393805 988.791356,545.15512 L988.821439,545.178181 C997.625777,551.881939 1002.78604,562.318586 1002.78604,573.383898 L1002.78604,606.031381 L1028.98045,606.031381 L1028.98045,208.177463 C1028.98045,101.414648 865.356139,14.8653785 663.513176,14.8653785 L663.513176,14.8653785 Z M943.329684,289.936042 C943.329684,294.078015 941.270993,297.948267 937.836499,300.264402 C934.402005,302.580538 930.038944,303.04176 926.19933,301.487643 C915.773509,297.269469 904.690873,293.299954 893.010585,289.609177 C886.629947,287.59083 882.301983,281.676162 882.301983,274.983433 L882.301983,221.172888 C882.301983,216.179661 884.733705,211.49826 888.818998,208.626653 C892.905294,205.755046 898.13475,205.048174 902.833739,206.737649 C913.954481,210.740252 924.487598,215.013572 934.370919,219.537556 C939.828004,222.03417 943.329684,227.490624 943.329684,233.491521 L943.329684,289.936042 L943.329684,289.936042 Z M969.524094,264.590903 C969.524094,259.395139 972.535419,254.670624 977.245439,252.476813 C981.955459,250.281999 987.512821,251.013938 991.488812,254.357795 C991.948082,254.742815 992.40334,255.130843 992.854588,255.518871 C999.162024,260.93923 1002.78604,268.845173 1002.78604,277.162205 L1002.78604,319.5916 C1002.78604,324.558758 1000.03042,329.11583 995.632266,331.424947 C991.233105,333.734064 985.9134,333.417224 981.827104,330.59174 L981.808051,330.578705 C974.111776,325.258612 969.524094,316.49239 969.524094,307.136607 L969.524094,264.590903 L969.524094,264.590903 Z M608.98444,171.407058 C613.211124,171.144363 617.358589,172.642331 620.442113,175.544017 C623.527642,178.445704 625.27046,182.493426 625.27046,186.727643 L625.27046,244.103632 C625.27046,252.232165 618.927927,258.956979 610.811491,259.416195 C592.954127,260.421859 575.513916,261.931859 558.590133,263.911102 C554.238103,264.419449 549.877047,263.043805 546.606005,260.128081 C543.334963,257.214363 541.469807,253.040305 541.469807,248.659701 L541.469807,191.747942 C541.469807,184.044535 547.185607,177.524263 554.827733,176.538652 C572.35017,174.279668 590.440177,172.556102 608.98444,171.407058 L608.98444,171.407058 Z M558.694421,135.950133 C554.328352,136.490564 549.940222,135.130963 546.645113,132.215239 C543.350004,129.299515 541.469807,125.109416 541.469807,120.710764 L541.469807,89.912178 C541.469807,82.3992762 546.895806,76.0243891 554.308297,74.8001461 C571.90494,71.8904382 590.074166,69.6705578 608.702661,68.1916401 C612.969456,67.8527424 617.181098,69.3126096 620.325791,72.2132935 C623.470484,75.1159827 625.272466,79.2008035 625.272466,83.4791368 L625.272466,115.898015 C625.272466,124.018526 618.957008,130.707244 610.849596,131.19253 C593.015296,132.259356 575.598149,133.856587 558.694421,135.950133 L558.694421,135.950133 Z M651.465873,181.749456 C651.465873,175.096833 656.857778,169.703546 663.51117,169.703546 L663.513176,169.703546 C688.527324,169.703546 712.953847,170.746308 736.554086,172.73257 C742.788319,173.256959 747.591597,178.46676 747.591597,184.722331 L747.591597,245.052145 C747.591597,249.314436 745.816691,253.382211 742.696064,256.2849 C739.574435,259.188592 735.382848,260.674529 731.1331,260.363705 C709.218521,258.758453 686.618046,257.916222 663.513176,257.916222 L663.51117,257.916222 C660.316339,257.916222 657.251868,256.647862 654.992622,254.388878 C652.733377,252.128891 651.465873,249.065777 651.465873,245.871315 L651.465873,181.749456 L651.465873,181.749456 Z M773.784002,194.440073 C773.784002,189.962211 775.743419,185.709947 779.141813,182.795226 C782.54121,179.878499 787.049673,178.579057 791.474906,179.265876 C809.834658,182.11342 827.493473,185.555538 844.316979,189.537085 C851.242123,191.176428 856.108575,197.34577 856.108575,204.46162 L856.108575,260.134097 C856.108575,264.761355 854.018798,269.138951 850.424863,272.051667 C846.829926,274.964382 842.107872,276.112424 837.582362,275.150876 C821.409656,271.71678 804.500914,268.746912 786.970454,266.286394 C779.389498,265.221574 773.784002,258.75344 773.784002,251.100166 L773.784002,194.440073 L773.784002,194.440073 Z M786.868171,138.464794 C779.359414,137.347835 773.784002,130.904768 773.784002,123.314661 L773.784002,93.3633201 C773.784002,88.7681474 775.844699,84.4156175 779.398523,81.5029017 C782.951344,78.5891833 787.624261,77.4261023 792.131721,78.3224768 C810.585735,81.9932005 828.328782,86.4319588 845.224488,91.5635525 C851.683342,93.5257503 856.108575,99.4835325 856.108575,106.23241 L856.108575,132.876992 C856.108575,137.53834 853.987712,141.946016 850.346647,144.856726 C846.705582,147.767437 841.938404,148.862337 837.38983,147.839628 C821.244198,144.208008 804.36554,141.066687 786.868171,138.464794 L786.868171,138.464794 Z M892.76992,163.136149 C886.512622,161.0416 882.302985,155.186089 882.302985,148.589615 L882.302985,127.721335 C882.302985,122.489475 884.970359,117.619575 889.378545,114.801109 C893.785728,111.982643 899.329051,111.599628 904.077177,113.79745 C915.268112,118.977171 925.856382,124.512835 935.779814,130.370352 C940.44872,133.127656 943.329684,138.163997 943.329684,143.586361 L943.329684,159.920631 C943.329684,165.045206 940.769607,169.830883 936.507826,172.676421 C932.245042,175.521959 926.840101,176.054369 922.10802,174.087158 C912.813326,170.223924 903.021258,166.566235 892.76992,163.136149 L892.76992,163.136149 Z M736.833859,69.8931474 C742.946757,70.5508898 747.591597,75.7075498 747.591597,81.854834 L747.591597,120.467118 C747.591597,123.83504 746.1817,127.048552 743.70385,129.329595 C741.226001,131.610637 737.906825,132.747649 734.548542,132.472922 C711.571024,130.593944 687.821372,129.605325 663.514179,129.605325 L663.512173,129.605325 C660.317342,129.605325 657.25287,128.335963 654.993625,126.076979 C652.73438,123.817995 651.465873,120.75488 651.465873,117.559416 L651.465873,78.0467463 C651.465873,71.3951262 656.859784,66.0008367 663.514179,66.0008367 C688.626598,66.0008367 713.146379,67.3423904 736.833859,69.8931474 L736.833859,69.8931474 Z M481.180146,103.260538 C481.180146,96.3963546 485.744764,90.3573572 492.352028,88.4974303 C493.523266,88.1675564 494.698515,87.8406906 495.876772,87.5178353 C500.492532,86.2514807 505.434192,87.2120252 509.239712,90.1147145 C513.044229,93.0174037 515.276399,97.5303586 515.276399,102.316036 L515.276399,129.956255 C515.276399,137.238546 510.153237,143.530212 503.014503,144.984064 C501.893404,145.211667 500.775313,145.44328 499.660231,145.675896 C495.136726,146.621401 490.428712,145.476368 486.842799,142.561647 C483.257889,139.645923 481.180146,135.269329 481.180146,130.64909 L481.180146,103.260538 L481.180146,103.260538 Z M481.180146,202.137463 C481.180146,194.940398 486.185983,188.698865 493.216418,187.15678 C494.379633,186.901102 495.545857,186.648433 496.717095,186.398772 C501.245613,185.430206 505.967667,186.561202 509.568621,189.471912 C513.170578,192.38162 515.277402,196.765232 515.277402,201.395498 L515.277402,257.387822 C515.277402,264.73328 510.066999,271.061042 502.852054,272.448718 C501.727947,272.663287 500.60785,272.881866 499.491765,273.10245 C494.987313,273.991806 490.321415,272.815691 486.775613,269.898964 C483.230814,266.982238 481.180146,262.63071 481.180146,258.039548 L481.180146,202.137463 L481.180146,202.137463 Z M499.490762,424.6499 C494.98631,425.539256 490.320412,424.363141 486.775613,421.446414 C483.229812,418.529688 481.180146,414.178161 481.180146,409.588001 L481.180146,334.579303 C481.180146,327.312052 486.282249,321.031414 493.398922,319.560518 C496.051254,319.013068 498.721636,318.477649 501.412073,317.95326 C504.826512,317.289502 508.359278,318.188884 511.042696,320.401746 C513.725111,322.615611 515.275396,325.913347 515.275396,329.390558 L515.275396,408.936275 C515.275396,416.282736 510.064993,422.609495 502.850049,423.996169 C501.726944,424.21174 500.606848,424.430319 499.490762,424.6499 L499.490762,424.6499 Z M558.591136,415.456547 C554.240108,415.965896 549.87805,414.58925 546.607008,411.675531 C543.335965,408.76081 541.470809,404.586753 541.470809,400.206149 L541.470809,324.796388 C541.470809,317.049867 547.249784,310.507537 554.940043,309.574064 C572.446437,307.44743 590.516388,305.826135 609.040595,304.745272 C613.259257,304.498619 617.391681,306.003606 620.464174,308.905292 C623.536667,311.804973 625.271463,315.844675 625.271463,320.069867 L625.271463,395.65008 C625.271463,403.778612 618.92893,410.503426 610.812493,410.96164 C592.95513,411.968307 575.514919,413.479309 558.591136,415.456547 L558.591136,415.456547 Z M663.513176,409.463672 L663.51117,409.463672 C660.316339,409.463672 657.251868,408.194309 654.992622,405.935325 C652.733377,403.676341 651.465873,400.612224 651.465873,397.417762 L651.465873,315.188938 C651.465873,308.53832 656.857778,303.144031 663.51117,303.144031 L663.513176,303.144031 C688.512282,303.144031 712.923764,304.126633 736.510967,305.996587 C742.7813,306.493904 747.5926,311.715737 747.5926,318.004396 L747.5926,400.15 C747.5926,403.50589 746.191728,406.708373 743.730925,408.989416 C741.268117,411.270458 737.963983,412.431534 734.617733,412.172849 C711.617152,410.397145 687.845439,409.463672 663.513176,409.463672 L663.513176,409.463672 Z M784.183751,417.445817 C778.210238,416.627649 773.784002,411.53917 773.784002,405.511202 L773.784002,323.533041 C773.784002,320.044801 775.298188,316.73002 777.930464,314.439954 C780.562741,312.15089 784.062415,311.103114 787.516965,311.590405 C808.188107,314.507131 827.991851,318.131733 846.740679,322.390013 C852.231859,323.636315 856.108575,328.507218 856.108575,334.137131 L856.108575,415.759349 C856.108575,419.406009 854.455004,422.855146 851.615154,425.143207 C848.776306,427.431268 845.049003,428.318619 841.486154,427.539555 C823.286845,423.561016 804.130891,420.175046 784.183751,417.445817 L784.183751,417.445817 Z M890.765378,440.449754 C885.726449,438.882603 882.301983,434.22326 882.301983,428.947284 L882.301983,347.934681 C882.301983,344.07245 884.154103,340.445843 887.281748,338.179841 C890.409394,335.912835 894.434521,335.283167 898.104667,336.486355 C911.643091,340.923108 924.34721,345.735857 936.110728,350.885498 C940.494848,352.803579 943.329684,357.140066 943.329684,361.925744 L943.329684,442.093108 C943.329684,446.101726 941.33517,449.846647 938.009979,452.085578 C934.685789,454.324509 930.463116,454.76668 926.749852,453.257683 C915.49875,448.685571 903.478522,444.40423 890.765378,440.449754 L890.765378,440.449754 Z M982.573166,482.659568 C974.390547,476.946434 969.523091,467.589648 969.523091,457.60921 L969.523091,393.199588 C969.523091,388.080027 972.448177,383.410657 977.054912,381.174734 C981.661647,378.939814 987.142798,379.529376 991.162911,382.70178 L991.196003,382.728851 C998.520249,388.508161 1002.78604,397.327523 1002.78604,406.656235 L1002.78604,475.377278 C1002.78604,479.570385 1000.43755,483.410558 996.704229,485.320618 C992.969906,487.23168 988.479493,486.893785 985.080096,484.43828 C984.254815,483.842703 983.419506,483.250133 982.573166,482.659568 L982.573166,482.659568 Z M996.248971,179.254847 C1000.47465,184.158838 1002.78604,190.395359 1002.78604,196.867503 L1002.78604,204.186892 C1002.78604,207.702205 1000.77248,210.907696 997.605721,212.433738 C994.438967,213.959781 990.675564,213.540671 987.927969,211.348865 C984.636871,208.724914 981.166277,206.146082 977.522204,203.614376 C972.524388,200.141175 969.525097,194.419017 969.525097,188.333898 L969.525097,184.341321 C969.525097,178.826713 972.912461,173.877603 978.054676,171.881315 C983.195888,169.886029 989.03904,171.250644 992.759324,175.321428 C993.949615,176.62488 995.113833,177.936355 996.248971,179.254847 L996.248971,179.254847 Z" id="Fill-26" fill="#FFC7A4" sketch:type="MSShapeGroup"></path>
                <path d="M1220.3625,39.8094555 L1220.3625,51.4583134 C1220.3625,58.1109363 1214.96859,63.5042231 1208.3162,63.5042231 L1194.33254,63.5042231 C1187.67915,63.5042231 1182.28524,58.1109363 1182.28524,51.4583134 L1182.28524,39.8094555 L1149.55977,39.8094555 L1149.55977,667.14427 L1182.28524,667.14427 L1182.28524,328.279615 C1182.28524,321.626992 1187.67915,316.233705 1194.33254,316.233705 L1208.3162,316.233705 C1214.96859,316.233705 1220.3625,321.626992 1220.3625,328.279615 L1220.3625,667.14427 L1253.08696,667.14427 L1253.08696,39.8094555 L1220.3625,39.8094555 L1220.3625,39.8094555 Z M1208.3162,88.4483001 C1214.96859,88.4483001 1220.3625,93.841587 1220.3625,100.49421 L1220.3625,136.266972 C1220.3625,142.919595 1214.96859,148.311879 1208.3162,148.311879 L1194.33254,148.311879 C1187.68015,148.311879 1182.28624,142.919595 1182.28624,136.266972 L1182.28624,100.49421 C1182.28624,93.841587 1187.68015,88.4483001 1194.33254,88.4483001 L1208.3162,88.4483001 L1208.3162,88.4483001 Z M1194.33254,291.290631 C1187.67915,291.290631 1182.28524,285.897344 1182.28524,279.244721 L1182.28524,185.301866 C1182.28524,178.650246 1187.67915,173.256959 1194.33254,173.256959 L1208.3162,173.256959 C1214.96859,173.256959 1220.3625,178.650246 1220.3625,185.301866 L1220.3625,279.244721 C1220.3625,285.897344 1214.96859,291.290631 1208.3162,291.290631 L1194.33254,291.290631 L1194.33254,291.290631 Z" id="Fill-27" fill="#FFC7A4" sketch:type="MSShapeGroup"></path>
                <path d="M417.753814,60.0029482 L454.984733,60.0029482 L454.984733,606.031381 L417.753814,606.031381 L417.753814,60.0029482 Z" id="Fill-28" fill="#BF957B" sketch:type="MSShapeGroup"></path>
                <path d="M225.593617,685.386594 C225.593617,697.015398 206.065635,706.441368 181.976044,706.441368 C157.886452,706.441368 138.35847,697.015398 138.35847,685.386594 C138.35847,673.758792 157.886452,664.331819 181.976044,664.331819 C206.065635,664.331819 225.593617,673.758792 225.593617,685.386594" id="Fill-29" fill="#815130" sketch:type="MSShapeGroup"></path>
                <path d="M198.520779,473.126315 C198.520779,463.990113 191.114305,456.583493 181.976044,456.583493 C172.838785,456.583493 165.431308,463.990113 165.431308,473.126315 L165.431308,685.386594 L198.520779,685.386594 L198.520779,473.126315" id="Fill-30" fill="#9A7459" sketch:type="MSShapeGroup"></path>
                <path d="M342.42157,393.055206 C342.42157,471.133035 278.19302,534.428705 198.959993,534.428705 C119.728972,534.428705 55.4974137,471.133035 55.4974137,393.055206 L55.4974137,392.361368 C55.4974137,314.283539 119.728972,250.988871 198.959993,250.986866 C278.19302,250.986866 342.42157,314.283539 342.42157,392.361368 L342.42157,393.055206" id="Fill-31" fill="#5AB55C" sketch:type="MSShapeGroup"></path>
                <path d="M198.669189,549.465538 C191.820256,549.455511 186.054317,544.873373 184.2393,538.606773 C181.261067,544.412151 174.702938,547.791102 167.984366,546.477623 C161.255766,545.164143 156.452488,539.54927 155.880908,533.042032 C151.839737,538.165604 144.740111,540.231076 138.392564,537.644223 C132.045017,535.047344 128.42501,528.610292 129.126951,522.112078 C124.163229,526.364343 116.802883,527.00504 111.077055,523.236056 C105.341199,519.466069 103.034823,512.447477 104.980201,506.210956 C99.284456,509.418453 91.9441649,508.627357 87.0506376,503.824635 C82.1571102,499.010883 81.2546154,491.672444 84.3732363,485.936248 C78.1660776,487.972643 71.1065627,485.765797 67.2458905,480.090764 C63.3852183,474.416733 63.9367429,467.037185 68.1283299,462.013878 C61.6303673,462.785923 55.1324047,459.235518 52.4750589,452.899734 C49.8177131,446.562948 51.8232571,439.434064 56.9273666,435.342224 C50.4093486,434.80079 44.7537145,430.019124 43.4200277,423.270246 C42.0763132,416.5334 45.4656826,409.955976 51.2917879,406.968061 C45.0344906,405.142224 40.4618503,399.367928 40.4618503,392.518785 C40.4618503,385.66162 45.0445184,379.876295 51.3218711,378.070511 C45.5057935,375.062543 42.1364796,368.476096 43.4902218,361.748274 L43.4902218,361.738247 C44.8539917,355.000398 50.5096258,350.227756 57.0476992,349.716401 C51.9435897,345.604509 49.9581012,338.476627 52.6355024,332.139841 C55.3129037,325.813081 61.8108663,322.273705 68.3088288,323.065803 C64.1272696,318.031467 63.5958004,310.652922 67.4765281,304.987915 C71.347228,299.312882 78.4167706,297.137118 84.6239293,299.19156 C81.5153361,293.437317 82.4378863,286.107902 87.3414414,281.305179 C92.2449965,276.501454 99.5852876,275.740438 105.271005,278.958964 C103.345683,272.722444 105.672114,265.713878 111.40797,261.953918 C117.153853,258.193958 124.504172,258.865737 129.457866,263.127025 C128.775981,256.629814 132.416043,250.202789 138.773617,247.625963 C145.121164,245.048134 152.210762,247.124635 156.241906,252.258234 C156.833541,245.76002 161.646847,240.156175 168.375447,238.861746 C175.104047,237.559296 181.652148,240.957297 184.620353,246.762676 C186.445398,240.507105 192.221365,235.944017 199.070298,235.944017 C205.919231,235.955046 211.695198,240.527158 213.510215,246.783732 C216.488448,240.98838 223.036549,237.589376 229.765149,238.901853 C236.493749,240.205305 241.297027,245.811155 241.878635,252.31739 C245.919806,247.194821 253.009404,245.119323 259.356951,247.706175 C265.714525,250.293028 269.34456,256.720053 268.652647,263.217264 C273.606341,258.966003 280.966687,258.314276 286.702543,262.074236 C292.428371,265.844223 294.744775,272.852789 292.809425,279.089309 C298.495142,275.879807 305.845461,276.662882 310.738988,281.465604 C315.632516,286.268327 316.545038,293.607769 313.436445,299.352988 C319.643604,297.30757 326.703119,299.503386 330.573818,305.16739 C334.434491,310.843426 333.892994,318.222975 329.711435,323.255305 C336.209397,322.474236 342.70736,326.023639 345.374733,332.350398 C348.042107,338.687185 346.04659,345.815066 340.942481,349.916932 C347.470527,350.438313 353.126161,355.220983 354.469875,361.958831 L354.469875,361.968858 C355.81359,368.705704 352.434248,375.28413 346.608143,378.282072 C352.885495,380.096879 357.468164,385.872178 357.468164,392.729343 L357.468164,393.051195 C357.468164,399.918386 352.86544,405.704714 346.57806,407.509495 C352.384109,410.526487 355.753423,417.11494 354.389653,423.851786 C353.025884,430.579608 347.360222,435.353254 340.832176,435.864608 C345.926258,439.975498 347.901719,447.114409 345.21429,453.441169 C342.536888,459.757902 336.028898,463.296275 329.530936,462.495153 C333.702467,467.538513 334.223909,474.918061 330.343181,480.583068 C326.462453,486.238048 319.392911,488.413811 313.19578,486.357364 C316.294345,492.113612 315.361767,499.443028 310.448184,504.234721 C305.544629,509.02842 298.19431,509.780412 292.518621,506.561886 C294.433915,512.797404 292.097457,519.806972 286.361601,523.556906 C280.615717,527.306839 273.255371,526.63506 268.311705,522.363745 C268.983562,528.860956 265.3435,535.287981 258.985925,537.854781 L258.985925,537.863805 C252.628351,540.431607 245.538753,538.346082 241.507609,533.202457 C240.915974,539.698665 236.102668,545.294489 229.36404,546.587915 C222.63544,547.881341 216.097367,544.472311 213.129161,538.666932 C211.304116,544.913479 205.52815,549.465538 198.689245,549.465538 L198.669189,549.465538 L198.669189,549.465538 Z M198.719328,519.385857 C204.555461,519.39488 209.609432,522.724701 212.096306,527.58658 C213.630547,522.353718 217.97255,518.142563 223.698378,517.049668 C229.414179,515.946746 234.999619,518.252855 238.368933,522.533194 C238.870319,517.109827 242.309827,512.14668 247.714768,509.970916 C253.109681,507.784124 259.036064,508.96826 263.167484,512.517663 C262.605932,507.10332 265.03264,501.568659 269.906112,498.380212 C274.779584,495.191766 280.816272,495.201793 285.559383,497.887908 C283.964976,492.6751 285.268579,486.779482 289.430083,482.717722 C293.591587,478.647942 299.51797,477.484861 304.682245,479.199402 C302.105121,474.405704 302.235482,468.370717 305.524574,463.578021 C308.813666,458.784323 314.379051,456.489243 319.773964,457.149993 C316.314401,452.959894 315.251462,447.034197 317.527755,441.69004 C319.794019,436.34488 324.777796,432.997012 330.192765,432.56587 C325.971095,429.146813 323.754969,423.561016 324.908157,417.875956 C326.051317,412.191899 330.272987,407.910558 335.487401,406.406574 C330.674096,403.899934 327.385003,398.8666 327.385003,393.051195 L327.385003,392.729343 C327.385003,386.904914 330.694151,381.851527 335.527512,379.354914 C330.313098,377.840903 326.101455,373.549535 324.968323,367.854449 C323.835191,362.169389 326.071372,356.584595 330.293042,353.185591 C324.888101,352.734396 319.904324,349.375498 317.648087,344.031341 C315.39185,338.677158 316.474844,332.751461 319.944435,328.570385 C314.549522,329.222112 308.984137,326.905976 305.7151,322.11328 C302.436036,317.300531 302.325731,311.274568 304.912883,306.481873 C299.738579,308.186388 293.822225,307.002251 289.660721,302.93247 C285.509245,298.85166 284.225696,292.956042 285.830132,287.741228 C281.08702,290.41832 275.050333,290.409296 270.176861,287.210823 C265.313416,284.021375 262.906764,278.477689 263.478344,273.063347 C259.336895,276.602722 253.410513,277.765803 248.015599,275.569987 C242.620686,273.373167 239.191206,268.399993 238.699848,262.976627 C235.320506,267.257968 229.735066,269.544024 224.019265,268.431076 C218.293437,267.317125 213.97149,263.095943 212.447277,257.863081 C209.940347,262.715936 204.886376,266.034728 199.050243,266.023699 C193.214109,266.023699 188.160139,262.695883 185.673264,257.843028 C184.139023,263.076892 179.807048,267.288048 174.08122,268.390969 C168.365419,269.493891 162.769951,267.207835 159.400638,262.925491 C158.909279,268.350863 155.469771,273.314011 150.074858,275.499801 C144.679945,277.685591 138.753562,276.52251 134.622141,272.973108 C135.173666,278.386448 132.767013,283.922112 127.893541,287.110558 C123.020069,290.309031 116.983382,290.309031 112.24027,287.62091 C113.844705,292.835724 112.55113,298.730339 108.389626,302.802125 C104.228122,306.872908 98.3117672,308.045013 93.1374636,306.331474 C95.7145877,311.12417 95.594255,317.159157 92.3151906,321.961879 C89.0361261,326.755578 83.4607138,329.060684 78.0658004,328.399934 C81.5353915,332.591036 82.5983299,338.516733 80.3420929,343.86089 C78.0758281,349.205046 73.0920513,352.563944 67.6770825,352.995086 C71.8987526,356.404117 74.1349342,361.988911 72.9917741,367.673971 L72.9817464,367.673971 C71.8385863,373.369057 67.6269439,377.649396 62.4125295,379.164409 C67.2358628,381.66002 70.5450104,386.713406 70.5450104,392.518785 C70.5450104,398.355246 67.2258351,403.408632 62.3724186,405.905246 C67.586833,407.429283 71.7884477,411.720651 72.92158,417.415737 C74.0547124,423.110823 71.8085031,428.685591 67.5768053,432.083592 C72.9817464,432.53579 77.9655232,435.904714 80.2117325,441.248871 C82.4579418,446.603054 81.374948,452.528752 77.9053569,456.699801 C83.3002703,456.058101 88.8556272,458.384263 92.1246639,463.186985 C95.3937006,467.989708 95.5040055,474.025697 92.9068261,478.808367 C98.0811296,477.113878 103.997484,478.297012 108.14896,482.377822 C112.300437,486.468659 113.583985,492.364276 111.969522,497.568061 C116.712633,494.900996 122.759349,494.911023 127.622793,498.119522 C132.486237,501.317995 134.882862,506.862683 134.301254,512.277025 C138.45273,508.746673 144.379113,507.584595 149.763999,509.789436 C155.158912,511.996282 158.578365,516.969456 159.069723,522.393825 C162.449064,518.12251 168.044532,515.836454 173.760333,516.959429 C179.476133,518.072377 183.79808,522.303586 185.322294,527.53745 C187.819196,522.694622 192.873167,519.385857 198.689245,519.385857 L198.719328,519.385857 L198.719328,519.385857 Z" id="Fill-32" fill="#5AB55C" sketch:type="MSShapeGroup"></path>
                <path d="M299.407665,396.892371 C299.407665,481.073367 253.434579,549.314137 181.978049,549.314137 C97.7883202,549.314137 29.5386549,481.073367 29.5386549,396.893373 L29.5386549,395.851614 C29.5386549,311.67162 97.7873174,243.429847 181.978049,243.428845 C253.434579,243.428845 299.407665,311.67162 299.407665,395.851614 L299.407665,396.892371" id="Fill-33" fill="#A9D163" sketch:type="MSShapeGroup"></path>
                <path d="M167.864033,563.76241 C160.834602,563.18087 155.349439,557.857769 154.266445,551.189104 C150.94727,557.075697 143.947921,560.172902 137.149127,558.288911 C130.350333,556.403918 125.948164,550.137317 126.128663,543.389442 C121.776632,548.543094 114.316008,550.287716 107.988517,547.169456 C101.661026,544.041169 98.5022938,537.071707 99.9362578,530.47423 C94.7017879,534.735518 87.0506376,535.057371 81.4150589,530.816135 C75.7794802,526.583924 73.9644629,519.145219 76.6017533,512.938778 C70.665343,516.157304 63.0944144,515.05338 58.3412751,509.860624 C53.5781081,504.655837 53.1669716,497.0166 56.8972834,491.3917 C50.4795426,493.456169 43.2395288,490.980611 39.5192446,484.994754 C35.8089882,478.997869 36.8117602,471.418792 41.5247886,466.585989 C34.8262717,467.418194 28.1678656,463.638181 25.6308524,457.060757 C23.1038669,450.473307 25.500492,443.20405 31.0357935,439.333798 C24.2971656,438.902656 18.4610326,433.949535 17.1975398,427.011155 C15.9440748,420.082802 19.6543313,413.395086 25.8013236,410.617729 C19.3033611,408.95332 14.5000832,403.067729 14.5000832,396.049137 C14.5000832,389.009489 19.3334442,383.104847 25.86149,381.460491 C19.7245253,378.652052 16.044352,371.955312 17.3279002,365.026959 C18.6214761,358.097603 24.4776646,353.164535 31.2162924,352.764475 C25.7010464,348.863141 23.3345045,341.593884 25.8915731,335.017463 C28.4586694,328.450066 35.137131,324.690106 41.835648,325.562417 C37.142675,320.708559 36.1599584,313.119456 39.900298,307.143625 C43.6406376,301.156766 50.9007069,298.721315 57.30842,300.806839 C53.5981635,295.171912 54.0494109,287.531673 58.8326334,282.356965 C63.6058281,277.173234 71.1867845,276.111421 77.1031393,279.348997 C74.4959321,273.122503 76.3410326,265.703851 81.9966667,261.492696 C87.6523008,257.281541 95.2934234,257.63247 100.507838,261.903785 C99.103957,255.306308 102.292772,248.357902 108.630291,245.258692 C114.96781,242.171514 122.418406,243.936189 126.750381,249.109894 C126.599965,242.362019 131.032218,236.125498 137.84104,234.269582 C144.649861,232.415671 151.629155,235.543958 154.918247,241.429548 C156.031324,234.77091 161.54657,229.477888 168.576001,228.916401 C175.645544,228.354914 181.963008,232.776627 184.068829,239.242756 C186.535648,232.776627 193.25422,228.674761 200.373902,229.757629 L200.373902,229.768659 C207.553749,230.861554 212.778191,236.867463 213.129161,243.84595 C217.290665,238.211023 224.971899,236.085392 231.570139,239.143493 C238.148323,242.201594 241.477526,249.410691 239.883119,256.208699 C245.398365,251.97749 253.310236,252.017596 258.805426,256.720053 C264.270534,261.381401 265.564109,269.111879 262.325156,275.208028 C268.632592,272.521912 276.173437,274.426959 280.375052,280.212284 C284.546584,285.946474 284.065253,293.636846 279.663084,298.801527 C286.291407,297.528154 293.190478,300.865996 296.148656,307.273971 C299.086778,313.640837 297.201566,320.999329 292.007207,325.231541 C298.685669,325.151328 304.832661,329.552988 306.687789,336.289834 L306.687789,336.300863 C308.53289,342.998606 305.524574,349.896879 299.798746,353.254774 C306.356875,354.17822 311.751788,359.382005 312.614172,366.270252 C313.486584,373.137444 309.575773,379.495286 303.488947,382.032005 C309.816438,383.816733 314.449245,389.622112 314.449245,396.520385 L314.449245,396.891368 C314.449245,403.798665 309.786355,409.615073 303.448836,411.379748 C309.525634,413.936521 313.416389,420.313413 312.53395,427.181607 C311.641483,434.059827 306.226514,439.253586 299.658358,440.155976 C305.384186,443.533924 308.362419,450.433201 306.497263,457.140969 C304.622079,463.877815 298.445003,468.259422 291.766542,468.139104 C296.950873,472.400392 298.806001,479.770916 295.837796,486.127756 C292.859563,492.524701 285.940437,495.833466 279.312114,494.519987 C283.694227,499.713745 284.135447,507.404117 279.94386,513.129283 C275.712162,518.894555 268.151261,520.759495 261.853853,518.042297 C265.062723,524.148473 263.719009,531.878951 258.233846,536.511222 C252.708572,541.173572 244.806729,541.173572 239.311538,536.912284 C240.855807,543.720319 237.486493,550.898333 230.888254,553.917331 C224.269958,556.925299 216.60878,554.749535 212.487387,549.094555 C212.076251,556.073041 206.821726,562.038845 199.641878,563.091633 C192.512169,564.124369 185.833708,559.993426 183.396972,553.516268 C181.391428,559.572311 175.675627,563.823572 169.137554,563.823572 C168.716389,563.823572 168.295225,563.803519 167.864033,563.76241 L167.864033,563.76241 Z M183.196417,543.458625 C184.931213,538.244814 189.483798,534.175033 195.299875,533.322776 C201.005648,532.490571 206.440672,534.986182 209.619459,539.338712 C209.940347,533.964475 213.149217,528.941169 218.393714,526.543818 C223.658267,524.148473 229.574622,525.03081 233.856459,528.338572 C232.66316,523.034522 234.387928,517.280279 238.82018,513.530345 C243.322626,509.720252 249.41948,509.018393 254.483479,511.204183 C251.906355,506.280139 252.177103,500.114807 255.686805,495.331135 C259.246646,490.479283 265.173028,488.383732 270.718358,489.4666 C267.05824,485.1251 266.025385,478.888579 268.582453,473.403048 C271.169605,467.859363 276.704906,464.629807 282.45079,464.721049 C277.998482,461.061355 275.872606,454.985259 277.517152,449.069588 C279.171726,443.112809 284.195613,438.992895 289.951525,438.200797 C284.937665,435.232935 281.899265,429.467663 282.691455,423.321381 C283.493673,417.14502 287.925925,412.332271 293.571532,410.758101 C288.16659,408.481069 284.366085,403.127888 284.366085,396.891368 L284.366085,396.520385 C284.366085,390.262809 288.186646,384.899602 293.611642,382.633599 C287.976064,381.039376 283.553839,376.206574 282.771677,370.030212 C281.999543,363.883931 285.057997,358.128685 290.081885,355.169847 C284.325974,354.358699 279.312114,350.227756 277.677595,344.261952 C276.053105,338.335252 278.199037,332.270186 282.6714,328.620518 C276.925516,328.689701 271.400243,325.442098 268.833146,319.887384 C266.296133,314.392829 267.359071,308.156308 271.039245,303.824834 C265.493915,304.887649 259.577561,302.762019 256.037775,297.88911 C252.548129,293.086388 252.317491,286.909024 254.914671,281.997012 C249.830617,284.15172 243.743791,283.420784 239.2614,279.590637 C234.839175,275.810624 233.144491,270.025299 234.387928,264.721248 C230.086036,268.019987 224.149626,268.861215 218.8951,266.425764 C213.670658,263.999336 210.491871,258.94595 210.211095,253.57071 C207.002225,257.912211 201.557173,260.369721 195.8514,259.49741 C190.04535,258.615073 185.522848,254.524236 183.808108,249.300398 C181.792536,254.53326 176.919064,258.434595 170.952571,258.905843 C164.905856,259.387118 159.420693,256.218725 156.632987,251.265604 C155.690381,256.869449 151.599071,261.693227 145.752911,263.28745 C139.90675,264.881673 133.920201,262.796149 130.270111,258.444622 C130.390444,264.129681 127.271823,269.64429 121.816743,272.290299 C116.371691,274.957364 110.104366,274.025896 105.702197,270.426361 C106.87544,275.991102 104.829785,281.986985 99.9763687,285.606574 C95.1028967,289.236189 88.7653777,289.476826 83.7715731,286.749602 C85.9576161,292.002517 85.0551213,298.280146 80.9437561,302.740963 C76.8323909,307.203785 70.6452876,308.61753 65.2303188,306.852855 C68.3489397,311.615471 68.6196881,317.951255 65.4108177,323.095883 C62.1919196,328.228479 56.375842,330.756175 50.7302356,330.034263 C54.6811573,334.135126 56.125149,340.300458 53.9190506,345.946414 C51.7229799,351.591368 46.48851,355.160823 40.8128205,355.501726 C45.4456272,358.790438 48.0127235,364.574761 46.8996466,370.531541 C45.7965974,376.487317 41.3142065,380.96919 35.7989605,382.362882 C40.9832918,384.739177 44.5832432,389.972039 44.5832432,396.049137 C44.5832432,402.145286 40.9532086,407.389177 35.7387942,409.755445 C41.2540402,411.16919 45.7163756,415.670113 46.7993694,421.635916 C47.8823631,427.592696 45.2952114,433.377019 40.6423493,436.635651 C46.3080111,437.007636 51.5324532,440.597145 53.7084685,446.251122 C55.8844837,451.907105 54.4204366,458.063413 50.4594872,462.144223 C56.1050936,461.442364 61.9011157,463.999137 65.0899307,469.14176 C68.2887734,474.306441 67.9879418,480.632198 64.8492654,485.38579 C70.274262,483.651195 76.4513375,485.084993 80.5426473,489.556839 C84.633957,494.037709 85.5163964,500.315339 83.3002703,505.568254 C88.3041026,502.862085 94.6416216,503.132802 99.4950381,506.772444 C104.348455,510.421109 106.364026,516.428021 105.1607,521.99176 C109.582924,518.41328 115.850249,517.500863 121.295301,520.187981 C126.730326,522.86407 129.828891,528.389708 129.678475,534.084794 C133.358649,529.743293 139.345198,527.677822 145.191358,529.301122 C151.027491,530.916401 155.098746,535.75923 156.021296,541.373101 C158.829058,536.420983 164.324248,533.282669 170.370963,533.794024 C176.337457,534.285325 181.200901,538.20571 183.196417,543.458625 L183.196417,543.458625 Z" id="Fill-34" fill="#A9D163" sketch:type="MSShapeGroup"></path>
                <path d="M265.679428,396.892371 C265.679428,481.073367 212.269786,549.314137 181.978049,549.314137 C97.7883202,549.314137 29.5386549,481.073367 29.5386549,396.893373 L29.5386549,395.851614 C29.5386549,311.67162 97.7873174,243.429847 181.978049,243.428845 C224.871622,243.428845 265.679428,311.67162 265.679428,395.851614 L265.679428,396.892371" id="Fill-35" fill="#D0D766" sketch:type="MSShapeGroup"></path>
                <path d="M166.420042,563.642092 C159.370554,562.991368 153.905447,557.577025 152.92273,550.869256 C149.563444,556.764874 142.503929,559.833001 135.705135,557.876819 C128.886286,555.922643 124.534255,549.57583 124.815031,542.787849 C120.42289,547.961554 112.912128,549.656042 106.584636,546.466594 C100.267173,543.269124 97.1686071,536.230478 98.712876,529.622975 C93.4382952,533.884263 85.747034,534.143951 80.121483,529.842556 L80.121483,529.833533 C74.5059598,525.532138 72.7711642,518.042297 75.5087318,511.835857 C69.5422384,515.044356 61.9412266,513.881275 57.2081428,508.617331 C52.4850866,503.34336 52.1641996,495.652988 56.0048164,490.067191 C49.5369369,492.113612 42.2868954,489.566866 38.6167498,483.509821 C34.9466043,477.453778 36.0596812,469.844622 40.8629591,465.061952 C34.134359,465.864077 27.4759529,462.013878 24.999106,455.376295 C22.5222592,448.748738 25.0392169,441.469456 30.6547401,437.669389 C23.8960568,437.208167 18.0699515,432.174834 16.8766528,425.186321 C15.6933818,418.216859 19.5139432,411.550199 25.7311296,408.863081 C19.2131116,407.158566 14.4399168,401.202789 14.5101109,394.164143 C14.5702772,387.085392 19.5139432,381.198798 26.112183,379.665737 C19.9651906,376.808167 16.3251282,370.040239 17.6989258,363.101859 C19.0827512,356.143426 25.0392169,351.270518 31.8279834,350.989774 C26.3027096,347.039309 23.9863063,339.699867 26.6436521,333.13247 C29.3009979,326.565073 36.0596812,322.885325 42.7782536,323.876952 C38.0953084,318.974967 37.1928136,311.334728 41.0234026,305.377948 C44.8539917,299.423174 52.1742273,297.076959 58.5819404,299.292829 C54.9017672,293.59674 55.4232086,285.927424 60.2966805,280.793825 L60.2966805,280.783798 C65.1601247,275.650199 72.7912197,274.697676 78.6674636,278.055571 C76.1003673,271.779947 78.0357173,264.340239 83.7715731,260.189243 C89.4974012,256.02822 97.1786348,256.509495 102.342911,260.901129 C100.979141,254.263546 104.268233,247.30411 110.665918,244.287118 C117.073631,241.269124 124.534255,243.164143 128.786008,248.448141 C128.695759,241.660159 133.218261,235.442689 140.077221,233.679017 C146.936182,231.904316 153.905447,235.162948 157.10429,241.148805 C158.267505,234.471116 163.873001,229.207171 170.942543,228.74595 C178.353028,228.264675 184.871046,233.237849 186.545676,240.236388 C190.195766,233.368194 198.57894,230.370252 205.828981,233.528619 C212.858413,236.60577 216.358087,244.39741 214.242238,251.565398 C220.238815,247.554774 228.431462,248.337849 233.545599,253.762218 L233.535572,253.762218 C238.509321,259.036189 238.930485,266.947145 234.94948,272.661282 C241.507609,270.655969 248.807789,273.364143 252.377658,279.559555 C255.88736,285.666733 254.623867,293.21573 249.760423,297.88911 C256.428857,297.177224 262.986985,301.017397 265.443777,307.584794 C267.880513,314.101056 265.503943,321.249993 260.078947,325.101195 C266.70727,325.361886 272.603569,330.004183 274.157866,336.772112 C275.702134,343.518984 272.443125,350.246806 266.637076,353.375093 C273.145066,354.438911 278.409619,359.722908 279.15167,366.601129 C279.893721,373.459296 275.902689,379.74595 269.78578,382.182404 C276.093216,383.977158 280.726022,389.77251 280.726022,396.659754 L280.726022,396.891368 C280.726022,403.869854 275.972883,409.725365 269.535087,411.42988 C275.662024,414.02676 279.532723,420.493891 278.560035,427.392165 C277.587346,434.290438 272.082128,439.424037 265.47386,440.216135 C271.179633,443.625166 274.13781,450.543493 272.232543,457.241235 C270.327277,463.938977 264.180284,468.280478 257.531906,468.17921 C262.736292,472.320179 264.721781,479.580412 261.934075,485.967331 C259.126313,492.364276 252.417769,495.833466 245.819529,494.80073 C250.422252,499.653586 251.364858,507.183533 247.644574,513.119256 L247.644574,513.10923 C243.904234,519.095086 236.634137,521.541567 230.216396,519.435989 C234.036958,525.090969 233.625821,532.831474 228.79246,538.055312 C223.818711,543.439575 215.826618,544.372045 209.820014,540.642165 C212.25675,547.65073 209.198295,555.55166 202.399501,558.99077 C195.069238,562.690571 186.144567,559.833001 182.313978,552.612875 C180.559127,559.090033 174.632744,563.703254 167.813895,563.703254 C167.35262,563.703254 166.891344,563.682198 166.420042,563.642092 L166.420042,563.642092 Z M169.177665,533.682729 C174.43219,534.175033 178.794248,537.293293 181.090596,541.623765 C182.17359,537.653247 184.861019,534.143951 188.821968,532.149668 C193.675385,529.693161 199.220714,530.114276 203.532633,532.781341 C201.777782,527.707902 202.80061,521.861414 206.701393,517.651262 C210.812758,513.189442 217.009889,511.785724 222.424858,513.560425 C219.20596,508.777756 218.8951,502.360757 222.144082,497.166999 C225.433174,491.903054 231.449806,489.376361 237.215745,490.277749 C233.194629,486.016461 231.87097,479.610491 234.367872,473.904376 C236.874802,468.190239 242.500353,464.811288 248.376597,464.891501 C243.783902,461.231806 241.587831,455.035392 243.292543,449.029482 C244.997256,443.023572 250.121421,438.902656 255.957554,438.200797 C250.913611,435.182802 247.895267,429.357371 248.777706,423.181009 C249.650118,417.003645 254.142536,412.252058 259.808198,410.737045 C254.413285,408.451992 250.642862,403.117862 250.642862,396.891368 L250.642862,396.659754 C250.642862,390.323971 254.553673,384.909628 260.088974,382.693758 C254.373174,381.069456 249.920866,376.116335 249.238981,369.838705 C248.567124,363.572105 251.836161,357.797809 257.050575,354.980345 C251.204414,354.017795 246.240693,349.626162 244.836812,343.499934 C243.432931,337.393758 245.959917,331.307636 250.763195,327.878552 C244.886951,327.647942 239.451927,323.967191 237.265884,318.112683 C235.099896,312.327357 236.734414,306.039701 240.915974,302.010027 C235.180118,302.61162 229.354012,299.86334 226.28553,294.540239 C223.29727,289.335452 223.768572,283.089907 226.977443,278.46666 C221.682807,280.071912 215.68623,278.688247 211.645059,274.386853 C207.844553,270.356175 206.701393,264.781408 208.155412,259.828287 C204.044047,262.575564 198.659161,263.227291 193.795717,261.10166 C189.303299,259.146481 186.254872,255.256175 185.181906,250.844489 C182.815364,255.266202 178.282834,258.413539 172.897949,258.765471 C166.82115,259.156507 161.346015,255.887849 158.648559,250.844489 C157.655814,256.479416 153.484283,261.282138 147.587983,262.805173 C141.691684,264.320186 135.715163,262.124369 132.125239,257.682603 C132.205461,263.397742 128.99659,268.901321 123.491372,271.499203 C117.986154,274.085053 111.698773,273.05332 107.336715,269.353519 C108.479875,274.957364 106.353999,280.964276 101.430388,284.543758 C96.4967498,288.113214 90.1191199,288.263612 85.1453708,285.436122 C87.3113583,290.730146 86.3386694,297.036853 82.1470825,301.458566 C77.9554955,305.879276 71.7182536,307.203785 66.3032848,305.338845 C69.411878,310.151594 69.6224602,316.518459 66.3233403,321.642032 C63.0242204,326.764602 57.1479764,329.222112 51.4823146,328.388904 C55.4232086,332.540903 56.8170617,338.756368 54.5307415,344.402324 C52.2544491,350.047278 46.9297297,353.556574 41.223957,353.796208 C45.8667914,357.126029 48.3937769,362.980538 47.2105059,368.947344 C46.0272349,374.923174 41.4545946,379.354914 35.88921,380.668393 C41.0735412,383.083792 44.6434096,388.368792 44.5832432,394.454914 C44.5230769,400.591169 40.8027928,405.825033 35.5282121,408.111089 C41.0534858,409.563938 45.5158212,414.137052 46.5386486,420.142961 C47.5614761,426.138845 44.8740471,431.914143 40.150991,435.122643 C45.846736,435.523705 51.0611504,439.173373 53.187027,444.867457 C55.3129037,450.573572 53.7586071,456.749934 49.7174359,460.780611 C55.3931254,460.117855 61.1991753,462.725764 64.3478794,467.928546 C67.5066112,473.14336 67.1255579,479.510226 63.896632,484.221707 C69.3517117,482.507165 75.5488427,484.002125 79.620097,488.53413 C83.6813236,493.075159 84.4835412,499.402922 82.1871933,504.636786 C87.2311365,501.938639 93.5987387,502.260491 98.4320998,505.970319 C103.275489,509.680146 105.230894,515.746215 103.937318,521.31998 C108.389626,517.730471 114.707089,516.86919 120.142114,519.616467 C125.577138,522.353718 128.635593,527.948539 128.394927,533.663679 C132.105184,529.312151 138.141871,527.286786 143.99806,528.961222 C149.84422,530.635657 153.885392,535.558699 154.72772,541.213679 C157.344955,536.631541 162.278593,533.623572 167.783812,533.623572 C168.245087,533.623572 168.716389,533.643625 169.177665,533.682729 L169.177665,533.682729 Z" id="Fill-36" fill="#D0D766" sketch:type="MSShapeGroup"></path>
            </g>
        </g>
    </g>
</svg>