<?xml version="1.0" encoding="UTF-8" standalone="no"?>
<svg width="1440px" height="752px" viewBox="0 0 1440 752" version="1.1" xmlns="http://www.w3.org/2000/svg" xmlns:xlink="http://www.w3.org/1999/xlink" xmlns:sketch="http://www.bohemiancoding.com/sketch/ns">
    <!-- Generator: Sketch 3.3.2 (12043) - http://www.bohemiancoding.com/sketch -->
    <title>lot-19-piano</title>
    <desc>Created with Sketch.</desc>
    <defs></defs>
    <g id="Page-1" stroke="none" stroke-width="1" fill="none" fill-rule="evenodd" sketch:type="MSPage">
        <g id="lot-19-piano" sketch:type="MSArtboardGroup">
            <path d="M889.224942,706.918931 L548.586301,706.918931 C541.84667,706.918931 536.384571,712.380398 536.384571,719.117244 C536.384571,725.855093 541.84667,731.31656 548.586301,731.31656 L889.224942,731.31656 C895.96357,731.31656 901.425669,725.855093 901.425669,719.117244 C901.425669,712.380398 895.96357,706.918931 889.224942,706.918931" id="Fill-37" fill="#888888" sketch:type="MSShapeGroup"></path>
            <path d="M956.549049,652.943951 L485.597177,652.943951 C478.859552,652.943951 473.397453,658.405418 473.397453,665.145272 C473.397453,671.880113 478.859552,677.34158 485.597177,677.34158 L956.549049,677.34158 C963.286674,677.34158 968.748773,671.880113 968.748773,665.145272 C968.748773,658.405418 963.286674,652.943951 956.549049,652.943951" id="Fill-38" fill="#888888" sketch:type="MSShapeGroup"></path>
            <path d="M935.359473,488.147404 C935.359473,479.746149 928.548646,472.935106 920.146419,472.935106 L519.430705,472.935106 C511.028478,472.935106 504.216648,479.746149 504.216648,488.147404 L504.216648,548.706826 L935.359473,548.706826 L935.359473,488.147404" id="Fill-39" fill="#FFFFFF" sketch:type="MSShapeGroup"></path>
            <path d="M918.519923,499.138519 L918.519923,481.07166 L909.18211,488.069197 C907.391159,489.41075 905.465837,490.40338 903.478343,491.056109 L903.478343,481.07166 L894.14053,488.069197 C892.349579,489.41075 890.424257,490.40338 888.436763,491.056109 L888.436763,481.07166 L879.09895,488.069197 C877.307999,489.41075 875.382677,490.40338 873.395183,491.056109 L873.395183,481.07166 L864.05737,488.069197 C863.622167,488.396062 863.177939,488.701873 862.726692,488.988632 C855.965,493.276992 847.660042,492.970179 841.117958,488.069197 L831.780145,481.07166 L831.780145,499.138519 L807.044768,499.138519 L807.044768,485.082284 L790.33257,485.082284 L790.33257,499.138519 L761.586105,499.138519 L761.586105,485.082284 L730.166249,485.082284 L730.166249,481.07166 L720.807378,481.07166 L720.807378,485.082284 L716.127441,485.082284 L716.127441,499.138519 L700.751938,499.138519 L700.751938,485.082284 L679.3588,485.082284 L679.3588,499.138519 L581.755993,499.138519 L581.755993,485.082284 L563.037248,485.082284 L563.037248,499.138519 L543.650657,499.138519 L543.650657,485.082284 L514.236346,485.082284 L514.236346,499.138519 L504.217651,499.138519 L504.217651,528.748958 L935.360476,528.748958 L935.360476,499.138519 L918.519923,499.138519" id="Fill-40" fill="#A6ADB9" sketch:type="MSShapeGroup"></path>
            <path d="M504.217651,582.781089 L935.360476,582.781089 L935.360476,664.737191 L504.217651,664.737191 L504.217651,582.781089 Z" id="Fill-41" fill="#EF5281" sketch:type="MSShapeGroup"></path>
            <path d="M518.91528,582.781089 L920.662847,582.781089 L920.662847,651.046926 L518.91528,651.046926 L518.91528,582.781089 Z" id="Fill-42" fill="#F0618C" sketch:type="MSShapeGroup"></path>
            <path d="M504.217651,561.1167 L935.360476,561.1167 L935.360476,582.781089 L504.217651,582.781089 L504.217651,561.1167 Z" id="Fill-43" fill="#A6ADB9" sketch:type="MSShapeGroup"></path>
            <path d="M489.596232,549.55407 L513.05508,549.55407 L513.05508,664.738194 L489.596232,664.738194 L489.596232,549.55407 Z" id="Fill-44" fill="#A6ADB9" sketch:type="MSShapeGroup"></path>
            <path d="M926.522044,549.55407 L949.980892,549.55407 L949.980892,664.738194 L926.522044,664.738194 L926.522044,549.55407 Z" id="Fill-45" fill="#A6ADB9" sketch:type="MSShapeGroup"></path>
            <path d="M955.929335,532.618207 C955.929335,530.480544 954.196545,528.748958 952.059638,528.748958 L487.516483,528.748958 C485.379576,528.748958 483.647789,530.480544 483.647789,532.618207 L483.647789,557.24745 C483.647789,559.38411 485.379576,561.1167 487.516483,561.1167 L951.666552,561.1167 C954.02106,561.1167 955.929335,559.208645 955.929335,556.853406 L955.929335,532.618207" id="Fill-46" fill="#FFFFFF" sketch:type="MSShapeGroup"></path>
            <path d="M917.334647,551.089137 L520.728292,551.089137 L520.728292,546.655392 C520.728292,544.517729 522.461082,542.786142 524.597989,542.786142 L913.464949,542.786142 C915.601857,542.786142 917.334647,544.517729 917.334647,546.655392 L917.334647,551.089137" id="Fill-47" fill="#000000" sketch:type="MSShapeGroup"></path>
            <path d="M931.865816,555.016541 C931.865816,552.848798 930.132023,551.090139 927.995116,551.090139 L510.067823,551.090139 C507.930915,551.090139 506.198125,552.848798 506.198125,555.016541 L506.198125,561.1167 L931.865816,561.1167 L931.865816,555.016541" id="Fill-48" fill="#FFFFFF" sketch:type="MSShapeGroup"></path>
            <path d="M552.526192,636.530471 L887.049929,636.530471 L887.049929,672.047556 L552.526192,672.047556 L552.526192,636.530471 Z" id="Fill-49" fill="#FFFFFF" sketch:type="MSShapeGroup"></path>
            <path d="M552.526192,644.977849 L573.253489,644.977849 L573.253489,718.782357 L552.526192,718.782357 L552.526192,644.977849 Z" id="Fill-50" fill="#FFFFFF" sketch:type="MSShapeGroup"></path>
            <path d="M866.323635,644.977849 L887.049929,644.977849 L887.049929,718.782357 L866.323635,718.782357 L866.323635,644.977849 Z" id="Fill-51" fill="#FFFFFF" sketch:type="MSShapeGroup"></path>
            <path d="M894.570719,625.883267 C894.570719,623.745604 892.838932,622.013015 890.702025,622.013015 L548.875099,622.013015 C546.738192,622.013015 545.004399,623.745604 545.004399,625.883267 L545.004399,647.177676 C545.004399,649.315339 546.738192,651.046926 548.875099,651.046926 L890.702025,651.046926 C892.838932,651.046926 894.570719,649.315339 894.570719,647.177676 L894.570719,625.883267" id="Fill-52" fill="#F697B3" sketch:type="MSShapeGroup"></path>
            <path d="M623.188527,485.082284 L659.622242,485.082284 L659.622242,528.748958 L623.188527,528.748958 L623.188527,485.082284 Z" id="Fill-53" fill="#FFFFFF" sketch:type="MSShapeGroup"></path>
            <path d="M626.781459,488.775066 L656.02931,488.775066 L656.02931,491.632636 L626.781459,491.632636 L626.781459,488.775066 Z" id="Fill-54" fill="#323232" sketch:type="MSShapeGroup"></path>
            <path d="M626.781459,494.444084 L656.02931,494.444084 L656.02931,497.300651 L626.781459,497.300651 L626.781459,494.444084 Z" id="Fill-55" fill="#323232" sketch:type="MSShapeGroup"></path>
            <path d="M626.781459,500.113101 L656.02931,500.113101 L656.02931,502.969668 L626.781459,502.969668 L626.781459,500.113101 Z" id="Fill-56" fill="#323232" sketch:type="MSShapeGroup"></path>
            <path d="M626.781459,505.782118 L656.02931,505.782118 L656.02931,508.639688 L626.781459,508.639688 L626.781459,505.782118 Z" id="Fill-57" fill="#323232" sketch:type="MSShapeGroup"></path>
            <path d="M626.781459,511.451135 L656.02931,511.451135 L656.02931,514.308705 L626.781459,514.308705 L626.781459,511.451135 Z" id="Fill-58" fill="#323232" sketch:type="MSShapeGroup"></path>
            <path d="M626.781459,517.120153 L656.02931,517.120153 L656.02931,519.97672 L626.781459,519.97672 L626.781459,517.120153 Z" id="Fill-59" fill="#323232" sketch:type="MSShapeGroup"></path>
            <path d="M626.781459,522.78917 L656.02931,522.78917 L656.02931,525.645737 L626.781459,525.645737 L626.781459,522.78917 Z" id="Fill-60" fill="#323232" sketch:type="MSShapeGroup"></path>
        </g>
    </g>
</svg>