<?xml version="1.0" encoding="UTF-8" standalone="no"?>
<svg width="1440px" height="752px" viewBox="0 0 1440 752" version="1.1" xmlns="http://www.w3.org/2000/svg" xmlns:xlink="http://www.w3.org/1999/xlink" xmlns:sketch="http://www.bohemiancoding.com/sketch/ns">
    <!-- Generator: Sketch 3.3.2 (12043) - http://www.bohemiancoding.com/sketch -->
    <title>lot-19-piano</title>
    <desc>Created with Sketch.</desc>
    <defs></defs>
    <g id="Page-1" stroke="none" stroke-width="1" fill="none" fill-rule="evenodd" sketch:type="MSPage">
        <g id="lot-19-piano" sketch:type="MSArtboardGroup">
            <path d="M889.753,706.041 L550.056,706.041 C543.335,706.041 537.888,711.488 537.888,718.207 C537.888,724.927 543.335,730.374 550.056,730.374 L889.753,730.374 C896.473,730.374 901.92,724.927 901.92,718.207 C901.92,711.488 896.473,706.041 889.753,706.041" id="Fill-38" fill="#888888" sketch:type="MSShapeGroup"></path>
            <path d="M956.891,652.209 L487.241,652.209 C480.522,652.209 475.075,657.656 475.075,664.378 C475.075,671.095 480.522,676.542 487.241,676.542 L956.891,676.542 C963.61,676.542 969.057,671.095 969.057,664.378 C969.057,657.656 963.61,652.209 956.891,652.209" id="Fill-39" fill="#888888" sketch:type="MSShapeGroup"></path>
            <path d="M935.761,487.849 C935.761,479.47 928.968,472.677 920.589,472.677 L520.981,472.677 C512.602,472.677 505.81,479.47 505.81,487.849 L505.81,548.248 L935.761,548.248 L935.761,487.849" id="Fill-40" fill="#FFFFFF" sketch:type="MSShapeGroup"></path>
            <path d="M918.967,498.811 L918.967,480.792 L909.655,487.771 C907.869,489.109 905.949,490.099 903.967,490.75 L903.967,480.792 L894.655,487.771 C892.869,489.109 890.949,490.099 888.967,490.75 L888.967,480.792 L879.655,487.771 C877.869,489.109 875.949,490.099 873.967,490.75 L873.967,480.792 L864.655,487.771 C864.221,488.097 863.778,488.402 863.328,488.688 C856.585,492.965 848.303,492.659 841.779,487.771 L832.467,480.792 L832.467,498.811 L807.8,498.811 L807.8,484.792 L791.134,484.792 L791.134,498.811 L762.467,498.811 L762.467,484.792 L731.134,484.792 L731.134,480.792 L721.801,480.792 L721.801,484.792 L717.134,484.792 L717.134,498.811 L701.801,498.811 L701.801,484.792 L680.467,484.792 L680.467,498.811 L583.134,498.811 L583.134,484.792 L564.467,484.792 L564.467,498.811 L545.134,498.811 L545.134,484.792 L515.801,484.792 L515.801,498.811 L505.81,498.811 L505.81,528.343 L935.761,528.343 L935.761,498.811 L918.967,498.811" id="Fill-41" fill="#A6ADB9" sketch:type="MSShapeGroup"></path>
            <path d="M505.81,582.232 L935.761,582.232 L935.761,663.971 L505.81,663.971 L505.81,582.232 Z" id="Fill-42" fill="#EF5281" sketch:type="MSShapeGroup"></path>
            <path d="M520.467,582.232 L921.104,582.232 L921.104,650.317 L520.467,650.317 L520.467,582.232 Z" id="Fill-43" fill="#F0618C" sketch:type="MSShapeGroup"></path>
            <path d="M505.81,560.625 L935.761,560.625 L935.761,582.232 L505.81,582.232 L505.81,560.625 Z" id="Fill-44" fill="#A6ADB9" sketch:type="MSShapeGroup"></path>
            <path d="M491.229,549.093 L514.623,549.093 L514.623,663.972 L491.229,663.972 L491.229,549.093 Z" id="Fill-45" fill="#A6ADB9" sketch:type="MSShapeGroup"></path>
            <path d="M926.947,549.093 L950.341,549.093 L950.341,663.972 L926.947,663.972 L926.947,549.093 Z" id="Fill-46" fill="#A6ADB9" sketch:type="MSShapeGroup"></path>
            <path d="M956.274,532.202 C956.274,530.07 954.545,528.343 952.414,528.343 L489.155,528.343 C487.024,528.343 485.297,530.07 485.297,532.202 L485.297,556.766 C485.297,558.897 487.024,560.625 489.155,560.625 L952.022,560.625 C954.37,560.625 956.274,558.722 956.274,556.373 L956.274,532.202" id="Fill-47" fill="#FFFFFF" sketch:type="MSShapeGroup"></path>
            <path d="M917.785,550.624 L522.275,550.624 L522.275,546.202 C522.275,544.07 524.003,542.343 526.134,542.343 L913.926,542.343 C916.057,542.343 917.785,544.07 917.785,546.202 L917.785,550.624" id="Fill-48" fill="#000000" sketch:type="MSShapeGroup"></path>
            <path d="M932.276,554.541 C932.276,552.379 930.547,550.625 928.416,550.625 L511.644,550.625 C509.513,550.625 507.785,552.379 507.785,554.541 L507.785,560.625 L932.276,560.625 L932.276,554.541" id="Fill-49" fill="#FFFFFF" sketch:type="MSShapeGroup"></path>
            <path d="M553.985,635.839 L887.584,635.839 L887.584,671.262 L553.985,671.262 L553.985,635.839 Z" id="Fill-50" fill="#FFFFFF" sketch:type="MSShapeGroup"></path>
            <path d="M553.985,644.264 L574.655,644.264 L574.655,717.873 L553.985,717.873 L553.985,644.264 Z" id="Fill-51" fill="#FFFFFF" sketch:type="MSShapeGroup"></path>
            <path d="M866.915,644.264 L887.584,644.264 L887.584,717.873 L866.915,717.873 L866.915,644.264 Z" id="Fill-52" fill="#FFFFFF" sketch:type="MSShapeGroup"></path>
            <path d="M895.084,625.22 C895.084,623.088 893.357,621.36 891.226,621.36 L550.344,621.36 C548.213,621.36 546.484,623.088 546.484,625.22 L546.484,646.458 C546.484,648.59 548.213,650.317 550.344,650.317 L891.226,650.317 C893.357,650.317 895.084,648.59 895.084,646.458 L895.084,625.22" id="Fill-53" fill="#F697B3" sketch:type="MSShapeGroup"></path>
            <path d="M624.452,484.792 L660.785,484.792 L660.785,528.343 L624.452,528.343 L624.452,484.792 Z" id="Fill-54" fill="#FFFFFF" sketch:type="MSShapeGroup"></path>
            <path d="M628.035,488.475 L657.202,488.475 L657.202,491.325 L628.035,491.325 L628.035,488.475 Z" id="Fill-55" fill="#323232" sketch:type="MSShapeGroup"></path>
            <path d="M628.035,494.129 L657.202,494.129 L657.202,496.978 L628.035,496.978 L628.035,494.129 Z" id="Fill-56" fill="#323232" sketch:type="MSShapeGroup"></path>
            <path d="M628.035,499.783 L657.202,499.783 L657.202,502.632 L628.035,502.632 L628.035,499.783 Z" id="Fill-57" fill="#323232" sketch:type="MSShapeGroup"></path>
            <path d="M628.035,505.437 L657.202,505.437 L657.202,508.287 L628.035,508.287 L628.035,505.437 Z" id="Fill-58" fill="#323232" sketch:type="MSShapeGroup"></path>
            <path d="M628.035,511.091 L657.202,511.091 L657.202,513.941 L628.035,513.941 L628.035,511.091 Z" id="Fill-59" fill="#323232" sketch:type="MSShapeGroup"></path>
            <path d="M628.035,516.745 L657.202,516.745 L657.202,519.594 L628.035,519.594 L628.035,516.745 Z" id="Fill-60" fill="#323232" sketch:type="MSShapeGroup"></path>
            <path d="M628.035,522.399 L657.202,522.399 L657.202,525.248 L628.035,525.248 L628.035,522.399 Z" id="Fill-61" fill="#323232" sketch:type="MSShapeGroup"></path>
        </g>
    </g>
</svg>