<?xml version="1.0" encoding="UTF-8" standalone="no"?>
<svg width="1440px" height="752px" viewBox="0 0 1440 752" version="1.1" xmlns="http://www.w3.org/2000/svg" xmlns:xlink="http://www.w3.org/1999/xlink" xmlns:sketch="http://www.bohemiancoding.com/sketch/ns">
    <!-- Generator: Sketch 3.3.2 (12043) - http://www.bohemiancoding.com/sketch -->
    <title>lot-19</title>
    <desc>Created with Sketch.</desc>
    <defs></defs>
    <g id="Page-1" stroke="none" stroke-width="1" fill="none" fill-rule="evenodd" sketch:type="MSPage">
        <g id="lot-19" sketch:type="MSArtboardGroup">
            <g id="Imported-Layers" sketch:type="MSLayerGroup" transform="translate(-23.000000, -2.000000)">
                <path d="M20.0410678,0.748984064 L1463.08412,0.748984064 L1463.08412,666.736189 L20.0410678,666.736189 L20.0410678,0.748984064 Z" id="Fill-1" fill="#28D2FF" sketch:type="MSShapeGroup"></path>
                <path d="M1112.69912,31.2217065 C1112.69912,40.7750133 1104.96026,48.5175232 1095.4157,48.5175232 L969.16299,48.5175232 C959.615425,48.5175232 951.877569,40.7750133 951.877569,31.2217065 C951.877569,21.6714077 959.615425,13.9278951 969.16299,13.9278951 L1095.4157,13.9278951 C1104.96026,13.9278951 1112.69912,21.6714077 1112.69912,31.2217065" id="Fill-2" fill="#D7F4FF" sketch:type="MSShapeGroup"></path>
                <path d="M909.268255,63.4791567 C909.268255,72.2955113 916.411893,79.4434462 925.222949,79.4434462 L1009.56979,79.4434462 C1018.38085,79.4434462 1025.52448,72.2955113 1025.52448,63.4791567 C1025.52448,54.6607968 1018.38085,47.5138645 1009.56979,47.5138645 L925.222949,47.5138645 C916.411893,47.5138645 909.268255,54.6607968 909.268255,63.4791567" id="Fill-3" fill="#D7F4FF" sketch:type="MSShapeGroup"></path>
                <path d="M957.308698,63.4791567 C957.308698,72.2955113 950.16506,79.4434462 941.354004,79.4434462 L919.727688,79.4434462 C910.916632,79.4434462 903.772994,72.2955113 903.772994,63.4791567 C903.772994,54.6617995 910.916632,47.5148672 919.727688,47.5148672 L941.354004,47.5148672 C950.16506,47.5148672 957.308698,54.6617995 957.308698,63.4791567" id="Fill-4" fill="#FFFFFF" sketch:type="MSShapeGroup"></path>
                <path d="M984.731893,31.2227092 C984.731893,40.7750133 976.993035,48.5175232 967.446472,48.5175232 C957.900912,48.5175232 950.163055,40.7750133 950.163055,31.2227092 C950.163055,21.6714077 957.900912,13.9278951 967.446472,13.9278951 C976.993035,13.9278951 984.731893,21.6714077 984.731893,31.2227092" id="Fill-5" fill="#FFFFFF" sketch:type="MSShapeGroup"></path>
                <path d="M862.226858,64.4818127 C862.226858,55.6865139 855.101257,48.5556242 846.311244,48.5556242 C837.52023,48.5556242 830.393626,55.6865139 830.393626,64.4818127 C830.393626,73.2781142 837.52023,80.4080013 846.311244,80.4080013 C855.101257,80.4080013 862.226858,73.2781142 862.226858,64.4818127" id="Fill-6" fill="#D7F4FF" sketch:type="MSShapeGroup"></path>
                <path d="M984.211828,197.438015 C984.211828,187.470611 976.137281,179.390206 966.174867,179.390206 L911.673183,179.390206 C901.710768,179.390206 893.636222,187.470611 893.636222,197.438015 C893.636222,207.405418 901.710768,215.485823 911.673183,215.485823 L966.174867,215.485823 C976.137281,215.485823 984.211828,207.405418 984.211828,197.438015" id="Fill-7" fill="#D7F4FF" sketch:type="MSShapeGroup"></path>
                <path d="M944.129692,197.438015 C944.129692,187.470611 936.055146,179.390206 926.092731,179.390206 L911.673183,179.390206 C901.710768,179.390206 893.636222,187.470611 893.636222,197.438015 C893.636222,207.405418 901.710768,215.485823 911.673183,215.485823 L926.092731,215.485823 C936.055146,215.485823 944.129692,207.405418 944.129692,197.438015" id="Fill-8" fill="#FFFFFF" sketch:type="MSShapeGroup"></path>
                <path d="M940.804879,167.711268 C940.804879,158.981142 933.733388,151.905398 925.008509,151.905398 C916.285634,151.905398 909.213142,158.981142 909.213142,167.711268 C909.213142,176.439389 916.285634,183.516135 925.008509,183.516135 C933.733388,183.516135 940.804879,176.439389 940.804879,167.711268" id="Fill-9" fill="#FFFFFF" sketch:type="MSShapeGroup"></path>
                <path d="M998.045175,0.748984064 L1416.90349,0.748984064 L1416.90349,357.784774 L998.045175,357.784774 L998.045175,0.748984064 Z" id="Fill-10" fill="#475C63" sketch:type="MSShapeGroup"></path>
                <path d="M1027.3843,0.748984064 L1403.67639,0.748984064 L1403.67639,357.784774 L1027.3843,357.784774 L1027.3843,0.748984064 Z" id="Fill-11" fill="#5E7A84" sketch:type="MSShapeGroup"></path>
                <path d="M1062.24874,0.74998672 L1394.85832,0.74998672 L1394.85832,357.785777 L1062.24874,357.785777 L1062.24874,0.74998672 Z" id="Fill-12" fill="#7DA2B0" sketch:type="MSShapeGroup"></path>
                <path d="M353.647688,0.747981408 L772.506004,0.747981408 L772.506004,357.783772 L353.647688,357.783772 L353.647688,0.747981408 Z" id="Fill-13" fill="#475C63" sketch:type="MSShapeGroup"></path>
                <path d="M366.874793,0.747981408 L743.165881,0.747981408 L743.165881,357.783772 L366.874793,357.783772 L366.874793,0.747981408 Z" id="Fill-14" fill="#5E7A84" sketch:type="MSShapeGroup"></path>
                <path d="M375.692862,0.747981408 L708.302439,0.747981408 L708.302439,357.783772 L375.692862,357.782769 L375.692862,0.747981408" id="Fill-15" fill="#7DA2B0" sketch:type="MSShapeGroup"></path>
                <path d="M20.0410678,0.748984064 L604.842431,0.748984064 L604.842431,357.784774 L20.0410678,357.784774 L20.0410678,0.748984064 Z" id="Fill-16" fill="#F8EDC9" sketch:type="MSShapeGroup"></path>
                <path d="M20.0410678,37.0982736 L604.842431,37.0982736 L604.842431,57.2376228 L20.0410678,57.2376228 L20.0410678,37.0982736 Z" id="Fill-17" fill="#B9B297" sketch:type="MSShapeGroup"></path>
                <path d="M20.0410678,137.253586 L472.969199,137.253586 L472.969199,357.785777 L20.0410678,357.785777 L20.0410678,137.253586 Z" id="Fill-18" fill="#28D2FF" sketch:type="MSShapeGroup"></path>
                <path d="M1173.81536,0.748984064 L1462.14219,0.748984064 L1462.14219,357.109987 L1173.81536,357.109987 L1173.81536,0.748984064 Z" id="Fill-19" fill="#98E0F8" sketch:type="MSShapeGroup"></path>
                <path d="M1229.39525,251.436056 L1462.1432,251.436056 L1462.1432,325.048054 L1229.39525,325.048054 L1229.39525,251.436056 Z" id="Fill-20" fill="#28D2FF" sketch:type="MSShapeGroup"></path>
                <path d="M213.51453,347.651932 C213.51453,332.108758 226.107335,319.510385 241.640164,319.510385 C257.172994,319.510385 269.764797,332.108758 269.764797,347.651932 C269.764797,363.194104 257.172994,375.794482 241.640164,375.794482 C226.107335,375.794482 213.51453,363.194104 213.51453,347.651932" id="Fill-21" fill="#3B8186" sketch:type="MSShapeGroup"></path>
                <path d="M159.349536,347.651932 C159.349536,332.108758 171.941339,319.510385 187.474168,319.510385 C203.008,319.510385 215.599803,332.108758 215.599803,347.651932 C215.599803,363.194104 203.008,375.794482 187.474168,375.794482 C171.941339,375.794482 159.349536,363.194104 159.349536,347.651932" id="Fill-22" fill="#3B8186" sketch:type="MSShapeGroup"></path>
                <path d="M198.931647,309.086773 C198.931647,293.545604 211.52345,280.945226 227.057281,280.945226 C242.590111,280.945226 255.182916,293.545604 255.182916,309.086773 C255.182916,324.63095 242.590111,337.229323 227.057281,337.229323 C211.52345,337.229323 198.931647,324.63095 198.931647,309.086773" id="Fill-23" fill="#3B8186" sketch:type="MSShapeGroup"></path>
                <path d="M177.063836,337.229323 C177.063836,321.687151 189.656641,309.086773 205.18947,309.086773 C220.7223,309.086773 233.314103,321.687151 233.314103,337.229323 C233.314103,352.772497 220.7223,365.371873 205.18947,365.371873 C189.656641,365.371873 177.063836,352.772497 177.063836,337.229323" id="Fill-24" fill="#3B8186" sketch:type="MSShapeGroup"></path>
                <path d="M115.599885,337.229323 C115.599885,321.687151 128.19269,309.086773 143.72552,309.086773 C159.259351,309.086773 171.850152,321.687151 171.850152,337.229323 C171.850152,352.772497 159.259351,365.371873 143.72552,365.371873 C128.19269,365.371873 115.599885,352.772497 115.599885,337.229323" id="Fill-25" fill="#3B8186" sketch:type="MSShapeGroup"></path>
                <path d="M52.0596797,329.933997 C52.0596797,306.909004 70.7149076,288.241554 93.7270637,288.241554 C116.738218,288.241554 135.393446,306.909004 135.393446,329.933997 C135.393446,352.958991 116.738218,371.626441 93.7270637,371.626441 C70.7149076,371.626441 52.0596797,352.958991 52.0596797,329.933997" id="Fill-26" fill="#3B8186" sketch:type="MSShapeGroup"></path>
                <path d="M56.4426612,227.623977 C56.4426612,204.141773 75.4676468,185.105345 98.9357372,185.105345 C122.40483,185.105345 141.428813,204.141773 141.428813,227.623977 C141.428813,251.106182 122.40483,270.14261 98.9357372,270.14261 C75.4676468,270.14261 56.4426612,251.106182 56.4426612,227.623977" id="Fill-27" fill="#3B8186" sketch:type="MSShapeGroup"></path>
                <path d="M51.3021273,273.6499 C51.3021273,251.354841 69.3641396,233.282968 91.6437947,233.282968 C113.924452,233.282968 131.985462,251.354841 131.985462,273.6499 C131.985462,295.942955 113.924452,314.016833 91.6437947,314.016833 C69.3641396,314.016833 51.3021273,295.942955 51.3021273,273.6499" id="Fill-28" fill="#3B8186" sketch:type="MSShapeGroup"></path>
                <path d="M116.4857,282.733964 C116.4857,255.34842 138.673166,233.14761 166.043253,233.14761 C193.412337,233.14761 215.599803,255.34842 215.599803,282.733964 C215.599803,310.120511 193.412337,332.320319 166.043253,332.320319 C138.673166,332.320319 116.4857,310.120511 116.4857,282.733964" id="Fill-29" fill="#3B8186" sketch:type="MSShapeGroup"></path>
                <path d="M0.254521561,170.429469 C0.254521561,145.257789 20.6483121,124.851733 45.8058645,124.851733 C70.9634168,124.851733 91.3572074,145.257789 91.3572074,170.429469 C91.3572074,195.602151 70.9634168,216.00921 45.8058645,216.00921 C20.6483121,216.00921 0.254521561,195.602151 0.254521561,170.429469" id="Fill-30" fill="#3B8186" sketch:type="MSShapeGroup"></path>
                <path d="M0.254521561,170.429469 L72.2821191,170.429469 L72.2821191,362.242583 L0.254521561,362.242583 L0.254521561,170.429469 Z" id="Fill-31" fill="#3B8186" sketch:type="MSShapeGroup"></path>
                <path d="M40.4358604,281.147762 C40.4358604,270.031315 31.4304066,261.020445 20.3206407,261.020445 C9.2118768,261.020445 0.206422998,270.031315 0.206422998,281.147762 C0.206422998,292.26421 9.2118768,301.276082 20.3206407,301.276082 C31.4304066,301.276082 40.4358604,292.26421 40.4358604,281.147762" id="Fill-32" fill="#3B9F86" sketch:type="MSShapeGroup"></path>
                <path d="M0.206422998,281.147762 L40.4358604,281.147762 L40.4358604,357.792795 L0.206422998,357.792795 L0.206422998,281.147762 Z" id="Fill-33" fill="#3B9F86" sketch:type="MSShapeGroup"></path>
                <path d="M86.6184969,296.413201 C86.6184969,310.875511 74.9014867,322.599568 60.4478686,322.599568 C45.9942505,322.599568 34.2772402,310.875511 34.2772402,296.413201 C34.2772402,281.95089 45.9942505,270.226833 60.4478686,270.226833 C74.9014867,270.226833 86.6184969,281.95089 86.6184969,296.413201" id="Fill-34" fill="#3B9F86" sketch:type="MSShapeGroup"></path>
                <path d="M105.532255,325.236554 C105.532255,335.113718 97.5308583,343.117922 87.6616345,343.117922 C77.7924107,343.117922 69.7900123,335.113718 69.7900123,325.236554 C69.7900123,315.361394 77.7924107,307.356189 87.6616345,307.356189 C97.5308583,307.356189 105.532255,315.361394 105.532255,325.236554" id="Fill-35" fill="#3B9F86" sketch:type="MSShapeGroup"></path>
                <path d="M121.27752,348.514216 C121.27752,356.87336 114.505643,363.649309 106.150522,363.649309 C97.7964025,363.649309 91.0235236,356.87336 91.0235236,348.514216 C91.0235236,340.15407 97.7964025,333.378121 106.150522,333.378121 C114.505643,333.378121 121.27752,340.15407 121.27752,348.514216" id="Fill-36" fill="#3B8186" sketch:type="MSShapeGroup"></path>
                <path d="M28.6306694,337.229323 L106.150522,337.229323 L106.150522,357.599283 L28.6306694,357.599283 L28.6306694,337.229323 Z" id="Fill-37" fill="#3B9F86" sketch:type="MSShapeGroup"></path>
                <path d="M28.6306694,314.016833 L83.4930924,314.016833 L83.4930924,342.35089 L28.6306694,342.35089 L28.6306694,314.016833 Z" id="Fill-38" fill="#3B9F86" sketch:type="MSShapeGroup"></path>
                <path d="M121.32662,348.514216 C121.32662,356.87336 114.554743,363.649309 106.199622,363.649309 C97.844501,363.649309 91.0726242,356.87336 91.0726242,348.514216 C91.0726242,340.15407 97.844501,333.378121 106.199622,333.378121 C114.554743,333.378121 121.32662,340.15407 121.32662,348.514216" id="Fill-39" fill="#3B9F86" sketch:type="MSShapeGroup"></path>
                <path d="M0.254521561,317.584283 L31.4043532,317.584283 L31.4043532,361.744263 L0.254521561,361.744263 L0.254521561,317.584283 Z" id="Fill-40" fill="#3B9F86" sketch:type="MSShapeGroup"></path>
                <path d="M31.4043532,317.584283 C31.4043532,326.191082 24.4310637,333.167563 15.8284353,333.167563 C7.22680903,333.167563 0.254521561,326.191082 0.254521561,317.584283 C0.254521561,308.977483 7.22680903,302 15.8284353,302 C24.4310637,302 31.4043532,308.977483 31.4043532,317.584283" id="Fill-41" fill="#3B9F86" sketch:type="MSShapeGroup"></path>
                <path d="M44.7096181,333.870425 C44.7096181,338.864655 40.6643285,342.912377 35.6741027,342.912377 C30.6828747,342.912377 26.6375852,338.864655 26.6375852,333.870425 C26.6375852,328.879203 30.6828747,324.829475 35.6741027,324.829475 C40.6643285,324.829475 44.7096181,328.879203 44.7096181,333.870425" id="Fill-42" fill="#3B9F86" sketch:type="MSShapeGroup"></path>
                <path d="M63.4670554,354.033838 C63.4670554,364.209794 55.2231622,372.460651 45.0523203,372.460651 C34.8824805,372.460651 26.6375852,364.209794 26.6375852,354.033838 C26.6375852,343.857882 34.8824805,335.607025 45.0523203,335.607025 C55.2231622,335.607025 63.4670554,343.857882 63.4670554,354.033838" id="Fill-43" fill="#3B9F86" sketch:type="MSShapeGroup"></path>
                <path d="M20.0410678,603.368327 L1463.08412,603.368327 L1463.08412,754.747331 L20.0410678,754.747331 L20.0410678,603.368327 Z" id="Fill-44" fill="#ECECEB" sketch:type="MSShapeGroup"></path>
                <path d="M20.0410678,353.030179 L1463.08412,353.030179 L1463.08412,754.747331 L20.0410678,754.747331 L20.0410678,353.030179 Z" id="Fill-45" fill="#ECECEB" sketch:type="MSShapeGroup"></path>
                <path d="M1079.41492,677.449568 C1079.41492,670.323692 1085.18875,664.546388 1092.31034,664.546388 C1099.43294,664.546388 1105.20577,670.323692 1105.20577,677.449568" id="Fill-46" fill="#A7A7A5" sketch:type="MSShapeGroup"></path>
                <path d="M1381.96289,723.971806 C1381.96289,716.844927 1387.73672,711.068625 1394.85832,711.068625 C1401.97991,711.068625 1407.75374,716.844927 1407.75374,723.971806" id="Fill-47" fill="#A7A7A5" sketch:type="MSShapeGroup"></path>
                <path d="M20.0410678,513.934416 L1463.08412,513.934416 L1463.08412,603.367324 L20.0410678,603.367324 L20.0410678,513.934416 Z" id="Fill-48" fill="#D3CFCE" sketch:type="MSShapeGroup"></path>
                <path d="M20.0410678,513.934416 L1463.08412,513.934416 L1463.08412,558.651873 L20.0410678,558.651873 L20.0410678,513.934416 Z" id="Fill-49" fill="#A69F9D" sketch:type="MSShapeGroup"></path>
                <path d="M20.0410678,513.934416 L1463.08412,513.934416 L1463.08412,536.293645 L20.0410678,536.293645 L20.0410678,513.934416 Z" id="Fill-50" fill="#999AA0" sketch:type="MSShapeGroup"></path>
                <path d="M20.0410678,558.652875 L1463.08412,558.652875 L1463.08412,581.012105 L20.0410678,581.012105 L20.0410678,558.652875 Z" id="Fill-51" fill="#BCB7B5" sketch:type="MSShapeGroup"></path>
                <path d="M20.0410678,376.377025 L1463.08412,376.377025 L1463.08412,465.809934 L20.0410678,465.809934 L20.0410678,376.377025 Z" id="Fill-52" fill="#D3CFCE" sketch:type="MSShapeGroup"></path>
                <path d="M20.0410678,376.377025 L1463.08412,376.377025 L1463.08412,421.094482 L20.0410678,421.094482 L20.0410678,376.377025 Z" id="Fill-53" fill="#A69F9D" sketch:type="MSShapeGroup"></path>
                <path d="M20.0410678,376.377025 L1463.08412,376.377025 L1463.08412,398.736255 L20.0410678,398.736255 L20.0410678,376.377025 Z" id="Fill-54" fill="#999AA0" sketch:type="MSShapeGroup"></path>
                <path d="M20.0410678,421.094482 L1463.08412,421.094482 L1463.08412,443.453712 L20.0410678,443.453712 L20.0410678,421.094482 Z" id="Fill-55" fill="#BCB7B5" sketch:type="MSShapeGroup"></path>
                <path d="M141.696361,582.662477 C141.696361,573.111175 133.957503,565.367663 124.411943,565.367663 C114.86538,565.367663 107.126522,573.111175 107.126522,582.662477 L107.126522,612.292968 C107.126522,621.84427 114.86538,629.587782 124.411943,629.587782 C133.957503,629.587782 141.696361,621.84427 141.696361,612.292968 L141.696361,582.662477" id="Fill-56" fill="#A9D163" sketch:type="MSShapeGroup"></path>
                <path d="M162.737478,610.412988 C162.737478,599.822935 154.157897,591.238194 143.575211,591.238194 C132.991524,591.238194 124.411943,599.822935 124.411943,610.412988 C124.411943,621.002039 132.991524,629.587782 143.575211,629.587782 C154.157897,629.587782 162.737478,621.002039 162.737478,610.412988" id="Fill-57" fill="#3B9F86" sketch:type="MSShapeGroup"></path>
                <path d="M301.202218,610.412988 C301.202218,599.822935 292.622637,591.238194 282.038949,591.238194 C271.455261,591.238194 262.87568,599.822935 262.87568,610.412988 C262.87568,621.002039 271.455261,629.587782 282.038949,629.587782 C292.622637,629.587782 301.202218,621.002039 301.202218,610.412988" id="Fill-58" fill="#3B9F86" sketch:type="MSShapeGroup"></path>
                <path d="M324.873725,613.420956 C324.873725,605.218227 318.229109,598.569615 310.032312,598.569615 C301.834513,598.569615 295.189897,605.218227 295.189897,613.420956 C295.189897,621.623685 301.834513,628.271295 310.032312,628.271295 C318.229109,628.271295 324.873725,621.623685 324.873725,613.420956" id="Fill-59" fill="#3B9F86" sketch:type="MSShapeGroup"></path>
                <path d="M207.548304,603.171806 C207.548304,588.583161 195.729084,576.756833 181.149207,576.756833 C166.569331,576.756833 154.750111,588.583161 154.750111,603.171806 C154.750111,617.760452 166.569331,629.587782 181.149207,629.587782 C195.729084,629.587782 207.548304,617.760452 207.548304,603.171806" id="Fill-60" fill="#5AB55C" sketch:type="MSShapeGroup"></path>
                <path d="M218.349437,546.568865 C218.349437,540.339363 213.302094,535.288984 207.076337,535.288984 C200.850579,535.288984 195.804238,540.339363 195.804238,546.568865 L195.804238,620.260073 C195.804238,626.489575 200.850579,631.539954 207.076337,631.539954 C213.302094,631.539954 218.349437,626.489575 218.349437,620.260073 L218.349437,546.568865" id="Fill-61" fill="#A9D163" sketch:type="MSShapeGroup"></path>
                <path d="M210.834037,608.757603 C210.834037,597.253127 220.154136,587.926421 231.651696,587.926421 L250.135573,587.926421 C261.634136,587.926421 270.954234,597.253127 270.954234,608.757603 C270.954234,620.261076 261.634136,629.587782 250.135573,629.587782 L231.651696,629.587782 C220.154136,629.587782 210.834037,620.261076 210.834037,608.757603" id="Fill-62" fill="#5AB55C" sketch:type="MSShapeGroup"></path>
                <path d="M337.631869,618.025153 L337.631869,618.478353 C337.631869,676.739688 294.544575,723.971806 241.394661,723.971806 L184.651384,723.971806 C131.50147,723.971806 88.4141766,676.739688 88.4141766,618.478353 L88.4141766,618.025153 L337.631869,618.025153" id="Fill-63" fill="#BCBCBC" sketch:type="MSShapeGroup"></path>
                <path d="M131.122694,565.367663 C131.122694,561.658838 128.117536,558.652875 124.411943,558.652875 C120.705347,558.652875 117.700189,561.658838 117.700189,565.367663 C117.700189,569.076487 120.705347,572.08245 124.411943,572.08245 C128.117536,572.08245 131.122694,569.076487 131.122694,565.367663" id="Fill-64" fill="#EF5281" sketch:type="MSShapeGroup"></path>
                <path d="M251.828041,588.843851 C251.828041,585.135027 248.822883,582.129064 245.11729,582.129064 C241.410694,582.129064 238.405536,585.135027 238.405536,588.843851 C238.405536,592.552676 241.410694,595.558639 245.11729,595.558639 C248.822883,595.558639 251.828041,592.552676 251.828041,588.843851" id="Fill-65" fill="#EF5281" sketch:type="MSShapeGroup"></path>
                <path d="M293.454341,593.63755 C293.454341,589.928725 290.450185,586.922762 286.743589,586.922762 C283.036994,586.922762 280.032838,589.928725 280.032838,593.63755 C280.032838,597.347377 283.036994,600.35334 286.743589,600.35334 C290.450185,600.35334 293.454341,597.347377 293.454341,593.63755" id="Fill-66" fill="#FFC64A" sketch:type="MSShapeGroup"></path>
                <path d="M141.696361,593.63755 C141.696361,589.928725 138.691203,586.922762 134.984608,586.922762 C131.279014,586.922762 128.273856,589.928725 128.273856,593.63755 C128.273856,597.347377 131.279014,600.35334 134.984608,600.35334 C138.691203,600.35334 141.696361,597.347377 141.696361,593.63755" id="Fill-67" fill="#FFC64A" sketch:type="MSShapeGroup"></path>
                <path d="M1319.09506,598.735053 C1319.09506,583.607981 1306.83795,571.343493 1291.71897,571.343493 L1250.4494,571.343493 C1235.33041,571.343493 1223.0733,583.607981 1223.0733,598.735053 C1223.0733,613.863127 1235.33041,626.127616 1250.4494,626.127616 L1291.71897,626.127616 C1306.83795,626.127616 1319.09506,613.863127 1319.09506,598.735053" id="Fill-68" fill="#A9D163" sketch:type="MSShapeGroup"></path>
                <path d="M1301.46794,609.965803 C1301.46794,602.008725 1295.02173,595.558639 1287.07044,595.558639 C1279.11814,595.558639 1272.67193,602.008725 1272.67193,609.965803 C1272.67193,617.921879 1279.11814,624.371965 1287.07044,624.371965 C1295.02173,624.371965 1301.46794,617.921879 1301.46794,609.965803" id="Fill-69" fill="#5AB55C" sketch:type="MSShapeGroup"></path>
                <path d="M1207.19576,610.413991 C1207.19576,599.823938 1215.77434,591.239197 1226.35903,591.239197 C1236.94172,591.239197 1245.5213,599.823938 1245.5213,610.413991 C1245.5213,621.003041 1236.94172,629.588785 1226.35903,629.588785 C1215.77434,629.588785 1207.19576,621.003041 1207.19576,610.413991" id="Fill-70" fill="#3B9F86" sketch:type="MSShapeGroup"></path>
                <path d="M1119.83374,610.413991 C1119.83374,599.823938 1128.41432,591.239197 1138.99601,591.239197 C1149.5807,591.239197 1158.16028,599.823938 1158.16028,610.413991 C1158.16028,621.003041 1149.5807,629.588785 1138.99601,629.588785 C1128.41432,629.588785 1119.83374,621.003041 1119.83374,610.413991" id="Fill-71" fill="#3B9F86" sketch:type="MSShapeGroup"></path>
                <path d="M1096.16223,613.421959 C1096.16223,605.21923 1102.80685,598.570618 1111.00264,598.570618 C1119.20145,598.570618 1125.84606,605.21923 1125.84606,613.421959 C1125.84606,621.624688 1119.20145,628.272297 1111.00264,628.272297 C1102.80685,628.272297 1096.16223,621.624688 1096.16223,613.421959" id="Fill-72" fill="#3B9F86" sketch:type="MSShapeGroup"></path>
                <path d="M1162.38393,603.172809 C1162.38393,588.584163 1174.20416,576.756833 1188.78403,576.756833 C1203.36391,576.756833 1215.18313,588.584163 1215.18313,603.172809 C1215.18313,617.761454 1203.36391,629.588785 1188.78403,629.588785 C1174.20416,629.588785 1162.38393,617.761454 1162.38393,603.172809" id="Fill-73" fill="#5AB55C" sketch:type="MSShapeGroup"></path>
                <path d="M1151.5848,574.39658 C1151.5848,568.167078 1156.63115,563.1167 1162.8569,563.1167 C1169.08266,563.1167 1174.129,568.167078 1174.129,574.39658 L1174.129,620.261076 C1174.129,626.490578 1169.08266,631.540956 1162.8569,631.540956 C1156.63115,631.540956 1151.5848,626.490578 1151.5848,620.261076 L1151.5848,574.39658" id="Fill-74" fill="#A9D163" sketch:type="MSShapeGroup"></path>
                <path d="M1083.40409,618.026155 L1083.40409,618.479356 C1083.40409,676.740691 1126.49138,723.972809 1179.6413,723.972809 L1236.38558,723.972809 C1289.53449,723.972809 1332.62178,676.740691 1332.62178,618.479356 L1332.62178,618.026155 L1083.40409,618.026155" id="Fill-75" fill="#BCBCBC" sketch:type="MSShapeGroup"></path>
                <path d="M1127.58062,593.638552 C1127.58062,589.929728 1130.58678,586.923765 1134.29237,586.923765 C1137.99796,586.923765 1141.00312,589.929728 1141.00312,593.638552 C1141.00312,597.34838 1137.99796,600.354343 1134.29237,600.354343 C1130.58678,600.354343 1127.58062,597.34838 1127.58062,593.638552" id="Fill-76" fill="#FFC64A" sketch:type="MSShapeGroup"></path>
                <path d="M1228.23788,593.638552 C1228.23788,589.929728 1231.24204,586.923765 1234.94863,586.923765 C1238.65423,586.923765 1241.65938,589.929728 1241.65938,593.638552 C1241.65938,597.34838 1238.65423,600.354343 1234.94863,600.354343 C1231.24204,600.354343 1228.23788,597.34838 1228.23788,593.638552" id="Fill-77" fill="#FFC64A" sketch:type="MSShapeGroup"></path>
                <path d="M1273.64793,598.569615 C1273.64793,594.86079 1276.65209,591.854827 1280.35869,591.854827 C1284.06528,591.854827 1287.07044,594.86079 1287.07044,598.569615 C1287.07044,602.279442 1284.06528,605.285405 1280.35869,605.285405 C1276.65209,605.285405 1273.64793,602.279442 1273.64793,598.569615" id="Fill-78" fill="#EF5281" sketch:type="MSShapeGroup"></path>
                <path d="M1192.5748,578.79824 C1192.5748,575.088413 1195.57896,572.08245 1199.28555,572.08245 C1202.99115,572.08245 1205.9963,575.088413 1205.9963,578.79824 C1205.9963,582.507065 1202.99115,585.513028 1199.28555,585.513028 C1195.57896,585.513028 1192.5748,582.507065 1192.5748,578.79824" id="Fill-79" fill="#EF5281" sketch:type="MSShapeGroup"></path>
                <path d="M441.851433,322.753977 C441.851433,318.412477 438.334226,314.893154 433.995335,314.893154 C429.655441,314.893154 426.138234,318.412477 426.138234,322.753977 L426.138234,479.979469 C426.138234,484.320969 429.655441,487.841295 433.995335,487.841295 C438.334226,487.841295 441.851433,484.320969 441.851433,479.979469 L441.851433,322.753977" id="Fill-80" fill="#BCCBBE" sketch:type="MSShapeGroup"></path>
                <path d="M441.851433,459.284648 C441.851433,454.943147 438.334226,451.423825 433.995335,451.423825 C429.655441,451.423825 426.138234,454.943147 426.138234,459.284648 L426.138234,616.510139 C426.138234,620.85164 429.655441,624.371965 433.995335,624.371965 C438.334226,624.371965 441.851433,620.85164 441.851433,616.510139 L441.851433,459.284648" id="Fill-81" fill="#DCE4DD" sketch:type="MSShapeGroup"></path>
                <path d="M281.700255,493.707835 C281.700255,487.226667 286.951014,481.973752 293.427285,481.973752 C299.904559,481.973752 305.154316,487.226667 305.154316,493.707835" id="Fill-82" fill="#A7A7A5" sketch:type="MSShapeGroup"></path>
                <path d="M409.817791,698.82419 C409.817791,691.697311 415.591622,685.920007 422.713216,685.920007 C429.836813,685.920007 435.609643,691.697311 435.609643,698.82419" id="Fill-83" fill="#A7A7A5" sketch:type="MSShapeGroup"></path>
            </g>
        </g>
    </g>
</svg>