<?xml version="1.0" encoding="UTF-8" standalone="no"?>
<svg width="1440px" height="752px" viewBox="0 0 1440 752" version="1.1" xmlns="http://www.w3.org/2000/svg" xmlns:xlink="http://www.w3.org/1999/xlink" xmlns:sketch="http://www.bohemiancoding.com/sketch/ns">
    <!-- Generator: Sketch 3.3.2 (12043) - http://www.bohemiancoding.com/sketch -->
    <title>nelson</title>
    <desc>Created with Sketch.</desc>
    <defs></defs>
    <g id="Page-1" stroke="none" stroke-width="1" fill="none" fill-rule="evenodd" sketch:type="MSPage">
        <g id="nelson" sketch:type="MSArtboardGroup">
            <g id="Imported-Layers" sketch:type="MSLayerGroup" transform="translate(-3.000000, -2.000000)">
                <path d="M0.684421929,0.74998672 L1443.76852,0.74998672 L1443.76852,666.737191 L0.684421929,666.737191 L0.684421929,0.74998672 Z" id="Fill-1" fill="#28D2FF" sketch:type="MSShapeGroup"></path>
                <path d="M501.495889,49.9753851 C501.495889,58.703506 494.423195,65.7802523 485.69907,65.7802523 L445.876336,65.7802523 C437.153213,65.7802523 430.079517,58.703506 430.079517,49.9753851 C430.079517,41.2472643 437.153213,34.1705179 445.876336,34.1705179 L485.69907,34.1705179 C494.423195,34.1705179 501.495889,41.2472643 501.495889,49.9753851" id="Fill-2" fill="#D7F4FF" sketch:type="MSShapeGroup"></path>
                <path d="M593.184378,83.8641567 C593.184378,95.9070584 583.426104,105.66992 571.389096,105.66992 L421.652008,105.66992 C409.616003,105.66992 399.858731,95.9070584 399.858731,83.8641567 C399.858731,71.8202523 409.616003,62.0583931 421.652008,62.0583931 L571.389096,62.0583931 C583.426104,62.0583931 593.184378,71.8202523 593.184378,83.8641567" id="Fill-3" fill="#D7F4FF" sketch:type="MSShapeGroup"></path>
                <path d="M487.033843,83.8641567 C487.033843,95.9070584 477.277574,105.66992 465.240566,105.66992 L421.652008,105.66992 C409.616003,105.66992 399.858731,95.9070584 399.858731,83.8641567 C399.858731,71.8202523 409.616003,62.0583931 421.652008,62.0583931 L465.240566,62.0583931 C477.277574,62.0583931 487.033843,71.8202523 487.033843,83.8641567" id="Fill-4" fill="#FFFFFF" sketch:type="MSShapeGroup"></path>
                <path d="M461.673155,49.9753851 C461.673155,58.7055113 454.601463,65.7802523 445.876336,65.7802523 C437.153213,65.7802523 430.079517,58.7055113 430.079517,49.9753851 C430.079517,41.2462616 437.153213,34.1705179 445.876336,34.1705179 C454.601463,34.1705179 461.673155,41.2462616 461.673155,49.9753851" id="Fill-5" fill="#FFFFFF" sketch:type="MSShapeGroup"></path>
                <path d="M631.32662,121.461753 C631.32662,130.183858 624.260941,137.253586 615.543831,137.253586 L535.884333,137.253586 C527.168225,137.253586 520.101543,130.183858 520.101543,121.461753 C520.101543,112.740651 527.168225,105.66992 535.884333,105.66992 L615.543831,105.66992 C624.260941,105.66992 631.32662,112.740651 631.32662,121.461753" id="Fill-6" fill="#D7F4FF" sketch:type="MSShapeGroup"></path>
                <path d="M520.101543,121.461753 C520.101543,112.740651 527.168225,105.66992 535.884333,105.66992 L547.339131,105.66992 C556.054237,105.66992 563.121921,112.740651 563.121921,121.461753 C563.121921,130.183858 556.054237,137.253586 547.339131,137.253586 L535.884333,137.253586 C527.168225,137.253586 520.101543,130.183858 520.101543,121.461753" id="Fill-7" fill="#FFFFFF" sketch:type="MSShapeGroup"></path>
                <path d="M462.774443,153.79741 C462.774443,146.437915 456.813058,140.473114 449.457777,140.473114 C442.103498,140.473114 436.139106,146.437915 436.139106,153.79741 C436.139106,161.155903 442.103498,167.123712 449.457777,167.123712 C456.813058,167.123712 462.774443,161.155903 462.774443,153.79741" id="Fill-8" fill="#FFFFFF" sketch:type="MSShapeGroup"></path>
                <path d="M0.684421929,0.748984064 L281.754362,0.748984064 L281.754362,273.308997 L0.684421929,273.308997 L0.684421929,0.748984064 Z" id="Fill-9" fill="#EEEEED" sketch:type="MSShapeGroup"></path>
                <path d="M25.6693296,14.470332 L63.7764997,14.470332 L63.7764997,52.6003386 L25.6693296,52.6003386 L25.6693296,14.470332 Z" id="Fill-10" fill="#28D2FF" sketch:type="MSShapeGroup"></path>
                <path d="M89.9999806,14.470332 L128.108153,14.470332 L128.108153,52.6003386 L89.9999806,52.6003386 L89.9999806,14.470332 Z" id="Fill-11" fill="#28D2FF" sketch:type="MSShapeGroup"></path>
                <path d="M154.330632,14.470332 L192.438804,14.470332 L192.438804,52.6003386 L154.330632,52.6003386 L154.330632,14.470332 Z" id="Fill-12" fill="#28D2FF" sketch:type="MSShapeGroup"></path>
                <path d="M218.661282,14.470332 L256.768452,14.470332 L256.768452,52.6003386 L218.661282,52.6003386 L218.661282,14.470332 Z" id="Fill-13" fill="#28D2FF" sketch:type="MSShapeGroup"></path>
                <path d="M25.6693296,81.5821116 L63.7764997,81.5821116 L63.7764997,119.712118 L25.6693296,119.712118 L25.6693296,81.5821116 Z" id="Fill-14" fill="#28D2FF" sketch:type="MSShapeGroup"></path>
                <path d="M89.9999806,81.5821116 L128.108153,81.5821116 L128.108153,119.712118 L89.9999806,119.712118 L89.9999806,81.5821116 Z" id="Fill-15" fill="#28D2FF" sketch:type="MSShapeGroup"></path>
                <path d="M154.330632,81.5821116 L192.438804,81.5821116 L192.438804,119.712118 L154.330632,119.712118 L154.330632,81.5821116 Z" id="Fill-16" fill="#28D2FF" sketch:type="MSShapeGroup"></path>
                <path d="M218.661282,81.5821116 L256.768452,81.5821116 L256.768452,119.712118 L218.661282,119.712118 L218.661282,81.5821116 Z" id="Fill-17" fill="#28D2FF" sketch:type="MSShapeGroup"></path>
                <path d="M25.6693296,148.693891 L63.7764997,148.693891 L63.7764997,186.823898 L25.6693296,186.823898 L25.6693296,148.693891 Z" id="Fill-18" fill="#28D2FF" sketch:type="MSShapeGroup"></path>
                <path d="M89.9999806,148.693891 L128.108153,148.693891 L128.108153,186.823898 L89.9999806,186.823898 L89.9999806,148.693891 Z" id="Fill-19" fill="#28D2FF" sketch:type="MSShapeGroup"></path>
                <path d="M154.330632,148.693891 L192.438804,148.693891 L192.438804,186.823898 L154.330632,186.823898 L154.330632,148.693891 Z" id="Fill-20" fill="#28D2FF" sketch:type="MSShapeGroup"></path>
                <path d="M218.661282,148.693891 L256.768452,148.693891 L256.768452,186.823898 L218.661282,186.823898 L218.661282,148.693891 Z" id="Fill-21" fill="#28D2FF" sketch:type="MSShapeGroup"></path>
                <path d="M25.6693296,215.805671 L63.7764997,215.805671 L63.7764997,253.935677 L25.6693296,253.935677 L25.6693296,215.805671 Z" id="Fill-22" fill="#28D2FF" sketch:type="MSShapeGroup"></path>
                <path d="M89.9999806,215.805671 L128.108153,215.805671 L128.108153,253.935677 L89.9999806,253.935677 L89.9999806,215.805671 Z" id="Fill-23" fill="#28D2FF" sketch:type="MSShapeGroup"></path>
                <path d="M154.330632,215.805671 L192.438804,215.805671 L192.438804,253.935677 L154.330632,253.935677 L154.330632,215.805671 Z" id="Fill-24" fill="#28D2FF" sketch:type="MSShapeGroup"></path>
                <path d="M218.661282,215.805671 L256.768452,215.805671 L256.768452,253.935677 L218.661282,253.935677 L218.661282,215.805671 Z" id="Fill-25" fill="#28D2FF" sketch:type="MSShapeGroup"></path>
                <path d="M334.576103,247.037404 C334.576103,240.329635 329.141813,234.893234 322.438887,234.893234 C315.734959,234.893234 310.300669,240.329635 310.300669,247.037404 L310.300669,402.862185 L334.576103,402.862185 L334.576103,247.037404" id="Fill-26" fill="#9A7459" sketch:type="MSShapeGroup"></path>
                <path d="M440.143425,188.256693 C440.143425,245.574529 393.023531,292.04162 334.897771,292.04162 C276.773013,292.04162 229.652117,245.574529 229.652117,188.256693 L229.652117,187.747344 C229.652117,130.429509 276.773013,83.962417 334.897771,83.9614143 C393.023531,83.9614143 440.143425,130.429509 440.143425,187.747344 L440.143425,188.256693" id="Fill-27" fill="#5AB55C" sketch:type="MSShapeGroup"></path>
                <path d="M326.548425,306.802722 L326.548425,306.802722 C319.243248,306.301394 313.511339,300.655438 312.649549,293.636846 C309.102179,299.75405 301.606607,302.700857 294.682221,300.274429 C287.757835,297.849004 283.729466,290.860491 284.781652,283.86095 C279.731159,288.815073 271.714504,289.637251 265.691992,285.445146 C259.66948,281.255046 257.655295,273.45338 260.541291,266.987251 C254.338404,270.405305 246.391895,269.052722 241.712172,263.386713 C237.03245,257.732736 237.192783,249.661355 241.712172,244.206906 C234.817849,245.821182 227.522693,242.351992 224.55653,235.62417 C221.590368,228.886321 223.955281,221.154841 229.81746,217.144216 C222.732741,216.79429 216.680167,211.440106 215.688105,204.14077 C214.706065,196.871514 219.085163,190.11261 225.799112,187.867663 C219.095184,185.600657 214.726107,178.823705 215.728189,171.554449 L215.728189,171.564475 C216.740291,164.265139 222.812908,158.920983 229.907647,158.590106 C224.045468,154.569456 221.700597,146.828951 224.686801,140.101129 C227.673005,133.373307 234.968161,129.92417 241.872505,131.558499 C237.363137,126.094024 237.222845,118.022643 241.912588,112.367663 C246.612353,106.722709 254.558862,105.389177 260.741707,108.828287 C257.875753,102.351129 259.909979,94.5504648 265.942512,90.3794157 C271.975045,86.19834 279.9917,87.040571 285.032172,92.013745 C284.000028,85.0051793 288.048439,78.0367198 294.972824,75.6303453 C301.89721,73.2239708 309.392783,76.1818061 312.920111,82.3080345 C313.791922,75.2894422 319.543872,69.6645418 326.85907,69.1832669 C334.154226,68.701992 340.587592,73.5347942 342.371298,80.3628818 C345.056877,73.8255644 352.081471,69.9051793 359.266398,71.3590305 C366.451325,72.8229084 371.391589,79.1998008 371.301402,86.2785525 C375.630396,80.6737052 383.466676,78.7686587 390.00025,82.0974768 C396.533824,85.4363214 399.590173,92.8960823 397.616072,99.6940903 C403.287856,95.4628818 411.344594,95.7135458 416.745815,100.676693 C422.157058,105.639841 423.109035,113.651062 419.37127,119.677025 C425.98501,117.120252 433.680999,119.54668 437.549035,125.783201 L437.549035,125.793227 C441.417071,132.039774 440.164469,140.020916 434.923581,144.803586 C441.988258,144.161886 448.74229,148.613679 450.746454,155.69243 C452.750618,162.771182 449.333518,170.100598 442.980319,173.258964 C449.924747,174.58247 455.175656,180.688645 455.175656,188.028088 L455.175656,188.258699 C455.175656,195.608167 449.904705,201.723367 442.940236,203.037849 C449.283414,206.206242 452.680472,213.544681 450.656266,220.624436 C448.632061,227.693161 441.868008,232.133924 434.803331,231.463147 C440.024178,236.255843 441.266759,244.247012 437.378681,250.493559 C433.490604,256.720053 425.784594,259.125425 419.190895,256.559628 C422.898598,262.585591 421.926579,270.596813 416.505316,275.539907 C411.094074,280.483001 403.047356,280.722636 397.385593,276.482404 C399.339653,283.280412 396.263262,290.730146 389.719667,294.048938 C383.176072,297.3567 375.359833,295.4316 371.040861,289.827756 C371.100985,296.906507 366.150701,303.25332 358.955753,304.697145 C351.780847,306.140969 344.766273,302.199529 342.090715,295.663214 C340.377155,302.159422 334.454851,306.832802 327.580569,306.832802 C327.239861,306.832802 326.899153,306.822776 326.548425,306.802722 L326.548425,306.802722 Z M341.479445,286.076819 C342.902401,280.722636 347.251437,276.372112 353.04347,275.208028 C358.835503,274.044947 364.507287,276.372112 367.894323,280.743692 C367.85424,275.219057 370.870507,269.8749 376.141457,267.207835 C381.402387,264.54077 387.495045,265.271707 391.924247,268.570445 C390.411103,263.257371 391.894185,257.301594 396.24322,253.320046 C400.602276,249.340505 406.664872,248.408035 411.815573,250.40332 C408.929577,245.700863 408.749202,239.573632 411.865677,234.571381 C414.982151,229.578154 420.543706,227.040432 426.025094,227.552789 C421.976683,223.821906 420.132852,217.997477 421.756225,212.342497 C423.369577,206.696541 428.009216,202.726023 433.400416,201.704316 C428.490215,199.227756 425.113199,194.134263 425.113199,188.258699 L425.113199,188.028088 C425.113199,182.131467 428.510257,177.028951 433.4405,174.562417 C428.049299,173.519655 423.419681,169.53911 421.81635,163.88413 C420.22304,158.22915 422.076891,152.413745 426.125302,148.693891 C420.643914,149.185193 415.09238,146.638446 411.995947,141.635193 C408.889493,136.631939 409.079889,130.50571 411.985926,125.803254 C406.825205,127.778486 400.77263,126.835989 396.423595,122.845418 C392.074559,118.854847 390.61152,112.889044 392.144705,107.574967 C387.705482,110.873705 381.612824,111.585591 376.351895,108.898473 C371.090965,106.221381 368.084719,100.867198 368.144844,95.3325365 C364.747786,99.6940903 359.065982,102.020252 353.273949,100.837118 C347.481915,99.6640106 343.142901,95.2924303 341.729965,89.938247 C339.605552,95.0618194 334.725413,98.811753 328.81313,99.2027888 C322.920888,99.5837981 317.599833,96.5156707 314.824067,91.7229748 C314.122609,97.2075033 310.414906,102.100465 304.843331,104.045618 C299.261735,105.980744 293.319389,104.44668 289.371187,100.566401 C290.172852,106.040903 287.908147,111.756042 283.04805,115.11494 C278.197974,118.473838 272.065232,118.58413 267.225177,115.907039 C269.449799,120.970452 268.798446,127.0666 265.030618,131.608632 C261.26279,136.140637 255.39059,137.885259 250.029452,136.631939 C253.526718,140.883201 254.548841,146.91919 252.163886,152.303453 C249.778931,157.677689 244.638251,160.956375 239.136822,161.227092 C243.666232,164.345352 246.311728,169.849934 245.510062,175.675365 C244.698376,181.52085 240.639944,186.113015 235.409077,187.877689 C240.629924,189.651388 244.688355,194.254582 245.48,200.110093 C246.261624,205.925498 243.616128,211.41905 239.076697,214.538313 C244.568105,214.819057 249.698765,218.117795 252.073699,223.491029 C254.438612,228.876295 253.406468,234.902258 249.899181,239.153519 C255.27034,237.910226 261.122498,239.6749 264.880305,244.21593 C268.638112,248.758964 269.269424,254.864137 267.034781,259.917523 C271.874837,257.261487 278.017599,257.381806 282.857654,260.759754 C287.707731,264.129681 289.952394,269.844821 289.140708,275.319323 C293.098931,271.459097 299.051298,269.93506 304.622873,271.880212 C310.194448,273.834389 313.89213,278.73838 314.573546,284.231932 C317.359334,279.440239 322.690409,276.381135 328.582651,276.793227 L328.582651,276.783201 C334.484913,277.184263 339.365052,280.944223 341.479445,286.076819 L341.479445,286.076819 Z" id="Fill-28" fill="#5AB55C" sketch:type="MSShapeGroup"></path>
                <path d="M408.587867,191.072151 C408.587867,252.871859 374.861799,302.968566 322.438887,302.968566 C260.676572,302.968566 210.60755,252.870857 210.60755,191.072151 L210.60755,190.308127 C210.60755,128.509422 260.67557,78.4127158 322.438887,78.4117131 C374.861799,78.4117131 408.587867,128.510425 408.587867,190.30913 L408.587867,191.072151" id="Fill-29" fill="#A9D163" sketch:type="MSShapeGroup"></path>
                <path d="M311.747675,317.561222 L311.747675,317.561222 C304.873393,316.988705 299.462151,311.866135 298.229591,305.399004 C294.491825,310.813347 287.477252,313.319987 280.943678,311.052981 L280.953699,311.052981 C274.420125,308.797005 270.44186,302.490299 270.852713,295.913878 C265.892408,300.245352 258.477002,300.927158 252.70501,297.127092 C246.94304,293.327025 244.648272,286.237244 246.662457,279.970644 C240.790257,282.949535 233.444997,281.796481 228.785316,276.692961 C224.125635,271.599469 223.634615,264.169788 227.12186,258.59502 C220.698515,260.028818 213.854296,257.111089 210.597529,251.023964 C207.330743,244.938845 208.683553,237.599402 213.433421,233.047344 C206.849743,232.866866 200.93746,228.324834 199.274004,221.617065 C197.620569,214.919323 200.737044,208.151394 206.468952,204.912815 C200.175878,203.118061 195.576322,197.322709 195.576322,190.454515 C195.576322,183.555239 200.20594,177.750863 206.529077,175.976162 C200.81721,172.707503 197.720777,165.929548 199.404275,159.231806 C201.097793,152.534064 207.040139,148.022112 213.623817,147.871713 C208.883969,143.289575 207.561221,135.950133 210.84805,129.874037 C214.144899,123.797942 221.00916,120.910292 227.422484,122.384197 C223.955281,116.779349 224.476364,109.349668 229.166107,104.276228 C233.835808,99.2027888 241.19109,98.0798141 247.053269,101.077756 C245.059126,94.8011288 247.393976,87.7223772 253.165968,83.9523904 C258.947981,80.1723772 266.363387,80.8942895 271.30365,85.2458167 C270.922859,78.6683931 274.931187,72.3717131 281.464761,70.1458167 C287.998334,67.9098938 295.002887,70.4466135 298.720611,75.8810093 C299.983234,69.4138778 305.414518,64.3203851 312.288799,63.7689243 C319.263289,63.2174635 325.496239,67.5188579 327.680777,73.835591 C330.787231,67.7294157 337.791783,64.3404382 344.716169,66.0650066 L344.72619,66.0650066 C351.70068,67.8096282 356.310257,74.1664675 356.10984,81.0847942 C361.2405,76.4725764 369.046718,75.8609562 374.888855,80.0320053 C380.670867,84.1629482 382.65499,91.6327357 380.079639,97.9394422 C386.33263,95.4227756 393.717974,97.3579017 397.856572,103.063015 C401.935045,108.677888 401.564275,116.177756 397.405635,121.341434 C403.939209,120.679681 410.372575,124.389509 412.897821,130.796481 C415.382984,137.143293 413.278612,144.161886 408.167994,148.152457 C414.561277,148.954582 419.962498,153.837517 421.114892,160.525232 C422.257266,167.162815 418.870229,173.539708 413.178404,176.467463 C419.230978,178.40259 423.620097,184.087649 423.620097,190.785392 L423.620097,191.075159 C423.620097,197.793958 419.210937,203.478015 413.138321,205.414143 C418.820125,208.351926 422.197141,214.738845 421.024705,221.376428 C419.852269,228.064143 414.431006,232.927025 408.027703,233.69907 C413.1283,237.719721 415.21263,244.74834 412.697405,251.085126 C410.142096,257.492098 403.688688,261.170843 397.165135,260.480013 C401.303734,265.663745 401.634421,273.16261 397.535906,278.768459 L397.525885,278.768459 C393.357224,284.453519 385.96186,286.348539 379.71889,283.791766 C382.254157,290.118526 380.229951,297.588313 374.417876,301.67915 C368.545677,305.810093 360.739459,305.158367 355.648883,300.506042 C355.809216,307.423367 351.149535,313.761155 344.155003,315.455644 C337.220597,317.13008 330.246107,313.700996 327.179736,307.584794 C325.095406,313.500465 319.463706,317.611355 313.020319,317.611355 C312.599445,317.611355 312.17857,317.601328 311.747675,317.561222 L311.747675,317.561222 Z M314.25288,287.591833 C319.664122,288.043028 324.16347,291.311687 326.438196,295.833665 C328.08161,291.201394 331.949646,287.461487 337.080305,286.218194 C342.110756,284.994954 347.17127,286.468858 350.738681,289.706434 C350.628452,284.874635 352.863095,280.081939 357.111922,277.083997 C361.460958,274.01587 366.8722,273.583725 371.451714,275.458692 C369.597863,270.797344 370.108924,265.311813 373.295545,260.971315 C376.572353,256.509495 381.843303,254.373838 386.983983,254.904243 C383.727217,250.824436 382.695073,245.159429 384.759362,239.965671 C386.863734,234.671647 391.643664,231.232537 396.924636,230.589834 C392.715892,227.272045 390.421124,221.80757 391.413185,216.162616 C392.425288,210.456501 396.513782,206.075896 401.674504,204.431541 C396.85449,201.9249 393.557641,196.880538 393.557641,191.075159 L393.557641,190.785392 C393.557641,184.95996 396.874532,179.906574 401.714587,177.40996 C396.563886,175.755578 392.475392,171.353918 391.493352,165.648805 C390.521332,159.993825 392.826121,154.539376 397.044885,151.230611 C391.763914,150.568858 387.004025,147.109695 384.919695,141.815671 C382.865427,136.601859 383.927634,130.936853 387.194421,126.866069 C382.05374,127.377424 376.792811,125.221713 373.536044,120.739841 C370.369466,116.378287 369.888466,110.883732 371.77238,106.231408 C367.172824,108.076295 361.761582,107.615073 357.422568,104.516866 C353.193782,101.498871 350.999223,96.6861222 351.129493,91.8533201 C347.54204,95.0618194 342.471506,96.5056441 337.451076,95.252324 C332.330437,93.9789509 328.492464,90.2189907 326.879112,85.5867198 C324.584344,90.0886454 320.074976,93.3272244 314.673754,93.7583665 L314.663734,93.7583665 C309.1122,94.1995352 304.011603,91.5525232 301.075503,87.2611554 C300.073421,92.3646746 296.445885,96.8164675 291.164913,98.6112218 C285.893963,100.416003 280.302346,99.1125498 276.394226,95.6734396 C276.68483,100.877224 274.269813,106.081009 269.600111,109.13911 C264.930409,112.187185 259.18848,112.307503 254.548841,109.941235 C256.112089,114.914409 255.049882,120.559363 251.262012,124.670252 C247.474143,128.771116 241.93263,130.295153 236.852075,129.132072 C239.587759,133.563811 239.938487,139.299004 237.28297,144.212019 C234.617432,149.125033 229.627065,151.952523 224.42626,152.082869 C228.164025,155.702457 229.927689,161.166932 228.564858,166.581275 C227.202026,171.985591 223.063428,175.976162 218.053019,177.389907 C222.582429,179.97676 225.638779,184.859695 225.638779,190.454515 C225.638779,196.069389 222.562387,200.962351 218.002915,203.549203 C223.003303,204.981999 227.12186,208.983599 228.46465,214.407968 L228.46465,214.397942 C229.797418,219.822311 228.023734,225.27676 224.265926,228.876295 C229.466731,229.026693 234.447078,231.884263 237.082554,236.797278 C239.718029,241.720319 239.347259,247.445485 236.591534,251.867198 C241.672089,250.733194 247.203581,252.277284 250.971409,256.399203 C254.739237,260.52012 255.781402,266.1751 254.188092,271.148274 C258.847772,268.802058 264.589702,268.932404 269.249382,272.010558 C273.909063,275.087709 276.304039,280.302523 275.983373,285.506308 C279.911534,282.087251 285.503151,280.803851 290.774101,282.628685 C296.045052,284.453519 299.652547,288.914336 300.634587,294.028884 C303.36025,290.07842 307.929743,287.531673 312.980236,287.531673 C313.40111,287.531673 313.821985,287.551726 314.25288,287.591833 L314.25288,287.591833 Z" id="Fill-30" fill="#A9D163" sketch:type="MSShapeGroup"></path>
                <path d="M383.844461,191.072151 C383.844461,252.871859 344.662057,302.968566 322.438887,302.968566 C260.676572,302.968566 210.60755,252.870857 210.60755,191.072151 L210.60755,190.308127 C210.60755,128.509422 260.67557,78.4127158 322.438887,78.4117131 C353.907264,78.4117131 383.844461,128.510425 383.844461,190.30913 L383.844461,191.072151" id="Fill-31" fill="#D0D766" sketch:type="MSShapeGroup"></path>
                <path d="M314.954337,317.791833 C307.719306,317.370717 301.977377,311.886189 300.965274,304.987915 C297.508092,311.052981 290.162831,314.071979 283.268508,311.836056 C276.364164,309.600133 272.185482,302.832205 272.957085,295.883798 C268.086967,300.887052 260.210604,301.948865 254.107925,298.039509 C247.995226,294.12915 245.670396,286.539044 248.165579,280.011753 C242.193171,283.621315 234.316808,282.668792 229.386565,277.354714 C224.466343,272.039635 224.105593,264.109628 228.143983,258.424568 C221.460097,260.409827 214.084774,257.512151 210.647634,251.125232 C207.210493,244.738313 208.863928,236.967729 214.215045,232.474827 C207.240555,232.716467 200.827231,228.034064 199.123692,220.975365 C197.420153,213.925691 200.987564,206.837915 207.290659,203.85 C200.526607,202.325963 195.506176,196.248865 195.586343,189.030744 L195.586343,189.04077 C195.656489,181.791567 200.837252,175.785657 207.67145,174.432072 C201.448522,171.283732 198.071506,164.094688 199.965441,157.096149 C201.859375,150.077556 208.412991,145.575631 215.37746,146.006773 C210.146593,141.374502 208.703595,133.563811 212.31109,127.257105 C215.908563,120.970452 223.374074,118.273307 230.007856,120.439044 C226.119778,114.643692 226.680944,106.732736 231.751478,101.549004 C236.822012,96.3652722 244.708397,95.6233068 250.580597,99.3832669 C248.275808,92.7958167 250.811076,85.285923 257.013963,81.5359894 C263.22687,77.7860558 271.063151,79.059429 275.802998,84.1930279 C275.22179,77.2245684 279.570826,70.5869854 286.535295,68.5315405 C293.489743,66.4861222 300.744816,69.6946215 304.031645,75.8509296 C305.234143,68.9827357 311.126384,63.6686587 318.361416,63.4380478 C326.438196,63.1773572 333.232311,69.3537185 333.83356,77.3448871 C339.024344,71.2788181 348.113227,70.3262948 354.476447,75.2794157 C360.478917,79.9718459 361.961999,88.3039177 358.224233,94.7108898 C364.908119,92.17417 372.644192,94.7108898 376.442082,101.057703 C380.149785,107.254117 378.877141,115.034728 373.816627,119.767264 C380.640805,119.115538 387.244525,123.226428 389.489188,130.014409 C391.71381,136.732205 388.938043,143.901195 383.206135,147.490704 C389.910062,148.122377 395.591867,153.24595 396.644053,160.224436 C397.686218,167.162815 393.808161,173.720186 387.625316,176.327092 C394.098765,178.001527 398.878695,183.886116 398.878695,190.885657 L398.878695,191.075159 C398.878695,198.184993 393.938432,204.14077 387.31467,205.71494 C393.507536,208.512351 397.215239,215.290305 395.87245,222.258765 L395.87245,222.268792 C394.52966,229.237251 388.577294,234.140239 381.793199,234.440033 C387.364774,238.331341 389.75975,245.669781 387.154337,252.277284 C384.548924,258.895817 377.76483,262.634721 371.020819,261.653121 C375.800749,266.565133 376.742706,274.295611 372.86465,280.302523 C368.926468,286.407696 361.300625,288.703778 354.787092,286.157032 C358.454712,292.354449 357.232172,300.475963 351.560389,305.287709 C345.397585,310.511547 336.238557,309.910956 330.807273,304.025365 C330.16594,311.836056 323.622346,317.82091 315.84619,317.82091 C315.545566,317.82091 315.254962,317.811886 314.954337,317.791833 L314.954337,317.791833 Z M292.537765,283.220252 L292.537765,283.229276 C298.149424,285.045086 301.957335,289.847809 302.779042,295.312284 C305.514726,290.519588 310.815739,287.421381 316.707981,287.762284 C320.746371,287.991892 324.313782,289.807703 326.85907,292.55498 C327.179736,288.724834 328.963442,285.015007 332.130021,282.337915 C336.479056,278.637112 342.321194,277.856042 347.29152,279.791169 C344.495711,275.047603 344.425566,268.932404 347.612186,263.979283 C350.909035,258.88579 356.761194,256.439309 362.392894,257.250458 C358.404608,253.149595 356.951589,246.93413 359.186232,241.259097 C361.430895,235.563008 366.75195,232.004582 372.493879,231.743891 C367.794115,228.445153 365.198723,222.579615 366.361138,216.573705 C367.513532,210.577822 372.073005,206.105976 377.64458,204.78247 C372.433754,202.416202 368.816239,197.171308 368.816239,191.075159 L368.816239,190.885657 C368.816239,184.649137 372.604108,179.30498 377.995309,177.028951 C372.353588,175.555046 367.844219,170.842563 366.912283,164.706308 C365.990368,158.600133 368.876364,152.804781 373.796586,149.7166 C368.044636,149.165139 362.883914,145.304914 360.949896,139.469456 C359.04594,133.724236 360.799584,127.648141 364.948203,123.757835 C359.366607,124.279216 353.714865,121.632205 350.648494,116.498606 C347.742457,111.635724 347.892769,105.790239 350.558307,101.208101 C345.808439,103.002855 340.276947,102.351129 335.988036,99.0022576 C332.510812,96.2950863 330.546731,92.3546481 330.236086,88.273838 C327.59059,91.351992 323.702512,93.3573041 319.313393,93.497676 C313.411131,93.6881806 308.200305,90.4496016 305.584872,85.5766932 C304.622873,91.011089 300.684691,95.7135458 295.032949,97.3879814 C289.371187,99.0523904 283.519028,97.237583 279.761221,93.1868526 C280.202137,98.7014608 277.586704,104.246149 272.536211,107.294223 C267.485718,110.342297 261.352977,110.07158 256.683276,107.093692 C258.507065,112.31753 257.364691,118.353519 253.236114,122.584728 C249.107536,126.80591 243.095045,128.079283 237.834115,126.364741 C240.910507,130.966932 241.32136,137.093161 238.38526,142.216733 C235.44916,147.340305 229.957752,150.087583 224.446301,149.756707 C228.574879,153.426428 230.528938,159.251859 228.985732,164.946946 C227.442526,170.642032 222.832949,174.682736 217.421707,175.775631 C222.35195,178.282271 225.698904,183.424894 225.638779,189.331541 C225.588675,195.277291 222.081388,200.38081 217.060958,202.777158 C222.442137,204.000398 226.951506,208.171448 228.3444,213.916667 C229.727273,219.650857 227.622901,225.407105 223.404136,228.965531 C228.915586,228.79508 234.326829,231.673705 237.122637,236.87749 C239.918446,242.071248 239.337238,248.18745 236.150618,252.699402 C241.451631,251.135259 247.424039,252.568054 251.432366,256.900531 C255.450715,261.232005 256.422734,267.308101 254.458654,272.481806 C259.198501,269.634263 265.341263,269.513944 270.32161,272.701388 C275.291936,275.890837 277.757058,281.515737 277.155808,287.010292 C279.961638,284.142696 283.839695,282.488313 287.898126,282.488313 C289.441332,282.488313 291.00458,282.727948 292.537765,283.220252 L292.537765,283.220252 Z" id="Fill-32" fill="#D0D766" sketch:type="MSShapeGroup"></path>
                <path d="M1172.42378,247.037404 C1172.42378,240.329635 1166.98949,234.893234 1160.28657,234.893234 C1153.58364,234.893234 1148.14935,240.329635 1148.14935,247.037404 L1148.14935,402.862185 L1172.42378,402.862185 L1172.42378,247.037404" id="Fill-33" fill="#9A7459" sketch:type="MSShapeGroup"></path>
                <path d="M1277.99211,188.256693 C1277.99211,245.574529 1230.87221,292.04162 1172.74645,292.04162 C1114.6217,292.04162 1067.4998,245.574529 1067.4998,188.256693 L1067.4998,187.747344 C1067.4998,130.429509 1114.62069,83.962417 1172.74645,83.9614143 C1230.87221,83.9614143 1277.99211,130.429509 1277.99211,187.747344 L1277.99211,188.256693" id="Fill-34" fill="#5AB55C" sketch:type="MSShapeGroup"></path>
                <path d="M1164.39911,306.802722 C1157.09393,306.301394 1151.35201,300.655438 1150.50024,293.636846 C1146.95287,299.75405 1139.44727,302.700857 1132.53291,300.274429 C1125.60852,297.849004 1121.58015,290.860491 1122.63234,283.86095 C1117.57183,288.815073 1109.55517,289.637251 1103.53266,285.445146 C1097.51015,281.255046 1095.50598,273.444356 1098.38196,266.987251 C1092.18909,270.405305 1084.24258,269.052722 1079.56286,263.386713 C1074.88314,257.732736 1075.04347,249.661355 1079.56286,244.206906 C1072.65851,245.821182 1065.37338,242.351992 1062.40722,235.62417 C1059.44105,228.886321 1061.80597,221.154841 1067.66815,217.144216 C1060.57341,216.79429 1054.52083,211.440106 1053.53879,204.14077 C1052.55675,196.871514 1056.93585,190.11261 1063.6498,187.867663 C1056.94587,185.600657 1052.57679,178.833732 1053.57888,171.554449 L1053.57888,171.564475 C1054.58096,164.265139 1060.65357,158.920983 1067.74831,158.590106 C1061.89616,154.569456 1059.55128,146.828951 1062.53749,140.101129 C1065.51367,133.373307 1072.81885,129.92417 1079.72319,131.558499 C1075.2038,126.094024 1075.06351,118.022643 1079.76328,112.367663 C1084.45302,106.722709 1092.40955,105.389177 1098.59239,108.828287 C1095.72644,102.351129 1097.76067,94.5504648 1103.7932,90.3794157 C1109.82573,86.19834 1117.83237,87.040571 1122.87284,92.013745 C1121.85071,85.0051793 1125.8891,78.0367198 1132.82351,75.6303453 C1139.7479,73.2239708 1147.23345,76.1818061 1150.7708,82.3080345 C1151.64261,75.2894422 1157.39456,69.6645418 1164.69974,69.1832669 C1172.00491,68.701992 1178.42826,73.5347942 1180.22198,80.3628818 C1182.90756,73.8255644 1189.93216,69.9051793 1197.10706,71.3590305 C1204.30201,72.8229084 1209.24228,79.1998008 1209.15209,86.2785525 C1213.48108,80.6737052 1221.31736,78.7686587 1227.85094,82.0974768 C1234.38451,85.4363214 1237.44086,92.8960823 1235.46676,99.6940903 C1241.13854,95.4628818 1249.18526,95.7135458 1254.5965,100.676693 C1260.00774,105.639841 1260.9497,113.651062 1257.22196,119.677025 C1263.8357,117.120252 1271.53169,119.54668 1275.39972,125.783201 L1275.39972,125.793227 C1279.26776,132.039774 1278.00514,140.020916 1272.77427,144.803586 C1279.83895,144.161886 1286.59298,148.613679 1288.59714,155.69243 C1290.59128,162.771182 1287.18421,170.100598 1280.83101,173.258964 C1287.77543,174.58247 1293.02634,180.688645 1293.02634,188.028088 L1293.02634,188.258699 C1293.02634,195.608167 1287.75539,201.723367 1280.79092,203.037849 C1287.1341,206.206242 1290.52114,213.544681 1288.50695,220.624436 C1286.48275,227.693161 1279.7187,232.133924 1272.644,231.463147 C1277.87486,236.255843 1279.11745,244.247012 1275.22937,250.493559 C1271.34129,256.720053 1263.63528,259.125425 1257.03156,256.559628 C1260.74929,262.585591 1259.77727,270.596813 1254.356,275.539907 C1248.94476,280.483001 1240.88802,280.722636 1235.22626,276.482404 C1237.19034,283.280412 1234.10393,290.730146 1227.57035,294.048938 C1221.02676,297.3567 1213.2005,295.4316 1208.88153,289.827756 C1208.95167,296.906507 1204.00139,303.25332 1196.80644,304.697145 C1189.63153,306.140969 1182.61696,302.199529 1179.9414,295.663214 C1178.21782,302.159422 1172.29552,306.832802 1165.43126,306.832802 C1165.09055,306.832802 1164.73982,306.822776 1164.39911,306.802722 L1164.39911,306.802722 Z M1179.32011,286.076819 C1180.75309,280.722636 1185.10212,276.372112 1190.89416,275.208028 C1196.68619,274.044947 1202.35797,276.381135 1205.74501,280.753718 C1205.70493,275.219057 1208.72119,269.8749 1213.99214,267.207835 C1219.25307,264.54077 1225.34573,265.271707 1229.77493,268.570445 C1228.25177,263.257371 1229.73485,257.301594 1234.09391,253.320046 C1238.45296,249.340505 1244.50554,248.408035 1249.65624,250.40332 C1246.78026,245.700863 1246.59989,239.573632 1249.71636,234.571381 C1252.83284,229.578154 1258.39439,227.040432 1263.87578,227.552789 C1259.82737,223.821906 1257.98354,217.997477 1259.59689,212.342497 C1261.22026,206.696541 1265.84988,202.726023 1271.2511,201.704316 C1266.33088,199.227756 1262.96389,194.134263 1262.96389,188.258699 L1262.96389,188.028088 C1262.96389,182.131467 1266.35092,177.028951 1271.29119,174.562417 C1265.88997,173.519655 1261.27037,169.53911 1259.66704,163.88413 C1258.06371,158.22915 1259.92758,152.413745 1263.97599,148.693891 C1258.4946,149.185193 1252.94307,146.638446 1249.84663,141.635193 C1246.74018,136.631939 1246.93058,130.50571 1249.82659,125.803254 C1244.67589,127.778486 1238.62332,126.835989 1234.27428,122.845418 C1229.92525,118.854847 1228.46221,112.889044 1229.99539,107.574967 C1225.55617,110.873705 1219.46351,111.585591 1214.20258,108.898473 C1208.94165,106.221381 1205.93541,100.857171 1205.99553,95.3325365 C1202.59847,99.6940903 1196.90665,102.020252 1191.12464,100.837118 C1185.32258,99.6640106 1180.99359,95.2924303 1179.58065,89.938247 C1177.45624,95.0618194 1172.56608,98.811753 1166.66382,99.2027888 C1160.77158,99.5837981 1155.4405,96.5156707 1152.67475,91.7229748 C1151.9733,97.2075033 1148.26559,102.100465 1142.684,104.045618 C1137.11242,105.980744 1131.17008,104.44668 1127.22187,100.576428 C1128.01352,106.040903 1125.74881,111.756042 1120.89874,115.11494 C1116.04866,118.473838 1109.9059,118.58413 1105.07586,115.907039 C1107.30049,120.970452 1106.64913,127.0666 1102.87128,131.608632 C1099.10346,136.140637 1093.24128,137.885259 1087.87012,136.631939 C1091.3774,140.883201 1092.39953,146.91919 1090.01457,152.303453 C1087.62962,157.667663 1082.47892,160.956375 1076.98751,161.227092 C1081.51692,164.345352 1084.16241,169.849934 1083.36075,175.675365 C1082.54906,181.52085 1078.49063,186.113015 1073.24974,187.877689 C1078.48061,189.651388 1082.53904,194.254582 1083.33069,200.110093 C1084.11231,205.925498 1081.45679,211.41905 1076.92738,214.538313 C1082.41879,214.819057 1087.54945,218.117795 1089.92439,223.491029 C1092.2893,228.876295 1091.25715,234.902258 1087.73985,239.153519 C1093.11101,237.910226 1098.97319,239.6749 1102.72097,244.21593 C1106.4888,248.758964 1107.12011,254.864137 1104.87545,259.917523 C1109.72552,257.261487 1115.85827,257.381806 1120.70834,260.759754 C1125.5484,264.129681 1127.80308,269.844821 1126.99139,275.319323 C1130.94962,271.459097 1136.89196,269.93506 1142.47356,271.880212 C1148.03511,273.834389 1151.7328,278.73838 1152.42423,284.231932 C1155.21002,279.440239 1160.5411,276.381135 1166.43334,276.793227 L1166.43334,276.783201 C1172.3356,277.184263 1177.21574,280.944223 1179.32011,286.076819 L1179.32011,286.076819 Z" id="Fill-35" fill="#5AB55C" sketch:type="MSShapeGroup"></path>
                <path d="M1246.43555,191.072151 C1246.43555,252.871859 1212.70948,302.968566 1160.28757,302.968566 C1098.52425,302.968566 1048.45523,252.870857 1048.45523,191.072151 L1048.45523,190.308127 C1048.45523,128.509422 1098.52425,78.4127158 1160.28757,78.4117131 C1212.70948,78.4117131 1246.43555,128.510425 1246.43555,190.30913 L1246.43555,191.072151" id="Fill-36" fill="#A9D163" sketch:type="MSShapeGroup"></path>
                <path d="M1149.59836,317.561222 L1149.59836,317.561222 C1142.72408,316.988705 1137.31284,311.866135 1136.08028,305.399004 C1132.34251,310.813347 1125.31792,313.319987 1118.79437,311.052981 C1112.27081,308.797005 1108.29255,302.490299 1108.7034,295.913878 C1103.7431,300.245352 1096.31767,300.927158 1090.5557,297.127092 C1084.79373,293.327025 1082.49896,286.237244 1084.51314,279.970644 C1078.64094,282.949535 1071.28566,281.796481 1066.636,276.692961 C1061.97632,271.599469 1061.4853,264.169788 1064.96253,258.59502 C1058.5492,260.028818 1051.70498,257.111089 1048.4382,251.023964 C1045.18143,244.938845 1046.52422,237.599402 1051.28411,233.047344 C1044.70043,232.866866 1038.77813,228.324834 1037.12469,221.617065 C1035.47126,214.919323 1038.58773,208.151394 1044.31964,204.912815 C1038.02656,203.118061 1033.42701,197.322709 1033.42701,190.454515 C1033.42701,183.555239 1038.05663,177.750863 1044.37976,175.976162 C1038.65788,172.707503 1035.57146,165.929548 1037.25496,159.231806 C1038.93846,152.534064 1044.8808,148.022112 1051.4745,147.871713 C1046.72464,143.289575 1045.40189,135.950133 1048.69874,129.874037 C1051.99559,123.797942 1058.84983,120.910292 1065.27317,122.384197 C1061.80597,116.779349 1062.32705,109.349668 1067.00677,104.276228 C1071.6865,99.2027888 1079.04178,98.0798141 1084.89393,101.067729 C1082.90981,94.8011288 1085.24466,87.7223772 1091.01666,83.9523904 C1096.79867,80.1723772 1104.21407,80.8942895 1109.15434,85.2458167 C1108.77355,78.6683931 1112.77185,72.3717131 1119.31545,70.1458167 C1125.84902,67.9098938 1132.85357,70.4466135 1136.5713,75.8810093 C1137.83392,69.4138778 1143.2652,64.3203851 1150.13949,63.7689243 C1157.11398,63.2174635 1163.34693,67.5188579 1165.53146,73.835591 C1168.63792,67.7294157 1175.64247,64.3404382 1182.56686,66.0650066 C1189.55137,67.8096282 1194.16094,74.1664675 1193.96053,81.0847942 C1199.09119,76.4725764 1206.8974,75.8609562 1212.73954,80.0320053 C1218.52155,84.1629482 1220.50568,91.6327357 1217.93033,97.9394422 C1224.1733,95.4227756 1231.56866,97.3579017 1235.70726,103.063015 C1239.78573,108.677888 1239.41496,116.177756 1235.25632,121.341434 C1241.77988,120.679681 1248.22326,124.389509 1250.73849,130.796481 C1253.23367,137.143293 1251.11928,144.161886 1246.01868,148.152457 C1252.41196,148.954582 1257.81319,153.837517 1258.96558,160.525232 C1260.10795,167.162815 1256.72092,173.539708 1251.02909,176.467463 C1257.08167,178.40259 1261.47078,184.087649 1261.47078,190.785392 L1261.47078,191.075159 C1261.47078,197.793958 1257.06162,203.478015 1250.98901,205.414143 C1256.67081,208.351926 1260.03781,214.738845 1258.87539,221.376428 C1257.69294,228.064143 1252.28169,232.927025 1245.87839,233.709097 C1250.97899,237.719721 1253.06332,244.74834 1250.54809,251.085126 L1250.53807,251.085126 C1247.99278,257.492098 1241.53938,261.170843 1235.0058,260.480013 C1239.1444,265.663745 1239.48511,273.16261 1235.37657,278.768459 C1231.20791,284.453519 1223.80253,286.348539 1217.56958,283.791766 C1220.10484,290.118526 1218.08064,297.588313 1212.26856,301.67915 C1206.39636,305.810093 1198.59015,305.158367 1193.49957,300.506042 C1193.64988,307.423367 1189.00022,313.761155 1182.00569,315.455644 C1175.07128,317.13008 1168.08677,313.700996 1165.03042,307.584794 C1162.94609,313.500465 1157.30437,317.611355 1150.87101,317.611355 C1150.45013,317.611355 1150.01924,317.601328 1149.59836,317.561222 L1149.59836,317.561222 Z M1152.10357,287.591833 C1157.51481,288.043028 1162.01416,291.311687 1164.28888,295.833665 C1165.92228,291.201394 1169.80033,287.461487 1174.93099,286.218194 C1179.96144,284.994954 1185.01194,286.468858 1188.57935,289.706434 C1188.47914,284.874635 1190.70376,280.081939 1194.96261,277.083997 C1199.31164,274.01587 1204.72289,273.583725 1209.3024,275.458692 C1207.44855,270.797344 1207.95961,265.311813 1211.14623,260.971315 C1214.41302,256.509495 1219.69399,254.373838 1224.82465,254.904243 C1221.5779,250.824436 1220.54576,245.159429 1222.61005,239.965671 C1224.71442,234.671647 1229.49435,231.232537 1234.77532,230.589834 C1230.56658,227.272045 1228.27181,221.80757 1229.26387,216.162616 C1230.26595,210.456501 1234.36447,206.075896 1239.52519,204.431541 C1234.69516,201.9249 1231.40833,196.880538 1231.40833,191.075159 L1231.40833,190.785392 C1231.40833,184.95996 1234.7152,179.906574 1239.56527,177.40996 C1234.40455,175.755578 1230.32608,171.353918 1229.34404,165.648805 C1228.362,159.993825 1230.67681,154.539376 1234.89557,151.230611 C1229.6146,150.568858 1224.85471,147.109695 1222.77038,141.815671 C1220.71611,136.601859 1221.77832,130.936853 1225.04511,126.866069 C1219.90443,127.377424 1214.63348,125.221713 1211.37671,120.739841 C1208.21013,116.378287 1207.72913,110.883732 1209.61305,106.231408 C1205.02351,108.076295 1199.60225,107.615073 1195.27325,104.516866 C1191.04447,101.498871 1188.83989,96.6861222 1188.98018,91.8533201 C1185.39273,95.0618194 1180.32219,96.5056441 1175.30176,95.252324 C1170.18112,93.9789509 1166.34315,90.2189907 1164.7298,85.5766932 C1162.43503,90.0886454 1157.92566,93.3272244 1152.51442,93.7583665 C1146.95287,94.1995352 1141.86229,91.5525232 1138.91617,87.2611554 C1137.92411,92.3646746 1134.29657,96.8164675 1129.0156,98.6112218 C1123.74465,100.416003 1118.15303,99.1125498 1114.24491,95.6734396 C1114.53552,100.877224 1112.1205,106.081009 1107.4508,109.13911 C1102.77108,112.187185 1097.02915,112.307503 1092.38951,109.941235 C1093.96278,114.914409 1092.89055,120.559363 1089.1127,124.670252 C1085.32483,128.771116 1079.78332,130.295153 1074.70276,129.132072 C1077.43845,133.563811 1077.78917,139.299004 1075.12364,144.212019 C1072.46812,149.125033 1067.47775,151.952523 1062.26693,152.082869 C1066.01471,155.702457 1067.76836,161.166932 1066.40552,166.581275 C1065.04269,171.995618 1060.91412,175.976162 1055.90371,177.389907 C1060.43312,179.97676 1063.48947,184.859695 1063.48947,190.454515 C1063.48947,196.069389 1060.41307,200.962351 1055.8536,203.549203 C1060.85399,204.981999 1064.97255,208.983599 1066.31534,214.407968 L1066.31534,214.397942 C1067.64811,219.822311 1065.8644,225.27676 1062.11661,228.876295 C1067.31742,229.026693 1072.28774,231.884263 1074.93324,236.797278 C1077.56872,241.720319 1077.19795,247.445485 1074.44222,251.867198 C1079.52278,250.733194 1085.05427,252.277284 1088.8221,256.399203 C1092.58992,260.52012 1093.63209,266.1751 1092.03878,271.148274 C1096.68844,268.802058 1102.44039,268.941428 1107.10007,272.010558 C1111.75975,275.078685 1114.15473,280.302523 1113.83406,285.506308 C1117.76222,282.087251 1123.35384,280.803851 1128.62479,282.628685 C1133.89574,284.453519 1137.50323,288.914336 1138.47525,294.028884 C1141.21094,290.07842 1145.77041,287.531673 1150.83092,287.531673 C1151.2518,287.531673 1151.67267,287.551726 1152.10357,287.591833 L1152.10357,287.591833 Z" id="Fill-37" fill="#A9D163" sketch:type="MSShapeGroup"></path>
                <path d="M1221.69214,191.072151 C1221.69214,252.871859 1182.51074,302.968566 1160.28757,302.968566 C1098.52425,302.968566 1048.45523,252.870857 1048.45523,191.072151 L1048.45523,190.308127 C1048.45523,128.509422 1098.52425,78.4127158 1160.28757,78.4117131 C1191.75495,78.4117131 1221.69214,128.510425 1221.69214,190.30913 L1221.69214,191.072151" id="Fill-38" fill="#D0D766" sketch:type="MSShapeGroup"></path>
                <path d="M1152.80502,317.791833 C1145.56999,317.370717 1139.82806,311.886189 1138.80594,304.987915 C1135.35878,311.052981 1128.01352,314.071979 1121.1192,311.836056 C1114.21485,309.600133 1110.03617,302.832205 1110.80777,295.883798 C1105.92763,300.887052 1098.06129,301.948865 1091.95861,298.039509 C1085.84591,294.12915 1083.52108,286.539044 1086.00625,280.011753 C1080.03384,283.621315 1072.16749,282.668792 1067.23725,277.354714 C1062.30701,272.039635 1061.95628,264.109628 1065.99467,258.424568 C1059.31078,260.409827 1051.92544,257.512151 1048.49832,251.125232 C1045.06118,244.738313 1046.71461,236.967729 1052.06573,232.474827 C1045.09124,232.716467 1038.6679,228.034064 1036.97438,220.975365 C1035.27084,213.925691 1038.82823,206.837915 1045.14135,203.859024 C1038.37729,202.325963 1033.35686,196.248865 1033.42701,189.030744 L1033.42701,189.04077 C1033.50718,181.791567 1038.68794,175.785657 1045.52214,174.432072 C1039.29921,171.283732 1035.92219,164.094688 1037.81613,157.096149 C1039.71006,150.077556 1046.25366,145.575631 1053.22815,146.006773 C1047.99728,141.374502 1046.54426,133.563811 1050.15176,127.257105 C1053.75925,120.970452 1061.22476,118.273307 1067.85854,120.439044 C1063.97046,114.643692 1064.53163,106.732736 1069.60217,101.549004 C1074.66268,96.3652722 1082.55908,95.6233068 1088.43128,99.3832669 C1086.1265,92.7958167 1088.65174,85.285923 1094.86465,81.5359894 C1101.06754,77.7860558 1108.90382,79.059429 1113.64366,84.1830013 C1113.07248,77.2245684 1117.42151,70.5869854 1124.38598,68.5315405 C1131.34043,66.4861222 1138.5955,69.6946215 1141.88233,75.8509296 C1143.08483,68.9827357 1148.96705,63.6686587 1156.2121,63.4380478 C1164.28888,63.1773572 1171.083,69.3537185 1171.67423,77.3448871 C1176.87503,71.2788181 1185.96391,70.3262948 1192.31711,75.2794157 C1198.3296,79.9718459 1199.80266,88.3039177 1196.0649,94.7108898 C1202.74879,92.17417 1210.49488,94.7108898 1214.29277,101.057703 C1217.99045,107.254117 1216.72783,115.034728 1211.66731,119.767264 C1218.49149,119.115538 1225.09521,123.236454 1227.33988,130.014409 C1229.5645,136.732205 1226.78873,143.901195 1221.0468,147.490704 C1227.76075,148.122377 1233.44255,153.24595 1234.49474,160.224436 C1235.5369,167.162815 1231.65885,173.720186 1225.476,176.327092 C1231.94945,178.001527 1236.71936,183.877092 1236.71936,190.885657 L1236.71936,191.075159 L1236.72938,191.075159 C1236.72938,198.184993 1231.78912,204.14077 1225.16536,205.71494 C1231.35822,208.512351 1235.06593,215.290305 1233.72314,222.258765 L1233.72314,222.268792 C1232.38035,229.237251 1226.42798,234.140239 1219.64389,234.440033 C1225.21546,238.331341 1227.60042,245.669781 1225.00502,252.277284 C1222.39961,258.895817 1215.61552,262.634721 1208.87151,261.653121 C1213.65144,266.565133 1214.59339,274.295611 1210.71534,280.302523 C1206.77715,286.407696 1199.15131,288.703778 1192.63778,286.157032 C1196.3054,292.354449 1195.08286,300.475963 1189.41108,305.287709 C1183.23825,310.511547 1174.08924,309.910956 1168.65796,304.025365 C1168.00661,311.836056 1161.47303,317.82091 1153.68686,317.82091 C1153.39625,317.82091 1153.10565,317.811886 1152.80502,317.791833 L1152.80502,317.791833 Z M1130.38845,283.220252 L1130.38845,283.229276 C1136.00011,285.045086 1139.80802,289.857835 1140.61971,295.312284 C1143.36541,290.519588 1148.66643,287.421381 1154.55867,287.762284 C1158.59706,287.991892 1162.16447,289.807703 1164.70976,292.565007 C1165.03042,288.724834 1166.81413,285.015007 1169.97069,282.337915 C1174.32974,278.637112 1180.17188,277.856042 1185.14221,279.791169 C1182.3464,275.047603 1182.27625,268.932404 1185.46287,263.979283 C1188.75972,258.88579 1194.60186,256.439309 1200.24358,257.250458 C1196.25529,253.149595 1194.80228,246.93413 1197.03692,241.259097 C1199.27156,235.563008 1204.60264,232.004582 1210.34457,231.743891 C1205.63478,228.445153 1203.04941,222.579615 1204.2018,216.573705 C1205.3542,210.577822 1209.92369,206.105976 1215.49527,204.78247 C1210.28444,202.416202 1206.6569,197.162284 1206.6569,191.075159 L1206.66693,190.975896 L1206.6569,190.885657 C1206.6569,184.649137 1210.44477,179.30498 1215.846,177.028951 C1210.20427,175.555046 1205.68489,170.842563 1204.76297,164.706308 C1203.84105,158.600133 1206.72705,152.804781 1211.64727,149.7166 C1205.89532,149.165139 1200.7346,145.304914 1198.80058,139.469456 C1196.89663,133.724236 1198.65027,127.648141 1202.78887,123.757835 C1197.20727,124.279216 1191.56555,121.632205 1188.48916,116.498606 C1185.58312,111.635724 1185.74346,105.790239 1188.39897,101.208101 C1183.65913,103.002855 1178.12763,102.351129 1173.83872,99.0022576 C1170.3615,96.2950863 1168.39742,92.3446215 1168.08677,88.2638114 C1165.44128,91.351992 1161.5532,93.3573041 1157.16408,93.497676 C1151.26182,93.6881806 1146.05099,90.4496016 1143.43556,85.5766932 C1142.47356,91.011089 1138.53538,95.7135458 1132.87362,97.3879814 C1127.22187,99.0523904 1121.36972,97.237583 1117.61191,93.1868526 C1118.05282,98.7014608 1115.43739,104.246149 1110.3869,107.294223 C1105.32638,110.342297 1099.19364,110.07158 1094.53396,107.093692 C1096.35775,112.31753 1095.21538,118.353519 1091.0868,122.584728 C1086.95822,126.80591 1080.94573,128.079283 1075.6848,126.364741 C1078.76119,130.966932 1079.17205,137.093161 1076.23595,142.216733 C1073.29985,147.340305 1067.80844,150.087583 1062.29699,149.756707 C1066.42557,153.426428 1068.37963,159.251859 1066.83642,164.946946 C1065.29321,170.642032 1060.68364,174.682736 1055.26237,175.775631 C1060.19262,178.282271 1063.54959,183.424894 1063.48947,189.331541 C1063.42934,195.277291 1059.93207,200.38081 1054.90162,202.777158 C1060.29282,204.000398 1064.80219,208.171448 1066.19509,213.916667 C1067.57796,219.650857 1065.47359,225.407105 1061.2448,228.965531 C1066.76627,228.79508 1072.17752,231.673705 1074.97332,236.87749 C1077.76913,242.080272 1077.18793,248.18745 1074.0013,252.699402 C1079.30232,251.135259 1085.26471,252.568054 1089.28305,256.900531 C1093.3014,261.232005 1094.27342,267.308101 1092.30934,272.481806 C1097.04919,269.634263 1103.19195,269.513944 1108.16228,272.701388 C1113.1326,275.890837 1115.60774,281.515737 1115.0065,287.010292 C1117.81232,284.142696 1121.69038,282.488313 1125.74881,282.488313 C1127.282,282.488313 1128.84525,282.727948 1130.38845,283.220252 L1130.38845,283.220252 Z" id="Fill-39" fill="#D0D766" sketch:type="MSShapeGroup"></path>
                <path d="M0.684421929,398.132656 L1443.76852,398.132656 L1443.76852,666.737191 L0.684421929,666.737191 L0.684421929,398.132656 Z" id="Fill-40" fill="#515F8D" sketch:type="MSShapeGroup"></path>
                <path d="M1380.18342,76.695166 C1380.18342,86.6625697 1372.10664,94.7429748 1362.14494,94.7429748 L1307.64071,94.7429748 C1297.67801,94.7429748 1289.60323,86.6625697 1289.60323,76.695166 C1289.60323,66.7267596 1297.67801,58.6473572 1307.64071,58.6473572 L1362.14494,58.6473572 C1372.10664,58.6473572 1380.18342,66.7267596 1380.18342,76.695166" id="Fill-41" fill="#D7F4FF" sketch:type="MSShapeGroup"></path>
                <path d="M1340.09914,76.695166 C1340.09914,86.6625697 1332.02336,94.7429748 1322.06167,94.7429748 L1307.64071,94.7429748 C1297.67801,94.7429748 1289.60323,86.6625697 1289.60323,76.695166 C1289.60323,66.7267596 1297.67801,58.6473572 1307.64071,58.6473572 L1322.06167,58.6473572 C1332.02336,58.6473572 1340.09914,66.7267596 1340.09914,76.695166" id="Fill-42" fill="#FFFFFF" sketch:type="MSShapeGroup"></path>
                <path d="M1336.77423,106.421912 C1336.77423,115.152039 1329.70154,122.227782 1320.97741,122.227782 C1312.25329,122.227782 1305.1816,115.152039 1305.1816,106.421912 C1305.1816,97.6937915 1312.25329,90.6170452 1320.97741,90.6170452 C1329.70154,90.6170452 1336.77423,97.6937915 1336.77423,106.421912" id="Fill-43" fill="#FFFFFF" sketch:type="MSShapeGroup"></path>
                <path d="M0.684421929,603.367324 L1443.76852,603.367324 L1443.76852,754.747331 L0.684421929,754.747331 L0.684421929,603.367324 Z" id="Fill-44" fill="#ECECEB" sketch:type="MSShapeGroup"></path>
                <path d="M0.684421929,563.1167 L1443.76852,563.1167 L1443.76852,603.367324 L0.684421929,603.367324 L0.684421929,563.1167 Z" id="Fill-45" fill="#BCBCBC" sketch:type="MSShapeGroup"></path>
                <path d="M907.810032,211.649661 L907.810032,291.356806 L536.55673,291.356806 L536.55673,211.649661 L0.684421929,211.649661 L0.684421929,398.132656 L1443.68234,398.132656 L1443.68234,211.649661 L907.810032,211.649661" id="Fill-46" fill="#FFFFFF" sketch:type="MSShapeGroup"></path>
                <path d="M536.55673,253.75921 L907.80903,253.75921 L907.80903,307.899628 L536.55673,307.899628 L536.55673,253.75921 Z" id="Fill-47" fill="#D9DADC" sketch:type="MSShapeGroup"></path>
                <path d="M0.684421929,307.899628 L1443.76852,307.899628 L1443.76852,321.885677 L0.684421929,321.885677 L0.684421929,307.899628 Z" id="Fill-48" fill="#EEEEED" sketch:type="MSShapeGroup"></path>
                <path d="M574.302149,240.63745 C569.381926,240.63745 565.392638,244.628021 565.392638,249.552065 L565.392638,253.75921 L583.211659,253.75921 L583.211659,249.552065 C583.211659,244.628021 579.223373,240.63745 574.302149,240.63745 M678.520669,240.63745 C673.600447,240.63745 669.611159,244.628021 669.611159,249.552065 L669.611159,253.75921 L687.430179,253.75921 L687.430179,249.552065 C687.430179,244.628021 683.440891,240.63745 678.520669,240.63745 M798.770495,240.63745 C793.850273,240.63745 789.860985,244.628021 789.860985,249.552065 L789.860985,253.75921 L807.680006,253.75921 L807.680006,249.552065 C807.680006,244.628021 803.690718,240.63745 798.770495,240.63745 M870.064613,240.63745 C865.144391,240.63745 861.155103,244.628021 861.155103,249.552065 L861.155103,253.75921 L878.974124,253.75921 L878.974124,249.552065 C878.974124,244.628021 874.984836,240.63745 870.064613,240.63745" id="Fill-49" fill="#30AAE9" sketch:type="MSShapeGroup"></path>
                <path d="M662.626648,501.549608 C657.783586,501.549608 653.858432,497.621202 653.858432,492.776368 L653.858432,469.493692 C653.858432,464.648858 657.783586,460.720452 662.626648,460.720452 C667.468708,460.720452 671.394865,464.648858 671.394865,469.493692 L671.394865,492.776368 C671.394865,497.621202 667.468708,501.549608 662.626648,501.549608 M815.746765,466.931906 C810.930759,466.931906 807.028652,463.02656 807.028652,458.208798 C807.028652,453.391036 810.930759,449.485691 815.746765,449.485691 C820.561768,449.485691 824.464877,453.391036 824.464877,458.208798 C824.464877,463.02656 820.561768,466.931906 815.746765,466.931906 M589.468658,457.277331 C584.35303,457.277331 580.205413,453.12834 580.205413,448.008778 C580.205413,442.890219 584.35303,438.740226 589.468658,438.740226 C594.584286,438.740226 598.731903,442.890219 598.731903,448.008778 C598.731903,453.12834 594.584286,457.277331 589.468658,457.277331 M663.68184,448.008778 C658.999112,448.008778 655.204228,444.210717 655.204228,439.526308 C655.204228,434.840896 658.999112,431.043838 663.68184,431.043838 C668.364569,431.043838 672.159453,434.840896 672.159453,439.526308 C672.159453,444.210717 668.364569,448.008778 663.68184,448.008778 M878.974124,398.132656 L861.709255,398.132656 L861.709255,489.263061 C861.709255,494.079821 857.806146,497.986169 852.991142,497.986169 C848.176139,497.986169 844.27303,494.079821 844.27303,489.263061 L844.27303,398.132656 L824.464877,398.132656 L824.464877,425.235452 C824.464877,430.053214 820.561768,433.959562 815.746765,433.959562 C810.930759,433.959562 807.028652,430.053214 807.028652,425.235452 L807.028652,398.132656 L788.956105,398.132656 L788.956105,451.324562 C788.956105,457.041707 784.323481,461.676985 778.60961,461.676985 C772.894737,461.676985 768.263115,457.041707 768.263115,451.324562 L768.263115,398.132656 L751.950223,398.132656 L751.950223,433.386042 C751.950223,439.981514 746.606121,445.327676 740.014426,445.327676 C733.421729,445.327676 728.078629,439.981514 728.078629,433.386042 L728.078629,398.132656 L712.294837,398.132656 L712.294837,445.176275 C712.294837,451.519077 707.156161,456.659695 700.817993,456.659695 C694.478823,456.659695 689.340147,451.519077 689.340147,445.176275 L689.340147,398.132656 L671.661418,398.132656 L671.661418,406.09575 C671.661418,410.505432 668.087994,414.0799 663.68184,414.0799 C659.274684,414.0799 655.702262,410.505432 655.702262,406.09575 L655.702262,398.132656 L634.962173,398.132656 C633.433999,400.653333 630.666248,402.33579 627.50468,402.33579 C624.343112,402.33579 621.575362,400.653333 620.047187,398.132656 L598.731903,398.132656 L598.731903,411.372729 C598.731903,416.190491 594.828794,420.095837 590.01379,420.095837 C585.197785,420.095837 581.294676,416.190491 581.294676,411.372729 L581.294676,398.132656 L565.392638,398.132656 L565.392638,493.631633 C565.392638,497.619197 568.5993,500.863792 572.583578,500.908911 L572.649715,500.909914 C572.677774,500.909914 572.705832,500.910916 572.73389,500.910916 C574.647867,500.910916 576.483681,500.155916 577.846512,498.807344 C579.228383,497.440724 580.007001,495.576786 580.007001,493.631633 L580.007001,484.057271 C580.007001,479.019927 584.089482,474.935106 589.124944,474.935106 C594.160405,474.935106 598.242887,479.019927 598.242887,484.057271 L598.242887,511.720551 C598.242887,512.833499 598.033452,513.894309 597.669696,514.87992 L618.91784,514.87992 C618.837674,474.459847 618.786568,473.974562 618.786568,473.477244 L618.786568,435.232935 C618.786568,430.41417 622.689677,426.509827 627.50468,426.509827 C632.319684,426.509827 636.222793,430.41417 636.222793,435.232935 L636.222793,473.477244 C636.222793,473.974562 636.171686,474.459847 636.092522,514.87992 L706.960755,514.87992 C717.941568,514.87992 726.843062,505.972324 726.843062,494.985219 L726.843062,472.752324 C726.843062,466.199967 732.152092,460.887895 738.701699,460.887895 C745.250304,460.887895 750.559334,466.199967 750.559334,472.752324 L750.559334,516.368865 L769.685069,516.368865 C769.633963,515.952762 769.59889,515.531647 769.59889,515.101507 L769.59889,486.538845 C769.59889,480.862809 774.197443,476.26162 779.870229,476.26162 C785.543015,476.26162 790.141568,480.862809 790.141568,486.538845 L790.104491,493.991587 C790.091464,496.59749 791.117596,499.101122 792.954412,500.948015 C794.791228,502.79591 797.288416,503.834661 799.893829,503.834661 C805.300061,503.834661 809.682165,499.450046 809.682165,494.039714 L809.682165,493.557437 C809.682165,488.158134 814.056253,483.781541 819.452464,483.781541 C824.848675,483.781541 829.222762,488.158134 829.222762,493.557437 L829.222762,498.57172 C829.222762,508.40176 837.186307,516.368865 847.009715,516.368865 L878.974124,516.368865 L878.974124,398.132656" id="Fill-50" fill="#3D88C7" sketch:type="MSShapeGroup"></path>
                <path d="M852.447012,364.465471 C847.330382,364.465471 843.183767,360.315478 843.183767,355.196919 C843.183767,350.077357 847.330382,345.928367 852.447012,345.928367 C857.56264,345.928367 861.709255,350.077357 861.709255,355.196919 C861.709255,360.315478 857.56264,364.465471 852.447012,364.465471 M627.50468,340.183147 C622.689677,340.183147 618.786568,336.277802 618.786568,331.46004 C618.786568,326.642278 622.689677,322.736932 627.50468,322.736932 C632.319684,322.736932 636.222793,326.642278 636.222793,331.46004 C636.222793,336.277802 632.319684,340.183147 627.50468,340.183147 M878.974124,321.885677 L860.684125,321.885677 C859.422504,325.780996 855.765907,328.597457 851.452947,328.597457 C847.138984,328.597457 843.483389,325.780996 842.221768,321.885677 L824.464877,321.885677 L824.464877,355.860677 C824.464877,360.679442 820.561768,364.583785 815.746765,364.583785 C810.930759,364.583785 807.028652,360.679442 807.028652,355.860677 L807.028652,321.885677 L789.860985,321.885677 L789.860985,333.27585 C789.860985,339.426142 784.877632,344.412351 778.730862,344.412351 C772.58309,344.412351 767.600738,339.426142 767.600738,333.27585 L767.600738,321.885677 L743.171986,321.885677 C748.252541,323.43077 751.950223,328.155286 751.950223,333.743088 C751.950223,340.587218 746.404702,346.134914 739.565493,346.134914 C732.725282,346.134914 727.181765,340.587218 727.181765,333.743088 C727.181765,328.155286 730.878446,323.43077 735.959001,321.885677 L712.08941,321.885677 C712.224691,322.588539 712.293835,323.313459 712.293835,324.054422 L712.293835,344.15166 C712.293835,350.493459 707.156161,355.63508 700.816991,355.63508 C694.477821,355.63508 689.339145,350.493459 689.339145,344.15166 L689.339145,324.054422 C689.339145,323.313459 689.409291,322.588539 689.54357,321.885677 L601.24312,321.885677 C601.075772,326.721487 597.104522,330.590737 592.230396,330.590737 C587.356269,330.590737 583.385019,326.721487 583.217671,321.885677 L565.392638,321.885677 L565.392638,398.132656 L581.294676,398.132656 L581.294676,356.644754 C581.294676,351.826992 585.197785,347.921647 590.01379,347.921647 C594.828794,347.921647 598.731903,351.826992 598.731903,356.644754 L598.731903,398.132656 L620.047187,398.132656 C619.247525,396.815166 618.786568,395.268068 618.786568,393.612683 L618.786568,364.172696 C618.786568,359.354934 622.689677,355.449588 627.50468,355.449588 C632.319684,355.449588 636.222793,359.354934 636.222793,364.172696 L636.222793,393.612683 C636.222793,395.268068 635.761835,396.815166 634.962173,398.132656 L655.702262,398.132656 L655.702262,335.241056 C655.702262,330.831375 659.274684,327.256906 663.68184,327.256906 C668.087994,327.256906 671.661418,330.831375 671.661418,335.241056 L671.661418,398.132656 L689.340147,398.132656 L689.340147,394.829907 C689.340147,388.488108 694.478823,383.346487 700.817993,383.346487 C707.156161,383.346487 712.294837,388.488108 712.294837,394.829907 L712.294837,398.132656 L728.078629,398.132656 L728.078629,381.030352 C728.078629,374.435883 733.421729,369.088718 740.014426,369.088718 C746.606121,369.088718 751.950223,374.435883 751.950223,381.030352 L751.950223,398.132656 L768.263115,398.132656 L768.263115,367.486474 C768.263115,361.769329 772.894737,357.133048 778.60961,357.133048 C784.323481,357.133048 788.956105,361.769329 788.956105,367.486474 L788.956105,398.132656 L807.028652,398.132656 L807.028652,395.795465 C807.028652,390.977703 810.930759,387.072357 815.746765,387.072357 C820.561768,387.072357 824.464877,390.977703 824.464877,395.795465 L824.464877,398.132656 L844.27303,398.132656 L844.27303,392.765438 C844.27303,387.947676 848.176139,384.041328 852.991142,384.041328 C857.806146,384.041328 861.709255,387.947676 861.709255,392.765438 L861.709255,398.132656 L878.974124,398.132656 L878.974124,321.885677" id="Fill-51" fill="#71B7E9" sketch:type="MSShapeGroup"></path>
                <path d="M565.392638,307.899628 L583.211659,307.899628 L583.211659,253.75921 L565.392638,253.75921 L565.392638,307.899628 Z M687.430179,253.75921 L669.611159,253.75921 L669.611159,298.457616 L669.611159,299.768088 C669.611159,304.258984 665.9726,307.899628 661.483273,307.899628 C656.994948,307.899628 653.356389,304.258984 653.356389,299.768088 L653.356389,294.279548 C653.356389,290.125544 649.991398,286.759628 645.840774,286.759628 C641.690151,286.759628 638.32516,290.125544 638.32516,294.279548 L638.32516,296.870412 C638.32516,302.961547 633.389907,307.899628 627.303262,307.899628 C621.215614,307.899628 616.280361,302.961547 616.280361,296.870412 L616.280361,269.714475 C616.280361,265.560471 612.91537,262.194555 608.764747,262.194555 C604.614124,262.194555 601.249133,265.560471 601.249133,269.714475 L601.249133,307.899628 L767.600738,307.899628 L767.600738,294.279548 C767.600738,290.125544 764.235747,286.759628 760.085124,286.759628 C755.934501,286.759628 752.56951,290.125544 752.56951,294.279548 L752.56951,295.327324 C752.56951,302.270717 746.943822,307.899628 740.004405,307.899628 C733.063986,307.899628 727.438298,302.270717 727.438298,295.327324 L727.438298,269.714475 C727.438298,265.560471 724.073307,262.194555 719.922684,262.194555 C715.772061,262.194555 712.40707,265.560471 712.40707,269.714475 L712.40707,279.361029 C712.40707,286.262311 706.815453,291.857131 699.918124,291.857131 C693.021796,291.857131 687.430179,286.262311 687.430179,279.361029 L687.430179,253.75921 L687.430179,253.75921 Z M807.680006,253.75921 L789.860985,253.75921 L789.860985,307.899628 L841.75079,307.899628 L841.75079,276.23174 C841.75079,272.077736 838.385799,268.711819 834.235176,268.711819 C830.084552,268.711819 826.719561,272.077736 826.719561,276.23174 L826.719561,286.426746 C826.719561,291.687683 822.456705,295.951979 817.199783,295.951979 C811.94186,295.951979 807.680006,291.687683 807.680006,286.426746 L807.680006,253.75921 L807.680006,253.75921 Z M861.155103,307.899628 L878.974124,307.899628 L878.974124,253.75921 L861.155103,253.75921 L861.155103,307.899628 Z" id="Fill-52" fill="#65ACDE" sketch:type="MSShapeGroup"></path>
                <path d="M583.211659,307.899628 L565.392638,307.899628 L565.392638,321.885677 L583.217671,321.885677 C583.213663,321.780398 583.211659,321.673114 583.211659,321.566833 L583.211659,307.899628 M767.600738,307.899628 L601.249133,307.899628 L601.249133,321.566833 C601.249133,321.673114 601.247128,321.780398 601.24312,321.885677 L689.54357,321.885677 C690.557677,316.581627 695.219362,312.57 700.816991,312.57 C706.41462,312.57 711.076305,316.581627 712.08941,321.885677 L735.959001,321.885677 C737.100372,321.538758 738.310887,321.352264 739.565493,321.352264 C740.8201,321.352264 742.030615,321.538758 743.171986,321.885677 L767.600738,321.885677 L767.600738,307.899628 M841.75079,307.899628 L789.860985,307.899628 L789.860985,321.885677 L807.028652,321.885677 L807.028652,317.616368 C807.028652,312.800611 810.930759,308.89326 815.746765,308.89326 C820.561768,308.89326 824.464877,312.800611 824.464877,317.616368 L824.464877,321.885677 L842.221768,321.885677 C841.917135,320.945186 841.751792,319.941527 841.75079,318.899768 L841.75079,307.899628 M878.974124,307.899628 L861.155103,307.899628 L861.155103,318.889741 C861.155103,319.935511 860.98976,320.942178 860.684125,321.885677 L878.974124,321.885677 L878.974124,307.899628" id="Fill-53" fill="#6BB2E3" sketch:type="MSShapeGroup"></path>
                <path d="M878.974124,253.75921 L907.810032,253.75921 L907.810032,307.899628 L878.974124,307.899628 L878.974124,253.75921 Z" id="Fill-54" fill="#BCBCBC" sketch:type="MSShapeGroup"></path>
                <path d="M536.55673,253.75921 L565.392638,253.75921 L565.392638,307.899628 L536.55673,307.899628 L536.55673,253.75921 Z" id="Fill-55" fill="#BCBCBC" sketch:type="MSShapeGroup"></path>
                <path d="M179.54201,686.950737 C179.54201,679.823858 185.316006,674.047556 192.437802,674.047556 C199.5606,674.047556 205.334595,679.823858 205.334595,686.950737" id="Fill-56" fill="#A7A7A5" sketch:type="MSShapeGroup"></path>
                <path d="M372.117096,715.37002 C372.117096,708.243141 377.891092,702.466839 385.012888,702.466839 C392.136688,702.466839 397.910684,708.243141 397.910684,715.37002" id="Fill-57" fill="#C7C7C4" sketch:type="MSShapeGroup"></path>
                <path d="M1116.7882,649.239841 C1116.7882,642.112961 1122.56119,636.335657 1129.68399,636.335657 C1136.80679,636.335657 1142.58078,642.112961 1142.58078,649.239841" id="Fill-58" fill="#C7C7C4" sketch:type="MSShapeGroup"></path>
                <path d="M1386.00952,649.239841 C1386.00952,642.112961 1391.78352,636.335657 1398.90632,636.335657 C1406.02911,636.335657 1411.80311,642.112961 1411.80311,649.239841" id="Fill-59" fill="#C7C7C4" sketch:type="MSShapeGroup"></path>
                <path d="M1240.09337,717.986952 C1240.09337,710.860073 1245.86637,705.083772 1252.98916,705.083772 C1260.11196,705.083772 1265.88596,710.860073 1265.88596,717.986952" id="Fill-60" fill="#A7A7A5" sketch:type="MSShapeGroup"></path>
                <path d="M0.684421929,510.638685 L1443.76852,510.638685 L1443.76852,603.366321 L0.684421929,603.366321 L0.684421929,510.638685 Z" id="Fill-61" fill="#BCBCBC" sketch:type="MSShapeGroup"></path>
                <path d="M759.07703,258.685259 C754.373257,258.685259 750.559334,262.501368 750.559334,267.207835 C750.559334,271.914303 754.373257,275.730412 759.07703,275.730412 C763.780802,275.730412 767.594726,271.914303 767.594726,267.207835 C767.594726,262.501368 763.780802,258.685259 759.07703,258.685259" id="Fill-62" fill="#65ACDE" sketch:type="MSShapeGroup"></path>
                <path d="M643.854648,245.236633 C639.149874,245.236633 635.336952,249.052742 635.336952,253.75921 L652.372344,253.75921 C652.372344,249.052742 648.558421,245.236633 643.854648,245.236633" id="Fill-63" fill="#30AAE9" sketch:type="MSShapeGroup"></path>
                <path d="M652.372344,253.75921 L635.336952,253.75921 C635.336952,258.465677 639.149874,262.281786 643.854648,262.281786 C648.558421,262.281786 652.372344,258.465677 652.372344,253.75921" id="Fill-64" fill="#65ACDE" sketch:type="MSShapeGroup"></path>
                <path d="M876.468919,208.940485 C855.072466,208.940485 856.446321,233.618858 856.446321,233.618858 C856.446321,233.618858 858.450484,225.985637 876.468919,225.985637 C881.172691,225.985637 884.986615,222.169529 884.986615,217.463061 C884.986615,212.755591 881.172691,208.940485 876.468919,208.940485" id="Fill-65" fill="#30AAE9" sketch:type="MSShapeGroup"></path>
                <path d="M570.571398,208.271713 C565.866623,208.271713 562.053702,212.086819 562.053702,216.79429 C562.053702,221.500757 565.866623,225.316866 570.571398,225.316866 C588.589832,225.316866 590.593996,232.950086 590.593996,232.950086 C590.593996,232.950086 591.96785,208.271713 570.571398,208.271713" id="Fill-66" fill="#30AAE9" sketch:type="MSShapeGroup"></path>
                <path d="M717.664994,208.271713 C712.960219,208.271713 709.147298,212.086819 709.147298,216.79429 C709.147298,221.500757 712.960219,225.316866 717.664994,225.316866 C735.683428,225.316866 737.687592,232.950086 737.687592,232.950086 C737.687592,232.950086 739.061446,208.271713 717.664994,208.271713" id="Fill-67" fill="#30AAE9" sketch:type="MSShapeGroup"></path>
            </g>
        </g>
    </g>
</svg>