<?xml version="1.0" encoding="UTF-8" standalone="no"?>
<svg width="1440px" height="752px" viewBox="0 0 1440 752" version="1.1" xmlns="http://www.w3.org/2000/svg" xmlns:xlink="http://www.w3.org/1999/xlink" xmlns:sketch="http://www.bohemiancoding.com/sketch/ns">
    <!-- Generator: Sketch 3.3.2 (12043) - http://www.bohemiancoding.com/sketch -->
    <title>nelson-piano</title>
    <desc>Created with Sketch.</desc>
    <defs></defs>
    <g id="Page-1" stroke="none" stroke-width="1" fill="none" fill-rule="evenodd" sketch:type="MSPage">
        <g id="nelson-piano" sketch:type="MSArtboardGroup">
            <g id="Imported-Layers" sketch:type="MSLayerGroup" transform="translate(473.000000, 473.000000)">
                <path d="M415.591,233.841 L75.895,233.841 C69.175,233.841 63.728,239.288 63.728,246.008 C63.728,252.727 69.175,258.175 75.895,258.175 L415.591,258.175 C422.312,258.175 427.758,252.727 427.758,246.008 C427.758,239.288 422.312,233.841 415.591,233.841" id="Fill-1" fill="#999999" sketch:type="MSShapeGroup"></path>
                <path d="M482.729,180.011 L13.08,180.011 C10.56,180.011 8.219,180.776 6.277,182.089 C3.041,184.276 0.913,187.977 0.913,192.176 L0.913,192.178 C0.914,198.897 6.361,204.343 13.08,204.343 L482.729,204.343 C485.249,204.343 487.59,203.578 489.532,202.266 C492.769,200.079 494.896,196.377 494.896,192.178 L494.896,192.176 C494.896,185.458 489.45,180.011 482.729,180.011" id="Fill-2" fill="#999999" sketch:type="MSShapeGroup"></path>
                <path d="M31.689,102.719 L461.64,102.719 L461.64,191.773 L31.689,191.773 L31.689,102.719 Z" id="Fill-3" fill="#D1F1FF" sketch:type="MSShapeGroup"></path>
                <path d="M452.827,76.894 L476.22,76.894 L476.22,191.773 L452.827,191.773 L452.827,76.894 Z" id="Fill-4" fill="#FFFFFF" sketch:type="MSShapeGroup"></path>
                <path d="M461.641,15.649 C461.641,7.271 454.848,0.477 446.469,0.477 L46.86,0.477 C38.482,0.477 31.689,7.271 31.689,15.649 L31.689,76.049 L461.641,76.049 L461.641,15.649" id="Fill-5" fill="#EF5281" sketch:type="MSShapeGroup"></path>
                <path d="M31.689,57.557 L84.908,19.77 L98.407,44.546 L129.905,21.93 L143.405,46.877 L173.402,29.008 L186.665,46.877 L210.9,21.93 L216.9,36.087 L227.4,29.008 L243.899,52.53 L282.897,21.93 L297.897,53.955 L314.396,37.004 L323.395,51.625 L348.894,24.778 L359.393,55.38 L381.893,33.237 L392.795,57.557 L405.891,43.536 L416.391,57.557 L429.89,44.546 L437.389,51.335 L446.389,41.741 L455.389,55.38 L461.641,49.726 L461.641,64.502 L31.689,64.502 L31.689,57.557" id="Fill-6" fill="#FFFFFF" sketch:type="MSShapeGroup"></path>
                <path d="M150.332,12.593 L186.665,12.593 L186.665,56.144 L150.332,56.144 L150.332,12.593 Z" id="Fill-7" fill="#FFFFFF" sketch:type="MSShapeGroup"></path>
                <path d="M153.915,16.275 L183.082,16.275 L183.082,19.125 L153.915,19.125 L153.915,16.275 Z" id="Fill-8" fill="#323232" sketch:type="MSShapeGroup"></path>
                <path d="M153.915,21.93 L183.082,21.93 L183.082,24.779 L153.915,24.779 L153.915,21.93 Z" id="Fill-9" fill="#323232" sketch:type="MSShapeGroup"></path>
                <path d="M153.915,27.584 L183.082,27.584 L183.082,30.433 L153.915,30.433 L153.915,27.584 Z" id="Fill-10" fill="#323232" sketch:type="MSShapeGroup"></path>
                <path d="M153.915,33.237 L183.082,33.237 L183.082,36.087 L153.915,36.087 L153.915,33.237 Z" id="Fill-11" fill="#323232" sketch:type="MSShapeGroup"></path>
                <path d="M153.915,38.892 L183.082,38.892 L183.082,41.742 L153.915,41.742 L153.915,38.892 Z" id="Fill-12" fill="#323232" sketch:type="MSShapeGroup"></path>
                <path d="M153.915,44.546 L183.082,44.546 L183.082,47.395 L153.915,47.395 L153.915,44.546 Z" id="Fill-13" fill="#323232" sketch:type="MSShapeGroup"></path>
                <path d="M153.915,50.2 L183.082,50.2 L183.082,53.049 L153.915,53.049 L153.915,50.2 Z" id="Fill-14" fill="#323232" sketch:type="MSShapeGroup"></path>
                <path d="M31.689,88.426 L476.22,88.426 L476.22,110.033 L31.689,110.033 L31.689,88.426 Z" id="Fill-15" fill="#EF5281" sketch:type="MSShapeGroup"></path>
                <path d="M17.108,76.894 L40.503,76.894 L40.503,191.773 L17.108,191.773 L17.108,76.894 Z" id="Fill-16" fill="#EF5281" sketch:type="MSShapeGroup"></path>
                <path d="M482.153,60.003 C482.153,57.871 480.425,56.144 478.294,56.144 L15.035,56.144 C12.905,56.144 11.176,57.871 11.176,60.003 L11.176,84.566 C11.176,86.698 12.905,88.426 15.035,88.426 L477.901,88.426 C480.25,88.426 482.153,86.522 482.153,84.174 L482.153,60.003" id="Fill-17" fill="#D1F1FF" sketch:type="MSShapeGroup"></path>
                <path d="M443.665,78.425 L48.155,78.425 L48.155,74.003 C48.155,71.871 49.883,70.144 52.014,70.144 L439.806,70.144 C441.937,70.144 443.665,71.871 443.665,74.003 L443.665,78.425" id="Fill-18" fill="#000000" sketch:type="MSShapeGroup"></path>
                <path d="M458.155,82.342 C458.155,80.18 456.427,78.426 454.296,78.426 L37.523,78.426 C35.393,78.426 33.665,80.18 33.665,82.342 L33.665,88.426 L458.155,88.426 L458.155,82.342" id="Fill-19" fill="#FFFFFF" sketch:type="MSShapeGroup"></path>
                <path d="M79.865,163.64 L413.465,163.64 L413.465,199.063 L79.865,199.063 L79.865,163.64 Z" id="Fill-20" fill="#FFFFFF" sketch:type="MSShapeGroup"></path>
                <path d="M79.865,172.065 L100.535,172.065 L100.535,245.674 L79.865,245.674 L79.865,172.065 Z" id="Fill-21" fill="#FFFFFF" sketch:type="MSShapeGroup"></path>
                <path d="M392.795,172.065 L413.465,172.065 L413.465,245.674 L392.795,245.674 L392.795,172.065 Z" id="Fill-22" fill="#FFFFFF" sketch:type="MSShapeGroup"></path>
                <path d="M420.965,153.021 C420.965,150.889 419.236,149.161 417.105,149.161 L76.224,149.161 C74.093,149.161 72.365,150.889 72.365,153.021 L72.365,174.259 C72.365,176.391 74.093,178.118 76.224,178.118 L417.105,178.118 C419.236,178.118 420.965,176.391 420.965,174.259 L420.965,153.021" id="Fill-23" fill="#EF5281" sketch:type="MSShapeGroup"></path>
            </g>
        </g>
    </g>
</svg>