<?xml version="1.0" encoding="UTF-8" standalone="no"?>
<svg width="1440px" height="752px" viewBox="0 0 1440 752" version="1.1" xmlns="http://www.w3.org/2000/svg" xmlns:xlink="http://www.w3.org/1999/xlink">
    <!-- Generator: Sketch 39.1 (31720) - http://www.bohemiancoding.com/sketch -->
    <title>oceanic-plaza</title>
    <desc>Created with Sketch.</desc>
    <defs>
        <polygon id="path-1" points="0 752 1854.608 752 1854.608 0 0 0"></polygon>
    </defs>
    <g id="Page-1" stroke="none" stroke-width="1" fill="none" fill-rule="evenodd">
        <g id="oceanic-plaza">
            <g id="Page-1" transform="translate(-395.000000, 0.000000)">
                <polygon id="Fill-1" fill="#515F8D" points="385 608.01 1854.607 608.01 1854.607 0.001 385 0.001"></polygon>
                <polygon id="Fill-2" fill="#B8C5DA" points="1272.954 608.01 1854.608 608.01 1854.608 0.001 1272.954 0.001"></polygon>
                <polygon id="Fill-3" fill="#B8C5DA" points="371.375 608.01 751.319 608.01 751.319 0.001 371.375 0.001"></polygon>
                <polygon id="Fill-4" fill="#BDE2F0" points="739.074 608.01 778.94 608.01 778.94 0.001 739.074 0.001"></polygon>
                <polygon id="Fill-5" fill="#BDE2F0" points="605.632 608.01 645.498 608.01 645.498 0.001 605.632 0.001"></polygon>
                <polygon id="Fill-6" fill="#BDE2F0" points="472.19 608.01 512.056 608.01 512.056 0.001 472.19 0.001"></polygon>
                <g id="Group-98">
                    <path d="M1376.0846,175.8508 C1376.0846,131.0708 1339.7846,94.7698 1295.0046,94.7698 C1250.2246,94.7698 1213.9246,131.0708 1213.9246,175.8508 C1213.9246,220.6298 1250.2246,256.9308 1295.0046,256.9308 C1339.7846,256.9308 1376.0846,220.6298 1376.0846,175.8508 L1376.0846,175.8508 Z" id="Fill-7" fill="#3B9F86"></path>
                    <path d="M1288.235,239.0715 C1294.945,239.7815 1300.365,244.1915 1302.685,250.0615 C1303.755,243.8515 1308.145,238.4415 1314.555,236.3715 C1320.955,234.3025 1327.685,236.1215 1332.185,240.5315 C1330.635,234.4225 1332.445,227.6815 1337.455,223.1815 C1342.465,218.6815 1349.365,217.6115 1355.265,219.8115 C1351.375,214.8615 1350.305,207.9715 1353.055,201.8315 C1355.805,195.6915 1361.655,191.9225 1367.925,191.5215 C1362.355,188.5815 1358.565,182.7315 1358.585,175.9915 L1358.585,175.9415 L1358.585,175.8515 C1358.585,169.1115 1362.395,163.2615 1367.975,160.3425 C1361.695,159.9315 1355.855,156.1415 1353.115,150.0015 C1350.375,143.8425 1351.465,136.9615 1355.365,132.0115 C1349.455,134.2015 1342.565,133.1215 1337.555,128.6015 L1337.555,128.6115 C1332.555,124.1015 1330.755,117.3515 1332.315,111.2515 C1327.815,115.6415 1321.085,117.4515 1314.685,115.3715 C1308.285,113.2915 1303.905,107.8715 1302.845,101.6615 C1300.505,107.5215 1295.075,111.9115 1288.375,112.6115 C1281.685,113.3025 1275.485,110.1215 1271.995,104.8915 C1272.245,111.1725 1269.085,117.3815 1263.265,120.7415 C1257.425,124.1115 1250.455,123.7415 1245.135,120.3715 C1247.925,126.0215 1247.555,133.0015 1243.585,138.4415 C1239.615,143.8815 1233.105,146.3615 1226.885,145.4515 C1231.715,149.4715 1234.215,155.9715 1232.815,162.5525 C1231.415,169.1415 1226.475,174.0715 1220.405,175.7715 C1226.465,177.4815 1231.395,182.4225 1232.785,189.0215 C1234.175,195.6015 1231.655,202.0925 1226.815,206.1015 C1233.045,205.2015 1239.555,207.7015 1243.505,213.1415 C1247.465,218.6015 1247.815,225.5715 1245.015,231.2215 C1250.345,227.8615 1257.315,227.5015 1263.145,230.8815 C1268.955,234.2615 1272.105,240.4715 1271.845,246.7515 C1275.015,242.0115 1280.415,238.9715 1286.375,238.9715 C1286.985,238.9715 1287.605,239.0115 1288.235,239.0715 M1284.565,273.8825 C1275.315,272.9115 1268.515,264.9015 1268.915,255.7415 C1263.825,263.3715 1253.615,265.8215 1245.575,261.1515 C1237.535,256.4915 1234.595,246.4115 1238.695,238.2215 C1230.955,243.1215 1220.635,241.2215 1215.175,233.7015 C1209.715,226.1815 1211.115,215.7715 1218.195,209.9315 C1209.115,211.2715 1200.445,205.3215 1198.535,196.2215 C1196.625,187.1315 1202.135,178.2015 1210.965,175.7615 C1202.145,173.2915 1196.645,164.3515 1198.575,155.2715 C1200.515,146.1725 1209.185,140.2415 1218.265,141.6015 C1211.205,135.7515 1209.825,125.3315 1215.305,117.8215 C1220.775,110.3215 1231.095,108.4415 1238.825,113.3615 C1234.745,105.1515 1237.705,95.0815 1245.755,90.4415 C1253.805,85.7815 1264.025,88.2615 1269.085,95.9115 C1268.705,86.7415 1275.525,78.7515 1284.775,77.7915 C1294.005,76.8425 1302.305,83.2515 1303.825,92.2715 C1307.195,83.7515 1316.665,79.2115 1325.505,82.0815 C1334.355,84.9615 1339.335,94.2115 1337.045,103.0925 C1343.595,96.6815 1354.085,96.3915 1360.985,102.6115 C1367.885,108.8315 1368.685,119.2915 1362.995,126.4715 C1371.585,123.2615 1381.295,127.2615 1385.085,135.7515 C1388.865,144.2415 1385.335,154.1415 1377.205,158.3815 C1386.345,158.9615 1393.585,166.5615 1393.585,175.8515 L1393.585,176.1815 C1393.505,185.4115 1386.275,192.9415 1377.175,193.5015 C1385.295,197.7615 1388.795,207.6615 1384.995,216.1515 C1381.195,224.6215 1371.475,228.6015 1362.895,225.3815 C1368.565,232.5715 1367.745,243.0315 1360.835,249.2315 C1353.915,255.4415 1343.425,255.1215 1336.885,248.7015 C1339.165,257.5815 1334.155,266.8215 1325.305,269.6815 C1316.455,272.5315 1306.995,267.9715 1303.645,259.4315 C1302.215,267.8515 1294.885,273.9815 1286.415,273.9815 C1285.805,273.9815 1285.185,273.9515 1284.565,273.8825" id="Fill-9" fill="#3B9F86"></path>
                    <path d="M1335.9205,175.8508 C1335.9205,131.0708 1299.6195,94.7698 1254.8405,94.7698 C1210.0595,94.7698 1173.7605,131.0708 1173.7605,175.8508 C1173.7605,220.6298 1210.0595,256.9308 1254.8405,256.9308 C1299.6195,256.9308 1335.9205,220.6298 1335.9205,175.8508" id="Fill-11" fill="#3BB67D"></path>
                    <path d="M1248.0753,239.0715 C1254.7753,239.7815 1260.1953,244.1915 1262.5153,250.0615 C1263.5853,243.8515 1267.9853,238.4415 1274.3953,236.3715 C1280.7953,234.3025 1287.5253,236.1215 1292.0153,240.5215 C1290.4653,234.4225 1292.2753,227.6815 1297.2953,223.1815 C1302.3053,218.6815 1309.2043,217.6115 1315.1053,219.8115 C1311.2153,214.8615 1310.1353,207.9715 1312.8953,201.8315 C1315.6453,195.6915 1321.4853,191.9225 1327.7653,191.5215 C1322.1953,188.5815 1318.4053,182.7315 1318.4153,175.9915 L1318.4153,175.9415 L1318.4153,175.8515 C1318.4153,169.1115 1322.2243,163.2615 1327.8053,160.3425 C1321.5353,159.9315 1315.6843,156.1415 1312.9453,150.0015 C1310.2043,143.8515 1311.3053,136.9615 1315.2043,132.0115 C1309.2953,134.2015 1302.3953,133.1215 1297.3953,128.6015 L1297.3953,128.6115 C1292.3853,124.1015 1290.5953,117.3515 1292.1553,111.2515 C1287.6453,115.6415 1280.9153,117.4515 1274.5153,115.3715 C1268.1153,113.2915 1263.7353,107.8715 1262.6753,101.6615 C1260.3453,107.5215 1254.9153,111.9115 1248.2043,112.6115 C1241.5153,113.3025 1235.3153,110.1215 1231.8353,104.8915 C1232.0753,111.1725 1228.9153,117.3815 1223.0953,120.7415 C1217.2653,124.1115 1210.2953,123.7415 1204.9653,120.3715 C1207.7553,126.0215 1207.3953,133.0015 1203.4153,138.4415 C1199.4543,143.8815 1192.9453,146.3615 1186.7153,145.4515 C1191.5453,149.4715 1194.0453,155.9715 1192.6553,162.5525 C1191.2453,169.1415 1186.3053,174.0715 1180.2353,175.7715 C1186.3053,177.4815 1191.2353,182.4225 1192.6253,189.0215 C1194.0053,195.6015 1191.4953,202.0925 1186.6553,206.1015 C1192.8853,205.2015 1199.3853,207.7015 1203.3353,213.1415 L1203.3453,213.1415 C1207.3053,218.6015 1207.6553,225.5715 1204.8553,231.2215 C1210.1843,227.8615 1217.1553,227.5015 1222.9743,230.8915 C1228.7953,234.2615 1231.9343,240.4715 1231.6843,246.7515 C1234.8553,242.0115 1240.2453,238.9715 1246.2153,238.9715 C1246.8253,238.9715 1247.4453,239.0115 1248.0753,239.0715 M1244.3953,273.8825 C1235.1553,272.9115 1228.3553,264.9015 1228.7453,255.7415 C1223.6653,263.3715 1213.4453,265.8215 1205.4053,261.1515 C1197.3753,256.4915 1194.4343,246.4115 1198.5253,238.2215 C1190.7853,243.1215 1180.4743,241.2215 1175.0153,233.7015 C1169.5553,226.1815 1170.9543,215.7715 1178.0353,209.9315 C1168.9453,211.2715 1160.2853,205.3215 1158.3653,196.2215 C1156.4653,187.1315 1161.9743,178.2115 1170.7953,175.7615 C1161.9853,173.2915 1156.4853,164.3615 1158.4153,155.2715 C1160.3453,146.1725 1169.0253,140.2415 1178.1053,141.6015 C1171.0353,135.7515 1169.6653,125.3425 1175.1353,117.8315 L1175.1353,117.8215 C1180.6153,110.3215 1190.9343,108.4415 1198.6653,113.3615 C1194.5853,105.1515 1197.5453,95.0815 1205.5953,90.4415 C1213.6453,85.7815 1223.8553,88.2615 1228.9253,95.9115 C1228.5453,86.7415 1235.3653,78.7515 1244.6153,77.7915 C1253.8453,76.8425 1262.1453,83.2515 1263.6653,92.2715 C1267.0353,83.7515 1276.5053,79.2115 1285.3453,82.0815 C1294.1843,84.9515 1299.1753,94.2115 1296.8753,103.0925 C1303.4253,96.6815 1313.9253,96.3915 1320.8253,102.6115 C1327.7243,108.8315 1328.5253,119.2915 1322.8253,126.4715 C1331.4153,123.2615 1341.1353,127.2615 1344.9153,135.7515 C1348.7043,144.2415 1345.1753,154.1415 1337.0353,158.3815 C1346.1843,158.9615 1353.4253,166.5615 1353.4253,175.8515 L1353.4253,175.9415 L1353.4253,176.0715 C1353.3953,185.3615 1346.1453,192.9415 1337.0053,193.5015 C1345.1253,197.7615 1348.6353,207.6615 1344.8253,216.1515 C1341.0253,224.6215 1331.3053,228.6015 1322.7243,225.3815 C1328.4053,232.5715 1327.5853,243.0315 1320.6753,249.2315 C1313.7553,255.4415 1303.2553,255.1215 1296.7243,248.7015 C1299.0053,257.5815 1293.9953,266.8215 1285.1453,269.6815 C1276.2953,272.5315 1266.8353,267.9715 1263.4853,259.4415 C1262.0453,267.8515 1254.7243,273.9815 1246.2553,273.9815 C1245.6453,273.9815 1245.0253,273.9515 1244.3953,273.8825" id="Fill-13" fill="#3BB67D"></path>
                    <path d="M1582.689,175.8508 C1582.689,131.0708 1546.389,94.7698 1501.609,94.7698 C1456.829,94.7698 1420.529,131.0708 1420.529,175.8508 C1420.529,220.6298 1456.829,256.9308 1501.609,256.9308 C1546.389,256.9308 1582.689,220.6298 1582.689,175.8508" id="Fill-15" fill="#3B9F86"></path>
                    <path d="M1494.8394,239.0715 C1501.5494,239.7815 1506.9694,244.1915 1509.2894,250.0615 C1510.3594,243.8515 1514.7494,238.4415 1521.1594,236.3715 C1527.5594,234.3025 1534.2894,236.1215 1538.7894,240.5315 C1537.2394,234.4225 1539.0494,227.6815 1544.0594,223.1815 C1549.0694,218.6815 1555.9694,217.6115 1561.8694,219.8115 C1557.9794,214.8615 1556.9094,207.9715 1559.6594,201.8315 C1562.4094,195.6915 1568.2594,191.9225 1574.5294,191.5215 C1568.9594,188.5815 1565.1694,182.7315 1565.1894,175.9915 L1565.1894,175.9415 L1565.1894,175.8515 C1565.1894,169.1115 1568.9994,163.2615 1574.5794,160.3425 C1568.2994,159.9315 1562.4594,156.1415 1559.7194,150.0015 C1556.9794,143.8425 1558.0694,136.9615 1561.9694,132.0115 C1556.0594,134.2015 1549.1694,133.1215 1544.1594,128.6015 L1544.1594,128.6115 C1539.1594,124.1015 1537.3594,117.3515 1538.9194,111.2515 C1534.4194,115.6415 1527.6894,117.4515 1521.2894,115.3715 C1514.8894,113.2915 1510.5094,107.8715 1509.4494,101.6615 C1507.1094,107.5215 1501.6794,111.9115 1494.9794,112.6115 C1488.2894,113.3025 1482.0894,110.1215 1478.5994,104.8915 C1478.8494,111.1725 1475.6894,117.3815 1469.8694,120.7415 C1464.0294,124.1115 1457.0594,123.7415 1451.7394,120.3715 C1454.5294,126.0215 1454.1594,133.0015 1450.1894,138.4415 C1446.2194,143.8815 1439.7094,146.3615 1433.4894,145.4515 C1438.3194,149.4715 1440.8194,155.9715 1439.4194,162.5525 C1438.0194,169.1415 1433.0794,174.0715 1427.0094,175.7715 C1433.0694,177.4815 1437.9994,182.4225 1439.3894,189.0215 C1440.7794,195.6015 1438.2594,202.0925 1433.4194,206.1015 C1439.6494,205.2015 1446.1594,207.7015 1450.1094,213.1415 C1454.0694,218.6015 1454.4194,225.5715 1451.6194,231.2215 C1456.9494,227.8615 1463.9194,227.5015 1469.7494,230.8815 C1475.5594,234.2615 1478.7094,240.4715 1478.4494,246.7515 C1481.6194,242.0115 1487.0194,238.9715 1492.9794,238.9715 C1493.5894,238.9715 1494.2094,239.0115 1494.8394,239.0715 M1491.1694,273.8825 C1481.9194,272.9115 1475.1194,264.9015 1475.5194,255.7415 C1470.4294,263.3715 1460.2194,265.8215 1452.1794,261.1515 C1444.1394,256.4915 1441.1994,246.4115 1445.2994,238.2215 C1437.5594,243.1215 1427.2394,241.2215 1421.7794,233.7015 C1416.3194,226.1815 1417.7194,215.7715 1424.7994,209.9315 C1415.7194,211.2715 1407.0494,205.3215 1405.1394,196.2215 C1403.2294,187.1315 1408.7394,178.2015 1417.5694,175.7615 C1408.7494,173.2915 1403.2494,164.3515 1405.1794,155.2715 C1407.1194,146.1725 1415.7894,140.2415 1424.8694,141.6015 C1417.8094,135.7515 1416.4294,125.3315 1421.9094,117.8215 C1427.3794,110.3215 1437.6994,108.4415 1445.4294,113.3615 C1441.3494,105.1515 1444.3094,95.0815 1452.3594,90.4415 C1460.4094,85.7815 1470.6294,88.2615 1475.6894,95.9115 C1475.3094,86.7415 1482.1294,78.7515 1491.3794,77.7915 C1500.6094,76.8425 1508.9094,83.2515 1510.4294,92.2715 C1513.7994,83.7515 1523.2694,79.2115 1532.1094,82.0815 C1540.9594,84.9615 1545.9394,94.2115 1543.6494,103.0925 C1550.1994,96.6815 1560.6894,96.3915 1567.5894,102.6115 C1574.4894,108.8315 1575.2894,119.2915 1569.5994,126.4715 C1578.1894,123.2615 1587.8994,127.2615 1591.6894,135.7515 C1595.4694,144.2415 1591.9394,154.1415 1583.8094,158.3815 C1592.9494,158.9615 1600.1894,166.5615 1600.1894,175.8515 L1600.1894,176.1815 C1600.1094,185.4115 1592.8794,192.9415 1583.7794,193.5015 C1591.8994,197.7615 1595.3994,207.6615 1591.5994,216.1515 C1587.7994,224.6215 1578.0794,228.6015 1569.4994,225.3815 C1575.1694,232.5715 1574.3494,243.0315 1567.4394,249.2315 C1560.5194,255.4415 1550.0294,255.1215 1543.4894,248.7015 C1545.7694,257.5815 1540.7594,266.8215 1531.9094,269.6815 C1523.0594,272.5315 1513.5994,267.9715 1510.2494,259.4315 C1508.8194,267.8515 1501.4894,273.9815 1493.0194,273.9815 C1492.4094,273.9815 1491.7894,273.9515 1491.1694,273.8825" id="Fill-17" fill="#3B9F86"></path>
                    <path d="M1542.5248,175.8508 C1542.5248,131.0708 1506.2238,94.7698 1461.4448,94.7698 C1416.6638,94.7698 1380.3648,131.0708 1380.3648,175.8508 C1380.3648,220.6298 1416.6638,256.9308 1461.4448,256.9308 C1506.2238,256.9308 1542.5248,220.6298 1542.5248,175.8508" id="Fill-19" fill="#3BB67D"></path>
                    <path d="M1454.6797,239.0715 C1461.3797,239.7815 1466.7997,244.1915 1469.1197,250.0615 C1470.1897,243.8515 1474.5897,238.4415 1480.9997,236.3715 C1487.3997,234.3025 1494.1297,236.1215 1498.6197,240.5215 C1497.0697,234.4225 1498.8797,227.6815 1503.8997,223.1815 C1508.9097,218.6815 1515.8087,217.6115 1521.7097,219.8115 C1517.8197,214.8615 1516.7397,207.9715 1519.4997,201.8315 C1522.2497,195.6915 1528.0897,191.9225 1534.3697,191.5215 C1528.7997,188.5815 1525.0097,182.7315 1525.0197,175.9915 L1525.0197,175.9415 L1525.0197,175.8515 C1525.0197,169.1115 1528.8287,163.2615 1534.4097,160.3425 C1528.1397,159.9315 1522.2887,156.1415 1519.5497,150.0015 C1516.8087,143.8515 1517.9097,136.9615 1521.8087,132.0115 C1515.8997,134.2015 1508.9997,133.1215 1503.9997,128.6015 L1503.9997,128.6115 C1498.9897,124.1015 1497.1997,117.3515 1498.7597,111.2515 C1494.2497,115.6415 1487.5197,117.4515 1481.1197,115.3715 C1474.7197,113.2915 1470.3397,107.8715 1469.2787,101.6615 C1466.9497,107.5215 1461.5197,111.9115 1454.8087,112.6115 C1448.1197,113.3025 1441.9197,110.1215 1438.4397,104.8915 C1438.6797,111.1725 1435.5197,117.3815 1429.6997,120.7415 C1423.8697,124.1115 1416.8997,123.7415 1411.5697,120.3715 C1414.3597,126.0215 1413.9997,133.0015 1410.0197,138.4415 C1406.0587,143.8815 1399.5497,146.3615 1393.3197,145.4515 C1398.1497,149.4715 1400.6497,155.9715 1399.2597,162.5525 C1397.8487,169.1415 1392.9097,174.0715 1386.8397,175.7715 C1392.9097,177.4815 1397.8397,182.4225 1399.2297,189.0215 C1400.6097,195.6015 1398.0987,202.0925 1393.2597,206.1015 C1399.4897,205.2015 1405.9897,207.7015 1409.9397,213.1415 L1409.9497,213.1415 C1413.9097,218.6015 1414.2597,225.5715 1411.4597,231.2215 C1416.7887,227.8615 1423.7597,227.5015 1429.5787,230.8915 C1435.3997,234.2615 1438.5387,240.4715 1438.2887,246.7515 C1441.4597,242.0115 1446.8487,238.9715 1452.8197,238.9715 C1453.4297,238.9715 1454.0497,239.0115 1454.6797,239.0715 M1450.9997,273.8825 C1441.7597,272.9115 1434.9597,264.9015 1435.3487,255.7415 C1430.2697,263.3715 1420.0497,265.8215 1412.0097,261.1515 C1403.9797,256.4915 1401.0387,246.4115 1405.1297,238.2215 C1397.3897,243.1215 1387.0787,241.2215 1381.6197,233.7015 C1376.1597,226.1815 1377.5587,215.7715 1384.6397,209.9315 C1375.5497,211.2715 1366.8897,205.3215 1364.9697,196.2215 C1363.0697,187.1315 1368.5787,178.2115 1377.3997,175.7615 C1368.5897,173.2915 1363.0897,164.3615 1365.0197,155.2715 C1366.9497,146.1725 1375.6297,140.2415 1384.7097,141.6015 C1377.6397,135.7515 1376.2697,125.3425 1381.7397,117.8315 L1381.7397,117.8215 C1387.2197,110.3215 1397.5387,108.4415 1405.2697,113.3615 C1401.1897,105.1515 1404.1497,95.0815 1412.1997,90.4415 C1420.2497,85.7815 1430.4597,88.2615 1435.5287,95.9115 C1435.1497,86.7415 1441.9697,78.7515 1451.2197,77.7915 C1460.4497,76.8425 1468.7497,83.2515 1470.2697,92.2715 C1473.6397,83.7515 1483.1097,79.2115 1491.9497,82.0815 C1500.7887,84.9515 1505.7787,94.2115 1503.4797,103.0925 C1510.0287,96.6815 1520.5287,96.3915 1527.4297,102.6115 C1534.3287,108.8315 1535.1297,119.2915 1529.4297,126.4715 C1538.0197,123.2615 1547.7397,127.2615 1551.5197,135.7515 C1555.3087,144.2415 1551.7787,154.1415 1543.6397,158.3815 C1552.7887,158.9615 1560.0287,166.5615 1560.0287,175.8515 L1560.0287,175.9415 L1560.0287,176.0715 C1559.9997,185.3615 1552.7497,192.9415 1543.6097,193.5015 C1551.7297,197.7615 1555.2397,207.6615 1551.4297,216.1515 C1547.6297,224.6215 1537.9097,228.6015 1529.3287,225.3815 C1535.0097,232.5715 1534.1897,243.0315 1527.2787,249.2315 C1520.3597,255.4415 1509.8597,255.1215 1503.3287,248.7015 C1505.6097,257.5815 1500.5987,266.8215 1491.7497,269.6815 C1482.8997,272.5315 1473.4397,267.9715 1470.0897,259.4415 C1468.6497,267.8515 1461.3287,273.9815 1452.8597,273.9815 C1452.2497,273.9815 1451.6297,273.9515 1450.9997,273.8825" id="Fill-21" fill="#3BB67D"></path>
                    <path d="" id="Fill-23" fill="#FFC64A"></path>
                    <path d="M478.258,175.8508 C478.258,131.0708 441.958,94.7698 397.178,94.7698 C352.398,94.7698 316.098,131.0708 316.098,175.8508 C316.098,220.6298 352.398,256.9308 397.178,256.9308 C441.958,256.9308 478.258,220.6298 478.258,175.8508" id="Fill-25" fill="#3B9F86"></path>
                    <path d="M390.4084,239.0715 C397.1184,239.7815 402.5384,244.1915 404.8584,250.0615 C405.9284,243.8515 410.3184,238.4415 416.7284,236.3715 C423.1284,234.3025 429.8584,236.1215 434.3584,240.5315 C432.8084,234.4225 434.6184,227.6815 439.6284,223.1815 C444.6384,218.6815 451.5384,217.6115 457.4384,219.8115 C453.5484,214.8615 452.4784,207.9715 455.2284,201.8315 C457.9784,195.6915 463.8284,191.9225 470.0984,191.5215 C464.5284,188.5815 460.7384,182.7315 460.7584,175.9915 L460.7584,175.9415 L460.7584,175.8515 C460.7584,169.1115 464.5684,163.2615 470.1484,160.3425 C463.8684,159.9315 458.0284,156.1415 455.2884,150.0015 C452.5484,143.8425 453.6384,136.9615 457.5384,132.0115 C451.6284,134.2015 444.7384,133.1215 439.7284,128.6015 L439.7284,128.6115 C434.7284,124.1015 432.9284,117.3515 434.4884,111.2515 C429.9884,115.6415 423.2584,117.4515 416.8584,115.3715 C410.4584,113.2915 406.0784,107.8715 405.0184,101.6615 C402.6784,107.5215 397.2484,111.9115 390.5484,112.6115 C383.8584,113.3025 377.6584,110.1215 374.1684,104.8915 C374.4184,111.1725 371.2584,117.3815 365.4384,120.7415 C359.5984,124.1115 352.6284,123.7415 347.3084,120.3715 C350.0984,126.0215 349.7284,133.0015 345.7584,138.4415 C341.7884,143.8815 335.2784,146.3615 329.0584,145.4515 C333.8884,149.4715 336.3884,155.9715 334.9884,162.5525 C333.5884,169.1415 328.6484,174.0715 322.5784,175.7715 C328.6384,177.4815 333.5684,182.4225 334.9584,189.0215 C336.3484,195.6015 333.8284,202.0925 328.9884,206.1015 C335.2184,205.2015 341.7284,207.7015 345.6784,213.1415 C349.6384,218.6015 349.9884,225.5715 347.1884,231.2215 C352.5184,227.8615 359.4884,227.5015 365.3184,230.8815 C371.1284,234.2615 374.2784,240.4715 374.0184,246.7515 C377.1884,242.0115 382.5884,238.9715 388.5484,238.9715 C389.1584,238.9715 389.7784,239.0115 390.4084,239.0715 M386.7384,273.8825 C377.4884,272.9115 370.6884,264.9015 371.0884,255.7415 C365.9984,263.3715 355.7884,265.8215 347.7484,261.1515 C339.7084,256.4915 336.7684,246.4115 340.8684,238.2215 C333.1284,243.1215 322.8084,241.2215 317.3484,233.7015 C311.8884,226.1815 313.2884,215.7715 320.3684,209.9315 C311.2884,211.2715 302.6184,205.3215 300.7084,196.2215 C298.7984,187.1315 304.3084,178.2015 313.1384,175.7615 C304.3184,173.2915 298.8184,164.3515 300.7484,155.2715 C302.6884,146.1725 311.3584,140.2415 320.4384,141.6015 C313.3784,135.7515 311.9984,125.3315 317.4784,117.8215 C322.9484,110.3215 333.2684,108.4415 340.9984,113.3615 C336.9184,105.1515 339.8784,95.0815 347.9284,90.4415 C355.9784,85.7815 366.1984,88.2615 371.2584,95.9115 C370.8784,86.7415 377.6984,78.7515 386.9484,77.7915 C396.1784,76.8425 404.4784,83.2515 405.9984,92.2715 C409.3684,83.7515 418.8384,79.2115 427.6784,82.0815 C436.5284,84.9615 441.5084,94.2115 439.2184,103.0925 C445.7684,96.6815 456.2584,96.3915 463.1584,102.6115 C470.0584,108.8315 470.8584,119.2915 465.1684,126.4715 C473.7584,123.2615 483.4684,127.2615 487.2584,135.7515 C491.0384,144.2415 487.5084,154.1415 479.3784,158.3815 C488.5184,158.9615 495.7584,166.5615 495.7584,175.8515 L495.7584,176.1815 C495.6784,185.4115 488.4484,192.9415 479.3484,193.5015 C487.4684,197.7615 490.9684,207.6615 487.1684,216.1515 C483.3684,224.6215 473.6484,228.6015 465.0684,225.3815 C470.7384,232.5715 469.9184,243.0315 463.0084,249.2315 C456.0884,255.4415 445.5984,255.1215 439.0584,248.7015 C441.3384,257.5815 436.3284,266.8215 427.4784,269.6815 C418.6284,272.5315 409.1684,267.9715 405.8184,259.4315 C404.3884,267.8515 397.0584,273.9815 388.5884,273.9815 C387.9784,273.9815 387.3584,273.9515 386.7384,273.8825" id="Fill-27" fill="#3B9F86"></path>
                    <path d="M438.0939,175.8508 C438.0939,131.0708 401.7929,94.7698 357.0139,94.7698 C312.2329,94.7698 275.9339,131.0708 275.9339,175.8508 C275.9339,220.6298 312.2329,256.9308 357.0139,256.9308 C401.7929,256.9308 438.0939,220.6298 438.0939,175.8508" id="Fill-29" fill="#3BB67D"></path>
                    <path d="M350.2487,239.0715 C356.9487,239.7815 362.3687,244.1915 364.6887,250.0615 C365.7587,243.8515 370.1587,238.4415 376.5687,236.3715 C382.9687,234.3025 389.6987,236.1215 394.1887,240.5215 C392.6387,234.4225 394.4487,227.6815 399.4687,223.1815 C404.4787,218.6815 411.3777,217.6115 417.2787,219.8115 C413.3887,214.8615 412.3087,207.9715 415.0687,201.8315 C417.8187,195.6915 423.6587,191.9225 429.9387,191.5215 C424.3687,188.5815 420.5787,182.7315 420.5887,175.9915 L420.5887,175.9415 L420.5887,175.8515 C420.5887,169.1115 424.3977,163.2615 429.9787,160.3425 C423.7087,159.9315 417.8577,156.1415 415.1187,150.0015 C412.3777,143.8515 413.4787,136.9615 417.3777,132.0115 C411.4687,134.2015 404.5687,133.1215 399.5687,128.6015 L399.5687,128.6115 C394.5587,124.1015 392.7687,117.3515 394.3287,111.2515 C389.8187,115.6415 383.0887,117.4515 376.6887,115.3715 C370.2887,113.2915 365.9087,107.8715 364.8487,101.6615 C362.5187,107.5215 357.0887,111.9115 350.3777,112.6115 C343.6887,113.3025 337.4887,110.1215 334.0087,104.8915 C334.2487,111.1725 331.0887,117.3815 325.2687,120.7415 C319.4387,124.1115 312.4687,123.7415 307.1387,120.3715 C309.9287,126.0215 309.5687,133.0015 305.5887,138.4415 C301.6277,143.8815 295.1187,146.3615 288.8887,145.4515 C293.7187,149.4715 296.2187,155.9715 294.8287,162.5525 C293.4177,169.1415 288.4787,174.0715 282.4087,175.7715 C288.4787,177.4815 293.4087,182.4225 294.7987,189.0215 C296.1787,195.6015 293.6677,202.0925 288.8287,206.1015 C295.0587,205.2015 301.5587,207.7015 305.5087,213.1415 L305.5187,213.1415 C309.4787,218.6015 309.8287,225.5715 307.0287,231.2215 C312.3577,227.8615 319.3287,227.5015 325.1477,230.8915 C330.9687,234.2615 334.1077,240.4715 333.8577,246.7515 C337.0287,242.0115 342.4177,238.9715 348.3887,238.9715 C348.9987,238.9715 349.6187,239.0115 350.2487,239.0715 M346.5687,273.8825 C337.3287,272.9115 330.5287,264.9015 330.9177,255.7415 C325.8387,263.3715 315.6187,265.8215 307.5787,261.1515 C299.5487,256.4915 296.6077,246.4115 300.6987,238.2215 C292.9587,243.1215 282.6477,241.2215 277.1887,233.7015 C271.7287,226.1815 273.1277,215.7715 280.2087,209.9315 C271.1187,211.2715 262.4587,205.3215 260.5387,196.2215 C258.6387,187.1315 264.1477,178.2115 272.9687,175.7615 C264.1587,173.2915 258.6587,164.3615 260.5887,155.2715 C262.5187,146.1725 271.1987,140.2415 280.2787,141.6015 C273.2087,135.7515 271.8387,125.3425 277.3087,117.8315 L277.3087,117.8215 C282.7887,110.3215 293.1077,108.4415 300.8387,113.3615 C296.7587,105.1515 299.7187,95.0815 307.7687,90.4415 C315.8187,85.7815 326.0287,88.2615 331.0987,95.9115 C330.7187,86.7415 337.5387,78.7515 346.7887,77.7915 C356.0187,76.8425 364.3187,83.2515 365.8387,92.2715 C369.2087,83.7515 378.6787,79.2115 387.5187,82.0815 C396.3577,84.9515 401.3487,94.2115 399.0487,103.0925 C405.5987,96.6815 416.0987,96.3915 422.9987,102.6115 C429.8977,108.8315 430.6987,119.2915 424.9987,126.4715 C433.5887,123.2615 443.3087,127.2615 447.0887,135.7515 C450.8777,144.2415 447.3487,154.1415 439.2087,158.3815 C448.3577,158.9615 455.5987,166.5615 455.5987,175.8515 L455.5987,175.9415 L455.5987,176.0715 C455.5687,185.3615 448.3187,192.9415 439.1787,193.5015 C447.2987,197.7615 450.8087,207.6615 446.9987,216.1515 C443.1987,224.6215 433.4787,228.6015 424.8977,225.3815 C430.5787,232.5715 429.7587,243.0315 422.8487,249.2315 C415.9287,255.4415 405.4287,255.1215 398.8977,248.7015 C401.1787,257.5815 396.1677,266.8215 387.3187,269.6815 C378.4687,272.5315 369.0087,267.9715 365.6587,259.4415 C364.2187,267.8515 356.8977,273.9815 348.4287,273.9815 C347.8187,273.9815 347.1987,273.9515 346.5687,273.8825" id="Fill-31" fill="#3BB67D"></path>
                    <path d="M684.8622,175.8508 C684.8622,131.0708 648.5622,94.7698 603.7822,94.7698 C559.0022,94.7698 522.7022,131.0708 522.7022,175.8508 C522.7022,220.6298 559.0022,256.9308 603.7822,256.9308 C648.5622,256.9308 684.8622,220.6298 684.8622,175.8508" id="Fill-33" fill="#3B9F86"></path>
                    <path d="M597.0127,239.0715 C603.7227,239.7815 609.1427,244.1915 611.4627,250.0615 C612.5327,243.8515 616.9227,238.4415 623.3327,236.3715 C629.7327,234.3025 636.4627,236.1215 640.9627,240.5315 C639.4127,234.4225 641.2227,227.6815 646.2327,223.1815 C651.2427,218.6815 658.1427,217.6115 664.0427,219.8115 C660.1527,214.8615 659.0827,207.9715 661.8327,201.8315 C664.5827,195.6915 670.4327,191.9225 676.7027,191.5215 C671.1327,188.5815 667.3427,182.7315 667.3627,175.9915 L667.3627,175.9415 L667.3627,175.8515 C667.3627,169.1115 671.1727,163.2615 676.7527,160.3425 C670.4727,159.9315 664.6327,156.1415 661.8927,150.0015 C659.1527,143.8425 660.2427,136.9615 664.1427,132.0115 C658.2327,134.2015 651.3427,133.1215 646.3327,128.6015 L646.3327,128.6115 C641.3327,124.1015 639.5327,117.3515 641.0927,111.2515 C636.5927,115.6415 629.8627,117.4515 623.4627,115.3715 C617.0627,113.2915 612.6827,107.8715 611.6227,101.6615 C609.2827,107.5215 603.8527,111.9115 597.1527,112.6115 C590.4627,113.3025 584.2627,110.1215 580.7727,104.8915 C581.0227,111.1725 577.8627,117.3815 572.0427,120.7415 C566.2027,124.1115 559.2327,123.7415 553.9127,120.3715 C556.7027,126.0215 556.3327,133.0015 552.3627,138.4415 C548.3927,143.8815 541.8827,146.3615 535.6627,145.4515 C540.4927,149.4715 542.9927,155.9715 541.5927,162.5525 C540.1927,169.1415 535.2527,174.0715 529.1827,175.7715 C535.2427,177.4815 540.1727,182.4225 541.5627,189.0215 C542.9527,195.6015 540.4327,202.0925 535.5927,206.1015 C541.8227,205.2015 548.3327,207.7015 552.2827,213.1415 C556.2427,218.6015 556.5927,225.5715 553.7927,231.2215 C559.1227,227.8615 566.0927,227.5015 571.9227,230.8815 C577.7327,234.2615 580.8827,240.4715 580.6227,246.7515 C583.7927,242.0115 589.1927,238.9715 595.1527,238.9715 C595.7627,238.9715 596.3827,239.0115 597.0127,239.0715 M593.3427,273.8825 C584.0927,272.9115 577.2927,264.9015 577.6927,255.7415 C572.6027,263.3715 562.3927,265.8215 554.3527,261.1515 C546.3127,256.4915 543.3727,246.4115 547.4727,238.2215 C539.7327,243.1215 529.4127,241.2215 523.9527,233.7015 C518.4927,226.1815 519.8927,215.7715 526.9727,209.9315 C517.8927,211.2715 509.2227,205.3215 507.3127,196.2215 C505.4027,187.1315 510.9127,178.2015 519.7427,175.7615 C510.9227,173.2915 505.4227,164.3515 507.3527,155.2715 C509.2927,146.1725 517.9627,140.2415 527.0427,141.6015 C519.9827,135.7515 518.6027,125.3315 524.0827,117.8215 C529.5527,110.3215 539.8727,108.4415 547.6027,113.3615 C543.5227,105.1515 546.4827,95.0815 554.5327,90.4415 C562.5827,85.7815 572.8027,88.2615 577.8627,95.9115 C577.4827,86.7415 584.3027,78.7515 593.5527,77.7915 C602.7827,76.8425 611.0827,83.2515 612.6027,92.2715 C615.9727,83.7515 625.4427,79.2115 634.2827,82.0815 C643.1327,84.9615 648.1127,94.2115 645.8227,103.0925 C652.3727,96.6815 662.8627,96.3915 669.7627,102.6115 C676.6627,108.8315 677.4627,119.2915 671.7727,126.4715 C680.3627,123.2615 690.0727,127.2615 693.8627,135.7515 C697.6427,144.2415 694.1127,154.1415 685.9827,158.3815 C695.1227,158.9615 702.3627,166.5615 702.3627,175.8515 L702.3627,176.1815 C702.2827,185.4115 695.0527,192.9415 685.9527,193.5015 C694.0727,197.7615 697.5727,207.6615 693.7727,216.1515 C689.9727,224.6215 680.2527,228.6015 671.6727,225.3815 C677.3427,232.5715 676.5227,243.0315 669.6127,249.2315 C662.6927,255.4415 652.2027,255.1215 645.6627,248.7015 C647.9427,257.5815 642.9327,266.8215 634.0827,269.6815 C625.2327,272.5315 615.7727,267.9715 612.4227,259.4315 C610.9927,267.8515 603.6627,273.9815 595.1927,273.9815 C594.5827,273.9815 593.9627,273.9515 593.3427,273.8825" id="Fill-35" fill="#3B9F86"></path>
                    <path d="M644.6982,175.8508 C644.6982,131.0708 608.3972,94.7698 563.6182,94.7698 C518.8372,94.7698 482.5382,131.0708 482.5382,175.8508 C482.5382,220.6298 518.8372,256.9308 563.6182,256.9308 C608.3972,256.9308 644.6982,220.6298 644.6982,175.8508" id="Fill-37" fill="#3BB67D"></path>
                    <path d="M556.853,239.0715 C563.553,239.7815 568.973,244.1915 571.293,250.0615 C572.363,243.8515 576.763,238.4415 583.173,236.3715 C589.573,234.3025 596.303,236.1215 600.793,240.5215 C599.243,234.4225 601.053,227.6815 606.073,223.1815 C611.083,218.6815 617.982,217.6115 623.883,219.8115 C619.993,214.8615 618.913,207.9715 621.673,201.8315 C624.423,195.6915 630.263,191.9225 636.543,191.5215 C630.973,188.5815 627.183,182.7315 627.193,175.9915 L627.193,175.9415 L627.193,175.8515 C627.193,169.1115 631.002,163.2615 636.583,160.3425 C630.313,159.9315 624.462,156.1415 621.723,150.0015 C618.982,143.8515 620.083,136.9615 623.982,132.0115 C618.073,134.2015 611.173,133.1215 606.173,128.6015 L606.173,128.6115 C601.163,124.1015 599.373,117.3515 600.933,111.2515 C596.423,115.6415 589.693,117.4515 583.293,115.3715 C576.893,113.2915 572.513,107.8715 571.453,101.6615 C569.123,107.5215 563.693,111.9115 556.982,112.6115 C550.293,113.3025 544.093,110.1215 540.613,104.8915 C540.853,111.1725 537.693,117.3815 531.873,120.7415 C526.043,124.1115 519.073,123.7415 513.743,120.3715 C516.533,126.0215 516.173,133.0015 512.193,138.4415 C508.232,143.8815 501.723,146.3615 495.493,145.4515 C500.323,149.4715 502.823,155.9715 501.433,162.5525 C500.022,169.1415 495.083,174.0715 489.013,175.7715 C495.083,177.4815 500.013,182.4225 501.403,189.0215 C502.783,195.6015 500.272,202.0925 495.433,206.1015 C501.663,205.2015 508.163,207.7015 512.113,213.1415 L512.123,213.1415 C516.083,218.6015 516.433,225.5715 513.633,231.2215 C518.962,227.8615 525.933,227.5015 531.752,230.8915 C537.573,234.2615 540.712,240.4715 540.462,246.7515 C543.633,242.0115 549.022,238.9715 554.993,238.9715 C555.603,238.9715 556.223,239.0115 556.853,239.0715 M553.173,273.8825 C543.933,272.9115 537.133,264.9015 537.522,255.7415 C532.443,263.3715 522.223,265.8215 514.183,261.1515 C506.153,256.4915 503.212,246.4115 507.303,238.2215 C499.563,243.1215 489.252,241.2215 483.793,233.7015 C478.333,226.1815 479.732,215.7715 486.813,209.9315 C477.723,211.2715 469.063,205.3215 467.143,196.2215 C465.243,187.1315 470.752,178.2115 479.573,175.7615 C470.763,173.2915 465.263,164.3615 467.193,155.2715 C469.123,146.1725 477.803,140.2415 486.883,141.6015 C479.813,135.7515 478.443,125.3425 483.913,117.8315 L483.913,117.8215 C489.393,110.3215 499.712,108.4415 507.443,113.3615 C503.363,105.1515 506.323,95.0815 514.373,90.4415 C522.423,85.7815 532.633,88.2615 537.703,95.9115 C537.323,86.7415 544.143,78.7515 553.393,77.7915 C562.623,76.8425 570.923,83.2515 572.443,92.2715 C575.813,83.7515 585.283,79.2115 594.123,82.0815 C602.962,84.9515 607.953,94.2115 605.653,103.0925 C612.203,96.6815 622.703,96.3915 629.603,102.6115 C636.502,108.8315 637.303,119.2915 631.603,126.4715 C640.193,123.2615 649.913,127.2615 653.693,135.7515 C657.482,144.2415 653.953,154.1415 645.813,158.3815 C654.962,158.9615 662.203,166.5615 662.203,175.8515 L662.203,175.9415 L662.203,176.0715 C662.173,185.3615 654.923,192.9415 645.783,193.5015 C653.903,197.7615 657.413,207.6615 653.603,216.1515 C649.803,224.6215 640.083,228.6015 631.502,225.3815 C637.183,232.5715 636.363,243.0315 629.453,249.2315 C622.533,255.4415 612.033,255.1215 605.502,248.7015 C607.783,257.5815 602.772,266.8215 593.923,269.6815 C585.073,272.5315 575.613,267.9715 572.263,259.4415 C570.823,267.8515 563.502,273.9815 555.033,273.9815 C554.423,273.9815 553.803,273.9515 553.173,273.8825" id="Fill-39" fill="#3BB67D"></path>
                    <path d="" id="Fill-41" fill="#FFC64A"></path>
                    <mask id="mask-2" fill="white">
                        <use xlink:href="#path-1"></use>
                    </mask>
                    <g id="Clip-44"></g>
                    <polygon id="Fill-43" fill="#BFBFBF" mask="url(#mask-2)" points="1606.86 752 1854.608 752 1854.608 220.814 1606.86 220.814"></polygon>
                    <polygon id="Fill-45" fill="#D9D9D9" mask="url(#mask-2)" points="1158.74 608.01 1606.86 608.01 1606.86 220.814 1158.74 220.814"></polygon>
                    <polygon id="Fill-46" fill="#C1C1C1" mask="url(#mask-2)" points="257.204 608.01 705.324 608.01 705.324 220.814 257.204 220.814"></polygon>
                    <polygon id="Fill-47" fill="#D9D9D9" mask="url(#mask-2)" points="600.61 608.01 705.324 608.01 705.324 220.814 600.61 220.814"></polygon>
                    <polygon id="Fill-48" fill="#6F6F6F" mask="url(#mask-2)" points="588.0826 432.6252 1158.7396 432.6252 1158.7396 351.9632 705.3236 351.9632"></polygon>
                    <polygon id="Fill-49" fill="#CCCCCC" mask="url(#mask-2)" points="1606.86 340.814 1854.526 340.814 1854.526 220.814 1606.86 220.814"></polygon>
                    <polygon id="Fill-50" fill="#FFFFFF" mask="url(#mask-2)" points="455 608.01 1438.74 608.01 1438.74 588.412 455 588.412"></polygon>
                    <polygon id="Fill-51" fill="#FFFFFF" mask="url(#mask-2)" points="420 587.312 1403.74 587.312 1403.74 567.714 420 567.714"></polygon>
                    <polygon id="Fill-52" fill="#FFFFFF" mask="url(#mask-2)" points="385 566.613 1368.74 566.613 1368.74 547.015 385 547.015"></polygon>
                    <polygon id="Fill-53" fill="#FFFFFF" mask="url(#mask-2)" points="350 545.915 1333.74 545.915 1333.74 526.317 350 526.317"></polygon>
                    <polygon id="Fill-54" fill="#FFFFFF" mask="url(#mask-2)" points="315 525.217 1298.74 525.217 1298.74 505.619 315 505.619"></polygon>
                    <polygon id="Fill-55" fill="#FFFFFF" mask="url(#mask-2)" points="280 504.519 1263.74 504.519 1263.74 484.921 280 484.921"></polygon>
                    <polygon id="Fill-56" fill="#FFFFFF" mask="url(#mask-2)" points="245 483.821 1228.74 483.821 1228.74 464.223 245 464.223"></polygon>
                    <polygon id="Fill-57" fill="#8F8F8F" mask="url(#mask-2)" points="280 608.01 1263.74 608.01 1263.74 588.412 280 588.412"></polygon>
                    <polygon id="Fill-58" fill="#8F8F8F" mask="url(#mask-2)" points="245 587.312 1228.74 587.312 1228.74 567.714 245 567.714"></polygon>
                    <polygon id="Fill-59" fill="#8F8F8F" mask="url(#mask-2)" points="210 566.613 1193.74 566.613 1193.74 547.015 210 547.015"></polygon>
                    <polygon id="Fill-60" fill="#8F8F8F" mask="url(#mask-2)" points="175 545.915 1158.74 545.915 1158.74 526.317 175 526.317"></polygon>
                    <polygon id="Fill-61" fill="#8F8F8F" mask="url(#mask-2)" points="140 525.217 1123.74 525.217 1123.74 505.619 140 505.619"></polygon>
                    <polygon id="Fill-62" fill="#8F8F8F" mask="url(#mask-2)" points="105 504.519 1088.74 504.519 1088.74 484.921 105 484.921"></polygon>
                    <polygon id="Fill-63" fill="#8F8F8F" mask="url(#mask-2)" points="70 483.821 1053.74 483.821 1053.74 464.223 70 464.223"></polygon>
                    <polygon id="Fill-64" fill="#6F6F6F" mask="url(#mask-2)" points="280 609.11 1263.74 609.11 1263.74 601.313 280 601.313"></polygon>
                    <polygon id="Fill-65" fill="#6F6F6F" mask="url(#mask-2)" points="245 588.411 1228.74 588.411 1228.74 580.614 245 580.614"></polygon>
                    <polygon id="Fill-66" fill="#6F6F6F" mask="url(#mask-2)" points="210 567.713 1193.74 567.713 1193.74 559.916 210 559.916"></polygon>
                    <polygon id="Fill-67" fill="#6F6F6F" mask="url(#mask-2)" points="175 547.015 1158.74 547.015 1158.74 539.218 175 539.218"></polygon>
                    <polygon id="Fill-68" fill="#6F6F6F" mask="url(#mask-2)" points="140 526.317 1123.74 526.317 1123.74 518.52 140 518.52"></polygon>
                    <polygon id="Fill-69" fill="#6F6F6F" mask="url(#mask-2)" points="105 505.619 1088.74 505.619 1088.74 497.822 105 497.822"></polygon>
                    <polygon id="Fill-70" fill="#6F6F6F" mask="url(#mask-2)" points="70 484.92 1053.74 484.92 1053.74 477.123 70 477.123"></polygon>
                    <polygon id="Fill-71" fill="#6F6F6F" mask="url(#mask-2)" points="35 464.222 1018.74 464.222 1018.74 456.425 35 456.425"></polygon>
                    <polygon id="Fill-72" fill="#6F6F6F" mask="url(#mask-2)" points="0 443.524 983.74 443.524 983.74 435.727 0 435.727"></polygon>
                    <polygon id="Fill-73" fill="#FFFFFF" mask="url(#mask-2)" points="210 463.122 1193.74 463.122 1193.74 443.524 210 443.524"></polygon>
                    <polygon id="Fill-74" fill="#FFFFFF" mask="url(#mask-2)" points="983.74 442.424 1158.74 442.424 1158.74 422.826 983.74 422.826"></polygon>
                    <polygon id="Fill-75" fill="#8F8F8F" mask="url(#mask-2)" points="35 463.122 1018.74 463.122 1018.74 443.524 35 443.524"></polygon>
                    <polygon id="Fill-76" fill="#8F8F8F" mask="url(#mask-2)" points="0 442.424 983.74 442.424 983.74 422.826 0 422.826"></polygon>
                    <polygon id="Fill-77" fill="#D9D9D9" mask="url(#mask-2)" points="986.0826 605.2113 897.8696 605.2113 736.8696 422.8263 781.0826 422.8263"></polygon>
                    <polygon id="Fill-78" fill="#6F6F6F" mask="url(#mask-2)" points="455 609.11 1438.74 609.11 1438.74 601.313 455 601.313"></polygon>
                    <polygon id="Fill-79" fill="#6F6F6F" mask="url(#mask-2)" points="420 588.411 1403.74 588.411 1403.74 580.614 420 580.614"></polygon>
                    <polygon id="Fill-80" fill="#6F6F6F" mask="url(#mask-2)" points="385 567.713 1368.74 567.713 1368.74 559.916 385 559.916"></polygon>
                    <polygon id="Fill-81" fill="#6F6F6F" mask="url(#mask-2)" points="350 547.015 1333.74 547.015 1333.74 539.218 350 539.218"></polygon>
                    <polygon id="Fill-82" fill="#6F6F6F" mask="url(#mask-2)" points="315 526.317 1298.74 526.317 1298.74 518.52 315 518.52"></polygon>
                    <polygon id="Fill-83" fill="#6F6F6F" mask="url(#mask-2)" points="280 505.619 1263.74 505.619 1263.74 497.822 280 497.822"></polygon>
                    <polygon id="Fill-84" fill="#6F6F6F" mask="url(#mask-2)" points="245 484.92 1228.74 484.92 1228.74 477.123 245 477.123"></polygon>
                    <polygon id="Fill-85" fill="#6F6F6F" mask="url(#mask-2)" points="210 464.222 1193.74 464.222 1193.74 456.425 210 456.425"></polygon>
                    <polygon id="Fill-86" fill="#6F6F6F" mask="url(#mask-2)" points="175 443.524 1158.74 443.524 1158.74 435.727 175 435.727"></polygon>
                    <polygon id="Fill-87" fill="#4A4A4A" mask="url(#mask-2)" points="1155.131 462.814 1163.127 462.814 1163.127 413.467 1155.131 413.467"></polygon>
                    <polygon id="Fill-88" fill="#4A4A4A" mask="url(#mask-2)" points="1275.788 526.394 1283.784 526.394 1283.784 477.047 1275.788 477.047"></polygon>
                    <polygon id="Fill-89" fill="#4A4A4A" mask="url(#mask-2)" points="1380.135 588.488 1388.131 588.488 1388.131 539.141 1380.135 539.141"></polygon>
                    <polygon id="Fill-90" fill="#4A4A4A" mask="url(#mask-2)" points="1463.788 640.313 1471.784 640.313 1471.784 590.966 1463.788 590.966"></polygon>
                    <polygon id="Fill-91" fill="#565656" mask="url(#mask-2)" points="1465.1266 567.966 1163.1266 390.467 1121.7836 390.467 1121.7836 413.467 1163.1266 413.467 1465.1266 590.966 1506.4696 590.966 1506.4696 567.966"></polygon>
                    <polygon id="Fill-92" fill="#E8E8E8" mask="url(#mask-2)" points="385 752 1854.608 752 1854.608 608.01 385 608.01"></polygon>
                    <polygon id="Fill-93" fill="#565656" mask="url(#mask-2)" points="705.324 351.963 1158.74 351.963 1158.74 305.165 705.324 305.165"></polygon>
                    <path d="M1750.2393,653.1818 C1750.2393,646.0748 1756.0013,640.3128 1763.1083,640.3128 C1770.2173,640.3128 1775.9783,646.0748 1775.9783,653.1818 L1750.2393,653.1818 Z" id="Fill-94" fill="#FFFFFF" mask="url(#mask-2)"></path>
                    <path d="M1058.3702,714.8138 C1058.3702,707.7068 1064.1322,701.9448 1071.2392,701.9448 C1078.3482,701.9448 1084.1092,707.7068 1084.1092,714.8138 L1058.3702,714.8138 Z" id="Fill-95" fill="#BFBFBF" mask="url(#mask-2)"></path>
                    <path d="M619.7471,646.7472 C619.7471,639.6402 625.5091,633.8782 632.6161,633.8782 C639.7241,633.8782 645.4861,639.6402 645.4861,646.7472 L619.7471,646.7472 Z" id="Fill-96" fill="#FFFFFF" mask="url(#mask-2)"></path>
                    <path d="M1625.3755,721.2484 C1625.3755,714.1414 1631.1375,708.3794 1638.2445,708.3794 C1645.3535,708.3794 1651.1145,714.1414 1651.1145,721.2484 L1625.3755,721.2484 Z" id="Fill-97" fill="#8F8F85" mask="url(#mask-2)"></path>
                </g>
            </g>
        </g>
    </g>
</svg>