<?xml version="1.0" encoding="UTF-8" standalone="no"?>
<svg width="1440px" height="752px" viewBox="0 0 1440 752" version="1.1" xmlns="http://www.w3.org/2000/svg" xmlns:xlink="http://www.w3.org/1999/xlink" xmlns:sketch="http://www.bohemiancoding.com/sketch/ns">
    <!-- Generator: Sketch 3.3.2 (12043) - http://www.bohemiancoding.com/sketch -->
    <title>olympic-village</title>
    <desc>Created with Sketch.</desc>
    <defs></defs>
    <g id="Page-1" stroke="none" stroke-width="1" fill="none" fill-rule="evenodd" sketch:type="MSPage">
        <g id="olympic-village" sketch:type="MSArtboardGroup">
            <g id="Imported-Layers" sketch:type="MSLayerGroup" transform="translate(-24.000000, -2.000000)">
                <path d="M20.4476304,0.750895484 L1466.44372,0.750895484 L1466.44372,260.002581 L20.4476304,260.002581 L20.4476304,0.750895484 Z" id="Fill-1" fill="#28D2FF" sketch:type="MSShapeGroup"></path>
                <path d="M1392.53544,47.4559923 C1392.53544,57.019871 1384.78072,64.7727665 1375.2156,64.7727665 L1248.70518,64.7727665 C1239.13805,64.7727665 1231.38434,57.019871 1231.38434,47.4559923 C1231.38434,37.8931174 1239.13805,30.1412258 1248.70518,30.1412258 L1375.2156,30.1412258 C1384.78072,30.1412258 1392.53544,37.8931174 1392.53544,47.4559923" id="Fill-2" fill="#D7F4FF" sketch:type="MSShapeGroup"></path>
                <path d="M1188.68771,79.7515252 C1188.68771,88.5785626 1195.84599,95.7351587 1204.6751,95.7351587 L1289.19478,95.7351587 C1298.02389,95.7351587 1305.18217,88.5785626 1305.18217,79.7515252 C1305.18217,70.92248 1298.02389,63.7668877 1289.19478,63.7668877 L1204.6751,63.7668877 C1195.84599,63.7668877 1188.68771,70.92248 1188.68771,79.7515252" id="Fill-3" fill="#D7F4FF" sketch:type="MSShapeGroup"></path>
                <path d="M1236.82559,79.7515252 C1236.82559,88.5785626 1229.66731,95.7351587 1220.8382,95.7351587 L1199.16757,95.7351587 C1190.33846,95.7351587 1183.18018,88.5785626 1183.18018,79.7515252 C1183.18018,70.9244877 1190.33846,63.7688955 1199.16757,63.7688955 L1220.8382,63.7688955 C1229.66731,63.7688955 1236.82559,70.9244877 1236.82559,79.7515252" id="Fill-4" fill="#FFFFFF" sketch:type="MSShapeGroup"></path>
                <path d="M1264.30498,47.4559923 C1264.30498,57.019871 1256.55127,64.7727665 1246.98414,64.7727665 C1237.42002,64.7727665 1229.66631,57.019871 1229.66631,47.4559923 C1229.66631,37.8931174 1237.42002,30.1412258 1246.98414,30.1412258 C1256.55127,30.1412258 1264.30498,37.8931174 1264.30498,47.4559923" id="Fill-5" fill="#FFFFFF" sketch:type="MSShapeGroup"></path>
                <path d="M1141.54891,80.7553961 C1141.54891,71.94944 1134.40871,64.8109135 1125.60169,64.8109135 C1116.79166,64.8109135 1109.65145,71.94944 1109.65145,80.7553961 C1109.65145,89.56336 1116.79166,96.7008826 1125.60169,96.7008826 C1134.40871,96.7008826 1141.54891,89.56336 1141.54891,80.7553961" id="Fill-6" fill="#D7F4FF" sketch:type="MSShapeGroup"></path>
                <path d="M570.182033,218.69831 C650.056719,195.391437 683.378002,140.034981 740.299811,169.169324 C797.22162,198.303667 841.465577,231.809868 868.883717,250.745886 C896.30286,269.68592 868.883717,300.27688 868.883717,300.27688 L559.717232,282.795471 L570.182033,218.69831" id="Fill-7" fill="#135156" sketch:type="MSShapeGroup"></path>
                <path d="M945.786246,246.771561 C1025.66093,226.685107 1058.98322,178.978147 1115.90503,204.085964 C1172.82583,229.194785 1217.06979,258.070129 1244.48893,274.392067 C1271.90808,290.713001 1244.48893,317.077665 1244.48893,317.077665 L935.321446,302.012573 L945.786246,246.771561" id="Fill-8" fill="#135156" sketch:type="MSShapeGroup"></path>
                <path d="M20.4476304,253.084906 C97.3983573,220.961035 235.965092,154.705551 296.211499,132.62039 C356.457906,110.535228 385.870201,127.409295 424.737166,160.728777 C474.942505,203.768741 527.546655,166.097479 568.151729,212.930067 C596.860146,246.042751 613.021244,281.193293 743.446682,281.193293 C863.494676,281.193293 1031.21766,332.321445 1167.77618,203.768741 C1290.27721,88.4500671 1348.36177,128.604906 1389.89564,164.744261 C1431.42952,200.883615 1466.44372,206.906841 1466.44372,206.906841 L1466.44372,333.394583 L20.4476304,333.394583 L20.4476304,253.084906" id="Fill-9" fill="#1B6C72" sketch:type="MSShapeGroup"></path>
                <path d="M20.4476304,316.219355 L1466.44372,316.219355 L1466.44372,667.545081 L20.4476304,667.545081 L20.4476304,316.219355 Z" id="Fill-10" fill="#28D2FF" sketch:type="MSShapeGroup"></path>
                <path d="M20.4476304,316.219355 L1466.44372,316.219355 L1466.44372,372.436129 L20.4476304,372.436129 L20.4476304,316.219355 Z" id="Fill-11" fill="#3499DF" sketch:type="MSShapeGroup"></path>
                <path d="M1466.44372,415.93185 L1466.44372,424.212782 L711.044156,424.212782 C706.469446,424.212782 702.760275,420.505486 702.760275,415.93185 C702.760275,411.358214 706.469446,407.649915 711.044156,407.649915 L1466.44372,407.649915 L1466.44372,415.93185" id="Fill-12" fill="#3499DF" sketch:type="MSShapeGroup"></path>
                <path d="M20.4476304,314.295938 L1466.44372,314.295938 L1466.44372,364.994434 L20.4476304,364.994434 L20.4476304,314.295938 Z" id="Fill-13" fill="#91B7C5" sketch:type="MSShapeGroup"></path>
                <path d="M1342.81207,0.750895484 L1466.44372,0.750895484 L1466.44372,314.295938 L1342.81207,314.295938 L1342.81207,0.750895484 Z" id="Fill-14" fill="#6D8994" sketch:type="MSShapeGroup"></path>
                <path d="M168.505183,152.383597 L232.807177,152.383597 L232.807177,314.295938 L168.505183,314.295938 L168.505183,152.383597 Z" id="Fill-15" fill="#6D8994" sketch:type="MSShapeGroup"></path>
                <path d="M106.146136,259.739566 L170.448129,259.739566 L170.448129,314.295938 L106.146136,314.295938 L106.146136,259.739566 Z" id="Fill-16" fill="#6D8994" sketch:type="MSShapeGroup"></path>
                <path d="M20.4476304,177.14809 L84.7496242,177.14809 L84.7496242,314.295938 L20.4476304,314.295938 L20.4476304,177.14809 Z" id="Fill-17" fill="#6D8994" sketch:type="MSShapeGroup"></path>
                <path d="M791.051384,182.703512 C791.051384,270.056348 861.88208,340.868403 949.255435,340.868403 C1036.62879,340.868403 1107.45848,270.056348 1107.45848,182.703512 C1107.45848,95.3496723 1036.62879,24.5366142 949.255435,24.5366142 C861.88208,24.5366142 791.051384,95.3496723 791.051384,182.703512" id="Fill-18" fill="#FFFFFF" sketch:type="MSShapeGroup"></path>
                <path d="M833.655634,228.019252 L857.294316,177.595817 L880.935006,228.019252 L833.655634,228.019252" id="Fill-19" fill="#BDE2F0" sketch:type="MSShapeGroup"></path>
                <path d="M880.935006,228.019252 L904.573688,177.595817 L928.214378,228.019252 L880.935006,228.019252" id="Fill-20" fill="#BDE2F0" sketch:type="MSShapeGroup"></path>
                <path d="M928.214378,228.019252 L951.854064,177.595817 L975.493749,228.019252 L928.214378,228.019252" id="Fill-21" fill="#BDE2F0" sketch:type="MSShapeGroup"></path>
                <path d="M975.493749,228.019252 L999.133435,177.595817 L1022.77312,228.019252 L975.493749,228.019252" id="Fill-22" fill="#BDE2F0" sketch:type="MSShapeGroup"></path>
                <path d="M857.29532,177.595817 L880.935006,127.173386 L904.573688,177.595817 L857.29532,177.595817" id="Fill-23" fill="#BDE2F0" sketch:type="MSShapeGroup"></path>
                <path d="M904.573688,177.595817 L928.214378,127.173386 L951.854064,177.595817 L904.573688,177.595817" id="Fill-24" fill="#BDE2F0" sketch:type="MSShapeGroup"></path>
                <path d="M951.854064,177.595817 L975.493749,127.173386 L999.133435,177.595817 L951.854064,177.595817" id="Fill-25" fill="#BDE2F0" sketch:type="MSShapeGroup"></path>
                <path d="M999.133435,177.595817 L1022.77312,127.173386 L1046.41281,177.595817 L999.133435,177.595817" id="Fill-26" fill="#BDE2F0" sketch:type="MSShapeGroup"></path>
                <path d="M880.935006,127.294854 L904.573688,76.8714194 L928.214378,127.294854 L880.935006,127.294854" id="Fill-27" fill="#BDE2F0" sketch:type="MSShapeGroup"></path>
                <path d="M928.214378,127.294854 L951.854064,76.8714194 L975.493749,127.294854 L928.214378,127.294854" id="Fill-28" fill="#BDE2F0" sketch:type="MSShapeGroup"></path>
                <path d="M975.493749,127.294854 L999.133435,76.8714194 L1022.77312,127.294854 L975.493749,127.294854" id="Fill-29" fill="#BDE2F0" sketch:type="MSShapeGroup"></path>
                <path d="M912.277195,177.595817 C912.277195,173.342415 908.828088,169.893115 904.573688,169.893115 C900.319287,169.893115 896.871185,173.342415 896.871185,177.595817 C896.871185,181.849218 900.319287,185.297515 904.573688,185.297515 C908.828088,185.297515 912.277195,181.849218 912.277195,177.595817" id="Fill-30" fill="#3499DF" sketch:type="MSShapeGroup"></path>
                <path d="M912.277195,76.8714194 C912.277195,72.6190219 908.828088,69.1697213 904.573688,69.1697213 C900.319287,69.1697213 896.871185,72.6190219 896.871185,76.8714194 C896.871185,81.1258245 900.319287,84.5741213 904.573688,84.5741213 C908.828088,84.5741213 912.277195,81.1258245 912.277195,76.8714194" id="Fill-31" fill="#3499DF" sketch:type="MSShapeGroup"></path>
                <path d="M888.637509,228.019252 C888.637509,223.764846 885.188402,220.31655 880.934002,220.31655 C876.679602,220.31655 873.230495,223.764846 873.230495,228.019252 C873.230495,232.271649 876.679602,235.72095 880.934002,235.72095 C885.188402,235.72095 888.637509,232.271649 888.637509,228.019252" id="Fill-32" fill="#3499DF" sketch:type="MSShapeGroup"></path>
                <path d="M935.916881,127.294854 C935.916881,123.041453 932.468778,119.593156 928.214378,119.593156 C923.959977,119.593156 920.510871,123.041453 920.510871,127.294854 C920.510871,131.548255 923.959977,134.996552 928.214378,134.996552 C932.468778,134.996552 935.916881,131.548255 935.916881,127.294854" id="Fill-33" fill="#3499DF" sketch:type="MSShapeGroup"></path>
                <path d="M888.637509,127.294854 C888.637509,123.041453 885.189407,119.593156 880.935006,119.593156 C876.680606,119.593156 873.231499,123.041453 873.231499,127.294854 C873.231499,131.548255 876.680606,134.996552 880.935006,134.996552 C885.189407,134.996552 888.637509,131.548255 888.637509,127.294854" id="Fill-34" fill="#3499DF" sketch:type="MSShapeGroup"></path>
                <path d="M959.557571,177.595817 C959.557571,173.342415 956.108464,169.893115 951.854064,169.893115 C947.599663,169.893115 944.150556,173.342415 944.150556,177.595817 C944.150556,181.849218 947.599663,185.297515 951.854064,185.297515 C956.108464,185.297515 959.557571,181.849218 959.557571,177.595817" id="Fill-35" fill="#3499DF" sketch:type="MSShapeGroup"></path>
                <path d="M1006.83694,177.595817 C1006.83694,173.342415 1003.38784,169.893115 999.133435,169.893115 C994.879035,169.893115 991.429928,173.342415 991.429928,177.595817 C991.429928,181.849218 994.879035,185.297515 999.133435,185.297515 C1003.38784,185.297515 1006.83694,181.849218 1006.83694,177.595817" id="Fill-36" fill="#3499DF" sketch:type="MSShapeGroup"></path>
                <path d="M864.998828,177.595817 C864.998828,173.342415 861.549721,169.893115 857.29532,169.893115 C853.04092,169.893115 849.591813,173.342415 849.591813,177.595817 C849.591813,181.849218 853.04092,185.297515 857.29532,185.297515 C861.549721,185.297515 864.998828,181.849218 864.998828,177.595817" id="Fill-37" fill="#3499DF" sketch:type="MSShapeGroup"></path>
                <path d="M20.4476304,545.447267 L1466.44372,545.447267 L1466.44372,755.662867 L20.4476304,755.662867 L20.4476304,545.447267 Z" id="Fill-38" fill="#C7C7C4" sketch:type="MSShapeGroup"></path>
                <path d="M714.889885,396.958689 L731.129304,396.958689 L731.129304,415.249218 L714.889885,415.249218 L714.889885,396.958689 Z" id="Fill-39" fill="#392722" sketch:type="MSShapeGroup"></path>
                <path d="M762.697417,396.958689 L778.936836,396.958689 L778.936836,415.249218 L762.697417,415.249218 L762.697417,396.958689 Z" id="Fill-40" fill="#392722" sketch:type="MSShapeGroup"></path>
                <path d="M810.504949,396.958689 L826.743363,396.958689 L826.743363,415.249218 L810.504949,415.249218 L810.504949,396.958689 Z" id="Fill-41" fill="#392722" sketch:type="MSShapeGroup"></path>
                <path d="M858.311476,396.958689 L874.549891,396.958689 L874.549891,415.249218 L858.311476,415.249218 L858.311476,396.958689 Z" id="Fill-42" fill="#392722" sketch:type="MSShapeGroup"></path>
                <path d="M906.119008,396.958689 L922.358427,396.958689 L922.358427,415.249218 L906.119008,415.249218 L906.119008,396.958689 Z" id="Fill-43" fill="#392722" sketch:type="MSShapeGroup"></path>
                <path d="M953.92654,396.958689 L970.165959,396.958689 L970.165959,415.249218 L953.92654,415.249218 L953.92654,396.958689 Z" id="Fill-44" fill="#392722" sketch:type="MSShapeGroup"></path>
                <path d="M1001.73307,396.958689 L1017.97249,396.958689 L1017.97249,415.249218 L1001.73307,415.249218 L1001.73307,396.958689 Z" id="Fill-45" fill="#392722" sketch:type="MSShapeGroup"></path>
                <path d="M1049.5406,396.958689 L1065.78002,396.958689 L1065.78002,415.249218 L1049.5406,415.249218 L1049.5406,396.958689 Z" id="Fill-46" fill="#392722" sketch:type="MSShapeGroup"></path>
                <path d="M1097.34813,396.958689 L1113.58755,396.958689 L1113.58755,415.249218 L1097.34813,415.249218 L1097.34813,396.958689 Z" id="Fill-47" fill="#392722" sketch:type="MSShapeGroup"></path>
                <path d="M1145.15566,396.958689 L1161.39408,396.958689 L1161.39408,415.249218 L1145.15566,415.249218 L1145.15566,396.958689 Z" id="Fill-48" fill="#392722" sketch:type="MSShapeGroup"></path>
                <path d="M1192.96219,396.958689 L1209.20161,396.958689 L1209.20161,415.249218 L1192.96219,415.249218 L1192.96219,396.958689 Z" id="Fill-49" fill="#392722" sketch:type="MSShapeGroup"></path>
                <path d="M1240.76972,396.958689 L1257.00914,396.958689 L1257.00914,415.249218 L1240.76972,415.249218 L1240.76972,396.958689 Z" id="Fill-50" fill="#392722" sketch:type="MSShapeGroup"></path>
                <path d="M1288.57725,396.958689 L1304.81567,396.958689 L1304.81567,415.249218 L1288.57725,415.249218 L1288.57725,396.958689 Z" id="Fill-51" fill="#392722" sketch:type="MSShapeGroup"></path>
                <path d="M1336.38378,396.958689 L1352.6222,396.958689 L1352.6222,415.249218 L1336.38378,415.249218 L1336.38378,396.958689 Z" id="Fill-52" fill="#392722" sketch:type="MSShapeGroup"></path>
                <path d="M1384.19131,396.958689 L1400.43073,396.958689 L1400.43073,415.249218 L1384.19131,415.249218 L1384.19131,396.958689 Z" id="Fill-53" fill="#392722" sketch:type="MSShapeGroup"></path>
                <path d="M1431.99885,396.958689 L1448.23826,396.958689 L1448.23826,415.249218 L1431.99885,415.249218 L1431.99885,396.958689 Z" id="Fill-54" fill="#392722" sketch:type="MSShapeGroup"></path>
                <path d="M702.760275,364.994434 L1466.44372,364.994434 L1466.44372,396.958689 L702.760275,396.958689 L702.760275,364.994434 Z" id="Fill-55" fill="#FFFFFF" sketch:type="MSShapeGroup"></path>
                <path d="M730.280834,252.560885 L973.669287,252.560885 L973.669287,364.994434 L730.280834,364.994434 L730.280834,252.560885 Z" id="Fill-56" fill="#BDE2F0" sketch:type="MSShapeGroup"></path>
                <path d="M973.669287,252.560885 L1127.64002,252.560885 L1127.64002,364.994434 L973.669287,364.994434 L973.669287,252.560885 Z" id="Fill-57" fill="#EF5281" sketch:type="MSShapeGroup"></path>
                <path d="M1127.64002,252.560885 L1163.58805,252.560885 L1163.58805,364.994434 L1127.64002,364.994434 L1127.64002,252.560885 Z" id="Fill-58" fill="#BDE2F0" sketch:type="MSShapeGroup"></path>
                <path d="M994.90715,240.57567 L1046.11358,240.57567 L1046.11358,331.006374 L994.90715,331.006374 L994.90715,240.57567 Z" id="Fill-59" fill="#BDE2F0" sketch:type="MSShapeGroup"></path>
                <path d="M1061.17418,240.57567 L1112.38061,240.57567 L1112.38061,331.006374 L1061.17418,331.006374 L1061.17418,240.57567 Z" id="Fill-60" fill="#BDE2F0" sketch:type="MSShapeGroup"></path>
                <path d="M1163.58805,252.560885 L1317.55879,252.560885 L1317.55879,364.994434 L1163.58805,364.994434 L1163.58805,252.560885 Z" id="Fill-61" fill="#EF5281" sketch:type="MSShapeGroup"></path>
                <path d="M1317.55879,252.560885 L1353.50682,252.560885 L1353.50682,370.004754 L1317.55879,370.004754 L1317.55879,252.560885 Z" id="Fill-62" fill="#FFFFFF" sketch:type="MSShapeGroup"></path>
                <path d="M1184.82591,240.57567 L1236.03235,240.57567 L1236.03235,331.006374 L1184.82591,331.006374 L1184.82591,240.57567 Z" id="Fill-63" fill="#BDE2F0" sketch:type="MSShapeGroup"></path>
                <path d="M1251.09294,240.57567 L1302.29938,240.57567 L1302.29938,331.006374 L1251.09294,331.006374 L1251.09294,240.57567 Z" id="Fill-64" fill="#BDE2F0" sketch:type="MSShapeGroup"></path>
                <path d="M750.920248,273.641172 L793.090725,273.641172 L793.090725,350.433285 L750.920248,350.433285 L750.920248,273.641172 Z" id="Fill-65" fill="#FFFFFF" sketch:type="MSShapeGroup"></path>
                <path d="M822.828351,273.641172 L864.998828,273.641172 L864.998828,350.433285 L822.828351,350.433285 L822.828351,273.641172 Z" id="Fill-66" fill="#FFFFFF" sketch:type="MSShapeGroup"></path>
                <path d="M894.73545,273.641172 L936.905926,273.641172 L936.905926,350.433285 L894.73545,350.433285 L894.73545,273.641172 Z" id="Fill-67" fill="#FFFFFF" sketch:type="MSShapeGroup"></path>
                <path d="M545.943899,415.157866 L624.400786,415.157866 C629.402242,415.157866 633.456825,419.212501 633.456825,424.212782 C633.456825,429.214067 629.402242,433.267698 624.400786,433.267698 L545.943899,433.267698 C540.941439,433.267698 536.885852,429.214067 536.885852,424.212782 C536.885852,419.212501 540.941439,415.157866 545.943899,415.157866" id="Fill-68" fill="#3499DF" sketch:type="MSShapeGroup"></path>
                <path d="M586.598175,344.409055 L598.647456,344.409055 L598.647456,424.212782 L586.598175,424.212782 L586.598175,344.409055 Z" id="Fill-69" fill="#392722" sketch:type="MSShapeGroup"></path>
                <path d="M557.972094,344.409055 L570.021376,344.409055 L570.021376,424.212782 L557.972094,424.212782 L557.972094,344.409055 Z" id="Fill-70" fill="#392722" sketch:type="MSShapeGroup"></path>
                <path d="M536.885852,344.409055 L548.935133,344.409055 L548.935133,424.212782 L536.885852,424.212782 L536.885852,344.409055 Z" id="Fill-71" fill="#392722" sketch:type="MSShapeGroup"></path>
                <path d="M438.095803,474.689422 L493.448193,474.689422 C498.450653,474.689422 502.505236,478.744057 502.505236,483.745342 C502.505236,488.745623 498.450653,492.799254 493.448193,492.799254 L438.095803,492.799254 C433.093343,492.799254 429.037756,488.745623 429.037756,483.745342 C429.037756,478.744057 433.093343,474.689422 438.095803,474.689422" id="Fill-72" fill="#3499DF" sketch:type="MSShapeGroup"></path>
                <path d="M429.037756,403.940612 L441.087037,403.940612 L441.087037,483.744338 L429.037756,483.744338 L429.037756,403.940612 Z" id="Fill-73" fill="#392722" sketch:type="MSShapeGroup"></path>
                <path d="M455.646585,403.940612 L467.695867,403.940612 L467.695867,483.744338 L455.646585,483.744338 L455.646585,403.940612 Z" id="Fill-74" fill="#392722" sketch:type="MSShapeGroup"></path>
                <path d="M1185.23157,494.982674 L1349.81271,494.982674 L1349.81271,595.86769 L1185.23157,595.86769 L1185.23157,494.982674 Z" id="Fill-75" fill="#91B7C5" sketch:type="MSShapeGroup"></path>
                <path d="M1112.75314,494.982674 L1277.33327,494.982674 L1277.33327,595.86769 L1112.75314,595.86769 L1112.75314,494.982674 Z" id="Fill-76" fill="#6D8994" sketch:type="MSShapeGroup"></path>
                <path d="M396.97261,680.410692 C396.97261,692.053587 377.418634,701.490978 353.296977,701.490978 C329.17532,701.490978 309.621345,692.053587 309.621345,680.410692 C309.621345,668.7688 329.17532,659.330405 353.296977,659.330405 C377.418634,659.330405 396.97261,668.7688 396.97261,680.410692" id="Fill-77" fill="#815130" sketch:type="MSShapeGroup"></path>
                <path d="M369.863735,274.74543 C369.863735,265.597154 362.447402,258.182563 353.296977,258.182563 C344.147556,258.182563 336.73022,265.597154 336.73022,274.74543 L336.73022,680.410692 L369.863735,680.410692 L369.863735,274.74543" id="Fill-78" fill="#9A7459" sketch:type="MSShapeGroup"></path>
                <path d="M505.939281,329.504583 C505.939281,409.030237 440.511684,473.497827 359.802585,473.497827 C279.094491,473.497827 213.665889,409.030237 213.665889,329.504583 L213.665889,201.212885 C213.665889,121.689239 279.093487,57.221649 359.802585,57.2206452 C440.511684,57.2206452 505.939281,121.689239 505.939281,201.212885 L505.939281,329.504583" id="Fill-79" fill="#5AB55C" sketch:type="MSShapeGroup"></path>
                <path d="M505.939281,329.504583 C505.939281,409.030237 440.511684,473.497827 359.802585,473.497827 C279.094491,473.497827 213.665889,409.030237 213.665889,329.504583 L213.665889,201.212885 C213.665889,121.689239 279.093487,57.221649 359.802585,57.2206452 C440.511684,57.2206452 505.939281,121.689239 505.939281,201.212885 L505.939281,329.504583 L505.939281,329.504583 Z" id="Stroke-80" stroke="#5AB55C" stroke-width="30.1184932" stroke-linecap="round" stroke-linejoin="round" stroke-dasharray="0,27.702" sketch:type="MSShapeGroup"></path>
                <path d="M470.883906,333.342382 C470.883906,417.625381 424.849626,485.948839 353.297982,485.948839 C268.996189,485.948839 200.655678,417.625381 200.655678,333.342382 L200.655678,197.37609 C200.655678,113.101123 268.985144,44.7696335 353.280912,44.7696335 L353.297982,44.7696335 C424.849626,44.7696335 470.883906,113.094095 470.883906,197.37609 L470.883906,333.342382" id="Fill-81" fill="#A9D163" sketch:type="MSShapeGroup"></path>
                <path d="M470.883906,333.342382 C470.883906,417.625381 424.849626,485.948839 353.297982,485.948839 C268.996189,485.948839 200.655678,417.625381 200.655678,333.342382 L200.655678,197.37609 C200.655678,113.101123 268.985144,44.7696335 353.280912,44.7696335 L353.297982,44.7696335 C424.849626,44.7696335 470.883906,113.094095 470.883906,197.37609 L470.883906,333.342382 L470.883906,333.342382 Z" id="Stroke-82" stroke="#A9D163" stroke-width="30.1184932" stroke-linecap="round" stroke-linejoin="round" stroke-dasharray="0,28.008" sketch:type="MSShapeGroup"></path>
                <path d="M437.110774,333.342382 C437.110774,417.625381 383.631043,485.948839 353.297982,485.948839 C268.996189,485.948839 200.655678,417.625381 200.655678,333.342382 L200.655678,197.37609 C200.655678,113.101123 268.985144,44.7696335 353.280912,44.7696335 L353.297982,44.7696335 C396.248649,44.7696335 437.110774,113.094095 437.110774,197.37609 L437.110774,333.342382" id="Fill-83" fill="#D0D766" sketch:type="MSShapeGroup"></path>
                <path d="M437.110774,333.342382 C437.110774,417.625381 383.631043,485.948839 353.297982,485.948839 C268.996189,485.948839 200.655678,417.625381 200.655678,333.342382 L200.655678,197.37609 C200.655678,113.101123 268.985144,44.7696335 353.280912,44.7696335 L353.297982,44.7696335 C396.248649,44.7696335 437.110774,113.094095 437.110774,197.37609 L437.110774,333.342382 L437.110774,333.342382 Z" id="Stroke-84" stroke="#D0D766" stroke-width="30.1184932" stroke-linecap="round" stroke-linejoin="round" stroke-dasharray="0,28.029" sketch:type="MSShapeGroup"></path>
                <path d="M200.655678,637.029412 C200.655678,602.364743 172.546713,574.260372 137.871893,574.260372 C134.052271,574.260372 130.317998,574.620761 126.686144,575.274281 C126.709238,574.785396 126.7243,574.295507 126.7243,573.799595 C126.7243,556.478805 112.67785,542.436658 95.3529918,542.436658 C90.7401253,542.436658 86.3662361,543.440529 82.4231088,545.224408 C82.7896078,543.317053 82.9884209,541.352477 82.9884209,539.338712 C82.9884209,522.248813 69.1327515,508.397401 52.0398419,508.397401 C36.0745441,508.397401 22.9378152,520.483004 21.2720021,535.999837 L21.0902587,535.999837 L21.0902587,699.799455 L137.871893,699.799455 C172.546713,699.799455 200.655678,671.696088 200.655678,637.029412" id="Fill-85" fill="#3B9F86" sketch:type="MSShapeGroup"></path>
                <path d="M135.564456,683.562846 C134.465963,683.562846 133.404622,683.713427 132.385454,683.96841 C134.285224,679.241182 135.341544,674.082289 135.341544,668.677448 C135.341544,646.008034 116.960366,627.632175 94.2886386,627.632175 C93.1479733,627.632175 92.0213655,627.691404 90.9037947,627.780748 C88.1555544,617.138712 78.4890185,609.278403 66.9869754,609.278403 C65.0671232,609.278403 63.203501,609.505277 61.4111704,609.918872 C62.4915893,606.717528 63.0870246,603.294328 63.0870246,599.727574 C63.0870246,582.140759 48.8267002,567.883783 31.2347495,567.883783 C27.685232,567.883783 24.2772936,568.472052 21.0902587,569.54519 L21.0902587,709.719708 L135.564456,709.719708 C142.789004,709.719708 148.645959,703.865133 148.645959,696.640274 C148.645959,689.417422 142.789004,683.562846 135.564456,683.562846 L135.564456,683.562846 Z M55.2861191,655.862031 L55.2861191,655.726508 L55.3242752,655.746586 L55.2861191,655.862031 L55.2861191,655.862031 Z" id="Fill-86" fill="#3BB67D" sketch:type="MSShapeGroup"></path>
                <path d="M74.6884743,711.942279 C74.6884743,725.663187 85.8139774,736.786077 99.5391129,736.786077 C113.263244,736.786077 124.389752,725.663187 124.389752,711.942279 C124.389752,698.220366 113.263244,687.097476 99.5391129,687.097476 C85.8139774,687.097476 74.6884743,698.220366 74.6884743,711.942279" id="Fill-87" fill="#4FC1B3" sketch:type="MSShapeGroup"></path>
                <path d="M0.89064271,733.506431 C0.89064271,757.962735 20.7207474,777.788183 45.1827967,777.788183 C69.644846,777.788183 89.4749507,757.962735 89.4749507,733.506431 C89.4749507,709.050126 69.644846,689.223675 45.1827967,689.223675 C20.7207474,689.223675 0.89064271,709.050126 0.89064271,733.506431" id="Fill-88" fill="#4FC1B3" sketch:type="MSShapeGroup"></path>
                <path d="M48.4531725,685.358772 C48.4531725,671.53848 59.658,660.33528 73.4825421,660.33528 C87.3060801,660.33528 98.5119117,671.53848 98.5119117,685.358772 C98.5119117,699.179063 87.3060801,710.383267 73.4825421,710.383267 C59.658,710.383267 48.4531725,699.179063 48.4531725,685.358772" id="Fill-89" fill="#4FC1B3" sketch:type="MSShapeGroup"></path>
                <path d="M1384.19131,561.235146 C1384.19131,546.266426 1372.05468,534.131634 1357.08144,534.131634 C1342.1092,534.131634 1329.97256,546.266426 1329.97256,561.235146 L1329.97256,755.661863 L1384.19131,755.661863 L1384.19131,561.235146" id="Fill-90" fill="#FFFFFF" sketch:type="MSShapeGroup"></path>
                <path d="M640.666312,54.3606168 C640.666312,63.0993135 633.579326,70.1856387 624.837573,70.1856387 L584.93437,70.1856387 C576.19362,70.1856387 569.10563,63.0993135 569.10563,54.3606168 C569.10563,45.62192 576.19362,38.5376026 584.93437,38.5376026 L624.837573,38.5376026 C633.579326,38.5376026 640.666312,45.62192 640.666312,54.3606168" id="Fill-91" fill="#D7F4FF" sketch:type="MSShapeGroup"></path>
                <path d="M732.540074,88.2904516 C732.540074,100.34895 722.762082,110.122637 710.700752,110.122637 L560.661092,110.122637 C548.600766,110.122637 538.823778,100.34895 538.823778,88.2904516 C538.823778,76.2329574 548.600766,66.4582658 560.661092,66.4582658 L710.700752,66.4582658 C722.762082,66.4582658 732.540074,76.2329574 732.540074,88.2904516" id="Fill-92" fill="#D7F4FF" sketch:type="MSShapeGroup"></path>
                <path d="M626.175043,88.2904516 C626.175043,100.34895 616.39906,110.122637 604.338733,110.122637 L560.661092,110.122637 C548.600766,110.122637 538.823778,100.34895 538.823778,88.2904516 C538.823778,76.2329574 548.600766,66.4582658 560.661092,66.4582658 L604.338733,66.4582658 C616.39906,66.4582658 626.175043,76.2329574 626.175043,88.2904516" id="Fill-93" fill="#FFFFFF" sketch:type="MSShapeGroup"></path>
                <path d="M600.763109,54.3606168 C600.763109,63.1013213 593.677127,70.1856387 584.93437,70.1856387 C576.19362,70.1856387 569.10563,63.1013213 569.10563,54.3606168 C569.10563,45.6209161 576.19362,38.5376026 584.93437,38.5376026 C593.677127,38.5376026 600.763109,45.6209161 600.763109,54.3606168" id="Fill-94" fill="#FFFFFF" sketch:type="MSShapeGroup"></path>
                <path d="M770.75939,124.92873 C770.75939,133.662408 763.679433,140.739698 754.944708,140.739698 L675.12324,140.739698 C666.390524,140.739698 659.308559,133.662408 659.308559,124.92873 C659.308559,116.198065 666.390524,109.117763 675.12324,109.117763 L754.944708,109.117763 C763.679433,109.117763 770.75939,116.198065 770.75939,124.92873" id="Fill-95" fill="#D7F4FF" sketch:type="MSShapeGroup"></path>
                <path d="M659.308559,124.92873 C659.308559,116.198065 666.390524,109.117763 675.12324,109.117763 L686.602189,109.117763 C695.334906,109.117763 702.416871,116.198065 702.416871,124.92873 C702.416871,133.662408 695.334906,140.739698 686.602189,140.739698 L675.12324,140.739698 C666.390524,140.739698 659.308559,133.662408 659.308559,124.92873" id="Fill-96" fill="#FFFFFF" sketch:type="MSShapeGroup"></path>
                <path d="M601.867626,158.308444 C601.867626,150.941035 595.893191,144.968003 588.524051,144.968003 C581.152903,144.968003 575.177464,150.941035 575.177464,158.308444 C575.177464,165.676857 581.152903,171.650893 588.524051,171.650893 C595.893191,171.650893 601.867626,165.676857 601.867626,158.308444" id="Fill-97" fill="#FFFFFF" sketch:type="MSShapeGroup"></path>
            </g>
        </g>
    </g>
</svg>