<?xml version="1.0" encoding="UTF-8" standalone="no"?>
<svg width="1440px" height="752px" viewBox="0 0 1440 752" version="1.1" xmlns="http://www.w3.org/2000/svg" xmlns:xlink="http://www.w3.org/1999/xlink">
    <!-- Generator: Sketch 39.1 (31720) - http://www.bohemiancoding.com/sketch -->
    <title>orpheum</title>
    <desc>Created with Sketch.</desc>
    <defs>
        <polygon id="path-1" points="0 832 1490.623 832 1490.623 0.911 0 0.911"></polygon>
    </defs>
    <g id="Page-1" stroke="none" stroke-width="1" fill="none" fill-rule="evenodd">
        <g id="orpheum">
            <g id="Page-1" transform="translate(-51.000000, -81.000000)">
                <polygon id="Fill-1" fill="#F7DCDA" points="50.541 688.099 1490.622 688.099 1490.622 80.089 50.541 80.089"></polygon>
                <polygon id="Fill-2" fill="#2A5C70" points="1059.36 688.099 1490.622 688.099 1490.622 370.151 1059.36 370.151"></polygon>
                <polygon id="Fill-3" fill="#B1DBF6" points="1088.611 688.099 1490.622 688.099 1490.622 474.977 1088.611 474.977"></polygon>
                <polygon id="Fill-4" fill="#DDDDDD" points="1059.361 688.099 1088.611 688.099 1088.611 474.977 1059.361 474.977"></polygon>
                <polygon id="Fill-5" fill="#C85BA2" points="50.541 318.704 481.803 318.704 481.803 80.089 50.541 80.089"></polygon>
                <polygon id="Fill-6" fill="#F292A5" points="50.541 688.099 481.803 688.099 481.803 384.094 50.541 384.094"></polygon>
                <polygon id="Fill-7" fill="#B1DBF6" points="481.803 688.099 1059.361 688.099 1059.361 370.152 481.803 370.152"></polygon>
                <polygon id="Fill-8" fill="#BFBFB2" points="50.541 832.089 1490.622 832.089 1490.622 688.099 50.541 688.099"></polygon>
                <polygon id="Fill-9" fill="#FFC64A" points="643.361 673.566 909.361 673.566 909.361 575.901 643.361 575.901"></polygon>
                <polygon id="Fill-10" fill="#6B6B6B" points="657.658 688.099 895.064 688.099 895.064 673.566 657.658 673.566"></polygon>
                <polygon id="Fill-11" fill="#BF2F31" points="657.658 575.901 895.064 575.901 895.064 498.72 657.658 498.72"></polygon>
                <polygon id="Fill-12" fill="#FFC64A" points="643.361 498.72 909.361 498.72 909.361 462.632 643.361 462.632"></polygon>
                <polygon id="Fill-13" fill="#FFC64A" points="833.361 586.928 847.361 586.928 847.361 480.676 833.361 480.676"></polygon>
                <polygon id="Fill-14" fill="#FFC64A" points="705.361 586.928 719.361 586.928 719.361 480.676 705.361 480.676"></polygon>
                <polygon id="Fill-15" fill="#EFF9FD" points="785.361 575.901 819.361 575.901 819.361 551.222 785.361 551.222"></polygon>
                <polygon id="Fill-16" fill="#B1DBF6" points="481.803 370.1517 481.803 688.0987 919.361 688.0987 919.361 529.1257 1008.314 529.1257 1008.314 688.0987 1059.361 688.0987 1059.361 370.1517"></polygon>
                <polygon id="Fill-18" fill="#FFFFFF" points="902.837 687.933 919.837 687.933 919.837 513.144 902.837 513.144"></polygon>
                <polygon id="Fill-19" fill="#FFFFFF" points="1019.837 687.933 1036.837 687.933 1036.837 513.144 1019.837 513.144"></polygon>
                <polygon id="Fill-20" fill="#FFFFFF" points="902.837 528.959 1019.837 528.959 1019.837 513.143 902.837 513.143"></polygon>
                <polygon id="Fill-21" fill="#6CC4EB" points="919.361 688.099 1008.314 688.099 1008.314 529.125 919.361 529.125"></polygon>
                <polygon id="Fill-23" fill="#6CC4EB" points="919.361 688.099 1008.314 688.099 1008.314 529.125 919.361 529.125"></polygon>
                <polygon id="Fill-24" fill="#FFFFFF" points="982.694 627.997 994.027 627.997 994.027 593.997 982.694 593.997"></polygon>
                <polygon id="Fill-25" fill="#A57AB4" points="481.803 279.015 1059.361 279.015 1059.361 80.089 481.803 80.089"></polygon>
                <polygon id="Fill-26" fill="#B8A2A1" points="50.541 384.094 481.803 384.094 481.803 318.704 50.541 318.704"></polygon>
                <polygon id="Fill-27" fill="#B57A7C" points="50.541 627.997 328.484 627.997 328.484 462.631 50.541 462.631"></polygon>
                <polygon id="Fill-28" fill="#B1DBF6" points="173.991 627.997 328.483 627.997 328.483 521.217 173.991 521.217"></polygon>
                <polygon id="Fill-29" fill="#B1DBF6" points="0 627.997 154.492 627.997 154.492 521.217 0 521.217"></polygon>
                <g id="Group-55" transform="translate(0.000000, 0.089000)">
                    <path d="M36.6276,504.8863 L327.3576,504.8863 C329.0776,504.8863 330.4856,503.4793 330.4856,501.7583 C330.4856,500.0383 329.0776,498.6313 327.3576,498.6313 L36.6276,498.6313 C34.9076,498.6313 33.4996,500.0383 33.4996,501.7583 C33.4996,503.4793 34.9076,504.8863 36.6276,504.8863 L36.6276,504.8863 Z" id="Fill-30" fill="#FF505E"></path>
                    <path d="M36.6276,488.7185 L327.3576,488.7185 C329.0776,488.7185 330.4856,487.3115 330.4856,485.5905 C330.4856,483.8705 329.0776,482.4635 327.3576,482.4635 L36.6276,482.4635 C34.9076,482.4635 33.4996,483.8705 33.4996,485.5905 C33.4996,487.3115 34.9076,488.7185 36.6276,488.7185" id="Fill-32" fill="#FF505E"></path>
                    <mask id="mask-2" fill="white">
                        <use xlink:href="#path-1"></use>
                    </mask>
                    <g id="Clip-35"></g>
                    <polygon id="Fill-34" fill="#FFFFFF" mask="url(#mask-2)" points="452.552 368.651 1088.611 368.651 1088.611 275.96 452.552 275.96"></polygon>
                    <polygon id="Fill-36" fill="#ECE3D2" mask="url(#mask-2)" points="452.552 384.005 1088.611 384.005 1088.611 368.651 452.552 368.651"></polygon>
                    <polygon id="Fill-37" fill="#ECE3D2" mask="url(#mask-2)" points="452.552 283.637 1088.611 283.637 1088.611 268.283 452.552 268.283"></polygon>
                    <polygon id="Fill-38" fill="#7F9DA9" mask="url(#mask-2)" points="1059.361 474.887 1490.623 474.887 1490.623 443.389 1059.361 443.389"></polygon>
                    <polygon id="Fill-39" fill="#FFFFFF" mask="url(#mask-2)" points="1045.6545 384.0049 1031.9485 384.0049 1018.2425 384.0049 522.9215 384.0049 509.2155 384.0049 495.5095 384.0049 481.8025 384.0049 481.8025 411.4169 481.8025 688.0099 495.5095 688.0099 509.2155 688.0099 522.9215 688.0099 522.9215 411.4169 1018.2425 411.4169 1018.2425 688.0099 1031.9485 688.0099 1045.6545 688.0099 1059.3605 688.0099 1059.3605 411.4169 1059.3605 384.0049"></polygon>
                    <path d="M770.5818,96.268 L770.5818,96.268 C806.6028,96.268 835.8028,125.468 835.8028,161.489 L835.8028,248.399 L705.3608,248.399 L705.3608,161.489 C705.3608,125.468 734.5608,96.268 770.5818,96.268" id="Fill-40" fill="#7C5C87" mask="url(#mask-2)"></path>
                    <polygon id="Fill-41" fill="#7C5C87" mask="url(#mask-2)" points="332.659 280.319 421.479 280.319 421.479 191.499 332.659 191.499"></polygon>
                    <polygon id="Fill-42" fill="#7C5C87" mask="url(#mask-2)" points="332.659 154.325 421.479 154.325 421.479 65.505 332.659 65.505"></polygon>
                    <polygon id="Fill-43" fill="#7C5C87" mask="url(#mask-2)" points="202.824 280.319 291.644 280.319 291.644 191.499 202.824 191.499"></polygon>
                    <polygon id="Fill-44" fill="#7C5C87" mask="url(#mask-2)" points="202.824 154.325 291.644 154.325 291.644 65.505 202.824 65.505"></polygon>
                    <polygon id="Fill-45" fill="#7C5C87" mask="url(#mask-2)" points="11.675 280.319 100.495 280.319 100.495 191.499 11.675 191.499"></polygon>
                    <polygon id="Fill-46" fill="#7C5C87" mask="url(#mask-2)" points="11.675 154.325 100.495 154.325 100.495 65.505 11.675 65.505"></polygon>
                    <path d="M41.7899,0.9114 L136.7009,0.9114 C141.8109,0.9114 145.9919,5.0924 145.9919,10.2024 L145.9919,282.6064 C145.9919,287.7164 141.8109,291.8964 136.7009,291.8964 L41.7899,291.8964 C36.6799,291.8964 32.4989,287.7164 32.4989,282.6064 L32.4989,10.2024 C32.4989,5.0924 36.6799,0.9114 41.7899,0.9114" id="Fill-47" fill="#F292A5" mask="url(#mask-2)"></path>
                    <path d="M55.3947,13.8823 L123.0967,13.8823 C128.2067,13.8823 132.3867,18.0633 132.3867,23.1733 L132.3867,269.6353 C132.3867,274.7453 128.2067,278.9263 123.0967,278.9263 L55.3947,278.9263 C50.2847,278.9263 46.1037,274.7453 46.1037,269.6353 L46.1037,23.1733 C46.1037,18.0633 50.2847,13.8823 55.3947,13.8823 L55.3947,13.8823 Z" id="Stroke-48" stroke="#FF505E" stroke-width="6" mask="url(#mask-2)"></path>
                    <path d="M98.5048,258.8986 L79.9858,258.8986 C73.9168,258.8986 68.9968,253.9786 68.9968,247.9086 L68.9968,44.8996 C68.9968,38.8306 73.9168,33.9096 79.9858,33.9096 L98.5048,33.9096 C104.5738,33.9096 109.4948,38.8306 109.4948,44.8996 L109.4948,247.9086 C109.4948,253.9786 104.5738,258.8986 98.5048,258.8986" id="Fill-49" fill="#FFFFFF" mask="url(#mask-2)"></path>
                    <path d="M141.6227,724.8887 C141.6227,717.7817 147.3847,712.0197 154.4917,712.0197 C161.6007,712.0197 167.3617,717.7817 167.3617,724.8887 L141.6227,724.8887 Z" id="Fill-50" fill="#8F8F85" mask="url(#mask-2)"></path>
                    <path d="M351.3299,770.3503 C351.3299,763.2433 357.0919,757.4813 364.1989,757.4813 C371.3069,757.4813 377.0689,763.2433 377.0689,770.3503 L351.3299,770.3503 Z" id="Fill-51" fill="#8F8F85" mask="url(#mask-2)"></path>
                    <path d="M827.4911,763.9157 C827.4911,756.8087 833.2531,751.0467 840.3601,751.0467 C847.4681,751.0467 853.2301,756.8087 853.2301,763.9157 L827.4911,763.9157 Z" id="Fill-52" fill="#FFFFFF" mask="url(#mask-2)"></path>
                    <path d="M1310.4911,724.8887 C1310.4911,717.7817 1316.2531,712.0197 1323.3601,712.0197 C1330.4691,712.0197 1336.2301,717.7817 1336.2301,724.8887 L1310.4911,724.8887 Z" id="Fill-53" fill="#8F8F85" mask="url(#mask-2)"></path>
                    <path d="M1399.6215,743.1328 C1399.6215,736.0258 1405.3835,730.2638 1412.4905,730.2638 C1419.5985,730.2638 1425.3605,736.0258 1425.3605,743.1328 L1399.6215,743.1328 Z" id="Fill-54" fill="#FFFFFF" mask="url(#mask-2)"></path>
                </g>
            </g>
        </g>
    </g>
</svg>