<?xml version="1.0" encoding="UTF-8" standalone="no"?>
<svg width="1440px" height="752px" viewBox="0 0 1440 752" version="1.1" xmlns="http://www.w3.org/2000/svg" xmlns:xlink="http://www.w3.org/1999/xlink">
    <!-- Generator: Sketch 39.1 (31720) - http://www.bohemiancoding.com/sketch -->
    <title>orpheum-piano</title>
    <desc>Created with Sketch.</desc>
    <defs>
        <path d="M16.574,66.5872 L16.574,15.81 C16.574,7.43 9.782,0.638 1.403,0.638 L0.9353,0.638 L0.9353,66.5872 L16.574,66.5872 L16.574,66.5872 Z" id="path-1"></path>
    </defs>
    <g id="Page-1" stroke="none" stroke-width="1" fill="none" fill-rule="evenodd">
        <g id="orpheum-piano">
            <g id="Page-1" transform="translate(474.000000, 493.000000)">
                <g id="Group-7" transform="translate(0.000000, 0.717000)">
                    <path d="M460.5743,15.8096 C460.5743,7.4306 453.7813,0.6376 445.4033,0.6376 L45.7953,0.6376 C37.4153,0.6376 30.6233,7.4306 30.6233,15.8096 L30.6233,76.2086 L460.5743,76.2086 L460.5743,15.8096 Z" id="Fill-1" fill="#2A5C70"></path>
                    <path d="M447.8827,76.2866 L43.8047,76.2866 L43.8047,24.7346 C43.8047,17.5826 50.1887,11.7856 58.0637,11.7856 L433.6247,11.7856 C441.4987,11.7856 447.8827,17.5826 447.8827,24.7346 L447.8827,76.2866 Z M437.4567,7.7996 L54.2317,7.7996 C46.1957,7.7996 39.6817,14.3136 39.6817,22.3496 L39.6817,80.2726 L452.0057,80.2726 L452.0057,22.3496 C452.0057,14.3136 445.4917,7.7996 437.4567,7.7996 L437.4567,7.7996 Z" id="Fill-3" fill="#FF505E"></path>
                    <path d="M491.5713,191.9336 C491.5713,185.2136 486.1233,179.7666 479.4053,179.7666 L12.1673,179.7666 C5.4473,179.7666 0.0003,185.2136 0.0003,191.9336 C0.0003,198.6526 5.4473,204.0996 12.1673,204.0996 L479.4053,204.0996 C486.1233,204.0996 491.5713,198.6526 491.5713,191.9336" id="Fill-5" fill="#B2B2A8"></path>
                </g>
                <g id="Group-10" transform="translate(444.000000, 0.717000)">
                    <mask id="mask-2" fill="white">
                        <use xlink:href="#path-1"></use>
                    </mask>
                    <g id="Clip-9"></g>
                    <polygon id="Fill-8" fill="#F47739" mask="url(#mask-2)" points="101.2383 60.1172 94.7693 66.5872 0.9353 -27.2448 7.4053 -33.7168"></polygon>
                </g>
                <g id="Group-49" transform="translate(10.000000, 12.717000)">
                    <polygon id="Fill-11" fill="#2A5C70" points="20.623 179.933 450.574 179.933 450.574 92.709 20.623 92.709"></polygon>
                    <polygon id="Fill-13" fill="#DDDDDD" points="20.623 98.193 450.574 98.193 450.574 76.586 20.623 76.586"></polygon>
                    <polygon id="Fill-14" fill="#DDDDDD" points="6.042 179.933 29.437 179.933 29.437 65.054 6.042 65.054"></polygon>
                    <polygon id="Fill-15" fill="#DDDDDD" points="441.761 179.933 465.154 179.933 465.154 65.054 441.761 65.054"></polygon>
                    <path d="M411.0646,62.586 L63.4116,62.586 C56.1356,62.586 50.2376,56.688 50.2376,49.413 L50.2376,24.248 C50.2376,16.972 56.1356,11.074 63.4116,11.074 L411.0646,11.074 C418.3396,11.074 424.2376,16.972 424.2376,24.248 L424.2376,49.413 C424.2376,56.688 418.3396,62.586 411.0646,62.586" id="Fill-16" fill="#F292A5"></path>
                    <path d="M417.6143,233.834 C417.6143,227.114 412.1673,221.667 405.4483,221.667 L65.7503,221.667 C59.0303,221.667 53.5833,227.114 53.5833,233.834 C53.5833,240.553 59.0303,246 65.7503,246 L405.4483,246 C412.1673,246 417.6143,240.553 417.6143,233.834" id="Fill-17" fill="#B2B2A8"></path>
                    <polygon id="Fill-18" fill="#FFFFFF" points="68.798 187.223 402.398 187.223 402.398 151.8 68.798 151.8"></polygon>
                    <polygon id="Fill-19" fill="#FFFFFF" points="68.799 233.834 89.469 233.834 89.469 160.225 68.799 160.225"></polygon>
                    <polygon id="Fill-20" fill="#FFFFFF" points="381.728 233.834 402.398 233.834 402.398 160.225 381.728 160.225"></polygon>
                    <path d="M409.8985,141.1807 C409.8985,139.0487 408.1705,137.3217 406.0395,137.3217 L65.1575,137.3217 C63.0265,137.3217 61.2985,139.0487 61.2985,141.1807 L61.2985,162.4187 C61.2985,164.5507 63.0265,166.2787 65.1575,166.2787 L406.0395,166.2787 C408.1705,166.2787 409.8985,164.5507 409.8985,162.4187 L409.8985,141.1807 Z" id="Fill-21" fill="#FFC64A"></path>
                    <polygon id="Fill-22" fill="#FFFFFF" points="260.586 52.093 296.919 52.093 296.919 8.542 260.586 8.542"></polygon>
                    <polygon id="Fill-23" fill="#323232" points="264.169 15.075 293.336 15.075 293.336 12.225 264.169 12.225"></polygon>
                    <polygon id="Fill-24" fill="#323232" points="264.169 20.728 293.336 20.728 293.336 17.879 264.169 17.879"></polygon>
                    <polygon id="Fill-25" fill="#323232" points="264.169 26.382 293.336 26.382 293.336 23.533 264.169 23.533"></polygon>
                    <polygon id="Fill-26" fill="#323232" points="264.169 32.037 293.336 32.037 293.336 29.187 264.169 29.187"></polygon>
                    <polygon id="Fill-27" fill="#323232" points="264.169 37.691 293.336 37.691 293.336 34.841 264.169 34.841"></polygon>
                    <polygon id="Fill-28" fill="#323232" points="264.169 43.344 293.336 43.344 293.336 40.495 264.169 40.495"></polygon>
                    <polygon id="Fill-29" fill="#323232" points="264.169 48.998 293.336 48.998 293.336 46.149 264.169 46.149"></polygon>
                    <polygon id="Fill-30" fill="#FFFFFF" points="217.432 44.304 253.765 44.304 253.765 0.753 217.432 0.753"></polygon>
                    <polygon id="Fill-31" fill="#323232" points="221.015 7.286 250.182 7.286 250.182 4.436 221.015 4.436"></polygon>
                    <polygon id="Fill-32" fill="#323232" points="221.015 12.939 250.182 12.939 250.182 10.09 221.015 10.09"></polygon>
                    <polygon id="Fill-33" fill="#323232" points="221.015 18.593 250.182 18.593 250.182 15.744 221.015 15.744"></polygon>
                    <polygon id="Fill-34" fill="#323232" points="221.015 24.248 250.182 24.248 250.182 21.398 221.015 21.398"></polygon>
                    <polygon id="Fill-35" fill="#323232" points="221.015 29.902 250.182 29.902 250.182 27.052 221.015 27.052"></polygon>
                    <polygon id="Fill-36" fill="#323232" points="221.015 35.555 250.182 35.555 250.182 32.706 221.015 32.706"></polygon>
                    <polygon id="Fill-37" fill="#323232" points="221.015 41.209 250.182 41.209 250.182 38.36 221.015 38.36"></polygon>
                    <polygon id="Fill-38" fill="#FFFFFF" points="171.586 44.304 207.919 44.304 207.919 0.753 171.586 0.753"></polygon>
                    <polygon id="Fill-39" fill="#323232" points="175.169 7.286 204.336 7.286 204.336 4.436 175.169 4.436"></polygon>
                    <polygon id="Fill-40" fill="#323232" points="175.169 12.939 204.336 12.939 204.336 10.09 175.169 10.09"></polygon>
                    <polygon id="Fill-41" fill="#323232" points="175.169 18.593 204.336 18.593 204.336 15.744 175.169 15.744"></polygon>
                    <polygon id="Fill-42" fill="#323232" points="175.169 24.248 204.336 24.248 204.336 21.398 175.169 21.398"></polygon>
                    <polygon id="Fill-43" fill="#323232" points="175.169 29.902 204.336 29.902 204.336 27.052 175.169 27.052"></polygon>
                    <polygon id="Fill-44" fill="#323232" points="175.169 35.555 204.336 35.555 204.336 32.706 175.169 32.706"></polygon>
                    <polygon id="Fill-45" fill="#323232" points="175.169 41.209 204.336 41.209 204.336 38.36 175.169 38.36"></polygon>
                    <path d="M471.087,48.1631 C471.087,46.0311 469.359,44.3041 467.228,44.3041 L3.97,44.3041 C1.838,44.3041 0.11,46.0311 0.11,48.1631 L0.11,72.7261 C0.11,74.8581 1.838,76.5861 3.97,76.5861 L466.836,76.5861 C469.184,76.5861 471.087,74.6831 471.087,72.3341 L471.087,48.1631 Z" id="Fill-46" fill="#DDDDDD"></path>
                    <path d="M432.5987,66.585 L37.0887,66.585 L37.0887,62.163 C37.0887,60.031 38.8167,58.304 40.9487,58.304 L428.7397,58.304 C430.8707,58.304 432.5987,60.031 432.5987,62.163 L432.5987,66.585 Z" id="Fill-47" fill="#000000"></path>
                    <path d="M447.0889,70.502 C447.0889,68.34 445.3609,66.586 443.2299,66.586 L26.4569,66.586 C24.3259,66.586 22.5989,68.34 22.5989,70.502 L22.5989,76.586 L447.0889,76.586 L447.0889,70.502 Z" id="Fill-48" fill="#FFFFFF"></path>
                </g>
            </g>
        </g>
    </g>
</svg>