<?xml version="1.0" encoding="UTF-8" standalone="no"?>
<svg width="1440px" height="752px" viewBox="0 0 1440 752" version="1.1" xmlns="http://www.w3.org/2000/svg" xmlns:xlink="http://www.w3.org/1999/xlink" xmlns:sketch="http://www.bohemiancoding.com/sketch/ns">
    <!-- Generator: Sketch 3.3.2 (12043) - http://www.bohemiancoding.com/sketch -->
    <title>phantom-blue-piano</title>
    <desc>Created with Sketch.</desc>
    <defs></defs>
    <g id="Page-1" stroke="none" stroke-width="1" fill="none" fill-rule="evenodd" sketch:type="MSPage">
        <g id="phantom-blue-piano" sketch:type="MSArtboardGroup">
            <path d="M900.64538,719.117244 C900.64538,712.379396 895.186037,706.917928 888.454051,706.917928 L548.048838,706.917928 C541.314848,706.917928 535.855506,712.379396 535.855506,719.117244 C535.855506,725.85409 541.314848,731.31656 548.048838,731.31656 L888.454051,731.31656 C895.186037,731.31656 900.64538,725.85409 900.64538,719.117244" id="Fill-77" fill="#C7C7C4" sketch:type="MSShapeGroup"></path>
            <path d="M967.923153,665.14427 C967.923153,658.406421 962.464813,652.944954 955.729821,652.944954 L485.104067,652.944954 C478.369074,652.944954 472.910734,658.406421 472.910734,665.14427 C472.910734,671.881116 478.369074,677.342583 485.104067,677.342583 L955.729821,677.342583 C962.464813,677.342583 967.923153,671.881116 967.923153,665.14427" id="Fill-78" fill="#C7C7C4" sketch:type="MSShapeGroup"></path>
            <path d="M934.596916,488.147404 C934.596916,479.746149 927.790776,472.935106 919.394332,472.935106 L518.954393,472.935106 C510.556947,472.935106 503.750806,479.746149 503.750806,488.147404 L503.750806,548.706826 L934.596916,548.706826 L934.596916,488.147404" id="Fill-79" fill="#4B769D" sketch:type="MSShapeGroup"></path>
            <path d="M855.291153,485.082284 L891.698793,485.082284 L891.698793,528.748958 L855.291153,528.748958 L855.291153,485.082284 Z" id="Fill-80" fill="#FFFFFF" sketch:type="MSShapeGroup"></path>
            <path d="M858.880611,488.775066 L888.109335,488.775066 L888.109335,491.632636 L858.880611,491.632636 L858.880611,488.775066 Z" id="Fill-81" fill="#323232" sketch:type="MSShapeGroup"></path>
            <path d="M858.880611,494.444084 L888.109335,494.444084 L888.109335,497.300651 L858.880611,497.300651 L858.880611,494.444084 Z" id="Fill-82" fill="#323232" sketch:type="MSShapeGroup"></path>
            <path d="M858.880611,500.113101 L888.109335,500.113101 L888.109335,502.969668 L858.880611,502.969668 L858.880611,500.113101 Z" id="Fill-83" fill="#323232" sketch:type="MSShapeGroup"></path>
            <path d="M858.880611,505.782118 L888.109335,505.782118 L888.109335,508.639688 L858.880611,508.639688 L858.880611,505.782118 Z" id="Fill-84" fill="#323232" sketch:type="MSShapeGroup"></path>
            <path d="M858.880611,511.451135 L888.109335,511.451135 L888.109335,514.308705 L858.880611,514.308705 L858.880611,511.451135 Z" id="Fill-85" fill="#323232" sketch:type="MSShapeGroup"></path>
            <path d="M858.880611,517.120153 L888.109335,517.120153 L888.109335,519.97672 L858.880611,519.97672 L858.880611,517.120153 Z" id="Fill-86" fill="#323232" sketch:type="MSShapeGroup"></path>
            <path d="M858.880611,522.78917 L888.109335,522.78917 L888.109335,525.645737 L858.880611,525.645737 L858.880611,522.78917 Z" id="Fill-87" fill="#323232" sketch:type="MSShapeGroup"></path>
            <path d="M503.750806,582.781089 L934.596916,582.781089 L934.596916,664.737191 L503.750806,664.737191 L503.750806,582.781089 Z" id="Fill-88" fill="#163F63" sketch:type="MSShapeGroup"></path>
            <path d="M503.750806,561.1167 L934.596916,561.1167 L934.596916,582.781089 L503.750806,582.781089 L503.750806,561.1167 Z" id="Fill-89" fill="#4B769D" sketch:type="MSShapeGroup"></path>
            <path d="M489.13945,549.55407 L512.583156,549.55407 L512.583156,664.738194 L489.13945,664.738194 L489.13945,549.55407 Z" id="Fill-90" fill="#4B769D" sketch:type="MSShapeGroup"></path>
            <path d="M925.765568,549.55407 L949.20727,549.55407 L949.20727,664.738194 L925.765568,664.738194 L925.765568,549.55407 Z" id="Fill-91" fill="#4B769D" sketch:type="MSShapeGroup"></path>
            <path d="M955.152622,532.618207 C955.152622,530.480544 953.422026,528.748958 951.285588,528.748958 L487.063137,528.748958 C484.926698,528.748958 483.196103,530.480544 483.196103,532.618207 L483.196103,557.24745 C483.196103,559.38411 484.926698,561.1167 487.063137,561.1167 L950.89177,561.1167 C953.24566,561.1167 955.152622,559.208645 955.152622,556.853406 L955.152622,532.618207" id="Fill-92" fill="#235F8D" sketch:type="MSShapeGroup"></path>
            <path d="M916.584494,551.089137 L520.251087,551.089137 L520.251087,546.655392 C520.251087,544.517729 521.982684,542.786142 524.119123,542.786142 L912.71746,542.786142 C914.852897,542.786142 916.584494,544.517729 916.584494,546.655392 L916.584494,551.089137" id="Fill-93" fill="#000000" sketch:type="MSShapeGroup"></path>
            <path d="M931.104661,555.016541 C931.104661,552.848798 929.373063,551.090139 927.237627,551.090139 L509.597954,551.090139 C507.462518,551.090139 505.73092,552.848798 505.73092,555.016541 L505.73092,561.1167 L931.104661,561.1167 L931.104661,555.016541" id="Fill-94" fill="#FFFFFF" sketch:type="MSShapeGroup"></path>
            <path d="M552.027103,636.530471 L886.321621,636.530471 L886.321621,672.047556 L552.027103,672.047556 L552.027103,636.530471 Z" id="Fill-95" fill="#4B769D" sketch:type="MSShapeGroup"></path>
            <path d="M552.027103,644.977849 L572.740136,644.977849 L572.740136,718.782357 L552.027103,718.782357 L552.027103,644.977849 Z" id="Fill-96" fill="#4B769D" sketch:type="MSShapeGroup"></path>
            <path d="M865.608588,644.977849 L886.321621,644.977849 L886.321621,718.782357 L865.608588,718.782357 L865.608588,644.977849 Z" id="Fill-97" fill="#4B769D" sketch:type="MSShapeGroup"></path>
            <path d="M893.837235,625.883267 C893.837235,623.745604 892.105638,622.013015 889.969199,622.013015 L548.378523,622.013015 C546.243087,622.013015 544.511489,623.745604 544.511489,625.883267 L544.511489,647.177676 C544.511489,649.315339 546.243087,651.046926 548.378523,651.046926 L889.969199,651.046926 C892.105638,651.046926 893.837235,649.315339 893.837235,647.177676 L893.837235,625.883267" id="Fill-98" fill="#235F8D" sketch:type="MSShapeGroup"></path>
        </g>
    </g>
</svg>