<?xml version="1.0" encoding="UTF-8" standalone="no"?>
<svg width="1440px" height="752px" viewBox="0 0 1440 752" version="1.1" xmlns="http://www.w3.org/2000/svg" xmlns:xlink="http://www.w3.org/1999/xlink" xmlns:sketch="http://www.bohemiancoding.com/sketch/ns">
    <!-- Generator: Sketch 3.3.2 (12043) - http://www.bohemiancoding.com/sketch -->
    <title>phantom-piano</title>
    <desc>Created with Sketch.</desc>
    <defs></defs>
    <g id="Page-1" stroke="none" stroke-width="1" fill="none" fill-rule="evenodd" sketch:type="MSPage">
        <g id="phantom-piano" sketch:type="MSArtboardGroup">
            <path d="M889.026259,707.775925 L547.934199,707.775925 C541.186602,707.775925 535.717232,713.24401 535.717232,719.991027 C535.717232,726.73704 541.186602,732.205125 547.934199,732.205125 L889.026259,732.205125 C895.773856,732.205125 901.243226,726.73704 901.243226,719.991027 C901.243226,713.24401 895.773856,707.775925 889.026259,707.775925" id="Fill-98" fill="#888888" sketch:type="MSShapeGroup"></path>
            <path d="M956.438975,653.738555 L484.861232,653.738555 C478.113634,653.738555 472.643261,659.20664 472.643261,665.952653 C472.643261,672.697662 478.113634,678.165747 484.861232,678.165747 L956.438975,678.165747 C963.187577,678.165747 968.656947,672.697662 968.656947,665.952653 C968.656947,659.20664 963.187577,653.738555 956.438975,653.738555" id="Fill-99" fill="#888888" sketch:type="MSShapeGroup"></path>
            <path d="M935.263368,488.741319 C935.263368,480.329884 928.44247,473.510588 920.030064,473.510588 L518.779959,473.510588 C510.366548,473.510588 503.546655,480.329884 503.546655,488.741319 L503.546655,549.374121 L935.263368,549.374121 L935.263368,488.741319" id="Fill-100" fill="#B73F13" sketch:type="MSShapeGroup"></path>
            <path d="M622.676895,485.672485 L659.159107,485.672485 L659.159107,529.39207 L622.676895,529.39207 L622.676895,485.672485 Z" id="Fill-101" fill="#FFFFFF" sketch:type="MSShapeGroup"></path>
            <path d="M626.273606,489.369742 L655.560388,489.369742 L655.560388,492.230774 L626.273606,492.230774 L626.273606,489.369742 Z" id="Fill-102" fill="#323232" sketch:type="MSShapeGroup"></path>
            <path d="M626.273606,495.045628 L655.560388,495.045628 L655.560388,497.905657 L626.273606,497.905657 L626.273606,495.045628 Z" id="Fill-103" fill="#323232" sketch:type="MSShapeGroup"></path>
            <path d="M626.273606,500.721515 L655.560388,500.721515 L655.560388,503.581543 L626.273606,503.581543 L626.273606,500.721515 Z" id="Fill-104" fill="#323232" sketch:type="MSShapeGroup"></path>
            <path d="M626.273606,506.397401 L655.560388,506.397401 L655.560388,509.258434 L626.273606,509.258434 L626.273606,506.397401 Z" id="Fill-105" fill="#323232" sketch:type="MSShapeGroup"></path>
            <path d="M626.273606,512.073288 L655.560388,512.073288 L655.560388,514.93432 L626.273606,514.93432 L626.273606,512.073288 Z" id="Fill-106" fill="#323232" sketch:type="MSShapeGroup"></path>
            <path d="M626.273606,517.749174 L655.560388,517.749174 L655.560388,520.609203 L626.273606,520.609203 L626.273606,517.749174 Z" id="Fill-107" fill="#323232" sketch:type="MSShapeGroup"></path>
            <path d="M626.273606,523.425061 L655.560388,523.425061 L655.560388,526.285089 L626.273606,526.285089 L626.273606,523.425061 Z" id="Fill-108" fill="#323232" sketch:type="MSShapeGroup"></path>
            <path d="M503.546655,583.489672 L935.263368,583.489672 L935.263368,665.545081 L503.546655,665.545081 L503.546655,583.489672 Z" id="Fill-109" fill="#B73F13" sketch:type="MSShapeGroup"></path>
            <path d="M503.546655,561.799032 L935.263368,561.799032 L935.263368,583.489672 L503.546655,583.489672 L503.546655,561.799032 Z" id="Fill-110" fill="#F4541A" sketch:type="MSShapeGroup"></path>
            <path d="M488.905774,550.222392 L512.396852,550.222392 L512.396852,665.546085 L488.905774,665.546085 L488.905774,550.222392 Z" id="Fill-111" fill="#F4541A" sketch:type="MSShapeGroup"></path>
            <path d="M926.414175,550.222392 L949.903244,550.222392 L949.903244,665.546085 L926.414175,665.546085 L926.414175,550.222392 Z" id="Fill-112" fill="#F4541A" sketch:type="MSShapeGroup"></path>
            <path d="M955.86061,533.266008 C955.86061,531.125755 954.125513,529.39207 951.984758,529.39207 L486.824261,529.39207 C484.684509,529.39207 482.949413,531.125755 482.949413,533.266008 L482.949413,557.925094 C482.949413,560.065347 484.684509,561.799032 486.824261,561.799032 L951.591148,561.799032 C953.949795,561.799032 955.86061,559.888666 955.86061,557.530573 L955.86061,533.266008" id="Fill-113" fill="#F4541A" sketch:type="MSShapeGroup"></path>
            <path d="M917.214548,551.759319 L520.080277,551.759319 L520.080277,547.320201 C520.080277,545.179948 521.815374,543.446263 523.955125,543.446263 L913.338696,543.446263 C915.478448,543.446263 917.214548,545.179948 917.214548,547.320201 L917.214548,551.759319" id="Fill-114" fill="#000000" sketch:type="MSShapeGroup"></path>
            <path d="M931.764055,555.691481 C931.764055,553.521112 930.028959,551.760323 927.889207,551.760323 L509.404614,551.760323 C507.265867,551.760323 505.529766,553.521112 505.529766,555.691481 L505.529766,561.799032 L931.764055,561.799032 L931.764055,555.691481" id="Fill-115" fill="#FFFFFF" sketch:type="MSShapeGroup"></path>
            <path d="M551.920503,637.304183 L886.890524,637.304183 L886.890524,672.864305 L551.920503,672.864305 L551.920503,637.304183 Z" id="Fill-116" fill="#F4541A" sketch:type="MSShapeGroup"></path>
            <path d="M551.920503,645.761796 L572.67539,645.761796 L572.67539,719.655734 L551.920503,719.655734 L551.920503,645.761796 Z" id="Fill-117" fill="#F4541A" sketch:type="MSShapeGroup"></path>
            <path d="M866.134632,645.761796 L886.88952,645.761796 L886.88952,719.655734 L866.134632,719.655734 L866.134632,645.761796 Z" id="Fill-118" fill="#F4541A" sketch:type="MSShapeGroup"></path>
            <path d="M894.42032,626.644077 C894.42032,624.503825 892.685224,622.769135 890.545472,622.769135 L548.26455,622.769135 C546.124799,622.769135 544.389702,624.503825 544.389702,626.644077 L544.389702,647.964289 C544.389702,650.104542 546.124799,651.838227 548.26455,651.838227 L890.545472,651.838227 C892.685224,651.838227 894.42032,650.104542 894.42032,647.964289 L894.42032,626.644077" id="Fill-119" fill="#FFFFFF" sketch:type="MSShapeGroup"></path>
        </g>
    </g>
</svg>