<?xml version="1.0" encoding="UTF-8" standalone="no"?>
<svg width="1440px" height="752px" viewBox="0 0 1440 752" version="1.1" xmlns="http://www.w3.org/2000/svg" xmlns:xlink="http://www.w3.org/1999/xlink" xmlns:sketch="http://www.bohemiancoding.com/sketch/ns">
    <!-- Generator: Sketch 3.3.2 (12043) - http://www.bohemiancoding.com/sketch -->
    <title>random-park</title>
    <desc>Created with Sketch.</desc>
    <defs></defs>
    <g id="Page-1" stroke="none" stroke-width="1" fill="none" fill-rule="evenodd" sketch:type="MSPage">
        <g id="random-park" sketch:type="MSArtboardGroup">
            <g id="Imported-Layers" sketch:type="MSLayerGroup">
                <path d="M0,0 L1440,0 L1440,664.629 L0,664.629 L0,0 Z" id="Fill-1" fill="#28D2FF" sketch:type="MSShapeGroup"></path>
                <path d="M307.155,649.63 C307.155,627.263 325.287,609.131 347.654,609.131 C370.021,609.131 388.153,627.263 388.153,649.63 C388.153,671.997 370.021,690.129 347.654,690.129 C325.287,690.129 307.155,671.997 307.155,649.63" id="Fill-2" fill="#3B9F86" sketch:type="MSShapeGroup"></path>
                <path d="M229.159,649.63 C229.159,627.263 247.291,609.131 269.658,609.131 C292.025,609.131 310.157,627.263 310.157,649.63 C310.157,671.997 292.025,690.129 269.658,690.129 C247.291,690.129 229.159,671.997 229.159,649.63" id="Fill-3" fill="#3B9F86" sketch:type="MSShapeGroup"></path>
                <path d="M286.156,594.133 C286.156,571.766 304.288,553.634 326.655,553.634 C349.023,553.634 367.154,571.766 367.154,594.133 C367.154,616.5 349.023,634.632 326.655,634.632 C304.288,634.632 286.156,616.5 286.156,594.133" id="Fill-4" fill="#3B9F86" sketch:type="MSShapeGroup"></path>
                <path d="M254.668,634.632 C254.668,612.265 272.799,594.133 295.167,594.133 C317.534,594.133 335.666,612.265 335.666,634.632 C335.666,656.999 317.534,675.131 295.167,675.131 C272.799,675.131 254.668,656.999 254.668,634.632" id="Fill-5" fill="#3B9F86" sketch:type="MSShapeGroup"></path>
                <path d="M166.163,634.632 C166.163,612.265 184.294,594.133 206.662,594.133 C229.029,594.133 247.161,612.265 247.161,634.632 C247.161,656.999 229.029,675.131 206.662,675.131 C184.294,675.131 166.163,656.999 166.163,634.632" id="Fill-6" fill="#3B9F86" sketch:type="MSShapeGroup"></path>
                <path d="M74.667,624.133 C74.667,590.996 101.529,564.135 134.666,564.135 C167.802,564.135 194.664,590.996 194.664,624.133 C194.664,657.268 167.802,684.13 134.666,684.13 C101.529,684.13 74.667,657.268 74.667,624.133" id="Fill-7" fill="#3B9F86" sketch:type="MSShapeGroup"></path>
                <path d="M80.979,476.898 C80.979,443.105 108.373,415.71 142.167,415.71 C175.96,415.71 203.355,443.105 203.355,476.898 C203.355,510.692 175.96,538.086 142.167,538.086 C108.373,538.086 80.979,510.692 80.979,476.898" id="Fill-8" fill="#3B9F86" sketch:type="MSShapeGroup"></path>
                <path d="M73.577,543.134 C73.577,511.051 99.584,485.044 131.667,485.044 C163.75,485.044 189.757,511.051 189.757,543.134 C189.757,575.217 163.75,601.224 131.667,601.224 C99.584,601.224 73.577,575.217 73.577,543.134" id="Fill-9" fill="#3B9F86" sketch:type="MSShapeGroup"></path>
                <path d="M167.438,556.208 C167.438,516.797 199.387,484.849 238.797,484.849 C278.208,484.849 310.157,516.797 310.157,556.208 C310.157,595.619 278.208,627.567 238.797,627.567 C199.387,627.567 167.438,595.619 167.438,556.208" id="Fill-10" fill="#3B9F86" sketch:type="MSShapeGroup"></path>
                <path d="M0.07,394.592 C0.07,358.366 29.437,329 65.662,329 C101.888,329 131.254,358.366 131.254,394.592 C131.254,430.817 101.888,460.183 65.662,460.183 C29.437,460.183 0.07,430.817 0.07,394.592" id="Fill-11" fill="#3B9F86" sketch:type="MSShapeGroup"></path>
                <path d="M0.07,394.592 L103.786,394.592 L103.786,670.628 L0.07,670.628 L0.07,394.592 Z" id="Fill-12" fill="#3B9F86" sketch:type="MSShapeGroup"></path>
                <path d="M57.93,553.925 C57.93,537.928 44.962,524.96 28.965,524.96 C12.968,524.96 0,537.928 0,553.925 C0,569.922 12.968,582.89 28.965,582.89 C44.962,582.89 57.93,569.922 57.93,553.925" id="Fill-13" fill="#3B8186" sketch:type="MSShapeGroup"></path>
                <path d="M0,553.925 L57.93,553.925 L57.93,664.224 L0,664.224 L0,553.925 Z" id="Fill-14" fill="#3B8186" sketch:type="MSShapeGroup"></path>
                <path d="M124.43,575.892 C124.43,596.705 107.558,613.577 86.745,613.577 C65.933,613.577 49.061,596.705 49.061,575.892 C49.061,555.08 65.933,538.208 86.745,538.208 C107.558,538.208 124.43,555.08 124.43,575.892" id="Fill-15" fill="#3B8186" sketch:type="MSShapeGroup"></path>
                <path d="M151.665,617.373 C151.665,631.585 140.144,643.106 125.932,643.106 C111.72,643.106 100.199,631.585 100.199,617.373 C100.199,603.161 111.72,591.64 125.932,591.64 C140.144,591.64 151.665,603.161 151.665,617.373" id="Fill-16" fill="#3B8186" sketch:type="MSShapeGroup"></path>
                <path d="M174.338,650.87 C174.338,662.9 164.586,672.653 152.556,672.653 C140.525,672.653 130.773,662.9 130.773,650.87 C130.773,638.84 140.525,629.087 152.556,629.087 C164.586,629.087 174.338,638.84 174.338,650.87" id="Fill-17" fill="#3B8186" sketch:type="MSShapeGroup"></path>
                <path d="M40.93,634.632 L152.556,634.632 L152.556,663.945 L40.93,663.945 L40.93,634.632 Z" id="Fill-18" fill="#3B8186" sketch:type="MSShapeGroup"></path>
                <path d="M40.93,601.224 L119.93,601.224 L119.93,642 L40.93,642 L40.93,601.224 Z" id="Fill-19" fill="#3B8186" sketch:type="MSShapeGroup"></path>
                <path d="M174.409,650.87 C174.409,662.9 164.656,672.653 152.626,672.653 C140.596,672.653 130.843,662.9 130.843,650.87 C130.843,638.84 140.596,629.087 152.626,629.087 C164.656,629.087 174.409,638.84 174.409,650.87" id="Fill-20" fill="#3B8186" sketch:type="MSShapeGroup"></path>
                <path d="M0.07,606.36 L44.925,606.36 L44.925,669.909 L0.07,669.909 L0.07,606.36 Z" id="Fill-21" fill="#A9D163" sketch:type="MSShapeGroup"></path>
                <path d="M44.925,606.36 C44.925,618.746 34.883,628.786 22.497,628.786 C10.11,628.786 0.07,618.746 0.07,606.36 C0.07,593.974 10.11,583.932 22.497,583.932 C34.883,583.932 44.925,593.974 44.925,606.36" id="Fill-22" fill="#A9D163" sketch:type="MSShapeGroup"></path>
                <path d="M64.083,629.798 C64.083,636.983 58.258,642.81 51.072,642.81 C43.886,642.81 38.061,636.983 38.061,629.798 C38.061,622.613 43.886,616.786 51.072,616.786 C58.258,616.786 64.083,622.613 64.083,629.798" id="Fill-23" fill="#A9D163" sketch:type="MSShapeGroup"></path>
                <path d="M91.094,658.814 C91.094,673.459 79.222,685.331 64.577,685.331 C49.933,685.331 38.061,673.459 38.061,658.814 C38.061,644.17 49.933,632.297 64.577,632.297 C79.222,632.297 91.094,644.17 91.094,658.814" id="Fill-24" fill="#A9D163" sketch:type="MSShapeGroup"></path>
                <path d="M1181,619.565 C1181,595.04 1161.118,575.159 1136.594,575.159 C1112.068,575.159 1092.187,595.04 1092.187,619.565 C1092.187,644.091 1112.068,663.972 1136.594,663.972 C1161.118,663.972 1181,644.091 1181,619.565" id="Fill-25" fill="#3B9F86" sketch:type="MSShapeGroup"></path>
                <path d="M1110.644,644.534 C1110.644,627.61 1096.925,613.891 1080,613.891 C1063.075,613.891 1049.356,627.61 1049.356,644.534 C1049.356,661.458 1063.075,675.177 1080,675.177 C1096.925,675.177 1110.644,661.458 1110.644,644.534" id="Fill-26" fill="#3B9F86" sketch:type="MSShapeGroup"></path>
                <path d="M1229.153,569.491 C1229.153,546.87 1210.816,528.533 1188.194,528.533 C1165.572,528.533 1147.235,546.87 1147.235,569.491 C1147.235,592.112 1165.572,610.449 1188.194,610.449 C1210.816,610.449 1229.153,592.112 1229.153,569.491" id="Fill-27" fill="#3B9F86" sketch:type="MSShapeGroup"></path>
                <path d="M1300.806,570.295 C1300.806,547.674 1282.469,529.336 1259.847,529.336 C1237.225,529.336 1218.888,547.674 1218.888,570.295 C1218.888,592.916 1237.225,611.253 1259.847,611.253 C1282.469,611.253 1300.806,592.916 1300.806,570.295" id="Fill-28" fill="#3B9F86" sketch:type="MSShapeGroup"></path>
                <path d="M1440.081,529.337 C1440.081,486.119 1405.048,451.084 1361.828,451.084 C1318.607,451.084 1283.574,486.119 1283.574,529.337 C1283.574,572.554 1318.607,607.588 1361.828,607.588 C1405.048,607.588 1440.081,572.554 1440.081,529.337" id="Fill-29" fill="#3B9F86" sketch:type="MSShapeGroup"></path>
                <path d="M1170,564.135 L1440.081,564.135 L1440.081,664.629 L1170,664.629 L1170,564.135 Z" id="Fill-30" fill="#3B9F86" sketch:type="MSShapeGroup"></path>
                <path d="M1083.004,625.631 L1440.081,625.631 L1440.081,685.331 L1083.004,685.331 L1083.004,625.631 Z" id="Fill-31" fill="#3B9F86" sketch:type="MSShapeGroup"></path>
                <path d="M1321.903,664.215 C1321.903,648.717 1309.34,636.154 1293.843,636.154 C1278.346,636.154 1265.782,648.717 1265.782,664.215 C1265.782,679.712 1278.346,692.275 1293.843,692.275 C1309.34,692.275 1321.903,679.712 1321.903,664.215" id="Fill-32" fill="#3B8186" sketch:type="MSShapeGroup"></path>
                <path d="M1363.843,529.337 L1440.081,529.337 L1440.081,623.557 L1363.843,623.557 L1363.843,529.337 Z" id="Fill-33" fill="#3B9F86" sketch:type="MSShapeGroup"></path>
                <path d="M1364.653,624.133 C1364.653,604.014 1348.343,587.704 1328.226,587.704 C1308.107,587.704 1291.797,604.014 1291.797,624.133 C1291.797,644.251 1308.107,660.56 1328.226,660.56 C1348.343,660.56 1364.653,644.251 1364.653,624.133" id="Fill-34" fill="#3B8186" sketch:type="MSShapeGroup"></path>
                <path d="M1380,556.872 L1440.081,556.872 L1440.081,681.32 L1380,681.32 L1380,556.872 Z" id="Fill-35" fill="#3B8186" sketch:type="MSShapeGroup"></path>
                <path d="M1374.13,561.157 C1374.13,542.945 1388.894,528.181 1407.105,528.181 C1425.317,528.181 1440.081,542.945 1440.081,561.157 C1440.081,579.369 1425.317,594.133 1407.105,594.133 C1388.894,594.133 1374.13,579.369 1374.13,561.157" id="Fill-36" fill="#3B8186" sketch:type="MSShapeGroup"></path>
                <path d="M1388.558,588.56 C1388.558,576.961 1379.155,567.56 1367.558,567.56 C1355.96,567.56 1346.558,576.961 1346.558,588.56 C1346.558,600.157 1355.96,609.56 1367.558,609.56 C1379.155,609.56 1388.558,600.157 1388.558,588.56" id="Fill-37" fill="#3B8186" sketch:type="MSShapeGroup"></path>
                <path d="M1317,603.39 L1407.105,603.39 L1407.105,664.629 L1317,664.629 L1317,603.39 Z" id="Fill-38" fill="#3B8186" sketch:type="MSShapeGroup"></path>
                <path d="M1409,642.433 L1440,642.433 L1440,670.627 L1409,670.627 L1409,642.433 Z" id="Fill-39" fill="#A9D163" sketch:type="MSShapeGroup"></path>
                <path d="M1440,642 C1440,650.56 1433.061,657.5 1424.5,657.5 C1415.939,657.5 1409,650.56 1409,642 C1409,633.439 1415.939,626.5 1424.5,626.5 C1433.061,626.5 1440,633.439 1440,642" id="Fill-40" fill="#A9D163" sketch:type="MSShapeGroup"></path>
                <path d="M1361,652.714 C1361,638.354 1372.641,626.714 1387,626.714 C1401.359,626.714 1413,638.354 1413,652.714 C1413,667.073 1401.359,678.714 1387,678.714 C1372.641,678.714 1361,667.073 1361,652.714" id="Fill-41" fill="#A9D163" sketch:type="MSShapeGroup"></path>
                <path d="M1440,437.138 C1440,421.398 1427.24,408.638 1411.5,408.638 C1395.76,408.638 1383,421.398 1383,437.138 C1383,452.878 1395.76,465.638 1411.5,465.638 C1427.24,465.638 1440,452.878 1440,437.138" id="Fill-42" fill="#3B9F86" sketch:type="MSShapeGroup"></path>
                <path d="M1401.962,437.138 L1440,437.138 L1440,526 L1401.962,526 L1401.962,437.138 Z" id="Fill-43" fill="#3B9F86" sketch:type="MSShapeGroup"></path>
                <path d="M451.87,697 C451.87,689.892 446.108,684.13 439,684.13 C431.892,684.13 426.13,689.892 426.13,697" id="Fill-44" fill="#FFFFFF" sketch:type="MSShapeGroup"></path>
                <path d="M340.019,672.407 C340.019,675.89 337.196,678.714 333.713,678.714 C330.23,678.714 327.406,675.89 327.406,672.407 L327.406,652.022 C327.406,648.539 330.23,645.716 333.713,645.716 C337.196,645.716 340.019,648.539 340.019,652.022 L340.019,672.407" id="Fill-45" fill="#3B8186" sketch:type="MSShapeGroup"></path>
                <path d="M328.489,666.282 C328.489,669.766 325.666,672.589 322.183,672.589 C318.699,672.589 315.876,669.766 315.876,666.282 L315.876,645.897 C315.876,642.414 318.699,639.591 322.183,639.591 C325.666,639.591 328.489,642.414 328.489,645.897 L328.489,666.282" id="Fill-46" fill="#A9D163" sketch:type="MSShapeGroup"></path>
                <path d="M323.849,664.163 C326.312,666.626 326.312,670.619 323.849,673.081 C321.386,675.545 317.394,675.545 314.93,673.081 L300.516,658.668 C298.053,656.205 298.053,652.212 300.516,649.749 C302.978,647.285 306.972,647.285 309.435,649.749 L323.849,664.163" id="Fill-47" fill="#A9D163" sketch:type="MSShapeGroup"></path>
                <path d="M1231.02,672.407 C1231.02,675.89 1228.195,678.714 1224.713,678.714 C1221.229,678.714 1218.406,675.89 1218.406,672.407 L1218.406,652.022 C1218.406,648.539 1221.229,645.716 1224.713,645.716 C1228.195,645.716 1231.02,648.539 1231.02,652.022 L1231.02,672.407" id="Fill-48" fill="#3B8186" sketch:type="MSShapeGroup"></path>
                <path d="M1219.488,666.282 C1219.488,669.766 1216.666,672.589 1213.183,672.589 C1209.699,672.589 1206.876,669.766 1206.876,666.282 L1206.876,645.897 C1206.876,642.414 1209.699,639.591 1213.183,639.591 C1216.666,639.591 1219.488,642.414 1219.488,645.897 L1219.488,666.282" id="Fill-49" fill="#A9D163" sketch:type="MSShapeGroup"></path>
                <path d="M1214.849,664.163 C1217.313,666.626 1217.313,670.619 1214.85,673.081 C1212.386,675.545 1208.394,675.545 1205.93,673.081 L1191.516,658.668 C1189.053,656.205 1189.053,652.212 1191.516,649.749 C1193.979,647.285 1197.972,647.285 1200.435,649.749 L1214.849,664.163" id="Fill-50" fill="#A9D163" sketch:type="MSShapeGroup"></path>
                <path d="M496.808,642.591 C495.115,642.591 493.581,643.262 492.448,644.348 L492.448,673.832 C493.581,674.918 495.115,675.589 496.808,675.589 C500.291,675.589 503.114,672.766 503.114,669.282 L503.114,648.897 C503.114,645.414 500.291,642.591 496.808,642.591" id="Fill-51" fill="#C1BBA9" sketch:type="MSShapeGroup"></path>
                <path d="M494.448,666.282 C494.448,669.766 491.625,672.589 488.142,672.589 C484.658,672.589 481.835,669.766 481.835,666.282 L481.835,645.897 C481.835,642.414 484.658,639.591 488.142,639.591 C491.625,639.591 494.448,642.414 494.448,645.897 L494.448,666.282" id="Fill-52" fill="#3B9F86" sketch:type="MSShapeGroup"></path>
                <path d="M489.808,664.163 C492.271,666.626 492.271,670.619 489.808,673.081 C487.345,675.545 483.353,675.545 480.889,673.081 L466.475,658.668 C464.012,656.205 464.012,652.212 466.475,649.749 C468.937,647.285 472.931,647.285 475.394,649.749 L489.808,664.163" id="Fill-53" fill="#3B9F86" sketch:type="MSShapeGroup"></path>
                <path d="M943.253,666.282 C943.253,669.766 946.075,672.589 949.559,672.589 C953.042,672.589 955.865,669.766 955.865,666.282 L955.865,645.897 C955.865,642.414 953.042,639.591 949.559,639.591 C946.075,639.591 943.253,642.414 943.253,645.897 L943.253,666.282" id="Fill-54" fill="#3B9F86" sketch:type="MSShapeGroup"></path>
                <path d="M947.893,664.163 C945.429,666.626 945.429,670.619 947.892,673.081 C950.356,675.545 954.348,675.545 956.812,673.081 L971.226,658.668 C973.688,656.205 973.688,652.212 971.226,649.749 C968.763,647.285 964.769,647.285 962.307,649.749 L947.893,664.163" id="Fill-55" fill="#3B9F86" sketch:type="MSShapeGroup"></path>
                <path d="M0,664.224 L1440.081,664.224 L1440.081,752 L0,752 L0,664.224 Z" id="Fill-56" fill="#A9D163" sketch:type="MSShapeGroup"></path>
                <path d="M1250.251,593.67 C1243.32,586.738 1244.932,573.892 1244.932,573.892 C1244.932,573.892 1257.779,572.279 1264.71,579.21 C1271.642,586.14 1270.029,598.989 1270.029,598.989 C1270.029,598.989 1257.182,600.6 1250.251,593.67" id="Fill-57" fill="#A9D163" sketch:type="MSShapeGroup"></path>
                <path d="M1310.96,710.229 C1304.028,717.16 1291.181,715.548 1291.181,715.548 C1291.181,715.548 1289.568,702.7 1296.5,695.769 C1303.43,688.839 1316.279,690.45 1316.279,690.45 C1316.279,690.45 1317.89,703.298 1310.96,710.229" id="Fill-58" fill="#3B9F86" sketch:type="MSShapeGroup"></path>
                <path d="M1209.593,606.088 C1199.79,606.087 1191.846,595.864 1191.846,595.864 C1191.846,595.864 1199.79,585.639 1209.593,585.639 C1219.394,585.639 1227.339,595.864 1227.339,595.864 C1227.339,595.864 1219.394,606.087 1209.593,606.088" id="Fill-59" fill="#3B8186" sketch:type="MSShapeGroup"></path>
                <path d="M216.397,578.451 C209.465,585.382 196.618,583.77 196.618,583.77 C196.618,583.77 195.005,570.922 201.937,563.991 C208.867,557.06 221.716,558.673 221.716,558.673 C221.716,558.673 223.327,571.52 216.397,578.451" id="Fill-60" fill="#A9D163" sketch:type="MSShapeGroup"></path>
                <path d="M253.716,596.726 C243.913,596.726 235.968,586.502 235.968,586.502 C235.968,586.502 243.913,576.276 253.715,576.277 C263.516,576.276 271.461,586.502 271.461,586.502 C271.461,586.502 263.517,596.726 253.716,596.726" id="Fill-61" fill="#A9D163" sketch:type="MSShapeGroup"></path>
                <path d="M237.17,633.166 C230.238,626.233 231.851,613.387 231.851,613.387 C231.851,613.387 244.698,611.774 251.629,618.706 C258.56,625.636 256.948,638.484 256.948,638.484 C256.948,638.484 244.101,640.096 237.17,633.166" id="Fill-62" fill="#3B8186" sketch:type="MSShapeGroup"></path>
                <path d="M134.88,706.789 C125.077,706.787 117.133,696.564 117.133,696.564 C117.133,696.564 125.077,686.339 134.88,686.339 C144.68,686.339 152.626,696.564 152.626,696.564 C152.626,696.564 144.681,706.787 134.88,706.789" id="Fill-63" fill="#3B9F86" sketch:type="MSShapeGroup"></path>
                <path d="M1110.869,702.999 C1110.869,695.892 1105.107,690.129 1098,690.129 C1090.893,690.129 1085.131,695.892 1085.131,702.999" id="Fill-64" fill="#FFFFFF" sketch:type="MSShapeGroup"></path>
                <path d="M1013.945,718.125 C1013.945,711.017 1008.184,705.255 1001.076,705.255 C993.968,705.255 988.206,711.017 988.206,718.125" id="Fill-65" fill="#3B9F86" sketch:type="MSShapeGroup"></path>
                <path d="M414,340.645 C414,353.9 403.255,364.644 390.001,364.644 L275.113,364.644 C261.859,364.644 251.115,353.9 251.115,340.645 C251.115,327.391 261.859,316.647 275.113,316.647 L390.001,316.647 C403.255,316.647 414,327.391 414,340.645" id="Fill-66" fill="#D7F4FF" sketch:type="MSShapeGroup"></path>
                <path d="M486.002,379.821 C486.002,388.755 478.759,395.998 469.825,395.998 L330.252,395.998 C321.318,395.998 314.075,388.756 314.075,379.821 C314.075,370.886 321.318,363.643 330.252,363.643 L469.825,363.643 C478.759,363.643 486.002,370.886 486.002,379.821" id="Fill-67" fill="#D7F4FF" sketch:type="MSShapeGroup"></path>
                <path d="M372.002,379.821 C372.002,388.756 364.759,395.998 355.825,395.998 L314.846,395.998 C305.912,395.998 298.669,388.756 298.669,379.821 C298.669,370.887 305.911,363.643 314.846,363.643 L355.824,363.643 C364.759,363.643 372.002,370.887 372.002,379.821" id="Fill-68" fill="#FFFFFF" sketch:type="MSShapeGroup"></path>
                <path d="M351.608,340.645 C351.608,353.9 340.864,364.644 327.609,364.644 L275.113,364.644 C261.859,364.644 251.115,353.9 251.115,340.645 C251.115,327.391 261.859,316.647 275.113,316.647 L327.609,316.647 C340.864,316.647 351.608,327.391 351.608,340.645" id="Fill-69" fill="#FFFFFF" sketch:type="MSShapeGroup"></path>
                <path d="M236.167,380.5 C236.167,373.044 230.123,367 222.667,367 C215.211,367 209.167,373.044 209.167,380.5 C209.167,387.956 215.211,394 222.667,394 C230.123,394 236.167,387.956 236.167,380.5" id="Fill-70" fill="#FFFFFF" sketch:type="MSShapeGroup"></path>
                <path d="M442,227 C442,236.941 433.941,245 424,245 L369.608,245 C359.668,245 351.608,236.941 351.608,227 C351.608,217.058 359.668,209 369.608,209 L424,209 C433.941,209 442,217.058 442,227" id="Fill-71" fill="#D7F4FF" sketch:type="MSShapeGroup"></path>
                <path d="M402,227 C402,236.941 393.941,245 384,245 L369.608,245 C359.668,245 351.608,236.941 351.608,227 C351.608,217.058 359.668,209 369.608,209 L384,209 C393.941,209 402,217.058 402,227" id="Fill-72" fill="#FFFFFF" sketch:type="MSShapeGroup"></path>
                <path d="M398.682,256.649 C398.682,265.355 391.624,272.412 382.918,272.412 C374.212,272.412 367.154,265.355 367.154,256.649 C367.154,247.943 374.212,240.886 382.918,240.886 C391.624,240.886 398.682,247.943 398.682,256.649" id="Fill-73" fill="#FFFFFF" sketch:type="MSShapeGroup"></path>
                <path d="M1108.502,394.592 C1108.502,403.297 1101.444,410.355 1092.738,410.355 L1052.999,410.355 C1044.293,410.355 1037.235,403.297 1037.235,394.592 C1037.235,385.886 1044.293,378.828 1052.999,378.828 L1092.738,378.828 C1101.444,378.828 1108.502,385.886 1108.502,394.592" id="Fill-74" fill="#D7F4FF" sketch:type="MSShapeGroup"></path>
                <path d="M1200,428.39 C1200,440.402 1190.263,450.139 1178.251,450.139 L1028.825,450.139 C1016.813,450.139 1007.076,440.402 1007.076,428.39 C1007.076,416.379 1016.813,406.642 1028.825,406.642 L1178.251,406.642 C1190.263,406.642 1200,416.379 1200,428.39" id="Fill-75" fill="#D7F4FF" sketch:type="MSShapeGroup"></path>
                <path d="M1094.071,428.39 C1094.071,440.402 1084.334,450.139 1072.322,450.139 L1028.825,450.139 C1016.813,450.139 1007.076,440.402 1007.076,428.39 C1007.076,416.379 1016.813,406.642 1028.825,406.642 L1072.322,406.642 C1084.334,406.642 1094.071,416.379 1094.071,428.39" id="Fill-76" fill="#FFFFFF" sketch:type="MSShapeGroup"></path>
                <path d="M1068.763,394.591 C1068.763,403.298 1061.705,410.355 1052.999,410.355 C1044.293,410.355 1037.235,403.298 1037.235,394.591 C1037.235,385.885 1044.293,378.828 1052.999,378.828 C1061.705,378.828 1068.763,385.885 1068.763,394.591" id="Fill-77" fill="#FFFFFF" sketch:type="MSShapeGroup"></path>
                <path d="M1238.063,465.889 C1238.063,474.588 1231.012,481.639 1222.313,481.639 L1142.819,481.639 C1134.121,481.639 1127.069,474.588 1127.069,465.889 C1127.069,457.19 1134.121,450.139 1142.819,450.139 L1222.313,450.139 C1231.012,450.139 1238.063,457.19 1238.063,465.889" id="Fill-78" fill="#D7F4FF" sketch:type="MSShapeGroup"></path>
                <path d="M1127.069,465.889 C1127.069,457.19 1134.121,450.139 1142.819,450.139 L1154.25,450.139 C1162.948,450.139 1170,457.19 1170,465.889 C1170,474.588 1162.948,481.639 1154.25,481.639 L1142.819,481.639 C1134.121,481.639 1127.069,474.588 1127.069,465.889" id="Fill-79" fill="#FFFFFF" sketch:type="MSShapeGroup"></path>
                <path d="M1069.862,498.139 C1069.862,490.799 1063.912,484.849 1056.572,484.849 C1049.232,484.849 1043.282,490.799 1043.282,498.139 C1043.282,505.479 1049.232,511.429 1056.572,511.429 C1063.912,511.429 1069.862,505.479 1069.862,498.139" id="Fill-80" fill="#FFFFFF" sketch:type="MSShapeGroup"></path>
                <path d="M1363.843,160.829 C1363.843,170.355 1356.12,178.078 1346.594,178.078 L1220.6,178.078 C1211.073,178.078 1203.351,170.355 1203.351,160.829 C1203.351,151.302 1211.073,143.58 1220.6,143.58 L1346.594,143.58 C1356.12,143.58 1363.843,151.302 1363.843,160.829" id="Fill-81" fill="#D7F4FF" sketch:type="MSShapeGroup"></path>
                <path d="M1160.829,193 C1160.829,201.792 1167.958,208.921 1176.751,208.921 L1260.925,208.921 C1269.718,208.921 1276.847,201.792 1276.847,193 C1276.847,184.205 1269.718,177.077 1260.925,177.077 L1176.751,177.077 C1167.958,177.077 1160.829,184.205 1160.829,193" id="Fill-82" fill="#D7F4FF" sketch:type="MSShapeGroup"></path>
                <path d="M1208.77,193 C1208.77,201.793 1201.641,208.921 1192.848,208.921 L1171.266,208.921 C1162.473,208.921 1155.344,201.793 1155.344,193 C1155.344,184.206 1162.473,177.078 1171.266,177.078 L1192.848,177.078 C1201.641,177.078 1208.77,184.206 1208.77,193" id="Fill-83" fill="#FFFFFF" sketch:type="MSShapeGroup"></path>
                <path d="M1236.137,160.829 C1236.137,170.355 1228.414,178.078 1218.888,178.078 C1209.361,178.078 1201.639,170.355 1201.639,160.829 C1201.639,151.302 1209.361,143.58 1218.888,143.58 C1228.414,143.58 1236.137,151.302 1236.137,160.829" id="Fill-84" fill="#FFFFFF" sketch:type="MSShapeGroup"></path>
                <path d="M1113.884,194 C1113.884,185.228 1106.772,178.116 1098,178.116 C1089.228,178.116 1082.116,185.228 1082.116,194 C1082.116,202.773 1089.228,209.884 1098,209.884 C1106.772,209.884 1113.884,202.773 1113.884,194" id="Fill-85" fill="#D7F4FF" sketch:type="MSShapeGroup"></path>
            </g>
        </g>
    </g>
</svg>