<?xml version="1.0" encoding="UTF-8" standalone="no"?>
<svg width="1440px" height="752px" viewBox="0 0 1440 752" version="1.1" xmlns="http://www.w3.org/2000/svg" xmlns:xlink="http://www.w3.org/1999/xlink" xmlns:sketch="http://www.bohemiancoding.com/sketch/ns">
    <!-- Generator: Sketch 3.3.2 (12043) - http://www.bohemiancoding.com/sketch -->
    <title>robson-park</title>
    <desc>Created with Sketch.</desc>
    <defs></defs>
    <g id="Page-1" stroke="none" stroke-width="1" fill="none" fill-rule="evenodd" sketch:type="MSPage">
        <g id="robson-park" sketch:type="MSArtboardGroup">
            <g id="Imported-Layers" sketch:type="MSLayerGroup" transform="translate(-3.000000, -2.000000)">
                <path d="M0.525090909,0.748984064 L1443.60418,0.748984064 L1443.60418,666.736189 L0.525090909,666.736189 L0.525090909,0.748984064 Z" id="Fill-1" fill="#28D2FF" sketch:type="MSShapeGroup"></path>
                <path d="M0.525090909,426.708353 L1443.52301,426.708353 L1443.52301,439.44008 L0.525090909,439.44008 L0.525090909,426.708353 Z" id="Fill-2" fill="#ECECEB" sketch:type="MSShapeGroup"></path>
                <path d="M192.601141,426.708353 L205.325577,426.708353 L205.325577,603.366321 L192.601141,603.366321 L192.601141,426.708353 Z" id="Fill-3" fill="#ECECEB" sketch:type="MSShapeGroup"></path>
                <path d="M454.131486,426.708353 L466.855922,426.708353 L466.855922,603.366321 L454.131486,603.366321 L454.131486,426.708353 Z" id="Fill-4" fill="#ECECEB" sketch:type="MSShapeGroup"></path>
                <path d="M715.66083,426.708353 L728.385266,426.708353 L728.385266,603.366321 L715.66083,603.366321 L715.66083,426.708353 Z" id="Fill-5" fill="#ECECEB" sketch:type="MSShapeGroup"></path>
                <path d="M977.191176,426.708353 L989.915611,426.708353 L989.915611,603.366321 L977.191176,603.366321 L977.191176,426.708353 Z" id="Fill-6" fill="#ECECEB" sketch:type="MSShapeGroup"></path>
                <path d="M1238.72152,426.708353 L1251.44596,426.708353 L1251.44596,603.366321 L1238.72152,603.366321 L1238.72152,426.708353 Z" id="Fill-7" fill="#ECECEB" sketch:type="MSShapeGroup"></path>
                <path d="M1211.97095,105.743114 C1211.97095,119.03332 1201.20358,129.805857 1187.92198,129.805857 L1072.7948,129.805857 C1059.5132,129.805857 1048.74583,119.03332 1048.74583,105.743114 C1048.74583,92.453911 1059.5132,81.6803718 1072.7948,81.6803718 L1187.92198,81.6803718 C1201.20358,81.6803718 1211.97095,92.453911 1211.97095,105.743114" id="Fill-8" fill="#D7F4FF" sketch:type="MSShapeGroup"></path>
                <path d="M1284.12285,145.022165 C1284.12285,153.979894 1276.86376,161.242131 1267.91116,161.242131 L1128.04859,161.242131 C1119.09599,161.242131 1111.83691,153.979894 1111.83691,145.022165 C1111.83691,136.063433 1119.09599,128.801195 1128.04859,128.801195 L1267.91116,128.801195 C1276.86376,128.801195 1284.12285,136.063433 1284.12285,145.022165" id="Fill-9" fill="#D7F4FF" sketch:type="MSShapeGroup"></path>
                <path d="M1169.88551,145.023167 C1169.88551,153.980896 1162.62743,161.242131 1153.67483,161.242131 L1112.60952,161.242131 C1103.65692,161.242131 1096.39884,153.980896 1096.39884,145.022165 C1096.39884,136.064436 1103.65692,128.802198 1112.60952,128.802198 L1153.67383,128.802198 C1162.62743,128.802198 1169.88551,136.064436 1169.88551,145.023167" id="Fill-10" fill="#FFFFFF" sketch:type="MSShapeGroup"></path>
                <path d="M1149.44905,105.743114 C1149.44905,119.03332 1138.68168,129.805857 1125.40009,129.805857 L1072.7948,129.805857 C1059.5132,129.805857 1048.74583,119.03332 1048.74583,105.743114 C1048.74583,92.453911 1059.5132,81.6803718 1072.7948,81.6803718 L1125.40009,81.6803718 C1138.68168,81.6803718 1149.44905,92.453911 1149.44905,105.743114" id="Fill-11" fill="#FFFFFF" sketch:type="MSShapeGroup"></path>
                <path d="M1033.76772,145.702968 C1033.76772,138.227165 1027.71113,132.167112 1020.23961,132.167112 C1012.76809,132.167112 1006.71151,138.227165 1006.71151,145.702968 C1006.71151,153.178772 1012.76809,159.238825 1020.23961,159.238825 C1027.71113,159.238825 1033.76772,153.178772 1033.76772,145.702968" id="Fill-12" fill="#FFFFFF" sketch:type="MSShapeGroup"></path>
                <path d="M447.59691,290.654947 C447.59691,300.622351 439.521133,308.702756 429.559437,308.702756 L375.055201,308.702756 C365.093505,308.702756 357.017727,300.622351 357.017727,290.654947 C357.017727,280.686541 365.093505,272.607138 375.055201,272.607138 L429.559437,272.607138 C439.521133,272.607138 447.59691,280.686541 447.59691,290.654947" id="Fill-13" fill="#D7F4FF" sketch:type="MSShapeGroup"></path>
                <path d="M407.514637,290.654947 C407.514637,300.622351 399.437857,308.702756 389.477163,308.702756 L375.055201,308.702756 C365.093505,308.702756 357.017727,300.622351 357.017727,290.654947 C357.017727,280.686541 365.093505,272.607138 375.055201,272.607138 L389.477163,272.607138 C399.437857,272.607138 407.514637,280.686541 407.514637,290.654947" id="Fill-14" fill="#FFFFFF" sketch:type="MSShapeGroup"></path>
                <path d="M404.188727,320.381693 C404.188727,329.111819 397.117035,336.187563 388.39291,336.187563 C379.667783,336.187563 372.596092,329.111819 372.596092,320.381693 C372.596092,311.653572 379.667783,304.576826 388.39291,304.576826 C397.117035,304.576826 404.188727,311.653572 404.188727,320.381693" id="Fill-15" fill="#FFFFFF" sketch:type="MSShapeGroup"></path>
                <path d="M360.025976,121.306341 C360.025976,130.859648 352.286898,138.602158 342.741066,138.602158 L216.484761,138.602158 C206.937926,138.602158 199.19985,130.859648 199.19985,121.306341 C199.19985,111.756042 206.937926,104.01253 216.484761,104.01253 L342.741066,104.01253 C352.286898,104.01253 360.025976,111.756042 360.025976,121.306341" id="Fill-16" fill="#D7F4FF" sketch:type="MSShapeGroup"></path>
                <path d="M156.589324,153.563792 C156.589324,162.380146 163.733166,169.528081 172.544472,169.528081 L256.893713,169.528081 C265.705019,169.528081 272.848861,162.380146 272.848861,153.563792 C272.848861,144.745432 265.705019,137.599502 256.893713,137.599502 L172.544472,137.599502 C163.733166,137.599502 156.589324,144.745432 156.589324,153.563792" id="Fill-17" fill="#D7F4FF" sketch:type="MSShapeGroup"></path>
                <path d="M204.630132,153.563792 C204.630132,162.380146 197.48629,169.528081 188.674984,169.528081 L167.048053,169.528081 C158.236747,169.528081 151.092905,162.380146 151.092905,153.563792 C151.092905,144.747437 158.236747,137.599502 167.048053,137.599502 L188.674984,137.599502 C197.48629,137.599502 204.630132,144.747437 204.630132,153.563792" id="Fill-18" fill="#FFFFFF" sketch:type="MSShapeGroup"></path>
                <path d="M232.054107,121.308347 C232.054107,130.859648 224.315028,138.602158 214.769196,138.602158 C205.222362,138.602158 197.484286,130.859648 197.484286,121.308347 C197.484286,111.756042 205.222362,104.01253 214.769196,104.01253 C224.315028,104.01253 232.054107,111.756042 232.054107,121.308347" id="Fill-19" fill="#FFFFFF" sketch:type="MSShapeGroup"></path>
                <path d="M109.54659,154.566448 C109.54659,145.772151 102.420786,138.641262 93.6295212,138.641262 C84.8392588,138.641262 77.7124525,145.772151 77.7124525,154.566448 C77.7124525,163.363752 84.8392588,170.493639 93.6295212,170.493639 C102.420786,170.493639 109.54659,163.363752 109.54659,154.566448" id="Fill-20" fill="#D7F4FF" sketch:type="MSShapeGroup"></path>
                <path d="M0.525090909,603.367324 L1443.60418,603.367324 L1443.60418,754.747331 L0.525090909,754.747331 L0.525090909,603.367324 Z" id="Fill-21" fill="#A9D163" sketch:type="MSShapeGroup"></path>
                <path d="M1370.12352,618.367058 C1370.12352,608.725518 1362.31229,600.909814 1352.67627,600.909814 C1343.04025,600.909814 1335.22902,608.725518 1335.22902,618.367058 C1335.22902,628.009602 1343.04025,635.825305 1352.67627,635.825305 C1362.31229,635.825305 1370.12352,628.009602 1370.12352,618.367058" id="Fill-22" fill="#5AB55C" sketch:type="MSShapeGroup"></path>
                <path d="M1396.70474,593.431003 C1396.70474,580.914847 1386.56367,570.767968 1374.05468,570.767968 C1361.5457,570.767968 1351.40463,580.914847 1351.40463,593.431003 C1351.40463,605.948161 1361.5457,616.094037 1374.05468,616.094037 C1386.56367,616.094037 1396.70474,605.948161 1396.70474,593.431003" id="Fill-23" fill="#5AB55C" sketch:type="MSShapeGroup"></path>
                <path d="M1406.24656,551.586155 L1443.60318,551.586155 L1443.60318,616.094037 L1406.24656,616.094037 L1406.24656,551.586155 Z" id="Fill-24" fill="#5AB55C" sketch:type="MSShapeGroup"></path>
                <path d="M1402.59698,554.252218 C1402.59698,542.921202 1411.77705,533.736873 1423.10058,533.736873 C1434.42411,533.736873 1443.60318,542.921202 1443.60318,554.252218 C1443.60318,565.582231 1434.42411,574.767563 1423.10058,574.767563 C1411.77705,574.767563 1402.59698,565.582231 1402.59698,554.252218" id="Fill-25" fill="#5AB55C" sketch:type="MSShapeGroup"></path>
                <path d="M1411.56762,571.300378 C1411.56762,564.084263 1405.72147,558.23577 1398.51049,558.23577 C1391.29951,558.23577 1385.45337,564.084263 1385.45337,571.300378 C1385.45337,578.514489 1391.29951,584.364987 1398.51049,584.364987 C1405.72147,584.364987 1411.56762,578.514489 1411.56762,571.300378" id="Fill-26" fill="#5AB55C" sketch:type="MSShapeGroup"></path>
                <path d="M1367.07518,580.525817 L1423.10058,580.525817 L1423.10058,618.624741 L1367.07518,618.624741 L1367.07518,580.525817 Z" id="Fill-27" fill="#5AB55C" sketch:type="MSShapeGroup"></path>
                <path d="M1424.27803,604.817165 L1443.55307,604.817165 L1443.55307,622.356627 L1424.27803,622.356627 L1424.27803,604.817165 Z" id="Fill-28" fill="#A9D163" sketch:type="MSShapeGroup"></path>
                <path d="M1443.55307,604.546448 C1443.55307,609.872556 1439.23911,614.189993 1433.91605,614.189993 C1428.59299,614.189993 1424.27803,609.872556 1424.27803,604.546448 C1424.27803,599.221341 1428.59299,594.903904 1433.91605,594.903904 C1439.23911,594.903904 1443.55307,599.221341 1443.55307,604.546448" id="Fill-29" fill="#A9D163" sketch:type="MSShapeGroup"></path>
                <path d="M1394.43302,611.213108 C1394.43302,602.279442 1401.67106,595.037258 1410.59961,595.037258 C1419.52716,595.037258 1426.76519,602.279442 1426.76519,611.213108 C1426.76519,620.14577 1419.52716,627.387955 1410.59961,627.387955 C1401.67106,627.387955 1394.43302,620.14577 1394.43302,611.213108" id="Fill-30" fill="#A9D163" sketch:type="MSShapeGroup"></path>
                <path d="M1360.7791,622.356627 C1360.7791,611.071733 1369.9211,601.924502 1381.19953,601.924502 C1392.47596,601.924502 1401.61895,611.071733 1401.61895,622.356627 C1401.61895,633.640518 1392.47596,642.787749 1381.19953,642.787749 C1369.9211,642.787749 1360.7791,633.640518 1360.7791,622.356627" id="Fill-31" fill="#A9D163" sketch:type="MSShapeGroup"></path>
                <path d="M211.496397,483.074668 C211.496397,476.366899 206.062107,470.930498 199.359181,470.930498 C192.655253,470.930498 187.221965,476.366899 187.221965,483.074668 L187.221965,638.899449 L211.496397,638.899449 L211.496397,483.074668" id="Fill-32" fill="#9A7459" sketch:type="MSShapeGroup"></path>
                <path d="M317.064722,424.292955 C317.064722,481.61079 269.944827,528.077882 211.818065,528.077882 C153.69431,528.077882 106.572411,481.61079 106.572411,424.292955 L106.572411,423.783606 C106.572411,366.46577 153.693307,319.998679 211.818065,319.997676 C269.944827,319.997676 317.064722,366.46577 317.064722,423.783606 L317.064722,424.292955" id="Fill-33" fill="#5AB55C" sketch:type="MSShapeGroup"></path>
                <path d="M203.472727,542.836979 C196.157529,542.335651 190.425621,536.690697 189.563831,529.673108 C186.026482,535.789309 178.520888,538.727092 171.606523,536.310691 C164.682137,533.884263 160.653768,526.89575 161.705954,519.897211 C156.645441,524.850332 148.628786,525.67251 142.606273,521.481408 C136.583761,517.290305 134.569577,509.489641 137.455573,503.021507 C131.262706,506.441567 123.316197,505.087981 118.636475,499.431999 C118.636475,499.431999 118.636475,499.431999 118.636475,499.422975 C113.956752,493.767995 114.117085,485.696614 118.636475,480.242165 C111.73213,481.856441 104.446995,478.387251 101.480833,471.659429 C98.5146704,464.920578 100.879584,457.1901 106.741763,453.179475 C99.6570437,452.829548 93.5944483,447.475365 92.612408,440.176029 C91.620347,432.906773 96.0094656,426.138845 102.723414,423.902922 C96.0194865,421.635916 91.6504094,414.867988 92.6524913,407.589708 C93.6545732,400.300398 99.7271895,394.956242 106.821929,394.625365 C100.969771,390.603712 98.6248994,382.86421 101.611103,376.136388 C104.587287,369.408566 111.892464,365.959429 118.796808,367.593758 C114.277418,362.129283 114.137127,354.046873 118.836891,348.401919 C123.526634,342.757968 131.473144,341.424436 137.66601,344.852517 C134.800056,338.386388 136.834282,330.585724 142.866815,326.414675 C148.899348,322.233599 156.905982,323.084854 161.956475,328.049004 C160.92433,321.039436 164.96272,314.071979 171.897127,311.665604 C178.821513,309.258227 186.307065,312.217065 189.844414,318.343293 C190.716225,311.324701 196.468175,305.699801 203.773352,305.218526 C211.078529,304.737251 217.501874,309.560027 219.2956,316.388114 C221.98118,309.860823 229.005774,305.940438 236.18068,307.404316 C243.375628,308.858167 248.315892,315.234057 248.225704,322.313811 C252.554698,316.718991 260.380958,314.803918 266.924552,318.142762 C273.458126,321.47158 276.514476,328.931341 274.540375,335.729349 C280.212158,331.498141 288.268897,331.748805 293.670118,336.71095 C299.08136,341.6751 300.023317,349.686321 296.295573,355.712284 C302.909313,353.155511 310.595281,355.581939 314.463317,361.828486 C314.463317,361.828486 314.463317,361.828486 314.463317,361.817457 C318.341374,368.075033 317.078751,376.056175 311.847883,380.848871 C318.912561,380.196142 325.656572,384.648938 327.660736,391.726687 C329.664899,398.806441 326.257821,406.135857 319.894601,409.294223 C326.849049,410.617729 332.089938,416.723904 332.089938,424.062344 L332.089938,424.183665 L332.089938,424.293958 L332.099958,424.293958 C332.099958,431.643426 326.829008,437.759628 319.864539,439.073108 C326.207717,442.240498 329.594754,449.580943 327.580569,456.659695 C325.556364,463.72842 318.792311,468.170186 311.717613,467.498406 C316.94848,472.291102 318.191062,480.282271 314.292963,486.528818 C310.404885,492.755312 302.708897,495.161687 296.105177,492.594887 C299.822901,498.62085 298.850881,506.632072 293.429618,511.575166 C288.008355,516.517258 279.961638,516.758898 274.299875,512.517663 C276.253935,519.314668 273.177543,526.765405 266.643969,530.084197 C260.100375,533.391959 252.274115,531.467862 247.955142,525.863015 C248.025288,532.941766 243.064983,539.287576 235.880056,540.732404 C228.695128,542.176228 221.690576,538.23579 219.015017,531.698473 C217.291437,538.194681 211.369133,542.868061 204.504872,542.868061 C204.164164,542.868061 203.813435,542.858035 203.472727,542.836979 L203.472727,542.836979 Z M218.393727,522.112078 C219.826704,516.758898 224.165718,512.407371 229.967772,511.24429 C235.749785,510.080206 241.431589,512.417397 244.818626,516.788977 C244.768522,511.253313 247.794809,505.909157 253.055739,503.243094 C258.32669,500.576029 264.419348,501.307968 268.84855,504.606707 C267.325385,499.292629 268.808466,493.336853 273.167523,489.356308 C277.526579,485.38579 283.579153,484.443293 288.729854,486.437576 C285.843858,481.736122 285.673505,475.609894 288.789979,470.605637 C291.906454,465.613413 297.457988,463.076693 302.939375,463.587045 C298.900985,459.858167 297.057155,454.032736 298.670507,448.387782 C300.283858,442.732802 304.923498,438.771308 310.324719,437.739575 C305.404497,435.262012 302.027481,430.169522 302.027481,424.293958 L302.037502,424.293958 L302.037502,424.183665 L302.037502,424.062344 C302.037502,418.167729 305.424539,413.06421 310.364802,410.597676 C304.963581,409.554914 300.333963,405.574369 298.740652,399.918386 C297.137321,394.264409 298.991173,388.449004 303.049604,384.72915 C297.568217,385.220452 292.016683,382.673705 288.92025,377.670452 C285.813796,372.667198 286.004192,366.539967 288.900208,361.838513 C283.749507,363.813745 277.696933,362.871248 273.347897,358.880677 C268.998862,354.890106 267.535822,348.924303 269.069008,343.610226 C264.629785,346.908964 258.527106,347.62085 253.266176,344.932729 L253.276197,344.932729 C248.015267,342.25664 244.999001,336.89243 245.069146,331.356766 C241.672089,335.729349 235.980264,338.055511 230.198251,336.871375 C224.396197,335.69927 220.067203,331.327689 218.654268,325.972503 C216.529854,331.097078 211.639695,334.847012 205.737432,335.238048 C199.845191,335.618054 194.514115,332.55093 191.738348,327.758234 C191.046912,333.24176 187.339209,338.135724 181.757613,340.080876 C176.186037,342.015 170.243692,340.481939 166.295489,336.60166 C167.087134,342.076162 164.822429,347.780272 159.972353,351.150199 C155.122276,354.508094 148.989535,354.619389 144.14948,351.942297 C146.374101,357.00571 145.722748,363.101859 141.944899,367.643891 C138.177071,372.174894 132.314892,373.929542 126.943734,372.667198 C130.45102,376.918459 131.473144,382.953446 129.088189,388.338712 C126.703234,393.702922 121.552533,396.990631 116.061124,397.262351 C120.590534,400.379608 123.236031,405.885193 122.434365,411.710624 C121.622679,417.556109 117.564247,422.148274 112.323359,423.912948 C117.554226,425.687649 121.602637,430.288838 122.394282,436.145352 C123.185926,441.960757 120.530409,447.455312 116.000999,450.573572 C121.492408,450.854316 126.623067,454.153054 128.987981,459.527291 C131.362915,464.911554 130.320749,470.936514 126.813463,475.188778 C132.184622,473.944482 138.046801,475.710159 141.794587,480.251189 C145.562415,484.803247 146.193727,490.900398 143.949063,495.953785 C148.799139,493.296746 154.931881,493.416062 159.781957,496.795013 C164.622012,500.16494 166.876697,505.88008 166.06501,511.354582 C170.023234,507.493353 175.965579,505.970319 181.537155,507.914469 L181.537155,507.925498 C187.10873,509.870651 190.806412,514.773639 191.487828,520.268194 C194.273616,515.485525 199.604691,512.426421 205.506954,512.828486 L205.506954,512.818459 C211.409216,513.218519 216.289355,516.978479 218.393727,522.112078 L218.393727,522.112078 Z" id="Fill-34" fill="#5AB55C" sketch:type="MSShapeGroup"></path>
                <path d="M285.508161,427.110418 C285.508161,488.909124 251.782093,539.00583 199.360183,539.00583 C137.596866,539.00583 87.5278446,488.908121 87.5278446,427.110418 L87.5278446,426.345392 C87.5278446,364.546687 137.596866,314.44998 199.360183,314.448977 C251.782093,314.448977 285.508161,364.547689 285.508161,426.346394 L285.508161,427.110418" id="Fill-35" fill="#A9D163" sketch:type="MSShapeGroup"></path>
                <path d="M188.671978,553.596481 L188.671978,553.596481 C181.787675,553.024967 176.386454,547.901394 175.153893,541.434263 C171.416128,546.858632 164.391534,549.354243 157.867981,547.098267 C151.344427,544.833267 147.366162,538.52656 147.777016,531.949137 C142.816711,536.279608 135.391284,536.962417 129.629313,533.162351 C123.867342,529.362284 121.572575,522.273506 123.586759,516.006906 C117.714559,518.983792 110.359278,517.83174 105.709618,512.738247 C105.709618,512.738247 105.709618,512.738247 105.699598,512.72822 C101.049938,507.634728 100.558917,500.215073 104.036142,494.629276 C97.6228175,496.074104 90.7785982,493.146348 87.5118112,487.059223 C84.2450243,480.974104 85.5978348,473.644688 90.3577238,469.082603 C83.7740458,468.902125 77.8517418,464.37012 76.1983067,457.662351 C74.5448716,450.954582 77.6613463,444.186653 83.3932547,440.958101 C77.1001804,439.15332 72.5006246,433.357968 72.5006246,426.488772 C72.5006246,419.590498 77.1302429,413.78512 83.4533796,412.011421 C77.731492,408.742762 74.6450798,401.963805 76.3285774,395.276089 C78.0120749,388.569323 83.9544205,384.057371 90.5481194,383.906972 C85.7982512,379.323831 84.4755031,371.985392 87.7723525,365.908293 C91.0591811,359.833201 97.9234421,356.945551 104.336766,358.419456 C100.879584,352.814608 101.400666,345.384927 106.080389,340.311487 C110.760111,335.238048 118.115392,334.11407 123.96755,337.102988 C121.983428,330.836388 124.308258,323.756633 130.090271,319.987649 C135.872283,316.207636 143.287689,316.929548 148.227953,321.281076 C147.847162,314.703652 151.845468,308.406972 158.389063,306.181076 C164.922637,303.945153 171.927189,306.481873 175.644913,311.916268 C176.907536,305.458161 182.328799,300.355644 189.213102,299.813207 C196.187592,299.252722 202.420541,303.554117 204.60508,309.87085 C207.701513,303.764675 214.706065,300.375697 221.640472,302.100266 C228.624983,303.844887 233.234559,310.201726 233.034143,317.120053 C238.154781,312.507835 245.960999,311.895212 251.803137,316.066262 C257.59517,320.198207 259.579292,327.667995 257.003942,333.984728 C263.246912,331.458035 270.642276,333.403187 274.780874,339.098274 C278.859348,344.723174 278.478557,352.213015 274.329938,357.376693 C280.853491,356.71494 287.296877,360.424768 289.812103,366.830737 C292.307287,373.17755 290.192894,380.196142 285.082276,384.197742 C291.485579,384.989841 296.886801,389.872776 298.039195,396.560491 C299.181568,403.198074 295.784511,409.574967 290.102706,412.502722 C296.155281,414.437849 300.5444,420.122908 300.5444,426.830677 C300.5444,426.870784 300.534379,426.920916 300.534379,426.971049 C300.534379,427.011155 300.5444,427.061288 300.5444,427.110418 C300.5444,433.829216 296.135239,439.5233 290.062623,441.449402 C295.734407,444.387185 299.111423,450.774104 297.949008,457.411687 C296.766551,464.099402 291.355309,468.971308 284.952006,469.744356 C290.042582,473.75498 292.136933,480.783599 289.611686,487.120385 C287.066398,493.527357 280.612991,497.207105 274.079417,496.525299 C278.218015,501.699004 278.558723,509.198871 274.450187,514.802716 C270.281527,520.487776 262.876142,522.383798 256.643192,519.827025 C259.178459,526.153785 257.144233,533.623572 251.342179,537.714409 C245.469979,541.855378 237.663761,541.193625 232.563164,536.551328 C232.723498,543.458625 228.073838,549.796414 221.079306,551.490903 C214.144899,553.175365 207.160389,549.746282 204.104039,543.620053 C202.019709,549.535724 196.377988,553.655637 189.934601,553.655637 C189.513727,553.655637 189.092852,553.636587 188.671978,553.596481 L188.671978,553.596481 Z M191.177183,523.627092 C196.588425,524.077284 201.087772,527.346946 203.362498,531.868924 C204.995892,527.236653 208.873949,523.495744 213.994587,522.253453 C219.035059,521.040239 224.085552,522.504117 227.652963,525.75172 C227.552755,520.909894 229.777377,516.117198 234.026204,513.119256 C238.375239,510.061155 243.786482,509.618984 248.376017,511.494954 C246.512144,506.832603 247.023206,501.347072 250.219847,497.005571 C253.486634,492.544754 258.767606,490.408094 263.898265,490.949529 C260.65152,486.858692 259.619375,481.194688 261.683664,476.00093 C263.788036,470.706906 268.557946,467.267795 273.838917,466.626096 C269.640194,463.307304 267.345427,457.842829 268.337488,452.197875 C269.33957,446.492762 273.438085,442.110153 278.588786,440.466799 C273.768772,437.960159 270.481943,432.915797 270.481943,427.110418 L270.481943,426.971049 L270.481943,426.830677 C270.481943,420.995219 273.788813,415.941833 278.63889,413.445219 C273.478168,411.790837 269.399695,407.389177 268.417654,401.684064 C267.435614,396.028081 269.750423,390.574635 273.969188,387.26587 C268.688217,386.604117 263.918307,383.15498 261.833976,377.85093 L261.843997,377.85093 C259.789729,372.636116 260.851936,366.972112 264.118723,362.900325 C258.978043,363.412683 253.707092,361.256972 250.450326,356.7751 C247.283747,352.412543 246.802748,346.918991 248.696683,342.265664 C244.097127,344.111554 238.675864,343.650332 234.34687,340.551122 C230.118085,337.53413 227.913505,332.721381 228.053796,327.888579 C224.466343,331.106102 219.395808,332.540903 214.375378,331.287583 L214.365357,331.287583 C209.25474,330.01421 205.406745,326.25425 203.803414,321.620976 C201.508647,326.123904 196.999278,329.362483 191.588036,329.793625 C186.026482,330.233792 180.935906,327.587782 177.989785,323.295412 C176.987703,328.399934 173.370187,332.851726 168.089216,334.646481 C162.808244,336.451262 157.226648,335.147809 153.318529,331.708699 C153.609133,336.912483 151.194115,342.126295 146.524414,345.174369 C141.844691,348.23247 136.102762,348.342762 131.463123,345.976494 C133.026371,350.948665 131.964164,356.593619 128.176294,360.705511 C124.398446,364.806375 118.856933,366.329409 113.776378,365.167331 C116.512061,369.609097 116.86279,375.34429 114.197252,380.247278 C111.541735,385.160292 106.541346,387.987782 101.340541,388.118127 C105.088328,391.737716 106.841971,397.201189 105.479139,402.616534 C104.116308,408.030876 99.9877307,412.011421 94.9773213,413.425166 C99.5067314,416.012019 102.563081,420.894954 102.563081,426.488772 C102.563081,432.104648 99.476669,437.007636 94.9171964,439.584462 C99.9276058,441.01826 104.046162,445.018858 105.378931,450.443227 C106.721721,455.856567 104.938015,461.312019 101.190229,464.911554 C106.391034,465.071979 111.36136,467.919522 113.996836,472.842563 C116.642332,477.755578 116.261541,483.480744 113.515836,487.901454 C118.596391,486.768453 124.127883,488.313546 127.895711,492.444489 L127.895711,492.434462 C131.663539,496.565405 132.705704,502.220385 131.112394,507.183533 C135.762054,504.837317 141.503983,504.977689 146.173685,508.045817 C150.833366,511.122968 153.228341,516.347809 152.907675,521.541567 C156.835836,518.12251 162.427453,516.848134 167.698404,518.673971 C172.969355,520.487776 176.566829,524.950598 177.548869,530.064143 C180.284552,526.113679 184.844025,523.566932 189.904539,523.566932 C190.325413,523.575956 190.746287,523.586985 191.177183,523.627092 L191.177183,523.627092 Z" id="Fill-36" fill="#A9D163" sketch:type="MSShapeGroup"></path>
                <path d="M260.764755,427.110418 C260.764755,488.909124 221.583353,539.00583 199.360183,539.00583 C137.596866,539.00583 87.5278446,488.908121 87.5278446,427.110418 L87.5278446,426.345392 C87.5278446,364.546687 137.596866,314.44998 199.360183,314.448977 C230.827559,314.448977 260.764755,364.547689 260.764755,426.346394 L260.764755,427.110418" id="Fill-37" fill="#D0D766" sketch:type="MSShapeGroup"></path>
                <path d="M191.87864,553.826089 C184.643609,553.404973 178.901679,547.931474 177.879556,541.023174 C174.432394,547.089243 167.087134,550.117264 160.192811,547.871315 C153.288466,545.634389 149.109785,538.866461 149.881388,531.929084 C145.001249,536.922311 137.134906,537.985126 131.022207,534.074768 C124.919528,530.164409 122.594698,522.5733 125.079861,516.056036 C119.107453,519.656574 111.23109,518.70405 106.310867,513.389973 C101.380625,508.075896 101.029896,500.143884 105.068286,494.458825 C98.3843997,496.445086 90.9990562,493.54741 87.5719362,487.160491 C84.1347953,480.773572 85.7882304,473.002988 91.1393477,468.521116 C84.1648577,468.751726 77.7415128,464.069323 76.0379736,457.020651 L76.0479944,457.020651 C74.3344344,449.961952 77.9018459,442.873174 84.204941,439.894283 C77.4509091,438.361222 72.4304788,432.285126 72.5006246,425.076029 C72.5707703,417.826826 77.7515337,411.819914 84.5957529,410.467331 C78.3728244,407.318991 74.9958085,400.128944 76.8897432,393.131408 C78.783678,386.122842 85.3272727,381.61089 92.3017627,382.042032 C87.0708952,377.409761 85.6178765,369.59907 89.2253713,363.30239 C92.8328661,357.00571 100.298376,354.308566 106.932158,356.474303 C103.03406,350.688977 103.605246,342.766992 108.66576,337.58326 C113.736294,332.400531 121.6327,331.658566 127.504899,335.418526 C125.19009,328.841102 127.725357,321.311155 133.938265,317.570246 C140.141152,313.821315 147.977432,315.094688 152.71728,320.21826 C152.136072,313.259827 156.495128,306.622244 163.449577,304.566799 C170.404025,302.521381 177.669119,305.72988 180.955947,311.886189 C182.158446,305.017995 188.040666,299.703918 195.285718,299.473307 C203.362498,299.222643 210.156613,305.388977 210.747842,313.380146 C215.938626,307.324104 225.037529,306.361554 231.390729,311.314675 C237.40322,316.007105 238.87628,324.349203 235.138515,330.756175 C241.822401,328.209429 249.568494,330.746149 253.366384,337.102988 C257.064067,343.289376 255.801443,351.069987 250.74093,355.801521 C257.555087,355.160823 264.168827,359.261687 266.413491,366.049668 C268.628092,372.767463 265.862346,379.936454 260.120416,383.525963 C266.834365,384.157636 272.506149,389.291235 273.558334,396.259695 C274.61052,403.208101 270.732464,409.755445 264.549618,412.362351 C271.013046,414.035784 275.792977,419.922377 275.792977,426.920916 L275.792977,427.011155 L275.792977,427.110418 C275.792977,434.21925 270.862734,440.186056 264.228952,441.750199 C270.431839,444.54761 274.139542,451.325564 272.796752,458.30405 C271.453963,465.27251 265.501596,470.184522 258.717502,470.475292 C264.289077,474.376627 266.674032,481.715066 264.07864,488.313546 C261.473227,494.941102 254.689133,498.670983 247.945121,497.68838 C252.725052,502.601394 253.667009,510.331873 249.788952,516.337782 C245.840749,522.443958 238.224927,524.74004 231.711395,522.193293 C235.379015,528.389708 234.156475,536.511222 228.484691,541.323971 C222.311867,546.547809 213.162859,545.946215 207.731575,540.060624 C207.080222,547.871315 200.546648,553.857171 192.760472,553.857171 C192.469868,553.857171 192.179264,553.847145 191.87864,553.826089 L191.87864,553.826089 Z M169.462068,519.265538 C175.073727,521.080345 178.881638,525.893094 179.693324,531.35757 C182.439028,526.554847 187.740042,523.455637 193.622262,523.797543 C197.660652,524.037178 201.238085,525.842961 203.783373,528.600266 C204.104039,524.77012 205.877724,521.050266 209.044303,518.373174 C213.403359,514.682397 219.245496,513.901328 224.215822,515.826428 C221.420014,511.083865 221.339847,504.967663 224.536489,500.013539 C227.823317,494.920046 233.675475,492.484595 239.307176,493.285717 C235.32891,489.185857 233.875892,482.968386 236.100514,477.294356 L236.110534,477.294356 C238.345177,471.59927 243.676253,468.039841 249.408161,467.77915 C244.708397,464.480412 242.123026,458.613871 243.27542,452.608964 C244.427814,446.613081 248.997307,442.141235 254.568883,440.816726 C249.358057,438.451461 245.73052,433.20757 245.73052,427.110418 L245.73052,427.011155 L245.73052,426.920916 C245.73052,420.683393 249.51839,415.340239 254.919611,413.06421 C249.26787,411.590305 244.758501,406.877822 243.836586,400.741567 C242.91467,394.635392 245.800666,388.84004 250.710867,385.750857 C244.968938,385.200398 239.808217,381.340173 237.874198,375.504714 C235.970243,369.759495 237.723886,363.6834 241.862484,359.793094 C236.280888,360.313473 230.639167,357.676487 227.562776,352.533865 C224.656738,347.670983 224.817071,341.825498 227.472588,337.24336 C222.732741,339.038114 217.201249,338.386388 212.912339,335.036514 C209.425094,332.330345 207.471034,328.388904 207.160389,324.309097 C204.504872,327.397278 200.616794,329.40259 196.237696,329.542961 C190.335434,329.72344 185.124608,326.484861 182.509174,321.611952 C181.547176,327.055372 177.608994,331.758831 171.947231,333.42324 C166.295489,335.087649 160.43331,333.272842 156.675503,329.222112 C157.12644,334.73672 154.511006,340.281408 149.460514,343.329482 C144.4,346.377556 138.267259,346.105837 133.607578,343.137975 C135.431367,348.352789 134.288994,354.388778 130.160416,358.619987 C126.031839,362.841169 120.019348,364.113539 114.758418,362.398997 C117.834809,367.002191 118.245663,373.12842 115.309563,378.262019 C112.373463,383.374562 106.882054,386.122842 101.370604,385.791965 C105.499181,389.461687 107.453241,395.287118 105.910035,400.982205 C104.366829,406.677291 99.7572519,410.717995 94.3359889,411.81089 C99.2662318,414.31753 102.623206,419.461155 102.563081,425.366799 C102.502956,431.31255 99.0056905,436.426096 93.9752394,438.811414 C99.36644,440.045684 103.875808,444.206707 105.258681,449.951926 C106.651575,455.686116 104.547203,461.451388 100.318418,465.001793 C105.839889,464.831341 111.251131,467.717988 114.04694,472.912749 C116.832727,478.116534 116.261541,484.221707 113.07492,488.733659 C118.375933,487.170518 124.338321,488.604316 128.356669,492.93579 C132.364997,497.277291 133.347037,503.34336 131.382956,508.517065 C136.122804,505.669522 142.265566,505.55923 147.235892,508.746673 C152.206218,511.925093 154.671339,517.550996 154.080111,523.045551 C156.87592,520.187981 160.753976,518.52257 164.822429,518.52257 C166.355614,518.52257 167.918862,518.76421 169.462068,519.265538 L169.462068,519.265538 Z" id="Fill-38" fill="#D0D766" sketch:type="MSShapeGroup"></path>
                <path d="M762.889951,483.074668 C762.889951,476.366899 757.455661,470.930498 750.751734,470.930498 C744.048808,470.930498 738.614518,476.366899 738.614518,483.074668 L738.614518,638.899449 L762.889951,638.899449 L762.889951,483.074668" id="Fill-39" fill="#9A7459" sketch:type="MSShapeGroup"></path>
                <path d="M868.457274,424.292955 C868.457274,481.61079 821.33738,528.077882 763.21162,528.077882 C705.086862,528.077882 657.965965,481.61079 657.965965,424.292955 L657.965965,423.783606 C657.965965,366.46577 705.086862,319.998679 763.21162,319.997676 C821.33738,319.997676 868.457274,366.46577 868.457274,423.783606 L868.457274,424.292955" id="Fill-40" fill="#5AB55C" sketch:type="MSShapeGroup"></path>
                <path d="M754.868286,542.836979 C754.868286,542.836979 754.868286,542.836979 754.858265,542.836979 C747.553088,542.335651 741.82118,536.690697 740.959389,529.673108 C737.412019,535.789309 729.916447,538.727092 723.002082,536.310691 C716.067675,533.884263 712.039306,526.89575 713.091492,519.897211 C708.040999,524.850332 700.024344,525.67251 694.001832,521.481408 C687.97932,517.290305 685.965135,509.489641 688.851131,503.021507 C682.648244,506.441567 674.701735,505.087981 670.032033,499.431999 C670.032033,499.431999 670.032033,499.431999 670.032033,499.422975 C665.352311,493.767995 665.502623,485.696614 670.032033,480.242165 C663.127689,481.856441 655.832533,478.387251 652.876391,471.659429 C649.910229,464.920578 652.275142,457.1901 658.137321,453.179475 C651.042582,452.829548 644.990007,447.475365 643.997946,440.176029 C643.015906,432.906773 647.405024,426.138845 654.108952,423.902922 C647.405024,421.635916 643.035947,414.867988 644.038029,407.589708 C645.050132,400.300398 651.122748,394.956242 658.217488,394.625365 C652.36533,390.603712 650.010437,382.86421 652.996641,376.136388 C655.982845,369.408566 663.288022,365.959429 670.182346,367.593758 C665.672977,362.129283 665.532686,354.046873 670.23245,348.401919 C674.922193,342.757968 682.868702,341.424436 689.061568,344.852517 C686.195614,338.386388 688.22984,330.585724 694.262373,326.414675 C700.294906,322.233599 708.301541,323.084854 713.342012,328.049004 C712.309868,321.039436 716.358279,314.071979 723.282665,311.665604 C730.217071,309.258227 737.702623,312.217065 741.239972,318.343293 C742.111783,311.324701 747.853713,305.699801 755.16891,305.218526 C762.474087,304.737251 768.897432,309.560027 770.691159,316.388114 C773.376738,309.860823 780.401332,305.940438 787.576239,307.404316 C794.761166,308.858167 799.70143,315.234057 799.611242,322.313811 C803.950257,316.718991 811.776516,314.803918 818.320111,318.142762 C824.853685,321.47158 827.910035,328.931341 825.925913,335.729349 C831.607717,331.498141 839.654434,331.748805 845.065677,336.71095 C850.466898,341.6751 851.418876,349.686321 847.691131,355.712284 C854.294851,353.155511 861.99084,355.581939 865.858876,361.828486 C865.858876,361.828486 865.858876,361.828486 865.858876,361.817457 C869.736933,368.075033 868.47431,376.056175 863.233421,380.848871 C870.308119,380.196142 877.05213,384.648938 879.056294,391.726687 C881.060458,398.806441 877.643359,406.135857 871.29016,409.294223 C878.234587,410.617729 883.485496,416.723904 883.485496,424.062344 L883.485496,424.183665 L883.485496,424.293958 C883.485496,431.643426 878.224566,437.759628 871.260097,439.073108 C877.603276,442.240498 880.990312,449.580943 878.966107,456.659695 C876.941901,463.72842 870.177849,468.170186 863.113171,467.498406 C868.344039,472.291102 869.5766,480.282271 865.688522,486.528818 C861.800444,492.755312 854.104455,495.161687 847.500736,492.594887 C851.208439,498.62085 850.24644,506.632072 844.825177,511.575166 C839.403914,516.517258 831.357196,516.758898 825.695434,512.517663 C827.649493,519.314668 824.573102,526.765405 818.029507,530.084197 C811.495933,533.391959 803.669674,531.467862 799.350701,525.863015 C799.420847,532.941766 794.460541,539.287576 787.275614,540.732404 C780.090687,542.176228 773.086135,538.23579 770.410576,531.698473 C768.686995,538.194681 762.764691,542.868061 755.90043,542.868061 C755.559722,542.868061 755.208994,542.858035 754.868286,542.836979 L754.868286,542.836979 Z M769.789285,522.112078 C771.222262,516.758898 775.561277,512.407371 781.363331,511.24429 C787.145344,510.080206 792.827148,512.417397 796.204164,516.788977 C796.16408,511.253313 799.190368,505.909157 804.451298,503.243094 C809.712228,500.576029 815.804885,501.307968 820.234087,504.606707 C818.720944,499.292629 820.204025,493.336853 824.563081,489.356308 C828.912117,485.38579 834.974712,484.45332 840.125413,486.437576 C837.239417,481.736122 837.059042,475.609894 840.185538,470.605637 C843.291992,465.613413 848.853546,463.076693 854.334934,463.587045 C850.296544,459.858167 848.452713,454.032736 850.066065,448.387782 C851.679417,442.732802 856.319056,438.771308 861.720278,437.739575 C856.800056,435.262012 853.42304,430.169522 853.42304,424.293958 L853.42304,424.183665 L853.42304,424.062344 C853.42304,418.167729 856.820097,413.06421 861.760361,410.597676 C856.359139,409.554914 851.729521,405.574369 850.136211,399.918386 C848.53288,394.264409 850.386731,388.449004 854.445163,384.72915 C848.963775,385.220452 843.412241,382.673705 840.315808,377.670452 C837.209355,372.667198 837.39975,366.539967 840.295767,361.838513 C835.145066,363.813745 829.082471,362.871248 824.743456,358.880677 C820.394421,354.890106 818.92136,348.924303 820.464566,343.610226 C816.025344,346.908964 809.922665,347.62085 804.661735,344.932729 C799.400805,342.25664 796.394559,336.89243 796.454684,331.356766 C793.057627,335.729349 787.375822,338.055511 781.59381,336.871375 L781.583789,336.871375 C775.791756,335.69927 771.462762,331.327689 770.039806,325.972503 C767.925413,331.097078 763.035253,334.847012 757.132991,335.238048 C751.230729,335.618054 745.909674,332.55093 743.133907,327.758234 C742.442471,333.24176 738.724747,338.135724 733.153171,340.080876 C727.571575,342.015 721.639251,340.47091 717.691048,336.60166 C718.482693,342.076162 716.217988,347.780272 711.367911,351.150199 C706.507814,354.508094 700.375073,354.619389 695.535017,351.942297 C697.76966,357.00571 697.108286,363.101859 693.340458,367.643891 C689.57263,372.174894 683.710451,373.929542 678.339292,372.667198 C681.836558,376.918459 682.868702,382.953446 680.473727,388.338712 C678.098793,393.702922 672.948092,396.990631 667.456683,397.262351 C671.986093,400.379608 674.631589,405.885193 673.819903,411.710624 C673.018237,417.556109 668.949785,422.148274 663.718917,423.912948 C668.949785,425.687649 672.998196,430.288838 673.78984,436.145352 C674.581485,441.960757 671.925968,447.455312 667.396558,450.573572 C672.887967,450.854316 678.018626,454.153054 680.383539,459.527291 C682.758473,464.911554 681.716308,470.936514 678.209022,475.188778 C683.58018,473.944482 689.432339,475.710159 693.190146,480.251189 C696.947953,484.803247 697.589285,490.900398 695.344622,495.953785 C700.194698,493.296746 706.327439,493.416062 711.167495,496.795013 C716.017571,500.16494 718.272255,505.88008 717.460569,511.354582 C721.418793,507.493353 727.361138,505.970319 732.932713,507.914469 L732.932713,507.925498 C738.504289,509.870651 742.201971,514.773639 742.883387,520.268194 C745.669174,515.485525 751.00025,512.426421 756.902512,512.828486 L756.902512,512.818459 C762.804774,513.218519 767.674892,516.978479 769.789285,522.112078 L769.789285,522.112078 Z" id="Fill-41" fill="#5AB55C" sketch:type="MSShapeGroup"></path>
                <path d="M836.901715,427.110418 C836.901715,488.909124 803.175647,539.00583 750.752736,539.00583 C688.990421,539.00583 638.921399,488.908121 638.921399,427.110418 L638.921399,426.345392 C638.921399,364.546687 688.989418,314.44998 750.752736,314.448977 C803.175647,314.448977 836.901715,364.547689 836.901715,426.346394 L836.901715,427.110418" id="Fill-42" fill="#A9D163" sketch:type="MSShapeGroup"></path>
                <path d="M740.057516,553.596481 L740.057516,553.596481 C733.183234,553.024967 727.771992,547.901394 726.549452,541.434263 C722.801666,546.858632 715.787092,549.354243 709.263539,547.098267 C702.729965,544.833267 698.7517,538.52656 699.172575,531.949137 C694.212269,536.279608 686.786842,536.962417 681.024872,533.162351 C681.024872,533.162351 681.024872,533.162351 681.014851,533.162351 C675.262901,529.362284 672.958112,522.273506 674.972297,516.006906 C669.110118,518.983792 661.754837,517.83174 657.095156,512.738247 C652.445496,507.644754 651.954476,500.215073 655.4317,494.629276 C649.008355,496.064077 642.164136,493.146348 638.90737,487.059223 C635.640583,480.974104 636.993393,473.644688 641.753282,469.082603 C635.169604,468.902125 629.2473,464.37012 627.593865,457.662351 C627.593865,457.662351 627.593865,457.662351 627.593865,457.651321 C625.94043,450.954582 629.056905,444.186653 634.788813,440.948074 C628.495739,439.15332 623.886162,433.357968 623.886162,426.488772 C623.886162,419.590498 628.525802,413.78512 634.848938,412.011421 C629.127051,408.742762 626.040638,401.963805 627.724136,395.276089 C629.407634,388.569323 635.349979,384.057371 641.943678,383.906972 C637.19381,379.323831 635.871062,371.985392 639.167911,365.908293 C642.45474,359.843227 649.319001,356.945551 655.732325,358.419456 C652.275142,352.814608 652.796225,345.384927 657.475947,340.311487 C662.15567,335.238048 669.510951,334.11407 675.363109,337.113015 C673.378987,330.836388 675.703817,323.756633 681.485829,319.987649 C687.257821,316.207636 694.673227,316.929548 699.623511,321.281076 C699.24272,314.703652 703.241027,308.406972 709.774601,306.181076 C716.318196,303.945153 723.322748,306.481873 727.040472,311.916268 C728.293074,305.458161 733.724358,300.355644 740.608661,299.813207 C747.57313,299.252722 753.8161,303.554117 756.000638,309.87085 C759.097071,303.764675 766.101624,300.375697 773.036031,302.100266 C780.01052,303.844887 784.630118,310.201726 784.429702,317.120053 C789.55034,312.507835 797.356558,311.895212 803.198695,316.066262 C808.980708,320.198207 810.96483,327.667995 808.3995,333.984728 C814.642471,331.458035 822.027814,333.403187 826.166412,339.098274 C830.244885,344.723174 829.874115,352.213015 825.715475,357.376693 C832.249049,356.71494 838.682415,360.424768 841.207661,366.830737 C843.702845,373.17755 841.588452,380.196142 836.477835,384.197742 C842.871117,384.989841 848.272339,389.872776 849.424733,396.560491 L849.434754,396.560491 C850.577127,403.198074 847.180069,409.574967 841.488244,412.502722 C847.55084,414.447875 851.929938,420.122908 851.929938,426.830677 L851.929938,426.971049 L851.929938,427.110418 C851.929938,433.829216 847.530798,439.5233 841.448161,441.449402 C847.129965,444.387185 850.506981,450.774104 849.334545,457.411687 C848.16211,464.099402 842.740847,468.971308 836.347564,469.744356 C841.43814,473.75498 843.522471,480.783599 841.007245,487.120385 C838.461957,493.527357 832.00855,497.207105 825.474976,496.525299 C829.613574,501.699004 829.954282,509.198871 825.845746,514.802716 C821.677085,520.487776 814.2717,522.383798 808.038751,519.827025 C810.574018,526.153785 808.539792,533.623572 802.727717,537.714409 C796.865538,541.855378 789.05932,541.193625 783.958723,536.551328 C784.119056,543.458625 779.459375,549.796414 772.474865,551.490903 C765.530437,553.175365 758.555947,549.746282 755.489577,543.620053 C753.405246,549.535724 747.773546,553.655637 741.33016,553.655637 C740.909285,553.655637 740.488411,553.636587 740.057516,553.596481 L740.057516,553.596481 Z M754.758057,531.868924 C756.39145,527.236653 760.259486,523.495744 765.390146,522.253453 C770.420597,521.040239 775.48111,522.504117 779.048522,525.75172 C778.948314,520.909894 781.172935,516.117198 785.421763,513.119256 C789.770798,510.061155 795.18204,509.618984 799.771575,511.494954 C797.907703,506.832603 798.418765,501.347072 801.605385,497.005571 C804.882193,492.544754 810.153144,490.408094 815.293824,490.949529 C812.037058,486.858692 811.004913,481.194688 813.079223,476.00093 C815.183595,470.706906 819.953505,467.267795 825.234476,466.626096 C821.035753,463.307304 818.740985,457.842829 819.733046,452.197875 C820.735128,446.492762 824.823622,442.110153 829.984344,440.466799 C825.16433,437.960159 821.867481,432.926826 821.867481,427.110418 L821.867481,426.971049 L821.867481,426.830677 C821.867481,420.995219 825.184372,415.941833 830.034448,413.445219 C824.873727,411.790837 820.795253,407.389177 819.803192,401.684064 C818.831173,396.028081 821.145982,390.574635 825.364747,387.26587 C820.083775,386.604117 815.313865,383.15498 813.229535,377.85093 C811.185288,372.636116 812.237474,366.972112 815.514282,362.900325 C810.373602,363.412683 805.102651,361.256972 801.845885,356.7751 C798.679306,352.412543 798.198307,346.918991 800.082221,342.265664 C795.482665,344.111554 790.071423,343.650332 785.742429,340.551122 C781.503622,337.53413 779.309063,332.721381 779.439334,327.888579 C775.851881,331.106102 770.791367,332.540903 765.760916,331.287583 C760.650298,330.01421 756.802304,326.25425 755.198973,321.620976 C752.904205,326.123904 748.384816,329.362483 742.983595,329.793625 C737.42204,330.233792 732.331464,327.587782 729.385344,323.295412 C728.383262,328.399934 724.755725,332.851726 719.484774,334.646481 C714.203803,336.451262 708.622207,335.147809 704.704067,331.708699 C705.004691,336.912483 702.589674,342.126295 697.919972,345.174369 C693.24025,348.222444 687.498321,348.342762 682.858681,345.976494 C684.421929,350.948665 683.359722,356.593619 679.571853,360.705511 C675.783983,364.806375 670.242471,366.329409 665.161915,365.167331 C667.897599,369.59907 668.258348,375.34429 665.592811,380.247278 C662.937294,385.160292 657.936905,387.987782 652.7361,388.118127 C656.473865,391.737716 658.237529,397.201189 656.874698,402.616534 C655.511867,408.030876 651.383289,412.011421 646.37288,413.425166 C650.90229,416.012019 653.948619,420.894954 653.948619,426.488772 C653.948619,432.104648 650.872228,437.007636 646.312755,439.584462 C651.323164,441.01826 655.4317,445.018858 656.77449,450.443227 C658.107259,455.856567 656.333574,461.312019 652.585788,464.911554 C657.776572,465.071979 662.756919,467.919522 665.392394,472.842563 L665.392394,472.832537 C668.03789,477.755578 667.657099,483.480744 664.911395,487.901454 C669.99195,486.768453 675.523442,488.313546 679.29127,492.434462 L679.281249,492.434462 C683.049077,496.565405 684.091242,502.220385 682.507953,507.183533 C687.157613,504.837317 692.899542,504.977689 697.559223,508.045817 C702.218904,511.122968 704.613879,516.347809 704.293213,521.541567 C708.221374,518.12251 713.823012,516.848134 719.093963,518.673971 C724.354892,520.487776 727.962387,524.950598 728.944427,530.064143 C731.900569,525.782802 737.011187,523.154841 742.56272,523.627092 C747.973963,524.077284 752.483331,527.346946 754.758057,531.868924 L754.758057,531.868924 Z" id="Fill-43" fill="#A9D163" sketch:type="MSShapeGroup"></path>
                <path d="M812.15831,427.110418 C812.15831,488.909124 772.975906,539.00583 750.752736,539.00583 C688.990421,539.00583 638.921399,488.908121 638.921399,427.110418 L638.921399,426.345392 C638.921399,364.546687 688.989418,314.44998 750.752736,314.448977 C782.221113,314.448977 812.15831,364.547689 812.15831,426.346394 L812.15831,427.110418" id="Fill-44" fill="#D0D766" sketch:type="MSShapeGroup"></path>
                <path d="M743.274198,553.826089 C736.029146,553.404973 730.297238,547.931474 729.275115,541.023174 C725.817932,547.089243 718.482693,550.117264 711.578348,547.871315 C704.674004,545.634389 700.505344,538.866461 701.276947,531.929084 C696.396808,536.922311 688.530465,537.985126 682.417765,534.074768 C676.315087,530.164409 673.990257,522.5733 676.47542,516.056036 C670.503012,519.656574 662.626648,518.70405 657.696405,513.389973 C652.776183,508.075896 652.425455,500.143884 656.463845,494.458825 C649.779958,496.445086 642.394615,493.54741 638.957474,487.160491 C635.520333,480.773572 637.183789,473.002988 642.534906,468.521116 C635.550396,468.751726 629.137071,464.069323 627.433532,457.020651 C625.729993,449.961952 629.297405,442.873174 635.6005,439.894283 C628.836447,438.371248 623.826037,432.285126 623.896183,425.076029 C623.966329,417.826826 629.147092,411.819914 635.981291,410.467331 C629.758362,407.318991 626.391367,400.128944 628.285302,393.131408 C630.179237,386.122842 636.722831,381.61089 643.697321,382.042032 C638.466454,377.409761 637.013435,369.59907 640.62093,363.30239 C644.228425,357.00571 651.693935,354.308566 658.317696,356.474303 C654.429618,350.678951 654.990784,342.766992 660.061319,337.58326 C665.131853,332.400531 673.028258,331.658566 678.900458,335.418526 C676.585649,328.841102 679.120916,321.321182 685.323803,317.570246 C691.536711,313.821315 699.372991,315.094688 704.112838,320.21826 C703.531631,313.259827 707.890687,306.622244 714.845135,304.566799 C721.799584,302.521381 729.054656,305.72988 732.341485,311.886189 C733.554004,305.017995 739.436225,299.703918 746.681277,299.473307 C754.758057,299.222643 761.552172,305.388977 762.1434,313.380146 C767.334185,307.324104 776.423067,306.361554 782.786287,311.314675 C788.788758,316.007105 790.271839,324.349203 786.534074,330.756175 C793.21796,328.209429 800.964053,330.746149 804.761943,337.102988 C808.459625,343.289376 807.197002,351.069987 802.136489,355.801521 C808.950645,355.160823 815.564386,359.261687 817.809049,366.049668 C820.02365,372.767463 817.257904,379.936454 811.515975,383.525963 C818.229924,384.157636 823.901707,389.281208 824.953893,396.259695 C826.006079,403.208101 822.128022,409.755445 815.935156,412.362351 C822.408605,414.035784 827.188536,419.922377 827.188536,426.920916 L827.188536,427.011155 L827.188536,427.110418 C827.188536,434.21925 822.258293,440.186056 815.624511,441.750199 C821.827398,444.54761 825.535101,451.325564 824.192311,458.30405 C822.849521,465.27251 816.897155,470.184522 810.10304,470.475292 C815.674615,474.376627 818.069591,481.715066 815.474198,488.313546 C812.868786,494.941102 806.084691,498.670983 799.330659,497.68838 C804.11059,502.601394 805.052547,510.331873 801.184511,516.337782 C797.236308,522.443958 789.620486,524.74004 783.096933,522.193293 C786.764552,528.389708 785.552033,536.511222 779.870229,541.323971 C773.707425,546.547809 764.558418,545.946215 759.127134,540.060624 C758.475781,547.871315 751.932186,553.857171 744.156031,553.857171 C743.865427,553.857171 743.564802,553.847145 743.274198,553.826089 L743.274198,553.826089 Z M720.857627,519.265538 C726.459264,521.080345 730.267176,525.893094 731.088883,531.35757 C733.834587,526.554847 739.125579,523.455637 745.017821,523.797543 C749.056211,524.037178 752.633643,525.842961 755.178931,528.600266 C755.499598,524.77012 757.273282,521.050266 760.439861,518.373174 C764.798917,514.682397 770.641055,513.901328 775.611381,515.826428 C772.815573,511.083865 772.735406,504.967663 775.932047,500.013539 C779.218876,494.920046 785.071034,492.484595 790.702734,493.285717 C786.724469,489.185857 785.27145,482.968386 787.496072,477.294356 C789.740736,471.59927 795.071811,468.039841 800.80372,467.77915 C796.103956,464.480412 793.508563,458.613871 794.670978,452.608964 C795.823373,446.613081 800.382845,442.141235 805.964441,440.816726 C800.753616,438.451461 797.126079,433.20757 797.126079,427.110418 L797.126079,427.011155 L797.126079,426.920916 C797.126079,420.683393 800.913949,415.340239 806.31517,413.06421 C800.663428,411.590305 796.15406,406.877822 795.232144,400.741567 C794.310229,394.635392 797.196225,388.84004 802.106426,385.750857 C796.364497,385.200398 791.193754,381.340173 789.269757,375.504714 L789.259736,375.504714 C787.365802,369.759495 789.119445,363.6834 793.258043,359.793094 C787.676447,360.313473 782.034726,357.676487 778.958334,352.533865 C776.052297,347.670983 776.21263,341.825498 778.868147,337.24336 C774.1283,339.038114 768.596808,338.386388 764.307897,335.036514 C760.820652,332.330345 758.866593,328.388904 758.555947,324.309097 C755.90043,327.397278 752.012353,329.40259 747.633255,329.542961 L747.623234,329.542961 C741.730992,329.72344 736.510146,326.484861 733.904733,321.611952 C732.932713,327.055372 729.004552,331.758831 723.34279,333.42324 C717.681027,335.087649 711.828869,333.272842 708.071062,329.222112 C708.521999,334.73672 705.906565,340.281408 700.846051,343.329482 C695.795559,346.377556 689.662817,346.105837 685.003137,343.128951 C686.816905,348.352789 685.684552,354.388778 681.555975,358.619987 C677.417377,362.841169 671.414906,364.113539 666.153976,362.398997 C669.230368,367.002191 669.641221,373.12842 666.705121,378.262019 C663.769022,383.385591 658.277613,386.122842 652.756142,385.791965 C656.89474,389.461687 658.838779,395.287118 657.305593,400.982205 C655.762387,406.677291 651.152811,410.728021 645.731548,411.81089 C650.66179,414.31753 654.018765,419.461155 653.95864,425.366799 C653.898515,431.31255 650.401249,436.426096 645.370798,438.811414 C650.761999,440.035657 655.271367,444.206707 656.65424,449.951926 C658.037113,455.686116 655.942762,461.442364 651.713976,465.001793 C657.235448,464.831341 662.64669,467.717988 665.432477,472.912749 C668.228286,478.116534 667.657099,484.221707 664.460458,488.733659 C669.761471,487.170518 675.733879,488.604316 679.752228,492.93579 C683.760555,497.277291 684.742595,503.34336 682.778515,508.517065 C687.518362,505.669522 693.661124,505.55923 698.63145,508.746673 C703.601777,511.925093 706.066898,517.550996 705.465649,523.045551 C708.271478,520.187981 712.149535,518.52257 716.207967,518.52257 C717.751173,518.52257 719.314421,518.76421 720.857627,519.265538 L720.857627,519.265538 Z" id="Fill-45" fill="#D0D766" sketch:type="MSShapeGroup"></path>
                <path d="M1194.26416,483.074668 C1194.26416,476.366899 1188.82987,470.930498 1182.12594,470.930498 C1175.42301,470.930498 1169.98872,476.366899 1169.98872,483.074668 L1169.98872,638.899449 L1194.26416,638.899449 L1194.26416,483.074668" id="Fill-46" fill="#9A7459" sketch:type="MSShapeGroup"></path>
                <path d="M1299.83148,424.292955 C1299.83148,481.61079 1252.71159,528.077882 1194.58583,528.077882 C1136.46107,528.077882 1089.34017,481.61079 1089.34017,424.292955 L1089.34017,423.783606 C1089.34017,366.46577 1136.46107,319.998679 1194.58583,319.997676 C1252.71159,319.997676 1299.83148,366.46577 1299.83148,423.783606 L1299.83148,424.292955" id="Fill-47" fill="#5AB55C" sketch:type="MSShapeGroup"></path>
                <path d="M1186.23448,542.836979 L1186.23448,542.836979 C1178.9293,542.335651 1173.19739,536.690697 1172.3356,529.673108 C1168.78823,535.789309 1161.29266,538.727092 1154.36827,536.310691 C1147.44389,533.884263 1143.41552,526.89575 1144.4677,519.897211 C1139.41721,524.850332 1131.40056,525.67251 1125.37804,521.481408 C1119.35553,517.290305 1117.34135,509.489641 1120.22734,503.021507 C1114.02446,506.441567 1106.07795,505.087981 1101.39822,499.431999 C1101.39822,499.431999 1101.39822,499.431999 1101.39822,499.422975 C1096.7185,493.767995 1096.87883,485.696614 1101.40824,480.242165 C1094.5039,481.856441 1087.20874,478.387251 1084.2526,471.659429 C1081.28644,464.920578 1083.65135,457.1901 1089.50351,453.179475 C1082.41879,452.829548 1076.36622,447.475365 1075.37416,440.176029 C1074.39212,432.906773 1078.78124,426.138845 1085.48516,423.902922 C1078.78124,421.635916 1074.41216,414.867988 1075.41424,407.589708 C1076.42634,400.300398 1082.49896,394.956242 1089.5937,394.625365 C1083.74154,390.603712 1081.38665,382.86421 1084.37285,376.136388 C1087.35906,369.408566 1094.65421,365.959429 1101.55856,367.593758 C1097.04919,362.129283 1096.9089,354.046873 1101.60866,348.401919 C1106.2984,342.757968 1114.24491,341.424436 1120.43778,344.852517 C1117.57183,338.386388 1119.60605,330.585724 1125.63858,326.414675 C1131.6611,322.233599 1139.67775,323.084854 1144.71822,328.049004 C1143.68608,321.039436 1147.73449,314.071979 1154.65888,311.665604 C1161.58326,309.258227 1169.07883,312.217065 1172.60616,318.343293 C1173.48799,311.324701 1179.22992,305.699801 1186.54512,305.218526 C1193.8503,304.737251 1200.27364,309.560027 1202.05735,316.388114 C1204.75295,309.860823 1211.77754,305.940438 1218.95245,307.404316 C1226.13738,308.858167 1231.07764,315.234057 1230.98745,322.313811 C1235.32647,316.718991 1243.15273,314.803918 1249.6863,318.142762 C1256.2299,321.47158 1259.28625,328.931341 1257.30212,335.729349 C1262.97391,331.498141 1271.03065,331.748805 1276.44189,336.71095 C1281.84311,341.6751 1282.79509,349.686321 1279.06734,355.712284 C1285.67106,353.155511 1293.36705,355.581939 1297.23509,361.828486 C1297.23509,361.828486 1297.23509,361.828486 1297.23509,361.817457 C1301.11314,368.075033 1299.85052,376.056175 1294.60963,380.848871 C1301.67431,380.196142 1308.42834,384.648938 1310.43251,391.726687 C1312.43667,398.806441 1309.01957,406.135857 1302.66637,409.294223 C1309.6108,410.617729 1314.86171,416.723904 1314.86171,424.062344 L1314.86171,424.183665 L1314.86171,424.293958 C1314.86171,431.643426 1309.59076,437.759628 1302.62629,439.073108 C1308.96947,442.240498 1312.36652,449.580943 1310.34232,456.659695 C1308.31811,463.72842 1301.55406,468.170186 1294.48938,467.498406 C1299.71023,472.291102 1300.95281,480.282271 1297.06473,486.528818 C1293.17666,492.755312 1285.47065,495.161687 1278.87695,492.594887 C1282.58465,498.62085 1281.62265,506.632072 1276.20139,511.575166 C1270.78012,516.517258 1262.73341,516.758898 1257.07164,512.517663 C1259.0257,519.314668 1255.94931,526.765405 1249.40572,530.084197 C1242.86212,533.391959 1235.04588,531.467862 1230.72691,525.863015 C1230.78704,532.941766 1225.83675,539.287576 1218.65183,540.732404 C1211.4669,542.176228 1204.45232,538.23579 1201.78679,531.698473 C1200.06321,538.194681 1194.1409,542.868061 1187.26662,542.868061 C1186.92591,542.868061 1186.5852,542.858035 1186.23448,542.836979 L1186.23448,542.836979 Z M1201.1655,522.112078 C1202.58845,516.758898 1206.93749,512.407371 1212.73954,511.24429 L1212.72952,511.24429 C1218.52155,510.080206 1224.19334,512.417397 1227.58037,516.788977 C1227.54029,511.253313 1230.55656,505.909157 1235.82751,503.243094 C1241.08844,500.576029 1247.1811,501.307968 1251.6103,504.606707 C1250.09715,499.292629 1251.58024,493.336853 1255.93929,489.356308 C1260.28833,485.38579 1266.35092,484.45332 1271.50162,486.437576 C1268.61563,481.736122 1268.43525,475.609894 1271.55173,470.605637 C1274.6682,465.613413 1280.22976,463.076693 1285.71115,463.587045 C1281.66273,459.858167 1279.82892,454.032736 1281.44228,448.387782 C1283.05563,442.732802 1287.69527,438.771308 1293.09649,437.739575 C1288.17627,435.262012 1284.79925,430.169522 1284.79925,424.293958 L1284.79925,424.183665 L1284.79925,424.062344 C1284.79925,418.167729 1288.19631,413.06421 1293.13657,410.597676 C1287.73535,409.554914 1283.10573,405.574369 1281.5024,399.918386 C1279.90909,394.264409 1281.76294,388.449004 1285.82137,384.72915 C1280.33999,385.220452 1274.77843,382.673705 1271.682,377.670452 C1268.57554,372.667198 1268.77596,366.539967 1271.67198,361.838513 C1266.51126,363.813745 1260.45868,362.871248 1256.11967,358.880677 C1251.76061,354.890106 1250.29757,348.924303 1251.83076,343.610226 C1247.40155,346.908964 1241.29888,347.62085 1236.03795,344.932729 C1230.77702,342.25664 1227.77077,336.89243 1227.8309,331.356766 C1224.43384,335.729349 1218.75203,338.055511 1212.96,336.871375 C1207.16797,335.69927 1202.83897,331.327689 1201.41602,325.972503 C1199.2916,331.097078 1194.41146,334.847012 1188.49918,335.238048 C1182.60694,335.618054 1177.28588,332.55093 1174.51012,327.758234 C1173.80866,333.24176 1170.10096,338.135724 1164.52938,340.080876 C1158.94779,342.015 1153.00544,340.481939 1149.05724,336.60166 C1149.8589,342.076162 1147.5942,347.780272 1142.7341,351.150199 C1137.88402,354.508094 1131.75128,354.619389 1126.91123,351.942297 C1129.13585,357.00571 1128.4845,363.101859 1124.71667,367.643891 C1120.94884,372.174894 1115.08666,373.929542 1109.7155,372.667198 C1113.21277,376.918459 1114.23489,382.953446 1111.84994,388.338712 C1109.46498,393.702922 1104.3243,396.990631 1098.83289,397.262351 C1103.3623,400.379608 1105.99778,405.885193 1105.19611,411.710624 C1104.39445,417.556109 1100.326,422.148274 1095.09513,423.912948 C1100.326,425.687649 1104.37441,430.288838 1105.16605,436.145352 C1105.9577,441.960757 1103.30218,447.455312 1098.77277,450.573572 C1104.25416,450.854316 1109.39484,454.153054 1111.75975,459.527291 C1114.12466,464.911554 1113.09252,470.936514 1109.58523,475.188778 C1114.95639,473.944482 1120.80855,475.710159 1124.56636,480.251189 C1128.32416,484.803247 1128.9655,490.900398 1126.72083,495.953785 C1131.56089,493.296746 1137.70365,493.416062 1142.54371,496.795013 C1147.39378,500.16494 1149.63845,505.88008 1148.82676,511.354582 C1152.78498,507.493353 1158.73735,505.970319 1164.30892,507.914469 L1164.30892,507.925498 C1169.8805,509.870651 1173.57818,514.773639 1174.2596,520.268194 C1177.04539,515.474495 1182.37646,512.426421 1188.2687,512.828486 L1188.2687,512.818459 C1194.18099,513.218519 1199.0511,516.978479 1201.1655,522.112078 L1201.1655,522.112078 Z" id="Fill-48" fill="#5AB55C" sketch:type="MSShapeGroup"></path>
                <path d="M1268.27592,427.110418 C1268.27592,488.909124 1234.54885,539.00583 1182.12794,539.00583 C1120.36463,539.00583 1070.29561,488.908121 1070.29561,427.110418 L1070.29561,426.345392 C1070.29561,364.546687 1120.36363,314.44998 1182.12794,314.448977 C1234.54885,314.448977 1268.27592,364.547689 1268.27592,426.346394 L1268.27592,427.110418" id="Fill-49" fill="#A9D163" sketch:type="MSShapeGroup"></path>
                <path d="M1171.43373,553.596481 L1171.43373,553.596481 C1164.55944,553.024967 1159.1482,547.901394 1157.92566,541.434263 C1154.17788,546.858632 1147.1633,549.354243 1140.63975,547.098267 C1134.10618,544.833267 1130.12791,538.52656 1130.54879,531.949137 C1125.57846,536.279608 1118.16305,536.962417 1112.39106,533.162351 C1106.62909,529.362284 1104.33432,522.273506 1106.34851,516.006906 C1100.47631,518.983792 1093.13105,517.83174 1088.47137,512.738247 C1083.82171,507.644754 1083.32067,500.215073 1086.80791,494.629276 C1080.38457,496.064077 1073.54035,493.146348 1070.28358,487.059223 C1067.01679,480.974104 1068.3696,473.644688 1073.11947,469.082603 C1066.53579,468.902125 1060.62351,464.37012 1058.97008,457.662351 C1058.97008,457.662351 1058.97008,457.662351 1058.97008,457.651321 C1057.30662,450.954582 1060.43312,444.186653 1066.155,440.948074 C1059.87195,439.15332 1055.26237,433.357968 1055.26237,426.488772 C1055.26237,419.590498 1059.90201,413.78512 1066.21513,412.011421 C1060.50326,408.742762 1057.40683,401.963805 1059.10035,395.276089 C1060.78384,388.569323 1066.72619,384.057371 1073.30987,383.906972 C1068.57002,379.323831 1067.24727,371.985392 1070.54412,365.908293 C1073.83095,359.833201 1080.69521,356.945551 1087.10854,358.419456 C1083.65135,352.814608 1084.17244,345.384927 1088.85216,340.311487 C1093.52186,335.238048 1100.87714,334.11407 1106.73932,337.113015 C1104.7552,330.836388 1107.08003,323.756633 1112.86204,319.987649 C1112.86204,319.987649 1112.86204,319.987649 1112.85202,319.987649 C1118.63403,316.207636 1126.04944,316.929548 1130.99972,321.281076 C1130.61893,314.703652 1134.61724,308.406972 1141.15081,306.181076 C1147.68439,303.945153 1154.69896,306.481873 1158.41668,311.916268 C1159.66929,305.458161 1165.10057,300.355644 1171.97485,299.813207 C1178.94934,299.252722 1185.19231,303.554117 1187.37685,309.87085 C1190.47328,303.764675 1197.47783,300.375697 1204.41224,302.100266 C1211.38673,303.844887 1216.00633,310.201726 1215.79589,317.120053 C1220.92655,312.507835 1228.73277,311.895212 1234.57491,316.066262 C1240.35692,320.198207 1242.34104,327.667995 1239.76569,333.984728 C1246.01868,331.458035 1253.40402,333.403187 1257.54262,339.098274 C1261.6211,344.723174 1261.25033,352.213015 1257.09169,357.376693 C1263.62526,356.71494 1270.05863,360.424768 1272.58387,366.830737 C1275.07906,373.17755 1272.96466,380.196142 1267.85405,384.197742 C1274.24733,384.989841 1279.64855,389.872776 1280.80094,396.560491 C1281.95334,403.198074 1278.55628,409.574967 1272.86446,412.502722 C1278.92705,414.437849 1283.30615,420.122908 1283.30615,426.830677 L1283.30615,426.971049 L1283.30615,427.110418 C1283.30615,433.829216 1278.90701,439.5233 1272.82437,441.449402 C1278.50618,444.387185 1281.88319,450.774104 1280.71076,457.411687 C1279.53832,464.099402 1274.11706,468.971308 1267.71375,469.744356 C1272.81435,473.75498 1274.89868,480.783599 1272.38346,487.120385 C1269.83817,493.527357 1263.38476,497.207105 1256.85119,496.525299 C1260.98978,501.699004 1261.33049,509.198871 1257.22196,514.802716 C1253.0533,520.487776 1245.64791,522.383798 1239.41496,519.827025 C1241.95023,526.153785 1239.916,533.623572 1234.10393,537.714409 C1228.23173,541.855378 1220.43553,541.193625 1215.33493,536.551328 C1215.49527,543.458625 1210.83559,549.796414 1203.84105,551.490903 C1196.90665,553.175365 1189.93216,549.746282 1186.86579,543.620053 C1184.78146,549.535724 1179.14976,553.655637 1172.70637,553.655637 C1172.2855,553.655637 1171.86462,553.636587 1171.43373,553.596481 L1171.43373,553.596481 Z M1173.93893,523.627092 C1179.35017,524.077284 1183.85954,527.346946 1186.12425,531.868924 C1187.76766,527.236653 1191.6357,523.495744 1196.76636,522.253453 C1201.79681,521.040239 1206.85732,522.504117 1210.42473,525.75172 C1210.32452,520.909894 1212.54915,516.117198 1216.79797,513.119256 C1221.14701,510.061155 1226.55825,509.618984 1231.13777,511.494954 C1229.28391,506.832603 1229.79498,501.347072 1232.9816,497.005571 C1236.2584,492.544754 1241.52935,490.408094 1246.67003,490.949529 C1243.41327,486.858692 1242.38112,481.194688 1244.44541,476.00093 C1246.54978,470.706906 1251.32972,467.267795 1256.61069,466.626096 C1252.41196,463.307304 1250.1172,457.842829 1251.10926,452.197875 C1252.11134,446.492762 1256.19983,442.110153 1261.36056,440.466799 C1256.54054,437.960159 1253.24369,432.926826 1253.24369,427.110418 L1253.24369,426.971049 L1253.24369,426.830677 C1253.24369,420.995219 1256.56058,415.941833 1261.40064,413.445219 C1256.24994,411.790837 1252.16144,407.389177 1251.1794,401.684064 C1250.20738,396.028081 1252.52219,390.574635 1256.73094,387.26587 C1251.44997,386.604117 1246.69008,383.15498 1244.60575,377.85093 C1242.5615,372.636116 1243.61368,366.972112 1246.89049,362.900325 C1241.74981,363.412683 1236.47886,361.256972 1233.2221,356.7751 C1230.05552,352.412543 1229.57452,346.918991 1231.45843,342.265664 C1226.85888,344.111554 1221.44763,343.650332 1217.11864,340.551122 L1217.10862,340.551122 C1212.87983,337.53413 1210.68527,332.721381 1210.81554,327.888579 C1207.22809,331.106102 1202.16758,332.540903 1197.13713,331.287583 C1192.02651,330.01421 1188.17851,326.25425 1186.56516,321.620976 C1184.2704,326.123904 1179.76103,329.362483 1174.35981,329.793625 C1168.79825,330.233792 1163.70768,327.587782 1160.76155,323.295412 C1159.75947,328.399934 1156.13194,332.851726 1150.86099,334.646481 C1145.58001,336.451262 1139.9884,335.147809 1136.08028,331.708699 C1136.3809,336.912483 1133.96588,342.126295 1129.28616,345.174369 C1124.61646,348.23247 1118.87453,348.342762 1114.23489,345.976494 C1115.79814,350.948665 1114.73593,356.593619 1110.94806,360.705511 C1107.16019,364.806375 1101.61868,366.329409 1096.53813,365.167331 C1099.27381,369.59907 1099.62454,375.34429 1096.96902,380.247278 C1094.30348,385.160292 1089.31312,387.987782 1084.11231,388.118127 C1087.85008,391.737716 1089.61374,397.201189 1088.25091,402.616534 C1086.88808,408.030876 1082.7595,412.011421 1077.74909,413.425166 C1082.2785,416.012019 1085.32483,420.894954 1085.32483,426.488772 C1085.32483,432.104648 1082.24844,437.007636 1077.68897,439.584462 C1082.68935,441.01826 1086.80791,445.018858 1088.1507,450.443227 C1089.48347,455.856567 1087.70978,461.312019 1083.95198,464.911554 C1089.15278,465.071979 1094.13313,467.919522 1096.76861,472.842563 L1096.76861,472.832537 C1099.40408,477.755578 1099.03331,483.480744 1096.28761,487.901454 C1101.36816,486.768453 1106.89965,488.313546 1110.65746,492.434462 C1114.42529,496.565405 1115.46745,502.220385 1113.88416,507.183533 C1118.53382,504.837317 1124.27575,504.977689 1128.93543,508.045817 C1133.59511,511.122968 1135.99009,516.347809 1135.66942,521.541567 C1139.59759,518.12251 1145.1892,516.848134 1150.46015,518.673971 L1150.47017,518.673971 C1155.7311,520.487776 1159.3386,524.950598 1160.32064,530.064143 C1163.05632,526.113679 1167.61579,523.566932 1172.67631,523.566932 C1173.08716,523.575956 1173.51806,523.586985 1173.93893,523.627092 L1173.93893,523.627092 Z" id="Fill-50" fill="#A9D163" sketch:type="MSShapeGroup"></path>
                <path d="M1243.53252,427.110418 C1243.53252,488.909124 1204.35011,539.00583 1182.12794,539.00583 C1120.36463,539.00583 1070.29561,488.908121 1070.29561,427.110418 L1070.29561,426.345392 C1070.29561,364.546687 1120.36363,314.44998 1182.12794,314.448977 C1213.59532,314.448977 1243.53252,364.547689 1243.53252,426.346394 L1243.53252,427.110418" id="Fill-51" fill="#D0D766" sketch:type="MSShapeGroup"></path>
                <path d="M1174.64039,553.826089 C1167.40536,553.404973 1161.66343,547.931474 1160.65133,541.023174 C1157.19414,547.089243 1149.8589,550.117264 1142.95456,547.871315 C1136.05022,545.634389 1131.88155,538.866461 1132.65316,531.929084 C1127.77302,536.922311 1119.90668,537.985126 1113.79398,534.074768 C1107.6913,530.164409 1105.35645,522.5733 1107.85163,516.056036 C1101.87922,519.656574 1094.00286,518.70405 1089.07262,513.389973 C1084.15239,508.075896 1083.79164,500.143884 1087.83003,494.458825 C1081.14615,496.445086 1073.77083,493.54741 1070.33368,487.160491 C1066.89654,480.773572 1068.56,473.002988 1073.9011,468.521116 C1066.92661,468.751726 1060.51328,464.069323 1058.80974,457.020651 C1057.1062,449.961952 1060.67362,442.873174 1066.97671,439.894283 C1060.21266,438.361222 1055.20225,432.285126 1055.27239,425.076029 C1055.34254,417.826826 1060.5233,411.819914 1067.3575,410.467331 C1061.13457,407.318991 1057.75756,400.128944 1059.65149,393.131408 C1061.55545,386.112815 1068.09904,381.61089 1075.07353,382.042032 C1069.83264,377.409761 1068.38965,369.59907 1071.99714,363.30239 C1075.60464,357.00571 1083.06012,354.308566 1089.69391,356.474303 C1085.80583,350.678951 1086.367,342.766992 1091.43753,337.58326 C1096.50806,332.400531 1104.39445,331.658566 1110.26665,335.418526 C1107.96186,328.841102 1110.49713,321.321182 1116.70001,317.570246 C1122.91292,313.821315 1130.7492,315.094688 1135.48905,320.21826 C1134.90784,313.259827 1139.2669,306.622244 1146.22135,304.566799 C1153.17579,302.521381 1160.43087,305.72988 1163.7177,311.886189 C1164.93022,305.017995 1170.81244,299.703918 1178.05749,299.473307 C1178.05749,299.473307 1178.05749,299.473307 1178.04747,299.473307 C1186.13427,299.222643 1192.91836,305.388977 1193.51961,313.380146 C1198.7104,307.324104 1207.79928,306.361554 1214.1625,311.314675 C1220.16497,316.007105 1221.64805,324.349203 1217.91028,330.756175 C1224.59417,328.209429 1232.34026,330.746149 1236.13815,337.102988 C1239.83584,343.289376 1238.57321,351.069987 1233.50268,355.801521 C1240.32686,355.160823 1246.93058,359.261687 1249.17524,366.049668 C1251.39986,372.767463 1248.63412,379.936454 1242.89219,383.525963 C1249.59611,384.157636 1255.27792,389.291235 1256.3301,396.259695 C1257.37227,403.208101 1253.49421,409.755445 1247.31137,412.362351 C1253.78482,414.035784 1258.56475,419.922377 1258.56475,426.920916 L1258.56475,427.011155 L1258.56475,427.110418 C1258.56475,434.21925 1253.62448,440.186056 1247.00072,441.750199 C1253.20361,444.54761 1256.91131,451.325564 1255.56852,458.30405 C1254.21571,465.27251 1248.27337,470.184522 1241.47925,470.475292 C1247.05083,474.376627 1249.4458,481.715066 1246.85041,488.313546 C1244.245,494.941102 1237.4609,498.670983 1230.70687,497.68838 C1235.4868,502.601394 1236.42876,510.331873 1232.5507,516.337782 C1228.61252,522.443958 1220.98668,524.74004 1214.47314,522.193293 C1218.14076,528.389708 1216.91822,536.511222 1211.24644,541.323971 C1205.08364,546.547809 1195.92461,545.946215 1190.49332,540.060624 C1189.85199,547.871315 1183.3084,553.857171 1175.53224,553.857171 C1175.24164,553.857171 1174.94101,553.847145 1174.64039,553.826089 L1174.64039,553.826089 Z M1152.23384,519.265538 C1157.83548,521.080345 1161.64339,525.893094 1162.46509,531.35757 C1165.2108,526.554847 1170.50179,523.455637 1176.39403,523.797543 C1180.43242,524.037178 1184.00985,525.842961 1186.55514,528.600266 C1186.87581,524.77012 1188.64949,521.060292 1191.81607,518.373174 C1196.16511,514.682397 1202.00724,513.901328 1206.98759,515.826428 C1204.18176,511.083865 1204.11162,504.967663 1207.29824,500.013539 C1210.59509,494.920046 1216.44724,492.484595 1222.07895,493.285717 C1218.09066,489.185857 1216.63764,482.968386 1218.87228,477.294356 C1221.11695,471.59927 1226.438,468.039841 1232.17993,467.77915 C1227.48017,464.480412 1224.88477,458.613871 1226.04719,452.608964 C1227.19958,446.613081 1231.75906,442.141235 1237.33063,440.816726 C1232.11981,438.451461 1228.50229,433.20757 1228.50229,427.110418 L1228.50229,427.011155 L1228.50229,426.920916 C1228.50229,420.683393 1232.29016,415.340239 1237.68136,413.06421 C1232.03964,411.590305 1227.53027,406.877822 1226.59833,400.741567 C1225.68644,394.635392 1228.57244,388.84004 1233.48264,385.750857 C1227.73069,385.200398 1222.56997,381.340173 1220.63595,375.504714 C1218.74201,369.759495 1220.49566,363.6834 1224.63425,359.793094 C1219.05266,360.313473 1213.40092,357.676487 1210.33455,352.533865 C1207.42851,347.670983 1207.58884,341.825498 1210.24436,337.24336 C1205.50451,339.038114 1199.963,338.386388 1195.67409,335.036514 C1192.19686,332.330345 1190.23278,328.388904 1189.93216,324.309097 C1187.27664,327.397278 1183.38856,329.40259 1178.99944,329.542961 C1173.1072,329.72344 1167.88636,326.484861 1165.27092,321.611952 C1164.30892,327.055372 1160.37074,331.758831 1154.719,333.42324 C1149.05724,335.087649 1143.20508,333.272842 1139.44727,329.222112 C1139.88819,334.73672 1137.27276,340.281408 1132.22226,343.329482 C1127.17177,346.377556 1121.03903,346.105837 1116.36933,343.128951 C1118.19312,348.352789 1117.06076,354.388778 1112.92217,358.619987 C1108.79359,362.841169 1102.79112,364.113539 1097.53019,362.398997 C1100.59656,367.002191 1101.01743,373.12842 1098.08133,378.262019 C1095.14523,383.385591 1089.65382,386.122842 1084.13235,385.791965 C1088.27095,389.461687 1090.21499,395.287118 1088.67178,400.982205 C1087.1386,406.677291 1082.519,410.728021 1077.10776,411.81089 C1082.038,414.31753 1085.38495,419.461155 1085.33485,425.366799 C1085.27473,431.31255 1081.77746,436.426096 1076.74701,438.811414 C1082.13821,440.045684 1086.64758,444.206707 1088.03045,449.951926 C1089.41332,455.686116 1087.30895,461.442364 1083.09019,465.001793 C1088.61166,464.831341 1094.01288,467.717988 1096.80869,472.912749 C1099.6045,478.116534 1099.03331,484.221707 1095.83667,488.733659 C1101.13768,487.170518 1107.11009,488.604316 1111.11842,492.93579 C1115.13677,497.277291 1116.11881,503.34336 1114.14471,508.517065 C1118.89457,505.669522 1125.02731,505.55923 1130.00766,508.746673 C1134.97799,511.925093 1137.44311,517.550996 1136.84186,523.045551 C1139.64769,520.187981 1143.52575,518.52257 1147.58418,518.52257 C1149.12738,518.52257 1150.69063,518.76421 1152.23384,519.265538 L1152.23384,519.265538 Z" id="Fill-52" fill="#D0D766" sketch:type="MSShapeGroup"></path>
                <path d="M42.8941152,552.855518 C42.8941152,541.148506 33.4094101,531.658367 21.709102,531.658367 C10.009796,531.658367 0.525090909,541.148506 0.525090909,552.855518 C0.525090909,564.561527 10.009796,574.051667 21.709102,574.051667 C33.4094101,574.051667 42.8941152,564.561527 42.8941152,552.855518" id="Fill-53" fill="#5AB55C" sketch:type="MSShapeGroup"></path>
                <path d="M0.525090909,552.855518 L42.8941152,552.855518 L42.8941152,633.57334 L0.525090909,633.57334 L0.525090909,552.855518 Z" id="Fill-54" fill="#5AB55C" sketch:type="MSShapeGroup"></path>
                <path d="M91.5321638,568.932105 C91.5321638,584.16245 79.1925274,596.510159 63.9688994,596.510159 C48.7482776,596.510159 36.4076391,584.16245 36.4076391,568.932105 C36.4076391,553.700757 48.7482776,541.35405 63.9688994,541.35405 C79.1925274,541.35405 91.5321638,553.700757 91.5321638,568.932105" id="Fill-55" fill="#5AB55C" sketch:type="MSShapeGroup"></path>
                <path d="M111.451548,599.287517 C111.451548,609.687065 103.025041,618.1184 92.6304455,618.1184 C82.2358501,618.1184 73.8083414,609.687065 73.8083414,599.287517 C73.8083414,588.885963 82.2358501,580.455631 92.6304455,580.455631 C103.025041,580.455631 111.451548,588.885963 111.451548,599.287517" id="Fill-56" fill="#5AB55C" sketch:type="MSShapeGroup"></path>
                <path d="M128.033999,623.800452 C128.033999,632.605777 120.90118,639.74168 112.102901,639.74168 C103.304622,639.74168 96.1708008,632.605777 96.1708008,623.800452 C96.1708008,614.997131 103.304622,607.861228 112.102901,607.861228 C120.90118,607.861228 128.033999,614.997131 128.033999,623.800452" id="Fill-57" fill="#5AB55C" sketch:type="MSShapeGroup"></path>
                <path d="M30.4602831,611.917975 L112.102901,611.917975 L112.102901,633.368798 L30.4602831,633.368798 L30.4602831,611.917975 Z" id="Fill-58" fill="#5AB55C" sketch:type="MSShapeGroup"></path>
                <path d="M30.4602831,587.470212 L88.2413269,587.470212 L88.2413269,617.309256 L30.4602831,617.309256 L30.4602831,587.470212 Z" id="Fill-59" fill="#5AB55C" sketch:type="MSShapeGroup"></path>
                <path d="M110.494559,619.884077 C110.494559,627.475186 104.345785,633.626481 96.760025,633.626481 C89.1742651,633.626481 83.0254906,627.475186 83.0254906,619.884077 C83.0254906,612.294973 89.1742651,606.142676 96.760025,606.142676 C104.345785,606.142676 110.494559,612.294973 110.494559,619.884077" id="Fill-60" fill="#5AB55C" sketch:type="MSShapeGroup"></path>
                <path d="M0.576197085,591.228167 L33.3823539,591.228167 L33.3823539,637.734363 L0.576197085,637.734363 L0.576197085,591.228167 Z" id="Fill-61" fill="#A9D163" sketch:type="MSShapeGroup"></path>
                <path d="M33.3823539,591.228167 C33.3823539,600.292178 26.0380958,607.638639 16.9782734,607.638639 C7.91945316,607.638639 0.576197085,600.292178 0.576197085,591.228167 C0.576197085,582.163154 7.91945316,574.815691 16.9782734,574.815691 C26.0380958,574.815691 33.3823539,582.163154 33.3823539,591.228167" id="Fill-62" fill="#A9D163" sketch:type="MSShapeGroup"></path>
                <path d="M47.394465,608.379602 C47.394465,613.638533 43.1336128,617.902829 37.8786954,617.902829 C32.6217738,617.902829 28.3619237,613.638533 28.3619237,608.379602 C28.3619237,603.121673 32.6217738,598.857377 37.8786954,598.857377 C43.1336128,598.857377 47.394465,603.121673 47.394465,608.379602" id="Fill-63" fill="#A9D163" sketch:type="MSShapeGroup"></path>
                <path d="M67.1495073,629.613851 C67.1495073,640.332244 58.4674698,649.019256 47.7562165,649.019256 C37.0449632,649.019256 28.3619237,640.332244 28.3619237,629.613851 C28.3619237,618.897463 37.0449632,610.208446 47.7562165,610.208446 C58.4674698,610.208446 67.1495073,618.897463 67.1495073,629.613851" id="Fill-64" fill="#A9D163" sketch:type="MSShapeGroup"></path>
                <path d="M101.44576,639.742683 C101.44576,650.45907 92.7617183,659.147085 82.051467,659.147085 C71.3402137,659.147085 62.6581763,650.45907 62.6581763,639.742683 C62.6581763,629.02429 71.3402137,620.336275 82.051467,620.336275 C92.7617183,620.336275 101.44576,629.02429 101.44576,639.742683" id="Fill-65" fill="#A9D163" sketch:type="MSShapeGroup"></path>
                <path d="M1219.66393,690.331693 C1219.66393,683.204814 1225.43792,677.428513 1232.56072,677.428513 C1239.68352,677.428513 1245.45752,683.204814 1245.45752,690.331693" id="Fill-66" fill="#5AB55C" sketch:type="MSShapeGroup"></path>
                <path d="M369.369388,711.754442 C369.369388,704.628566 375.143384,698.851262 382.26518,698.851262 C389.38898,698.851262 395.161974,704.628566 395.161974,711.754442" id="Fill-67" fill="#5AB55C" sketch:type="MSShapeGroup"></path>
                <path d="M245.554154,680.498645 C245.554154,673.372769 251.32815,667.595465 258.450948,667.595465 C265.573746,667.595465 271.347742,673.372769 271.347742,680.498645" id="Fill-68" fill="#3B9F86" sketch:type="MSShapeGroup"></path>
                <path d="M973.152786,734.020425 C973.152786,726.894548 978.926781,721.117244 986.048577,721.117244 C993.171375,721.117244 998.945371,726.894548 998.945371,734.020425" id="Fill-69" fill="#3B9F86" sketch:type="MSShapeGroup"></path>
            </g>
        </g>
    </g>
</svg>