<?xml version="1.0" encoding="UTF-8" standalone="no"?>
<svg width="1440px" height="752px" viewBox="0 0 1440 752" version="1.1" xmlns="http://www.w3.org/2000/svg" xmlns:xlink="http://www.w3.org/1999/xlink" xmlns:sketch="http://www.bohemiancoding.com/sketch/ns">
    <!-- Generator: Sketch 3.3.2 (12043) - http://www.bohemiancoding.com/sketch -->
    <title>robson-park-piano</title>
    <desc>Created with Sketch.</desc>
    <defs></defs>
    <g id="Page-1" stroke="none" stroke-width="1" fill="none" fill-rule="evenodd" sketch:type="MSPage">
        <g id="robson-park-piano" sketch:type="MSArtboardGroup">
            <path d="M900.495067,719.117244 C900.495067,712.379396 895.035725,706.917928 888.302737,706.917928 L547.898526,706.917928 C541.164536,706.917928 535.705194,712.379396 535.705194,719.117244 C535.705194,725.85409 541.164536,731.31656 547.898526,731.31656 L888.302737,731.31656 C895.035725,731.31656 900.495067,725.85409 900.495067,719.117244" id="Fill-70" fill="#5AB55C" sketch:type="MSShapeGroup"></path>
            <path d="M967.771839,665.143267 L967.771839,665.143267 C967.771839,658.405418 962.313499,652.944954 955.580511,652.944954 L484.952752,652.944954 C482.427506,652.944954 480.081632,653.712988 478.135589,655.028473 C474.892852,657.221282 472.760422,660.933114 472.760422,665.143267 C472.760422,665.143267 472.760422,665.143267 472.760422,665.14427 C472.761424,671.882118 478.219764,677.342583 484.952752,677.342583 L955.580511,677.342583 C958.105757,677.342583 960.450629,676.574548 962.396672,675.259064 C965.639409,673.066255 967.771839,669.354422 967.771839,665.14427 L967.771839,665.143267" id="Fill-71" fill="#5AB55C" sketch:type="MSShapeGroup"></path>
            <path d="M934.446604,488.147404 C934.446604,479.746149 927.640464,472.935106 919.243017,472.935106 L518.80408,472.935106 C510.407636,472.935106 503.600494,479.746149 503.600494,488.147404 L503.600494,548.706826 L934.446604,548.706826 L934.446604,488.147404" id="Fill-72" fill="#91E8FF" sketch:type="MSShapeGroup"></path>
            <path d="M934.446604,488.147404 C934.446604,479.746149 927.640464,472.935106 919.243017,472.935106 L518.80408,472.935106 C510.407636,472.935106 503.600494,479.746149 503.600494,488.147404 L934.446604,488.147404" id="Fill-73" fill="#FF7F0B" sketch:type="MSShapeGroup"></path>
            <path d="M622.490495,485.082284 L658.899137,485.082284 L658.899137,528.748958 L622.490495,528.748958 L622.490495,485.082284 Z" id="Fill-74" fill="#FFFFFF" sketch:type="MSShapeGroup"></path>
            <path d="M626.079953,488.775066 L655.307675,488.775066 L655.307675,491.632636 L626.079953,491.632636 L626.079953,488.775066 Z" id="Fill-75" fill="#323232" sketch:type="MSShapeGroup"></path>
            <path d="M626.079953,494.444084 L655.307675,494.444084 L655.307675,497.300651 L626.079953,497.300651 L626.079953,494.444084 Z" id="Fill-76" fill="#323232" sketch:type="MSShapeGroup"></path>
            <path d="M626.079953,500.113101 L655.307675,500.113101 L655.307675,502.969668 L626.079953,502.969668 L626.079953,500.113101 Z" id="Fill-77" fill="#323232" sketch:type="MSShapeGroup"></path>
            <path d="M626.079953,505.782118 L655.307675,505.782118 L655.307675,508.639688 L626.079953,508.639688 L626.079953,505.782118 Z" id="Fill-78" fill="#323232" sketch:type="MSShapeGroup"></path>
            <path d="M626.079953,511.451135 L655.307675,511.451135 L655.307675,514.308705 L626.079953,514.308705 L626.079953,511.451135 Z" id="Fill-79" fill="#323232" sketch:type="MSShapeGroup"></path>
            <path d="M626.079953,517.120153 L655.307675,517.120153 L655.307675,519.97672 L626.079953,519.97672 L626.079953,517.120153 Z" id="Fill-80" fill="#323232" sketch:type="MSShapeGroup"></path>
            <path d="M626.079953,522.78917 L655.307675,522.78917 L655.307675,525.645737 L626.079953,525.645737 L626.079953,522.78917 Z" id="Fill-81" fill="#323232" sketch:type="MSShapeGroup"></path>
            <path d="M503.600494,582.781089 L934.446604,582.781089 L934.446604,664.737191 L503.600494,664.737191 L503.600494,582.781089 Z" id="Fill-82" fill="#91E8FF" sketch:type="MSShapeGroup"></path>
            <path d="M503.600494,561.1167 L934.446604,561.1167 L934.446604,582.781089 L503.600494,582.781089 L503.600494,561.1167 Z" id="Fill-83" fill="#D1F1FF" sketch:type="MSShapeGroup"></path>
            <path d="M488.989138,549.55407 L512.432844,549.55407 L512.432844,664.738194 L488.989138,664.738194 L488.989138,549.55407 Z" id="Fill-84" fill="#D1F1FF" sketch:type="MSShapeGroup"></path>
            <path d="M925.615256,549.55407 L949.05796,549.55407 L949.05796,664.738194 L925.615256,664.738194 L925.615256,549.55407 Z" id="Fill-85" fill="#D1F1FF" sketch:type="MSShapeGroup"></path>
            <path d="M955.00231,532.618207 C955.00231,530.480544 953.270712,528.748958 951.134273,528.748958 L486.912824,528.748958 C484.776386,528.748958 483.044788,530.480544 483.044788,532.618207 L483.044788,557.24745 C483.044788,559.38411 484.776386,561.1167 486.912824,561.1167 L950.741457,561.1167 C953.095348,561.1167 955.00231,559.208645 955.00231,556.853406 L955.00231,532.618207" id="Fill-86" fill="#D1F1FF" sketch:type="MSShapeGroup"></path>
            <path d="M916.434182,551.089137 L520.100774,551.089137 L520.100774,546.655392 C520.100774,544.517729 521.83137,542.786142 523.967808,542.786142 L912.566146,542.786142 C914.702584,542.786142 916.434182,544.517729 916.434182,546.655392 L916.434182,551.089137" id="Fill-87" fill="#000000" sketch:type="MSShapeGroup"></path>
            <path d="M930.954348,555.016541 C930.954348,552.848798 929.222751,551.090139 927.087314,551.090139 L509.44664,551.090139 C507.311203,551.090139 505.579606,552.848798 505.579606,555.016541 L505.579606,561.1167 L930.954348,561.1167 L930.954348,555.016541" id="Fill-88" fill="#FFFFFF" sketch:type="MSShapeGroup"></path>
            <path d="M551.876791,636.530471 L886.171309,636.530471 L886.171309,672.047556 L551.876791,672.047556 L551.876791,636.530471 Z" id="Fill-89" fill="#FF7F0B" sketch:type="MSShapeGroup"></path>
            <path d="M551.876791,644.977849 L572.589824,644.977849 L572.589824,718.782357 L551.876791,718.782357 L551.876791,644.977849 Z" id="Fill-90" fill="#FF7F0B" sketch:type="MSShapeGroup"></path>
            <path d="M865.457274,644.977849 L886.170307,644.977849 L886.170307,718.782357 L865.457274,718.782357 L865.457274,644.977849 Z" id="Fill-91" fill="#FF7F0B" sketch:type="MSShapeGroup"></path>
            <path d="M893.685921,625.883267 C893.685921,623.745604 891.955325,622.013015 889.818887,622.013015 L548.228211,622.013015 C546.091772,622.013015 544.361177,623.745604 544.361177,625.883267 L544.361177,647.177676 C544.361177,649.315339 546.091772,651.046926 548.228211,651.046926 L889.818887,651.046926 C891.955325,651.046926 893.685921,649.315339 893.685921,647.177676 L893.685921,625.883267" id="Fill-92" fill="#D1F1FF" sketch:type="MSShapeGroup"></path>
        </g>
    </g>
</svg>