<?xml version="1.0" encoding="UTF-8" standalone="no"?>
<svg width="1440px" height="752px" viewBox="0 0 1440 752" version="1.1" xmlns="http://www.w3.org/2000/svg" xmlns:xlink="http://www.w3.org/1999/xlink" xmlns:sketch="http://www.bohemiancoding.com/sketch/ns">
    <!-- Generator: Sketch 3.3.2 (12043) - http://www.bohemiancoding.com/sketch -->
    <title>strathcona-piano</title>
    <desc>Created with Sketch.</desc>
    <defs></defs>
    <g id="Page-1" stroke="none" stroke-width="1" fill="none" fill-rule="evenodd" sketch:type="MSPage">
        <g id="strathcona-piano" sketch:type="MSArtboardGroup">
            <g id="Group" sketch:type="MSLayerGroup" transform="translate(485.000000, 472.000000)">
                <path d="M433.791437,246.068213 C433.791437,239.331286 428.328929,233.870565 421.593038,233.870565 L80.9893802,233.870565 C74.251484,233.870565 68.789978,239.331286 68.789978,246.068213 C68.789978,252.804137 74.251484,258.264858 80.9893802,258.264858 L421.593038,258.264858 C428.328929,258.264858 433.791437,252.804137 433.791437,246.068213" id="Fill-194-Copy" fill="#5AB55C" sketch:type="MSShapeGroup"></path>
                <path d="M450.568,16.101 C450.568,7.721 443.775,0.929 435.396,0.929 L35.788,0.929 C27.409,0.929 20.617,7.721 20.617,16.101 L20.617,76.5 L450.568,76.5 L450.568,16.101" id="Fill-187" fill="#782C2A" sketch:type="MSShapeGroup"></path>
                <path d="M139.259,13.044 L175.592,13.044 L175.592,56.595 L139.259,56.595 L139.259,13.044 Z" id="Fill-188" fill="#FFFFFF" sketch:type="MSShapeGroup"></path>
                <path d="M142.842,16.727 L172.009,16.727 L172.009,19.576 L142.842,19.576 L142.842,16.727 Z" id="Fill-189" fill="#323232" sketch:type="MSShapeGroup"></path>
                <path d="M142.842,22.381 L172.009,22.381 L172.009,25.23 L142.842,25.23 L142.842,22.381 Z" id="Fill-190" fill="#323232" sketch:type="MSShapeGroup"></path>
                <path d="M142.842,28.035 L172.009,28.035 L172.009,30.884 L142.842,30.884 L142.842,28.035 Z" id="Fill-191" fill="#323232" sketch:type="MSShapeGroup"></path>
                <path d="M142.842,33.689 L172.009,33.689 L172.009,36.539 L142.842,36.539 L142.842,33.689 Z" id="Fill-192" fill="#323232" sketch:type="MSShapeGroup"></path>
                <path d="M142.842,39.343 L172.009,39.343 L172.009,42.193 L142.842,42.193 L142.842,39.343 Z" id="Fill-193" fill="#323232" sketch:type="MSShapeGroup"></path>
                <path d="M142.842,44.997 L172.009,44.997 L172.009,47.846 L142.842,47.846 L142.842,44.997 Z" id="Fill-194" fill="#323232" sketch:type="MSShapeGroup"></path>
                <path d="M142.842,50.651 L172.009,50.651 L172.009,53.5 L142.842,53.5 L142.842,50.651 Z" id="Fill-195" fill="#323232" sketch:type="MSShapeGroup"></path>
                <path d="M20.617,110.484 L450.568,110.484 L450.568,192.223 L20.617,192.223 L20.617,110.484 Z" id="Fill-196" fill="#782C2A" sketch:type="MSShapeGroup"></path>
                <path d="M20.617,88.877 L450.568,88.877 L450.568,110.484 L20.617,110.484 L20.617,88.877 Z" id="Fill-197" fill="#C94244" sketch:type="MSShapeGroup"></path>
                <path d="M6.036,77.345 L29.431,77.345 L29.431,192.224 L6.036,192.224 L6.036,77.345 Z" id="Fill-198" fill="#C94244" sketch:type="MSShapeGroup"></path>
                <path d="M441.754,77.345 L465.148,77.345 L465.148,192.224 L441.754,192.224 L441.754,77.345 Z" id="Fill-199" fill="#C94244" sketch:type="MSShapeGroup"></path>
                <path d="M471.081,60.454 C471.081,58.322 469.352,56.595 467.222,56.595 L3.963,56.595 C1.832,56.595 0.104,58.322 0.104,60.454 L0.104,85.018 C0.104,87.149 1.832,88.877 3.963,88.877 L466.829,88.877 C469.177,88.877 471.081,86.974 471.081,84.625 L471.081,60.454" id="Fill-200" fill="#C94244" sketch:type="MSShapeGroup"></path>
                <path d="M432.592,78.876 L37.083,78.876 L37.083,74.454 C37.083,72.322 38.811,70.595 40.941,70.595 L428.733,70.595 C430.864,70.595 432.592,72.322 432.592,74.454 L432.592,78.876" id="Fill-201" fill="#000000" sketch:type="MSShapeGroup"></path>
                <path d="M447.083,82.793 C447.083,80.631 445.354,78.876 443.224,78.876 L26.451,78.876 C24.32,78.876 22.592,80.631 22.592,82.793 L22.592,88.877 L447.083,88.877 L447.083,82.793" id="Fill-202" fill="#FFFFFF" sketch:type="MSShapeGroup"></path>
                <path d="M68.793,164.091 L402.393,164.091 L402.393,199.514 L68.793,199.514 L68.793,164.091 Z" id="Fill-203" fill="#C94244" sketch:type="MSShapeGroup"></path>
                <path d="M68.789978,172.515 L89.459978,172.515 L89.459978,246.125 L68.789978,246.125 L68.789978,172.515 Z" id="Fill-204" fill="#C94244" sketch:type="MSShapeGroup"></path>
                <path d="M381.722,172.515 L402.392,172.515 L402.392,246.125 L381.722,246.125 L381.722,172.515 Z" id="Fill-205" fill="#C94244" sketch:type="MSShapeGroup"></path>
                <path d="M409.892,153.472 C409.892,151.34 408.164,149.612 406.033,149.612 L65.151,149.612 C63.02,149.612 61.293,151.34 61.293,153.472 L61.293,174.71 C61.293,176.842 63.02,178.569 65.151,178.569 L406.033,178.569 C408.164,178.569 409.892,176.842 409.892,174.71 L409.892,153.472" id="Fill-206" fill="#FFFFFF" sketch:type="MSShapeGroup"></path>
            </g>
        </g>
    </g>
</svg>