<?xml version="1.0" encoding="UTF-8" standalone="no"?>
<svg width="1440px" height="752px" viewBox="0 0 1440 752" version="1.1" xmlns="http://www.w3.org/2000/svg" xmlns:xlink="http://www.w3.org/1999/xlink" xmlns:sketch="http://www.bohemiancoding.com/sketch/ns">
    <!-- Generator: Sketch 3.3.2 (12043) - http://www.bohemiancoding.com/sketch -->
    <title>strathcona</title>
    <desc>Created with Sketch.</desc>
    <defs></defs>
    <g id="Page-1" stroke="none" stroke-width="1" fill="none" fill-rule="evenodd" sketch:type="MSPage">
        <g id="strathcona" sketch:type="MSArtboardGroup">
            <g id="Group" sketch:type="MSLayerGroup" transform="translate(-61.000000, 0.000000)">
                <rect id="Rectangle-path" fill="#28D2FF" sketch:type="MSShapeGroup" x="61" y="0" width="1440" height="675.630005"></rect>
                <rect id="Rectangle-path" fill="#3B9F86" sketch:type="MSShapeGroup" x="1120" y="604" width="381.179" height="68.541"></rect>
                <rect id="Rectangle-path" fill="#3B9F86" sketch:type="MSShapeGroup" x="1351" y="422" width="150.179" height="241.684"></rect>
                <rect id="Rectangle-path" fill="#3B9F86" sketch:type="MSShapeGroup" x="1203" y="527" width="213.97" height="104.382"></rect>
                <rect id="Rectangle-path" fill="#1B6C72" sketch:type="MSShapeGroup" x="1167" y="618" width="334.179" height="70"></rect>
                <path d="M1134.372,639.186 C1134.372,626.381 1123.991,616 1111.186,616 L1111.186,616 C1098.381,616 1088,626.381 1088,639.186 L1088,660.86 C1088,673.665 1098.381,684.046 1111.186,684.046 L1111.186,684.046 C1123.991,684.046 1134.372,673.665 1134.372,660.86 L1134.372,639.186 L1134.372,639.186 Z" id="Shape" fill="#3B9F86" sketch:type="MSShapeGroup"></path>
                <circle id="Oval" fill="#3B9F86" sketch:type="MSShapeGroup" cx="267.916" cy="542.916" r="56.916"></circle>
                <circle id="Oval" fill="#3B9F86" sketch:type="MSShapeGroup" cx="354.916" cy="601.916" r="56.916"></circle>
                <circle id="Oval" fill="#3B9F86" sketch:type="MSShapeGroup" cx="427.02" cy="636.02" r="42.02"></circle>
                <path d="M508.991,658.631 C508.991,666.159 502.888,672.262 495.36,672.262 L460.631,672.262 C453.103,672.262 447,666.159 447,658.631 L447,658.631 C447,651.103 453.103,645 460.631,645 L495.36,645 C502.888,645.001 508.991,651.103 508.991,658.631 L508.991,658.631 L508.991,658.631 Z" id="Shape" fill="#4FC1B3" sketch:type="MSShapeGroup"></path>
                <g transform="translate(404.000000, 643.000000)" id="Shape" fill="#1B6C72" sketch:type="MSShapeGroup">
                    <path d="M0.162,27.438 C0.162,30.921 2.984,33.745 6.467,33.745 L6.467,33.745 C9.951,33.745 12.774,30.922 12.774,27.438 L12.774,7.053 C12.774,3.57 9.951,0.746 6.467,0.746 L6.467,0.746 C2.984,0.746 0.162,3.569 0.162,7.053 L0.162,27.438 L0.162,27.438 Z"></path>
                    <path d="M4.801,25.318 C2.337,27.782 2.337,31.774 4.8,34.237 L4.8,34.237 C7.264,36.7 11.257,36.7 13.72,34.237 L28.134,19.823 C30.597,17.36 30.597,13.367 28.134,10.903 L28.134,10.903 C25.672,8.44 21.678,8.44 19.215,10.904 L4.801,25.318 L4.801,25.318 Z"></path>
                </g>
                <rect id="Rectangle-path" fill="#3B9F86" sketch:type="MSShapeGroup" x="61" y="523" width="250.809" height="147.397"></rect>
                <rect id="Rectangle-path" fill="#3B9F86" sketch:type="MSShapeGroup" x="61" y="631" width="338.571" height="59.7"></rect>
                <path d="M359,637.304 C359,628.852 365.852,622 374.304,622 L376.743,622 C385.195,622 392.047,628.852 392.047,637.304 L392.047,655.047 L359,655.047 L359,637.304 L359,637.304 Z" id="Shape" fill="#A9D163" sketch:type="MSShapeGroup"></path>
                <g transform="translate(1064.000000, 639.000000)" id="Shape" sketch:type="MSShapeGroup">
                    <path d="M42.286,33.407 C42.286,36.89 39.463,39.714 35.98,39.714 L35.98,39.714 C32.497,39.714 29.673,36.891 29.673,33.407 L29.673,13.022 C29.673,9.539 32.496,6.715 35.98,6.715 L35.98,6.715 C39.463,6.715 42.286,9.538 42.286,13.022 L42.286,33.407 L42.286,33.407 Z" fill="#1B6C72"></path>
                    <path d="M30.755,27.282 C30.755,30.765 27.932,33.589 24.449,33.589 L24.449,33.589 C20.966,33.589 18.142,30.766 18.142,27.282 L18.142,6.897 C18.142,3.414 20.965,0.59 24.449,0.59 L24.449,0.59 C27.932,0.59 30.755,3.413 30.755,6.897 L30.755,27.282 L30.755,27.282 Z" fill="#A9D163"></path>
                    <path d="M26.115,25.163 C28.578,27.627 28.578,31.619 26.115,34.082 L26.115,34.082 C23.652,36.545 19.659,36.545 17.196,34.082 L2.782,19.668 C0.319,17.205 0.319,13.212 2.782,10.748 L2.782,10.748 C5.244,8.285 9.238,8.285 11.7,10.749 L26.115,25.163 L26.115,25.163 Z" fill="#A9D163"></path>
                </g>
                <path d="M278.536,587 L322.379,587 C340.852,587 358.026,596.503 367.839,612.154 C373.194,620.696 376.034,630.573 376.034,640.653 L376.034,640.655 C376.034,655.152 364.282,666.905 349.784,666.905 L276,666.905 L278.536,587 L278.536,587 Z" id="Shape" fill="#1B6C72" sketch:type="MSShapeGroup"></path>
                <rect id="Rectangle-path" fill="#A9D163" sketch:type="MSShapeGroup" x="61" y="664" width="1440.082" height="87.776"></rect>
                <path d="M309,601.333 C309,609.065 302.732,615.333 295,615.333 L295,615.333 C287.268,615.333 281,609.065 281,601.333 L281,574 C281,566.268 287.268,560 295,560 L295,560 C302.732,560 309,566.268 309,574 L309,601.333 L309,601.333 Z" id="Shape" fill="#4FC1B3" sketch:type="MSShapeGroup"></path>
                <path d="M295.613,615.407 C288.945,615.458 283.567,620.878 283.567,627.546 L283.567,647.349 L268,647.257 L268,601 L296.817,601 L295.613,615.407 L295.613,615.407 Z" id="Shape" fill="#4FC1B3" sketch:type="MSShapeGroup"></path>
                <circle id="Oval" fill="#3B9F86" sketch:type="MSShapeGroup" cx="69.34" cy="368.34" r="45.34"></circle>
                <circle id="Oval" fill="#3B9F86" sketch:type="MSShapeGroup" cx="150.253" cy="498.253" r="78.253"></circle>
                <circle id="Oval" fill="#4FC1B3" sketch:type="MSShapeGroup" cx="176.77" cy="531.77" r="35.77"></circle>
                <rect id="Rectangle-path" fill="#3B9F86" sketch:type="MSShapeGroup" x="61" y="535" width="76.238" height="94.22"></rect>
                <path d="M50,436.673 C50,413.657 68.657,395 91.673,395 L91.673,395 C114.688,395 133.345,413.657 133.345,436.673 L133.345,436.673 C133.345,459.689 114.688,478.346 91.673,478.346 L91.673,478.346 C68.657,478.346 50,459.689 50,436.673 L50,436.673 L50,436.673 Z" id="Shape" fill="#3B9F86" sketch:type="MSShapeGroup"></path>
                <path d="M136.169,483.731 C136.169,466.484 122.19,452.506 104.944,452.506 C96.666,452.506 88.934,448.372 84.337,441.488 C79.308,433.959 70.734,429 61,429 L61,485.099 C65.6,485.099 69.937,483.985 73.768,482.022 C73.737,482.588 73.72,483.158 73.72,483.731 C73.72,500.975 87.7,514.953 104.945,514.953 C122.189,514.952 136.169,500.975 136.169,483.731 L136.169,483.731 Z" id="Shape" fill="#4FC1B3" sketch:type="MSShapeGroup"></path>
                <path d="M273,647.912 C273,664.48 259.569,677.912 243,677.912 L218,677.912 C201.431,677.912 188,664.48 188,647.912 L188,522 L243,522 C259.569,522 273,535.432 273,552 L273,647.912 L273,647.912 Z" id="Shape" fill="#4FC1B3" sketch:type="MSShapeGroup"></path>
                <path d="M167.113,541.845 C168.588,537.627 169.399,533.099 169.399,528.378 C169.399,505.839 151.127,487.567 128.589,487.567 C120.886,487.567 113.683,489.704 107.536,493.414 C107.869,491.836 108.052,490.203 108.052,488.525 C108.052,475.532 97.519,465 84.526,465 C71.533,465 61,475.533 61,488.526 L61,539.442 L61.502,539.442 L61.502,588.945 L135.682,588.945 C135.931,590.892 149.901,604.716 167.106,604.716 C184.467,604.716 198.542,590.643 198.542,573.28 C198.542,555.921 184.471,541.848 167.113,541.845 L167.113,541.845 Z" id="Shape" fill="#1B6C72" sketch:type="MSShapeGroup"></path>
                <path d="M512.74,696.869 C512.74,689.762 506.978,684 499.87,684 C492.762,684 487,689.762 487,696.869" id="Shape" fill="#FFFFFF" sketch:type="MSShapeGroup"></path>
                <path d="M404.941478,719.94124 C398.009478,726.87324 385.162478,725.26024 385.162478,725.26024 C385.162478,725.26024 383.550478,712.41224 390.481478,705.48224 C397.411478,698.55124 410.260478,700.16224 410.260478,700.16224 C410.260478,700.16224 411.870478,713.01124 404.941478,719.94124 L404.941478,719.94124 Z" id="Shape" fill="#3B9F86" sketch:type="MSShapeGroup"></path>
                <path d="M1171.738,702.869 C1171.738,695.763 1165.976,690 1158.869,690 C1151.762,690 1146,695.763 1146,702.869" id="Shape" fill="#FFFFFF" sketch:type="MSShapeGroup"></path>
                <path d="M1074.739,717.869 C1074.739,710.762 1068.977,705 1061.87,705 C1054.762,705 1049,710.762 1049,717.869" id="Shape" fill="#3B9F86" sketch:type="MSShapeGroup"></path>
                <path d="M314,679 C314,652.49 292.51,631 266,631 L266,631 C239.49,631 218,652.49 218,679 L218,679 C218,705.51 239.49,727 266,727 L266,727 C292.509,727 314,705.51 314,679 L314,679 L314,679 Z" id="Shape" fill="#A9D163" sketch:type="MSShapeGroup"></path>
                <path d="M276.416,626.207 C276.416,611.181 264.234,599 249.208,599 L249.208,599 C234.181,599 222,611.181 222,626.207 L222,626.207 C222,641.234 234.181,653.415 249.208,653.415 L249.208,653.415 C264.235,653.415 276.416,641.235 276.416,626.207 L276.416,626.207 L276.416,626.207 Z" id="Shape" fill="#A9D163" sketch:type="MSShapeGroup"></path>
                <g transform="translate(86.000000, 533.000000)" sketch:type="MSShapeGroup">
                    <path d="M14.075,16.652 C6.412,16.652 0.203,8.66 0.203,8.66 C0.203,8.66 6.413,0.668 14.075,0.669 C21.735,0.668 27.948,8.66 27.948,8.66 C27.948,8.66 21.736,16.652 14.075,16.652 L14.075,16.652 Z" id="Shape" fill="#FFFFFF"></path>
                    <circle id="Oval" fill="#323232" cx="15.075" cy="8.661" r="5.464"></circle>
                </g>
                <g transform="translate(394.000000, 641.000000)" id="Shape" fill="#A9D163" sketch:type="MSShapeGroup">
                    <path d="M0.853,27.22 C0.853,30.703 3.675,33.527 7.159,33.527 L7.159,33.527 C10.642,33.527 13.466,30.704 13.466,27.22 L13.466,6.835 C13.466,3.352 10.643,0.528 7.159,0.528 L7.159,0.528 C3.676,0.528 0.853,3.351 0.853,6.835 L0.853,27.22 L0.853,27.22 Z"></path>
                    <path d="M5.492,25.101 C3.028,27.565 3.028,31.557 5.491,34.02 L5.491,34.02 C7.955,36.483 11.947,36.483 14.411,34.02 L28.825,19.606 C31.288,17.143 31.288,13.15 28.825,10.686 L28.825,10.686 C26.362,8.223 22.369,8.223 19.906,10.687 L5.492,25.101 L5.492,25.101 Z"></path>
                </g>
                <path d="M306.648,507 C306.648,507 280,531.02 280,559.188 L280,671.319" id="Shape" stroke="#A9D163" stroke-width="8" sketch:type="MSShapeGroup"></path>
                <g transform="translate(290.000000, 455.000000)" sketch:type="MSShapeGroup">
                    <path d="M59.218,28.416 C68.367,37.564 68.368,52.398 59.218,61.548 L59.218,61.548 C50.069,70.696 35.236,70.696 26.087,61.548 L6.87,42.331 C-2.279,33.182 -2.279,18.348 6.87,9.199 L6.87,9.199 C16.02,0.049 30.853,0.05 40.002,9.199 C41.144,10.341 41.785,11.889 41.785,13.504 C41.785,15.119 41.144,16.667 40.002,17.809 L33.695,24.116 L44.303,34.723 L50.61,28.416 C52.986,26.038 56.841,26.039 59.218,28.416 L59.218,28.416 Z" id="Shape" fill="#F495B6"></path>
                    <rect id="Rectangle-path" fill="#FFFFFF" x="23.029" y="25.136" width="20.03" height="20.031"></rect>
                    <path d="M43.652,35.373 C40.723,38.303 35.973,38.303 33.044,35.374 L33.044,35.374 C30.115,32.445 30.115,27.695 33.044,24.767 L55.261,2.55 C58.19,-0.379 62.94,-0.379 65.868,2.55 L65.868,2.55 C68.797,5.479 68.797,10.228 65.868,13.157 L43.652,35.373 L43.652,35.373 Z" id="Shape" fill="#FFC64A"></path>
                </g>
                <path d="M250,416 C250,416 276.648,440.02 276.648,468.188 L276.648,580.319 L276.648,669.354" id="Shape" stroke="#A9D163" stroke-width="8" sketch:type="MSShapeGroup"></path>
                <g transform="translate(299.000000, 554.000000)" id="Oval" sketch:type="MSShapeGroup">
                    <circle fill="#775AA6" cx="19.211" cy="37.81" r="18.59"></circle>
                    <circle fill="#B561A6" cx="36.382" cy="26.59" r="12.394"></circle>
                    <circle fill="#F496BF" cx="44.825" cy="14.953" r="8.263"></circle>
                    <circle fill="#FFC64A" cx="53.096" cy="6.422" r="6.197"></circle>
                </g>
                <g transform="translate(189.000000, 469.000000)" sketch:type="MSShapeGroup">
                    <path d="M8.308,36.991 C14.791,30.953 24.943,31.312 30.982,37.796 C37.021,44.282 36.66,54.432 30.176,60.47 C23.694,66.509 13.541,66.15 7.502,59.666 C1.464,53.181 1.825,43.03 8.308,36.991 L8.308,36.991 Z" id="Shape" fill="#775AA6"></path>
                    <circle id="Oval" fill="#B561A6" cx="11.47" cy="32.828" r="10.696"></circle>
                    <circle id="Oval" fill="#F496BF" cx="10.352" cy="20.471" r="7.13"></circle>
                    <circle id="Oval" fill="#FFC64A" cx="7.989" cy="10.493" r="5.347"></circle>
                    <circle id="Oval" fill="#FFFFFF" cx="3.873" cy="3.711" r="3.564"></circle>
                </g>
                <circle id="Oval" fill="#1B6C72" sketch:type="MSShapeGroup" cx="356.823" cy="667.823" r="12.823"></circle>
                <circle id="Oval" fill="#1B6C72" sketch:type="MSShapeGroup" cx="337.6" cy="663.6" r="10.6"></circle>
                <path d="M488.334,639.667 C488.334,646.662 482.663,652.333 475.667,652.333 L475.667,652.333 C468.671,652.333 463,646.662 463,639.667 L463,639.667 C463,632.671 468.671,627 475.667,627 L475.667,627 C482.663,627 488.334,632.671 488.334,639.667 L488.334,639.667 L488.334,639.667 Z" id="Shape" fill="#4FC1B3" sketch:type="MSShapeGroup"></path>
                <circle id="Oval" fill="#3B9F86" sketch:type="MSShapeGroup" cx="1142.5" cy="602.5" r="36.5"></circle>
                <circle id="Oval" fill="#3B9F86" sketch:type="MSShapeGroup" cx="1201" cy="562" r="53"></circle>
                <circle id="Oval" fill="#3B9F86" sketch:type="MSShapeGroup" cx="1300.485" cy="520.485" r="70.485"></circle>
                <g transform="translate(173.000000, 90.000000)" sketch:type="MSShapeGroup">
                    <g>
                        <path d="M102.135,16.422 C102.135,25.127 95.077,32.186 86.371,32.186 L46.632,32.186 C37.926,32.186 30.868,25.127 30.868,16.422 L30.868,16.422 C30.868,7.716 37.926,0.658 46.632,0.658 L86.371,0.658 C95.077,0.658 102.135,7.716 102.135,16.422 L102.135,16.422 L102.135,16.422 Z" id="Shape" fill="#D7F4FF"></path>
                        <path d="M193.633,50.221 C193.633,62.233 183.896,71.969 171.884,71.969 L22.458,71.969 C10.446,71.969 0.709,62.233 0.709,50.221 L0.709,50.221 C0.709,38.209 10.446,28.472 22.458,28.472 L171.884,28.472 C183.896,28.472 193.633,38.209 193.633,50.221 L193.633,50.221 L193.633,50.221 Z" id="Shape" fill="#D7F4FF"></path>
                        <path d="M87.704,50.221 C87.704,62.233 77.967,71.969 65.955,71.969 L22.458,71.969 C10.446,71.969 0.709,62.233 0.709,50.221 L0.709,50.221 C0.709,38.209 10.446,28.472 22.458,28.472 L65.955,28.472 C77.967,28.472 87.704,38.209 87.704,50.221 L87.704,50.221 L87.704,50.221 Z" id="Shape" fill="#FFFFFF"></path>
                        <circle id="Oval" fill="#FFFFFF" cx="46.631" cy="16.422" r="15.764"></circle>
                        <path d="M231.696,87.719 C231.696,96.418 224.644,103.469 215.946,103.469 L136.452,103.469 C127.754,103.469 120.702,96.418 120.702,87.719 L120.702,87.719 C120.702,79.021 127.754,71.969 136.452,71.969 L215.946,71.969 C224.645,71.969 231.696,79.021 231.696,87.719 L231.696,87.719 L231.696,87.719 Z" id="Shape" fill="#D7F4FF"></path>
                        <path d="M120.702,87.719 C120.702,79.021 127.754,71.969 136.452,71.969 L147.883,71.969 C156.581,71.969 163.633,79.021 163.633,87.719 L163.633,87.719 C163.633,96.418 156.581,103.469 147.883,103.469 L136.452,103.469 C127.754,103.469 120.702,96.418 120.702,87.719 L120.702,87.719 L120.702,87.719 Z" id="Shape" fill="#FFFFFF"></path>
                        <circle id="Oval" fill="#FFFFFF" cx="50.205" cy="119.969" r="13.29"></circle>
                    </g>
                    <g transform="translate(336.000000, 243.000000)" id="Shape">
                        <path d="M106.744,67.427 C106.744,75.199 100.444,81.498 92.672,81.498 L58.445,81.498 C50.673,81.498 44.373,75.199 44.373,67.427 L44.373,67.427 C44.373,59.655 50.673,53.356 58.445,53.356 L92.672,53.356 C100.444,53.355 106.744,59.654 106.744,67.427 L106.744,67.427 L106.744,67.427 Z" fill="#D7F4FF"></path>
                        <g>
                            <path d="M135.604,28.386 C135.604,43.768 123.135,56.238 107.752,56.238 L56.336,56.238 C40.954,56.238 28.484,43.768 28.484,28.386 L28.484,28.386 C28.484,13.004 40.953,0.534 56.336,0.534 L107.752,0.534 C123.135,0.534 135.604,13.004 135.604,28.386 L135.604,28.386 L135.604,28.386 Z" fill="#D7F4FF"></path>
                            <path d="M0.733,28.386 C0.733,43.768 13.203,56.238 28.585,56.238 L51.665,56.238 C67.047,56.238 79.517,43.768 79.517,28.386 L79.517,28.386 C79.517,13.004 67.048,0.534 51.665,0.534 L28.585,0.534 C13.204,0.534 0.733,13.004 0.733,28.386 L0.733,28.386 L0.733,28.386 Z" fill="#FFFFFF"></path>
                        </g>
                        <path d="M88.997,67.427 C88.997,75.199 82.697,81.498 74.925,81.498 L40.698,81.498 C32.927,81.498 26.626,75.199 26.626,67.427 L26.626,67.427 C26.626,59.655 32.927,53.356 40.698,53.356 L74.925,53.356 C82.697,53.355 88.997,59.654 88.997,67.427 L88.997,67.427 L88.997,67.427 Z" fill="#FFFFFF"></path>
                    </g>
                    <g transform="translate(505.000000, 213.000000)">
                        <path d="M90.919,18.47 C90.919,28.411 82.86,36.47 72.919,36.47 L18.527,36.47 C8.586,36.47 0.527,28.411 0.527,18.47 L0.527,18.47 C0.527,8.529 8.586,0.47 18.527,0.47 L72.919,0.47 C82.86,0.47 90.919,8.528 90.919,18.47 L90.919,18.47 L90.919,18.47 Z" id="Shape" fill="#D7F4FF"></path>
                        <path d="M50.919,18.47 C50.919,28.411 42.86,36.47 32.919,36.47 L18.527,36.47 C8.586,36.47 0.527,28.411 0.527,18.47 L0.527,18.47 C0.527,8.529 8.586,0.47 18.527,0.47 L32.919,0.47 C42.86,0.47 50.919,8.528 50.919,18.47 L50.919,18.47 L50.919,18.47 Z" id="Shape" fill="#FFFFFF"></path>
                        <circle id="Oval" fill="#FFFFFF" cx="31.837" cy="48.118" r="15.764"></circle>
                    </g>
                    <g transform="translate(896.000000, 25.000000)">
                        <g transform="translate(0.000000, 90.000000)" id="Shape">
                            <path d="M169.626,50.296 C169.626,62.722 159.553,72.795 147.127,72.795 L73.729,72.795 C61.303,72.795 51.23,62.722 51.23,50.296 L51.23,50.296 C51.23,37.87 61.303,27.797 73.729,27.797 L147.127,27.797 C159.553,27.797 169.626,37.87 169.626,50.296 L169.626,50.296 L169.626,50.296 Z" fill="#D7F4FF"></path>
                            <path d="M105.122,15.564 C105.122,23.978 98.301,30.799 89.887,30.799 L40.185,30.799 C31.77,30.799 24.95,23.978 24.95,15.564 L24.95,15.564 C24.95,7.15 31.771,0.329 40.185,0.329 L89.887,0.329 C98.301,0.329 105.122,7.15 105.122,15.564 L105.122,15.564 L105.122,15.564 Z" fill="#D7F4FF"></path>
                            <path d="M96.13,50.296 C96.13,62.722 86.057,72.795 73.631,72.795 L37.632,72.795 C25.207,72.795 15.133,62.722 15.133,50.296 L15.133,50.296 C15.133,37.87 25.206,27.797 37.632,27.797 L73.631,27.797 C86.057,27.797 96.13,37.87 96.13,50.296 L96.13,50.296 L96.13,50.296 Z" fill="#FFFFFF"></path>
                            <path d="M55.354,15.564 C55.354,23.978 48.533,30.799 40.119,30.799 L15.742,30.799 C7.328,30.799 0.507,23.978 0.507,15.564 L0.507,15.564 C0.507,7.15 7.328,0.329 15.742,0.329 L40.119,0.329 C48.533,0.329 55.354,7.15 55.354,15.564 L55.354,15.564 L55.354,15.564 Z" fill="#FFFFFF"></path>
                        </g>
                        <circle id="Oval" fill="#FFFFFF" cx="158.007" cy="14.061" r="13.499"></circle>
                        <g transform="translate(164.000000, 35.000000)" id="Shape">
                            <path d="M132.953,37.307 C132.953,28.739 126.007,21.793 117.44,21.793 L43.472,21.793 C34.905,21.793 27.959,28.738 27.959,37.307 L27.959,37.307 C27.959,45.874 34.905,52.82 43.472,52.82 L117.44,52.82 C126.007,52.819 132.953,45.874 132.953,37.307 L132.953,37.307 L132.953,37.307 Z" fill="#D7F4FF"></path>
                            <path d="M83.865,13.821 C83.865,21.277 77.821,27.321 70.365,27.321 L41.458,27.321 C34.002,27.321 27.958,21.277 27.958,13.821 L27.958,13.821 C27.958,6.365 34.002,0.321 41.458,0.321 L70.365,0.321 C77.821,0.321 83.865,6.365 83.865,13.821 L83.865,13.821 L83.865,13.821 Z" fill="#D7F4FF"></path>
                            <path d="M66.959,37.307 C66.959,45.874 60.014,52.82 51.446,52.82 L16.475,52.82 C7.907,52.82 0.962,45.875 0.962,37.307 L0.962,37.307 C0.962,28.739 7.907,21.793 16.475,21.793 L51.446,21.793 C60.014,21.793 66.959,28.738 66.959,37.307 L66.959,37.307 L66.959,37.307 Z" fill="#FFFFFF"></path>
                            <path d="M56.46,13.821 C56.46,21.277 50.416,27.321 42.96,27.321 L42.96,27.321 C35.504,27.321 29.46,21.277 29.46,13.821 L29.46,13.821 C29.46,6.365 35.504,0.321 42.96,0.321 L42.96,0.321 C50.417,0.321 56.46,6.365 56.46,13.821 L56.46,13.821 L56.46,13.821 Z" fill="#FFFFFF"></path>
                        </g>
                    </g>
                </g>
                <circle id="Oval" fill="#3B9F86" sketch:type="MSShapeGroup" cx="1357.485" cy="439.485" r="45.485"></circle>
                <circle id="Oval" fill="#3B9F86" sketch:type="MSShapeGroup" cx="1466.089" cy="359.089" r="35.089"></circle>
                <circle id="Oval" fill="#3B9F86" sketch:type="MSShapeGroup" cx="1444.701" cy="439.701" r="56.701"></circle>
                <circle id="Oval" fill="#1B6C72" sketch:type="MSShapeGroup" cx="1152" cy="663" r="17"></circle>
                <circle id="Oval" fill="#1B6C72" sketch:type="MSShapeGroup" cx="1177.515" cy="632.515" r="25.515"></circle>
                <path d="M1181,607.019 C1181,634.092 1202.947,656.04 1230.02,656.04 C1257.092,656.04 1279.039,634.093 1279.039,607.019 C1279.039,579.949 1257.092,558 1230.02,558 C1202.947,558.001 1181,579.949 1181,607.019 L1181,607.019 Z" id="Shape" fill="#1B6C72" sketch:type="MSShapeGroup"></path>
                <circle id="Oval" fill="#1B6C72" sketch:type="MSShapeGroup" cx="1177.5" cy="663.5" r="12.5"></circle>
                <circle id="Oval" fill="#A9D163" sketch:type="MSShapeGroup" cx="1217.792" cy="661.792" r="27.792"></circle>
                <rect id="Rectangle-path" fill="#3B9F86" sketch:type="MSShapeGroup" x="1466" y="358" width="35.171" height="112.609"></rect>
                <circle id="Oval" fill="#1B6C72" sketch:type="MSShapeGroup" cx="1393.488" cy="494.488" r="41.488"></circle>
                <circle id="Oval" fill="#1B6C72" sketch:type="MSShapeGroup" cx="1442" cy="474" r="20"></circle>
                <circle id="Oval" fill="#1B6C72" sketch:type="MSShapeGroup" cx="1472.423" cy="454.423" r="28.423"></circle>
                <rect id="Rectangle-path" fill="#1B6C72" sketch:type="MSShapeGroup" x="1457" y="451" width="44.179" height="175.214"></rect>
                <rect id="Rectangle-path" fill="#1B6C72" sketch:type="MSShapeGroup" x="1340" y="488" width="126.089" height="142"></rect>
                <circle id="Oval" fill="#A9D163" sketch:type="MSShapeGroup" cx="1255.344" cy="652.344" r="36.344"></circle>
                <path d="M327,687.076 C327,692.323 322.747,696.576 317.5,696.576 L317.5,696.576 C312.253,696.576 308,692.323 308,687.076 L308,656.5 C308,651.253 312.253,647 317.5,647 L317.5,647 C322.747,647 327,651.253 327,656.5 L327,687.076 L327,687.076 Z" id="Shape" fill="#A9D163" sketch:type="MSShapeGroup"></path>
                <g transform="translate(392.000000, 565.000000)" sketch:type="MSShapeGroup">
                    <path d="M27.712,20.637 L17.023,31.492 C6.64,42.037 0.82,56.242 0.82,71.041 L0.82,102.826" id="Shape" stroke="#A9D163" stroke-width="5"></path>
                    <g transform="translate(5.000000, 0.000000)">
                        <g id="Shape" fill="#FFC64A">
                            <path d="M37.778,20.634 C37.778,28.956 31.032,35.703 22.712,35.703 C14.392,35.703 7.646,28.956 7.646,20.634 C7.646,12.315 14.392,5.571 22.712,5.571 C31.032,5.57 37.778,12.314 37.778,20.634 L37.778,20.634 Z"></path>
                            <path d="M11.451,40.188 C7.861,38.128 6.631,33.539 8.701,29.948 L8.701,29.948 C10.771,26.358 15.361,25.129 18.941,27.198 L18.941,27.198 C22.531,29.268 23.761,33.858 21.691,37.438 L21.691,37.438 C20.301,39.848 17.781,41.198 15.191,41.198 L15.191,41.198 C13.921,41.198 12.631,40.879 11.451,40.188 L11.451,40.188 Z M23.771,37.438 C21.691,33.858 22.911,29.268 26.491,27.188 L26.491,27.188 C30.081,25.119 34.671,26.338 36.741,29.918 L36.741,29.918 C38.821,33.498 37.601,38.088 34.021,40.168 L34.021,40.168 C32.831,40.857 31.541,41.178 30.261,41.178 L30.261,41.178 C27.681,41.179 25.161,39.839 23.771,37.438 L23.771,37.438 Z M0.141,20.688 C0.131,16.548 3.481,13.178 7.631,13.168 L7.631,13.168 C11.771,13.158 15.141,16.508 15.141,20.647 L15.141,20.647 C15.151,24.788 11.801,28.158 7.661,28.168 L7.661,28.168 L7.651,28.168 C3.511,28.169 0.151,24.818 0.141,20.688 L0.141,20.688 Z M30.281,20.639 L30.281,20.639 L30.281,20.599 L30.281,20.599 C30.261,16.459 33.601,13.089 37.751,13.069 L37.751,13.069 C41.891,13.059 45.261,16.399 45.281,20.54 L45.281,20.54 L45.281,20.609 L45.281,20.609 L45.281,20.639 L45.281,20.639 C45.281,24.779 41.921,28.129 37.781,28.129 L37.781,28.129 C33.631,28.129 30.281,24.778 30.281,20.639 L30.281,20.639 Z M8.661,11.379 C6.571,7.799 7.781,3.209 11.361,1.129 L11.361,1.129 C14.941,-0.961 19.531,0.249 21.621,3.829 L21.621,3.829 C23.701,7.409 22.491,11.999 18.911,14.089 L18.911,14.089 C17.731,14.778 16.431,15.109 15.141,15.109 L15.141,15.109 C12.561,15.108 10.051,13.778 8.661,11.379 L8.661,11.379 Z M26.471,14.059 L26.461,14.059 C22.871,11.999 21.631,7.419 23.691,3.83 L23.691,3.83 C25.751,0.229 30.341,-1.011 33.931,1.05 L33.931,1.05 C37.521,3.11 38.761,7.699 36.701,11.29 L36.701,11.29 C35.321,13.71 32.791,15.06 30.191,15.06 L30.191,15.06 C28.921,15.059 27.641,14.738 26.471,14.059 L26.471,14.059 Z"></path>
                        </g>
                        <circle id="Oval" fill="#FFFFFF" cx="22.712" cy="20.636" r="5.802"></circle>
                    </g>
                </g>
                <circle id="Oval" fill="#1B6C72" sketch:type="MSShapeGroup" cx="379.825" cy="660.825" r="17.825"></circle>
                <path d="M1350.463,522.895 C1357.669,518.272 1362.448,510.197 1362.448,501 C1362.448,486.64 1350.807,475 1336.448,475 C1322.089,475 1310.448,486.64 1310.448,501 C1310.448,501.947 1310.499,502.883 1310.597,503.804 C1311.077,508.275 1309.635,512.737 1306.63,516.081 C1303.625,519.425 1299.343,521.335 1294.847,521.335 C1267.318,521.335 1245,543.652 1245,571.183 L1245,571.403 C1245,598.933 1267.317,621.251 1294.847,621.251 L1338.048,621.251 C1365.577,621.251 1387.895,598.934 1387.895,571.403 L1387.895,571.183 C1387.896,547.939 1371.986,528.412 1350.463,522.895 L1350.463,522.895 Z" id="Shape" fill="#1B6C72" sketch:type="MSShapeGroup"></path>
                <path d="M232,557.542309 C236.76,555.231309 242.375,555.533309 246.859,558.341309 C251.344,561.150309 254.067,566.068309 254.067,571.360309 L254.067,606.488309" id="Shape" stroke="#A9D163" stroke-width="8" sketch:type="MSShapeGroup"></path>
                <path d="M240.015992,578.234198 C241.400992,580.477198 240.705992,583.419198 238.462992,584.803198 L238.462992,584.803198 C236.219992,586.188198 233.278992,585.491198 231.893992,583.249198 L217.711992,560.280198 C216.327992,558.038198 217.022992,555.096198 219.264992,553.712198 L219.264992,553.712198 C221.507992,552.327198 224.448992,553.024198 225.833992,555.265198 L240.015992,578.234198 L240.015992,578.234198 Z" id="Shape" fill="#1B6C72" sketch:type="MSShapeGroup"></path>
                <g transform="translate(274.000000, 412.000000)" id="Shape" sketch:type="MSShapeGroup">
                    <path d="M26.698,20.61 C19.766,27.542 6.919,25.929 6.919,25.929 C6.919,25.929 5.307,13.081 12.238,6.151 C19.168,-0.78 32.017,0.831 32.017,0.831 C32.017,0.831 33.628,13.681 26.698,20.61 L26.698,20.61 Z" fill="#A9D163"></path>
                    <path d="M8.293,24.939 L0.195,33.038" stroke="#A9D163" stroke-width="6"></path>
                </g>
                <g transform="translate(242.000000, 477.000000)" id="Shape" sketch:type="MSShapeGroup">
                    <path d="M20.271,5.63 C27.203,12.562 25.59,25.409 25.59,25.409 C25.59,25.409 12.743,27.022 5.812,20.091 C-1.119,13.161 0.492,0.312 0.492,0.312 C0.492,0.312 13.341,-1.3 20.271,5.63 L20.271,5.63 Z" fill="#A9D163"></path>
                    <path d="M24.6,24.036 L32.699,32.134" stroke="#A9D163" stroke-width="6"></path>
                </g>
                <g transform="translate(1272.000000, 492.000000)" sketch:type="MSShapeGroup">
                    <path d="M9.562,41.678 C16.815,34.921 28.176,35.324 34.934,42.578 C41.691,49.836 41.287,61.193 34.031,67.949 C26.778,74.707 15.417,74.304 8.659,67.05 C1.903,59.793 2.308,48.436 9.562,41.678 L9.562,41.678 Z" id="Shape" fill="#775AA6"></path>
                    <circle id="Oval" fill="#B561A6" cx="13.1" cy="37.019" r="11.968"></circle>
                    <circle id="Oval" fill="#F496BF" cx="11.848" cy="23.192" r="7.978"></circle>
                    <circle id="Oval" fill="#FFC64A" cx="9.205" cy="12.027" r="5.984"></circle>
                    <circle id="Oval" fill="#FFFFFF" cx="4.599" cy="4.438" r="3.988"></circle>
                </g>
                <g transform="translate(200.000000, 365.000000)" sketch:type="MSShapeGroup">
                    <path d="M28.758,9.323 C37.907,0.174 52.741,0.173 61.89,9.323 L61.89,9.323 C71.038,18.471 71.038,33.305 61.89,42.455 L42.673,61.672 C33.524,70.82 18.69,70.82 9.541,61.672 L9.541,61.672 C0.391,52.522 0.392,37.689 9.541,28.54 C11.918,26.162 15.773,26.162 18.15,28.54 L24.457,34.847 L35.064,24.24 L28.757,17.933 C26.381,15.556 26.381,11.7 28.758,9.323 L28.758,9.323 Z" id="Shape" fill="#F495B6"></path>
                    <rect id="Rectangle-path" fill="#FFFFFF" x="25.478" y="25.482" width="20.031" height="20.03"></rect>
                    <path d="M35.715,24.89 C38.645,27.82 38.645,32.569 35.716,35.498 L35.716,35.498 C32.788,38.427 28.038,38.427 25.109,35.497 L2.892,13.28 C-0.037,10.351 -0.037,5.601 2.892,2.673 L2.892,2.673 C5.821,-0.256 10.57,-0.256 13.499,2.674 L35.715,24.89 L35.715,24.89 Z" id="Shape" fill="#FFC64A"></path>
                </g>
                <circle id="Oval" fill="#A9D163" sketch:type="MSShapeGroup" cx="1220.908" cy="629.908" r="13.908"></circle>
                <g transform="translate(1158.000000, 447.000000)" sketch:type="MSShapeGroup">
                    <g transform="translate(0.000000, 88.000000)">
                        <path d="M23.299,21.065 L33.989,31.92 C44.372,42.465 50.192,56.67 50.192,71.469 L50.192,103.254" id="Shape" stroke="#A9D163" stroke-width="5"></path>
                        <g>
                            <g id="Shape" fill="#FFC64A">
                                <path d="M8.233,21.062 C8.233,29.384 14.979,36.131 23.298,36.131 C31.619,36.131 38.365,29.384 38.365,21.062 C38.365,12.743 31.619,5.999 23.298,5.999 C14.979,5.999 8.233,12.743 8.233,21.062 L8.233,21.062 Z"></path>
                                <path d="M24.311,37.869 C22.251,34.289 23.481,29.698 27.061,27.629 L27.061,27.629 C30.651,25.559 35.241,26.789 37.311,30.379 L37.311,30.379 C39.381,33.969 38.151,38.559 34.561,40.619 L34.561,40.619 C33.381,41.299 32.091,41.629 30.821,41.629 L30.821,41.629 C28.231,41.629 25.701,40.278 24.311,37.869 L24.311,37.869 Z M11.991,40.599 C8.411,38.519 7.191,33.929 9.261,30.349 L9.261,30.349 C11.341,26.759 15.931,25.539 19.521,27.62 L19.521,27.62 C23.101,29.699 24.321,34.29 22.241,37.87 L22.241,37.87 C20.851,40.269 18.331,41.609 15.751,41.609 L15.751,41.609 C14.471,41.608 13.171,41.278 11.991,40.599 L11.991,40.599 Z M38.351,28.599 C34.201,28.589 30.851,25.219 30.861,21.079 L30.861,21.079 C30.871,16.938 34.241,13.589 38.381,13.599 L38.381,13.599 C42.521,13.609 45.871,16.969 45.861,21.12 L45.861,21.12 C45.851,25.25 42.501,28.599 38.361,28.599 L38.361,28.599 L38.351,28.599 L38.351,28.599 Z M0.731,21.059 L0.731,21.039 L0.731,21.039 L0.731,20.969 L0.731,20.969 C0.751,16.829 4.121,13.479 8.261,13.499 L8.261,13.499 C12.411,13.519 15.751,16.889 15.731,21.028 L15.731,21.028 L15.731,21.039 L15.731,21.059 L15.731,21.059 C15.731,25.209 12.371,28.559 8.231,28.559 L8.231,28.559 C4.091,28.559 0.731,25.209 0.731,21.059 L0.731,21.059 Z M27.101,14.519 C23.521,12.429 22.301,7.839 24.391,4.259 L24.391,4.259 C26.471,0.679 31.071,-0.531 34.651,1.559 L34.651,1.559 C38.221,3.639 39.441,8.229 37.351,11.809 L37.351,11.809 C35.961,14.199 33.441,15.539 30.861,15.539 L30.861,15.539 C29.581,15.539 28.281,15.209 27.101,14.519 L27.101,14.519 Z M9.311,11.719 C7.241,8.129 8.491,3.539 12.081,1.479 L12.081,1.479 C15.671,-0.581 20.261,0.66 22.321,4.259 L22.321,4.259 C24.381,7.849 23.141,12.429 19.541,14.488 L19.541,14.488 C18.371,15.169 17.091,15.488 15.821,15.488 L15.821,15.488 C13.221,15.488 10.691,14.139 9.311,11.719 L9.311,11.719 Z"></path>
                            </g>
                            <circle id="Oval" fill="#FFFFFF" cx="23.3" cy="21.064" r="5.802"></circle>
                        </g>
                    </g>
                    <path d="M51.732,181.652 L51.732,21.961" id="Shape" stroke="#A9D163" stroke-width="5"></path>
                    <g transform="translate(30.000000, 0.000000)">
                        <g id="Shape" fill="#FFC64A">
                            <path d="M7.543,21.071 C7.543,29.393 14.289,36.14 22.609,36.14 C30.929,36.14 37.675,29.393 37.675,21.071 C37.675,12.752 30.929,6.008 22.609,6.008 C14.29,6.008 7.543,12.752 7.543,21.071 L7.543,21.071 Z"></path>
                            <path d="M23.621,37.879 C21.561,34.289 22.791,29.709 26.381,27.639 L26.381,27.639 C29.961,25.569 34.551,26.799 36.621,30.389 L36.621,30.389 C38.691,33.979 37.461,38.559 33.871,40.629 L33.871,40.629 C32.691,41.309 31.401,41.639 30.131,41.639 L30.131,41.639 C27.541,41.639 25.011,40.289 23.621,37.879 L23.621,37.879 Z M11.301,40.608 C7.721,38.528 6.501,33.938 8.571,30.358 L8.571,30.358 C10.651,26.768 15.241,25.548 18.821,27.629 L18.821,27.629 C22.411,29.709 23.631,34.299 21.551,37.879 L21.551,37.879 C20.161,40.278 17.641,41.619 15.051,41.619 L15.051,41.619 C13.781,41.619 12.481,41.289 11.301,40.608 L11.301,40.608 Z M37.661,28.608 C33.511,28.598 30.161,25.228 30.171,21.088 L30.171,21.088 C30.181,16.947 33.551,13.598 37.691,13.608 L37.691,13.608 C41.831,13.619 45.181,16.978 45.171,21.129 L45.171,21.129 C45.171,25.259 41.811,28.608 37.681,28.608 L37.681,28.608 L37.661,28.608 L37.661,28.608 Z M0.041,21.068 L0.041,21.068 L0.041,21.048 L0.041,21.048 L0.041,20.978 L0.041,20.978 C0.061,16.838 3.431,13.488 7.571,13.508 L7.571,13.508 C11.711,13.528 15.061,16.898 15.041,21.038 L15.041,21.038 L15.041,21.048 L15.041,21.068 L15.041,21.068 C15.041,25.209 11.691,28.568 7.541,28.568 L7.541,28.568 C3.401,28.568 0.041,25.209 0.041,21.068 L0.041,21.068 Z M26.411,14.528 C22.831,12.438 21.611,7.848 23.701,4.268 L23.701,4.268 C25.781,0.688 30.371,-0.522 33.951,1.568 L33.951,1.568 C37.531,3.648 38.741,8.238 36.661,11.818 L36.661,11.818 C35.271,14.209 32.751,15.548 30.171,15.548 L30.171,15.548 C28.891,15.549 27.591,15.219 26.411,14.528 L26.411,14.528 Z M8.621,11.729 C6.551,8.139 7.801,3.549 11.391,1.489 L11.391,1.489 C14.981,-0.571 19.571,0.67 21.631,4.269 L21.631,4.269 C23.691,7.859 22.451,12.439 18.851,14.499 L18.851,14.499 C17.681,15.179 16.391,15.499 15.131,15.499 L15.131,15.499 C12.531,15.499 10.001,14.148 8.621,11.729 L8.621,11.729 Z"></path>
                        </g>
                        <circle id="Oval" fill="#FFFFFF" cx="22.61" cy="21.073" r="5.802"></circle>
                    </g>
                    <g transform="translate(52.000000, 127.000000)" id="Shape">
                        <path d="M29.547,20.007 C20.937,24.695 9.071,19.513 9.071,19.513 C9.071,19.513 11.158,6.735 19.768,2.047 C28.375,-2.64 40.244,2.54 40.244,2.54 C40.244,2.54 38.154,15.321 29.547,20.007 L29.547,20.007 Z" fill="#A9D163"></path>
                        <path d="M10.668,18.951 L0.61,24.429" stroke="#A9D163" stroke-width="3"></path>
                    </g>
                    <g transform="translate(52.000000, 79.000000)" id="Shape">
                        <path d="M28.972,20.48 C20.362,25.168 8.496,19.986 8.496,19.986 C8.496,19.986 10.583,7.208 19.193,2.52 C27.8,-2.167 39.669,3.013 39.669,3.013 C39.669,3.013 37.579,15.795 28.972,20.48 L28.972,20.48 Z" fill="#A9D163"></path>
                        <path d="M10.093,19.425 L0.035,24.902" stroke="#A9D163" stroke-width="3"></path>
                    </g>
                    <g transform="translate(12.000000, 50.000000)" id="Shape">
                        <path d="M10.701,20.741 C19.311,25.429 31.177,20.247 31.177,20.247 C31.177,20.247 29.09,7.469 20.48,2.781 C11.873,-1.906 0.004,3.274 0.004,3.274 C0.004,3.274 2.094,16.056 10.701,20.741 L10.701,20.741 Z" fill="#A9D163"></path>
                        <path d="M29.58,19.686 L39.638,25.163" stroke="#A9D163" stroke-width="3"></path>
                    </g>
                </g>
                <g id="_x35_Garden_Front_bushes" transform="translate(0.000000, 371.000000)" sketch:type="MSShapeGroup">
                    <g id="Group" transform="translate(1195.000000, 0.000000)">
                        <circle id="Oval" fill="#4FC1B3" cx="202.355" cy="210.263" r="45.466"></circle>
                        <path d="M231.821,298.719 C231.821,315.287 245.253,328.719 261.821,328.719 L276,328.719 C292.568,328.719 306,315.287 306,298.719 L306,159.069 C306,138.586 289.395,121.98 268.911,121.98 C248.427,121.98 231.822,138.585 231.822,159.069 L231.822,298.719 L231.821,298.719 Z" id="Shape" fill="#4FC1B3"></path>
                        <rect id="Rectangle-path" fill="#4FC1B3" x="192.598" y="263.669" width="113.484" height="117.331"></rect>
                        <g transform="translate(96.000000, 198.000000)" fill="#3B9F86">
                            <circle id="Oval" cx="97.831" cy="98.338" r="81.08"></circle>
                            <path d="M87.391,196.369 C78.141,195.398 71.341,187.389 71.741,178.228 L71.741,178.228 C66.651,185.858 56.441,188.308 48.401,183.638 L48.401,183.638 C40.361,178.978 37.421,168.898 41.521,160.708 L41.521,160.708 C33.781,165.607 23.461,163.708 18.001,156.187 L18.001,156.187 C12.541,148.667 13.941,138.257 21.021,132.417 L21.021,132.417 C11.941,133.757 3.271,127.807 1.361,118.707 L1.361,118.707 C-0.549,109.617 4.961,100.686 13.791,98.247 L13.791,98.247 C4.971,95.776 -0.529,86.837 1.401,77.757 L1.401,77.757 C3.341,68.657 12.011,62.727 21.091,64.087 L21.091,64.087 C14.031,58.236 12.651,47.816 18.131,40.307 L18.131,40.307 C23.601,32.807 33.921,30.927 41.651,35.847 L41.651,35.847 C37.571,27.637 40.531,17.567 48.581,12.927 L48.581,12.927 C56.631,8.267 66.851,10.747 71.911,18.397 L71.911,18.397 C71.531,9.227 78.351,1.237 87.601,0.277 L87.601,0.277 C96.831,-0.672 105.131,5.737 106.651,14.757 L106.651,14.757 C110.021,6.236 119.491,1.696 128.331,4.567 L128.331,4.567 C137.181,7.447 142.161,16.697 139.871,25.578 L139.871,25.578 C146.421,19.168 156.911,18.878 163.811,25.098 L163.811,25.098 C170.711,31.318 171.511,41.778 165.821,48.958 L165.821,48.958 C174.411,45.748 184.121,49.748 187.911,58.237 L187.911,58.237 C191.691,66.727 188.161,76.628 180.031,80.868 L180.031,80.868 C189.171,81.447 196.411,89.048 196.411,98.338 L196.411,98.338 L196.411,98.668 L196.411,98.668 C196.331,107.897 189.101,115.428 180.001,115.987 L180.001,115.987 C188.121,120.248 191.621,130.147 187.821,138.637 L187.821,138.637 C184.021,147.107 174.301,151.087 165.721,147.867 L165.721,147.867 C171.391,155.056 170.571,165.516 163.661,171.717 L163.661,171.717 C156.741,177.927 146.251,177.607 139.711,171.187 L139.711,171.187 C141.991,180.067 136.981,189.307 128.131,192.167 L128.131,192.167 C119.281,195.017 109.821,190.457 106.471,181.917 L106.471,181.917 C105.041,190.337 97.711,196.467 89.241,196.467 L89.241,196.467 C88.631,196.469 88.011,196.438 87.391,196.369 L87.391,196.369 Z M91.061,161.559 C97.771,162.269 103.191,166.679 105.511,172.549 L105.511,172.549 C106.581,166.339 110.971,160.929 117.381,158.859 L117.381,158.859 C123.781,156.79 130.511,158.609 135.011,163.019 L135.011,163.019 C133.461,156.91 135.271,150.169 140.281,145.669 L140.281,145.669 C145.291,141.169 152.191,140.099 158.091,142.299 L158.091,142.299 C154.201,137.349 153.131,130.459 155.881,124.319 L155.881,124.319 C158.631,118.179 164.481,114.41 170.751,114.009 L170.751,114.009 C165.181,111.069 161.391,105.219 161.411,98.479 L161.411,98.479 L161.411,98.429 L161.411,98.429 L161.411,98.339 L161.411,98.339 C161.411,91.599 165.221,85.749 170.801,82.829 L170.801,82.829 C164.521,82.419 158.681,78.629 155.941,72.488 L155.941,72.488 C153.201,66.329 154.291,59.448 158.191,54.499 L158.191,54.499 C152.281,56.688 145.391,55.608 140.381,51.089 L140.381,51.089 C140.381,51.089 140.381,51.089 140.381,51.099 L140.381,51.099 C135.381,46.589 133.581,39.839 135.141,33.739 L135.141,33.739 C130.641,38.13 123.911,39.939 117.511,37.859 L117.511,37.859 C111.111,35.779 106.731,30.359 105.671,24.149 L105.671,24.149 C103.331,30.009 97.901,34.399 91.201,35.099 L91.201,35.099 C84.511,35.789 78.311,32.609 74.821,27.379 L74.821,27.379 C75.071,33.659 71.911,39.869 66.091,43.229 L66.091,43.229 C60.251,46.599 53.281,46.229 47.961,42.859 L47.961,42.859 C50.751,48.509 50.381,55.489 46.411,60.929 L46.411,60.929 C42.441,66.369 35.931,68.849 29.711,67.939 L29.711,67.939 C34.541,71.96 37.041,78.46 35.641,85.04 L35.641,85.04 C34.241,91.63 29.301,96.56 23.231,98.26 L23.231,98.26 C29.291,99.97 34.221,104.91 35.611,111.51 L35.611,111.51 C37.001,118.09 34.481,124.58 29.641,128.59 L29.641,128.59 C35.871,127.69 42.381,130.19 46.331,135.63 L46.331,135.63 C50.291,141.09 50.641,148.06 47.841,153.71 L47.841,153.71 C53.171,150.35 60.141,149.989 65.971,153.37 L65.971,153.37 C71.781,156.75 74.931,162.96 74.671,169.239 L74.671,169.239 C77.841,164.5 83.241,161.46 89.201,161.46 L89.201,161.46 C89.811,161.459 90.431,161.499 91.061,161.559 L91.061,161.559 Z" id="Shape"></path>
                        </g>
                        <path d="M268.911,164.797 L268.911,106.972 C268.911,91.857 263.242,77.29 253.024,66.151 L238.822,50.67" id="Shape" stroke="#A9D163" stroke-width="8"></path>
                        <path d="M257.845,177.516 C255.602,178.901 252.66,178.205 251.276,175.963 L251.276,175.963 C249.891,173.72 250.588,170.779 252.83,169.395 L275.799,155.213 C278.041,153.828 280.983,154.524 282.367,156.766 L282.367,156.766 C283.752,159.009 283.055,161.95 280.814,163.334 L257.845,177.516 L257.845,177.516 Z" id="Shape" fill="#1B6C72"></path>
                        <g transform="translate(193.000000, 0.000000)">
                            <path d="M28.848,9.349 C37.996,0.2 52.83,0.199 61.98,9.349 L61.98,9.349 C71.128,18.497 71.128,33.331 61.98,42.48 L42.763,61.697 C33.614,70.846 18.78,70.846 9.631,61.697 L9.631,61.697 C0.481,52.548 0.482,37.715 9.631,28.566 C12.008,26.188 15.863,26.188 18.24,28.566 L24.547,34.873 L35.154,24.266 L28.847,17.959 C26.471,15.581 26.471,11.726 28.848,9.349 L28.848,9.349 Z" id="Shape" fill="#F495B6"></path>
                            <rect id="Rectangle-path" fill="#FFFFFF" x="25.791" y="25.507" width="20.03" height="20.031"></rect>
                            <path d="M35.805,24.915 C38.735,27.845 38.735,32.595 35.806,35.522 L35.806,35.522 C32.877,38.452 28.127,38.452 25.199,35.522 L2.982,13.305 C0.053,10.376 0.053,5.626 2.982,2.698 L2.982,2.698 C5.911,-0.231 10.66,-0.231 13.589,2.698 L35.805,24.915 L35.805,24.915 Z" id="Shape" fill="#FFC64A"></path>
                        </g>
                        <g transform="translate(226.000000, 107.000000)" id="Shape">
                            <path d="M20.233,1.424 C29.636,4.197 34.362,16.252 34.362,16.252 C34.362,16.252 23.85,23.812 14.448,21.038 C5.048,18.266 0.318,6.211 0.318,6.211 C0.318,6.211 10.833,-1.35 20.233,1.424 L20.233,1.424 Z" fill="#A9D163"></path>
                            <path d="M32.836,15.52 L43.821,18.759" stroke="#A9D163" stroke-width="6"></path>
                        </g>
                        <g transform="translate(265.000000, 46.000000)" id="Shape">
                            <path d="M26.94,20.063 C20.008,26.995 7.161,25.382 7.161,25.382 C7.161,25.382 5.548,12.534 12.479,5.604 C19.409,-1.327 32.258,0.284 32.258,0.284 C32.258,0.284 33.87,13.134 26.94,20.063 L26.94,20.063 Z" fill="#A9D163"></path>
                            <path d="M8.534,24.393 L0.436,32.491" stroke="#A9D163" stroke-width="6"></path>
                        </g>
                        <path d="M138.607,379.669 L37.334,379.669 C21.904,379.669 9.396,367.161 9.396,351.731 C9.396,336.301 21.904,323.793 37.334,323.793 L138.607,323.793 L138.607,379.669 L138.607,379.669 Z" id="Shape" fill="#4FC1B3"></path>
                        <circle id="Oval" fill="#4FC1B3" cx="50.818" cy="315.371" r="12.52"></circle>
                        <g transform="translate(56.000000, 198.000000)" fill="#3BB67D">
                            <circle id="Oval" cx="97.667" cy="98.338" r="81.08"></circle>
                            <path d="M87.221,196.369 C77.981,195.398 71.181,187.389 71.571,178.228 L71.571,178.228 C66.491,185.858 56.271,188.308 48.231,183.638 L48.231,183.638 C40.201,178.978 37.261,168.898 41.351,160.708 L41.351,160.708 C33.611,165.607 23.301,163.708 17.841,156.187 L17.841,156.187 C12.381,148.667 13.781,138.257 20.861,132.417 L20.861,132.417 C11.771,133.757 3.111,127.807 1.191,118.707 L1.191,118.707 C-0.709,109.617 4.801,100.696 13.621,98.247 L13.621,98.247 C4.811,95.776 -0.689,86.847 1.241,77.757 L1.241,77.757 C3.171,68.657 11.851,62.727 20.931,64.087 L20.931,64.087 C13.861,58.236 12.491,47.827 17.961,40.316 L17.961,40.306 C23.441,32.806 33.761,30.926 41.491,35.846 L41.491,35.846 C37.411,27.636 40.371,17.566 48.421,12.926 L48.421,12.926 C56.471,8.266 66.681,10.746 71.751,18.396 L71.751,18.396 C71.371,9.226 78.191,1.236 87.441,0.276 L87.441,0.276 C96.671,-0.673 104.971,5.736 106.491,14.756 L106.491,14.756 C109.861,6.235 119.331,1.695 128.171,4.566 L128.171,4.566 C137.011,7.436 142.001,16.696 139.701,25.577 L139.701,25.577 C146.251,19.167 156.751,18.877 163.651,25.097 L163.651,25.097 C170.551,31.317 171.351,41.777 165.651,48.957 L165.651,48.957 C174.241,45.747 183.961,49.747 187.741,58.236 L187.741,58.236 C191.531,66.726 188.001,76.627 179.861,80.867 L179.861,80.867 C189.011,81.446 196.251,89.047 196.251,98.337 L196.251,98.337 L196.251,98.427 L196.251,98.427 L196.251,98.557 L196.251,98.557 C196.221,107.847 188.971,115.427 179.831,115.987 L179.831,115.987 C187.951,120.248 191.461,130.147 187.651,138.637 L187.651,138.637 C183.851,147.107 174.131,151.087 165.551,147.867 L165.551,147.867 C171.231,155.056 170.411,165.516 163.501,171.717 L163.501,171.717 C156.581,177.927 146.081,177.607 139.551,171.187 L139.551,171.187 C141.831,180.067 136.821,189.307 127.971,192.167 L127.971,192.167 C119.121,195.017 109.661,190.457 106.311,181.927 L106.311,181.927 C104.871,190.337 97.551,196.467 89.081,196.467 L89.081,196.467 C88.471,196.469 87.851,196.438 87.221,196.369 L87.221,196.369 Z M90.901,161.559 C97.601,162.269 103.021,166.679 105.341,172.549 L105.341,172.549 C106.411,166.339 110.811,160.929 117.221,158.859 L117.221,158.859 C123.621,156.79 130.351,158.609 134.841,163.009 L134.841,163.009 C133.291,156.909 135.101,150.169 140.121,145.669 L140.121,145.669 C145.131,141.169 152.031,140.099 157.931,142.299 L157.931,142.299 C154.041,137.349 152.961,130.459 155.721,124.319 L155.721,124.319 C158.471,118.179 164.311,114.41 170.591,114.009 L170.591,114.009 C165.021,111.069 161.231,105.219 161.241,98.479 L161.241,98.479 L161.241,98.429 L161.241,98.429 L161.241,98.339 L161.241,98.339 C161.241,91.599 165.051,85.749 170.631,82.829 L170.631,82.829 C164.361,82.419 158.511,78.629 155.771,72.488 L155.771,72.488 C153.031,66.339 154.131,59.448 158.031,54.499 L158.031,54.499 C152.121,56.688 145.221,55.608 140.221,51.089 L140.221,51.089 C140.221,51.089 140.221,51.089 140.221,51.099 L140.221,51.099 C135.211,46.589 133.421,39.839 134.981,33.739 L134.981,33.739 C130.471,38.13 123.741,39.939 117.341,37.859 L117.341,37.859 C110.941,35.779 106.561,30.359 105.501,24.149 L105.501,24.149 C103.171,30.009 97.741,34.399 91.031,35.099 L91.031,35.099 C84.341,35.789 78.141,32.609 74.661,27.379 L74.661,27.379 C74.901,33.659 71.741,39.869 65.921,43.229 L65.921,43.229 C60.091,46.599 53.121,46.229 47.791,42.859 L47.791,42.859 C50.581,48.509 50.221,55.489 46.241,60.929 L46.241,60.929 C42.281,66.369 35.771,68.849 29.541,67.939 L29.541,67.939 C34.371,71.96 36.871,78.46 35.481,85.04 L35.481,85.04 C34.071,91.63 29.131,96.56 23.061,98.26 L23.061,98.26 C29.131,99.97 34.061,104.91 35.451,111.51 L35.451,111.51 C36.831,118.09 34.321,124.58 29.481,128.59 L29.481,128.59 C35.711,127.69 42.211,130.19 46.161,135.63 L46.161,135.63 L46.171,135.63 L46.171,135.63 C50.131,141.09 50.481,148.06 47.681,153.71 L47.681,153.71 C53.011,150.35 59.981,149.989 65.801,153.38 L65.801,153.38 C71.621,156.75 74.761,162.96 74.511,169.239 L74.511,169.239 C77.681,164.5 83.071,161.46 89.041,161.46 L89.041,161.46 C89.651,161.459 90.271,161.499 90.901,161.559 L90.901,161.559 Z" id="Shape"></path>
                        </g>
                        <g transform="translate(116.000000, 244.000000)">
                            <g fill="#FFC64A">
                                <circle id="Oval" cx="17.752" cy="18.012" r="9.931"></circle>
                                <path d="M10.261,27.948 C10.261,26.848 10.501,25.808 10.921,24.869 L10.921,24.869 C9.981,25.289 8.941,25.528 7.841,25.539 L7.841,25.539 C3.691,25.539 0.331,22.188 0.321,18.049 L0.321,18.049 C0.311,13.909 3.661,10.539 7.801,10.539 L7.801,10.539 C8.901,10.528 9.951,10.768 10.891,11.188 L10.891,11.188 C10.461,10.249 10.221,9.209 10.221,8.108 L10.221,8.108 C10.211,3.959 13.551,0.598 17.701,0.579 L17.701,0.579 C21.841,0.568 25.211,3.919 25.221,8.058 L25.221,8.058 C25.221,9.159 24.991,10.198 24.571,11.148 L24.571,11.148 C25.511,10.718 26.551,10.478 27.651,10.468 L27.651,10.468 C31.791,10.447 35.161,13.798 35.181,17.938 L35.181,17.938 L35.181,17.988 L35.181,17.988 L35.181,18.009 L35.181,18.009 C35.181,22.149 31.821,25.509 27.681,25.509 L27.681,25.509 C26.581,25.509 25.541,25.279 24.601,24.849 L24.601,24.849 C25.021,25.789 25.261,26.839 25.261,27.939 L25.261,27.939 C25.271,32.08 21.911,35.439 17.771,35.439 L17.771,35.439 C13.631,35.448 10.271,32.099 10.261,27.948 L10.261,27.948 Z M15.321,18.019 C15.321,19.12 15.091,20.169 14.661,21.109 L14.661,21.109 C15.601,20.679 16.651,20.439 17.751,20.439 L17.751,20.439 C18.861,20.439 19.901,20.679 20.851,21.109 L20.851,21.109 C20.421,20.16 20.181,19.12 20.181,18.009 L20.181,18.009 C20.181,18.009 20.181,18.009 20.181,17.999 L20.181,17.999 C20.181,16.898 20.411,15.849 20.831,14.909 L20.831,14.909 C19.891,15.339 18.841,15.579 17.741,15.579 L17.741,15.579 C16.641,15.589 15.591,15.349 14.651,14.929 L14.651,14.929 C15.081,15.869 15.321,16.919 15.321,18.019 L15.321,18.019 Z" id="Shape"></path>
                            </g>
                            <circle id="Oval" fill="#FFFFFF" cx="17.752" cy="18.013" r="3.824"></circle>
                        </g>
                        <g transform="translate(161.000000, 307.000000)">
                            <g fill="#FFC64A">
                                <circle id="Oval" cx="17.997" cy="18.301" r="9.931"></circle>
                                <path d="M10.511,28.238 C10.511,27.138 10.741,26.098 11.161,25.159 L11.161,25.159 C10.231,25.579 9.181,25.818 8.081,25.818 L8.081,25.818 C3.941,25.829 0.571,22.478 0.571,18.339 L0.571,18.339 C0.561,14.198 3.911,10.829 8.051,10.818 L8.051,10.818 C9.151,10.818 10.191,11.058 11.141,11.478 L11.141,11.478 C10.711,10.539 10.471,9.499 10.461,8.398 L10.461,8.398 C10.451,4.249 13.801,0.888 17.941,0.869 L17.941,0.869 C22.081,0.858 25.451,4.198 25.461,8.348 L25.461,8.348 C25.471,9.448 25.231,10.488 24.811,11.438 L24.811,11.438 C25.751,11.008 26.801,10.758 27.901,10.758 L27.901,10.758 C32.041,10.737 35.411,14.088 35.431,18.228 L35.431,18.228 L35.431,18.278 L35.431,18.278 L35.431,18.299 L35.431,18.299 C35.431,22.439 32.071,25.799 27.931,25.799 L27.931,25.799 C26.831,25.799 25.781,25.569 24.841,25.139 L24.841,25.139 C25.271,26.079 25.511,27.119 25.511,28.219 L25.511,28.219 C25.511,32.369 22.161,35.729 18.021,35.729 L18.021,35.729 C13.871,35.738 10.511,32.379 10.511,28.238 L10.511,28.238 Z M14.911,21.398 C15.851,20.968 16.891,20.728 18.001,20.728 L18.001,20.728 C19.101,20.728 20.151,20.968 21.091,21.398 L21.091,21.398 C20.661,20.448 20.431,19.398 20.431,18.298 L20.431,18.298 L20.431,18.288 C20.421,17.187 20.651,16.138 21.081,15.197 L21.081,15.197 C20.141,15.628 19.091,15.868 17.991,15.868 L17.991,15.868 C16.881,15.868 15.841,15.638 14.891,15.218 L14.891,15.218 C15.321,16.158 15.561,17.197 15.561,18.308 L15.561,18.308 C15.571,19.409 15.331,20.459 14.911,21.398 L14.911,21.398 Z" id="Shape"></path>
                            </g>
                            <circle id="Oval" fill="#FFFFFF" cx="17.997" cy="18.302" r="3.824"></circle>
                        </g>
                        <g transform="translate(0.000000, 303.000000)" id="Oval">
                            <circle fill="#775AA6" cx="34.43" cy="32.374" r="15.526"></circle>
                            <circle fill="#B561A6" cx="20.09" cy="23.003" r="10.351"></circle>
                            <circle fill="#F496BF" cx="13.039" cy="13.285" r="6.9"></circle>
                            <circle fill="#FFC64A" cx="6.131" cy="6.16" r="5.175"></circle>
                        </g>
                    </g>
                    <g id="Group" transform="translate(0.000000, 194.000000)">
                        <g transform="translate(214.000000, 115.000000)" id="Shape" fill="#4FC1B3">
                            <path d="M121.213,51.506 C121.213,64.842 110.401,75.653 97.065,75.653 L24.158,75.653 C10.822,75.653 0.01,64.841 0.01,51.506 L0.01,51.506 C0.01,38.169 10.822,27.358 24.158,27.358 L97.065,27.358 C110.401,27.357 121.213,38.169 121.213,51.506 L121.213,51.506 L121.213,51.506 Z"></path>
                            <path d="M29.088,20.59 C29.088,9.555 38.034,0.609 49.069,0.609 L49.069,0.609 C60.105,0.609 69.051,9.555 69.051,20.59 L69.051,20.591 C69.051,31.626 60.105,40.572 49.069,40.572 L49.069,40.572 C38.034,40.572 29.088,31.626 29.088,20.59 L29.088,20.59 L29.088,20.59 Z"></path>
                        </g>
                        <g>
                            <g transform="translate(34.000000, 2.000000)" fill="#3B9F86">
                                <circle id="Oval" cx="113.754" cy="112.611" r="95.62"></circle>
                                <path d="M113.711,212.339 C111.011,220.429 102.731,225.539 94.081,224.028 L94.081,224.028 C85.421,222.499 79.371,214.858 79.611,206.318 L79.611,206.318 C74.301,213.008 64.761,214.968 57.151,210.568 L57.151,210.568 C49.541,206.169 46.491,196.919 49.641,188.988 L49.641,188.988 C42.371,193.448 32.741,192.049 27.091,185.318 L27.091,185.318 C21.441,178.589 21.721,168.848 27.391,162.468 L27.391,162.468 C19.021,164.188 10.441,159.568 7.431,151.308 L7.431,151.308 C4.421,143.038 8.031,133.978 15.551,129.918 L15.551,129.918 C7.111,128.678 0.631,121.397 0.631,112.607 L0.631,112.607 L0.631,112.507 L0.631,112.507 L0.631,112.367 L0.631,112.367 C0.651,103.577 7.141,96.316 15.571,95.087 L15.571,95.087 C8.071,91.017 4.491,81.946 7.511,73.696 L7.511,73.696 C10.531,65.436 19.111,60.837 27.471,62.566 L27.471,62.566 C21.831,56.176 21.571,46.446 27.231,39.726 L27.231,39.736 C32.901,33.016 42.531,31.627 49.791,36.106 L49.791,36.106 C46.661,28.167 49.731,18.926 57.341,14.537 L57.341,14.537 C64.961,10.146 74.511,12.137 79.801,18.837 L79.801,18.837 C79.581,10.297 85.641,2.657 94.311,1.157 L94.311,1.157 C102.961,-0.343 111.231,4.787 113.911,12.877 L113.911,12.877 C116.611,4.797 124.901,-0.313 133.541,1.217 L133.541,1.217 C142.211,2.747 148.241,10.407 148.001,18.937 L148.001,18.937 C153.311,12.257 162.861,10.297 170.471,14.717 L170.471,14.717 C178.061,19.127 181.101,28.377 177.951,36.297 L177.951,36.297 C185.221,31.847 194.851,33.267 200.491,39.997 L200.491,39.997 C206.141,46.726 205.841,56.467 200.171,62.847 L200.171,62.847 C208.541,61.137 217.121,65.767 220.121,74.027 L220.121,74.027 C223.121,82.298 219.501,91.357 211.971,95.408 L211.971,95.408 C220.411,96.658 226.881,103.947 226.871,112.737 L226.871,112.737 C226.871,121.517 220.391,128.777 211.951,130.027 L211.951,130.027 C219.461,134.088 223.061,143.147 220.041,151.408 L220.041,151.408 C217.021,159.668 208.441,164.277 200.091,162.548 L200.091,162.548 C205.731,168.938 206.011,178.668 200.351,185.398 L200.351,185.398 C194.701,192.119 185.061,193.518 177.801,189.039 L177.801,189.039 C180.941,196.978 177.881,206.219 170.271,210.619 L170.271,210.619 C162.661,215.018 153.101,213.039 147.801,206.339 L147.801,206.339 C148.041,214.879 141.981,222.528 133.321,224.039 L133.321,224.039 C132.301,224.219 131.291,224.309 130.291,224.309 L130.291,224.309 C122.801,224.309 116.071,219.479 113.711,212.339 L113.711,212.339 Z M100.131,189.549 C106.681,190.698 111.741,195.359 113.711,201.249 L113.711,201.249 C115.691,195.358 120.751,190.709 127.301,189.568 L127.301,189.568 C133.841,188.419 140.161,191.068 144.021,195.928 L144.021,195.928 C143.861,189.728 147.011,183.628 152.761,180.308 L152.761,180.308 C152.761,180.308 152.761,180.308 152.761,180.318 L152.761,180.318 C158.521,176.988 165.381,177.308 170.681,180.548 L170.681,180.548 C168.401,174.768 169.291,167.947 173.571,162.858 L173.571,162.858 C177.841,157.778 184.391,155.738 190.471,156.978 L190.471,156.978 C186.381,152.329 184.891,145.638 187.161,139.409 L187.161,139.409 C189.441,133.169 194.891,129.018 201.021,128.098 L201.021,128.098 C195.571,125.128 191.871,119.338 191.871,112.698 L191.871,112.698 C191.881,106.039 195.601,100.259 201.071,97.308 L201.071,97.308 C194.931,96.378 189.481,92.208 187.221,85.968 L187.221,85.968 C184.951,79.728 186.461,73.028 190.571,68.388 L190.571,68.388 C184.491,69.618 177.931,67.568 173.671,62.478 L173.671,62.478 C169.401,57.378 168.521,50.568 170.811,44.789 L170.811,44.789 C165.501,48.018 158.641,48.318 152.901,44.988 L152.901,44.988 C147.161,41.659 144.021,35.558 144.181,29.369 L144.181,29.369 C140.321,34.209 133.991,36.839 127.461,35.688 L127.461,35.688 C120.911,34.528 115.861,29.869 113.891,23.978 L113.891,23.978 C111.911,29.858 106.841,34.508 100.291,35.648 L100.291,35.648 C100.291,35.648 100.291,35.648 100.291,35.638 L100.291,35.638 C93.751,36.778 87.431,34.118 83.581,29.258 L83.581,29.258 C83.731,35.458 80.571,41.548 74.821,44.868 L74.821,44.868 C69.061,48.187 62.191,47.857 56.901,44.607 L56.901,44.607 C59.171,50.387 58.281,57.208 53.991,62.288 L53.991,62.288 C53.991,62.288 53.991,62.288 53.991,62.298 L53.991,62.298 C49.711,67.368 43.161,69.398 37.091,68.158 L37.091,68.158 C41.171,72.817 42.661,79.508 40.371,85.737 L40.371,85.737 C38.091,91.967 32.641,96.118 26.501,97.027 L26.501,97.027 C31.961,100.007 35.651,105.798 35.631,112.437 L35.631,112.437 L35.631,112.507 L35.631,112.507 L35.631,112.607 L35.631,112.607 C35.631,119.257 31.921,125.047 26.461,128.007 L26.461,128.007 C32.591,128.927 38.051,133.087 40.321,139.327 L40.321,139.327 C40.321,139.327 40.321,139.327 40.321,139.337 L40.321,139.337 C42.591,145.577 41.091,152.267 36.981,156.917 L36.981,156.917 C43.071,155.677 49.621,157.717 53.901,162.807 L53.901,162.807 C58.171,167.897 59.051,174.717 56.771,180.497 L56.771,180.497 C62.071,177.257 68.931,176.946 74.681,180.276 L74.681,180.276 C80.431,183.596 83.571,189.686 83.411,195.886 L83.411,195.886 C86.671,191.796 91.681,189.286 97.081,189.286 L97.081,189.286 C98.091,189.289 99.111,189.369 100.131,189.549 L100.131,189.549 Z" id="Shape"></path>
                            </g>
                            <g id="Shape" fill="#3BB67D">
                                <path d="M18.022,112.609 C18.022,165.419 60.833,208.23 113.641,208.23 C166.451,208.23 185.831,165.418 185.831,112.609 C185.831,59.8 166.451,16.988 113.641,16.988 C60.833,16.988 18.022,59.8 18.022,112.609 L18.022,112.609 Z"></path>
                                <path d="M95.261,224.238 C86.421,222.799 80.221,214.959 80.601,206.228 L80.601,206.228 C75.411,213.268 65.671,215.478 57.881,211.058 L57.881,211.058 C50.101,206.638 47.001,197.159 50.361,189.098 L50.361,189.098 C43.081,193.909 33.191,192.628 27.401,185.818 L27.401,185.818 C21.601,178.988 21.951,169.018 27.881,162.608 L27.881,162.608 C19.381,164.629 10.521,160.018 7.431,151.608 L7.431,151.608 C4.341,143.198 8.111,133.948 15.911,129.978 L15.911,129.978 C7.241,128.938 0.521,121.558 0.521,112.608 L0.521,112.608 L0.521,112.459 L0.521,112.459 L0.521,112.238 L0.521,112.238 C0.551,103.289 7.291,95.938 15.951,94.909 L15.951,94.909 C8.181,90.919 4.441,81.659 7.551,73.259 L7.551,73.259 C10.671,64.869 19.531,60.289 28.031,62.329 L28.031,62.329 C22.121,55.898 21.811,45.929 27.631,39.139 L27.631,39.139 C33.441,32.329 43.341,31.089 50.611,35.929 L50.611,35.929 C47.261,27.859 50.391,18.379 58.191,13.989 L58.191,13.989 C66.001,9.59 75.741,11.83 80.901,18.889 L80.901,18.889 C80.541,10.149 86.771,2.339 95.621,0.919 L95.621,0.919 C104.461,-0.501 112.811,4.969 115.211,13.369 L115.211,13.369 C118.011,4.929 126.821,-0.171 135.681,1.839 L135.681,1.839 C144.791,3.909 150.621,12.729 149.071,21.829 L149.071,21.829 C155.891,15.438 166.601,15.518 173.311,22.139 L173.311,22.139 C179.941,28.66 180.271,39.149 174.251,46.069 L174.251,46.069 C182.871,43.949 191.851,48.67 194.891,57.21 L194.891,57.21 C197.841,65.48 194.171,74.51 186.641,78.52 L186.641,78.52 C194.971,79.22 201.831,85.84 202.571,94.45 L202.571,94.45 C203.311,102.921 197.871,110.501 190.001,112.77 L190.001,112.77 C197.871,115.05 203.291,122.64 202.541,131.11 L202.541,131.11 C201.791,139.72 194.911,146.331 186.571,147.02 L186.571,147.02 C194.101,151.041 197.741,160.081 194.771,168.36 L194.771,168.36 C191.711,176.89 182.701,181.57 174.091,179.43 L174.091,179.43 C180.071,186.38 179.681,196.87 173.031,203.36 L173.031,203.36 C166.281,209.94 155.571,209.97 148.781,203.55 L148.781,203.55 C150.281,212.65 144.421,221.44 135.311,223.46 L135.311,223.46 C126.451,225.43 117.661,220.3 114.891,211.85 L114.891,211.85 C112.731,219.33 105.841,224.48 98.111,224.47 L98.111,224.47 C97.171,224.469 96.221,224.398 95.261,224.238 L95.261,224.238 Z M100.911,189.698 C107.571,190.789 112.731,195.499 114.711,201.488 L114.711,201.488 C116.441,195.558 121.261,190.728 127.721,189.289 L127.721,189.289 C133.611,187.978 139.461,189.809 143.541,193.659 L143.541,193.659 C142.651,188.219 144.351,182.438 148.601,178.299 L148.601,178.299 C153.091,173.919 159.341,172.439 165.021,173.839 L165.021,173.839 C161.061,169.219 159.631,162.659 161.831,156.528 L161.831,156.528 C164.221,149.869 170.221,145.558 176.831,144.999 L176.831,144.999 C170.861,141.789 167.051,135.228 167.681,128.039 L167.681,128.039 C168.331,120.629 173.511,114.709 180.251,112.759 L180.251,112.759 C173.511,110.799 168.341,104.869 167.701,97.459 L167.701,97.459 C167.081,90.259 170.911,83.709 176.901,80.509 L176.901,80.509 C170.281,79.939 164.291,75.599 161.921,68.939 L161.921,68.939 C159.731,62.779 161.191,56.219 165.181,51.609 L165.181,51.609 C159.491,52.989 153.231,51.479 148.751,47.069 L148.751,47.069 C144.531,42.91 142.861,37.12 143.781,31.679 L143.781,31.679 C139.681,35.509 133.821,37.309 127.941,35.979 L127.941,35.979 C121.501,34.519 116.701,29.669 114.991,23.739 L114.991,23.739 C112.991,29.719 107.811,34.41 101.161,35.479 L101.161,35.479 C94.461,36.549 88.031,33.669 84.271,28.549 L84.271,28.549 C84.521,34.899 81.291,41.149 75.371,44.479 L75.371,44.479 C69.451,47.819 62.411,47.339 57.111,43.819 L57.111,43.819 C59.531,49.71 58.651,56.71 54.231,61.88 L54.231,61.88 C49.821,67.04 43.051,69 36.871,67.529 L36.871,67.529 C41.161,72.219 42.731,79.08 40.371,85.439 L40.371,85.439 C38.011,91.799 32.341,95.969 26.041,96.729 L26.041,96.729 C31.691,99.649 35.541,105.549 35.521,112.349 L35.521,112.349 L35.521,112.459 L35.521,112.459 L35.521,112.608 L35.521,112.608 C35.521,119.409 31.641,125.308 25.981,128.198 L25.981,128.198 C32.281,128.978 37.941,133.169 40.281,139.549 L40.281,139.549 C40.281,139.549 40.281,139.549 40.281,139.539 L40.281,139.539 C42.621,145.919 41.021,152.778 36.721,157.448 L36.721,157.448 C42.911,155.999 49.671,157.978 54.081,163.159 L54.081,163.159 C58.481,168.339 59.341,175.339 56.901,181.209 L56.901,181.209 C62.211,177.719 69.251,177.259 75.161,180.608 L75.161,180.608 C81.061,183.959 84.271,190.218 84.011,196.558 L84.011,196.558 C87.251,192.188 92.431,189.468 98.061,189.468 L98.061,189.468 C99.001,189.469 99.961,189.539 100.911,189.698 L100.911,189.698 Z"></path>
                            </g>
                            <g transform="translate(127.000000, 43.000000)">
                                <g fill="#FFC64A">
                                    <circle id="Oval" cx="17.646" cy="18.158" r="9.931"></circle>
                                    <path d="M10.161,28.099 C10.151,26.999 10.391,25.949 10.821,25.009 L10.821,25.009 C9.881,25.439 8.831,25.679 7.731,25.679 L7.731,25.679 C3.591,25.689 0.221,22.339 0.211,18.199 L0.211,18.199 C0.201,14.059 3.561,10.689 7.701,10.679 L7.701,10.679 C8.801,10.679 9.841,10.909 10.791,11.339 L10.791,11.339 C10.361,10.399 10.121,9.349 10.111,8.249 L10.111,8.249 C10.101,4.108 13.451,0.738 17.591,0.728 L17.591,0.728 C21.731,0.718 25.101,4.058 25.111,8.208 L25.111,8.208 C25.121,9.308 24.881,10.348 24.461,11.288 L24.461,11.288 C25.401,10.857 26.441,10.618 27.551,10.618 L27.551,10.618 C31.571,10.597 34.861,13.748 35.061,17.727 L35.061,17.727 C35.071,17.868 35.081,18.007 35.081,18.158 L35.081,18.158 C35.081,22.298 31.721,25.658 27.571,25.658 L27.571,25.658 C26.481,25.658 25.431,25.418 24.491,24.998 L24.491,24.998 C24.921,25.937 25.161,26.977 25.161,28.078 L25.161,28.078 C25.161,32.218 21.811,35.588 17.661,35.588 L17.661,35.588 C13.521,35.599 10.161,32.238 10.161,28.099 L10.161,28.099 Z M15.211,18.159 C15.221,19.268 14.981,20.318 14.551,21.259 L14.551,21.259 C15.501,20.829 16.541,20.589 17.651,20.589 L17.651,20.589 C18.751,20.589 19.801,20.829 20.741,21.249 L20.741,21.249 C20.311,20.309 20.071,19.259 20.071,18.159 L20.071,18.159 L20.071,18.148 C20.071,17.048 20.301,15.999 20.731,15.048 L20.731,15.048 C19.781,15.478 18.741,15.728 17.641,15.728 L17.641,15.728 C16.531,15.728 15.491,15.499 14.541,15.068 L14.541,15.068 C14.971,16.019 15.211,17.059 15.211,18.159 L15.211,18.159 Z" id="Shape"></path>
                                </g>
                                <circle id="Oval" fill="#FFFFFF" cx="17.646" cy="18.159" r="3.824"></circle>
                            </g>
                            <g transform="translate(109.000000, 132.000000)">
                                <g>
                                    <circle id="Oval" fill="#F28B58" cx="18.308" cy="17.976" r="9.931"></circle>
                                    <path d="M10.821,27.919 C10.821,26.818 11.051,25.769 11.481,24.829 L11.481,24.829 C10.541,25.259 9.491,25.499 8.391,25.499 L8.391,25.499 C4.251,25.509 0.881,22.159 0.871,18.019 L0.871,18.019 C0.871,18.019 0.871,18.019 0.871,18.009 L0.871,18.009 C0.871,13.869 4.221,10.509 8.361,10.499 L8.361,10.499 C9.461,10.499 10.501,10.728 11.451,11.148 L11.451,11.148 C11.021,10.209 10.781,9.169 10.771,8.068 L10.771,8.068 C10.761,3.928 14.111,0.558 18.251,0.548 L18.251,0.548 C22.391,0.527 25.761,3.878 25.771,8.018 L25.771,8.018 C25.781,9.119 25.541,10.168 25.121,11.108 L25.121,11.108 C26.061,10.678 27.111,10.438 28.211,10.428 L28.211,10.428 C32.231,10.418 35.521,13.568 35.731,17.548 L35.731,17.548 C35.731,17.688 35.741,17.828 35.741,17.978 L35.741,17.978 C35.741,22.119 32.381,25.478 28.241,25.478 L28.241,25.478 C27.141,25.478 26.091,25.238 25.151,24.808 L25.151,24.808 C25.581,25.758 25.821,26.798 25.821,27.898 L25.821,27.898 C25.821,32.039 22.471,35.398 18.331,35.409 L18.331,35.409 C14.181,35.409 10.821,32.059 10.821,27.919 L10.821,27.919 Z M15.881,17.979 C15.881,19.089 15.641,20.129 15.221,21.08 L15.221,21.08 C16.161,20.649 17.211,20.41 18.311,20.41 L18.311,20.41 C19.411,20.41 20.461,20.649 21.401,21.069 L21.401,21.069 C20.981,20.13 20.741,19.08 20.741,17.979 L20.741,17.979 L20.741,17.969 C20.731,16.859 20.971,15.819 21.391,14.869 L21.391,14.869 C20.451,15.299 19.401,15.539 18.301,15.549 L18.301,15.549 C17.201,15.549 16.151,15.319 15.201,14.889 L15.201,14.889 C15.631,15.829 15.871,16.879 15.881,17.979 L15.881,17.979 Z" id="Shape" fill="#FFC64A"></path>
                                </g>
                                <circle id="Oval" fill="#FFFFFF" cx="18.308" cy="17.977" r="3.824"></circle>
                            </g>
                            <g transform="translate(75.000000, 82.000000)">
                                <g fill="#FFC64A">
                                    <circle id="Oval" cx="17.654" cy="17.933" r="9.931"></circle>
                                    <path d="M10.161,27.869 C10.161,26.768 10.401,25.728 10.821,24.789 L10.821,24.789 C9.881,25.209 8.841,25.448 7.741,25.459 L7.741,25.459 C3.601,25.469 0.231,22.119 0.221,17.969 L0.221,17.969 C0.211,13.829 3.561,10.459 7.711,10.459 L7.711,10.459 C8.811,10.448 9.851,10.688 10.791,11.108 L10.791,11.108 C10.361,10.169 10.121,9.129 10.121,8.028 L10.121,8.028 C10.111,3.879 13.461,0.518 17.601,0.508 L17.601,0.508 C21.741,0.487 25.111,3.838 25.121,7.978 L25.121,7.978 C25.121,9.079 24.891,10.128 24.471,11.068 L24.471,11.068 C25.411,10.638 26.451,10.398 27.551,10.388 L27.551,10.388 C31.701,10.368 35.071,13.718 35.081,17.858 L35.081,17.858 L35.081,17.919 L35.081,17.919 L35.081,17.929 C35.081,22.079 31.731,25.429 27.581,25.429 L27.581,25.429 C26.481,25.429 25.441,25.199 24.501,24.769 L24.501,24.769 C24.921,25.709 25.161,26.759 25.161,27.859 L25.161,27.859 C25.171,32 21.811,35.359 17.671,35.37 L17.671,35.37 C13.531,35.369 10.171,32.019 10.161,27.869 L10.161,27.869 Z M15.221,17.938 C15.231,19.039 14.991,20.088 14.561,21.028 L14.561,21.028 C15.511,20.608 16.551,20.369 17.661,20.369 L17.661,20.369 C18.761,20.358 19.811,20.598 20.751,21.028 L20.751,21.028 C20.321,20.089 20.081,19.039 20.081,17.928 L20.081,17.928 L20.081,17.918 L20.081,17.918 C20.081,16.817 20.311,15.768 20.741,14.828 L20.741,14.828 C19.791,15.258 18.751,15.498 17.641,15.498 L17.641,15.498 C16.541,15.508 15.501,15.268 14.551,14.848 L14.551,14.848 C14.981,15.789 15.221,16.839 15.221,17.938 L15.221,17.938 Z" id="Shape"></path>
                                </g>
                                <circle id="Oval" fill="#FFFFFF" cx="17.654" cy="17.934" r="3.824"></circle>
                            </g>
                        </g>
                    </g>
                </g>
                <g id="_x35_PIano" transform="translate(545.000000, 472.000000)" sketch:type="MSShapeGroup">
                    <g id="Group">
                        <g>
                            <path d="M450.976,16.101 C450.976,7.722 444.184,0.929 435.805,0.929 L36.196,0.929 C27.817,0.929 21.025,7.722 21.025,16.101 L21.025,76.5 L450.976,76.5 L450.976,16.101 L450.976,16.101 Z" id="Shape" fill="#782C2A"></path>
                            <g transform="translate(139.000000, 13.000000)" id="Rectangle-path">
                                <rect fill="#FFFFFF" x="0.667" y="0.044" width="36.333" height="43.551"></rect>
                                <rect fill="#323232" x="4.25" y="3.727" width="29.167" height="2.85"></rect>
                                <rect fill="#323232" x="4.25" y="9.381" width="29.167" height="2.849"></rect>
                                <rect fill="#323232" x="4.25" y="15.035" width="29.167" height="2.849"></rect>
                                <rect fill="#323232" x="4.25" y="20.688" width="29.167" height="2.85"></rect>
                                <rect fill="#323232" x="4.25" y="26.343" width="29.167" height="2.85"></rect>
                                <rect fill="#323232" x="4.25" y="31.997" width="29.167" height="2.849"></rect>
                                <rect fill="#323232" x="4.25" y="37.651" width="29.167" height="2.849"></rect>
                            </g>
                            <rect id="Rectangle-path" fill="#782C2A" x="21.024" y="110.484" width="429.952" height="81.739"></rect>
                            <rect id="Rectangle-path" fill="#C94244" x="21.024" y="88.877" width="429.952" height="21.607"></rect>
                            <rect id="Rectangle-path" fill="#C94244" x="6.444" y="77.345" width="23.395" height="114.879"></rect>
                            <rect id="Rectangle-path" fill="#C94244" x="442.163" y="77.345" width="23.394" height="114.879"></rect>
                            <path d="M471.489,60.454 C471.489,58.322 469.761,56.595 467.63,56.595 L4.371,56.595 C2.24,56.595 0.512,58.323 0.512,60.454 L0.512,85.017 C0.512,87.149 2.24,88.876 4.371,88.876 L467.237,88.876 C469.585,88.876 471.488,86.973 471.488,84.624 L471.488,60.454 L471.489,60.454 Z" id="Shape" fill="#C94244"></path>
                            <path d="M433,78.876 L37.49,78.876 L37.49,74.454 C37.49,72.322 39.218,70.595 41.349,70.595 L429.141,70.595 C431.272,70.595 433,72.323 433,74.454 L433,78.876 L433,78.876 Z" id="Shape" fill="#000000"></path>
                            <path d="M447.491,82.793 C447.491,80.631 445.762,78.877 443.632,78.877 L26.859,78.877 C24.728,78.877 23,80.631 23,82.793 L23,88.877 L447.491,88.877 L447.491,82.793 L447.491,82.793 Z" id="Shape" fill="#FFFFFF"></path>
                        </g>
                        <path d="M433.232,246.125 C433.232,239.405 427.785,233.958 421.066,233.958 L81.368,233.958 C74.648,233.958 69.201,239.405 69.201,246.125 L69.201,246.125 C69.201,252.844 74.648,258.291 81.368,258.291 L421.066,258.291 C427.785,258.291 433.232,252.844 433.232,246.125 L433.232,246.125 L433.232,246.125 Z" id="Shape" fill="#5AB55C"></path>
                        <g transform="translate(61.000000, 149.000000)">
                            <rect id="Rectangle-path" fill="#C94244" x="8.201" y="15.091" width="333.599" height="35.423"></rect>
                            <rect id="Rectangle-path" fill="#C94244" x="8.201" y="23.516" width="20.67" height="73.609"></rect>
                            <rect id="Rectangle-path" fill="#C94244" x="321.13" y="23.516" width="20.669" height="73.609"></rect>
                            <path d="M349.3,4.472 C349.3,2.34 347.572,0.613 345.441,0.613 L4.56,0.613 C2.429,0.613 0.701,2.341 0.701,4.472 L0.701,25.71 C0.701,27.842 2.429,29.569 4.56,29.569 L345.44,29.569 C347.572,29.569 349.299,27.841 349.299,25.71 L349.299,4.472 L349.3,4.472 Z" id="Shape" fill="#FFFFFF"></path>
                        </g>
                    </g>
                </g>
            </g>
        </g>
    </g>
</svg>