<?xml version="1.0" encoding="UTF-8" standalone="no"?>
<svg width="1440px" height="752px" viewBox="0 0 1440 752" version="1.1" xmlns="http://www.w3.org/2000/svg" xmlns:xlink="http://www.w3.org/1999/xlink" xmlns:sketch="http://www.bohemiancoding.com/sketch/ns">
    <!-- Generator: Sketch 3.3.2 (12043) - http://www.bohemiancoding.com/sketch -->
    <title>strathcona</title>
    <desc>Created with Sketch.</desc>
    <defs></defs>
    <g id="Page-1" stroke="none" stroke-width="1" fill="none" fill-rule="evenodd" sketch:type="MSPage">
        <g id="strathcona" sketch:type="MSArtboardGroup">
            <g id="Imported-Layers" sketch:type="MSLayerGroup" transform="translate(-46.000000, -1.000000)">
                <path d="M43.2939907,0.331833753 L1487.12888,0.331833753 L1487.12888,666.634962 L43.2939907,666.634962 L43.2939907,0.331833753 Z" id="Fill-1" fill="#28D2FF" sketch:type="MSShapeGroup"></path>
                <path d="M1104.93475,605.521411 L1487.12888,605.521411 L1487.12888,674.235058 L1104.93475,674.235058 L1104.93475,605.521411 Z" id="Fill-2" fill="#3B9F86" sketch:type="MSShapeGroup"></path>
                <path d="M1336.54993,423.062972 L1487.12888,423.062972 L1487.12888,665.355748 L1336.54993,665.355748 L1336.54993,423.062972 Z" id="Fill-3" fill="#3B9F86" sketch:type="MSShapeGroup"></path>
                <path d="M1188.18587,528.327456 L1402.7257,528.327456 L1402.7257,632.972383 L1188.18587,632.972383 L1188.18587,528.327456 Z" id="Fill-4" fill="#3B9F86" sketch:type="MSShapeGroup"></path>
                <path d="M1152.05992,619.556675 L1487.12888,619.556675 L1487.12888,689.732997 L1152.05992,689.732997 L1152.05992,619.556675 Z" id="Fill-5" fill="#1B6C72" sketch:type="MSShapeGroup"></path>
                <path d="M1119.9747,640.942408 C1119.9747,628.105154 1109.56605,617.698005 1096.72695,617.698005 C1083.88785,617.698005 1073.47921,628.105154 1073.47921,640.942408 L1073.47921,662.671003 C1073.47921,675.508257 1083.88785,685.914403 1096.72695,685.914403 C1109.56605,685.914403 1119.9747,675.508257 1119.9747,662.671003 L1119.9747,640.942408" id="Fill-6" fill="#3B9F86" sketch:type="MSShapeGroup"></path>
                <path d="M193.395667,544.294574 C193.395667,512.781395 218.943523,487.235209 250.463241,487.235209 C281.981956,487.235209 307.531818,512.781395 307.531818,544.294574 C307.531818,575.807753 281.981956,601.352937 250.463241,601.352937 C218.943523,601.352937 193.395667,575.807753 193.395667,544.294574" id="Fill-7" fill="#3B9F86" sketch:type="MSShapeGroup"></path>
                <path d="M280.743667,603.49933 C280.743667,571.987154 306.292526,546.439965 337.811241,546.439965 C369.330959,546.439965 394.879818,571.987154 394.879818,603.49933 C394.879818,635.013511 369.330959,660.557693 337.811241,660.557693 C306.292526,660.557693 280.743667,635.013511 280.743667,603.49933" id="Fill-8" fill="#3B9F86" sketch:type="MSShapeGroup"></path>
                <path d="M368.492732,638.025078 C368.492732,614.760625 387.353828,595.899234 410.623634,595.899234 C433.894442,595.899234 452.756541,614.760625 452.756541,638.025078 C452.756541,661.291537 433.894442,680.149919 410.623634,680.149919 C387.353828,680.149919 368.492732,661.291537 368.492732,638.025078" id="Fill-9" fill="#3B9F86" sketch:type="MSShapeGroup"></path>
                <path d="M492.972356,660.557693 C492.972356,668.105657 486.853103,674.223028 479.305055,674.223028 L444.483567,674.223028 C436.935519,674.223028 430.816266,668.105657 430.816266,660.557693 C430.816266,653.01073 436.935519,646.89336 444.483567,646.89336 L479.305055,646.89336 C486.853103,646.89336 492.972356,653.01073 492.972356,660.557693" id="Fill-10" fill="#4FC1B3" sketch:type="MSShapeGroup"></path>
                <path d="M387.368868,672.458594 C387.368868,675.950368 390.199386,678.780479 393.690659,678.780479 C397.183937,678.780479 400.014455,675.950368 400.014455,672.458594 L400.014455,652.022247 C400.014455,648.529471 397.183937,645.69936 393.690659,645.69936 C390.199386,645.69936 387.368868,648.529471 387.368868,652.022247 L387.368868,672.458594" id="Fill-11" fill="#1B6C72" sketch:type="MSShapeGroup"></path>
                <path d="M392.021225,670.333254 C389.550663,672.803461 389.550663,676.805516 392.020222,679.27472 C394.490784,681.743924 398.493415,681.743924 400.963977,679.27472 L415.415361,664.824413 C417.885923,662.355209 417.885923,658.352151 415.415361,655.881945 C412.946804,653.412741 408.94317,653.412741 406.473611,655.882947 L392.021225,670.333254" id="Fill-12" fill="#1B6C72" sketch:type="MSShapeGroup"></path>
                <path d="M43.2939907,524.299335 L294.769921,524.299335 L294.769921,672.067612 L43.2939907,672.067612 L43.2939907,524.299335 Z" id="Fill-13" fill="#3B9F86" sketch:type="MSShapeGroup"></path>
                <path d="M43.2939907,632.972383 L382.766644,632.972383 L382.766644,692.822761 L43.2939907,692.822761 L43.2939907,632.972383 Z" id="Fill-14" fill="#3B9F86" sketch:type="MSShapeGroup"></path>
                <path d="M341.80184,638.91732 C341.80184,630.44403 348.671085,623.575773 357.145594,623.575773 L359.592092,623.575773 C368.066601,623.575773 374.935846,630.44403 374.935846,638.91732 L374.935846,656.706015 L341.80184,656.706015 L341.80184,638.91732" id="Fill-15" fill="#A9D163" sketch:type="MSShapeGroup"></path>
                <path d="M1091.36271,674.432554 C1091.36271,677.92533 1088.53219,680.755441 1085.03991,680.755441 C1081.54764,680.755441 1078.71612,677.92533 1078.71612,674.432554 L1078.71612,653.997209 C1078.71612,650.504433 1081.54764,647.674322 1085.03991,647.674322 C1088.53219,647.674322 1091.36271,650.504433 1091.36271,653.997209 L1091.36271,674.432554" id="Fill-16" fill="#1B6C72" sketch:type="MSShapeGroup"></path>
                <path d="M1079.802,668.292126 C1079.802,671.784902 1076.97148,674.615013 1073.47921,674.615013 C1069.98593,674.615013 1067.15541,671.784902 1067.15541,668.292126 L1067.15541,647.855778 C1067.15541,644.364005 1069.98593,641.533894 1073.47921,641.533894 C1076.97148,641.533894 1079.802,644.364005 1079.802,647.855778 L1079.802,668.292126" id="Fill-17" fill="#A9D163" sketch:type="MSShapeGroup"></path>
                <path d="M1075.14964,666.167788 C1077.6192,668.637995 1077.6192,672.64005 1075.14964,675.109254 C1072.68008,677.578458 1068.67745,677.578458 1066.20689,675.109254 L1051.7545,660.658947 C1049.28495,658.189743 1049.28495,654.186685 1051.7545,651.716479 C1054.22406,649.247275 1058.2277,649.247275 1060.69726,651.717481 L1075.14964,666.167788" id="Fill-18" fill="#A9D163" sketch:type="MSShapeGroup"></path>
                <path d="M261.210787,589.262559 L305.171549,589.262559 C323.693744,589.262559 340.913481,598.789496 350.752614,614.479919 C356.122877,623.043436 358.969438,632.945315 358.969438,643.050705 L358.969438,643.05271 C358.969438,657.587229 347.186141,669.368831 332.649531,669.368831 L258.670039,669.368831 L261.210787,589.262559" id="Fill-19" fill="#1B6C72" sketch:type="MSShapeGroup"></path>
                <path d="M43.2939907,666.228942 L1487.21009,666.228942 L1487.21009,754.22604 L43.2939907,754.22604 L43.2939907,666.228942 Z" id="Fill-20" fill="#A9D163" sketch:type="MSShapeGroup"></path>
                <path d="M291.772961,602.848695 C291.772961,610.600171 285.488269,616.88396 277.735678,616.88396 C269.983087,616.88396 263.698394,610.600171 263.698394,602.848695 L263.698394,575.446846 C263.698394,567.69537 269.983087,561.411582 277.735678,561.411582 C285.488269,561.411582 291.772961,567.69537 291.772961,575.446846 L291.772961,602.848695" id="Fill-21" fill="#4FC1B3" sketch:type="MSShapeGroup"></path>
                <path d="M278.787471,616.926065 C272.101714,616.977194 266.708389,622.410846 266.708389,629.095642 L266.708389,648.947521 L251.099932,648.856292 L251.099932,602.482776 L279.993675,602.482776 L278.787471,616.926065" id="Fill-22" fill="#4FC1B3" sketch:type="MSShapeGroup"></path>
                <path d="M6.27366312,369.98862 C6.27366312,344.885547 26.6267217,324.534413 51.7344088,324.534413 C76.8430985,324.534413 97.1961571,344.885547 97.1961571,369.98862 C97.1961571,395.093698 76.8430985,415.441824 51.7344088,415.441824 C26.6267217,415.441824 6.27366312,395.093698 6.27366312,369.98862" id="Fill-23" fill="#3B9F86" sketch:type="MSShapeGroup"></path>
                <path d="M54.323285,500.133617 C54.323285,456.806756 89.4495819,421.683506 132.783679,421.683506 C176.119782,421.683506 211.247081,456.806756 211.247081,500.133617 C211.247081,543.460479 176.119782,578.581723 132.783679,578.581723 C89.4495819,578.581723 54.323285,543.460479 54.323285,500.133617" id="Fill-24" fill="#3B9F86" sketch:type="MSShapeGroup"></path>
                <path d="M195.058083,533.235788 C195.058083,553.039547 179.000433,569.094887 159.192823,569.094887 C139.385213,569.094887 123.327563,553.039547 123.327563,533.235788 C123.327563,513.430025 139.385213,497.375688 159.192823,497.375688 C179.000433,497.375688 195.058083,513.430025 195.058083,533.235788" id="Fill-25" fill="#4FC1B3" sketch:type="MSShapeGroup"></path>
                <path d="M43.2939907,536.435829 L119.735021,536.435829 L119.735021,630.893159 L43.2939907,630.893159 L43.2939907,536.435829 Z" id="Fill-26" fill="#3B9F86" sketch:type="MSShapeGroup"></path>
                <path d="M32.2446431,438.372438 C32.2446431,415.298463 50.9513289,396.594469 74.0286232,396.594469 C97.1049148,396.594469 115.811601,415.298463 115.811601,438.372438 C115.811601,461.445411 97.1049148,480.149406 74.0286232,480.149406 C50.9513289,480.149406 32.2446431,461.445411 32.2446431,438.372438" id="Fill-27" fill="#3B9F86" sketch:type="MSShapeGroup"></path>
                <path d="M118.662172,485.570025 C118.662172,468.278579 104.645944,454.266373 87.3550186,454.266373 C79.0549734,454.266373 71.3023822,450.12196 66.6931398,443.22062 C61.650747,435.672655 53.0539134,430.701164 43.2939907,430.701164 L43.2939907,486.941471 C47.906241,486.941471 52.2547909,485.824665 56.0949907,483.85672 C56.0649108,484.424146 56.0468628,484.994579 56.0468628,485.570025 C56.0468628,502.857461 70.0650959,516.869668 87.3550186,516.869668 C104.645944,516.869668 118.662172,502.857461 118.662172,485.570025" id="Fill-28" fill="#4FC1B3" sketch:type="MSShapeGroup"></path>
                <path d="M255.683105,649.429733 C255.683105,666.039466 242.216337,679.5053 225.603212,679.5053 L200.537636,679.5053 C183.924511,679.5053 170.457743,666.039466 170.457743,649.429733 L170.457743,523.200574 L225.603212,523.200574 C242.216337,523.200574 255.683105,536.665406 255.683105,553.276141 L255.683105,649.429733" id="Fill-29" fill="#4FC1B3" sketch:type="MSShapeGroup"></path>
                <path d="M149.769795,543.440428 C151.248723,539.211804 152.061883,534.672398 152.061883,529.939506 C152.061883,507.343733 133.741222,489.02671 111.143201,489.02671 C103.419687,489.02671 96.1985073,491.169093 90.0341345,494.888438 C90.369024,493.305461 90.5515087,491.66935 90.5515087,489.987123 C90.5515087,476.961395 79.9904581,466.401864 66.9628562,466.401864 C53.936257,466.401864 43.3752064,476.961395 43.3752064,489.987123 L43.3752064,541.031375 L43.8785433,541.031375 L43.8785433,590.659068 L118.256093,590.659068 C118.505756,592.610972 132.51296,606.469793 149.763779,606.469793 C167.171013,606.469793 181.283497,592.361345 181.283497,574.955612 C181.283497,557.551884 167.175024,543.443436 149.769795,543.440428" id="Fill-30" fill="#1B6C72" sketch:type="MSShapeGroup"></path>
                <path d="M496.36637,699.087501 C496.36637,691.962599 490.589025,686.186086 483.463099,686.186086 C476.336169,686.186086 470.558824,691.962599 470.558824,699.087501" id="Fill-31" fill="#FFFFFF" sketch:type="MSShapeGroup"></path>
                <path d="M387.910306,722.488297 C380.960848,729.436756 368.078632,727.820695 368.078632,727.820695 C368.078632,727.820695 366.46234,714.941335 373.411798,707.992877 C380.360253,701.044418 393.244474,702.659476 393.244474,702.659476 C393.244474,702.659476 394.858762,715.540841 387.910306,722.488297" id="Fill-32" fill="#3B9F86" sketch:type="MSShapeGroup"></path>
                <path d="M1157.12136,705.10061 C1157.12136,697.97671 1151.34502,692.199194 1144.21809,692.199194 C1137.09217,692.199194 1131.31482,697.97671 1131.31482,705.10061" id="Fill-33" fill="#FFFFFF" sketch:type="MSShapeGroup"></path>
                <path d="M1059.93924,720.265713 C1059.93924,713.140811 1054.1629,707.364297 1047.03597,707.364297 C1039.90904,707.364297 1034.1317,713.140811 1034.1317,720.265713" id="Fill-34" fill="#3B9F86" sketch:type="MSShapeGroup"></path>
                <path d="M297.221433,681.362967 C297.221433,654.787194 275.674202,633.24206 249.093603,633.24206 C222.513004,633.24206 200.965774,654.787194 200.965774,681.362967 C200.965774,707.939743 222.513004,729.483874 249.093603,729.483874 C275.674202,729.483874 297.221433,707.939743 297.221433,681.362967" id="Fill-35" fill="#A9D163" sketch:type="MSShapeGroup"></path>
                <path d="M259.527316,627.639985 C259.527316,612.576136 247.312874,600.364453 232.246858,600.364453 C217.180842,600.364453 204.966399,612.576136 204.966399,627.639985 C204.966399,642.705839 217.180842,654.916519 232.246858,654.916519 C247.312874,654.916519 259.527316,642.705839 259.527316,627.639985" id="Fill-36" fill="#A9D163" sketch:type="MSShapeGroup"></path>
                <path d="M82.4730519,551.368348 C74.7896445,551.368348 68.5641092,543.356217 68.5641092,543.356217 C68.5641092,543.356217 74.7896445,535.344086 82.4730519,535.345088 C90.1534514,535.344086 96.3819947,543.356217 96.3819947,543.356217 C96.3819947,543.356217 90.1534514,551.368348 82.4730519,551.368348" id="Fill-37" fill="#FFFFFF" sketch:type="MSShapeGroup"></path>
                <path d="M88.9542663,543.357219 C88.9542663,540.331617 86.5017523,537.878453 83.475715,537.878453 C80.4496778,537.878453 77.9971638,540.331617 77.9971638,543.357219 C77.9971638,546.382821 80.4496778,548.834982 83.475715,548.834982 C86.5017523,548.834982 88.9542663,546.382821 88.9542663,543.357219" id="Fill-38" fill="#323232" sketch:type="MSShapeGroup"></path>
                <path d="M378.035077,670.235008 C378.035077,673.726781 380.864593,676.556892 384.357871,676.556892 C387.850146,676.556892 390.681667,673.726781 390.681667,670.235008 L390.681667,649.79866 C390.681667,646.306887 387.850146,643.475773 384.357871,643.475773 C380.864593,643.475773 378.035077,646.306887 378.035077,649.79866 L378.035077,670.235008" id="Fill-39" fill="#A9D163" sketch:type="MSShapeGroup"></path>
                <path d="M382.687434,668.11067 C380.216872,670.579874 380.216872,674.582932 382.686431,677.052136 C385.156993,679.52134 389.159625,679.52134 391.630186,677.052136 L406.082573,662.600826 C408.552132,660.132625 408.552132,656.128564 406.082573,653.65936 C403.613013,651.190156 399.609379,651.190156 397.13982,653.660363 L382.687434,668.11067" id="Fill-40" fill="#A9D163" sketch:type="MSShapeGroup"></path>
                <path d="M289.849854,508.293118 C289.849854,508.293118 263.130887,532.37262 263.130887,560.611572 L263.130887,673.025018" id="Stroke-41" stroke="#A9D163" stroke-width="8.02015113" stroke-linecap="round" stroke-linejoin="round" sketch:type="MSShapeGroup"></path>
                <path d="M332.278546,484.965506 C341.452913,494.137552 341.453916,509.007914 332.278546,518.180962 C323.106184,527.352005 308.232679,527.352005 299.059314,518.180962 L279.791137,498.915557 C270.617772,489.743511 270.617772,474.872146 279.791137,465.700101 C288.965505,456.527053 303.838007,456.528055 313.011372,465.700101 C314.156413,466.844977 314.79912,468.397879 314.79912,470.015945 C314.79912,471.63401 314.156413,473.186912 313.011372,474.331788 L306.687575,480.653673 L317.322823,491.288393 L323.647622,484.965506 C326.030952,482.581516 329.895216,482.582519 332.278546,484.965506" id="Fill-42" fill="#F495B6" sketch:type="MSShapeGroup"></path>
                <path d="M295.99317,481.677244 L316.076513,481.677244 L316.076513,501.7587 L295.99317,501.7587 L295.99317,481.677244 Z" id="Fill-43" fill="#FFFFFF" sketch:type="MSShapeGroup"></path>
                <path d="M316.671092,491.94003 C313.734292,494.877411 308.972644,494.877411 306.035844,491.941033 C303.099044,489.004655 303.099044,484.24269 306.035844,481.307315 L328.312011,459.034353 C331.247808,456.097975 336.011461,456.097975 338.947258,459.034353 C341.884059,461.97073 341.884059,466.731693 338.947258,469.668071 L316.671092,491.94003" id="Fill-44" fill="#FFC64A" sketch:type="MSShapeGroup"></path>
                <path d="M232.808349,417.067909 C232.808349,417.067909 259.527316,441.148413 259.527316,469.387365 L259.527316,671.060081" id="Stroke-45" stroke="#A9D163" stroke-width="8.02015113" stroke-linecap="round" stroke-linejoin="round" sketch:type="MSShapeGroup"></path>
                <path d="M319.085505,588.418438 C316.206859,578.537612 305.860378,572.860348 295.976125,575.738579 C286.091872,578.618816 280.414794,588.962806 283.293439,598.845637 C286.173088,608.725461 296.520571,614.40473 306.403822,611.524494 C316.287072,608.644257 321.96415,598.30127 319.085505,588.418438" id="Fill-46" fill="#775AA6" sketch:type="MSShapeGroup"></path>
                <path d="M330.33739,578.909547 C328.41729,572.321995 321.518968,568.536484 314.930469,570.456307 C308.340967,572.376131 304.555913,579.273461 306.475011,585.86001 C308.395111,592.446559 315.293433,596.232071 321.881932,594.314252 C328.470431,592.393426 332.255485,585.498101 330.33739,578.909547" id="Fill-47" fill="#B561A6" sketch:type="MSShapeGroup"></path>
                <path d="M334.82531,568.402146 C333.544909,564.010111 328.947699,561.487773 324.555032,562.765985 C320.161362,564.045199 317.637659,568.644756 318.91806,573.034786 C320.197458,577.427824 324.795671,579.950161 329.188338,578.672952 C333.581005,577.39073 336.105711,572.794181 334.82531,568.402146" id="Fill-48" fill="#F496BF" sketch:type="MSShapeGroup"></path>
                <path d="M341.131059,560.428111 C340.169505,557.133834 336.721346,555.242081 333.427598,556.200489 C330.132847,557.162907 328.239819,560.608564 329.20037,563.903844 C330.159919,567.198121 333.60908,569.089874 336.903831,568.131466 C340.197579,567.17005 342.090607,563.72339 341.131059,560.428111" id="Fill-49" fill="#FFC64A" sketch:type="MSShapeGroup"></path>
                <path d="M179.964995,507.59737 C186.46526,501.544161 196.644296,501.905068 202.699378,508.404398 C208.754461,514.906736 208.392499,525.082302 201.891232,531.135511 C195.390967,537.189723 185.210928,536.828816 179.155846,530.329486 C173.101766,523.828151 173.46473,513.651582 179.964995,507.59737" id="Fill-50" fill="#775AA6" sketch:type="MSShapeGroup"></path>
                <path d="M175.826001,495.577169 C180.159511,491.54203 186.945535,491.783637 190.981254,496.116524 C195.019981,500.449411 194.777337,507.236463 190.443827,511.269597 C186.110317,515.305738 179.32329,515.066136 175.287571,510.733249 C171.25085,506.39936 171.491489,499.61331 175.826001,495.577169" id="Fill-51" fill="#B561A6" sketch:type="MSShapeGroup"></path>
                <path d="M177.140493,485.805617 C180.029165,483.113854 184.554184,483.277264 187.244329,486.164519 C189.935477,489.053778 189.775051,493.576141 186.886378,496.265899 C183.997706,498.957662 179.47369,498.796257 176.781539,495.908 C174.091394,493.018741 174.252823,488.496378 177.140493,485.805617" id="Fill-52" fill="#F496BF" sketch:type="MSShapeGroup"></path>
                <path d="M175.990438,477.109768 C178.157193,475.090695 181.549202,475.209995 183.567563,477.379446 C185.585924,479.544887 185.466607,482.937411 183.29885,484.955481 C181.131092,486.972549 177.73808,486.853249 175.720722,484.686806 C173.702361,482.51936 173.82268,479.126836 175.990438,477.109768" id="Fill-53" fill="#FFC64A" sketch:type="MSShapeGroup"></path>
                <path d="M178.682589,472.574373 C179.599023,474.322766 178.925233,476.482191 177.178594,477.398494 C175.429949,478.315798 173.270213,477.642106 172.352776,475.893713 C171.436342,474.14532 172.110132,471.986897 173.857774,471.068589 C175.606418,470.154292 177.766154,470.82598 178.682589,472.574373" id="Fill-54" fill="#FFFFFF" sketch:type="MSShapeGroup"></path>
                <path d="M352.846174,669.840015 C352.846174,662.740176 347.089885,656.984715 339.990028,656.984715 C332.889168,656.984715 327.132879,662.740176 327.132879,669.840015 C327.132879,676.939854 332.889168,682.695315 339.990028,682.695315 C347.089885,682.695315 352.846174,676.939854 352.846174,669.840015" id="Fill-55" fill="#1B6C72" sketch:type="MSShapeGroup"></path>
                <path d="M331.646868,665.355748 C331.646868,659.486 326.888229,654.728045 321.019642,654.728045 C315.149049,654.728045 310.39041,659.486 310.39041,665.355748 C310.39041,671.224494 315.149049,675.982448 321.019642,675.982448 C326.888229,675.982448 331.646868,671.224494 331.646868,665.355748" id="Fill-56" fill="#1B6C72" sketch:type="MSShapeGroup"></path>
                <path d="M471.585551,641.193038 C471.585551,648.205657 465.899449,653.890942 458.884818,653.890942 C451.871189,653.890942 446.185087,648.205657 446.185087,641.193038 C446.185087,634.179416 451.871189,628.494131 458.884818,628.494131 C465.899449,628.494131 471.585551,634.179416 471.585551,641.193038" id="Fill-57" fill="#4FC1B3" sketch:type="MSShapeGroup"></path>
                <path d="M1164.55611,604.116882 C1164.55611,583.906101 1148.1726,567.524942 1127.95991,567.524942 C1107.74722,567.524942 1091.36271,583.906101 1091.36271,604.116882 C1091.36271,624.325657 1107.74722,640.707819 1127.95991,640.707819 C1148.1726,640.707819 1164.55611,624.325657 1164.55611,604.116882" id="Fill-58" fill="#3B9F86" sketch:type="MSShapeGroup"></path>
                <path d="M1239.31969,564.175526 C1239.31969,534.830796 1215.52749,511.042025 1186.17854,511.042025 C1156.82959,511.042025 1133.0374,534.830796 1133.0374,564.175526 C1133.0374,593.520257 1156.82959,617.309028 1186.17854,617.309028 C1215.52749,617.309028 1239.31969,593.520257 1239.31969,564.175526" id="Fill-59" fill="#3B9F86" sketch:type="MSShapeGroup"></path>
                <path d="M1356.6032,522.45069 C1356.6032,483.425637 1324.96115,451.787144 1285.93049,451.787144 C1246.89882,451.787144 1215.25778,483.425637 1215.25778,522.45069 C1215.25778,561.476746 1246.89882,593.113234 1285.93049,593.113234 C1324.96115,593.113234 1356.6032,561.476746 1356.6032,522.45069" id="Fill-60" fill="#3B9F86" sketch:type="MSShapeGroup"></path>
                <path d="M257.998254,107.021899 C257.998254,115.748826 250.922461,122.825607 242.192273,122.825607 L202.347443,122.825607 C193.618258,122.825607 186.542465,115.748826 186.542465,107.021899 C186.542465,98.2939698 193.618258,91.2181914 202.347443,91.2181914 L242.192273,91.2181914 C250.922461,91.2181914 257.998254,98.2939698 257.998254,107.021899" id="Fill-61" fill="#D7F4FF" sketch:type="MSShapeGroup"></path>
                <path d="M349.739924,140.906035 C349.739924,152.94729 339.976993,162.708816 327.933004,162.708816 L178.109065,162.708816 C166.066079,162.708816 156.302145,152.94729 156.302145,140.906035 C156.302145,128.863778 166.066079,119.102252 178.109065,119.102252 L327.933004,119.102252 C339.976993,119.102252 349.739924,128.863778 349.739924,140.906035" id="Fill-62" fill="#D7F4FF" sketch:type="MSShapeGroup"></path>
                <path d="M243.529826,140.906035 C243.529826,152.94729 233.765892,162.708816 221.722905,162.708816 L178.109065,162.708816 C166.066079,162.708816 156.302145,152.94729 156.302145,140.906035 C156.302145,128.863778 166.066079,119.102252 178.109065,119.102252 L221.722905,119.102252 C233.765892,119.102252 243.529826,128.863778 243.529826,140.906035" id="Fill-63" fill="#FFFFFF" sketch:type="MSShapeGroup"></path>
                <path d="M218.153425,107.021899 C218.153425,115.749829 211.076628,122.825607 202.347443,122.825607 C193.618258,122.825607 186.542465,115.749829 186.542465,107.021899 C186.542465,98.2929673 193.618258,91.2181914 202.347443,91.2181914 C211.076628,91.2181914 218.153425,98.2929673 218.153425,107.021899" id="Fill-64" fill="#FFFFFF" sketch:type="MSShapeGroup"></path>
                <path d="M387.905293,178.498489 C387.905293,187.219401 380.834513,194.288161 372.113349,194.288161 L292.406644,194.288161 C283.685481,194.288161 276.6147,187.219401 276.6147,178.498489 C276.6147,169.778579 283.685481,162.708816 292.406644,162.708816 L372.113349,162.708816 C380.834513,162.708816 387.905293,169.778579 387.905293,178.498489" id="Fill-65" fill="#D7F4FF" sketch:type="MSShapeGroup"></path>
                <path d="M276.6147,178.498489 C276.6147,169.778579 283.685481,162.708816 292.406644,162.708816 L303.868087,162.708816 C312.590253,162.708816 319.660031,169.778579 319.660031,178.498489 C319.660031,187.219401 312.590253,194.288161 303.868087,194.288161 L292.406644,194.288161 C283.685481,194.288161 276.6147,187.219401 276.6147,178.498489" id="Fill-66" fill="#FFFFFF" sketch:type="MSShapeGroup"></path>
                <path d="M219.256354,210.829723 C219.256354,203.471234 213.289506,197.506247 205.929959,197.506247 C198.570411,197.506247 192.605569,203.471234 192.605569,210.829723 C192.605569,218.188212 198.570411,224.153199 205.929959,224.153199 C213.289506,224.153199 219.256354,218.188212 219.256354,210.829723" id="Fill-67" fill="#FFFFFF" sketch:type="MSShapeGroup"></path>
                <path d="M599.515338,357.032065 C599.515338,364.823642 593.198561,371.138509 585.405863,371.138509 L551.087712,371.138509 C543.296017,371.138509 536.978237,364.823642 536.978237,357.032065 C536.978237,349.239486 543.296017,342.925622 551.087712,342.925622 L585.405863,342.925622 C593.198561,342.925622 599.515338,349.239486 599.515338,357.032065" id="Fill-68" fill="#D7F4FF" sketch:type="MSShapeGroup"></path>
                <path d="M628.452196,317.892725 C628.452196,333.313471 615.949989,345.813879 600.527025,345.813879 L548.974099,345.813879 C533.550132,345.813879 521.047925,333.313471 521.047925,317.892725 C521.047925,302.47198 533.550132,289.970569 548.974099,289.970569 L600.527025,289.970569 C615.949989,289.970569 628.452196,302.47198 628.452196,317.892725" id="Fill-69" fill="#D7F4FF" sketch:type="MSShapeGroup"></path>
                <path d="M493.222019,317.892725 C493.222019,333.313471 505.725228,345.813879 521.148192,345.813879 L544.288654,345.813879 C559.711618,345.813879 572.214827,333.313471 572.214827,317.892725 C572.214827,302.47198 559.711618,289.970569 544.288654,289.970569 L521.148192,289.970569 C505.725228,289.970569 493.222019,302.47198 493.222019,317.892725" id="Fill-70" fill="#FFFFFF" sketch:type="MSShapeGroup"></path>
                <path d="M581.721076,357.032065 C581.721076,364.823642 575.404298,371.138509 567.611601,371.138509 L533.29345,371.138509 C525.500752,371.138509 519.183975,364.823642 519.183975,357.032065 C519.183975,349.239486 525.500752,342.925622 533.29345,342.925622 L567.611601,342.925622 C575.404298,342.925622 581.721076,349.239486 581.721076,357.032065" id="Fill-71" fill="#FFFFFF" sketch:type="MSShapeGroup"></path>
                <path d="M753.098261,277.876181 C753.098261,287.842222 745.016796,295.921521 735.050325,295.921521 L680.513473,295.921521 C670.545999,295.921521 662.465537,287.842222 662.465537,277.876181 C662.465537,267.909139 670.545999,259.830841 680.513473,259.830841 L735.050325,259.830841 C745.016796,259.830841 753.098261,267.909139 753.098261,277.876181" id="Fill-72" fill="#D7F4FF" sketch:type="MSShapeGroup"></path>
                <path d="M712.991736,277.876181 C712.991736,287.842222 704.911274,295.921521 694.9438,295.921521 L680.513473,295.921521 C670.545999,295.921521 662.465537,287.842222 662.465537,277.876181 C662.465537,267.909139 670.545999,259.830841 680.513473,259.830841 L694.9438,259.830841 C704.911274,259.830841 712.991736,267.909139 712.991736,277.876181" id="Fill-73" fill="#FFFFFF" sketch:type="MSShapeGroup"></path>
                <path d="M709.663897,307.598861 C709.663897,316.327793 702.587101,323.402569 693.857916,323.402569 C685.129734,323.402569 678.052937,316.327793 678.052937,307.598861 C678.052937,298.871935 685.129734,291.797159 693.857916,291.797159 C702.587101,291.797159 709.663897,298.871935 709.663897,307.598861" id="Fill-74" fill="#FFFFFF" sketch:type="MSShapeGroup"></path>
                <path d="M1224.05615,256.270897 C1224.05615,268.728196 1213.95632,278.826569 1201.49723,278.826569 L1127.90376,278.826569 C1115.44467,278.826569 1105.34484,268.728196 1105.34484,256.270897 C1105.34484,243.813597 1115.44467,233.715224 1127.90376,233.715224 L1201.49723,233.715224 C1213.95632,233.715224 1224.05615,243.813597 1224.05615,256.270897" id="Fill-75" fill="#D7F4FF" sketch:type="MSShapeGroup"></path>
                <path d="M1159.38036,221.452413 C1159.38036,229.887607 1152.5402,236.725788 1144.10379,236.725788 L1094.27043,236.725788 C1085.83302,236.725788 1078.99385,229.887607 1078.99385,221.452413 C1078.99385,213.016217 1085.83302,206.178035 1094.27043,206.178035 L1144.10379,206.178035 C1152.5402,206.178035 1159.38036,213.016217 1159.38036,221.452413" id="Fill-76" fill="#D7F4FF" sketch:type="MSShapeGroup"></path>
                <path d="M1150.36442,256.270897 C1150.36442,268.728196 1140.26459,278.826569 1127.8055,278.826569 L1091.71063,278.826569 C1079.25254,278.826569 1069.15272,268.728196 1069.15272,256.270897 C1069.15272,243.813597 1079.25254,233.715224 1091.71063,233.715224 L1127.8055,233.715224 C1140.26459,233.715224 1150.36442,243.813597 1150.36442,256.270897" id="Fill-77" fill="#FFFFFF" sketch:type="MSShapeGroup"></path>
                <path d="M1109.47983,221.452413 C1109.47983,229.887607 1102.63966,236.725788 1094.20325,236.725788 L1069.76133,236.725788 C1061.32492,236.725788 1054.48576,229.887607 1054.48576,221.452413 C1054.48576,213.016217 1061.32492,206.178035 1069.76133,206.178035 L1094.20325,206.178035 C1102.63966,206.178035 1109.47983,213.016217 1109.47983,221.452413" id="Fill-78" fill="#FFFFFF" sketch:type="MSShapeGroup"></path>
                <path d="M1225.94115,129.717924 C1225.94115,137.191703 1219.88206,143.250927 1212.4052,143.250927 C1204.93035,143.250927 1198.87025,137.191703 1198.87025,129.717924 C1198.87025,122.244146 1204.93035,116.184922 1212.4052,116.184922 C1219.88206,116.184922 1225.94115,122.244146 1225.94115,129.717924" id="Fill-79" fill="#FFFFFF" sketch:type="MSShapeGroup"></path>
                <path d="M1351.72123,188.11064 C1351.72123,179.520055 1344.75673,172.557562 1336.16692,172.557562 L1262.00193,172.557562 C1253.41212,172.557562 1246.44662,179.520055 1246.44662,188.11064 C1246.44662,196.699219 1253.41212,203.661713 1262.00193,203.661713 L1336.16692,203.661713 C1344.75673,203.661713 1351.72123,196.699219 1351.72123,188.11064" id="Fill-80" fill="#D7F4FF" sketch:type="MSShapeGroup"></path>
                <path d="M1302.5035,164.565481 C1302.5035,172.040262 1296.44241,178.099486 1288.96755,178.099486 L1259.98357,178.099486 C1252.50771,178.099486 1246.44762,172.040262 1246.44762,164.565481 C1246.44762,157.0907 1252.50771,151.031476 1259.98357,151.031476 L1288.96755,151.031476 C1296.44241,151.031476 1302.5035,157.0907 1302.5035,164.565481" id="Fill-81" fill="#D7F4FF" sketch:type="MSShapeGroup"></path>
                <path d="M1285.55248,188.11064 C1285.55248,196.699219 1278.58899,203.661713 1269.99817,203.661713 L1234.93404,203.661713 C1226.34322,203.661713 1219.37972,196.699219 1219.37972,188.11064 C1219.37972,179.520055 1226.34322,172.557562 1234.93404,172.557562 L1269.99817,172.557562 C1278.58899,172.557562 1285.55248,179.520055 1285.55248,188.11064" id="Fill-82" fill="#FFFFFF" sketch:type="MSShapeGroup"></path>
                <path d="M1275.02552,164.565481 C1275.02552,172.040262 1268.96543,178.099486 1261.48957,178.099486 C1254.01371,178.099486 1247.95362,172.040262 1247.95362,164.565481 C1247.95362,157.0907 1254.01371,151.031476 1261.48957,151.031476 C1268.96543,151.031476 1275.02552,157.0907 1275.02552,164.565481" id="Fill-83" fill="#FFFFFF" sketch:type="MSShapeGroup"></path>
                <path d="M1388.68842,440.998035 C1388.68842,415.814761 1368.27018,395.397461 1343.08228,395.397461 C1317.89539,395.397461 1297.47615,415.814761 1297.47615,440.998035 C1297.47615,466.182312 1317.89539,486.597607 1343.08228,486.597607 C1368.27018,486.597607 1388.68842,466.182312 1388.68842,440.998035" id="Fill-84" fill="#3B9F86" sketch:type="MSShapeGroup"></path>
                <path d="M1487.12888,360.220076 C1487.12888,340.791259 1471.37704,325.041688 1451.94543,325.041688 C1432.51482,325.041688 1416.76298,340.791259 1416.76298,360.220076 C1416.76298,379.647889 1432.51482,395.397461 1451.94543,395.397461 C1471.37704,395.397461 1487.12888,379.647889 1487.12888,360.220076" id="Fill-85" fill="#3B9F86" sketch:type="MSShapeGroup"></path>
                <path d="M1487.12888,440.998035 C1487.12888,472.391914 1461.67527,497.841859 1430.27688,497.841859 C1398.87748,497.841859 1373.42387,472.391914 1373.42387,440.998035 C1373.42387,409.603154 1398.87748,384.154212 1430.27688,384.154212 C1461.67527,384.154212 1487.12888,409.603154 1487.12888,440.998035" id="Fill-86" fill="#3B9F86" sketch:type="MSShapeGroup"></path>
                <path d="M1119.9747,665.355748 C1119.9747,674.767395 1127.60597,682.398569 1137.01997,682.398569 C1146.43398,682.398569 1154.06525,674.767395 1154.06525,665.355748 C1154.06525,655.943098 1146.43398,648.312927 1137.01997,648.312927 C1127.60597,648.312927 1119.9747,655.943098 1119.9747,665.355748" id="Fill-87" fill="#1B6C72" sketch:type="MSShapeGroup"></path>
                <path d="M1137.01997,634.939325 C1137.01997,649.065819 1148.4744,660.518594 1162.60292,660.518594 C1176.73145,660.518594 1188.18587,649.065819 1188.18587,634.939325 C1188.18587,620.812831 1176.73145,609.360055 1162.60292,609.360055 C1148.4744,609.360055 1137.01997,620.812831 1137.01997,634.939325" id="Fill-88" fill="#1B6C72" sketch:type="MSShapeGroup"></path>
                <path d="M1166.10823,609.359053 C1166.10823,636.500247 1188.11368,658.503531 1215.25778,658.503531 C1242.40187,658.503531 1264.40732,636.500247 1264.40732,609.359053 C1264.40732,582.220866 1242.40187,560.217582 1215.25778,560.217582 C1188.11368,560.217582 1166.10823,582.220866 1166.10823,609.359053" id="Fill-89" fill="#1B6C72" sketch:type="MSShapeGroup"></path>
                <path d="M1150.05459,665.355748 C1150.05459,672.276136 1155.6665,677.887234 1162.58788,677.887234 C1169.50927,677.887234 1175.12117,672.276136 1175.12117,665.355748 C1175.12117,658.434358 1169.50927,652.824262 1162.58788,652.824262 C1155.6665,652.824262 1150.05459,658.434358 1150.05459,665.355748" id="Fill-90" fill="#1B6C72" sketch:type="MSShapeGroup"></path>
                <path d="M1230.8542,663.413869 C1230.8542,678.801531 1218.37806,691.275874 1202.98719,691.275874 C1187.59731,691.275874 1175.12117,678.801531 1175.12117,663.413869 C1175.12117,648.026207 1187.59731,635.550861 1202.98719,635.550861 C1218.37806,635.550861 1230.8542,648.026207 1230.8542,663.413869" id="Fill-91" fill="#A9D163" sketch:type="MSShapeGroup"></path>
                <path d="M1451.94543,358.901763 L1487.21009,358.901763 L1487.21009,471.794413 L1451.94543,471.794413 L1451.94543,358.901763 Z" id="Fill-92" fill="#3B9F86" sketch:type="MSShapeGroup"></path>
                <path d="M1420.81775,496.04735 C1420.81775,473.077637 1402.19429,454.455849 1379.21926,454.455849 C1356.24424,454.455849 1337.62078,473.077637 1337.62078,496.04735 C1337.62078,519.018065 1356.24424,537.639854 1379.21926,537.639854 C1402.19429,537.639854 1420.81775,519.018065 1420.81775,496.04735" id="Fill-93" fill="#1B6C72" sketch:type="MSShapeGroup"></path>
                <path d="M1447.84554,475.996972 C1447.84554,464.924151 1438.86769,455.946594 1427.79228,455.946594 C1416.71686,455.946594 1407.73901,464.924151 1407.73901,475.996972 C1407.73901,487.070796 1416.71686,496.04735 1427.79228,496.04735 C1438.86769,496.04735 1447.84554,487.070796 1447.84554,475.996972" id="Fill-94" fill="#1B6C72" sketch:type="MSShapeGroup"></path>
                <path d="M1487.12888,456.180181 C1487.12888,440.443642 1474.36899,427.684584 1458.63018,427.684584 C1442.89138,427.684584 1430.13149,440.443642 1430.13149,456.180181 C1430.13149,471.91672 1442.89138,484.674776 1458.63018,484.674776 C1474.36899,484.674776 1487.12888,471.91672 1487.12888,456.180181" id="Fill-95" fill="#1B6C72" sketch:type="MSShapeGroup"></path>
                <path d="M1442.83222,452.838786 L1487.12888,452.838786 L1487.12888,628.494131 L1442.83222,628.494131 L1442.83222,452.838786 Z" id="Fill-96" fill="#1B6C72" sketch:type="MSShapeGroup"></path>
                <path d="M1325.52064,489.229219 L1451.94543,489.229219 L1451.94543,631.586902 L1325.52064,631.586902 L1325.52064,489.229219 Z" id="Fill-97" fill="#1B6C72" sketch:type="MSShapeGroup"></path>
                <path d="M1277.49508,654.078413 C1277.49508,674.20398 1261.17874,690.51396 1241.0553,690.51396 C1220.92884,690.51396 1204.61451,674.20398 1204.61451,654.078413 C1204.61451,633.956856 1220.92884,617.643869 1241.0553,617.643869 C1261.17874,617.643869 1277.49508,633.956856 1277.49508,654.078413" id="Fill-98" fill="#A9D163" sketch:type="MSShapeGroup"></path>
                <path d="M310.292149,688.863814 C310.292149,694.12403 306.027823,698.387743 300.76685,698.387743 C295.505876,698.387743 291.24155,694.12403 291.24155,688.863814 L291.24155,658.210796 C291.24155,652.950579 295.505876,648.686866 300.76685,648.686866 C306.027823,648.686866 310.292149,652.950579 310.292149,658.210796 L310.292149,688.863814" id="Fill-99" fill="#A9D163" sketch:type="MSShapeGroup"></path>
                <path d="M402.961282,587.44399 L392.242814,598.326332 C381.832162,608.897894 375.996663,623.138675 375.996663,637.974952 L375.996663,669.840015" id="Stroke-100" stroke="#A9D163" stroke-width="5.01259446" stroke-linecap="round" stroke-linejoin="round" sketch:type="MSShapeGroup"></path>
                <path d="M418.066402,587.440982 C418.066402,595.783945 411.302437,602.54794 402.961282,602.54794 C394.618123,602.54794 387.854157,595.783945 387.854157,587.440982 C387.854157,579.100025 394.618123,572.339038 402.961282,572.339038 C411.302437,572.339038 418.066402,579.100025 418.066402,587.440982" id="Fill-101" fill="#FFC64A" sketch:type="MSShapeGroup"></path>
                <path d="M418.066402,587.440982 C418.066402,595.783945 411.302437,602.54794 402.961282,602.54794 C394.618123,602.54794 387.854157,595.783945 387.854157,587.440982 C387.854157,579.100025 394.618123,572.339038 402.961282,572.339038 C411.302437,572.339038 418.066402,579.100025 418.066402,587.440982 L418.066402,587.440982 Z" id="Stroke-102" stroke="#FFC64A" stroke-width="15.0377834" stroke-linecap="round" stroke-linejoin="round" stroke-dasharray="0,15.773" sketch:type="MSShapeGroup"></path>
                <path d="M408.777731,587.442987 C408.777731,590.65606 406.172812,593.259602 402.961282,593.259602 C399.747747,593.259602 397.142828,590.65606 397.142828,587.442987 C397.142828,584.230917 399.747747,581.627375 402.961282,581.627375 C406.172812,581.627375 408.777731,584.230917 408.777731,587.442987" id="Fill-103" fill="#FFFFFF" sketch:type="MSShapeGroup"></path>
                <path d="M380.661052,662.515612 C380.661052,672.384408 372.6598,680.385511 362.788582,680.385511 C352.917364,680.385511 344.916112,672.384408 344.916112,662.515612 C344.916112,652.645814 352.917364,644.64471 362.788582,644.64471 C372.6598,644.64471 380.661052,652.645814 380.661052,662.515612" id="Fill-104" fill="#1B6C72" sketch:type="MSShapeGroup"></path>
                <path d="M1336.56497,525.004106 C1343.78916,520.370463 1348.58189,512.274121 1348.58189,503.054957 C1348.58189,488.658786 1336.90989,476.989466 1322.51265,476.989466 C1308.11541,476.989466 1296.44341,488.658786 1296.44341,503.054957 C1296.44341,504.004343 1296.49454,504.9427 1296.59281,505.86602 C1297.07408,510.34728 1295.62925,514.820519 1292.61624,518.173945 C1289.60324,521.526368 1285.30883,523.441179 1280.80086,523.441179 C1253.19855,523.441179 1230.82212,545.814393 1230.82212,573.414741 L1230.82212,573.634292 C1230.82212,601.23464 1253.19855,623.607854 1280.80086,623.607854 L1324.11791,623.607854 C1351.72023,623.607854 1374.09766,601.23464 1374.09766,573.634292 L1374.09766,573.414741 C1374.09766,550.111189 1358.14529,530.535003 1336.56497,525.004106" id="Fill-105" fill="#1B6C72" sketch:type="MSShapeGroup"></path>
                <path d="M214.501726,559.57597 C219.274402,557.259149 224.904356,557.561909 229.400297,560.376982 C233.897241,563.192055 236.628495,568.122443 236.628495,573.427773 L236.628495,608.644257" id="Stroke-106" stroke="#A9D163" stroke-width="8.02015113" stroke-linecap="round" stroke-linejoin="round" sketch:type="MSShapeGroup"></path>
                <path d="M222.427778,579.916076 C223.816466,582.164725 223.119615,585.114136 220.870642,586.501622 C218.621668,587.890111 215.672836,587.192358 214.284148,584.94471 L200.065382,561.917854 C198.676694,559.670207 199.373545,556.720796 201.622518,555.33331 C203.871491,553.944821 206.820324,554.642574 208.209012,556.889219 L222.427778,579.916076" id="Fill-107" fill="#1B6C72" sketch:type="MSShapeGroup"></path>
                <path d="M283.630334,434.031531 C276.679874,440.980992 263.79866,439.364932 263.79866,439.364932 C263.79866,439.364932 262.181365,426.484569 269.131826,419.536111 C276.080281,412.588655 288.963499,414.20271 288.963499,414.20271 C288.963499,414.20271 290.57879,427.085078 283.630334,434.031531" id="Fill-108" fill="#A9D163" sketch:type="MSShapeGroup"></path>
                <path d="M265.175317,438.372438 L257.055751,446.490836" id="Stroke-109" stroke="#A9D163" stroke-width="6.01511335" stroke-linecap="round" stroke-linejoin="round" sketch:type="MSShapeGroup"></path>
                <path d="M245.100999,484.177526 C252.050457,491.126987 250.434164,504.006348 250.434164,504.006348 C250.434164,504.006348 237.551948,505.623411 230.603493,498.674952 C223.654035,491.727496 225.268322,478.846131 225.268322,478.846131 C225.268322,478.846131 238.152543,477.230071 245.100999,484.177526" id="Fill-110" fill="#A9D163" sketch:type="MSShapeGroup"></path>
                <path d="M249.441527,502.629889 L257.561093,510.748287" id="Stroke-111" stroke="#A9D163" stroke-width="6.01511335" stroke-linecap="round" stroke-linejoin="round" sketch:type="MSShapeGroup"></path>
                <path d="M1267.10649,535.354111 C1274.3788,528.580091 1285.76906,528.983103 1292.54505,536.256378 C1299.32105,543.53266 1298.91497,554.918267 1291.63965,561.691285 C1284.36733,568.466307 1272.97708,568.063295 1266.20108,560.79002 C1259.42709,553.514741 1259.83217,542.129134 1267.10649,535.354111" id="Fill-112" fill="#775AA6" sketch:type="MSShapeGroup"></path>
                <path d="M1262.47519,521.903315 C1267.32306,517.38797 1274.91723,517.657647 1279.43323,522.506831 C1283.95223,527.355013 1283.68051,534.949093 1278.83263,539.462433 C1273.98175,543.978781 1266.38858,543.712111 1261.87259,538.862927 C1257.35559,534.012741 1257.6243,526.420665 1262.47519,521.903315" id="Fill-113" fill="#B561A6" sketch:type="MSShapeGroup"></path>
                <path d="M1263.94609,510.968841 C1267.17868,507.958277 1272.24012,508.139733 1275.25112,511.371854 C1278.26312,514.603975 1278.08364,519.663688 1274.85006,522.673249 C1271.61847,525.685819 1266.55703,525.505365 1263.54403,522.274247 C1260.53303,519.040121 1260.71351,513.979406 1263.94609,510.968841" id="Fill-114" fill="#F496BF" sketch:type="MSShapeGroup"></path>
                <path d="M1262.65868,501.238393 C1265.08412,498.98072 1268.8792,499.11205 1271.13719,501.540151 C1273.39619,503.963239 1273.26184,507.758776 1270.8374,510.018453 C1268.41095,512.275123 1264.61487,512.140786 1262.35687,509.716695 C1260.09787,507.292605 1260.23323,503.495063 1262.65868,501.238393" id="Fill-115" fill="#FFC64A" sketch:type="MSShapeGroup"></path>
                <path d="M1265.67168,496.163642 C1266.6974,498.120559 1265.9424,500.53663 1263.9872,501.562207 C1262.03101,502.588786 1259.61459,501.834892 1258.58887,499.877975 C1257.56214,497.92206 1258.31714,495.506992 1260.27234,494.478408 C1262.22853,493.455839 1264.64495,494.207728 1265.67168,496.163642" id="Fill-116" fill="#FFFFFF" sketch:type="MSShapeGroup"></path>
                <path d="M211.49875,375.597713 C220.671112,366.425668 235.544617,366.424665 244.718984,375.597713 C253.891346,384.769758 253.891346,399.641123 244.718984,408.813169 L225.449804,428.078574 C216.276439,437.249617 201.402935,437.249617 192.230573,428.078574 C183.055202,418.904524 183.057208,404.035164 192.230573,394.863118 C194.614905,392.479128 198.479169,392.479128 200.862499,394.863118 L207.186296,401.186005 L217.822546,390.551285 L211.49875,384.229401 C209.115419,381.846413 209.115419,377.9807 211.49875,375.597713" id="Fill-117" fill="#F495B6" sketch:type="MSShapeGroup"></path>
                <path d="M208.210015,391.798418 L228.29436,391.798418 L228.29436,411.878872 L208.210015,411.878872 L208.210015,391.798418 Z" id="Fill-118" fill="#FFFFFF" sketch:type="MSShapeGroup"></path>
                <path d="M218.474277,391.203924 C221.41208,394.140302 221.41208,398.901264 218.47528,401.838645 C215.538479,404.775023 210.77583,404.775023 207.840032,401.837642 L185.563866,379.56468 C182.627065,376.629305 182.627065,371.86734 185.563866,368.930962 C188.499663,365.994584 193.26131,365.994584 196.199113,368.931965 L218.474277,391.203924" id="Fill-119" fill="#FFC64A" sketch:type="MSShapeGroup"></path>
                <path d="M1220.48265,631.586902 C1220.48265,639.287249 1214.23907,645.529935 1206.53661,645.529935 C1198.83616,645.529935 1192.59258,639.287249 1192.59258,631.586902 C1192.59258,623.886554 1198.83616,617.643869 1206.53661,617.643869 C1214.23907,617.643869 1220.48265,623.886554 1220.48265,631.586902" id="Fill-120" fill="#A9D163" sketch:type="MSShapeGroup"></path>
                <path d="M1166.57547,557.797501 L1177.29394,568.680846 C1187.7056,579.252408 1193.54009,593.493189 1193.54009,608.329466 L1193.54009,640.194529" id="Stroke-121" stroke="#A9D163" stroke-width="5.01259446" stroke-linecap="round" stroke-linejoin="round" sketch:type="MSShapeGroup"></path>
                <path d="M1151.47035,557.795496 C1151.47035,566.138458 1158.23432,572.902453 1166.57547,572.902453 C1174.91863,572.902453 1181.6826,566.138458 1181.6826,557.795496 C1181.6826,549.454539 1174.91863,542.693552 1166.57547,542.693552 C1158.23432,542.693552 1151.47035,549.454539 1151.47035,557.795496" id="Fill-122" fill="#FFC64A" sketch:type="MSShapeGroup"></path>
                <path d="M1151.47035,557.795496 C1151.47035,566.138458 1158.23432,572.902453 1166.57547,572.902453 C1174.91863,572.902453 1181.6826,566.138458 1181.6826,557.795496 C1181.6826,549.454539 1174.91863,542.693552 1166.57547,542.693552 C1158.23432,542.693552 1151.47035,549.454539 1151.47035,557.795496 L1151.47035,557.795496 Z" id="Stroke-123" stroke="#FFC64A" stroke-width="15.0377834" stroke-linecap="round" stroke-linejoin="round" stroke-dasharray="0,15.773" sketch:type="MSShapeGroup"></path>
                <path d="M1160.75903,557.797501 C1160.75903,561.010574 1163.36394,563.614116 1166.57547,563.614116 C1169.78901,563.614116 1172.39393,561.010574 1172.39393,557.797501 C1172.39393,554.584428 1169.78901,551.981889 1166.57547,551.981889 C1163.36394,551.981889 1160.75903,554.584428 1160.75903,557.797501" id="Fill-124" fill="#FFFFFF" sketch:type="MSShapeGroup"></path>
                <path d="M1195.0852,630.56734 L1195.0852,470.474096" id="Stroke-125" stroke="#A9D163" stroke-width="5.01259446" stroke-linecap="round" stroke-linejoin="round" sketch:type="MSShapeGroup"></path>
                <path d="M1180.85841,469.581854 C1180.85841,477.925819 1187.62238,484.689814 1195.96453,484.689814 C1204.30669,484.689814 1211.07066,477.925819 1211.07066,469.581854 C1211.07066,461.241899 1204.30669,454.480912 1195.96453,454.480912 C1187.62238,454.480912 1180.85841,461.241899 1180.85841,469.581854" id="Fill-126" fill="#FFC64A" sketch:type="MSShapeGroup"></path>
                <path d="M1180.85841,469.581854 C1180.85841,477.925819 1187.62238,484.689814 1195.96453,484.689814 C1204.30669,484.689814 1211.07066,477.925819 1211.07066,469.581854 C1211.07066,461.241899 1204.30669,454.480912 1195.96453,454.480912 C1187.62238,454.480912 1180.85841,461.241899 1180.85841,469.581854 L1180.85841,469.581854 Z" id="Stroke-127" stroke="#FFC64A" stroke-width="15.0377834" stroke-linecap="round" stroke-linejoin="round" stroke-dasharray="0,15.773" sketch:type="MSShapeGroup"></path>
                <path d="M1190.14708,469.583859 C1190.14708,472.796932 1192.752,475.401476 1195.96453,475.401476 C1199.17707,475.401476 1201.78198,472.796932 1201.78198,469.583859 C1201.78198,466.371788 1199.17707,463.768247 1195.96453,463.768247 C1192.752,463.768247 1190.14708,466.371788 1190.14708,469.583859" id="Fill-128" fill="#FFFFFF" sketch:type="MSShapeGroup"></path>
                <path d="M1224.9786,595.835073 C1216.34667,600.533879 1204.44907,595.339829 1204.44907,595.339829 C1204.44907,595.339829 1206.54163,582.52864 1215.17355,577.829834 C1223.80448,573.131028 1235.70408,578.324076 1235.70408,578.324076 C1235.70408,578.324076 1233.60952,591.13727 1224.9786,595.835073" id="Fill-129" fill="#A9D163" sketch:type="MSShapeGroup"></path>
                <path d="M1206.05032,594.776413 L1195.96554,600.268212" id="Stroke-130" stroke="#A9D163" stroke-width="3.00755668" stroke-linecap="round" stroke-linejoin="round" sketch:type="MSShapeGroup"></path>
                <path d="M1224.40206,548.18936 C1215.77014,552.888166 1203.87153,547.693113 1203.87153,547.693113 C1203.87153,547.693113 1205.96509,534.882927 1214.59702,530.184121 C1223.22694,525.485315 1235.12755,530.678363 1235.12755,530.678363 C1235.12755,530.678363 1233.03299,543.491557 1224.40206,548.18936" id="Fill-131" fill="#A9D163" sketch:type="MSShapeGroup"></path>
                <path d="M1205.47279,547.1307 L1195.388,552.621496" id="Stroke-132" stroke="#A9D163" stroke-width="3.00755668" stroke-linecap="round" stroke-linejoin="round" sketch:type="MSShapeGroup"></path>
                <path d="M1165.97688,519.376967 C1174.60981,524.076776 1186.50741,518.881723 1186.50741,518.881723 C1186.50741,518.881723 1184.41486,506.071537 1175.78193,501.371728 C1167.15201,496.673924 1155.2524,501.86597 1155.2524,501.86597 C1155.2524,501.86597 1157.34596,514.680166 1165.97688,519.376967" id="Fill-133" fill="#A9D163" sketch:type="MSShapeGroup"></path>
                <path d="M1184.90616,518.31931 L1194.99095,523.810106" id="Stroke-134" stroke="#A9D163" stroke-width="3.00755668" stroke-linecap="round" stroke-linejoin="round" sketch:type="MSShapeGroup"></path>
                <path d="M1428.79494,583.058972 C1428.79494,557.885723 1408.38473,537.478448 1383.20786,537.478448 C1358.03099,537.478448 1337.62078,557.885723 1337.62078,583.058972 C1337.62078,608.231219 1358.03099,628.639496 1383.20786,628.639496 C1408.38473,628.639496 1428.79494,608.231219 1428.79494,583.058972" id="Fill-135" fill="#4FC1B3" sketch:type="MSShapeGroup"></path>
                <path d="M1412.75233,671.737783 C1412.75233,688.347516 1426.2201,701.81335 1442.83222,701.81335 L1457.04898,701.81335 C1473.66111,701.81335 1487.12888,688.347516 1487.12888,671.737783 L1487.12888,531.73602 C1487.12888,511.201426 1470.47865,494.553597 1449.9401,494.553597 C1429.40155,494.553597 1412.75233,511.201426 1412.75233,531.73602 L1412.75233,671.737783" id="Fill-136" fill="#4FC1B3" sketch:type="MSShapeGroup"></path>
                <path d="M1373.42387,636.599496 L1487.21009,636.599496 L1487.21009,754.22604 L1373.42387,754.22604 L1373.42387,636.599496 Z" id="Fill-137" fill="#4FC1B3" sketch:type="MSShapeGroup"></path>
                <path d="M1455.95608,669.350786 C1455.95608,624.45799 1419.55941,588.065552 1374.66016,588.065552 C1329.7609,588.065552 1293.36423,624.45799 1293.36423,669.350786 C1293.36423,714.242579 1329.7609,750.635018 1374.66016,750.635018 C1419.55941,750.635018 1455.95608,714.242579 1455.95608,669.350786" id="Fill-138" fill="#3B9F86" sketch:type="MSShapeGroup"></path>
                <path d="M1455.95608,669.350786 C1455.95608,624.45799 1419.55941,588.065552 1374.66016,588.065552 C1329.7609,588.065552 1293.36423,624.45799 1293.36423,669.350786 C1293.36423,714.242579 1329.7609,750.635018 1374.66016,750.635018 C1419.55941,750.635018 1455.95608,714.242579 1455.95608,669.350786 L1455.95608,669.350786 Z" id="Stroke-139" stroke="#3B9F86" stroke-width="35.0881612" stroke-linecap="round" stroke-linejoin="round" stroke-dasharray="0,33.964" sketch:type="MSShapeGroup"></path>
                <path d="M1449.9401,537.478448 L1449.9401,479.507793 C1449.9401,464.35472 1444.25601,449.751028 1434.01079,438.582967 L1419.77097,423.062972" id="Stroke-140" stroke="#A9D163" stroke-width="8.02015113" stroke-linecap="round" stroke-linejoin="round" sketch:type="MSShapeGroup"></path>
                <path d="M1438.84564,550.229486 C1436.59666,551.616972 1433.64683,550.920222 1432.25914,548.672574 C1430.87045,546.423924 1431.56831,543.475516 1433.81628,542.08803 L1456.84645,527.870307 C1459.09442,526.481819 1462.04425,527.178569 1463.43194,529.427219 C1464.82063,531.675869 1464.12277,534.623275 1461.8758,536.011763 L1438.84564,550.229486" id="Fill-141" fill="#1B6C72" sketch:type="MSShapeGroup"></path>
                <path d="M1402.75277,381.638892 C1411.92513,372.465844 1426.79864,372.464841 1435.97301,381.638892 C1445.14537,390.809935 1445.14537,405.6813 1435.97301,414.852343 L1416.70483,434.117748 C1407.53046,443.290796 1392.65696,443.290796 1383.48459,434.117748 C1374.30922,424.945703 1374.31023,410.07534 1383.48459,400.903295 C1385.86792,398.520307 1389.73319,398.520307 1392.11652,400.903295 L1398.44032,407.226181 L1409.07556,396.592463 L1402.75277,390.269577 C1400.36844,387.886589 1400.36844,384.021879 1402.75277,381.638892" id="Fill-142" fill="#F495B6" sketch:type="MSShapeGroup"></path>
                <path d="M1399.68763,397.837592 L1419.77097,397.837592 L1419.77097,417.919048 L1399.68763,417.919048 L1399.68763,397.837592 Z" id="Fill-143" fill="#FFFFFF" sketch:type="MSShapeGroup"></path>
                <path d="M1409.7283,397.244101 C1412.6661,400.181481 1412.6661,404.943446 1409.7293,407.877819 C1406.7925,410.815199 1402.02985,410.815199 1399.09305,407.877819 L1376.81789,385.605859 C1373.88109,382.669481 1373.88109,377.907516 1376.81789,374.971139 C1379.75368,372.035763 1384.51533,372.035763 1387.45313,374.971139 L1409.7283,397.244101" id="Fill-144" fill="#FFC64A" sketch:type="MSShapeGroup"></path>
                <path d="M1427.20171,480.963451 C1436.62975,483.743436 1441.36934,495.828801 1441.36934,495.828801 C1441.36934,495.828801 1430.82934,503.407844 1421.4023,500.626856 C1411.97727,497.847874 1407.23568,485.762509 1407.23568,485.762509 C1407.23568,485.762509 1417.77768,478.182463 1427.20171,480.963451" id="Fill-145" fill="#A9D163" sketch:type="MSShapeGroup"></path>
                <path d="M1439.83927,495.094957 L1450.85353,498.342116" id="Stroke-146" stroke="#A9D163" stroke-width="6.01511335" stroke-linecap="round" stroke-linejoin="round" sketch:type="MSShapeGroup"></path>
                <path d="M1473.03143,438.496751 C1466.08097,445.445209 1453.19876,443.829149 1453.19876,443.829149 C1453.19876,443.829149 1451.58146,430.948786 1458.53192,424.000327 C1465.47938,417.052872 1478.3636,418.666927 1478.3636,418.666927 C1478.3636,418.666927 1479.97889,431.549295 1473.03143,438.496751" id="Fill-147" fill="#A9D163" sketch:type="MSShapeGroup"></path>
                <path d="M1454.57541,442.836655 L1446.45685,450.955053" id="Stroke-148" stroke="#A9D163" stroke-width="6.01511335" stroke-linecap="round" stroke-linejoin="round" sketch:type="MSShapeGroup"></path>
                <path d="M1319.29009,752.891688 L1217.74739,752.891688 C1202.2763,752.891688 1189.73499,740.352181 1189.73499,724.883315 C1189.73499,709.415451 1202.2763,696.875945 1217.74739,696.875945 L1319.29009,696.875945 L1319.29009,752.891688" id="Fill-149" fill="#4FC1B3" sketch:type="MSShapeGroup"></path>
                <path d="M1243.81964,688.431728 C1243.81964,681.500312 1238.19971,675.881194 1231.2673,675.881194 C1224.33489,675.881194 1218.71396,681.500312 1218.71396,688.431728 C1218.71396,695.363144 1224.33489,700.983264 1231.2673,700.983264 C1238.19971,700.983264 1243.81964,695.363144 1243.81964,688.431728" id="Fill-150" fill="#4FC1B3" sketch:type="MSShapeGroup"></path>
                <path d="M1415.68512,669.350786 C1415.68512,624.45799 1379.28845,588.065552 1334.38919,588.065552 C1289.48994,588.065552 1253.09327,624.45799 1253.09327,669.350786 C1253.09327,714.242579 1289.48994,750.635018 1334.38919,750.635018 C1379.28845,750.635018 1415.68512,714.242579 1415.68512,669.350786" id="Fill-151" fill="#3BB67D" sketch:type="MSShapeGroup"></path>
                <path d="M1415.68512,669.350786 C1415.68512,624.45799 1379.28845,588.065552 1334.38919,588.065552 C1289.48994,588.065552 1253.09327,624.45799 1253.09327,669.350786 C1253.09327,714.242579 1289.48994,750.635018 1334.38919,750.635018 C1379.28845,750.635018 1415.68512,714.242579 1415.68512,669.350786 L1415.68512,669.350786 Z" id="Stroke-152" stroke="#3BB67D" stroke-width="35.0881612" stroke-linecap="round" stroke-linejoin="round" stroke-dasharray="0,33.964" sketch:type="MSShapeGroup"></path>
                <path d="M1324.37961,634.938322 C1324.37961,640.437139 1319.92077,644.89534 1314.42216,644.89534 C1308.92356,644.89534 1304.46471,640.437139 1304.46471,634.938322 C1304.46471,629.440509 1308.92356,624.98331 1314.42216,624.98331 C1319.92077,624.98331 1324.37961,629.440509 1324.37961,634.938322" id="Fill-153" fill="#FFC64A" sketch:type="MSShapeGroup"></path>
                <path d="M1324.37961,634.938322 C1324.37961,640.437139 1319.92077,644.89534 1314.42216,644.89534 C1308.92356,644.89534 1304.46471,640.437139 1304.46471,634.938322 C1304.46471,629.440509 1308.92356,624.98331 1314.42216,624.98331 C1319.92077,624.98331 1324.37961,629.440509 1324.37961,634.938322 L1324.37961,634.938322 Z" id="Stroke-154" stroke="#FFC64A" stroke-width="15.0377834" stroke-linecap="round" stroke-linejoin="round" stroke-dasharray="0,15.595" sketch:type="MSShapeGroup"></path>
                <path d="M1318.25634,634.939325 C1318.25634,637.057647 1316.53878,638.77396 1314.42216,638.77396 C1312.30454,638.77396 1310.58697,637.057647 1310.58697,634.939325 C1310.58697,632.822005 1312.30454,631.105693 1314.42216,631.105693 C1316.53878,631.105693 1318.25634,632.822005 1318.25634,634.939325" id="Fill-155" fill="#FFFFFF" sketch:type="MSShapeGroup"></path>
                <path d="M1369.7441,698.386741 C1369.7441,703.885557 1365.28526,708.343758 1359.78765,708.343758 C1354.28805,708.343758 1349.8292,703.885557 1349.8292,698.386741 C1349.8292,692.888927 1354.28805,688.431728 1359.78765,688.431728 C1365.28526,688.431728 1369.7441,692.888927 1369.7441,698.386741" id="Fill-156" fill="#FFC64A" sketch:type="MSShapeGroup"></path>
                <path d="M1369.7441,698.386741 C1369.7441,703.885557 1365.28526,708.343758 1359.78765,708.343758 C1354.28805,708.343758 1349.8292,703.885557 1349.8292,698.386741 C1349.8292,692.888927 1354.28805,688.431728 1359.78765,688.431728 C1365.28526,688.431728 1369.7441,692.888927 1369.7441,698.386741 L1369.7441,698.386741 Z" id="Stroke-157" stroke="#FFC64A" stroke-width="15.0377834" stroke-linecap="round" stroke-linejoin="round" stroke-dasharray="0,15.595" sketch:type="MSShapeGroup"></path>
                <path d="M1363.62184,698.387743 C1363.62184,700.506065 1361.90428,702.222378 1359.78765,702.222378 C1357.66903,702.222378 1355.95247,700.506065 1355.95247,698.387743 C1355.95247,696.270423 1357.66903,694.555113 1359.78765,694.555113 C1361.90428,694.555113 1363.62184,696.270423 1363.62184,698.387743" id="Fill-158" fill="#FFFFFF" sketch:type="MSShapeGroup"></path>
                <path d="M1199.88996,704.130171 C1202.29334,695.878438 1210.9363,691.135521 1219.19022,693.540564 C1227.44414,695.945607 1232.18574,704.585315 1229.78135,712.839053 C1227.37697,721.089783 1218.73601,725.8327 1210.48109,723.427657 C1202.22717,721.022615 1197.48557,712.384912 1199.88996,704.130171" id="Fill-159" fill="#775AA6" sketch:type="MSShapeGroup"></path>
                <path d="M1190.492,696.188217 C1192.09626,690.687395 1197.85756,687.526453 1203.36018,689.129481 C1208.86279,690.732509 1212.02519,696.492982 1210.42093,701.992801 C1208.81867,707.494625 1203.05737,710.656569 1197.55476,709.054544 C1192.05214,707.450514 1188.89074,701.692045 1190.492,696.188217" id="Fill-160" fill="#B561A6" sketch:type="MSShapeGroup"></path>
                <path d="M1186.74505,687.413169 C1187.81388,683.744952 1191.65408,681.639662 1195.32283,682.707345 C1198.99057,683.775028 1201.09817,687.615678 1200.03033,691.282892 C1198.96149,694.952111 1195.12129,697.058403 1191.45255,695.99072 C1187.7838,694.921033 1185.67621,691.082388 1186.74505,687.413169" id="Fill-161" fill="#F496BF" sketch:type="MSShapeGroup"></path>
                <path d="M1181.47906,680.753436 C1182.28119,678.003526 1185.16084,676.422554 1187.91215,677.222564 C1190.66345,678.025582 1192.24465,680.904816 1191.44252,683.657733 C1190.64039,686.407642 1187.76074,687.988615 1185.00944,687.187602 C1182.25813,686.385587 1180.67693,683.50535 1181.47906,680.753436" id="Fill-162" fill="#FFC64A" sketch:type="MSShapeGroup"></path>
                <path d="M318.236249,733.680418 C318.236249,747.05001 307.396458,757.888242 294.02394,757.888242 L220.923783,757.888242 C207.551265,757.888242 196.711474,747.05001 196.711474,733.680418 C196.711474,720.309824 207.551265,709.471592 220.923783,709.471592 L294.02394,709.471592 C307.396458,709.471592 318.236249,720.309824 318.236249,733.680418" id="Fill-163" fill="#4FC1B3" sketch:type="MSShapeGroup"></path>
                <path d="M225.865909,702.686544 C225.865909,691.623748 234.836736,682.654212 245.901124,682.654212 C256.965511,682.654212 265.935336,691.623748 265.935336,702.686544 L265.935336,702.687547 C265.935336,713.750343 256.965511,722.718877 245.901124,722.718877 C234.836736,722.718877 225.865909,713.750343 225.865909,702.687547 L225.865909,702.686544" id="Fill-164" fill="#4FC1B3" sketch:type="MSShapeGroup"></path>
                <path d="M34.4043795,681.6547 C34.4043795,734.597723 77.3293901,777.517562 130.278024,777.517562 C183.228663,777.517562 226.154676,734.597723 226.154676,681.6547 C226.154676,628.71268 183.228663,585.792841 130.278024,585.792841 C77.3293901,585.792841 34.4043795,628.71268 34.4043795,681.6547" id="Fill-165" fill="#3B9F86" sketch:type="MSShapeGroup"></path>
                <path d="M34.4043795,681.6547 C34.4043795,734.597723 77.3293901,777.517562 130.278024,777.517562 C183.228663,777.517562 226.154676,734.597723 226.154676,681.6547 C226.154676,628.71268 183.228663,585.792841 130.278024,585.792841 C77.3293901,585.792841 34.4043795,628.71268 34.4043795,681.6547 L34.4043795,681.6547 Z" id="Stroke-166" stroke="#3B9F86" stroke-width="35.0881612" stroke-linecap="round" stroke-linejoin="round" stroke-dasharray="0,33.379" sketch:type="MSShapeGroup"></path>
                <path d="M0.200532623,679.647657 C0.200532623,732.59068 43.1265459,775.509516 96.0751798,775.509516 C149.025819,775.509516 168.45743,732.59068 168.45743,679.647657 C168.45743,626.705637 149.025819,583.785798 96.0751798,583.785798 C43.1265459,583.785798 0.200532623,626.705637 0.200532623,679.647657" id="Fill-167" fill="#3BB67D" sketch:type="MSShapeGroup"></path>
                <path d="M0.200532623,679.647657 C0.200532623,732.59068 43.1265459,775.509516 96.0751798,775.509516 C149.025819,775.509516 168.45743,732.59068 168.45743,679.647657 C168.45743,626.705637 149.025819,583.785798 96.0751798,583.785798 C43.1265459,583.785798 0.200532623,626.705637 0.200532623,679.647657 L0.200532623,679.647657 Z" id="Stroke-168" stroke="#3BB67D" stroke-width="35.0881612" stroke-linecap="round" stroke-linejoin="round" stroke-dasharray="0,33.656" sketch:type="MSShapeGroup"></path>
                <path d="M137.119194,628.067058 C137.119194,633.566877 132.661354,638.025078 127.16275,638.025078 C121.663142,638.025078 117.205302,633.566877 117.205302,628.067058 C117.205302,622.570247 121.663142,618.113048 127.16275,618.113048 C132.661354,618.113048 137.119194,622.570247 137.119194,628.067058" id="Fill-169" fill="#FFC64A" sketch:type="MSShapeGroup"></path>
                <path d="M137.119194,628.067058 C137.119194,633.566877 132.661354,638.025078 127.16275,638.025078 C121.663142,638.025078 117.205302,633.566877 117.205302,628.067058 C117.205302,622.570247 121.663142,618.113048 127.16275,618.113048 C132.661354,618.113048 137.119194,622.570247 137.119194,628.067058 L137.119194,628.067058 Z" id="Stroke-170" stroke="#FFC64A" stroke-width="15.0377834" stroke-linecap="round" stroke-linejoin="round" stroke-dasharray="0,15.595" sketch:type="MSShapeGroup"></path>
                <path d="M130.996933,628.06806 C130.996933,630.186383 129.279372,631.902695 127.16275,631.902695 C125.045125,631.902695 123.327563,630.186383 123.327563,628.06806 C123.327563,625.951743 125.045125,624.235431 127.16275,624.235431 C129.279372,624.235431 130.996933,625.951743 130.996933,628.06806" id="Fill-171" fill="#FFFFFF" sketch:type="MSShapeGroup"></path>
                <path d="M119.735021,717.108781 C119.735021,722.607597 115.276178,727.065798 109.777574,727.065798 C104.278969,727.065798 99.8201265,722.607597 99.8201265,717.108781 C99.8201265,711.610967 104.278969,707.153768 109.777574,707.153768 C115.276178,707.153768 119.735021,711.610967 119.735021,717.108781" id="Fill-172" fill="#F28B58" sketch:type="MSShapeGroup"></path>
                <path d="M119.735021,717.108781 C119.735021,722.607597 115.276178,727.065798 109.777574,727.065798 C104.278969,727.065798 99.8201265,722.607597 99.8201265,717.108781 C99.8201265,711.610967 104.278969,707.153768 109.777574,707.153768 C115.276178,707.153768 119.735021,711.610967 119.735021,717.108781 L119.735021,717.108781 Z" id="Stroke-173" stroke="#FFC64A" stroke-width="15.0377834" stroke-linecap="round" stroke-linejoin="round" stroke-dasharray="0,15.595" sketch:type="MSShapeGroup"></path>
                <path d="M113.61276,717.109783 C113.61276,719.228106 111.895198,720.944418 109.777574,720.944418 C107.659949,720.944418 105.94339,719.228106 105.94339,717.109783 C105.94339,714.992463 107.659949,713.276151 109.777574,713.276151 C111.895198,713.276151 113.61276,714.992463 113.61276,717.109783" id="Fill-174" fill="#FFFFFF" sketch:type="MSShapeGroup"></path>
                <path d="M84.9897364,666.939728 C84.9897364,672.438544 80.5308935,676.896746 75.0322889,676.896746 C69.5336844,676.896746 65.0748415,672.438544 65.0748415,666.939728 C65.0748415,661.441914 69.5336844,656.984715 75.0322889,656.984715 C80.5308935,656.984715 84.9897364,661.441914 84.9897364,666.939728" id="Fill-175" fill="#FFC64A" sketch:type="MSShapeGroup"></path>
                <path d="M84.9897364,666.939728 C84.9897364,672.438544 80.5308935,676.896746 75.0322889,676.896746 C69.5336844,676.896746 65.0748415,672.438544 65.0748415,666.939728 C65.0748415,661.441914 69.5336844,656.984715 75.0322889,656.984715 C80.5308935,656.984715 84.9897364,661.441914 84.9897364,666.939728 L84.9897364,666.939728 Z" id="Stroke-176" stroke="#FFC64A" stroke-width="15.0377834" stroke-linecap="round" stroke-linejoin="round" stroke-dasharray="0,15.595" sketch:type="MSShapeGroup"></path>
                <path d="M78.8664727,666.94073 C78.8664727,669.059053 77.1489108,670.775365 75.0322889,670.775365 C72.9146644,670.775365 71.1971025,669.059053 71.1971025,666.94073 C71.1971025,664.823411 72.9146644,663.107098 75.0322889,663.107098 C77.1489108,663.107098 78.8664727,664.823411 78.8664727,666.94073" id="Fill-177" fill="#FFFFFF" sketch:type="MSShapeGroup"></path>
            </g>
        </g>
    </g>
</svg>