<?xml version="1.0" encoding="UTF-8" standalone="no"?>
<svg width="1440px" height="752px" viewBox="0 0 1440 752" version="1.1" xmlns="http://www.w3.org/2000/svg" xmlns:xlink="http://www.w3.org/1999/xlink" xmlns:sketch="http://www.bohemiancoding.com/sketch/ns">
    <!-- Generator: Sketch 3.3.2 (12043) - http://www.bohemiancoding.com/sketch -->
    <title>travelling</title>
    <desc>Created with Sketch.</desc>
    <defs></defs>
    <g id="Page-1" stroke="none" stroke-width="1" fill="none" fill-rule="evenodd" sketch:type="MSPage">
        <g id="travelling" sketch:type="MSArtboardGroup">
            <g id="Imported-Layers" sketch:type="MSLayerGroup" transform="translate(-2.000000, -2.000000)">
                <path d="M0.524710027,0.0440581242 L1442.55704,0.0440581242 L1442.55704,337.914798 L0.524710027,337.914798 L0.524710027,0.0440581242 Z" id="Fill-1" fill="#28D2FF" sketch:type="MSShapeGroup"></path>
                <path d="M334.553711,63.2023804 C334.553711,76.473889 323.79315,87.2320819 310.522192,87.2320819 L195.478518,87.2320819 C182.205557,87.2320819 171.446999,76.473889 171.446999,63.2023804 C171.446999,49.9308719 182.205557,39.1706764 195.478518,39.1706764 L310.522192,39.1706764 C323.79315,39.1706764 334.553711,49.9308719 334.553711,63.2023804" id="Fill-2" fill="#D7F4FF" sketch:type="MSShapeGroup"></path>
                <path d="M406.652274,102.428129 C406.652274,111.374933 399.399459,118.627501 390.453354,118.627501 L250.692232,118.627501 C241.745125,118.627501 234.49231,111.374933 234.49231,102.428129 C234.49231,93.4813263 241.745125,86.2287583 250.692232,86.2287583 L390.453354,86.2287583 C399.399459,86.2287583 406.652274,93.4813263 406.652274,102.428129" id="Fill-3" fill="#D7F4FF" sketch:type="MSShapeGroup"></path>
                <path d="M292.497802,102.430132 C292.497802,111.375934 285.245989,118.628502 276.299883,118.628502 L235.264355,118.628502 C226.318249,118.628502 219.065435,111.375934 219.065435,102.430132 C219.065435,93.4833289 226.318249,86.2307609 235.264355,86.2307609 L276.298882,86.2307609 C285.244988,86.2307609 292.497802,93.4833289 292.497802,102.430132" id="Fill-4" fill="#FFFFFF" sketch:type="MSShapeGroup"></path>
                <path d="M272.076168,63.2023804 C272.076168,76.473889 261.31761,87.2320819 248.04565,87.2320819 L195.478518,87.2320819 C182.205557,87.2320819 171.446999,76.473889 171.446999,63.2023804 C171.446999,49.9308719 182.205557,39.1706764 195.478518,39.1706764 L248.04565,39.1706764 C261.31761,39.1706764 272.076168,49.9308719 272.076168,63.2023804" id="Fill-5" fill="#FFFFFF" sketch:type="MSShapeGroup"></path>
                <path d="M156.479745,103.109028 C156.479745,95.6441797 150.427556,89.5911942 142.961453,89.5911942 C135.494348,89.5911942 129.44316,95.6441797 129.44316,103.109028 C129.44316,110.575878 135.494348,116.626861 142.961453,116.626861 C150.427556,116.626861 156.479745,110.575878 156.479745,103.109028" id="Fill-6" fill="#FFFFFF" sketch:type="MSShapeGroup"></path>
                <path d="M1019.2312,47.2773712 C1019.2312,56.8169564 1011.49774,64.5501585 1001.95883,64.5501585 L875.794107,64.5501585 C866.254198,64.5501585 858.520733,56.8169564 858.520733,47.2773712 C858.520733,37.7397886 866.254198,30.0065865 875.794107,30.0065865 L1001.95883,30.0065865 C1011.49774,30.0065865 1019.2312,37.7397886 1019.2312,47.2773712" id="Fill-7" fill="#D7F4FF" sketch:type="MSShapeGroup"></path>
                <path d="M815.942117,79.4918705 C815.942117,88.2964861 823.080776,95.4349036 831.88469,95.4349036 L916.173748,95.4349036 C924.978663,95.4349036 932.116321,88.2964861 932.116321,79.4918705 C932.116321,70.6852523 924.978663,63.5488375 916.173748,63.5488375 L831.88469,63.5488375 C823.080776,63.5488375 815.942117,70.6852523 815.942117,79.4918705" id="Fill-8" fill="#D7F4FF" sketch:type="MSShapeGroup"></path>
                <path d="M863.947076,79.4918705 C863.947076,88.2964861 856.808416,95.4349036 848.003501,95.4349036 L826.392257,95.4349036 C817.587343,95.4349036 810.449684,88.2964861 810.449684,79.4918705 C810.449684,70.687255 817.587343,63.5488375 826.392257,63.5488375 L848.003501,63.5488375 C856.808416,63.5488375 863.947076,70.687255 863.947076,79.4918705" id="Fill-9" fill="#FFFFFF" sketch:type="MSShapeGroup"></path>
                <path d="M891.35216,47.2793738 C891.35216,56.8169564 883.618695,64.5501585 874.078786,64.5501585 C864.539878,64.5501585 856.807415,56.8169564 856.807415,47.2793738 C856.807415,37.7397886 864.539878,30.0065865 874.078786,30.0065865 C883.618695,30.0065865 891.35216,37.7397886 891.35216,47.2793738" id="Fill-10" fill="#FFFFFF" sketch:type="MSShapeGroup"></path>
                <path d="M768.933505,80.4931915 C768.933505,71.7096037 761.811869,64.58921 753.027982,64.58921 C744.243095,64.58921 737.122459,71.7096037 737.122459,80.4931915 C737.122459,89.2777807 744.243095,96.3981744 753.027982,96.3981744 C761.811869,96.3981744 768.933505,89.2777807 768.933505,80.4931915" id="Fill-11" fill="#D7F4FF" sketch:type="MSShapeGroup"></path>
                <path d="M561.446738,242.206534 L643.082206,242.206534 L643.082206,347.766795 L561.446738,347.766795 L561.446738,242.206534 Z" id="Fill-12" fill="#878C94" sketch:type="MSShapeGroup"></path>
                <path d="M614.931112,153.534552 L717.681152,153.534552 L717.681152,347.766795 L614.931112,347.766795 L614.931112,153.534552 Z" id="Fill-13" fill="#878C94" sketch:type="MSShapeGroup"></path>
                <path d="M796.50181,84.568568 L899.25185,84.568568 L899.25185,347.766795 L796.50181,347.766795 L796.50181,84.568568 Z" id="Fill-14" fill="#878C94" sketch:type="MSShapeGroup"></path>
                <path d="M947.108608,111.309847 L1049.85865,111.309847 L1049.85865,347.766795 L947.108608,347.766795 L947.108608,111.309847 Z" id="Fill-15" fill="#878C94" sketch:type="MSShapeGroup"></path>
                <path d="M1104.75093,183.091546 L1207.50097,183.091546 L1207.50097,347.766795 L1104.75093,347.766795 L1104.75093,183.091546 Z" id="Fill-16" fill="#878C94" sketch:type="MSShapeGroup"></path>
                <path d="M1199.05554,250.650674 L1301.80458,250.650674 L1301.80458,347.765794 L1199.05554,347.765794 L1199.05554,250.650674 Z" id="Fill-17" fill="#878C94" sketch:type="MSShapeGroup"></path>
                <path d="M1273.65448,118.347131 L1351.81625,118.347131 L1351.81625,347.765794 L1273.65448,347.765794 L1273.65448,118.347131 Z" id="Fill-18" fill="#878C94" sketch:type="MSShapeGroup"></path>
                <path d="M713.458438,229.538822 L826.060809,229.538822 L826.060809,347.765794 L713.458438,347.765794 L713.458438,229.538822 Z" id="Fill-19" fill="#878C94" sketch:type="MSShapeGroup"></path>
                <path d="M0.524710027,426.585778 L0.524710027,268.556296 L55.2687886,268.556296 L55.2687886,185.912267 L88.728065,210.990351 C95.1497547,215.804703 102.050092,219.355387 109.173732,221.701482 L109.173732,185.912267 L142.633008,210.990351 C149.053696,215.804703 155.955035,219.355387 163.079676,221.701482 L163.079676,185.912267 L196.53695,210.990351 C202.959641,215.804703 209.859978,219.355387 216.983618,221.701482 L216.983618,185.912267 L250.442894,210.990351 C252.008012,212.162898 253.593157,213.264351 255.214351,214.288703 C279.448144,229.656978 309.210417,228.558528 332.654141,210.990351 L366.120427,185.912267 L366.120427,426.585778 L0.524710027,426.585778" id="Fill-20" fill="#878C94" sketch:type="MSShapeGroup"></path>
                <path d="M109.63035,297.096948 L248.974908,297.096948 L248.974908,347.765794 L109.63035,347.765794 L109.63035,297.096948 Z" id="Fill-21" fill="#A6ADB9" sketch:type="MSShapeGroup"></path>
                <path d="M1186.14907,343.512182 L1255.96655,343.512182 L1255.96655,378.420235 L1186.14907,378.420235 L1186.14907,343.512182 Z" id="Fill-22" fill="#A6ADB9" sketch:type="MSShapeGroup"></path>
                <path d="M353.131851,270.088317 L513.187435,270.088317 L513.187435,415.325923 L353.131851,415.325923 L353.131851,270.088317 Z" id="Fill-23" fill="#878C94" sketch:type="MSShapeGroup"></path>
                <path d="M0.524710027,337.914798 L1442.55704,337.914798 L1442.55704,757.618497 L0.524710027,757.618497 L0.524710027,337.914798 Z" id="Fill-24" fill="#A6ADB9" sketch:type="MSShapeGroup"></path>
                <path d="M0.524710027,471.644222 L1442.55704,471.644222 L1442.55704,757.619498 L0.524710027,757.619498 L0.524710027,471.644222 Z" id="Fill-25" fill="#DBDEE3" sketch:type="MSShapeGroup"></path>
                <path d="M47.7215759,441.605593 L122.958385,441.605593 L122.958385,509.190756 L47.7215759,509.190756 L47.7215759,441.605593 Z" id="Fill-26" fill="#DBDEE3" sketch:type="MSShapeGroup"></path>
                <path d="M158.956096,373.61089 L109.63035,416.567561 L109.63035,509.191757 L208.281843,509.191757 L208.281843,416.567561 L158.956096,373.61089" id="Fill-27" fill="#DBDEE3" sketch:type="MSShapeGroup"></path>
                <path d="M219.066436,373.61089 L169.739688,416.567561 L169.739688,509.191757 L268.391182,509.191757 L268.391182,416.567561 L219.066436,373.61089" id="Fill-28" fill="#DBDEE3" sketch:type="MSShapeGroup"></path>
                <path d="M281.121408,384.507266 L231.795661,427.462935 L231.795661,520.087131 L330.447154,520.087131 L330.447154,427.462935 L281.121408,384.507266" id="Fill-29" fill="#DBDEE3" sketch:type="MSShapeGroup"></path>
                <path d="M346.209484,373.61089 L296.883737,416.567561 L296.883737,509.191757 L395.53523,509.191757 L395.53523,416.567561 L346.209484,373.61089" id="Fill-30" fill="#DBDEE3" sketch:type="MSShapeGroup"></path>
                <path d="M1359.79204,373.61089 L1310.4663,416.567561 L1310.4663,509.191757 L1409.11779,509.191757 L1409.11779,416.567561 L1359.79204,373.61089" id="Fill-31" fill="#DBDEE3" sketch:type="MSShapeGroup"></path>
                <path d="M1409.57641,373.61089 L1360.25066,416.567561 L1360.25066,509.191757 L1458.90216,509.191757 L1458.90216,416.567561 L1409.57641,373.61089" id="Fill-32" fill="#DBDEE3" sketch:type="MSShapeGroup"></path>
                <path d="M1107.29837,373.61089 L1182.98579,373.61089 L1182.98579,483.638045 L1107.29837,483.638045 L1107.29837,373.61089 Z" id="Fill-33" fill="#DBDEE3" sketch:type="MSShapeGroup"></path>
                <path d="M1173.05636,408.038309 L1248.74478,408.038309 L1248.74478,483.638045 L1173.05636,483.638045 L1173.05636,408.038309 Z" id="Fill-34" fill="#DBDEE3" sketch:type="MSShapeGroup"></path>
                <path d="M1245.63857,318.210803 L1329.79946,318.210803 L1329.79946,483.638045 L1245.63857,483.638045 L1245.63857,318.210803 Z" id="Fill-35" fill="#DBDEE3" sketch:type="MSShapeGroup"></path>
                <path d="M224.071209,605.44474 C224.071209,589.166264 237.267065,575.969855 253.546093,575.969855 C269.825122,575.969855 283.02198,589.166264 283.02198,605.44474 C283.02198,621.722214 269.825122,634.917622 253.546093,634.917622 C237.267065,634.917622 224.071209,621.722214 224.071209,605.44474" id="Fill-36" fill="#3B9F86" sketch:type="MSShapeGroup"></path>
                <path d="M167.305394,605.44474 C167.305394,589.166264 180.502252,575.969855 196.78128,575.969855 C213.059308,575.969855 226.256165,589.166264 226.256165,605.44474 C226.256165,621.722214 213.059308,634.917622 196.78128,634.917622 C180.502252,634.917622 167.305394,621.722214 167.305394,605.44474" id="Fill-37" fill="#3B9F86" sketch:type="MSShapeGroup"></path>
                <path d="M208.788528,565.055456 C208.788528,548.77698 221.985386,535.580571 238.263413,535.580571 C254.542442,535.580571 267.738298,548.77698 267.738298,565.055456 C267.738298,581.33293 254.542442,594.528338 238.263413,594.528338 C221.985386,594.528338 208.788528,581.33293 208.788528,565.055456" id="Fill-38" fill="#3B9F86" sketch:type="MSShapeGroup"></path>
                <path d="M185.870516,594.528338 C185.870516,578.249863 199.067374,565.055456 215.346402,565.055456 C231.62443,565.055456 244.821287,578.249863 244.821287,594.528338 C244.821287,610.806814 231.62443,624.003223 215.346402,624.003223 C199.067374,624.003223 185.870516,610.806814 185.870516,594.528338" id="Fill-39" fill="#3B9F86" sketch:type="MSShapeGroup"></path>
                <path d="M121.457354,594.528338 C121.457354,578.249863 134.65321,565.055456 150.931237,565.055456 C167.211267,565.055456 180.407123,578.249863 180.407123,594.528338 C180.407123,610.806814 167.211267,624.003223 150.931237,624.003223 C134.65321,624.003223 121.457354,610.806814 121.457354,594.528338" id="Fill-40" fill="#3B9F86" sketch:type="MSShapeGroup"></path>
                <path d="M54.8672453,586.887258 C54.8672453,562.771443 74.4177005,543.222653 98.5333333,543.222653 C122.649967,543.222653 142.200423,562.771443 142.200423,586.887258 C142.200423,611.003073 122.649967,630.552864 98.5333333,630.552864 C74.4177005,630.552864 54.8672453,611.003073 54.8672453,586.887258" id="Fill-41" fill="#3B9F86" sketch:type="MSShapeGroup"></path>
                <path d="M59.4604607,479.734896 C59.4604607,455.140449 79.397439,435.204148 103.992721,435.204148 C128.588003,435.204148 148.525982,455.140449 148.525982,479.734896 C148.525982,504.328341 128.588003,524.264642 103.992721,524.264642 C79.397439,524.264642 59.4604607,504.328341 59.4604607,479.734896" id="Fill-42" fill="#3B9F86" sketch:type="MSShapeGroup"></path>
                <path d="M54.0731707,527.938489 C54.0731707,504.589686 73.0007832,485.662716 96.3513808,485.662716 C119.700977,485.662716 138.629591,504.589686 138.629591,527.938489 C138.629591,551.288293 119.700977,570.216264 96.3513808,570.216264 C73.0007832,570.216264 54.0731707,551.288293 54.0731707,527.938489" id="Fill-43" fill="#3B9F86" sketch:type="MSShapeGroup"></path>
                <path d="M122.38561,537.454042 C122.38561,508.772203 145.637073,485.520528 174.320888,485.520528 C203.003701,485.520528 226.256165,508.772203 226.256165,537.454042 C226.256165,566.136882 203.003701,589.387556 174.320888,589.387556 C145.637073,589.387556 122.38561,566.136882 122.38561,537.454042" id="Fill-44" fill="#3B9F86" sketch:type="MSShapeGroup"></path>
                <path d="M0.574777778,419.833871 C0.574777778,393.47009 21.9476992,372.097894 48.3123753,372.097894 C74.6780528,372.097894 96.0509743,393.47009 96.0509743,419.833871 C96.0509743,446.197651 74.6780528,467.569847 48.3123753,467.569847 C21.9476992,467.569847 0.574777778,446.197651 0.574777778,419.833871" id="Fill-45" fill="#3B9F86" sketch:type="MSShapeGroup"></path>
                <path d="M0.574777778,419.833871 L76.0599228,419.833871 L76.0599228,620.724898 L0.574777778,620.724898 L0.574777778,419.833871 Z" id="Fill-46" fill="#3B9F86" sketch:type="MSShapeGroup"></path>
                <path d="M42.6847602,535.792851 C42.6847602,524.150491 33.2469892,514.71204 21.6042344,514.71204 C9.96147967,514.71204 0.524710027,524.150491 0.524710027,535.792851 C0.524710027,547.434209 9.96147967,556.872661 21.6042344,556.872661 C33.2469892,556.872661 42.6847602,547.434209 42.6847602,535.792851" id="Fill-47" fill="#3B8186" sketch:type="MSShapeGroup"></path>
                <path d="M0.524710027,535.792851 L42.6857615,535.792851 L42.6857615,616.06475 L0.524710027,616.06475 L0.524710027,535.792851 Z" id="Fill-48" fill="#3B8186" sketch:type="MSShapeGroup"></path>
                <path d="M91.0842534,551.779942 C91.0842534,566.926925 78.8046369,579.205123 63.6571396,579.205123 C48.5106436,579.205123 36.2310271,566.926925 36.2310271,551.779942 C36.2310271,536.632959 48.5106436,524.35376 63.6571396,524.35376 C78.8046369,524.35376 91.0842534,536.632959 91.0842534,551.779942" id="Fill-49" fill="#3B8186" sketch:type="MSShapeGroup"></path>
                <path d="M110.906076,581.967768 C110.906076,592.311413 102.520729,600.695474 92.1767317,600.695474 C81.8337358,600.695474 73.4493902,592.311413 73.4493902,581.967768 C73.4493902,571.625123 81.8337358,563.240061 92.1767317,563.240061 C102.520729,563.240061 110.906076,571.625123 110.906076,581.967768" id="Fill-50" fill="#3B8186" sketch:type="MSShapeGroup"></path>
                <path d="M127.407405,606.34693 C127.407405,615.10148 120.308799,622.198843 111.553953,622.198843 C102.798104,622.198843 95.7005,615.10148 95.7005,606.34693 C95.7005,597.591379 102.798104,590.494016 111.553953,590.494016 C120.308799,590.494016 127.407405,597.591379 127.407405,606.34693" id="Fill-51" fill="#3B8186" sketch:type="MSShapeGroup"></path>
                <path d="M30.313019,594.528338 L111.553953,594.528338 L111.553953,615.862483 L30.313019,615.862483 L30.313019,594.528338 Z" id="Fill-52" fill="#3B8186" sketch:type="MSShapeGroup"></path>
                <path d="M30.313019,570.216264 L87.8088211,570.216264 L87.8088211,599.891413 L30.313019,599.891413 L30.313019,570.216264 Z" id="Fill-53" fill="#3B8186" sketch:type="MSShapeGroup"></path>
                <path d="M127.458474,606.34693 C127.458474,615.10148 120.36087,622.198843 111.605022,622.198843 C102.849173,622.198843 95.7515691,615.10148 95.7515691,606.34693 C95.7515691,597.591379 102.849173,590.494016 111.605022,590.494016 C120.36087,590.494016 127.458474,597.591379 127.458474,606.34693" id="Fill-54" fill="#3B8186" sketch:type="MSShapeGroup"></path>
                <path d="M0.574777778,573.953194 L33.2199526,573.953194 L33.2199526,620.202209 L0.574777778,620.202209 L0.574777778,573.953194 Z" id="Fill-55" fill="#A9D163" sketch:type="MSShapeGroup"></path>
                <path d="M33.2199526,573.953194 C33.2199526,582.967086 25.9120637,590.274727 16.8968645,590.274727 C7.88266667,590.274727 0.574777778,582.967086 0.574777778,573.953194 C0.574777778,564.938301 7.88266667,557.631662 16.8968645,557.631662 C25.9120637,557.631662 33.2199526,564.938301 33.2199526,573.953194" id="Fill-56" fill="#A9D163" sketch:type="MSShapeGroup"></path>
                <path d="M47.1638211,591.010697 C47.1638211,596.240597 42.924084,600.48019 37.6950081,600.48019 C32.4639295,600.48019 28.2251938,596.240597 28.2251938,591.010697 C28.2251938,585.781799 32.4639295,581.541205 37.6950081,581.541205 C42.924084,581.541205 47.1638211,585.781799 47.1638211,591.010697" id="Fill-57" fill="#A9D163" sketch:type="MSShapeGroup"></path>
                <path d="M66.8214214,612.127556 C66.8214214,622.786618 58.1827317,631.427017 47.5233076,631.427017 C36.8648848,631.427017 28.2251938,622.786618 28.2251938,612.127556 C28.2251938,601.470497 36.8648848,592.830098 47.5233076,592.830098 C58.1827317,592.830098 66.8214214,601.470497 66.8214214,612.127556" id="Fill-58" fill="#A9D163" sketch:type="MSShapeGroup"></path>
                <path d="M1241.88349,579.041908 C1241.88349,560.046848 1226.48365,544.648534 1207.48795,544.648534 C1188.49224,544.648534 1173.09241,560.046848 1173.09241,579.041908 C1173.09241,598.037968 1188.49224,613.437284 1207.48795,613.437284 C1226.48365,613.437284 1241.88349,598.037968 1241.88349,579.041908" id="Fill-59" fill="#3B9F86" sketch:type="MSShapeGroup"></path>
                <path d="M1187.38875,598.38042 C1187.38875,585.273128 1176.76237,574.64711 1163.65363,574.64711 C1150.54389,574.64711 1139.91751,585.273128 1139.91751,598.38042 C1139.91751,611.489715 1150.54389,622.114732 1163.65363,622.114732 C1176.76237,622.114732 1187.38875,611.489715 1187.38875,598.38042" id="Fill-60" fill="#3B9F86" sketch:type="MSShapeGroup"></path>
                <path d="M1279.18096,540.257741 C1279.18096,522.737627 1264.97774,508.53489 1247.45603,508.53489 C1229.93432,508.53489 1215.7311,522.737627 1215.7311,540.257741 C1215.7311,557.777855 1229.93432,571.981593 1247.45603,571.981593 C1264.97774,571.981593 1279.18096,557.777855 1279.18096,540.257741" id="Fill-61" fill="#3B9F86" sketch:type="MSShapeGroup"></path>
                <path d="M1334.68006,540.880563 C1334.68006,523.359448 1320.47684,509.155709 1302.95413,509.155709 C1285.43242,509.155709 1271.2292,523.359448 1271.2292,540.880563 C1271.2292,558.401678 1285.43242,572.604415 1302.95413,572.604415 C1320.47684,572.604415 1334.68006,558.401678 1334.68006,540.880563" id="Fill-62" fill="#3B9F86" sketch:type="MSShapeGroup"></path>
                <path d="M1442.55604,509.156711 C1442.55604,475.684552 1415.42132,448.547752 1381.94502,448.547752 C1348.46872,448.547752 1321.333,475.684552 1321.333,509.156711 C1321.333,542.630872 1348.46872,569.76567 1381.94502,569.76567 C1415.42132,569.76567 1442.55604,542.630872 1442.55604,509.156711" id="Fill-63" fill="#3B9F86" sketch:type="MSShapeGroup"></path>
                <path d="M1233.36296,536.109268 L1442.55604,536.109268 L1442.55604,613.944954 L1233.36296,613.944954 L1233.36296,536.109268 Z" id="Fill-64" fill="#3B9F86" sketch:type="MSShapeGroup"></path>
                <path d="M1165.97978,583.740106 L1442.55604,583.740106 L1442.55604,629.980108 L1165.97978,629.980108 L1165.97978,583.740106 Z" id="Fill-65" fill="#3B9F86" sketch:type="MSShapeGroup"></path>
                <path d="M1351.02117,613.624531 C1351.02117,601.620695 1341.29001,591.889857 1329.28676,591.889857 C1317.28352,591.889857 1307.55235,601.620695 1307.55235,613.624531 C1307.55235,625.628367 1317.28352,635.358203 1329.28676,635.358203 C1341.29001,635.358203 1351.02117,625.628367 1351.02117,613.624531" id="Fill-66" fill="#3B8186" sketch:type="MSShapeGroup"></path>
                <path d="M1383.50613,509.156711 L1442.55704,509.156711 L1442.55704,582.132985 L1383.50613,582.132985 L1383.50613,509.156711 Z" id="Fill-67" fill="#3B9F86" sketch:type="MSShapeGroup"></path>
                <path d="M1384.13398,582.580576 C1384.13398,566.997017 1371.49989,554.364351 1355.9178,554.364351 C1340.33471,554.364351 1327.70162,566.997017 1327.70162,582.580576 C1327.70162,598.162132 1340.33471,610.793797 1355.9178,610.793797 C1371.49989,610.793797 1384.13398,598.162132 1384.13398,582.580576" id="Fill-68" fill="#3B8186" sketch:type="MSShapeGroup"></path>
                <path d="M1396.02007,530.483847 L1442.55604,530.483847 L1442.55604,626.873009 L1396.02007,626.873009 L1396.02007,530.483847 Z" id="Fill-69" fill="#3B8186" sketch:type="MSShapeGroup"></path>
                <path d="M1391.47391,533.803226 C1391.47391,519.697617 1402.90939,508.262531 1417.01548,508.262531 C1431.12157,508.262531 1442.55604,519.697617 1442.55604,533.803226 C1442.55604,547.908835 1431.12157,559.343921 1417.01548,559.343921 C1402.90939,559.343921 1391.47391,547.908835 1391.47391,533.803226" id="Fill-70" fill="#3B8186" sketch:type="MSShapeGroup"></path>
                <path d="M1402.64804,555.027226 C1402.64804,546.043374 1395.36618,538.761768 1386.38303,538.761768 C1377.39987,538.761768 1370.11701,546.043374 1370.11701,555.027226 C1370.11701,564.009075 1377.39987,571.291683 1386.38303,571.291683 C1395.36618,571.291683 1402.64804,564.009075 1402.64804,555.027226" id="Fill-71" fill="#3B8186" sketch:type="MSShapeGroup"></path>
                <path d="M1347.22304,566.513379 L1417.01448,566.513379 L1417.01448,613.944954 L1347.22304,613.944954 L1347.22304,566.513379 Z" id="Fill-72" fill="#3B8186" sketch:type="MSShapeGroup"></path>
                <path d="M1418.48246,596.754275 L1442.49395,596.754275 L1442.49395,618.591083 L1418.48246,618.591083 L1418.48246,596.754275 Z" id="Fill-73" fill="#A9D163" sketch:type="MSShapeGroup"></path>
                <path d="M1442.49395,596.418832 C1442.49395,603.048579 1437.11868,608.42367 1430.48771,608.42367 C1423.85774,608.42367 1418.48246,603.048579 1418.48246,596.418832 C1418.48246,589.788085 1423.85774,584.413995 1430.48771,584.413995 C1437.11868,584.413995 1442.49395,589.788085 1442.49395,596.418832" id="Fill-74" fill="#A9D163" sketch:type="MSShapeGroup"></path>
                <path d="M1381.30415,604.716779 C1381.30415,593.595107 1390.31935,584.579213 1401.4424,584.579213 C1412.56445,584.579213 1421.58065,593.595107 1421.58065,604.716779 C1421.58065,615.838452 1412.56445,624.854346 1401.4424,624.854346 C1390.31935,624.854346 1381.30415,615.838452 1381.30415,604.716779" id="Fill-75" fill="#A9D163" sketch:type="MSShapeGroup"></path>
                <path d="M1442.49395,437.747503 C1442.49395,425.555419 1432.61058,415.67238 1420.41908,415.67238 C1408.22658,415.67238 1398.34421,425.555419 1398.34421,437.747503 C1398.34421,449.938587 1408.22658,459.821625 1420.41908,459.821625 C1432.61058,459.821625 1442.49395,449.938587 1442.49395,437.747503" id="Fill-76" fill="#3B9F86" sketch:type="MSShapeGroup"></path>
                <path d="M1413.03109,437.747503 L1442.49395,437.747503 L1442.49395,506.572301 L1413.03109,506.572301 L1413.03109,437.747503 Z" id="Fill-77" fill="#3B9F86" sketch:type="MSShapeGroup"></path>
                <path d="M1280.62692,619.968901 C1280.62692,622.668462 1278.43896,624.854346 1275.74131,624.854346 C1273.04366,624.854346 1270.8567,622.668462 1270.8567,619.968901 L1270.8567,604.181073 C1270.8567,601.482513 1273.04366,599.296629 1275.74131,599.296629 C1278.43896,599.296629 1280.62692,601.482513 1280.62692,604.181073 L1280.62692,619.968901" id="Fill-78" fill="#3B8186" sketch:type="MSShapeGroup"></path>
                <path d="M1271.69483,615.225643 C1271.69483,617.923202 1269.50887,620.110087 1266.81122,620.110087 C1264.11257,620.110087 1261.92561,617.923202 1261.92561,615.225643 L1261.92561,599.436814 C1261.92561,596.739255 1264.11257,594.55237 1266.81122,594.55237 C1269.50887,594.55237 1271.69483,596.739255 1271.69483,599.436814 L1271.69483,615.225643" id="Fill-79" fill="#A9D163" sketch:type="MSShapeGroup"></path>
                <path d="M1268.10097,613.583477 C1270.00955,615.492996 1270.00955,618.585075 1268.10197,620.492592 C1266.19339,622.400108 1263.1012,622.400108 1261.19262,620.492592 L1250.02851,609.327863 C1248.12093,607.420346 1248.12093,604.327266 1250.02851,602.419749 C1251.93609,600.512232 1255.02928,600.512232 1256.93686,602.419749 L1268.10097,613.583477" id="Fill-80" fill="#A9D163" sketch:type="MSShapeGroup"></path>
                <path d="M1295.52207,558.985448 C1290.15381,553.616365 1291.4025,543.666238 1291.4025,543.666238 C1291.4025,543.666238 1301.35296,542.41759 1306.72123,547.785672 C1312.09049,553.153754 1310.8418,563.103881 1310.8418,563.103881 C1310.8418,563.103881 1300.89034,564.352528 1295.52207,558.985448" id="Fill-81" fill="#A9D163" sketch:type="MSShapeGroup"></path>
                <path d="M1264.03046,568.604137 C1256.43719,568.604137 1250.28386,560.683688 1250.28386,560.683688 C1250.28386,560.683688 1256.43719,552.76424 1264.03046,552.76424 C1271.62173,552.76424 1277.77606,560.683688 1277.77606,560.683688 C1277.77606,560.683688 1271.62173,568.604137 1264.03046,568.604137" id="Fill-82" fill="#3B8186" sketch:type="MSShapeGroup"></path>
                <path d="M158.017827,553.641398 C152.973,558.686053 143.622347,557.512505 143.622347,557.512505 C143.622347,557.512505 142.448759,548.16317 147.493585,543.118515 C152.537411,538.07386 161.889065,539.247408 161.889065,539.247408 C161.889065,539.247408 163.06065,548.597744 158.017827,553.641398" id="Fill-83" fill="#A9D163" sketch:type="MSShapeGroup"></path>
                <path d="M185.17858,566.941945 C178.043925,566.940943 172.2611,559.501128 172.2611,559.501128 C172.2611,559.501128 178.043925,552.05931 185.177579,552.060312 C192.311232,552.05931 198.093056,559.501128 198.093056,559.501128 C198.093056,559.501128 192.311232,566.940943 185.17858,566.941945" id="Fill-84" fill="#A9D163" sketch:type="MSShapeGroup"></path>
                <path d="M173.136285,593.461931 C168.091458,588.417276 169.265046,579.067942 169.265046,579.067942 C169.265046,579.067942 178.615699,577.894394 183.659524,582.938048 C188.70335,587.981701 187.529762,597.333038 187.529762,597.333038 C187.529762,597.333038 178.181111,598.505585 173.136285,593.461931" id="Fill-85" fill="#3B8186" sketch:type="MSShapeGroup"></path>
                <path d="M0.524710027,613.438285 L1442.55704,613.438285 L1442.55704,757.618497 L0.524710027,757.618497 L0.524710027,613.438285 Z" id="Fill-86" fill="#A9D163" sketch:type="MSShapeGroup"></path>
                <path d="M294.307251,441.631627 C294.307251,437.174748 290.694362,433.559979 286.236329,433.559979 C281.777295,433.559979 278.164407,437.174748 278.164407,441.631627 L278.164407,627.482814 C278.164407,631.940695 281.777295,635.554462 286.236329,635.554462 C290.694362,635.554462 294.307251,631.940695 294.307251,627.482814 L294.307251,441.631627" id="Fill-87" fill="#F0505E" sketch:type="MSShapeGroup"></path>
                <path d="M225.804554,440.379976 C225.804554,444.146946 228.858687,447.199974 232.624783,447.199974 L287.487022,447.199974 C291.253118,447.199974 294.307251,444.146946 294.307251,440.379976 C294.307251,436.614008 291.253118,433.559979 287.487022,433.559979 L232.624783,433.559979 C228.858687,433.559979 225.804554,436.614008 225.804554,440.379976" id="Fill-88" fill="#F0505E" sketch:type="MSShapeGroup"></path>
                <path d="M373.553485,628.775519 C373.553485,625.269894 370.71164,622.427144 367.204894,622.427144 L284.512997,622.427144 C281.007253,622.427144 278.164407,625.269894 278.164407,628.775519 C278.164407,632.281144 281.007253,635.122893 284.512997,635.122893 L367.204894,635.122893 C370.71164,635.122893 373.553485,632.281144 373.553485,628.775519" id="Fill-89" fill="#F0505E" sketch:type="MSShapeGroup"></path>
                <path d="M304.593169,622.697501 C304.593169,610.995062 295.106332,601.507546 283.403496,601.507546 C271.701661,601.507546 262.213822,610.995062 262.213822,622.697501 C262.213822,634.398938 271.701661,643.884452 283.403496,643.884452 C295.106332,643.884452 304.593169,634.398938 304.593169,622.697501" id="Fill-90" fill="#222532" sketch:type="MSShapeGroup"></path>
                <path d="M290.517122,622.696499 C290.517122,618.769318 287.331812,615.584116 283.403496,615.584116 C279.47518,615.584116 276.290871,618.769318 276.290871,622.696499 C276.290871,626.624682 279.47518,629.808882 283.403496,629.808882 C287.331812,629.808882 290.517122,626.624682 290.517122,622.696499" id="Fill-91" fill="#A6ADB9" sketch:type="MSShapeGroup"></path>
                <path d="M1461.20227,717.20418 C1461.20227,710.475303 1455.74789,705.021107 1449.01878,705.021107 L1031.41469,705.021107 C1024.68558,705.021107 1019.2312,710.475303 1019.2312,717.20418 C1019.2312,723.932055 1024.68558,729.387252 1031.41469,729.387252 L1449.01878,729.387252 C1455.74789,729.387252 1461.20227,723.932055 1461.20227,717.20418" id="Fill-92" fill="#5AB55C" sketch:type="MSShapeGroup"></path>
                <path d="M1039.73094,702.884288 L1285.06292,578.406069 C1285.06593,578.42209 1285.06993,578.438111 1285.07293,578.454132 C1287.52125,590.086478 1281.85458,601.876032 1271.25424,607.255128 L1061.8719,713.494285 C1057.5821,715.671157 1052.52325,715.727231 1048.18438,713.648489 C1043.84651,711.570748 1040.72128,707.591498 1039.73094,702.884288" id="Fill-93" fill="#DBDEE3" sketch:type="MSShapeGroup"></path>
                <path d="M340.245413,689.487614 C340.245413,682.371226 346.01422,676.601614 353.131851,676.601614 C360.249482,676.601614 366.01929,682.371226 366.01929,689.487614" id="Fill-94" fill="#FFFFFF" sketch:type="MSShapeGroup"></path>
                <path d="M1010.15292,650.641366 C1010.15292,643.524978 1015.92172,637.755366 1023.03936,637.755366 C1030.15699,637.755366 1035.9268,643.524978 1035.9268,650.641366" id="Fill-95" fill="#5AB55C" sketch:type="MSShapeGroup"></path>
                <path d="M1107.29837,636.423609 C1107.29837,629.307221 1113.06818,623.537609 1120.18481,623.537609 C1127.30244,623.537609 1133.07225,629.307221 1133.07225,636.423609" id="Fill-96" fill="#FFFFFF" sketch:type="MSShapeGroup"></path>
                <path d="M112.486214,657.084867 C112.486214,649.967477 118.25502,644.198867 125.372652,644.198867 C132.490283,644.198867 138.260091,649.967477 138.260091,657.084867" id="Fill-97" fill="#5AB55C" sketch:type="MSShapeGroup"></path>
                <path d="M421.154898,133.829556 L513.188436,133.829556 L513.188436,381.59242 L421.154898,381.59242 L421.154898,133.829556 Z" id="Fill-98" fill="#A6ADB9" sketch:type="MSShapeGroup"></path>
                <path d="M498.10803,185.797115 L568.484262,185.797115 L568.484262,381.59242 L498.10803,381.59242 L498.10803,185.797115 Z" id="Fill-99" fill="#A6ADB9" sketch:type="MSShapeGroup"></path>
                <path d="M672.640203,256.2801 L793.688003,256.2801 L793.688003,347.765794 L672.640203,347.765794 L672.640203,256.2801 Z" id="Fill-100" fill="#A6ADB9" sketch:type="MSShapeGroup"></path>
                <path d="M826.059808,280.207667 L947.107607,280.207667 L947.107607,347.766795 L826.059808,347.766795 L826.059808,280.207667 Z" id="Fill-101" fill="#A6ADB9" sketch:type="MSShapeGroup"></path>
                <path d="M886.584709,150.72084 L979.481415,150.72084 L979.481415,347.766795 L886.584709,347.766795 L886.584709,150.72084 Z" id="Fill-102" fill="#A6ADB9" sketch:type="MSShapeGroup"></path>
                <path d="M1035.7816,59.233144 L1128.6783,59.233144 L1128.6783,347.765794 L1035.7816,347.765794 L1035.7816,59.233144 Z" id="Fill-103" fill="#A6ADB9" sketch:type="MSShapeGroup"></path>
                <path d="M1349.66033,59.233144 L1442.55704,59.233144 L1442.55704,347.765794 L1349.66033,347.765794 L1349.66033,59.233144 Z" id="Fill-104" fill="#A6ADB9" sketch:type="MSShapeGroup"></path>
                <path d="M498.10803,288.65381 L619.154828,288.65381 L619.154828,347.765794 L498.10803,347.765794 L498.10803,288.65381 Z" id="Fill-105" fill="#A6ADB9" sketch:type="MSShapeGroup"></path>
                <path d="M332.01828,308.357804 L453.067081,308.357804 L453.067081,347.765794 L332.01828,347.765794 L332.01828,308.357804 Z" id="Fill-106" fill="#A6ADB9" sketch:type="MSShapeGroup"></path>
                <path d="M748.647054,201.388684 L840.135855,201.388684 L840.135855,347.766795 L748.647054,347.766795 L748.647054,201.388684 Z" id="Fill-107" fill="#A6ADB9" sketch:type="MSShapeGroup"></path>
                <path d="M554.474304,365.600322 L505.148557,408.556993 L505.148557,501.181189 L603.80005,501.181189 L603.80005,408.556993 L554.474304,365.600322" id="Fill-108" fill="#DBDEE3" sketch:type="MSShapeGroup"></path>
                <path d="M810.449684,415.847612 L761.122936,458.803281 L761.122936,551.427477 L859.77443,551.427477 L859.77443,458.803281 L810.449684,415.847612" id="Fill-109" fill="#DBDEE3" sketch:type="MSShapeGroup"></path>
                <path d="M902.839705,373.61089 L853.513958,416.567561 L853.513958,509.191757 L952.165451,509.191757 L952.165451,416.567561 L902.839705,373.61089" id="Fill-110" fill="#DBDEE3" sketch:type="MSShapeGroup"></path>
                <path d="M729.827588,401.529723 L680.501841,444.485392 L680.501841,537.109588 L779.153335,537.109588 L779.153335,444.485392 L729.827588,401.529723" id="Fill-111" fill="#DBDEE3" sketch:type="MSShapeGroup"></path>
                <path d="M645.713767,401.529723 L596.38802,444.485392 L596.38802,537.109588 L695.039514,537.109588 L695.039514,444.485392 L645.713767,401.529723" id="Fill-112" fill="#DBDEE3" sketch:type="MSShapeGroup"></path>
                <path d="M370.501355,332.438573 L457.619241,332.438573 L457.619241,483.638045 L370.501355,483.638045 L370.501355,332.438573 Z" id="Fill-113" fill="#DBDEE3" sketch:type="MSShapeGroup"></path>
                <path d="M935.92147,355.468956 L1023.03936,355.468956 L1023.03936,483.638045 L935.92147,483.638045 L935.92147,355.468956 Z" id="Fill-114" fill="#DBDEE3" sketch:type="MSShapeGroup"></path>
                <path d="M1011.94134,401.529723 L1077.45799,401.529723 L1077.45799,483.638045 L1011.94134,483.638045 L1011.94134,401.529723 Z" id="Fill-115" fill="#DBDEE3" sketch:type="MSShapeGroup"></path>
                <path d="M515.831012,361.20252 C511.380991,361.20252 507.399603,363.176124 504.687934,366.285226 C501.12311,359.180853 493.777169,354.301416 485.288683,354.301416 C478.618657,354.301416 472.654587,357.31339 468.675202,362.047635 C463.532243,351.674951 452.839774,344.538536 440.478046,344.538536 C423.102534,344.538536 409.018476,358.624119 409.018476,375.996037 L530.625031,375.996037 C530.625031,367.826259 524.001068,361.20252 515.831012,361.20252" id="Fill-116" fill="#FFFFFF" sketch:type="MSShapeGroup"></path>
                <path d="M1286.13237,111.932668 C1286.13237,121.887802 1278.06145,129.956446 1268.10798,129.956446 L1213.64228,129.956446 C1203.68781,129.956446 1195.61789,121.887802 1195.61789,111.932668 C1195.61789,101.978536 1203.68781,93.9088904 1213.64228,93.9088904 L1268.10798,93.9088904 C1278.06145,93.9088904 1286.13237,101.978536 1286.13237,111.932668" id="Fill-117" fill="#D7F4FF" sketch:type="MSShapeGroup"></path>
                <path d="M1246.07817,111.932668 C1246.07817,121.887802 1238.00725,129.956446 1228.05378,129.956446 L1213.64228,129.956446 C1203.68781,129.956446 1195.61789,121.887802 1195.61789,111.932668 C1195.61789,101.978536 1203.68781,93.9088904 1213.64228,93.9088904 L1228.05378,93.9088904 C1238.00725,93.9088904 1246.07817,101.978536 1246.07817,111.932668" id="Fill-118" fill="#FFFFFF" sketch:type="MSShapeGroup"></path>
                <path d="M1242.75467,141.620835 C1242.75467,150.339337 1235.68811,157.404658 1226.97031,157.404658 C1218.25251,157.404658 1211.18495,150.339337 1211.18495,141.620835 C1211.18495,132.904336 1218.25251,125.836011 1226.97031,125.836011 C1235.68811,125.836011 1242.75467,132.904336 1242.75467,141.620835" id="Fill-119" fill="#FFFFFF" sketch:type="MSShapeGroup"></path>
                <path d="M517.367091,375.996037 L530.626033,375.996037 L530.626033,399.527081 L517.367091,399.527081 L517.367091,375.996037 Z" id="Fill-120" fill="#DBDEE3" sketch:type="MSShapeGroup"></path>
                <path d="M1243.27137,185.006071 C1243.27137,176.154394 1250.44608,168.979929 1259.29706,168.979929 L1477.57643,168.979929 L1477.57643,681.262764 L1267.29187,681.262764 C1254.02492,681.262764 1243.27137,670.508576 1243.27137,657.243075 L1243.27137,185.006071" id="Fill-121" fill="#222532" sketch:type="MSShapeGroup"></path>
                <path d="M1457.34705,623.537609 L1243.27137,623.537609 L1243.27137,658.64893 C1243.27137,671.138407 1253.39507,681.262764 1265.88497,681.262764 L1457.34705,681.262764 L1457.34705,623.537609" id="Fill-122" fill="#4E515B" sketch:type="MSShapeGroup"></path>
                <path d="M1218.27955,681.262764 C1218.27955,675.346959 1223.07504,670.551633 1228.99105,670.551633 L1299.85093,670.551633 L1299.85093,681.262764 L1218.27955,681.262764" id="Fill-123" fill="#4E515B" sketch:type="MSShapeGroup"></path>
                <path d="M1252.28256,632.549498 C1252.28256,627.571931 1248.2481,623.537609 1243.27137,623.537609 C1238.29363,623.537609 1234.25917,627.571931 1234.25917,632.549498 L1234.25917,652.108301 C1234.25917,657.085868 1238.29363,661.12019 1243.27137,661.12019 C1248.2481,661.12019 1252.28256,657.085868 1252.28256,652.108301 L1252.28256,632.549498" id="Fill-124" fill="#EF5281" sketch:type="MSShapeGroup"></path>
            </g>
        </g>
    </g>
</svg>