<?xml version="1.0" encoding="UTF-8" standalone="no"?>
<svg width="1440px" height="752px" viewBox="0 0 1440 752" version="1.1" xmlns="http://www.w3.org/2000/svg" xmlns:xlink="http://www.w3.org/1999/xlink" xmlns:sketch="http://www.bohemiancoding.com/sketch/ns">
    <!-- Generator: Sketch 3.3.2 (12043) - http://www.bohemiancoding.com/sketch -->
    <title>travelling-piano</title>
    <desc>Created with Sketch.</desc>
    <defs></defs>
    <g id="Page-1" stroke="none" stroke-width="1" fill="none" fill-rule="evenodd" sketch:type="MSPage">
        <g id="travelling-piano" sketch:type="MSArtboardGroup">
            <path d="M899.638079,724.675675 C899.638079,717.946798 894.183698,712.492602 887.454592,712.492602 L547.297298,712.492602 C540.568192,712.492602 535.113812,717.946798 535.113812,724.675675 C535.113812,731.403551 540.568192,736.858748 547.297298,736.858748 L887.454592,736.858748 C894.183698,736.858748 899.638079,731.403551 899.638079,724.675675" id="Fill-125" fill="#5AB55C" sketch:type="MSShapeGroup"></path>
            <path d="M966.867051,670.773564 L966.867051,670.773564 C966.86605,664.044687 961.411669,658.591493 954.683565,658.591493 L484.398184,658.591493 C481.873768,658.591493 479.530598,659.357503 477.585966,660.672238 C474.34458,662.861125 472.214698,666.569017 472.214698,670.773564 C472.214698,670.773564 472.214698,670.773564 472.214698,670.774565 C472.214698,677.502441 477.67008,682.956637 484.398184,682.956637 L954.683565,682.956637 C957.20698,682.956637 959.551152,682.189625 961.495783,680.875892 C964.736168,678.686003 966.867051,674.979112 966.867051,670.774565 L966.867051,670.773564" id="Fill-126" fill="#5AB55C" sketch:type="MSShapeGroup"></path>
            <path d="M933.565989,494.01237 C933.565989,485.622301 926.763785,478.821329 918.373431,478.821329 L518.224958,478.821329 C509.833603,478.821329 503.0324,485.622301 503.0324,494.01237 L503.0324,554.492159 L933.565989,554.492159 L933.565989,494.01237" id="Fill-127" fill="#222532" sketch:type="MSShapeGroup"></path>
            <path d="M536.359497,490.952333 L572.741729,490.952333 L572.741729,534.560864 L536.359497,534.560864 L536.359497,490.952333 Z" id="Fill-128" fill="#FFFFFF" sketch:type="MSShapeGroup"></path>
            <path d="M539.947352,494.639197 L569.153874,494.639197 L569.153874,497.492962 L539.947352,497.492962 L539.947352,494.639197 Z" id="Fill-129" fill="#323232" sketch:type="MSShapeGroup"></path>
            <path d="M539.947352,500.301667 L569.153874,500.301667 L569.153874,503.154431 L539.947352,503.154431 L539.947352,500.301667 Z" id="Fill-130" fill="#323232" sketch:type="MSShapeGroup"></path>
            <path d="M539.947352,505.963136 L569.153874,505.963136 L569.153874,508.8159 L539.947352,508.8159 L539.947352,505.963136 Z" id="Fill-131" fill="#323232" sketch:type="MSShapeGroup"></path>
            <path d="M539.947352,511.623604 L569.153874,511.623604 L569.153874,514.477369 L539.947352,514.477369 L539.947352,511.623604 Z" id="Fill-132" fill="#323232" sketch:type="MSShapeGroup"></path>
            <path d="M539.947352,517.286074 L569.153874,517.286074 L569.153874,520.139839 L539.947352,520.139839 L539.947352,517.286074 Z" id="Fill-133" fill="#323232" sketch:type="MSShapeGroup"></path>
            <path d="M539.947352,522.947543 L569.153874,522.947543 L569.153874,525.800306 L539.947352,525.800306 L539.947352,522.947543 Z" id="Fill-134" fill="#323232" sketch:type="MSShapeGroup"></path>
            <path d="M539.947352,528.609012 L569.153874,528.609012 L569.153874,531.461775 L539.947352,531.461775 L539.947352,528.609012 Z" id="Fill-135" fill="#323232" sketch:type="MSShapeGroup"></path>
            <path d="M585.923566,496.90819 L622.305798,496.90819 L622.305798,540.516721 L585.923566,540.516721 L585.923566,496.90819 Z" id="Fill-136" fill="#FFFFFF" sketch:type="MSShapeGroup"></path>
            <path d="M589.511421,500.596055 L618.717943,500.596055 L618.717943,503.44982 L589.511421,503.44982 L589.511421,500.596055 Z" id="Fill-137" fill="#323232" sketch:type="MSShapeGroup"></path>
            <path d="M589.511421,506.257524 L618.717943,506.257524 L618.717943,509.110288 L589.511421,509.110288 L589.511421,506.257524 Z" id="Fill-138" fill="#323232" sketch:type="MSShapeGroup"></path>
            <path d="M589.511421,511.918993 L618.717943,511.918993 L618.717943,514.771757 L589.511421,514.771757 L589.511421,511.918993 Z" id="Fill-139" fill="#323232" sketch:type="MSShapeGroup"></path>
            <path d="M589.511421,517.580462 L618.717943,517.580462 L618.717943,520.434227 L589.511421,520.434227 L589.511421,517.580462 Z" id="Fill-140" fill="#323232" sketch:type="MSShapeGroup"></path>
            <path d="M589.511421,523.241931 L618.717943,523.241931 L618.717943,526.095696 L589.511421,526.095696 L589.511421,523.241931 Z" id="Fill-141" fill="#323232" sketch:type="MSShapeGroup"></path>
            <path d="M589.511421,528.9034 L618.717943,528.9034 L618.717943,531.756164 L589.511421,531.756164 L589.511421,528.9034 Z" id="Fill-142" fill="#323232" sketch:type="MSShapeGroup"></path>
            <path d="M589.511421,534.564869 L618.717943,534.564869 L618.717943,537.417633 L589.511421,537.417633 L589.511421,534.564869 Z" id="Fill-143" fill="#323232" sketch:type="MSShapeGroup"></path>
            <path d="M503.0324,582.937686 L933.565989,582.937686 L933.565989,670.368029 L503.0324,670.368029 L503.0324,582.937686 Z" id="Fill-144" fill="#4E515B" sketch:type="MSShapeGroup"></path>
            <path d="M503.0324,566.885509 L933.565989,566.885509 L933.565989,588.521052 L503.0324,588.521052 L503.0324,566.885509 Z" id="Fill-145" fill="#222532" sketch:type="MSShapeGroup"></path>
            <path d="M488.431642,555.338275 L511.858343,555.338275 L511.858343,670.36903 L488.431642,670.36903 L488.431642,555.338275 Z" id="Fill-146" fill="#222532" sketch:type="MSShapeGroup"></path>
            <path d="M924.740046,555.338275 L948.164744,555.338275 L948.164744,670.36903 L924.740046,670.36903 L924.740046,555.338275 Z" id="Fill-147" fill="#222532" sketch:type="MSShapeGroup"></path>
            <path d="M954.106785,538.424962 C954.106785,536.290145 952.376443,534.560864 950.241554,534.560864 L486.355833,534.560864 C484.221946,534.560864 482.491604,536.290145 482.491604,538.424962 L482.491604,563.02041 C482.491604,565.155226 484.221946,566.885509 486.355833,566.885509 L949.849023,566.885509 C952.200205,566.885509 954.106785,564.978993 954.106785,562.627892 L954.106785,538.424962" id="Fill-148" fill="#4E515B" sketch:type="MSShapeGroup"></path>
            <path d="M915.565631,556.871297 L519.520711,556.871297 L519.520711,552.443456 C519.520711,550.308639 521.250051,548.579358 523.38494,548.579358 L911.701402,548.579358 C913.836291,548.579358 915.565631,550.308639 915.565631,552.443456 L915.565631,556.871297" id="Fill-149" fill="#000000" sketch:type="MSShapeGroup"></path>
            <path d="M930.075266,560.793472 C930.075266,558.628616 928.344924,556.872299 926.211037,556.872299 L508.874305,556.872299 C506.740417,556.872299 505.010076,558.628616 505.010076,560.793472 L505.010076,566.885509 L930.075266,566.885509 L930.075266,560.793472" id="Fill-150" fill="#FFFFFF" sketch:type="MSShapeGroup"></path>
            <path d="M551.273679,642.198867 L885.325711,642.198867 L885.325711,677.668661 L551.273679,677.668661 L551.273679,642.198867 Z" id="Fill-151" fill="#71747C" sketch:type="MSShapeGroup"></path>
            <path d="M551.273679,650.633995 L571.971687,650.633995 L571.971687,724.340232 L551.273679,724.340232 L551.273679,650.633995 Z" id="Fill-152" fill="#71747C" sketch:type="MSShapeGroup"></path>
            <path d="M864.626702,650.633995 L885.32471,650.633995 L885.32471,724.340232 L864.626702,724.340232 L864.626702,650.633995 Z" id="Fill-153" fill="#71747C" sketch:type="MSShapeGroup"></path>
            <path d="M892.834873,631.565839 C892.834873,629.431022 891.104531,627.70074 888.970644,627.70074 L547.627745,627.70074 C545.492856,627.70074 543.763516,629.431022 543.763516,631.565839 L543.763516,652.831894 C543.763516,654.966711 545.492856,656.695992 547.627745,656.695992 L888.970644,656.695992 C891.104531,656.695992 892.834873,654.966711 892.834873,652.831894 L892.834873,631.565839" id="Fill-154" fill="#222532" sketch:type="MSShapeGroup"></path>
            <path d="M671.411247,523.611419 C686.932249,508.55055 699.426156,500.67516 721.823463,500.67516 C744.21977,500.67516 762.375337,510.944708 762.375337,523.611419 L671.411247,523.611419" id="Fill-155" fill="#FFFFFF" sketch:type="MSShapeGroup"></path>
            <path d="M838.356153,514.057815 C838.356153,508.780853 834.078364,504.50321 828.802225,504.50321 C823.525084,504.50321 819.248297,508.780853 819.248297,514.057815 C819.248297,519.333775 823.525084,523.611419 828.802225,523.611419 C834.078364,523.611419 838.356153,519.333775 838.356153,514.057815" id="Fill-156" fill="#FFFFFF" sketch:type="MSShapeGroup"></path>
            <path d="M808.334528,516.038428 C808.334528,511.85591 804.94394,508.464436 800.76128,508.464436 C796.577619,508.464436 793.187031,511.85591 793.187031,516.038428 C793.187031,520.220946 796.577619,523.611419 800.76128,523.611419 C804.94394,523.611419 808.334528,520.220946 808.334528,516.038428" id="Fill-157" fill="#FFFFFF" sketch:type="MSShapeGroup"></path>
            <path d="M877.209729,511.253115 C877.209729,504.428111 871.676241,498.894811 864.851005,498.894811 C858.024768,498.894811 852.492282,504.428111 852.492282,511.253115 C852.492282,518.07912 858.024768,523.611419 864.851005,523.611419 C871.676241,523.611419 877.209729,518.07912 877.209729,511.253115" id="Fill-158" fill="#FFFFFF" sketch:type="MSShapeGroup"></path>
            <path d="M883.572339,519.98163 C883.572339,517.975984 881.94714,516.35084 879.941425,516.35084 L865.048272,516.35084 C863.04356,516.35084 861.41836,517.975984 861.41836,519.98163 C861.41836,521.986275 863.04356,523.611419 865.048272,523.611419 L879.941425,523.611419 C881.94714,523.611419 883.572339,521.986275 883.572339,519.98163" id="Fill-159" fill="#FFFFFF" sketch:type="MSShapeGroup"></path>
            <path d="M843.727421,520.891831 C843.727421,519.390851 842.510775,518.173244 841.008743,518.173244 L829.407043,518.173244 C827.906012,518.173244 826.688364,519.390851 826.688364,520.891831 C826.688364,522.393812 827.906012,523.611419 829.407043,523.611419 L841.008743,523.611419 C842.510775,523.611419 843.727421,522.393812 843.727421,520.891831" id="Fill-160" fill="#FFFFFF" sketch:type="MSShapeGroup"></path>
            <path d="M812.268852,521.119131 C812.268852,519.743316 811.153343,518.626843 809.77648,518.626843 L800.747262,518.626843 C799.370398,518.626843 798.254889,519.743316 798.254889,521.119131 C798.254889,522.495947 799.370398,523.611419 800.747262,523.611419 L809.77648,523.611419 C811.153343,523.611419 812.268852,522.495947 812.268852,521.119131" id="Fill-161" fill="#FFFFFF" sketch:type="MSShapeGroup"></path>
            <path d="M674.76178,522.356764 C674.76178,520.506322 673.261751,519.006343 671.411247,519.006343 C669.560743,519.006343 668.060713,520.506322 668.060713,522.356764 C668.060713,524.207205 669.560743,525.707184 671.411247,525.707184 C673.261751,525.707184 674.76178,524.207205 674.76178,522.356764" id="Fill-162" fill="#FFFFFF" sketch:type="MSShapeGroup"></path>
            <path d="M616.479915,672.934415 C616.479915,666.802325 611.509188,661.831768 605.37689,661.831768 C599.244592,661.831768 594.274867,666.802325 594.274867,672.934415" id="Fill-163" fill="#FFFFFF" sketch:type="MSShapeGroup"></path>
            <path d="M653.994679,672.934415 C653.994679,666.802325 649.024954,661.831768 642.892656,661.831768 C636.760358,661.831768 631.790633,666.802325 631.790633,672.934415" id="Fill-164" fill="#FFFFFF" sketch:type="MSShapeGroup"></path>
            <path d="M691.510444,672.934415 C691.510444,666.802325 686.539718,661.831768 680.40742,661.831768 C674.275122,661.831768 669.305397,666.802325 669.305397,672.934415" id="Fill-165" fill="#FFFFFF" sketch:type="MSShapeGroup"></path>
            <path d="M729.02621,672.934415 C729.02621,666.802325 724.055484,661.831768 717.923186,661.831768 C711.790888,661.831768 706.821163,666.802325 706.821163,672.934415" id="Fill-166" fill="#FFFFFF" sketch:type="MSShapeGroup"></path>
            <path d="M766.540974,672.934415 C766.540974,666.802325 761.571249,661.831768 755.438951,661.831768 C749.306653,661.831768 744.335927,666.802325 744.335927,672.934415" id="Fill-167" fill="#FFFFFF" sketch:type="MSShapeGroup"></path>
            <path d="M804.05674,672.934415 C804.05674,666.802325 799.087015,661.831768 792.954717,661.831768 C786.822419,661.831768 781.851692,666.802325 781.851692,672.934415" id="Fill-168" fill="#FFFFFF" sketch:type="MSShapeGroup"></path>
            <path d="M841.572505,672.934415 C841.572505,666.802325 836.601779,661.831768 830.470482,661.831768 C824.338184,661.831768 819.367458,666.802325 819.367458,672.934415" id="Fill-169" fill="#FFFFFF" sketch:type="MSShapeGroup"></path>
        </g>
    </g>
</svg>