<?xml version="1.0" encoding="UTF-8" standalone="no"?>
<svg width="1440px" height="752px" viewBox="0 0 1440 752" version="1.1" xmlns="http://www.w3.org/2000/svg" xmlns:xlink="http://www.w3.org/1999/xlink">
    <!-- Generator: Sketch 39.1 (31720) - http://www.bohemiancoding.com/sketch -->
    <title>woodwards</title>
    <desc>Created with Sketch.</desc>
    <defs>
        <polygon id="path-1" points="0 757 1486.435 757 1486.435 0.425 0 0.425"></polygon>
    </defs>
    <g id="Page-1" stroke="none" stroke-width="1" fill="none" fill-rule="evenodd">
        <g id="woodwards">
            <g id="Page-1" transform="translate(-47.000000, -6.000000)">
                <polygon id="Fill-1" fill="#FFC7A4" points="46.353 757.575 1486.435 757.575 1486.435 1 46.353 1"></polygon>
                <polygon id="Fill-2" fill="#BF957B" points="560.72 345.777 800.32 345.777 800.32 122.022 560.72 122.022"></polygon>
                <polygon id="Fill-3" fill="#BF957B" points="560.72 613.585 800.32 613.585 800.32 389.83 560.72 389.83"></polygon>
                <polygon id="Fill-4" fill="#BF957B" points="280.36 345.777 519.96 345.777 519.96 122.022 280.36 122.022"></polygon>
                <polygon id="Fill-5" fill="#BF957B" points="280.36 613.585 519.96 613.585 519.96 389.83 280.36 389.83"></polygon>
                <polygon id="Fill-6" fill="#BF957B" points="0 345.777 239.6 345.777 239.6 122.022 0 122.022"></polygon>
                <polygon id="Fill-7" fill="#BF957B" points="0 613.585 239.6 613.585 239.6 389.83 0 389.83"></polygon>
                <polygon id="Fill-8" fill="#FFD2B6" points="1231.611 757.575 1486.434 757.575 1486.434 1 1231.611 1"></polygon>
                <polygon id="Fill-9" fill="#BF957B" points="1276.4692 239.3379 1276.4692 183.4829 1067.4852 183.4829 1067.4852 295.6379 1276.4692 295.6379"></polygon>
                <polygon id="Fill-10" fill="#FFE9DB" points="46.353 757.575 1486.435 757.575 1486.435 613.585 46.353 613.585"></polygon>
                <polygon id="Fill-11" fill="#B1DBF6" points="573.731 345.777 813.331 345.777 813.331 122.022 573.731 122.022"></polygon>
                <polygon id="Fill-12" fill="#B1DBF6" points="573.731 613.585 813.331 613.585 813.331 389.83 573.731 389.83"></polygon>
                <polygon id="Fill-13" fill="#B1DBF6" points="293.37 345.777 532.97 345.777 532.97 122.022 293.37 122.022"></polygon>
                <polygon id="Fill-14" fill="#B1DBF6" points="293.37 613.585 532.97 613.585 532.97 389.83 293.37 389.83"></polygon>
                <polygon id="Fill-15" fill="#B1DBF6" points="13.01 345.777 252.61 345.777 252.61 122.022 13.01 122.022"></polygon>
                <polygon id="Fill-16" fill="#B1DBF6" points="13.01 613.585 252.61 613.585 252.61 389.83 13.01 389.83"></polygon>
                <polygon id="Fill-17" fill="#E0F1FB" points="632.9579 613.5848 684.5229 613.5848 754.2529 389.8298 702.6869 389.8298"></polygon>
                <polygon id="Fill-18" fill="#E0F1FB" points="701.892 613.5848 722.383 613.5848 792.113 389.8298 771.621 389.8298"></polygon>
                <polygon id="Fill-19" fill="#E0F1FB" points="323.6613 613.5848 381.6623 613.5848 460.0943 389.8298 402.0933 389.8298"></polygon>
                <polygon id="Fill-20" fill="#E0F1FB" points="401.1988 613.5848 424.2478 613.5848 502.6798 389.8298 479.6308 389.8298"></polygon>
                <polygon id="Fill-21" fill="#E0F1FB" points="40.9964 613.5848 106.0574 613.5848 194.0364 389.8298 128.9754 389.8298"></polygon>
                <polygon id="Fill-22" fill="#E0F1FB" points="127.9719 613.5848 153.8259 613.5848 241.8049 389.8298 215.9509 389.8298"></polygon>
                <polygon id="Fill-23" fill="#E0F1FB" points="632.9579 345.777 684.5229 345.777 754.2529 122.022 702.6869 122.022"></polygon>
                <polygon id="Fill-24" fill="#E0F1FB" points="701.892 345.777 722.383 345.777 792.113 122.022 771.621 122.022"></polygon>
                <polygon id="Fill-25" fill="#E0F1FB" points="323.6613 345.777 381.6623 345.777 460.0943 122.022 402.0933 122.022"></polygon>
                <polygon id="Fill-26" fill="#E0F1FB" points="401.1988 345.777 424.2478 345.777 502.6798 122.022 479.6308 122.022"></polygon>
                <polygon id="Fill-27" fill="#E0F1FB" points="40.9964 345.777 106.0574 345.777 194.0364 122.022 128.9754 122.022"></polygon>
                <polygon id="Fill-28" fill="#E0F1FB" points="127.9719 345.777 153.8259 345.777 241.8049 122.022 215.9509 122.022"></polygon>
                <g id="Group-61" transform="translate(0.000000, 0.575000)">
                    <path d="M1091.6333,441.1288 L911.7313,441.1288 C911.7313,441.1288 938.2213,511.2308 1006.6073,520.7728 C1006.6073,520.7728 1055.5943,490.9068 1091.6333,441.1288 L1091.6333,441.1288 Z" id="Fill-29" fill="#D9D9D9"></path>
                    <path d="M1006.607,520.773 C945.111,500.343 916.955,451.296 916.955,451.296 L863.002,451.296 C876.083,514.875 941.828,550.786 967.538,553.72 C993.249,556.655 1006.607,520.773 1006.607,520.773" id="Fill-31" fill="#A5A5A5"></path>
                    <path d="M896.1361,666.3118 L896.1361,648.8638 C896.1361,625.4468 906.7301,603.2898 924.9491,588.5778 C970.6091,551.7058 1057.8691,479.6798 1091.6331,441.1288 L1091.6331,527.8388 L896.1361,666.3118 Z" id="Fill-33" fill="#BFBFBF"></path>
                    <path d="M990.3674,164.6302 C1008.0914,142.4822 1005.5624,100.8722 993.8844,59.0102 C896.3804,55.2932 757.5154,74.3462 727.4984,111.8202 C697.4814,149.2942 712.4554,220.1382 712.4554,220.1382 C712.4554,220.1382 855.4834,156.8072 990.3674,164.6302" id="Fill-35" fill="#BFBFBF"></path>
                    <path d="M814.6409,317.5521 C775.1339,296.4251 711.1039,243.6981 711.1039,211.4821 C711.1039,180.1811 782.5939,132.9961 983.6989,149.0801 C991.3639,149.6931 995.2059,158.6541 990.3669,164.6301 L951.6059,212.5001 L891.5239,212.4231 L896.1359,312.3321 L814.6409,317.5521 Z" id="Fill-37" fill="#8F8F8F"></path>
                    <path d="M878.4582,305.4005 C878.4582,305.4005 826.9022,256.9175 840.5252,231.0335 C854.1482,205.1495 891.5242,212.4235 891.5242,212.4235 C926.3512,250.1055 963.1342,304.1575 963.1342,304.1575 C963.1342,304.1575 890.5072,333.4485 878.4582,305.4005" id="Fill-39" fill="#A5A5A5"></path>
                    <path d="M1049.5614,238.7629 C1049.5614,238.7629 1011.4144,254.2029 978.7174,255.1119 C946.0194,256.0199 926.9464,228.7719 917.8634,212.4229 L891.5234,212.4229 C910.5974,269.6439 939.0274,294.1669 951.6064,304.1579 L1001.6824,304.1579 C1001.6824,304.1579 1039.5704,281.4509 1049.5614,238.7629" id="Fill-41" fill="#D9D9D9"></path>
                    <path d="M978.7169,304.1579 C978.7169,304.1579 1029.5799,277.8179 1049.5609,238.7629 L1049.5609,312.3319 L978.7169,304.1579 Z" id="Fill-43" fill="#A5A5A5"></path>
                    <mask id="mask-2" fill="white">
                        <use xlink:href="#path-1"></use>
                    </mask>
                    <g id="Clip-46"></g>
                    <polygon id="Fill-45" fill="#303030" mask="url(#mask-2)" points="1179.229 327.856 1276.47 327.856 1276.47 295.063 1179.229 295.063"></polygon>
                    <polygon id="Fill-47" fill="#B1DBF6" mask="url(#mask-2)" points="1165.819 295.063 1276.469 295.063 1276.469 238.763 1165.819 238.763"></polygon>
                    <polygon id="Fill-48" fill="#FFFFFF" mask="url(#mask-2)" points="1165.819 248.467 1276.469 248.467 1276.469 238.763 1165.819 238.763"></polygon>
                    <path d="M732.1395,454.564 C712.5965,424.957 712.6275,389.535 732.1395,338.672 C799.7895,305.974 887.8905,304.158 919.6795,304.158 L1032.0495,304.158 C1032.0495,304.158 1161.2775,258.745 1165.8185,238.763 C1196.6995,272.369 1187.6175,330.132 1165.8185,346.663 C1144.0205,363.195 1040.4785,416.782 1040.4785,416.782 C1040.4785,416.782 918.7715,441.129 732.1395,454.564" id="Fill-49" fill="#BFBFBF" mask="url(#mask-2)"></path>
                    <path d="M967.5385,553.7203 C900.7085,553.9143 772.4695,511.1923 729.5995,451.1603 C724.6805,444.2723 728.8685,434.6263 737.2675,433.5743 C759.2455,430.8203 801.2615,426.4783 851.5605,425.8653 C926.0375,424.9563 1040.4785,416.7823 1040.4785,416.7823 L973.2675,451.2963 L863.0015,451.2963 C863.0015,451.2963 882.7905,514.4553 967.5385,553.7203" id="Fill-50" fill="#8F8F8F" mask="url(#mask-2)"></path>
                    <path d="M1185.5807,441.1288 L1091.6337,441.1288 L1091.6337,541.2908 C1091.6337,541.2908 1162.5387,481.6198 1185.5807,441.1288" id="Fill-51" fill="#808080" mask="url(#mask-2)"></path>
                    <path d="M863.0016,673.4205 L1049.0226,673.4205 L1197.0726,556.2095 C1197.0726,556.2095 1211.5546,470.9645 1185.5806,441.1285 C1185.5806,441.1285 1016.0626,607.3555 863.0016,673.4205" id="Fill-52" fill="#FFFFFF" mask="url(#mask-2)"></path>
                    <polygon id="Fill-53" fill="#E0F1FB" mask="url(#mask-2)" points="1201.0454 295.0627 1226.8914 295.0627 1245.1354 248.4667 1219.2894 248.4667"></polygon>
                    <polygon id="Fill-54" fill="#E0F1FB" mask="url(#mask-2)" points="1239.2428 295.0627 1250.1418 295.0627 1268.3858 248.4667 1257.4868 248.4667"></polygon>
                    <polygon id="Fill-55" fill="#EFF9FD" mask="url(#mask-2)" points="610.864 613.01 668.746 613.01 668.746 520.773 610.864 520.773"></polygon>
                    <polygon id="Fill-56" fill="#EFF9FD" mask="url(#mask-2)" points="680.381 613.01 738.263 613.01 738.263 520.773 680.381 520.773"></polygon>
                    <path d="M154.2529,697.874 C154.2529,690.767 160.0149,685.005 167.1219,685.005 C174.2309,685.005 179.9919,690.767 179.9919,697.874 L154.2529,697.874 Z" id="Fill-57" fill="#FFFFFF" mask="url(#mask-2)"></path>
                    <path d="M522.728,672.7464 C522.728,665.6394 528.49,659.8774 535.597,659.8774 C542.706,659.8774 548.467,665.6394 548.467,672.7464 L522.728,672.7464 Z" id="Fill-58" fill="#FFC7A4" mask="url(#mask-2)"></path>
                    <path d="M1081.3975,719.9385 C1081.3975,712.8315 1087.1595,707.0695 1094.2665,707.0695 C1101.3745,707.0695 1107.1365,712.8315 1107.1365,719.9385 L1081.3975,719.9385 Z" id="Fill-59" fill="#BF957B" mask="url(#mask-2)"></path>
                    <path d="M1369.1093,651.8752 C1369.1093,644.7682 1374.8713,639.0062 1381.9783,639.0062 C1389.0873,639.0062 1394.8483,644.7682 1394.8483,651.8752 L1369.1093,651.8752 Z" id="Fill-60" fill="#FFFFFF" mask="url(#mask-2)"></path>
                </g>
            </g>
        </g>
    </g>
</svg>