<?xml version="1.0" encoding="UTF-8" standalone="no"?>
<svg width="1440px" height="752px" viewBox="0 0 1440 752" version="1.1" xmlns="http://www.w3.org/2000/svg" xmlns:xlink="http://www.w3.org/1999/xlink">
    <!-- Generator: Sketch 39.1 (31720) - http://www.bohemiancoding.com/sketch -->
    <title>woodwards-piano</title>
    <desc>Created with Sketch.</desc>
    <defs>
        <path d="M16.574,66.5872 L16.574,15.81 C16.574,7.43 9.782,0.638 1.403,0.638 L0.9353,0.638 L0.9353,66.5872 L16.574,66.5872 L16.574,66.5872 Z" id="path-1"></path>
    </defs>
    <g id="Page-1" stroke="none" stroke-width="1" fill="none" fill-rule="evenodd">
        <g id="woodwards-piano">
            <g id="Page-1" transform="translate(474.000000, 493.000000)">
                <g id="Group-5" transform="translate(0.000000, 0.717000)">
                    <path d="M460.5743,15.8096 C460.5743,7.4306 453.7813,0.6376 445.4033,0.6376 L45.7953,0.6376 C37.4153,0.6376 30.6233,7.4306 30.6233,15.8096 L30.6233,76.2086 L460.5743,76.2086 L460.5743,15.8096 Z" id="Fill-1" fill="#808080"></path>
                    <path d="M491.5713,191.9336 C491.5713,185.2136 486.1233,179.7666 479.4053,179.7666 L12.1673,179.7666 C5.4473,179.7666 0.0003,185.2136 0.0003,191.9336 C0.0003,198.6526 5.4473,204.0996 12.1673,204.0996 L479.4053,204.0996 C486.1233,204.0996 491.5713,198.6526 491.5713,191.9336" id="Fill-3" fill="#E5C5B3"></path>
                </g>
                <g id="Group-8" transform="translate(444.000000, 0.717000)">
                    <mask id="mask-2" fill="white">
                        <use xlink:href="#path-1"></use>
                    </mask>
                    <g id="Clip-7"></g>
                    <polygon id="Fill-6" fill="#F47739" mask="url(#mask-2)" points="101.2383 60.1172 94.7693 66.5872 0.9353 -27.2448 7.4053 -33.7168"></polygon>
                </g>
                <g id="Group-72" transform="translate(10.000000, 5.717000)">
                    <polygon id="Fill-9" fill="#303030" points="20.623 186.933 450.574 186.933 450.574 99.709 20.623 99.709"></polygon>
                    <polygon id="Fill-11" fill="#6F4B42" points="20.623 105.193 450.574 105.193 450.574 83.586 20.623 83.586"></polygon>
                    <polygon id="Fill-12" fill="#6F4B42" points="6.042 186.933 29.437 186.933 29.437 72.054 6.042 72.054"></polygon>
                    <polygon id="Fill-13" fill="#6F4B42" points="441.761 186.933 465.154 186.933 465.154 72.054 441.761 72.054"></polygon>
                    <path d="M417.6143,240.834 C417.6143,234.114 412.1673,228.667 405.4483,228.667 L65.7503,228.667 C59.0303,228.667 53.5833,234.114 53.5833,240.834 C53.5833,247.553 59.0303,253 65.7503,253 L405.4483,253 C412.1673,253 417.6143,247.553 417.6143,240.834" id="Fill-14" fill="#E5C5B3"></path>
                    <polygon id="Fill-15" fill="#6F4B42" points="68.798 194.223 402.398 194.223 402.398 158.8 68.798 158.8"></polygon>
                    <polygon id="Fill-16" fill="#6F4B42" points="68.799 240.834 89.469 240.834 89.469 167.225 68.799 167.225"></polygon>
                    <polygon id="Fill-17" fill="#6F4B42" points="381.728 240.834 402.398 240.834 402.398 167.225 381.728 167.225"></polygon>
                    <path d="M409.8985,148.1807 C409.8985,146.0487 408.1705,144.3217 406.0395,144.3217 L65.1575,144.3217 C63.0265,144.3217 61.2985,146.0487 61.2985,148.1807 L61.2985,169.4187 C61.2985,171.5507 63.0265,173.2787 65.1575,173.2787 L406.0395,173.2787 C408.1705,173.2787 409.8985,171.5507 409.8985,169.4187 L409.8985,148.1807 Z" id="Fill-18" fill="#99402E"></path>
                    <polygon id="Fill-19" fill="#A5361C" points="29.908 63.291 36.483 63.291 36.483 0.624 29.908 0.624"></polygon>
                    <polygon id="Fill-20" fill="#A5361C" points="35.908 63.291 42.483 63.291 42.483 0.624 35.908 0.624"></polygon>
                    <polygon id="Fill-21" fill="#A5361C" points="79.687 63.291 86.262 63.291 86.262 0.624 79.687 0.624"></polygon>
                    <polygon id="Fill-22" fill="#A5361C" points="136.041 63.291 142.616 63.291 142.616 0.624 136.041 0.624"></polygon>
                    <polygon id="Fill-23" fill="#A5361C" points="185.82 63.291 192.395 63.291 192.395 0.624 185.82 0.624"></polygon>
                    <polygon id="Fill-24" fill="#A5361C" points="235.599 63.291 242.174 63.291 242.174 0.624 235.599 0.624"></polygon>
                    <polygon id="Fill-25" fill="#A5361C" points="285.378 63.291 291.953 63.291 291.953 0.624 285.378 0.624"></polygon>
                    <polygon id="Fill-26" fill="#A5361C" points="335.157 63.291 341.732 63.291 341.732 0.624 335.157 0.624"></polygon>
                    <polygon id="Fill-27" fill="#A5361C" points="384.935 63.291 391.51 63.291 391.51 0.624 384.935 0.624"></polygon>
                    <polygon id="Fill-28" fill="#A5361C" points="434.714 63.291 441.289 63.291 441.289 0.624 434.714 0.624"></polygon>
                    <polygon id="Fill-29" fill="#A5361C" points="86.262 63.291 92.837 63.291 92.837 0.624 86.262 0.624"></polygon>
                    <polygon id="Fill-30" fill="#A5361C" points="129.466 63.291 136.041 63.291 136.041 0.624 129.466 0.624"></polygon>
                    <polygon id="Fill-31" fill="#A5361C" points="179.245 63.291 185.82 63.291 185.82 0.624 179.245 0.624"></polygon>
                    <polygon id="Fill-32" fill="#A5361C" points="229.024 63.291 235.599 63.291 235.599 0.624 229.024 0.624"></polygon>
                    <polygon id="Fill-33" fill="#A5361C" points="278.803 63.291 285.378 63.291 285.378 0.624 278.803 0.624"></polygon>
                    <polygon id="Fill-34" fill="#A5361C" points="328.581 63.291 335.156 63.291 335.156 0.624 328.581 0.624"></polygon>
                    <polygon id="Fill-35" fill="#A5361C" points="378.36 63.291 384.935 63.291 384.935 0.624 378.36 0.624"></polygon>
                    <polygon id="Fill-36" fill="#A5361C" points="428.139 63.291 434.714 63.291 434.714 0.624 428.139 0.624"></polygon>
                    <polygon id="Fill-37" fill="#A5361C" points="38.8538 62.4826 86.5058 5.1956 82.7658 1.0686 35.1138 58.3556"></polygon>
                    <polygon id="Fill-38" fill="#A5361C" points="90.0022 1.069 137.6542 58.356 133.9142 62.483 86.2622 5.196"></polygon>
                    <polygon id="Fill-39" fill="#A5361C" points="187.9466 1.069 235.5986 58.356 231.8586 62.483 184.2066 5.196"></polygon>
                    <polygon id="Fill-40" fill="#A5361C" points="287.6275 1.069 335.2795 58.356 331.5395 62.483 283.8875 5.196"></polygon>
                    <polygon id="Fill-41" fill="#A5361C" points="387.3084 1.069 434.9604 58.356 431.2204 62.483 383.5684 5.196"></polygon>
                    <polygon id="Fill-42" fill="#A5361C" points="139.7811 62.4826 187.4331 5.1956 183.6931 1.0686 136.0411 58.3556"></polygon>
                    <polygon id="Fill-43" fill="#A5361C" points="239.3389 62.4826 286.9909 5.1956 283.2509 1.0686 235.5989 58.3556"></polygon>
                    <polygon id="Fill-44" fill="#A5361C" points="338.8967 62.4826 386.5487 5.1956 382.8087 1.0686 335.1567 58.3556"></polygon>
                    <polygon id="Fill-45" fill="#FFFFFF" points="260.586 59.093 296.919 59.093 296.919 15.542 260.586 15.542"></polygon>
                    <polygon id="Fill-46" fill="#323232" points="264.169 22.075 293.336 22.075 293.336 19.225 264.169 19.225"></polygon>
                    <polygon id="Fill-47" fill="#323232" points="264.169 27.728 293.336 27.728 293.336 24.879 264.169 24.879"></polygon>
                    <polygon id="Fill-48" fill="#323232" points="264.169 33.382 293.336 33.382 293.336 30.533 264.169 30.533"></polygon>
                    <polygon id="Fill-49" fill="#323232" points="264.169 39.036 293.336 39.036 293.336 36.186 264.169 36.186"></polygon>
                    <polygon id="Fill-50" fill="#323232" points="264.169 44.691 293.336 44.691 293.336 41.841 264.169 41.841"></polygon>
                    <polygon id="Fill-51" fill="#323232" points="264.169 50.344 293.336 50.344 293.336 47.495 264.169 47.495"></polygon>
                    <polygon id="Fill-52" fill="#323232" points="264.169 55.998 293.336 55.998 293.336 53.149 264.169 53.149"></polygon>
                    <polygon id="Fill-53" fill="#FFFFFF" points="217.432 51.304 253.765 51.304 253.765 7.753 217.432 7.753"></polygon>
                    <polygon id="Fill-54" fill="#323232" points="221.015 14.286 250.182 14.286 250.182 11.436 221.015 11.436"></polygon>
                    <polygon id="Fill-55" fill="#323232" points="221.015 19.939 250.182 19.939 250.182 17.09 221.015 17.09"></polygon>
                    <polygon id="Fill-56" fill="#323232" points="221.015 25.593 250.182 25.593 250.182 22.744 221.015 22.744"></polygon>
                    <polygon id="Fill-57" fill="#323232" points="221.015 31.248 250.182 31.248 250.182 28.398 221.015 28.398"></polygon>
                    <polygon id="Fill-58" fill="#323232" points="221.015 36.902 250.182 36.902 250.182 34.052 221.015 34.052"></polygon>
                    <polygon id="Fill-59" fill="#323232" points="221.015 42.555 250.182 42.555 250.182 39.706 221.015 39.706"></polygon>
                    <polygon id="Fill-60" fill="#323232" points="221.015 48.209 250.182 48.209 250.182 45.36 221.015 45.36"></polygon>
                    <polygon id="Fill-61" fill="#FFFFFF" points="171.586 51.304 207.919 51.304 207.919 7.753 171.586 7.753"></polygon>
                    <polygon id="Fill-62" fill="#323232" points="175.169 14.286 204.336 14.286 204.336 11.436 175.169 11.436"></polygon>
                    <polygon id="Fill-63" fill="#323232" points="175.169 19.939 204.336 19.939 204.336 17.09 175.169 17.09"></polygon>
                    <polygon id="Fill-64" fill="#323232" points="175.169 25.593 204.336 25.593 204.336 22.744 175.169 22.744"></polygon>
                    <polygon id="Fill-65" fill="#323232" points="175.169 31.248 204.336 31.248 204.336 28.398 175.169 28.398"></polygon>
                    <polygon id="Fill-66" fill="#323232" points="175.169 36.902 204.336 36.902 204.336 34.052 175.169 34.052"></polygon>
                    <polygon id="Fill-67" fill="#323232" points="175.169 42.555 204.336 42.555 204.336 39.706 175.169 39.706"></polygon>
                    <polygon id="Fill-68" fill="#323232" points="175.169 48.209 204.336 48.209 204.336 45.36 175.169 45.36"></polygon>
                    <path d="M471.087,55.1631 C471.087,53.0311 469.359,51.3041 467.228,51.3041 L3.97,51.3041 C1.838,51.3041 0.11,53.0311 0.11,55.1631 L0.11,79.7261 C0.11,81.8581 1.838,83.5861 3.97,83.5861 L466.836,83.5861 C469.184,83.5861 471.087,81.6831 471.087,79.3341 L471.087,55.1631 Z" id="Fill-69" fill="#6F4B42"></path>
                    <path d="M432.5987,73.585 L37.0887,73.585 L37.0887,69.163 C37.0887,67.031 38.8167,65.304 40.9487,65.304 L428.7397,65.304 C430.8707,65.304 432.5987,67.031 432.5987,69.163 L432.5987,73.585 Z" id="Fill-70" fill="#000000"></path>
                    <path d="M447.0889,77.502 C447.0889,75.34 445.3609,73.586 443.2299,73.586 L26.4569,73.586 C24.3259,73.586 22.5989,75.34 22.5989,77.502 L22.5989,83.586 L447.0889,83.586 L447.0889,77.502 Z" id="Fill-71" fill="#FFFFFF"></path>
                </g>
            </g>
        </g>
    </g>
</svg>