<?xml version="1.0" encoding="UTF-8" standalone="no"?>
<svg width="27px" height="20px" viewBox="0 0 27 20" version="1.1" xmlns="http://www.w3.org/2000/svg" xmlns:xlink="http://www.w3.org/1999/xlink" xmlns:sketch="http://www.bohemiancoding.com/sketch/ns">
    <!-- Generator: Sketch 3.3.2 (12043) - http://www.bohemiancoding.com/sketch -->
    <title>Group</title>
    <desc>Created with Sketch.</desc>
    <defs></defs>
    <g id="Architecture+Design" stroke="none" stroke-width="1" fill="none" fill-rule="evenodd" sketch:type="MSPage">
        <g id="Desktop-HD" sketch:type="MSArtboardGroup" transform="translate(-864.000000, -885.000000)" fill="#000106">
            <g id="Group" sketch:type="MSLayerGroup" transform="translate(864.000000, 885.000000)">
                <path d="M2,18 L25,18 L25,2 L2,2 L2,18 Z M27,1 L27,19 C27,19.55 26.55,20 26,20 L1,20 C0.45,20 0,19.55 0,19 L0,1 C0,0.45 0.45,0 1,0 L26,0 C26.55,0 27,0.45 27,1 L27,1 Z" id="Fill-504" sketch:type="MSShapeGroup"></path>
                <path d="M6,15.5 C6,15.78 6.225,16 6.5,16 L20.5,16 C20.775,16 21,15.78 21,15.5 L21,13.5 C21,13.23 20.775,13 20.5,13 L6.5,13 C6.225,13 6,13.23 6,13.5 L6,15.5" id="Fill-505" sketch:type="MSShapeGroup"></path>
                <path d="M9,9.5 C9,9.23 8.775,9 8.5,9 L6.5,9 C6.225,9 6,9.23 6,9.5 L6,11.5 C6,11.78 6.225,12 6.5,12 L8.5,12 C8.775,12 9,11.78 9,11.5 L9,9.5" id="Fill-506" sketch:type="MSShapeGroup"></path>
                <path d="M17,9.5 C17,9.23 16.775,9 16.5,9 L14.5,9 C14.225,9 14,9.23 14,9.5 L14,11.5 C14,11.78 14.225,12 14.5,12 L16.5,12 C16.775,12 17,11.78 17,11.5 L17,9.5" id="Fill-507" sketch:type="MSShapeGroup"></path>
                <path d="M13,9.5 C13,9.23 12.775,9 12.5,9 L10.5,9 C10.225,9 10,9.23 10,9.5 L10,11.5 C10,11.78 10.225,12 10.5,12 L12.5,12 C12.775,12 13,11.78 13,11.5 L13,9.5" id="Fill-508" sketch:type="MSShapeGroup"></path>
                <path d="M21,9.5 C21,9.23 20.775,9 20.5,9 L18.5,9 C18.225,9 18,9.23 18,9.5 L18,11.5 C18,11.78 18.225,12 18.5,12 L20.5,12 C20.775,12 21,11.78 21,11.5 L21,9.5" id="Fill-509" sketch:type="MSShapeGroup"></path>
                <path d="M23,5.5 C23,5.23 22.775,5 22.5,5 L20.5,5 C20.225,5 20,5.23 20,5.5 L20,7.5 C20,7.78 20.225,8 20.5,8 L22.5,8 C22.775,8 23,7.78 23,7.5 L23,5.5" id="Fill-510" sketch:type="MSShapeGroup"></path>
                <path d="M7,5.5 C7,5.23 6.775,5 6.5,5 L4.5,5 C4.225,5 4,5.23 4,5.5 L4,7.5 C4,7.78 4.225,8 4.5,8 L6.5,8 C6.775,8 7,7.78 7,7.5 L7,5.5" id="Fill-511" sketch:type="MSShapeGroup"></path>
                <path d="M15,5.5 C15,5.23 14.775,5 14.5,5 L12.5,5 C12.225,5 12,5.23 12,5.5 L12,7.5 C12,7.78 12.225,8 12.5,8 L14.5,8 C14.775,8 15,7.78 15,7.5 L15,5.5" id="Fill-512" sketch:type="MSShapeGroup"></path>
                <path d="M11,5.5 C11,5.23 10.775,5 10.5,5 L8.5,5 C8.225,5 8,5.23 8,5.5 L8,7.5 C8,7.78 8.225,8 8.5,8 L10.5,8 C10.775,8 11,7.78 11,7.5 L11,5.5" id="Fill-513" sketch:type="MSShapeGroup"></path>
                <path d="M19,5.5 C19,5.23 18.775,5 18.5,5 L16.5,5 C16.225,5 16,5.23 16,5.5 L16,7.5 C16,7.78 16.225,8 16.5,8 L18.5,8 C18.775,8 19,7.78 19,7.5 L19,5.5" id="Fill-514" sketch:type="MSShapeGroup"></path>
                <path d="M8.5,4 L6.5,4 C6.225,4 6,3.78 6,3.5 C6,3.23 6.225,3 6.5,3 L8.5,3 C8.775,3 9,3.24 9,3.5 C9,3.76 8.775,4 8.5,4" id="Fill-515" sketch:type="MSShapeGroup"></path>
                <path d="M12.5,4 L10.5,4 C10.225,4 10,3.78 10,3.5 C10,3.23 10.225,3 10.5,3 L12.5,3 C12.775,3 13,3.24 13,3.5 C13,3.76 12.775,4 12.5,4" id="Fill-516" sketch:type="MSShapeGroup"></path>
                <path d="M16.5,4 L14.5,4 C14.225,4 14,3.78 14,3.5 C14,3.23 14.225,3 14.5,3 L16.5,3 C16.775,3 17,3.24 17,3.5 C17,3.76 16.775,4 16.5,4" id="Fill-517" sketch:type="MSShapeGroup"></path>
                <path d="M20.5,4 L18.5,4 C18.225,4 18,3.78 18,3.5 C18,3.23 18.225,3 18.5,3 L20.5,3 C20.775,3 21,3.24 21,3.5 C21,3.76 20.775,4 20.5,4" id="Fill-518" sketch:type="MSShapeGroup"></path>
            </g>
        </g>
    </g>
</svg>