<?xml version="1.0" encoding="UTF-8" standalone="no"?>
<svg width="892px" height="778px" viewBox="0 0 892 778" version="1.1" xmlns="http://www.w3.org/2000/svg" xmlns:xlink="http://www.w3.org/1999/xlink" xmlns:sketch="http://www.bohemiancoding.com/sketch/ns">
    <!-- Generator: Sketch 3.3.2 (12043) - http://www.bohemiancoding.com/sketch -->
    <title>notes-bg</title>
    <desc>Created with Sketch.</desc>
    <defs></defs>
    <g id="Page-1" stroke="none" stroke-width="1" fill="none" fill-rule="evenodd" sketch:type="MSPage">
        <g id="notes-bg" sketch:type="MSArtboardGroup" fill="#EDEDED">
            <path d="M53.113,193.985527 C53.113,202.601527 46.129,209.583527 37.513,209.583527 C28.899,209.583527 21.915,202.601527 21.915,193.985527 C21.915,185.369527 28.899,178.385527 37.513,178.385527 C46.129,178.385527 53.113,185.369527 53.113,193.985527" id="Fill-1" sketch:type="MSShapeGroup"></path>
            <path d="M96.167,182.961527 C96.167,191.577527 89.185,198.561527 80.569,198.561527 C71.953,198.561527 64.971,191.577527 64.971,182.961527 C64.971,174.347527 71.953,167.363527 80.569,167.363527 C89.185,167.363527 96.167,174.347527 96.167,182.961527" id="Fill-2" sketch:type="MSShapeGroup"></path>
            <path d="M41.619,130.475527 L41.619,193.985527 L53.111,193.985527 L53.111,156.113527 L84.673,149.737527 L84.673,182.963527 L96.169,182.963527 L96.169,133.055527 C96.169,129.717527 94.671,126.555527 92.087,124.443527 C89.503,122.327527 86.107,121.485527 82.835,122.147527 L41.619,130.475527" id="Fill-3" sketch:type="MSShapeGroup"></path>
            <path d="M848.37,469.364 C848.37,477.98 841.384,484.962 832.77,484.962 C824.154,484.962 817.172,477.98 817.172,469.364 C817.172,460.748 824.154,453.766 832.77,453.766 C841.384,453.766 848.37,460.748 848.37,469.364" id="Fill-4" sketch:type="MSShapeGroup"></path>
            <path d="M891.424,458.342 C891.424,466.956 884.442,473.94 875.824,473.94 C867.208,473.94 860.226,466.956 860.226,458.342 C860.226,449.726 867.208,442.744 875.824,442.744 C884.442,442.744 891.424,449.726 891.424,458.342" id="Fill-5" sketch:type="MSShapeGroup"></path>
            <path d="M836.872,405.854 L836.872,469.364 L848.366,469.364 L848.366,431.494 L879.93,425.116 L879.93,458.342 L891.426,458.342 L891.426,408.436 C891.426,405.098 889.928,401.936 887.344,399.822 C884.76,397.708 881.364,396.866 878.092,397.526 L836.872,405.854" id="Fill-6" sketch:type="MSShapeGroup"></path>
            <path d="M111.765,577.896 C111.765,586.512 104.783,593.494 96.167,593.494 C87.553,593.494 80.569,586.512 80.569,577.896 C80.569,569.28 87.553,562.296 96.167,562.296 C104.783,562.296 111.765,569.28 111.765,577.896" id="Fill-7" sketch:type="MSShapeGroup"></path>
            <path d="M154.823,523.34 L100.271,514.386 L100.271,577.896 L111.765,577.896 L111.765,544.788 L126.395,547.3 C133.459,548.514 140.699,546.548 146.179,541.928 C151.659,537.31 154.823,530.508 154.823,523.34" id="Fill-8" sketch:type="MSShapeGroup"></path>
            <path d="M826.842,197.51 C826.842,206.126 819.86,213.108 811.242,213.108 C802.63,213.108 795.644,206.126 795.644,197.51 C795.644,188.894 802.63,181.912 811.242,181.912 C819.86,181.912 826.842,188.894 826.842,197.51" id="Fill-9" sketch:type="MSShapeGroup"></path>
            <path d="M869.898,142.956 L815.348,134 L815.348,197.51 L826.84,197.51 L826.84,164.404 L841.47,166.916 C848.536,168.13 855.774,166.164 861.254,161.544 C866.734,156.924 869.898,150.124 869.898,142.956" id="Fill-10" sketch:type="MSShapeGroup"></path>
            <path d="M312.876,761.114 C312.876,769.728 305.896,776.71 297.28,776.71 C288.666,776.71 281.682,769.728 281.682,761.114 C281.682,752.498 288.666,745.514 297.28,745.514 C305.896,745.514 312.876,752.498 312.876,761.114" id="Fill-11" sketch:type="MSShapeGroup"></path>
            <path d="M301.384,697.602 L301.384,761.114 L312.876,761.114 L312.876,699.49 L301.384,697.602" id="Fill-12" sketch:type="MSShapeGroup"></path>
            <g id="Fill-13-+-Fill-14" sketch:type="MSLayerGroup" transform="translate(611.000000, 50.000000)">
                <path d="M31.196,58.6607418 C31.196,66.5071885 24.214,72.867055 15.598,72.867055 C6.984,72.867055 0,66.5071885 0,58.6607418 C0,50.8124734 6.984,44.4526069 15.598,44.4526069 C24.214,44.4526069 31.196,50.8124734 31.196,58.6607418" id="Fill-13" sketch:type="MSShapeGroup"></path>
                <path d="M19.704,0.808 L19.704,58.6607418 L31.196,58.6607418 L31.196,2.52776912 L19.704,0.808" id="Fill-14" sketch:type="MSShapeGroup"></path>
            </g>
            <g id="Fill-7-Copy-+-Fill-8-Copy" sketch:type="MSLayerGroup" transform="translate(535.518000, 473.940000)">
                <path d="M31.878,64.2129935 C31.878,72.8289935 24.896,79.8109935 16.28,79.8109935 C7.666,79.8109935 0.682,72.8289935 0.682,64.2129935 C0.682,55.5969935 7.666,48.6129935 16.28,48.6129935 C24.896,48.6129935 31.878,55.5969935 31.878,64.2129935" id="Fill-7-Copy" sketch:type="MSShapeGroup"></path>
                <path d="M74.936,9.65699352 L20.384,0.702993519 L20.384,64.2129935 L31.878,64.2129935 L31.878,31.1049935 L46.508,33.6169935 C53.572,34.8309935 60.812,32.8649935 66.292,28.2449935 C71.772,23.6269935 74.936,16.8249935 74.936,9.65699352" id="Fill-8-Copy" sketch:type="MSShapeGroup"></path>
            </g>
            <g id="Fill-11-Copy-+-Fill-12-Copy" sketch:type="MSLayerGroup" transform="translate(394.000000, 195.000000)">
                <path d="M31.712,63.7389935 C31.712,72.3529935 24.732,79.3349935 16.116,79.3349935 C7.502,79.3349935 0.518,72.3529935 0.518,63.7389935 C0.518,55.1229935 7.502,48.1389935 16.116,48.1389935 C24.732,48.1389935 31.712,55.1229935 31.712,63.7389935" id="Fill-11-Copy" sketch:type="MSShapeGroup"></path>
                <path d="M20.22,0.226993519 L20.22,63.7389935 L31.712,63.7389935 L31.712,2.11499352 L20.22,0.226993519" id="Fill-12-Copy" sketch:type="MSShapeGroup"></path>
            </g>
        </g>
    </g>
</svg>