<?xml version="1.0" encoding="UTF-8" standalone="no"?>
<svg width="1047px" height="1693px" viewBox="0 0 1047 1693" version="1.1" xmlns="http://www.w3.org/2000/svg" xmlns:xlink="http://www.w3.org/1999/xlink" xmlns:sketch="http://www.bohemiancoding.com/sketch/ns">
    <!-- Generator: Sketch 3.3.2 (12043) - http://www.bohemiancoding.com/sketch -->
    <title>Artboard</title>
    <desc>Created with Sketch.</desc>
    <defs></defs>
    <g id="Page-1" stroke="none" stroke-width="1" fill="none" fill-rule="evenodd" sketch:type="MSPage">
        <g id="Artboard" sketch:type="MSArtboardGroup" fill="#000000">
            <path d="M524.896029,1693 C486.114159,1502.75203 417.736178,1344.42534 334.915286,1197.69547 C273.483147,1088.85524 202.317025,988.392718 136.47008,882.841587 C114.489085,847.608224 95.5193225,810.385405 74.3976792,773.818406 C32.1643968,700.701404 -2.07761541,615.926591 0.0982749904,505.959668 C2.22414492,398.516055 33.3198697,312.328629 78.1602189,241.859903 C151.909398,125.956603 275.441949,30.9285946 441.193777,5.95542506 C576.714233,-14.4629903 703.775228,20.0335745 793.881101,72.6851737 C867.506229,115.711406 924.529564,173.184686 967.868299,240.91916 C1013.10581,311.615824 1044.25856,395.13698 1046.86963,504.079183 C1048.21018,559.893917 1039.06643,611.58178 1026.18116,654.456053 C1013.14583,697.853183 992.177246,734.129262 973.519611,772.877663 C937.094706,848.515976 891.436022,917.82202 845.607268,987.163054 C709.114413,1193.71656 581.002988,1404.35895 524.896029,1693 Z M519.499821,177.498506 C705.88009,177.498506 856.970918,328.486209 856.970918,514.739267 C856.970918,700.992325 705.88009,851.980028 519.499821,851.980028 C333.119551,851.980028 182.028723,700.992325 182.028723,514.739267 C182.028723,328.486209 333.119551,177.498506 519.499821,177.498506 Z" id="Fill-1" sketch:type="MSShapeGroup"></path>
        </g>
    </g>
</svg>