<?xml version="1.0" encoding="UTF-8" standalone="no"?>
<svg width="44px" height="105px" viewBox="0 0 44 105" version="1.1" xmlns="http://www.w3.org/2000/svg" xmlns:xlink="http://www.w3.org/1999/xlink" xmlns:sketch="http://www.bohemiancoding.com/sketch/ns">
    <!-- Generator: Sketch 3.3.2 (12043) - http://www.bohemiancoding.com/sketch -->
    <title>Artboard</title>
    <desc>Created with Sketch.</desc>
    <defs></defs>
    <g id="Page-1" stroke="none" stroke-width="1" fill="none" fill-rule="evenodd" sketch:type="MSPage">
        <g id="Artboard" sketch:type="MSArtboardGroup">
            <g id="Imported-Layers" sketch:type="MSLayerGroup">
                <path d="M10.695,83.282 L10.695,98.375 C10.695,101.973 15.728,104.887 21.935,104.887 C28.143,104.887 33.175,101.973 33.175,98.375 L33.175,83.282" id="Fill-1" fill="#FF9951" sketch:type="MSShapeGroup"></path>
                <path d="M8.611,72.444 L8.611,86.366 C8.611,90.628 14.578,94.084 21.935,94.084 C29.293,94.084 35.259,90.628 35.259,86.366 L35.259,72.444" id="Fill-2" fill="#FF9951" sketch:type="MSShapeGroup"></path>
                <path d="M35.259,72.443 C35.259,76.705 29.293,80.162 21.935,80.162 C14.578,80.162 8.611,76.705 8.611,72.443 C8.611,68.181 14.578,64.727 21.935,64.727 C29.293,64.727 35.259,68.181 35.259,72.443" id="Fill-3" fill="#A97C50" sketch:type="MSShapeGroup"></path>
                <path d="M10.86,76.732 C13.25,74.666 17.317,73.306 21.935,73.306 C26.552,73.306 30.621,74.666 33.011,76.732 C34.43,75.506 35.259,74.031 35.259,72.443 C35.259,68.181 29.293,64.727 21.935,64.727 C14.578,64.727 8.611,68.181 8.611,72.443 C8.611,74.031 9.441,75.506 10.86,76.732" id="Fill-4" fill="#FF6F49" sketch:type="MSShapeGroup"></path>
                <path d="M29.233,38.461 C35.163,38.461 39.985,33.639 39.985,27.71 L39.985,18.23 C39.985,15.984 38.158,14.157 35.912,14.157 L35.804,14.157 C33.558,14.157 31.73,15.984 31.73,18.23 L31.73,27.089 C31.73,28.809 30.332,30.206 28.612,30.206 L26.063,30.206 L26.063,4.117 C26.063,1.871 24.235,0.044 21.989,0.044 C19.684,0.044 17.808,1.92 17.808,4.226 L17.808,52.8 L15.321,52.8 C13.603,52.8 12.204,51.401 12.204,49.683 L12.204,46.392 C12.204,44.145 10.376,42.318 8.13,42.318 L8.021,42.318 C5.776,42.318 3.949,44.145 3.949,46.392 L3.949,50.303 C3.949,56.231 8.771,61.055 14.701,61.055 L17.808,61.055 L17.808,79.782 C19.108,80.027 20.494,80.162 21.935,80.162 C23.376,80.162 24.763,80.027 26.063,79.782 L26.063,70.73 L29.17,70.73 C35.099,70.73 39.922,65.907 39.922,59.977 L39.922,50.499 C39.922,48.253 38.095,46.427 35.848,46.427 L35.741,46.427 C33.494,46.427 31.667,48.253 31.667,50.499 L31.667,59.357 C31.667,61.076 30.268,62.476 28.549,62.476 L26.063,62.476 L26.063,38.461 L29.233,38.461" id="Fill-5" fill="#A9DB60" sketch:type="MSShapeGroup"></path>
                <path d="M18.957,71.157 L15.745,71.157 C15.057,71.157 14.499,70.6 14.499,69.911 C14.499,69.223 15.057,68.664 15.745,68.664 L18.957,68.664 C19.645,68.664 20.204,69.223 20.204,69.911 C20.204,70.6 19.645,71.157 18.957,71.157" id="Fill-6" fill="#FFFFFF" sketch:type="MSShapeGroup"></path>
                <path d="M33.315,57.454 L29.611,57.454 C28.922,57.454 28.364,56.896 28.364,56.208 C28.364,55.519 28.922,54.961 29.611,54.961 L33.315,54.961 C34.003,54.961 34.562,55.519 34.562,56.208 C34.562,56.896 34.003,57.454 33.315,57.454" id="Fill-7" fill="#FFFFFF" sketch:type="MSShapeGroup"></path>
                <path d="M41.774,53.492 L38.07,53.492 C37.381,53.492 36.823,52.934 36.823,52.245 C36.823,51.557 37.381,50.999 38.07,50.999 L41.774,50.999 C42.463,50.999 43.021,51.557 43.021,52.245 C43.021,52.934 42.463,53.492 41.774,53.492" id="Fill-8" fill="#FFFFFF" sketch:type="MSShapeGroup"></path>
                <path d="M5.8,48.799 L2.096,48.799 C1.408,48.799 0.85,48.241 0.85,47.553 C0.85,46.864 1.408,46.306 2.096,46.306 L5.8,46.306 C6.489,46.306 7.047,46.864 7.047,47.553 C7.047,48.241 6.489,48.799 5.8,48.799" id="Fill-9" fill="#FFFFFF" sketch:type="MSShapeGroup"></path>
                <path d="M5.842,60.226 C5.523,60.226 5.204,60.103 4.96,59.861 C4.474,59.374 4.474,58.585 4.96,58.098 L7.432,55.625 C7.918,55.139 8.707,55.139 9.194,55.625 C9.681,56.111 9.681,56.901 9.195,57.388 L6.724,59.86 C6.48,60.103 6.161,60.226 5.842,60.226" id="Fill-10" fill="#FFFFFF" sketch:type="MSShapeGroup"></path>
                <path d="M39.306,68.548 C38.987,68.548 38.667,68.426 38.424,68.183 L35.953,65.711 C35.465,65.224 35.465,64.435 35.953,63.947 C36.439,63.461 37.229,63.461 37.715,63.947 L40.187,66.42 C40.674,66.906 40.674,67.695 40.187,68.183 C39.944,68.426 39.624,68.548 39.306,68.548" id="Fill-11" fill="#FFFFFF" sketch:type="MSShapeGroup"></path>
                <path d="M19.552,40.265 L15.575,40.265 C14.887,40.265 14.329,39.706 14.329,39.018 C14.329,38.329 14.887,37.771 15.575,37.771 L19.552,37.771 C20.241,37.771 20.799,38.329 20.799,39.018 C20.799,39.706 20.241,40.265 19.552,40.265" id="Fill-12" fill="#FFFFFF" sketch:type="MSShapeGroup"></path>
                <path d="M19.552,24.477 L15.575,24.477 C14.887,24.477 14.329,23.919 14.329,23.23 C14.329,22.542 14.887,21.984 15.575,21.984 L19.552,21.984 C20.241,21.984 20.799,22.542 20.799,23.23 C20.799,23.919 20.241,24.477 19.552,24.477" id="Fill-13" fill="#FFFFFF" sketch:type="MSShapeGroup"></path>
                <path d="M28.115,14.577 L24.137,14.577 C23.449,14.577 22.891,14.02 22.891,13.331 C22.891,12.643 23.449,12.084 24.137,12.084 L28.115,12.084 C28.804,12.084 29.362,12.643 29.362,13.331 C29.362,14.02 28.804,14.577 28.115,14.577" id="Fill-14" fill="#FFFFFF" sketch:type="MSShapeGroup"></path>
                <path d="M19.796,6.3 L15.819,6.3 C15.13,6.3 14.572,5.742 14.572,5.054 C14.572,4.365 15.13,3.807 15.819,3.807 L19.796,3.807 C20.485,3.807 21.043,4.365 21.043,5.054 C21.043,5.742 20.485,6.3 19.796,6.3" id="Fill-15" fill="#FFFFFF" sketch:type="MSShapeGroup"></path>
                <path d="M33.451,21.405 L29.474,21.405 C28.785,21.405 28.227,20.847 28.227,20.158 C28.227,19.47 28.785,18.912 29.474,18.912 L33.451,18.912 C34.139,18.912 34.697,19.47 34.697,20.158 C34.697,20.847 34.139,21.405 33.451,21.405" id="Fill-16" fill="#FFFFFF" sketch:type="MSShapeGroup"></path>
                <path d="M41.911,26.525 L37.933,26.525 C37.245,26.525 36.686,25.968 36.686,25.279 C36.686,24.591 37.245,24.033 37.933,24.033 L41.911,24.033 C42.6,24.033 43.158,24.591 43.158,25.279 C43.158,25.968 42.6,26.525 41.911,26.525" id="Fill-17" fill="#FFFFFF" sketch:type="MSShapeGroup"></path>
                <path d="M38.643,37.404 C38.324,37.404 38.004,37.283 37.761,37.039 L34.948,34.227 C34.461,33.739 34.461,32.95 34.948,32.464 C35.435,31.977 36.225,31.977 36.711,32.464 L39.524,35.276 C40.011,35.764 40.011,36.553 39.524,37.039 C39.281,37.283 38.961,37.404 38.643,37.404" id="Fill-18" fill="#FFFFFF" sketch:type="MSShapeGroup"></path>
                <path d="M28.065,46.323 L24.187,46.323 C23.499,46.323 22.94,45.766 22.94,45.077 C22.94,44.389 23.499,43.83 24.187,43.83 L28.065,43.83 C28.753,43.83 29.312,44.389 29.312,45.077 C29.312,45.766 28.753,46.323 28.065,46.323" id="Fill-19" fill="#FFFFFF" sketch:type="MSShapeGroup"></path>
                <path d="M26.126,66.72 C25.437,66.72 24.879,66.161 24.879,65.473 L24.879,62.476 C24.879,61.787 25.437,61.228 26.126,61.228 C26.814,61.228 27.373,61.787 27.373,62.476 L27.373,65.473 C27.373,66.161 26.814,66.72 26.126,66.72" id="Fill-20" fill="#FFFFFF" sketch:type="MSShapeGroup"></path>
                <path d="M17.808,56.224 C17.12,56.224 16.561,55.665 16.561,54.977 L16.561,52.8 C16.561,52.111 17.12,51.554 17.808,51.554 C18.496,51.554 19.054,52.111 19.054,52.8 L19.054,54.977 C19.054,55.665 18.496,56.224 17.808,56.224" id="Fill-21" fill="#FFFFFF" sketch:type="MSShapeGroup"></path>
                <path d="M26.063,39.707 L24.654,39.707 C23.966,39.707 23.408,39.149 23.408,38.461 C23.408,37.773 23.966,37.214 24.654,37.214 L26.063,37.214 C26.751,37.214 27.309,37.773 27.309,38.461 C27.309,39.149 26.751,39.707 26.063,39.707" id="Fill-22" fill="#FFFFFF" sketch:type="MSShapeGroup"></path>
            </g>
        </g>
    </g>
</svg>