<svg width="1440" height="752" viewBox="0 0 1440 752" xmlns="http://www.w3.org/2000/svg"><title>aquarium-piano</title><g fill="none" fill-rule="evenodd"><path d="M900.14 719.118c0-6.72-5.448-12.167-12.167-12.167H548.275c-6.719 0-12.167 5.447-12.167 12.167 0 6.719 5.448 12.167 12.167 12.167h339.698c6.719 0 12.167-5.448 12.167-12.167M967.277 665.287c0-6.72-5.448-12.166-12.167-12.166H485.461c-2.52 0-4.861.766-6.803 2.078a12.155 12.155 0 0 0-5.364 10.088v.001c0 6.72 5.448 12.166 12.167 12.166H955.11c2.52 0 4.861-.765 6.803-2.078a12.154 12.154 0 0 0 5.364-10.088v-.001" fill="#C7C7C4"/><path d="M934.021 488.76c0-8.379-6.792-15.172-15.171-15.172H519.241c-8.379 0-15.171 6.793-15.171 15.172v60.399h429.951V488.76" fill="#28D2FF"/><path d="M875.179 485.703h36.333v43.551h-36.333v-43.551z" fill="#FFF"/><path d="M878.762 489.386h29.167v2.85h-29.167v-2.85zM878.762 495.04h29.167v2.849h-29.167v-2.849zM878.762 500.694h29.167v2.849h-29.167v-2.849zM878.762 506.348h29.167v2.85h-29.167v-2.85zM878.762 512.002h29.167v2.85h-29.167v-2.85zM878.762 517.656h29.167v2.849h-29.167v-2.849zM878.762 523.31h29.167v2.849h-29.167v-2.849z" fill="#323232"/><path d="M849.26 493.076h36.333v43.551H849.26v-43.551z" fill="#FFF"/><path d="M852.844 496.759h29.167v2.85h-29.167v-2.85zM852.844 502.413h29.167v2.849h-29.167v-2.849zM852.844 508.067h29.167v2.849h-29.167v-2.849zM852.844 513.721h29.167v2.85h-29.167v-2.85zM852.844 519.375h29.167v2.85h-29.167v-2.85zM852.844 525.029h29.167v2.849h-29.167v-2.849zM852.844 530.684h29.167v2.849h-29.167v-2.849z" fill="#323232"/><path d="M504.07 572.609h429.951v92.273H504.07v-92.273z" fill="#4881C2"/><path d="M561.5 627.001h-34.666v-18.667c0-10.309 7.76-18.666 17.333-18.666 9.573 0 17.333 8.357 17.333 18.666v18.667" fill="#A9D163"/><path d="M529.933 651.922a7.129 7.129 0 0 0 0-10.086 7.127 7.127 0 0 1 0-10.086 7.129 7.129 0 0 0 0-10.086m11.975 30.258a7.127 7.127 0 0 0 0-10.086 7.129 7.129 0 0 1 0-10.086 7.127 7.127 0 0 0 0-10.086m11.976 30.258a7.129 7.129 0 0 0 0-10.086 7.129 7.129 0 0 1 0-10.086 7.129 7.129 0 0 0 0-10.086" stroke="#A9D163" stroke-width="4" stroke-linecap="round" stroke-linejoin="round"/><path d="M644.384 616.935h-22.935v-12.351c0-6.819 5.135-12.349 11.468-12.349s11.467 5.53 11.467 12.349v12.351" fill="#E75056"/><path d="M623.499 633.422a4.714 4.714 0 0 0 0-6.673 4.716 4.716 0 0 1 0-6.673 4.714 4.714 0 0 0 0-6.673m7.924 20.019a4.716 4.716 0 0 0 0-6.673 4.714 4.714 0 0 1 0-6.673 4.716 4.716 0 0 0 0-6.673m7.923 20.019a4.718 4.718 0 0 0 0-6.673 4.714 4.714 0 0 1 0-6.673 4.718 4.718 0 0 0 0-6.673" stroke="#E75056" stroke-width="2.646" stroke-linecap="round" stroke-linejoin="round"/><path d="M704.257 612.418h22.934v-12.351c0-6.819-5.134-12.348-11.468-12.348-6.332 0-11.466 5.529-11.466 12.348v12.351" fill="#A9D163"/><path d="M725.142 628.905a4.714 4.714 0 0 1 0-6.673 4.717 4.717 0 0 0 0-6.672 4.714 4.714 0 0 1 0-6.673m-7.924 20.018a4.714 4.714 0 0 1 0-6.673 4.715 4.715 0 0 0 0-6.672 4.714 4.714 0 0 1 0-6.673m-7.923 20.018a4.716 4.716 0 0 1 0-6.673 4.713 4.713 0 0 0 0-6.672 4.716 4.716 0 0 1 0-6.673" stroke="#A9D163" stroke-width="2.646" stroke-linecap="round" stroke-linejoin="round"/><path d="M883.702 625.99h27.451v-14.782c0-8.162-6.146-14.78-13.726-14.78-7.579 0-13.725 6.618-13.725 14.78v14.782" fill="#4FC1B3"/><path d="M908.699 645.724a5.645 5.645 0 0 1 0-7.987 5.645 5.645 0 0 0 0-7.987 5.644 5.644 0 0 1 0-7.986m-9.483 23.96a5.645 5.645 0 0 1 0-7.987 5.645 5.645 0 0 0 0-7.987 5.644 5.644 0 0 1 0-7.986m-9.483 23.96a5.645 5.645 0 0 1 0-7.987 5.645 5.645 0 0 0 0-7.987 5.644 5.644 0 0 1 0-7.986" stroke="#4FC1B3" stroke-width="3.167" stroke-linecap="round" stroke-linejoin="round"/><path d="M795.369 633.994h27.45v-14.782c0-8.162-6.146-14.78-13.726-14.78-7.579 0-13.724 6.618-13.724 14.78v14.782" fill="#FFCF01"/><path d="M820.365 653.728a5.645 5.645 0 0 1 0-7.987 5.645 5.645 0 0 0 0-7.987 5.644 5.644 0 0 1 0-7.986m-9.483 23.96a5.645 5.645 0 0 1 0-7.987 5.645 5.645 0 0 0 0-7.987 5.644 5.644 0 0 1 0-7.986m-9.483 23.96a5.645 5.645 0 0 1 0-7.987 5.645 5.645 0 0 0 0-7.987 5.644 5.644 0 0 1 0-7.986" stroke="#A9D163" stroke-width="3.167" stroke-linecap="round" stroke-linejoin="round"/><path d="M504.07 561.536h429.951v21.608H504.07v-21.608z" fill="#28D2FF"/><path d="M489.489 550.004h23.394v114.879h-23.394V550.004zM925.207 550.004H948.6v114.879h-23.393V550.004z" fill="#28D2FF"/><path d="M954.534 533.113a3.86 3.86 0 0 0-3.859-3.859h-463.26a3.858 3.858 0 0 0-3.858 3.859v24.564a3.858 3.858 0 0 0 3.858 3.859h462.867a4.252 4.252 0 0 0 4.252-4.252v-24.171" fill="#7EE4FF"/><path d="M916.045 551.535h-395.51v-4.422a3.86 3.86 0 0 1 3.859-3.859h387.792a3.859 3.859 0 0 1 3.859 3.859v4.422" fill="#000"/><path d="M930.536 555.452c0-2.162-1.729-3.916-3.86-3.916H509.904c-2.131 0-3.859 1.754-3.859 3.916v6.084h424.491v-6.084" fill="#FFF"/><path d="M552.245 636.75h333.6v35.423h-333.6V636.75z" fill="#98E9FF"/><path d="M552.245 645.175h20.67v73.609h-20.67v-73.609zM865.175 645.175h20.67v73.609h-20.67v-73.609z" fill="#98E9FF"/><path d="M893.345 626.131a3.859 3.859 0 0 0-3.859-3.859H548.604a3.859 3.859 0 0 0-3.859 3.859v21.238a3.86 3.86 0 0 0 3.859 3.86h340.882a3.86 3.86 0 0 0 3.859-3.86v-21.238" fill="#28D2FF"/><path d="M662.479 484.048h85.74v36.033h-85.74v-36.033z" fill="#98E9FF"/><path d="M661.667 520.223v-29.936c0-9.719 12-9.614 12 0S657 491.981 649 495.941s-8.667 18.627 3.333 20.106c9.263 1.142 16.667-3.348 16.667-8.852" stroke="#4881C2" stroke-width="4" stroke-linecap="round" stroke-linejoin="round"/></g></svg>