<svg width="1440" height="752" viewBox="0 0 1440 752" xmlns="http://www.w3.org/2000/svg"><title>aquarium</title><g fill="none" fill-rule="evenodd"><path d="M-2.326-1.251H1440.76v665.988H-2.326V-1.25z" fill="#28D2FF"/><path d="M1093.38 50.152c0 8.728-7.073 15.805-15.797 15.805h-39.822c-8.724 0-15.797-7.077-15.797-15.805 0-8.729 7.073-15.806 15.797-15.806h39.822c8.724 0 15.797 7.077 15.797 15.806" fill="#D7F4FF"/><path d="M1185.068 84.04c0 12.044-9.758 21.807-21.794 21.807h-149.737c-12.037 0-21.794-9.763-21.794-21.806 0-12.044 9.757-21.808 21.794-21.808h149.737c12.036 0 21.794 9.764 21.794 21.808" fill="#D7F4FF"/><path d="M1078.919 84.04c0 12.044-9.758 21.807-21.795 21.807h-43.587c-12.037 0-21.794-9.763-21.794-21.806 0-12.044 9.757-21.808 21.794-21.808h43.587c12.037 0 21.795 9.764 21.795 21.808" fill="#FFF"/><path d="M1053.557 50.152c0 8.73-7.072 15.805-15.796 15.805s-15.797-7.076-15.797-15.805c0-8.73 7.073-15.806 15.797-15.806s15.796 7.076 15.796 15.806" fill="#FFF"/><path d="M1223.21 121.639c0 8.722-7.066 15.791-15.782 15.791h-79.66c-8.716 0-15.783-7.07-15.783-15.791 0-8.723 7.067-15.792 15.783-15.792h79.66c8.716 0 15.783 7.07 15.783 15.792" fill="#D7F4FF"/><path d="M1111.985 121.639c0-8.723 7.067-15.792 15.783-15.792h11.455c8.716 0 15.783 7.07 15.783 15.792s-7.067 15.791-15.783 15.791h-11.455c-8.716 0-15.783-7.07-15.783-15.791M1054.66 153.974c0-7.36-5.963-13.325-13.318-13.325-7.356 0-13.318 5.966-13.318 13.325 0 7.359 5.962 13.325 13.318 13.325 7.355 0 13.317-5.966 13.317-13.325" fill="#FFF"/><path d="M1440.76 163.275a30.415 30.415 0 0 0-3.797-.247h-19.338c-16.603 0-30.062 13.467-30.062 30.08v243.63c0 16.613 13.459 30.08 30.062 30.08h19.338c1.286 0 2.552-.09 3.796-.247V163.275" fill="#5AB55C"/><path d="M1427.626 388.616c0-16.612-13.458-30.08-30.062-30.08h-5.148c-16.603 0-30.062 13.468-30.062 30.08v39.083c0 16.613 13.459 30.08 30.062 30.08h5.148c16.604 0 30.062-13.467 30.062-30.08v-39.083" fill="#5AB55C"/><path d="M1181.134 599.57c0-24.59-19.923-44.523-44.498-44.523-24.577 0-44.5 19.933-44.5 44.524 0 24.59 19.923 44.526 44.5 44.526 24.575 0 44.498-19.935 44.498-44.526" fill="#3B9F86"/><path d="M1110.632 624.605c0-16.968-13.748-30.724-30.708-30.724s-30.708 13.756-30.708 30.724c0 16.97 13.748 30.725 30.708 30.725s30.708-13.755 30.708-30.725M1229.387 549.364c0-22.682-18.375-41.067-41.044-41.067-22.669 0-41.044 18.385-41.044 41.067 0 22.68 18.375 41.066 41.044 41.066 22.67 0 41.044-18.386 41.044-41.066" fill="#3B9F86"/><path d="M1301.189 550.17c0-22.681-18.375-41.068-41.044-41.068-22.67 0-41.044 18.387-41.044 41.068 0 22.68 18.374 41.066 41.044 41.066 22.67 0 41.044-18.385 41.044-41.066" fill="#3B9F86"/><path d="M1440.754 509.103c0-43.333-35.105-78.46-78.415-78.46-43.311 0-78.417 35.127-78.417 78.46 0 43.333 35.106 78.459 78.417 78.459 43.31 0 78.415-35.126 78.415-78.46" fill="#3B9F86"/><path d="M1170.111 543.993h270.643v100.761h-270.643v-100.76z" fill="#3B9F86"/><path d="M1082.934 605.653h357.82v59.858h-357.82v-59.858z" fill="#3B9F86"/><path d="M1322.33 644.34c0-15.54-12.589-28.136-28.118-28.136-15.53 0-28.12 12.596-28.12 28.135 0 15.54 12.59 28.136 28.12 28.136 15.53 0 28.118-12.597 28.118-28.136" fill="#3B8186"/><path d="M1364.358 509.103h76.396v94.47h-76.396v-94.47z" fill="#3B9F86"/><path d="M1365.17 604.15c0-20.172-16.345-36.525-36.503-36.525-20.161 0-36.505 16.353-36.505 36.526 0 20.171 16.344 36.524 36.505 36.524 20.159 0 36.502-16.353 36.502-36.524M1380.548 536.711h60.206V661.49h-60.206V536.71z" fill="#3B8186"/><path d="M1374.666 541.007c0-18.26 14.795-33.062 33.044-33.062 18.25 0 33.044 14.802 33.044 33.062 0 18.26-14.794 33.064-33.044 33.064-18.25 0-33.044-14.803-33.044-33.064" fill="#3B8186"/><path d="M1389.123 568.483c0-11.63-9.421-21.056-21.043-21.056s-21.044 9.426-21.044 21.056c0 11.627 9.422 21.056 21.043 21.056 11.623 0 21.044-9.429 21.044-21.056" fill="#3B8186"/><path d="M1317.417 583.353h90.293v61.401h-90.293v-61.401z" fill="#3B8186"/><path d="M1409.609 622.5h31.064v28.268h-31.064V622.5z" fill="#A9D163"/><path d="M1440.673 622.065c0 8.584-6.954 15.541-15.532 15.541-8.579 0-15.532-6.957-15.532-15.54 0-8.584 6.953-15.542 15.532-15.542 8.578 0 15.532 6.958 15.532 15.541" fill="#A9D163"/><path d="M1361.509 632.808c0-14.398 11.664-26.07 26.054-26.07 14.389 0 26.054 11.672 26.054 26.07 0 14.397-11.665 26.069-26.054 26.069-14.39 0-26.054-11.672-26.054-26.07" fill="#A9D163"/><path d="M1440.673 430.948c0-15.783-12.786-28.576-28.559-28.576-15.773 0-28.56 12.793-28.56 28.576 0 15.782 12.787 28.576 28.56 28.576 15.773 0 28.56-12.794 28.56-28.576" fill="#3B9F86"/><path d="M1402.556 430.948h38.117v56.67h-38.117v-56.67z" fill="#3B9F86"/><path d="M1324.236 620.967c0 16.613-13.46 30.08-30.062 30.08H27.738c-16.603 0-30.063-13.467-30.063-30.08V200.038h1296.499c16.602 0 30.062 13.468 30.062 30.08v390.85" fill="#CFF1E8"/><path d="M120.179 245.448h111.179v90.39h-111.18v-90.39zM260.49 245.448h111.18v90.39H260.49v-90.39zM400.803 245.448h111.179v90.39h-111.18v-90.39zM120.179 362.102h111.179v90.389h-111.18V362.1zM260.49 362.102h111.18v90.389H260.49V362.1zM400.803 362.102h111.179v90.389h-111.18V362.1zM549.777 245.448h111.179v90.39h-111.18v-90.39zM549.777 362.102h111.179v90.389h-111.18V362.1zM120.179 482.283h111.225v126.131H120.179V482.283zM260.444 478.755H371.67v126.13H260.444v-126.13zM421.786 478.755h90.196v126.13h-90.196v-126.13zM549.777 478.755h111.225v126.13H549.777v-126.13zM1164.646 245.448h111.18v90.39h-111.18v-90.39zM1164.646 362.103h111.18v90.388h-111.18v-90.388zM1164.646 478.755h111.18v90.389h-111.18v-90.39zM1024.333 245.448h111.18v90.39h-111.18v-90.39zM1024.333 362.103h111.18v90.388h-111.18v-90.388zM1024.333 478.755h111.18v90.389h-111.18v-90.39zM884.02 245.448H995.2v90.39H884.02v-90.39zM884.02 362.103H995.2v90.388H884.02v-90.388zM884.02 478.755H995.2v90.389H884.02v-90.39z" fill="#F2FAF9"/><path d="M-2.326 226.192h817.029l93.19-26.154H-2.327v26.154" fill="#F48939"/><path d="M53.274 226.192h30.05v398.414h-30.05V226.192zM413.875 226.192h-30.05v375.176h30.05V453.853h-13.072V362.92h13.072v-26.422h-13.072v-90.934h13.072v-19.372" fill="#B7D3CB"/><path d="M400.803 245.448h13.072v90.39h-13.072v-90.39zM400.803 362.102h13.072v90.389h-13.072V362.1z" fill="#D4DBD9"/><path d="M714.375 226.192h30.05v375.176h-30.05V226.192z" fill="#B7D3CB"/><path d="M67.058 214.162h30.061v410.444H67.058V214.162zM397.729 214.162h30.061v387.206h-30.061V214.162zM728.399 214.162h30.061v387.206h-30.061V214.162z" fill="#FFF"/><path d="M-2.326 154.005h910.218v46.033H-2.326v-46.033zM-2.326 601.368H1440.76v151.38H-2.326v-151.38z" fill="#ECECEB"/><path d="M1003.221 709.727c0-7.127 5.774-12.903 12.896-12.903 7.122 0 12.896 5.776 12.896 12.903" fill="#A7A7A5"/><path d="M1330.549 671.19c0-7.127 5.774-12.904 12.896-12.904 7.122 0 12.896 5.777 12.896 12.903M386.966 651.207c0-7.127 5.774-12.904 12.896-12.904 7.123 0 12.897 5.777 12.897 12.904" fill="#C7C7C4"/><path d="M179.248 668.998c0-7.126 5.774-12.903 12.895-12.903 7.123 0 12.896 5.777 12.896 12.903" fill="#A7A7A5"/><path d="M247.082 700.467c0-7.127 5.773-12.904 12.895-12.904s12.896 5.777 12.896 12.904" fill="#C7C7C4"/><path d="M325.438 58.976c0 13.29-10.766 24.062-24.049 24.062H186.262c-13.281 0-24.048-10.772-24.048-24.062 0-13.289 10.767-24.062 24.048-24.062H301.39c13.283 0 24.05 10.773 24.05 24.062" fill="#D7F4FF"/><path d="M397.59 98.256c0 8.957-7.257 16.22-16.211 16.22H241.516c-8.954 0-16.212-7.263-16.212-16.22 0-8.96 7.26-16.22 16.212-16.22h139.863c8.954 0 16.211 7.26 16.211 16.22" fill="#D7F4FF"/><path d="M283.353 98.256c0 8.958-7.258 16.22-16.212 16.22h-41.063c-8.954 0-16.212-7.263-16.212-16.22 0-8.96 7.258-16.22 16.212-16.22h41.063c8.954 0 16.212 7.262 16.212 16.22" fill="#FFF"/><path d="M262.916 58.976c0 13.29-10.767 24.062-24.049 24.062h-52.605c-13.281 0-24.048-10.772-24.048-24.062 0-13.289 10.767-24.062 24.048-24.062h52.605c13.282 0 24.05 10.773 24.05 24.062M147.235 98.936c0-7.475-6.056-13.535-13.528-13.535s-13.528 6.06-13.528 13.535c0 7.476 6.056 13.536 13.528 13.536s13.528-6.06 13.528-13.536" fill="#FFF"/><g><path d="M989.12 511.397c0 12.754 10.345 23.094 23.107 23.094h7.432c12.763 0 23.108-10.34 23.108-23.094v-45.195c0-12.754-10.345-23.093-23.108-23.093h-7.432c-12.762 0-23.108 10.339-23.108 23.093v45.195M1119.658 254.32c0 25.789 7.44 41.57 7.44 41.57h-24.262l16.822-41.57M1198.054 484.16l28.866 11.432a10.746 10.746 0 0 0 12.33-3.26 10.73 10.73 0 0 0 .52-12.737l-31.318-46.237-10.398 50.803" fill="#383B33"/><path d="M1125.555 189.868c0 15.695-5.897 20.996-5.897 50.651v61.991l-62.297-9.605.017-.002c11.304-1.747 19.666-12.403 19.666-25.017v-27.367c0-31.898 5.222-48.41 17.06-60.368 11.837-11.96 31.451-5.232 31.451 9.717" fill="#383B33"/><path d="M1215.393 513.693a10.745 10.745 0 0 0 13.007-1.125 10.727 10.727 0 0 0 2.31-12.842l-3.922-7.613a109.7 109.7 0 0 1-12.18-50.236v-47.994c0-58.36-47.337-105.668-105.732-105.668h-19.024c-66.35 0-120.136 53.754-120.136 120.063v38.024l.173-.003v54.718c0 12.754 10.346 23.093 23.108 23.093h.563c12.762 0 23.108-10.339 23.108-23.093V451.94c0-3.6 2.886-6.539 6.488-6.603a6.609 6.609 0 0 1 6.73 6.603v56.193c0 5.356 4.343 9.698 9.703 9.698 5.358 0 9.703-4.342 9.703-9.698v-73.466c0-33.28 26.995-60.26 60.297-60.26 32.095 0 58.566 25.127 60.217 57.16l.223 4.326a98.214 98.214 0 0 0 45.364 77.8" fill="#51534B"/><path d="M834.071 517.306h537.625v84.035H834.071v-84.035z" fill="#383B33"/><path d="M821.74 517.306h562.286v10.38H821.741v-10.38z" fill="#74766E"/><path d="M784.769 553.876h636.23v47.465h-636.23v-47.465z" fill="#A6A7A1"/><path d="M901.847 553.876h519.151v47.465h-519.15v-47.465z" fill="#C3C4BE"/></g></g></svg>