<svg width="1440" height="752" viewBox="0 0 1440 752" xmlns="http://www.w3.org/2000/svg"><title>canada-place</title><g fill="none" fill-rule="evenodd"><path d="M0 0h1440v664.629H0z" fill="#28D2FF"/><path d="M1363.633 127.677c0 9.526-7.723 17.249-17.249 17.249H1220.39c-9.526 0-17.249-7.723-17.249-17.249s7.723-17.25 17.249-17.25h125.994c9.526 0 17.249 7.723 17.249 17.25z" fill="#D7F4FF"/><path d="M1160.619 159.848c0 8.792 7.129 15.921 15.922 15.921h84.174c8.793 0 15.922-7.128 15.922-15.921 0-8.794-7.129-15.923-15.922-15.923h-84.174c-8.793 0-15.922 7.128-15.922 15.923z" fill="#D7F4FF"/><path d="M1208.56 159.848c0 8.793-7.129 15.921-15.922 15.921h-21.582c-8.793 0-15.922-7.128-15.922-15.921 0-8.794 7.129-15.922 15.922-15.922h21.582c8.793-.001 15.922 7.128 15.922 15.922zM1235.927 127.677c0 9.526-7.723 17.249-17.249 17.249s-17.249-7.723-17.249-17.249 7.723-17.25 17.249-17.25 17.249 7.723 17.249 17.25z" fill="#FFF"/><path d="M1113.674 160.848c0-8.772-7.111-15.884-15.884-15.884-8.772 0-15.884 7.111-15.884 15.884s7.111 15.884 15.884 15.884c8.772-.001 15.884-7.111 15.884-15.884z" fill="#D7F4FF"/><g><path d="M665.873 398.957c21.021-25.826 48.963-44.593 80.787-54.396 88.171-27.164 206.807-119.409 282.569-119.409 88.842 0 102.986-64.322 172.41-64.322 69.424 0 122.477 137.559 180.419 164.688 57.942 27.128 58.023 35.41 58.023 35.41v176.469H553.2l112.673-138.44z" fill="#5AB55C"/><path d="M1260.563 433.715c-23.999-58.423-121.494-85.57-173.991-88.421-52.498-2.851-82.496-9.148-82.496-35.654 0-26.506 73.496-34.991 101.995-50.129 28.497-15.137 71.99-58.352 91.557-98.6-65.989 2.423-81.298 64.241-168.399 64.241-75.566 0-193.787 91.771-281.888 119.198-32.29 10.052-60.585 29.265-81.744 55.646L553.2 537.396h700.628s30.734-45.258 6.735-103.681z" fill="#5A9780"/><path d="M12.626 401.571c110.121-83.425 233.192-228.917 311.188-228.917 77.996 0 106.792 71.197 179.39 81.346 67.037 9.372 73.451 90.541 181.51 102.92 18.895 2.164 36.566 10.511 50.208 23.763 23.398 22.729 62.92 55.815 101.4 63.607 20.574 4.166 100.533 17.121 143.959 24.091 18.542 2.976 35.938 11.099 50.072 23.464l.007.006a183.04 183.04 0 0 0 120.528 45.284h9.941-1141.5l-6.703-135.564z" fill="#5AB55C"/><path d="M358.476 511.343c-12.632-28.793-74.364-32.704-75.026-92.63-.662-59.926-34.542-96.162-39.835-139.564-7.5-61.497 76.496-70.227 80.199-106.495C246.34 172.654 109.553 328.707 0 412.39v124.746h355.192c5.563-4.346 9.299-12.083 3.284-25.793z" fill="#5A9780"/><path fill="#3499DF" d="M0 534.547h1440v173.336H0z"/><path fill="#392722" d="M0 569.647h597.833v32.586H0z"/><g fill="#392722"><path d="M0 569.647h10.565v43.586H0zM27.276 569.647h10.565v43.586H27.276zM54.551 569.647h10.565v43.586H54.551zM81.827 569.647h10.565v43.586H81.827zM109.103 569.647h10.565v43.586h-10.565zM136.378 569.647h10.565v43.586h-10.565zM163.653 569.647h10.565v43.586h-10.565zM190.929 569.647h10.565v43.586h-10.565zM218.204 569.647h10.565v43.586h-10.565zM245.479 569.647h10.565v43.586h-10.565zM272.755 569.647h10.565v43.586h-10.565zM300.03 569.647h10.565v43.586H300.03zM327.306 569.647h10.565v43.586h-10.565zM354.581 569.647h10.565v43.586h-10.565zM381.856 569.647h10.565v43.586h-10.565zM409.132 569.647h10.565v43.586h-10.565zM436.407 569.647h10.565v43.586h-10.565zM463.683 569.647h10.565v43.586h-10.565z"/></g><path fill="#D7F4FF" d="M0 496.879h566.335v27.197H0z"/><path fill="#FFF" d="M0 520.434h597.833v49.213H0z"/><path fill="#D7F4FF" d="M0 537.576h566.335v14.316H0z"/><path d="M286.562 496.788h270.149l-29.246-127.439c-17.252 29.854-55.834 49.73-104.84 49.73h-1.977" fill="#FFF"/><path d="M556.711 496.788l-29.246-127.439v-.001l-29.246 127.439h29.246v.001h29.246z" fill="#EFFBFF"/><path d="M223.562 496.788h270.149l-29.246-127.439c-17.252 29.854-55.834 49.73-104.84 49.73h-1.977" fill="#FFF"/><path d="M493.711 496.788l-29.246-127.439v-.001l-29.246 127.439h29.246v.001h29.246z" fill="#EFFBFF"/><path d="M401.465 369.349c-17.252 29.854-55.834 49.73-104.84 49.73h-1.977c-49.006 0-87.588-19.877-104.84-49.73l-29.246 127.439h270.149l-29.246-127.439z" fill="#FFF"/><path d="M430.711 496.788l-29.246-127.439v-.001l-29.246 127.439h29.246v.001h29.246zM295.637 419.079h-.988c-49.006 0-87.588-19.877-104.84-49.73l-29.246 127.439h135.075v-77.709h-.001z" fill="#EFFBFF"/><g><path d="M338.465 369.349c-17.252 29.854-55.834 49.73-104.84 49.73h-1.977c-49.006 0-87.588-19.877-104.84-49.73L97.562 496.788h270.149l-29.246-127.439z" fill="#FFF"/><path d="M367.711 496.788l-29.246-127.439v-.001l-29.246 127.439h29.246v.001h29.246zM232.637 419.079h-.988c-49.006 0-87.588-19.877-104.84-49.73L97.562 496.788h135.075v-77.709z" fill="#EFFBFF"/></g><g><path d="M275.465 369.349c-17.252 29.854-55.834 49.73-104.84 49.73h-1.977c-49.006 0-87.588-19.877-104.84-49.73L34.56 496.788h270.151l-29.246-127.439z" fill="#FFF"/><path d="M304.711 496.788l-29.246-127.439v-.001l-29.246 127.439h29.246v.001h29.246z" fill="#EFFBFF"/><path d="M169.637 419.079h-.988c-49.006 0-87.588-19.877-104.84-49.73L34.56 496.788h135.077v-77.709z" fill="#FFF"/></g><path fill="#C7C7C4" d="M0 635.726h1440.081V752H0z"/><path d="M992.98 706.732c0-7.107 5.762-12.87 12.87-12.87s12.87 5.762 12.87 12.87" fill="#A7A7A5"/><path d="M1369.423 687.754c0-7.107 5.762-12.87 12.87-12.87s12.87 5.762 12.87 12.87" fill="#EBEBEA"/><path d="M333.981 712.731c0-7.107 5.762-12.87 12.869-12.87s12.869 5.763 12.869 12.87M28.491 671.064c0-7.107 5.761-12.87 12.869-12.87 7.107 0 12.869 5.763 12.869 12.87" fill="#A7A7A5"/><path d="M430.905 727.857c0-7.107 5.762-12.87 12.869-12.87 7.108 0 12.87 5.762 12.87 12.87" fill="#EBEBEA"/><path d="M101.566 495.805H0v26.846h142.063l-40.497-26.846z" fill="#FFF"/><path d="M657.565 472.929c0 14.359 11.641 26 26 26s26-11.641 26-26h-52z" fill="#28D2FF"/></g><g><path d="M1188.382 541.028l6.247-8.318v-20.702h-16.592l-27.137 27.011 37.482 2.009z" fill="#DCE4DD"/><path d="M1280.114 539.02h-171.808l-21.808 14.737v9.026h215.432v-9.026l-21.816-14.738z" fill="#FFF"/><g fill="#B1DBF5"><path d="M1108.963 544.765h4.245v8.646h-4.245zM1115.999 544.765h4.247v8.646h-4.247zM1136.498 544.765h4.247v8.646h-4.247zM1143.535 544.765h4.242v8.646h-4.242zM1124.189 544.765h8.362v8.646h-8.362z"/></g><g fill="#B1DBF5"><path d="M1238.761 544.765h4.243v8.646h-4.243zM1245.797 544.765h4.245v8.646h-4.245zM1266.298 544.765h4.242v8.646h-4.242zM1273.334 544.765h4.244v8.646h-4.244zM1254.061 544.765h8.365v8.646h-8.365z"/></g><path fill="#FFF" d="M1168.777 530.179h46.561v10.848h-46.561z"/><path fill="#DCE4DD" d="M1081.472 562.184h225.309v6.305h-225.309z"/><path d="M1086.326 577.97h206.11c5.243 0 9.492-4.245 9.492-9.481h-215.602v9.48z" fill="#145492"/><g fill="#B1DBF5"><path d="M1168.777 544.765h4.249v8.646h-4.25zM1175.813 544.765h4.246v8.646h-4.246z"/><g><path d="M1207.694 544.765h4.247v8.646h-4.247zM1214.731 544.765h4.245v8.646h-4.245z"/></g></g><path fill="#B1DBF5" d="M1183.585 544.765h7.206v8.646h-7.206z"/><path d="M1178.037 512.008h16.592l-2.416-6.672h-11.756l-2.42 6.672z" fill="#B2B2B2"/><path d="M1175.327 505.336h22.011l-4.518-3.823h-12.975l-4.518 3.823z" fill="#E8E9EA"/><path fill="#DBDCDD" d="M1184.835 487.137h2.997v14.376h-2.997z"/><path fill="#DCE4DD" d="M1153.249 544.765h12.665v12.8h-12.665zM1222.476 544.765h12.667v12.8h-12.667z"/></g><g><path d="M1087.366 577.972c0-2.696-2.369-4.88-5.29-4.88s-5.29 2.184-5.29 4.88h10.58z" fill="#28D2FF"/><path d="M1094.522 577.972c0-2.167-1.904-3.924-4.253-3.924-2.348 0-4.252 1.757-4.252 3.924h8.505z" fill="#3499DF"/><path d="M1103.96 577.972c0-2.696-2.368-4.88-5.29-4.88-2.921 0-5.29 2.184-5.29 4.88h10.58z" fill="#28D2FF"/><path d="M1111.118 577.972c0-2.167-1.904-3.924-4.253-3.924-2.348 0-4.252 1.757-4.252 3.924h8.505z" fill="#3499DF"/><path d="M1065.596 577.972c0-2.167-1.904-3.924-4.253-3.924-2.348 0-4.252 1.757-4.252 3.924h8.505zM1116.28 577.972c0-1.467-1.29-2.656-2.88-2.656-1.59 0-2.88 1.19-2.88 2.656h5.76zM1128.507 577.972c0-1.467-1.29-2.656-2.88-2.656-1.589 0-2.878 1.19-2.878 2.656h5.758zM1168.594 577.972c0-1.827-1.605-3.308-3.584-3.308-1.98 0-3.585 1.481-3.585 3.308h7.17z" fill="#28D2FF"/></g><g><g transform="translate(331 224)"><path d="M91.005 45.954c0-9.941-8.059-18-18-18H18.613c-9.941 0-18 8.059-18 18s8.059 18 18 18h54.392c9.941 0 18-8.059 18-18z" fill="#D7F4FF"/><path d="M51.005 45.954c0-9.941-8.059-18-18-18H18.613c-9.941 0-18 8.059-18 18s8.059 18 18 18h14.392c9.941 0 18-8.059 18-18z" fill="#FFF"/><circle fill="#FFF" cx="31.923" cy="16.305" r="15.764"/></g><g transform="translate(1034 304)"><path d="M204.968 24.791c0 13.254-10.745 23.999-23.999 23.999H66.081c-13.254 0-23.999-10.744-23.999-23.999C42.082 11.537 52.827.792 66.081.792h114.888c13.255 0 23.999 10.745 23.999 23.999z" fill="#D7F4FF"/><path d="M276.97 63.966c0 8.935-7.243 16.178-16.177 16.178H121.221c-8.935 0-16.178-7.243-16.178-16.178s7.243-16.177 16.178-16.177h139.572c8.935 0 16.177 7.242 16.177 16.177z" fill="#D7F4FF"/><path d="M162.97 63.967c0 8.934-7.243 16.177-16.177 16.177h-40.979c-8.935 0-16.178-7.243-16.178-16.178s7.243-16.177 16.177-16.177h40.979c8.936 0 16.178 7.242 16.178 16.178z" fill="#FFF"/><path d="M142.577 24.791c0 13.254-10.745 23.999-23.999 23.999H66.082c-13.254 0-23.999-10.744-23.999-23.999C42.083 11.537 52.828.792 66.082.792h52.496c13.254 0 23.999 10.745 23.999 23.999z" fill="#FFF"/><circle fill="#FFF" cx="13.635" cy="64.645" r="13.5"/></g></g></g></svg>