<svg width="1440" height="752" viewBox="0 0 1440 752" xmlns="http://www.w3.org/2000/svg"><title>canada-place-piano</title><g fill="none" fill-rule="evenodd"><g fill="#999"><path d="M887.752 707.04H548.056c-6.721 0-12.167 5.446-12.167 12.167 0 6.72 5.446 12.168 12.167 12.168h339.696c6.721 0 12.168-5.448 12.168-12.168 0-6.721-5.447-12.167-12.168-12.167M954.89 653.211H485.24c-6.719 0-12.165 5.446-12.165 12.165 0 6.72 5.446 12.167 12.165 12.167h469.65c6.72 0 12.167-5.447 12.167-12.167 0-6.719-5.447-12.165-12.167-12.165"/></g><path d="M934.99 488.322c0-8.379-6.793-15.172-15.172-15.172H520.21c-8.379 0-15.171 6.792-15.171 15.172v94.384H934.99v-94.384z" fill="#DFD7C1"/><path fill="#FFF" d="M720.682 485.265h36.333v43.551h-36.333z"/><path fill="#323232" d="M724.265 488.948h29.167v2.849h-29.167zM724.265 494.602h29.167v2.849h-29.167zM724.265 500.256h29.167v2.849h-29.167zM724.265 505.91h29.167v2.85h-29.167zM724.265 511.564h29.167v2.85h-29.167zM724.265 517.218h29.167v2.849h-29.167zM724.265 522.873h29.167v2.849h-29.167z"/><path fill="#FFF" d="M770.348 497.161h36.333v43.551h-36.333z"/><path fill="#323232" d="M773.931 500.843h29.167v2.849h-29.167zM773.931 506.498h29.167v2.849h-29.167zM773.931 512.151h29.167V515h-29.167zM773.931 517.805h29.167v2.85h-29.167zM773.931 523.459h29.167v2.849h-29.167zM773.931 529.114h29.167v2.849h-29.167zM773.931 534.768h29.167v2.849h-29.167z"/><path fill="#C1BBA9" d="M505.039 582.706H934.99v81.739H505.039z"/><path fill="#DFD7C1" d="M490.458 549.566h23.395v114.879h-23.395zM926.177 549.566h23.394v114.879h-23.394z"/><path d="M955.503 532.675a3.859 3.859 0 0 0-3.859-3.859H488.386a3.859 3.859 0 0 0-3.859 3.859v24.563a3.859 3.859 0 0 0 3.859 3.859h462.865a4.251 4.251 0 0 0 4.252-4.252v-24.17z" fill="#FAEFD5"/><path opacity=".7" fill="#0079C0" d="M533.412 473.15h8.985v191.701h-8.985z"/><path opacity=".7" fill="#FFCF01" d="M554.022 473.15h8.985v191.701h-8.985z"/><path opacity=".7" fill="#E42F40" d="M574.632 473.15h8.985v191.701h-8.985z"/><path opacity=".7" fill="#129771" d="M595.242 473.15h8.985v191.701h-8.985z"/><path d="M917.015 551.097h-395.51v-4.422a3.859 3.859 0 0 1 3.859-3.859h387.791a3.859 3.859 0 0 1 3.859 3.859v4.422h.001z" fill="#323232"/><path d="M931.505 554.957a3.86 3.86 0 0 0-3.859-3.859H510.874a3.859 3.859 0 0 0-3.859 3.859v5.994h424.49v-5.994z" fill="#FFF"/><g><path fill="#FAEFD5" d="M553.215 636.312h333.6v35.423h-333.6z"/><path fill="#FAEFD5" d="M553.215 644.736h20.67v73.61h-20.67zM866.145 644.736h20.67v73.61h-20.67z"/><path d="M894.314 625.693a3.859 3.859 0 0 0-3.859-3.859H549.574a3.859 3.859 0 0 0-3.859 3.859v21.238a3.859 3.859 0 0 0 3.859 3.859h340.881a3.859 3.859 0 0 0 3.859-3.859v-21.238z" fill="#6E3F30"/></g></g></svg>