<svg width="1440" height="752" viewBox="0 0 1440 752" xmlns="http://www.w3.org/2000/svg" xmlns:xlink="http://www.w3.org/1999/xlink"><title>cathedral-piano</title><defs><path id="a" d="M.792 73.624h388.385V.464H.792v73.16z"/><path id="c" d="M491.571 25.1V.767H.001V25.1h491.57z"/><path id="e" d="M0 367h491.571V.447H0z"/></defs><g fill="none" fill-rule="evenodd"><path fill="#CCC" d="M812.776 620.857h101.202V460.902H812.776z"/><path fill="#BFBFBF" d="M812.776 460.832h101.202v-29.215H812.776z"/><path fill="#BFBFBF" d="M846.51 460.832l16.867-29.215 16.867 29.215zM880.244 460.832l12.65-29.215 12.651 29.215z"/><path fill="#DADAD8" d="M880.244 460.812l10.947-25.282 10.948 25.282z"/><path fill="#BFBFBF" d="M821.21 460.832l12.65-29.215 12.65 29.215z"/><path fill="#DADAD8" d="M824.615 460.812l10.947-25.282 10.948 25.282z"/><path fill="#A3A3A2" d="M880.244 460.832v-29.215h12.65zM913.978 460.832v-29.215h-16.867z"/><path fill="#8F8F8F" d="M846.51 460.832v-29.215h-12.65zM812.776 460.832l16.867-29.215h-16.867z"/><path fill="#DADAD8" d="M850.565 460.902l12.812-23.827 12.813 23.827z"/><path fill="#BFBFBF" d="M866.962 385l8.166 46.617h21.983L873.028 385zM854.416 385l-24.772 46.617h22.28L860.562 385z"/><path fill="#999" d="M863.377 431.617l16.867 29.215-5.117-29.215zM863.722 385l-.345 46.617h11.75L866.964 385z"/><path fill="#A3A3A2" d="M846.51 460.832l16.867-29.215h-11.454zM860.562 385l-8.638 46.617h11.453l.345-46.617z"/><path fill="#CCC" d="M525.593 620.857h101.202V460.902H525.593z"/><path fill="#BFBFBF" d="M525.593 460.832h101.202v-29.215H525.593z"/><path fill="#BFBFBF" d="M559.327 460.832l16.867-29.215 16.867 29.215zM593.061 460.832l12.65-29.215 12.651 29.215z"/><path fill="#DADAD8" d="M593.061 460.812l10.947-25.282 10.948 25.282z"/><path fill="#BFBFBF" d="M534.027 460.832l12.65-29.215 12.65 29.215z"/><path fill="#DADAD8" d="M537.432 460.812l10.947-25.282 10.948 25.282z"/><path fill="#A3A3A2" d="M593.061 460.832v-29.215h12.65zM626.795 460.832v-29.215h-16.867z"/><path fill="#8F8F8F" d="M559.327 460.832v-29.215h-12.65zM525.593 460.832l16.867-29.215h-16.867z"/><path fill="#DADAD8" d="M563.382 460.902l12.812-23.827 12.813 23.827z"/><path fill="#BFBFBF" d="M579.78 385l8.165 46.617h21.983L585.844 385zM567.233 385l-24.773 46.617h22.28L573.38 385z"/><path fill="#999" d="M576.194 431.617l16.867 29.215-5.117-29.215zM576.538 385l-.344 46.617h11.75L579.78 385z"/><path fill="#A3A3A2" d="M559.327 460.832l16.867-29.215H564.74zM573.379 385l-8.638 46.617h11.453l.344-46.617z"/><path d="M934.761 507.777c0-8.379-6.793-15.172-15.17-15.172 0 0-108.88-18.188-199.806-18.188-90.925 0-199.803 18.188-199.803 18.188-8.38 0-15.172 6.793-15.172 15.172v60.4h429.951v-60.4z" fill="#CCC"/><g transform="translate(525 494.553)"><mask id="b" fill="#fff"><use xlink:href="#a"/></mask><path fill="#CCC" mask="url(#b)" d="M.792 102.429h388.385V.464H.792z"/><path fill="#5D5D5D" mask="url(#b)" d="M.792 17.121h388.385V.464H.792z"/><path fill="#5D5D5D" mask="url(#b)" d="M9.081 87.148h83.676V.464H9.081zM152.948 87.148h83.676V.464h-83.676zM296.814 87.148h83.676V.464h-83.676z"/><path fill="#999" mask="url(#b)" d="M15.785 77.245h70.268V.464H15.785zM159.652 77.245h70.268V.464h-70.268zM303.518 77.245h70.268V.464h-70.268z"/><path fill="#CCC" mask="url(#b)" d="M.792 8.793h388.385V.465H.792z"/><path fill="#CCC" mask="url(#b)" d="M22.751 69.159h56.336V.464H22.751zM310.484 69.159h56.336V.464h-56.336zM166.617 69.159h56.336V.464h-56.336z"/></g><g transform="translate(474 384.553)"><g transform="translate(0 288)"><mask id="d" fill="#fff"><use xlink:href="#c"/></mask><path d="M491.571 12.934c0-6.72-5.448-12.167-12.166-12.167H12.167C5.447.767 0 6.214 0 12.934 0 19.653 5.447 25.1 12.167 25.1h467.238c6.718 0 12.166-5.447 12.166-12.166" fill="#95B256" mask="url(#d)"/></g><mask id="f" fill="#fff"><use xlink:href="#e"/></mask><path fill="#FFF" mask="url(#f)" d="M30.623 300.933h429.951v-87.224H30.623z"/><path fill="#ECE3D2" mask="url(#f)" d="M30.623 219.193h429.951v-21.607H30.623z"/><path fill="#ECE3D2" mask="url(#f)" d="M16.042 300.933h23.395V186.054H16.042zM451.761 300.933h23.393V186.054h-23.393z"/><path d="M427.614 354.834c0-6.72-5.447-12.167-12.166-12.167H75.75c-6.72 0-12.167 5.447-12.167 12.167 0 6.719 5.447 12.166 12.167 12.166h339.698c6.72 0 12.166-5.447 12.166-12.166" fill="#95B256" mask="url(#f)"/><path fill="#9A7459" mask="url(#f)" d="M78.798 308.223h333.6V272.8h-333.6z"/><path fill="#9A7459" mask="url(#f)" d="M78.799 354.834h20.67v-73.609h-20.67zM391.728 354.834h20.67v-73.609h-20.67z"/><path d="M419.899 262.18a3.859 3.859 0 0 0-3.86-3.858H75.159a3.859 3.859 0 0 0-3.86 3.859v21.238a3.86 3.86 0 0 0 3.86 3.86h340.881a3.86 3.86 0 0 0 3.86-3.86V262.18z" fill="#CC9D72" mask="url(#f)"/><path fill="#FFF" mask="url(#f)" d="M302.432 165.304h36.333v-43.551h-36.333z"/><path fill="#323232" mask="url(#f)" d="M306.015 128.286h29.167v-2.85h-29.167zM306.015 133.939h29.167v-2.849h-29.167zM306.015 139.593h29.167v-2.849h-29.167zM306.015 145.248h29.167v-2.85h-29.167zM306.015 150.902h29.167v-2.85h-29.167zM306.015 156.555h29.167v-2.849h-29.167zM306.015 162.209h29.167v-2.849h-29.167z"/><path fill="#FFF" mask="url(#f)" d="M157.203 173.093h36.333v-43.551h-36.333z"/><path fill="#323232" mask="url(#f)" d="M160.786 136.075h29.167v-2.85h-29.167zM160.786 141.728h29.167v-2.849h-29.167zM160.786 147.382h29.167v-2.849h-29.167zM160.786 153.037h29.167v-2.85h-29.167zM160.786 158.691h29.167v-2.85h-29.167zM160.786 164.344h29.167v-2.849h-29.167zM160.786 169.999h29.167v-2.849h-29.167z"/><path d="M481.087 169.163a3.859 3.859 0 0 0-3.859-3.859H13.97a3.859 3.859 0 0 0-3.86 3.86v24.562a3.86 3.86 0 0 0 3.86 3.86h462.866a4.25 4.25 0 0 0 4.251-4.252v-24.17z" fill="#ECE3D2" mask="url(#f)"/><path d="M442.599 187.585H47.089v-4.422a3.859 3.859 0 0 1 3.86-3.859h387.79a3.859 3.859 0 0 1 3.86 3.859v4.422z" fill="#000" mask="url(#f)"/><path d="M457.089 191.502c0-2.162-1.728-3.916-3.86-3.916H36.458c-2.131 0-3.858 1.754-3.858 3.916v6.084h424.49v-6.084z" fill="#FFF" mask="url(#f)"/></g></g></svg>