<svg width="1440" height="752" viewBox="0 0 1440 752" xmlns="http://www.w3.org/2000/svg" xmlns:xlink="http://www.w3.org/1999/xlink"><title>cathedral</title><defs><path id="a" d="M0 752h1500.672V0H0z"/></defs><g fill="none" fill-rule="evenodd"><path fill="#B1DBF6" d="M-.409 524.908h1440.082V-.001H-.409z"/><path fill="#A3A3A2" d="M1253.468 536.292h186.205V0h-186.205z"/><path fill="#A5A5A5" d="M1001.897 536.291h251.571V115.408h-251.571z"/><path fill="#ECE3D2" d="M795.744 536.291h206.153V155.908H795.744z"/><path fill="#C1BBB1" d="M329.055 536.291h206.153V69.908H329.055z"/><path fill="#A3A3A2" d="M-.409 552.275h336.666V0H-.409z"/><path fill="#8F8F8F" d="M-.409 752h1440.082V524.908H-.409z"/><path fill="#A9D163" d="M-.409 752h1440.082V608.01H-.409z"/><path fill="#999" d="M-.409 608.01h1440.082v-31.631H-.409z"/><path fill="#6B6B6B" d="M205.914 576.379h148.297V290.063H205.914zM850.882 576.379h148.297V334.891H850.882zM394.905 576.379h148.297V334.891H394.905z"/><path stroke="#4DC5FF" stroke-width="7" stroke-linecap="round" stroke-linejoin="round" d="M837.615 376l69.064-41.109L975.743 376z"/><path stroke="#4DC5FF" stroke-width="7" stroke-linecap="round" stroke-linejoin="round" d="M702.454 376l69.064-41.109L840.582 376z"/><path stroke="#4DC5FF" stroke-width="7" stroke-linecap="round" stroke-linejoin="round" d="M567.292 376l69.064-41.109L705.42 376z"/><path stroke="#4DC5FF" stroke-width="7" stroke-linecap="round" stroke-linejoin="round" d="M432.131 376l69.064-41.109L570.259 376zM453.274 334.89h486.71M438.577 311.908h516.104M453.274 376h486.71M453.274 397.908h486.71"/><path fill="#DADAD8" d="M291.807 576.378h161.467V233.985H291.807zM939.984 576.378h161.467V233.985H939.984z"/><g transform="translate(-61)"><path d="M1113.957 288.947H422.492l33.627-71.8a50.122 50.122 0 0 1 45.39-28.865h533.43a50.122 50.122 0 0 1 45.39 28.864l33.628 71.801zM1062.897 288.947l-35.93-100.665M1021.666 288.947l-35.93-100.665M980.435 288.947l-35.93-100.665M939.205 288.947l-35.93-100.665M897.974 288.947l-35.93-100.665M856.744 288.947l-23.268-100.665M815.513 288.947l-17.965-100.665M469.63 288.947l35.93-100.665" stroke="#4DC5FF" stroke-width="7" stroke-linecap="round" stroke-linejoin="round"/><path stroke="#4DC5FF" stroke-width="7" stroke-linecap="round" stroke-linejoin="round" d="M546.792 188.283l-35.93 100.665-62.63-54.962h640.729l-67.295 54.962-100.426-50.333-64.496 50.333-91.807-54.962-89.153 54.962 23.268-100.665M552.092 288.947l35.93-100.665M593.323 288.947l35.93-100.665M634.553 288.947l35.93-100.665M717.014 288.947l17.965-100.665M764.937 288.947V188.282"/><path stroke="#4DC5FF" stroke-width="7" stroke-linecap="round" stroke-linejoin="round" d="M675.784 288.947l-62.764-55.184-102.158 55.184"/><mask id="b" fill="#fff"><use xlink:href="#a"/></mask><path fill="#ECE3D2" mask="url(#b)" d="M47.826 524.908h144.758v-455H47.826z"/><path fill="#B1DBF6" mask="url(#b)" d="M102.069 138.365h59.516V92.451h-59.516zM102.069 211.24h59.516v-45.914h-59.516zM102.069 284.114h59.516V238.2h-59.516zM102.069 356.988h59.516v-45.914h-59.516zM102.069 429.863h59.516v-45.914h-59.516zM102.069 502.737h59.516v-45.914h-59.516zM18.069 138.365h59.516V92.451H18.069zM18.069 211.24h59.516v-45.914H18.069zM18.069 284.114h59.516V238.2H18.069zM18.069 356.988h59.516v-45.914H18.069zM18.069 429.863h59.516v-45.914H18.069zM18.069 502.737h59.516v-45.914H18.069z"/><path fill="#B1AA9E" mask="url(#b)" d="M102.069 138.365h5.516V92.451h-5.516zM102.069 211.24h5.516v-45.914h-5.516zM102.069 284.114h5.516V238.2h-5.516zM102.069 356.988h5.516v-45.914h-5.516zM102.069 429.863h5.516v-45.914h-5.516zM102.069 502.737h5.516v-45.914h-5.516z"/><path d="M352.807 622.323v16.953c103.97 0 170.335.706 206.835 9.85s384.913 44.245 602.809 2.8v-29.603H352.807z" fill="#DADAD8" mask="url(#b)"/><path d="M352.807 608.01v16.254c103.97 0 170.335.706 206.835 9.85s384.913 44.245 602.809 2.8V608.01H352.807z" fill="#4DC5FF" mask="url(#b)"/><path fill="#DADAD8" mask="url(#b)" d="M341.063 639.276h11.744V608.01h-11.744zM1150.706 641.737h11.744V608.01h-11.744z"/><path fill="#BFBFBF" mask="url(#b)" d="M1162.45 752h338.222V608.01H1162.45zM0 752h338.222V608.01H0z"/><path d="M420.671 686.44c0-7.108 5.762-12.87 12.869-12.87 7.109 0 12.87 5.762 12.87 12.87h-25.739zM802.643 721.373c0-7.107 5.762-12.869 12.87-12.869s12.87 5.762 12.87 12.87h-25.74zM1110.981 692.874c0-7.107 5.762-12.869 12.87-12.869s12.87 5.762 12.87 12.869h-25.74z" fill="#5AB55C" mask="url(#b)"/><path d="M1047.31 714.938c0-7.106 5.761-12.869 12.868-12.869 7.11 0 12.87 5.763 12.87 12.87h-25.739z" fill="#FFF" mask="url(#b)"/></g><path d="M195.105 669.351c0 11.598-19.474 21-43.497 21s-43.497-9.402-43.497-21 19.474-20.999 43.497-20.999 43.497 9.401 43.497 21" fill="#815130"/><path d="M168.107 265.25c0-9.112-7.387-16.5-16.5-16.5-9.111 0-16.5 7.388-16.5 16.5v404.102h33V265.25z" fill="#9A7459"/><path d="M303.626 319.799c0 79.219-65.16 143.437-145.54 143.437-80.377 0-145.538-64.218-145.538-143.437V192.002c0-79.218 65.16-143.436 145.538-143.437 80.38 0 145.54 64.219 145.54 143.437v127.797z" fill="#5AB55C"/><path d="M303.626 319.799c0 79.219-65.16 143.437-145.54 143.437-80.377 0-145.538-64.218-145.538-143.437V192.002c0-79.218 65.16-143.436 145.538-143.437 80.38 0 145.54 64.219 145.54 143.437v127.797z" stroke="#5AB55C" stroke-width="30" stroke-linecap="round" stroke-linejoin="round" stroke-dasharray="0,27.702"/><path d="M268.714 323.62c0 83.959-45.846 152.02-117.105 152.02C67.652 475.64-.41 407.579-.41 323.622V188.18c0-83.951 68.05-152.02 152-152.02h.018c71.259 0 117.105 68.062 117.105 152.02v135.44z" fill="#A9D163"/><path d="M268.714 323.62c0 83.959-45.846 152.02-117.105 152.02C67.652 475.64-.41 407.579-.41 323.622V188.18c0-83.951 68.05-152.02 152-152.02h.018c71.259 0 117.105 68.062 117.105 152.02v135.44z" stroke="#A9D163" stroke-width="30" stroke-linecap="round" stroke-linejoin="round" stroke-dasharray="0,28.008"/><path d="M235.079 323.62c0 83.959-53.262 152.02-83.471 152.02-83.957 0-152.017-68.061-152.017-152.018V188.18c0-83.951 68.05-152.02 152-152.02h.017c42.776 0 83.471 68.062 83.471 152.02v135.44z" fill="#D0D766"/><path d="M235.079 323.62c0 83.959-53.262 152.02-83.471 152.02-83.957 0-152.017-68.061-152.017-152.018V188.18c0-83.951 68.05-152.02 152-152.02h.017c42.776 0 83.471 68.062 83.471 152.02v135.44z" stroke="#D0D766" stroke-width="30" stroke-linecap="round" stroke-linejoin="round" stroke-dasharray="0,28.029"/><path d="M1296.965 669.351c0 11.598-19.474 21-43.497 21s-43.497-9.402-43.497-21 19.474-20.999 43.497-20.999 43.497 9.401 43.497 21" fill="#815130"/><path d="M1269.967 265.25c0-9.112-7.387-16.5-16.5-16.5-9.111 0-16.5 7.388-16.5 16.5v404.102h33V265.25z" fill="#9A7459"/><path d="M1405.486 319.799c0 79.219-65.16 143.437-145.54 143.437-80.377 0-145.538-64.218-145.538-143.437V192.002c0-79.218 65.16-143.436 145.539-143.437 80.379 0 145.539 64.219 145.539 143.437v127.797z" fill="#5AB55C"/><path d="M1405.486 319.799c0 79.219-65.16 143.437-145.54 143.437-80.377 0-145.538-64.218-145.538-143.437V192.002c0-79.218 65.16-143.436 145.539-143.437 80.379 0 145.539 64.219 145.539 143.437v127.797z" stroke="#5AB55C" stroke-width="30" stroke-linecap="round" stroke-linejoin="round" stroke-dasharray="0,27.702"/><path d="M1370.574 323.62c0 83.959-45.846 152.02-117.106 152.02-83.956 0-152.017-68.061-152.017-152.018V188.18c0-83.951 68.05-152.02 152-152.02h.017c71.26 0 117.106 68.062 117.106 152.02v135.44z" fill="#A9D163"/><path d="M1370.574 323.62c0 83.959-45.846 152.02-117.106 152.02-83.956 0-152.017-68.061-152.017-152.018V188.18c0-83.951 68.05-152.02 152-152.02h.017c71.26 0 117.106 68.062 117.106 152.02v135.44z" stroke="#A9D163" stroke-width="30" stroke-linecap="round" stroke-linejoin="round" stroke-dasharray="0,28.008"/><path d="M1336.939 323.62c0 83.959-53.262 152.02-83.471 152.02-83.957 0-152.017-68.061-152.017-152.018V188.18c0-83.951 68.05-152.02 152-152.02h.017c42.776 0 83.47 68.062 83.47 152.02v135.44z" fill="#D0D766"/><path d="M1336.939 323.62c0 83.959-53.262 152.02-83.471 152.02-83.957 0-152.017-68.061-152.017-152.018V188.18c0-83.951 68.05-152.02 152-152.02h.017c42.776 0 83.47 68.062 83.47 152.02v135.44z" stroke="#D0D766" stroke-width="30" stroke-linecap="round" stroke-linejoin="round" stroke-dasharray="0,28.029"/></g></svg>