<svg width="1440" height="752" viewBox="0 0 1440 752" xmlns="http://www.w3.org/2000/svg"><title>chinatown-piano</title><g fill="none" fill-rule="evenodd"><path d="M888.763 706.291H549.065c-6.719 0-12.167 5.448-12.167 12.167 0 6.72 5.448 12.168 12.167 12.168h339.698c6.719 0 12.167-5.448 12.167-12.168 0-6.719-5.448-12.167-12.167-12.167M955.901 652.461h-469.65c-6.72 0-12.167 5.448-12.167 12.167 0 6.72 5.447 12.167 12.167 12.167h469.65c6.719 0 12.167-5.447 12.167-12.167 0-6.719-5.448-12.167-12.167-12.167" fill="#999"/><path d="M919.64 472.929H630.199l10.5 18.647-14.298 20.354 4.334 16.665H504.86v53.889h429.951v-94.383c0-8.38-6.792-15.172-15.171-15.172" fill="#333"/><path d="M720.503 485.044h36.333v43.551h-36.333v-43.551z" fill="#FFF"/><path d="M724.086 488.727h29.167v2.849h-29.167v-2.849zM724.086 494.381h29.167v2.849h-29.167v-2.849zM724.086 500.035h29.167v2.849h-29.167v-2.849zM724.086 505.689h29.167v2.85h-29.167v-2.85zM724.086 511.343h29.167v2.85h-29.167v-2.85zM724.086 516.997h29.167v2.849h-29.167v-2.849zM724.086 522.651h29.167v2.849h-29.167v-2.849z" fill="#323232"/><path d="M770.169 496.939h36.333v43.551h-36.333v-43.551z" fill="#FFF"/><path d="M773.752 500.622h29.167v2.849h-29.167v-2.849zM773.752 506.276h29.167v2.849h-29.167v-2.849zM773.752 511.93h29.167v2.849h-29.167v-2.849zM773.752 517.584h29.167v2.85h-29.167v-2.85zM773.752 523.238h29.167v2.849h-29.167v-2.849zM773.752 528.893h29.167v2.849h-29.167v-2.849zM773.752 534.547h29.167v2.849h-29.167v-2.849z" fill="#323232"/><path d="M513.674 582.484h412.323v76.183H513.674v-76.183z" fill="#1B1B1B"/><path d="M694.901 664.224l-31.5-81.74H513.674v24.3l130.162 57.44h51.065" fill="#FAB514"/><path d="M511.947 600.5s108.954-16.918 131.889 63.724H511.947V600.5M511.947 600.5s108.954-16.918 131.889 63.724" fill="#FFF"/><path d="M490.28 549.345h23.394v114.879H490.28V549.345zM925.997 549.345h23.394V655.5h-23.394V549.345z" fill="#333"/><path d="M955.324 532.454a3.859 3.859 0 0 0-3.859-3.859H488.206a3.858 3.858 0 0 0-3.858 3.859v24.564a3.858 3.858 0 0 0 3.858 3.859h462.867a4.25 4.25 0 0 0 4.251-4.252v-24.171" fill="#858585"/><path d="M484.348 532.454v24.564c0 1.756 1.18 3.222 2.786 3.689h144.267l-15.348-32.112H488.206a3.858 3.858 0 0 0-3.858 3.859" fill="#FAB514"/><path d="M916.836 550.876h-395.51v-4.422a3.859 3.859 0 0 1 3.86-3.859h387.79a3.859 3.859 0 0 1 3.86 3.859v4.422" fill="#1B1B1B"/><path d="M931.326 554.735a3.86 3.86 0 0 0-3.859-3.859H510.695a3.86 3.86 0 0 0-3.859 3.859v5.994h424.49v-5.994M699.901 637c.5-29 39-54.516 67.5-54.516h158.596v81.74H699.901V637" fill="#FFF"/><path d="M925.997 664.224v-28.498L949.391 626v38.224h-23.394" fill="#FAB514"/><path d="M504.86 488.101v40.494h125.875l-4.334-16.665 14.298-20.354-10.5-18.647H520.032c-8.379 0-15.172 6.792-15.172 15.172" fill="#FBC851"/><path d="M553.036 636.091h333.6v35.423h-333.6v-35.423z" fill="#333"/><path d="M553.036 644.515h20.67v73.61h-20.67v-73.61zM865.965 644.515h20.67v73.61h-20.67v-73.61z" fill="#333"/><path d="M894.135 625.472a3.859 3.859 0 0 0-3.859-3.86H549.395a3.86 3.86 0 0 0-3.859 3.86v21.238a3.859 3.859 0 0 0 3.859 3.859h340.881a3.858 3.858 0 0 0 3.859-3.859v-21.238" fill="#858585"/><path d="M657.401 472.929c0 14.359 11.641 26 26 26 14.36 0 26-11.641 26-26h-52" fill="#28D2FF"/></g></svg>