<svg width="1440" height="752" viewBox="0 0 1440 752" xmlns="http://www.w3.org/2000/svg"><title>chinatown</title><g fill="none" fill-rule="evenodd"><path fill="#C7C7C4" d="M.959 531.741h957.008v81.675H.959z"/><path fill="#A3A4A5" d="M49.013 0h327.021v554.579H49.013z"/><path fill="#D9DADC" d="M99.854 205.153H299.64v288H99.854z"/><path fill="#C7C7C4" d="M122.853 402.307h60.311V466h-60.311zM216.331 402.307h60.311V466h-60.311z"/><path fill="#6D6D6E" d="M.959 0h48.054v554.579H.959z"/><path d="M49.054 554.579L1.041 510.526 1 570.753l48.054-16.174z" fill="#C7C7C4"/><path fill="#91B7C5" d="M1054.003 0h386.957v498.929h-386.957z"/><path d="M1383.164 364.443l-311.163-210.131v-53.655l311.163 210.131v53.655zM1383.164 403.38l-311.163-210.13v-17.518l311.163 210.131v17.517z" opacity=".7" fill="#FFF"/><path d="M1054.003 0v498.929h386.957V0h-386.957zm107.289 444.747h-89.291V308.885h89.291v135.862zm0-151.745h-89.291V157.139h89.291v135.863zm0-151.128h-89.291v-41.217h89.291v41.217zm104.16 302.873h-89.291V308.885h89.291v135.862zm0-151.745h-89.291V157.139h89.291v135.863zm0-151.128h-89.291v-41.217h89.291v41.217zm104.16 302.873h-89.291V308.885h89.291v135.862zm0-151.745h-89.291V157.139h89.291v135.863zm0-151.128h-89.291v-41.217h89.291v41.217z" fill="#6D6D6E"/><path fill="#C7C7C4" d="M1054.003 0h386.957v84h-386.957z"/><path fill="#F04E3B" d="M1387.164 84h53.795v375.576h-53.795z"/><path fill="#C7C7C4" d="M1054.003 459.576h386.957v153.841h-386.957z"/><path fill="#C7C7C4" d="M.959 582.582h1440V752H.959z"/><g fill="#A3A4A5"><path d="M.959 598.633h1438.205v8.151H.959z"/><path d="M1409.485 752h-8.152l-162.004-153.367h8.152L1409.485 752zM1207.814 752h-8.151l-162.004-153.367h8.152L1207.814 752zM1006.144 752h-8.152L835.988 598.633h8.152L1006.144 752zM804.473 752h-8.152L634.317 598.633h8.152L804.473 752zM602.803 752h-8.153L432.646 598.633h8.153L602.803 752zM401.132 752h-8.152L230.976 598.633h8.152L401.132 752zM199.461 752h-8.151L29.306 598.633h8.151L199.461 752z"/></g><path d="M1322.295 555.78c0-7.107 5.762-12.87 12.869-12.87s12.869 5.763 12.869 12.87M1145.772 516.912c0-7.107 5.762-12.87 12.869-12.87s12.869 5.763 12.869 12.87M79.243 707.883c0-7.106 5.762-12.87 12.869-12.87s12.869 5.763 12.869 12.87M278.192 585.94c0-7.106 5.762-12.87 12.869-12.87s12.869 5.763 12.869 12.87M1158.642 648.595c0-7.107 5.762-12.87 12.869-12.87s12.869 5.763 12.869 12.87" fill="#A7A7A5"/><path fill="#D9DADC" d="M398.536 0h655.467v598.633H398.536z"/><path fill="#C7C7C4" d="M122.853 234.307h153.789V372H122.853z"/><path fill="#BEBEBA" d="M268.042 234.307h8.6V372h-8.6zM268.042 402.307h8.6V466h-8.6zM174.564 402.307h8.6V466h-8.6z"/><path d="M398.534 554.579h.001V0h-48.013v540.651l-.04-.012.04 13.94 48.014 44.054v-44.054h-.002zM469.164 84h514v453.576h-514z" fill="#6D6D6E"/><path fill="#91B7C5" d="M491.829 104H960.5v413.576H491.829z"/><path fill="#585859" d="M946.305 104h14.194v413.576h-14.194z"/><path fill="#F04E3B" d="M582.802 171.154h286.725v194.99H582.802z"/><path d="M960.5 478.639L491.829 157.655V104L960.5 424.984v53.655zM960.5 517.576L491.829 196.593v-17.518L960.5 500.059v17.517z" opacity=".7" fill="#FFF"/><path d="M1360.766 379.355c-.973-.243-2.177-.413-3.613-.51a69.955 69.955 0 0 0-4.708-.147 69.53 69.53 0 0 0-4.745.146c-1.412.098-2.604.268-3.578.511v-4.599c.974.244 2.166.402 3.577.475 1.412.073 2.993.11 4.745.11 1.704 0 3.273-.037 4.709-.11 1.436-.073 2.64-.231 3.613-.475v4.6zm-5.329 49.932c0 1.168-.158 2.166-.474 2.993-.316.828-.949 1.497-1.898 2.008-.949.51-2.263.888-3.942 1.131-1.679.244-3.881.365-6.607.365.341-2.482-.291-4.526-1.898-6.132 2.142.438 3.894.706 5.256.803 1.363.098 2.422.037 3.176-.182.754-.22 1.278-.596 1.57-1.132.292-.535.438-1.24.438-2.117V397.46c-1.899.05-3.529.122-4.891.22a37.388 37.388 0 0 0-3.723.437v-4.599c1.314.244 2.786.402 4.416.475 1.63.073 3.638.11 6.023.11 2.384 0 4.319-.037 5.803-.11a29.577 29.577 0 0 0 4.125-.475v4.6a35.591 35.591 0 0 0-3.285-.439 74.282 74.282 0 0 0-4.089-.219v31.828zm-42.047-56.94c.68.341 1.01.718.985 1.132-.024.414-.377.693-1.059.84-.486.097-1.082.596-1.788 1.496s-1.424 1.959-2.154 3.175a60.714 60.714 0 0 1-3.358 5.074 139.02 139.02 0 0 1-4.525 5.803 9.976 9.976 0 0 0-2.227-1.57 7.36 7.36 0 0 0-2.664-.766c.632-.389 1.228-.79 1.788-1.204.56-.414 1.156-.937 1.789-1.57a31.419 31.419 0 0 0 2.08-2.336c.754-.924 1.667-2.092 2.737-3.504.682-.876 1.4-2.104 2.154-3.686a51.239 51.239 0 0 0 2.08-5.074c.584.341 1.23.694 1.935 1.059.706.365 1.448.742 2.226 1.131zm-3.505 63.072h-4.525a71.01 71.01 0 0 0 .474-5.62c.073-1.753.11-3.675.11-5.768v-20.367a66.61 66.61 0 0 1-2.701 3.504 139.962 139.962 0 0 1-3.066 3.577 23.937 23.937 0 0 0-2.263-1.314 106.27 106.27 0 0 0-2.264-1.095 41.601 41.601 0 0 0 5.22-4.745c1.63-1.752 3.37-3.99 5.22-6.716a56.125 56.125 0 0 0 1.678-2.518 18.68 18.68 0 0 0 1.095-2.008 23.2 23.2 0 0 0 .767-1.861c.219-.608.426-1.302.62-2.08.536.389 1.108.717 1.716.985.608.268 1.156.499 1.643.693.876.292 1.301.67 1.277 1.132-.024.462-.329.815-.912 1.058a1.15 1.15 0 0 0-.438.292c-.147.146-.366.426-.658.84-.292.414-.68.973-1.168 1.679a77.4 77.4 0 0 0-1.824 2.81v37.522zm20.44-41.245c2.045-.048 3.918-.121 5.621-.219a41.58 41.58 0 0 0 4.673-.51v4.525a28.885 28.885 0 0 0-2.482-.328c-.828-.073-1.716-.146-2.665-.22a57.269 57.269 0 0 0-3.176-.145 203.59 203.59 0 0 0-4.16-.037c-3.213 0-5.828.061-7.848.183-2.02.122-3.881.304-5.584.547v-4.526a50.29 50.29 0 0 0 5.037.511c1.8.098 4.039.17 6.716.22v-9.49c-1.217 0-2.276.024-3.176.072-.9.05-1.716.098-2.446.146-.73.05-1.423.11-2.08.183s-1.35.182-2.08.328v-4.672c.73.146 1.423.256 2.08.329.657.073 1.35.134 2.08.182.73.05 1.546.098 2.446.146.9.05 1.959.073 3.176.073 0-5.11-.17-8.516-.512-10.22 1.071.195 1.972.317 2.702.365.73.05 1.508.073 2.336.073.632 0 .973.195 1.022.584.048.39-.195.78-.73 1.168-.293.244-.524.597-.694 1.059-.17.462-.255.961-.255 1.496v5.475c1.216 0 2.275-.024 3.175-.073.9-.048 1.716-.097 2.446-.146.73-.048 1.435-.11 2.117-.182a23.656 23.656 0 0 0 2.116-.329v4.672a23.656 23.656 0 0 0-2.117-.328 52.942 52.942 0 0 0-2.117-.183c-.73-.048-1.545-.097-2.445-.146-.9-.048-1.959-.073-3.176-.073v9.49zm-4.234 17.812c-2.579.05-4.684.122-6.314.22-1.63.097-3.2.267-4.708.51v-4.526c1.508.244 3.078.414 4.708.511 1.63.098 3.735.17 6.314.22a175.922 175.922 0 0 0-.218-5.585c-.098-1.728-.22-3.054-.366-3.979 1.023.244 1.935.402 2.738.475.803.073 1.691.11 2.665.11.68 0 1.046.133 1.094.4.05.269-.218.573-.803.913-.632.341-.948.925-.948 1.752v5.913a159.35 159.35 0 0 0 6.168-.219 44.267 44.267 0 0 0 4.635-.51v4.525a44.267 44.267 0 0 0-4.635-.51 159.35 159.35 0 0 0-6.168-.22v10.658c2.044-.292 4.087-.62 6.131-.985a122.35 122.35 0 0 0 6.206-1.278 7.077 7.077 0 0 0-.548 2.008 11.029 11.029 0 0 0-.036 2.007 524.83 524.83 0 0 0-10.002 1.497c-2.87.462-5.401.876-7.591 1.24-2.19.366-4.1.694-5.731.986-1.63.292-3.054.56-4.27.803-.147-1.703-.658-3.358-1.534-4.964 2.288-.048 4.514-.133 6.68-.255 2.166-.122 4.343-.304 6.534-.548v-11.169zM1221.595 398.7c-.73 2.92-1.897 5.95-3.504 9.089-1.606 3.139-3.662 6.278-6.168 9.417-2.506 3.139-5.45 6.217-8.833 9.234-3.382 3.018-7.24 5.865-11.57 8.541-.39-1.022-.889-1.837-1.497-2.445-.608-.608-1.448-1.18-2.518-1.716a64.857 64.857 0 0 0 11.752-7.117c3.602-2.75 6.74-5.816 9.418-9.198a46.848 46.848 0 0 0 6.496-10.987c1.655-3.942 2.677-8.151 3.066-12.629.195-2.238.353-4.148.475-5.73.122-1.582.195-3.054.219-4.417a41.98 41.98 0 0 0-.146-4.234 152.78 152.78 0 0 0-.548-5.256c2.093.487 4.137.682 6.132.584.585 0 .925.195 1.023.584.097.39-.098.755-.585 1.095-.292.244-.486.645-.583 1.205-.098.56-.17 1.326-.22 2.3l-.182 2.737a113.18 113.18 0 0 1-.292 3.504 452.77 452.77 0 0 0-.365 3.905 186.802 186.802 0 0 1-.401 4.015 57.35 57.35 0 0 0 3.139 7.848 72.1 72.1 0 0 0 4.197 7.482 77.316 77.316 0 0 0 4.928 6.826 66.834 66.834 0 0 0 5.329 5.876 131.976 131.976 0 0 0 4.38 4.088 50.341 50.341 0 0 0 3.54 2.884 31.024 31.024 0 0 0 3.212 2.08 29.243 29.243 0 0 0 3.394 1.606c-1.703.974-3.163 2.507-4.38 4.6a73.2 73.2 0 0 1-3.613-2.665 71.89 71.89 0 0 1-6.899-6.205 129.527 129.527 0 0 1-3.723-3.979c-3.455-3.796-6.387-7.604-8.796-11.424-2.409-3.82-4.368-7.653-5.877-11.498zM1123.582 403.372h13.577v-4.818h-13.578v4.818zm0-8.176h13.577v-4.453h-13.578v4.453zm14.307 20.805h-32.265v10.074h32.265v-10.074zm-41.828-34.09c.097 4.963.121 9.429.072 13.395-.048 3.966-.182 7.555-.401 10.767-.219 3.212-.511 6.108-.876 8.687a68.654 68.654 0 0 1-1.387 7.19 64.065 64.065 0 0 1-1.935 6.315 120.421 120.421 0 0 1-2.409 6.06 8.12 8.12 0 0 0-2.299-1.315c-.803-.292-1.813-.56-3.03-.803a43.348 43.348 0 0 0 2.994-4.964c.876-1.703 1.63-3.6 2.263-5.694.632-2.092 1.167-4.453 1.605-7.08.439-2.629.755-5.695.95-9.199.194-3.504.28-7.494.255-11.972-.024-4.477-.158-9.636-.402-15.476.633.098 1.51.183 2.629.256 1.119.073 2.7.122 4.745.146a1611.837 1611.837 0 0 0 19.783.11 17.925 17.925 0 0 0-1.935-3.578c-.754-1.07-1.764-2.19-3.03-3.358l4.089-2.336a57.88 57.88 0 0 1 2.664 4.234c.803 1.412 1.691 3.09 2.665 5.037a1343.827 1343.827 0 0 0 18.067-.11c1.874-.023 3.334-.072 4.38-.145 1.046-.073 1.861-.158 2.446-.256v4.526c-.633-.048-1.448-.11-2.446-.182a67.714 67.714 0 0 0-3.723-.146c-1.484-.024-3.285-.049-5.402-.073a662.44 662.44 0 0 0-7.483-.037h-5.329v5.621c2.483 0 4.66-.012 6.534-.036 1.874-.024 3.54-.073 5-.146s2.738-.158 3.833-.256a45.122 45.122 0 0 0 3.03-.365c-.098.584-.183 1.12-.256 1.606a24.138 24.138 0 0 0-.182 1.643 43.393 43.393 0 0 0-.11 2.117c-.024.803-.037 1.813-.037 3.03a1641.585 1641.585 0 0 0 9.198-.585v4.672a86.452 86.452 0 0 0-4.489-.328 364.295 364.295 0 0 1-4.709-.256c0 2.044.037 3.736.11 5.074.073 1.338.183 2.421.329 3.248-1.12-.097-2.24-.182-3.359-.255a79.736 79.736 0 0 0-3.759-.146c-1.387-.024-2.98-.06-4.782-.11-1.8-.048-3.917-.073-6.35-.073v5.986h6.277c1.85 0 3.541-.012 5.074-.036 1.533-.024 2.932-.049 4.197-.073 1.266-.024 2.458-.037 3.577-.037a5.95 5.95 0 0 0-.219 1.57v13.76c0 1.266.025 2.385.073 3.358.05.974.17 2.069.366 3.285h-5.037v-4.526h-32.267v5.475h-4.964c.146-1.216.256-2.311.329-3.285.073-.973.11-2.068.11-3.285v-12.41c0-.924-.025-1.679-.073-2.263a9.306 9.306 0 0 0-.293-1.679c1.12 0 2.263.013 3.432.037 1.168.024 2.47.049 3.905.073 1.436.024 3.066.036 4.891.036h6.388v-5.986h-5.439c-1.582 0-3.017.025-4.307.073-1.29.05-2.506.11-3.65.183-1.144.073-2.3.182-3.467.328v-4.088c1.168.098 2.323.183 3.467.256 1.144.073 2.372.122 3.687.146 1.314.024 2.761.049 4.343.073 1.582.024 3.37.036 5.366.036v-4.818h-6.79c-5.353 0-10.365.22-15.037.657v-4.672c4.672.438 9.684.657 15.038.657h6.789v-4.453c-2.385 0-4.417.013-6.096.037-1.679.024-3.151.073-4.417.146a176.57 176.57 0 0 0-3.321.219c-.949.073-1.886.182-2.81.328v-4.745c.924.146 1.861.268 2.81.365.949.098 2.056.183 3.322.256 1.265.073 2.737.122 4.416.146 1.679.024 3.71.036 6.096.036v-5.62h-23.287z" fill="#6D8994"/><path d="M136.082 92.579c-4.111 0-7.641-1.605-9.985-4.626-3.237-4.169-3.699-10.468-1.15-15.674 2.625-5.36 7.719-8.434 13.977-8.434 13.284 0 18.397 5.686 23.342 11.185 1.692 1.88 3.44 3.824 5.578 5.618 3.123 2.621 7.741 3.255 11.765 1.619 4.086-1.663 6.695-5.267 7.157-9.885a3.571 3.571 0 0 1 3.906-3.197 3.57 3.57 0 0 1 3.196 3.906c-.723 7.231-5.048 13.133-11.569 15.786-6.543 2.664-13.839 1.604-19.042-2.761-2.522-2.117-4.528-4.346-6.297-6.313-4.605-5.121-7.933-8.821-18.036-8.821-4.695 0-6.756 2.779-7.567 4.435-1.335 2.726-1.177 6.158.378 8.16 1.319 1.701 3.495 2.251 6.463 1.634a3.569 3.569 0 0 1 1.452 6.988c-1.226.254-2.42.38-3.568.38" fill="#FBC851"/><path d="M196.893 90.295H174.52a3.569 3.569 0 0 1 0-7.138h22.373a3.57 3.57 0 0 1 0 7.138" fill="#FBC851"/><path d="M187.156 81.299c0 5.378 4.36 9.737 9.737 9.737 5.378 0 9.738-4.359 9.738-9.737V67.128c0-5.378-4.36-9.738-9.738-9.738-5.377 0-9.737 4.36-9.737 9.738v14.171" fill="#FBC851"/><path d="M198.258 82.937a5.265 5.265 0 0 1-5.244-5.79c1.005-10.048 4.954-18.189 11.119-22.921 4.787-3.673 10.78-5.147 16.871-4.152a8.092 8.092 0 0 1 6.737 7.17 8.091 8.091 0 0 1-5.18 8.367l-8.709 3.293a5.266 5.266 0 0 1-6.614-2.657c-1.97 3.054-3.266 7.141-3.748 11.949a5.264 5.264 0 0 1-5.232 4.741" fill="#FBC851"/><path d="M199.957 69.245c0 5.4 4.377 9.777 9.777 9.777 5.4 0 9.777-4.377 9.777-9.777v-6.018c0-5.399-4.377-9.777-9.777-9.777-5.4 0-9.777 4.378-9.777 9.777v6.018M126.879 82.887a3.568 3.568 0 0 1-3.561-3.84c.423-5.56 4.137-9.882 10.188-11.857 8.615-2.812 21.875-.345 30.55 9.81a3.568 3.568 0 1 1-5.425 4.636c-6.57-7.689-16.708-9.687-22.911-7.662-2.273.743-5.035 2.319-5.286 5.615a3.57 3.57 0 0 1-3.555 3.298" fill="#FBC851"/><path d="M45 0h61.686v752H45V0z" fill="#F04E3B"/><path d="M45 0h21.179v752H45V0z" fill="#CB3822"/><path d="M129.885 102.644h83.996v103.495h-83.996V102.644z" fill="#E0C38F"/><path d="M129.885 102.644h41.997v103.495h-41.997V102.644z" fill="#C2B779"/><path d="M235.149 105.157c0 8.284-6.715 15-15 15H108.645c-8.284 0-15-6.716-15-15 0-8.284 6.716-15 15-15h111.504c8.285 0 15 6.716 15 15" fill="#F04E3B"/><path d="M69.888 98.407a8.25 8.25 0 0 0 8.25 8.251h89.994a8.25 8.25 0 1 0 0-16.501H78.138a8.25 8.25 0 0 0-8.25 8.25M120.829 206.139a6.749 6.749 0 0 0 6.749 6.749h88.609a6.749 6.749 0 1 0 0-13.498h-88.609a6.749 6.749 0 0 0-6.749 6.749" fill="#F04E3B"/></g></svg>