<svg width="1440" height="752" viewBox="0 0 1440 752" xmlns="http://www.w3.org/2000/svg"><title>creekside</title><g fill="none" fill-rule="evenodd"><path d="M-1.61-.251h1441.894v258.585H-1.61V-.25z" fill="#28D2FF"/><path d="M548.728 217.136c96.16-23.247 136.274-78.461 204.801-49.402 68.528 29.06 121.792 62.48 154.8 81.367 33.01 18.892 0 49.404 0 49.404l-372.2-17.437 12.599-63.932" fill="#135156"/><path d="M-1.61 251.434c76.732-32.041 214.906-98.126 274.981-120.155 60.076-22.028 89.405-5.197 128.161 28.037 50.063 42.929 102.518 5.354 143.008 52.067 28.627 33.027 44.742 68.087 174.798 68.087 119.707 0 286.955 50.997 423.126-77.225 122.153-115.022 180.073-74.97 221.49-38.924 41.415 36.046 76.33 42.054 76.33 42.054v126.163H-1.61v-80.104" fill="#1B6C72"/><path d="M-1.61 314.406h1441.894V664.83H-1.61V314.406z" fill="#28D2FF"/><path d="M-1.61 314.406h1441.894v56.073H-1.61v-56.073z" fill="#3499DF"/><path d="M-1.61 312.488h1441.894v50.568H-1.61v-50.568z" fill="#91B7C5"/><path d="M146.027 150.992h64.12v161.496h-64.12V150.992z" fill="#6D8994"/><path d="M83.845 258.072h64.12v54.416h-64.12v-54.416zM-1.61 175.693h64.12v136.795H-1.61V175.693z" fill="#6D8994"/><path d="M-1.61 543.045h1441.894V752.72H-1.61V543.045z" fill="#C7C7C4"/><path d="M1080.324 684.106c0-7.117 5.769-12.888 12.885-12.888s12.885 5.77 12.885 12.888" fill="#ECECEB"/><path d="M204.083 592.113c0-7.117 5.77-12.886 12.885-12.886 7.116 0 12.886 5.77 12.886 12.886M1254.122 705.131c0-7.117 5.77-12.887 12.885-12.887 7.116 0 12.886 5.77 12.886 12.887" fill="#A7A7A5"/><path d="M218.388 710.923c0-7.117 5.77-12.886 12.885-12.886 7.116 0 12.886 5.77 12.886 12.886" fill="#ECECEB"/><path d="M1436.586 46.334c0 9.54-7.733 17.272-17.271 17.272h-126.152c-9.54 0-17.271-7.733-17.271-17.272 0-9.538 7.731-17.27 17.271-17.27h126.152c9.538 0 17.27 7.732 17.27 17.27" fill="#D7F4FF"/><path d="M1233.316 78.547c0 8.804 7.138 15.942 15.942 15.942h84.28c8.804 0 15.942-7.138 15.942-15.942 0-8.807-7.138-15.944-15.942-15.944h-84.28c-8.804 0-15.942 7.137-15.942 15.944" fill="#D7F4FF"/><path d="M1281.317 78.547c0 8.804-7.138 15.942-15.942 15.942h-21.609c-8.804 0-15.942-7.138-15.942-15.942 0-8.805 7.138-15.942 15.942-15.942h21.61c8.803 0 15.941 7.137 15.941 15.942M1308.719 46.334c0 9.54-7.732 17.272-17.272 17.272-9.537 0-17.269-7.733-17.269-17.272 0-9.538 7.732-17.27 17.27-17.27 9.54 0 17.27 7.732 17.27 17.27" fill="#FFF"/><path d="M979.72 79.548c0-8.784-7.12-15.904-15.904-15.904-8.784 0-15.905 7.12-15.905 15.904 0 8.785 7.121 15.904 15.905 15.904 8.783 0 15.903-7.119 15.903-15.904" fill="#D7F4FF"/><path d="M991.104 245.137c79.648-20.035 112.875-67.619 169.636-42.576 56.76 25.045 100.878 53.846 128.219 70.126 27.341 16.279 0 42.576 0 42.576l-308.29-15.027 10.435-55.099" fill="#135156"/><path d="M1638.859 413.863v8.26H885.602a8.26 8.26 0 0 1 0-16.52l753.257-.001v8.26" fill="#3499DF"/><path d="M965.382 181.234c0 87.128 70.63 157.758 157.755 157.758s157.755-70.63 157.755-157.758c0-87.13-70.63-157.76-157.755-157.76s-157.755 70.63-157.755 157.76" fill="#FFF"/><path d="M1007.865 226.433l23.572-50.294 23.573 50.294h-47.145M1055.01 226.433l23.573-50.294 23.572 50.294h-47.145M1102.155 226.433l23.573-50.294 23.573 50.294h-47.146" fill="#BDE2F0"/><path d="M1149.301 226.433l23.573-50.294 23.573 50.294H1149.3M1031.437 176.14l23.573-50.294 23.573 50.293h-47.146M1078.583 176.14l23.573-50.294 23.572 50.293h-47.145M1125.728 176.14l23.573-50.294 23.573 50.293h-47.146" fill="#BDE2F0"/><path d="M1172.874 176.14l23.573-50.294 23.572 50.293h-47.145M1055.01 125.968l23.573-50.294 23.572 50.294h-47.145M1102.155 125.968l23.573-50.294 23.573 50.294h-47.146" fill="#BDE2F0"/><path d="M1149.301 125.968l23.573-50.294 23.573 50.294H1149.3" fill="#BDE2F0"/><path d="M1086.263 176.14a7.683 7.683 0 0 0-7.68-7.684 7.683 7.683 0 0 0 0 15.365c4.24 0 7.68-3.44 7.68-7.682M1086.263 75.674a7.682 7.682 0 1 0-15.365 0 7.682 7.682 0 0 0 15.365 0M1062.69 226.433a7.682 7.682 0 1 0-7.68 7.682c4.241 0 7.68-3.44 7.68-7.682M1109.836 125.968a7.681 7.681 0 1 0-15.363 0 7.682 7.682 0 0 0 15.363 0M1062.692 125.968a7.682 7.682 0 1 0-15.364 0 7.682 7.682 0 0 0 15.364 0M1133.41 176.14a7.682 7.682 0 0 0-15.362 0 7.681 7.681 0 1 0 15.361 0M1180.555 176.14a7.683 7.683 0 0 0-7.681-7.684 7.683 7.683 0 0 0 0 15.365c4.241 0 7.68-3.44 7.68-7.682M1039.119 176.14a7.682 7.682 0 0 0-15.362 0 7.681 7.681 0 1 0 15.362 0" fill="#3499DF"/><path d="M889.437 394.938h16.193v18.244h-16.193v-18.244zM937.109 394.938h16.193v18.244h-16.193v-18.244zM984.78 394.938h16.192v18.244H984.78v-18.244zM1032.452 394.938h16.192v18.244h-16.192v-18.244zM1080.122 394.938h16.194v18.244h-16.194v-18.244zM1127.794 394.938h16.194v18.244h-16.194v-18.244zM1175.466 394.938h16.194v18.244h-16.194v-18.244zM1223.138 394.938h16.193v18.244h-16.193v-18.244zM1270.81 394.938h16.193v18.244h-16.194v-18.244zM1318.481 394.938h16.193v18.244h-16.193v-18.244zM1366.153 394.938h16.193v18.244h-16.193v-18.244zM1413.825 394.938h16.193v18.244h-16.193v-18.244z" fill="#392722"/><path d="M877.342 363.056h761.517v31.882H877.342v-31.882z" fill="#FFF"/><path d="M904.783 250.912h242.698v112.144H904.783V250.912z" fill="#BDE2F0"/><path d="M1147.481 250.912h153.534v112.144h-153.534V250.912z" fill="#EF5281"/><path d="M1301.015 250.912h35.846v112.144h-35.846V250.912zM1168.659 238.957h51.06v90.198h-51.06v-90.198zM1234.739 238.957h51.061v90.198h-51.061v-90.198z" fill="#BDE2F0"/><path d="M1336.861 250.912h153.534v112.144h-153.534V250.912z" fill="#EF5281"/><path d="M1358.039 238.957h51.061v90.198h-51.061v-90.198zM1424.119 238.957h51.061v90.198h-51.061v-90.198z" fill="#BDE2F0"/><path d="M925.365 271.938h42.05v76.594h-42.05v-76.594zM997.068 271.938h42.05v76.594h-42.05v-76.594zM1068.772 271.938h42.051v76.594h-42.05v-76.594z" fill="#FFF"/><g><path d="M742.968 413.09h78.616c5.012 0 9.074 4.045 9.074 9.032 0 4.989-4.062 9.032-9.074 9.032h-78.616c-5.013 0-9.076-4.043-9.076-9.032 0-4.987 4.063-9.031 9.076-9.031" fill="#3499DF"/><path d="M783.705 342.524h12.073v79.598h-12.073v-79.598zM755.02 342.524h12.074v79.598h-12.073v-79.598zM733.892 342.524h12.073v79.598h-12.073v-79.598z" fill="#392722"/></g><path d="M1159.87 492.71h164.114v100.626H1159.87V492.71z" fill="#91B7C5"/><path d="M1087.597 492.71h164.113v100.626h-164.113V492.71z" fill="#6D8994"/><path d="M373.847 677.662c0 11.613-19.499 21.026-43.552 21.026s-43.552-9.413-43.552-21.026c0-11.612 19.499-21.027 43.552-21.027s43.552 9.415 43.552 21.027" fill="#815130"/><path d="M346.815 273.04c0-9.126-7.396-16.521-16.52-16.521-9.124 0-16.52 7.395-16.52 16.52v404.623h33.04V273.039" fill="#9A7459"/><path d="M482.504 327.658c0 79.32-65.242 143.623-145.722 143.623S191.06 406.979 191.06 327.658V199.696c0-79.32 65.242-143.621 145.722-143.622 80.48 0 145.722 64.302 145.722 143.622v127.962" fill="#5AB55C"/><path d="M328.07 476.224c-2.803 5.738-9.081 9.253-15.73 8.252-6.648-1.002-11.624-6.218-12.606-12.537-3.824 5.116-10.673 7.4-17.01 5.157-6.349-2.233-10.254-8.302-10.024-14.689a15.03 15.03 0 0 1-17.692 1.853v.01c-5.807-3.405-8.49-10.093-7.069-16.332-5.447 3.335-12.656 2.924-17.722-1.511v.009c-5.066-4.435-6.438-11.524-3.855-17.372-5.987 2.243-12.986.47-17.121-4.846-4.136-5.318-4.146-12.537-.49-17.794-6.309 1.062-12.847-2.032-15.89-8.04-3.045-6.018-1.643-13.116 2.953-17.573-6.398-.18-12.216-4.485-14.028-10.983-1.812-6.5.941-13.187 6.328-16.652-6.248-1.431-11.104-6.79-11.614-13.507-.501-6.55 3.274-12.436 8.98-14.92-5.536-2.212-9.441-7.619-9.441-13.948 0-6.247 3.815-11.604 9.242-13.867-5.427-2.263-9.242-7.62-9.242-13.868s3.815-11.606 9.242-13.868c-5.427-2.263-9.242-7.62-9.242-13.868s3.815-11.605 9.242-13.869c-5.427-2.261-9.242-7.618-9.242-13.866 0-6.248 3.815-11.605 9.242-13.868-5.427-2.264-9.242-7.62-9.242-13.868 0-6.739 4.426-12.436 10.533-14.339-5.637-3.044-8.901-9.492-7.6-16.11 1.292-6.619 6.76-11.365 13.127-12.046-4.936-4.085-6.879-11.054-4.315-17.292 2.563-6.238 8.84-9.823 15.219-9.252-4.045-4.957-4.596-12.166-.881-17.783a15.02 15.02 0 0 1 16.712-6.138c-3.025-5.637-2.194-12.816 2.532-17.623 4.716-4.796 11.865-5.757 17.552-2.843-1.892-6.108.28-12.987 5.817-16.812 5.537-3.825 12.746-3.414 17.783.52-.711-6.348 2.723-12.696 8.882-15.41 6.157-2.703 13.155-.95 17.35 3.866.511-6.368 5.077-11.956 11.635-13.458 6.559-1.491 13.087 1.542 16.31 7.06 1.693-6.158 7.21-10.784 13.928-11.035v.01c6.709-.25 12.556 3.935 14.699 9.943 2.803-5.737 9.081-9.262 15.73-8.27v.01c6.648.99 11.624 6.208 12.615 12.516 3.826-5.117 10.664-7.41 17.012-5.177 6.348 2.233 10.253 8.29 10.032 14.689 4.726-4.316 11.875-5.267 17.693-1.883 5.817 3.385 8.51 10.083 7.089 16.311 5.446-3.344 12.645-2.933 17.722 1.492 5.066 4.426 6.448 11.515 3.875 17.363 5.987-2.253 12.986-.48 17.131 4.826 4.145 5.317 4.155 12.536.5 17.793 6.319-1.061 12.857 2.013 15.9 8.03 3.055 6.008 1.663 13.107-2.933 17.573 6.398.17 12.226 4.476 14.038 10.964 1.822 6.498-.92 13.187-6.298 16.662 6.238 1.431 11.104 6.778 11.624 13.497.512 6.548-3.274 12.446-8.97 14.93 5.536 2.212 9.441 7.619 9.441 13.946 0 6.25-3.815 11.606-9.242 13.869 5.427 2.263 9.242 7.619 9.242 13.868 0 6.248-3.815 11.604-9.242 13.868 5.427 2.263 9.242 7.62 9.242 13.868s-3.815 11.605-9.242 13.866c5.427 2.264 9.242 7.621 9.242 13.87 0 6.257-3.815 11.614-9.242 13.876 5.427 2.264 9.242 7.621 9.242 13.87v.31c0 6.738-4.435 12.435-10.543 14.348 5.627 3.044 8.881 9.502 7.58 16.11-1.302 6.62-6.77 11.355-13.147 12.036 4.936 4.086 6.868 11.065 4.305 17.293-2.573 6.238-8.86 9.812-15.239 9.241 4.045 4.967 4.586 12.165.861 17.783-3.725 5.618-10.573 7.91-16.71 6.118 3.013 5.648 2.172 12.817-2.554 17.613-4.726 4.796-11.875 5.747-17.562 2.834 1.892 6.097-.29 12.976-5.827 16.801-5.547 3.815-12.746 3.405-17.783-.54.701 6.358-2.733 12.696-8.901 15.4-6.158 2.703-13.147.94-17.352-3.886-.51 6.378-5.086 11.956-11.644 13.448-6.559 1.492-13.087-1.563-16.3-7.07-1.693 6.149-7.22 10.764-13.938 11.005-.19.009-.37.009-.551.009-6.478 0-12.065-4.134-14.148-9.973zm-11.254-21.448a15 15 0 0 1 11.915 9.804c2.353-4.806 7.219-8.2 12.946-8.41a15.036 15.036 0 0 1 13.517 7.439c1.432-5.158 5.577-9.382 11.154-10.654a15.023 15.023 0 0 1 14.649 4.776c.44-5.328 3.704-10.254 8.94-12.547v-.009a15.017 15.017 0 0 1 15.29 1.932c-.58-5.316 1.702-10.773 6.418-14.018 4.706-3.244 10.623-3.434 15.38-.99a15.053 15.053 0 0 1 3.644-14.98c4.015-4.065 9.782-5.367 14.909-3.885a15.006 15.006 0 0 1 .73-15.37 15.03 15.03 0 0 1 13.868-6.669c-3.354-4.135-4.405-9.932-2.233-15.21 2.173-5.266 7-8.64 12.306-9.211a14.997 14.997 0 0 1-5.157-14.469c1.102-5.597 5.177-9.842 10.263-11.434-4.686-2.544-7.87-7.51-7.87-13.217v-.31c0-6.249 3.815-11.606 9.242-13.87-5.427-2.262-9.242-7.619-9.242-13.877 0-6.248 3.815-11.605 9.242-13.869-5.427-2.261-9.242-7.618-9.242-13.866 0-6.248 3.815-11.605 9.242-13.868-5.427-2.264-9.242-7.62-9.242-13.868 0-6.25 3.815-11.605 9.242-13.868-5.427-2.263-9.242-7.62-9.242-13.869 0-6.167 3.715-11.454 9.022-13.777-5.146-2.052-8.952-6.899-9.402-12.797-.44-5.677 2.353-10.873 6.818-13.767-5.186-1.191-9.582-5.106-11.114-10.593a14.986 14.986 0 0 1 4.005-14.83c-5.326-.16-10.413-3.144-12.986-8.23-2.583-5.097-1.982-10.964 1.051-15.35-5.266.881-10.833-1.071-14.348-5.577a14.997 14.997 0 0 1-1.902-15.28 15.052 15.052 0 0 1-15.169-2.743c-4.305-3.765-5.948-9.443-4.766-14.66-4.566 2.794-10.473 3.055-15.41.17a15.023 15.023 0 0 1-7.459-13.496 15.007 15.007 0 0 1-15.099 3.084 15.032 15.032 0 0 1-9.862-11.846 15.024 15.024 0 0 1-14.258 5.868c-5.667-.851-10.112-4.756-11.925-9.803-2.353 4.816-7.21 8.21-12.936 8.421-5.728.22-10.824-2.804-13.527-7.42a15.025 15.025 0 0 1-11.144 10.664c-5.577 1.272-11.134-.74-14.659-4.756a14.99 14.99 0 0 1-8.921 12.556 15.014 15.014 0 0 1-15.29-1.902c.582 5.307-1.691 10.764-6.397 14.018a15.008 15.008 0 0 1-15.38 1.011c1.572 5.107.37 10.894-3.634 14.98a15.002 15.002 0 0 1-14.899 3.894c2.513 4.717 2.433 10.624-.72 15.38a15.012 15.012 0 0 1-13.858 6.679 15.04 15.04 0 0 1 2.253 15.21c-2.173 5.276-7 8.65-12.295 9.221a15.024 15.024 0 0 1 5.176 14.469 15.022 15.022 0 0 1-10.253 11.445c4.696 2.543 7.88 7.51 7.88 13.227 0 6.248-3.815 11.604-9.242 13.868 5.427 2.263 9.242 7.62 9.242 13.868s-3.815 11.605-9.242 13.866c5.427 2.264 9.242 7.621 9.242 13.87 0 6.247-3.815 11.604-9.242 13.867 5.427 2.262 9.242 7.62 9.242 13.868 0 6.247-3.815 11.605-9.242 13.868 5.427 2.263 9.242 7.62 9.242 13.867 0 6.169-3.715 11.466-9.02 13.779 5.135 2.071 8.94 6.908 9.39 12.816.43 5.677-2.363 10.864-6.838 13.758a15.018 15.018 0 0 1 11.114 10.613c1.531 5.488-.2 11.114-4.026 14.829a14.996 14.996 0 0 1 12.977 8.241c2.573 5.097 1.972 10.954-1.072 15.34 5.267-.881 10.834 1.081 14.338 5.597 3.515 4.506 4.046 10.394 1.893 15.28a15.015 15.015 0 0 1 15.159 2.763 15.015 15.015 0 0 1 4.756 14.66c4.566-2.784 10.473-3.035 15.41-.15a14.995 14.995 0 0 1 7.439 13.497 15.02 15.02 0 0 1 15.109-3.055c5.396 1.903 9.02 6.57 9.852 11.846a15.03 15.03 0 0 1 14.258-5.839z" fill="#5AB55C"/><path d="M447.548 331.485c0 84.067-45.902 152.215-117.252 152.215-84.063 0-152.21-68.148-152.21-152.215V195.87c0-84.059 68.136-152.214 152.193-152.214h.017c71.35 0 117.252 68.148 117.252 152.214v135.616" fill="#A9D163"/><path d="M319.289 498.364c-6.839-.451-12.315-5.408-13.707-11.786-3.294 5.638-10.033 8.661-16.671 6.97-6.659-1.693-11.134-7.58-11.314-14.119-4.276 4.946-11.465 6.689-17.693 3.795-6.217-2.894-9.53-9.512-8.51-15.96-5.107 4.075-12.486 4.465-18.073.48s-7.63-11.085-5.447-17.242c-5.767 3.074-13.086 2.103-17.852-2.824-4.766-4.936-5.477-12.286-2.213-17.943-6.228 1.972-13.257-.321-17.042-6.039-3.784-5.717-3.143-13.076 1.092-18.042-6.478.791-12.966-2.743-15.64-9.062-2.673-6.318-.69-13.437 4.396-17.542-6.518-.412-12.246-5.088-13.708-11.795-1.461-6.7 1.793-13.328 7.55-16.422-6.328-1.602-11.094-7.24-11.304-14.088-.21-6.548 3.805-12.236 9.582-14.478a15.013 15.013 0 0 1-9.662-14.039 15.008 15.008 0 0 1 9.622-14.018 15.008 15.008 0 0 1-9.622-14.018c0-6.399 3.995-11.855 9.622-14.029-5.627-2.162-9.622-7.629-9.622-14.018 0-6.397 3.995-11.855 9.622-14.027-5.627-2.164-9.622-7.62-9.622-14.018a14.998 14.998 0 0 1 9.622-14.018c-5.637-2.173-9.622-7.63-9.622-14.028 0-6.849 4.575-12.616 10.833-14.429-5.847-2.903-9.321-9.422-8.08-16.16a15.012 15.012 0 0 1 13.317-12.236c-5.217-3.935-7.44-10.984-4.976-17.393 2.463-6.408 8.84-10.153 15.349-9.572-4.406-4.826-5.287-12.166-1.692-18.003a15.042 15.042 0 0 1 16.84-6.599c-3.453-5.547-2.973-12.916 1.623-18.003a15.032 15.032 0 0 1 17.752-3.404c-2.373-6.078-.57-13.247 4.886-17.403 5.447-4.165 12.837-4.015 18.073-.12-1.231-6.418 1.862-13.127 7.98-16.22 6.128-3.095 13.367-1.593 17.803 3.203-.03-6.538 4.245-12.566 10.833-14.478 6.588-1.913 13.427.89 16.901 6.428 1.182-6.428 6.489-11.565 13.317-12.236 6.849-.66 13.077 3.375 15.46 9.492 2.443-6.218 8.84-10.243 15.78-9.402 7.018.841 12.315 6.409 13.106 13.137 4.025-5.467 11.404-7.67 17.932-4.916 6.509 2.743 10.073 9.552 8.992 16.24 5.336-4.124 12.996-4.245 18.513.151 5.477 4.356 7.099 11.765 4.366 17.883 6.117-2.613 13.456-.901 17.732 4.606 4.245 5.457 4.125 12.917.18 18.193 6.448-1.211 13.167 1.913 16.23 8.07 3.044 6.119 1.532 13.318-3.244 17.724 6.479-.04 12.476 4.145 14.46 10.663 1.961 6.479-.662 13.258-6.008 16.842 6.347.941 11.614 5.928 12.635 12.606 1.001 6.649-2.523 12.947-8.26 15.75 6.117 1.783 10.653 7.38 10.803 14.098.14 6.5-3.865 12.126-9.592 14.34 5.637 2.162 9.652 7.63 9.652 14.037 0 6.389-3.995 11.846-9.622 14.018 5.627 2.162 9.622 7.63 9.622 14.019 0 6.398-3.995 11.855-9.632 14.028 5.637 2.162 9.632 7.62 9.632 14.018 0 6.398-3.995 11.855-9.632 14.018 5.637 2.173 9.632 7.63 9.632 14.028 0 6.388-3.995 11.855-9.622 14.018 5.627 2.173 9.622 7.63 9.622 14.028v.37c0 6.71-4.405 12.396-10.483 14.318 5.797 2.674 9.462 8.882 8.61 15.551-.85 6.688-5.987 11.795-12.305 12.897 5.427 3.444 8.23 10.142 6.438 16.661-1.802 6.558-7.67 10.894-14.137 11.043 4.896 4.267 6.628 11.395 3.784 17.594-2.863 6.238-9.462 9.571-15.93 8.581 4.126 5.127 4.506 12.556.491 18.163-4.055 5.638-11.304 7.64-17.512 5.297 2.984 5.968 1.692 13.428-3.575 18.013-5.296 4.626-12.926 4.857-18.453 1.012 1.412 6.618-1.812 13.576-8.17 16.641-6.378 3.074-13.847 1.242-18.143-4.015-.46 6.759-5.487 12.585-12.465 13.768-6.92 1.181-13.547-2.584-16.26-8.721-2.053 5.927-7.69 10.103-14.179 10.103-.33 0-.66-.01-.991-.03zm1.952-29.98a15.022 15.022 0 0 1 12.757 8.912c1.742-5.006 6.077-8.941 11.674-9.892 5.517-.943 10.834 1.251 14.148 5.286a15.01 15.01 0 0 1 8.46-12.487c5.057-2.442 10.804-1.792 15.11 1.193a14.998 14.998 0 0 1 4.826-14.429c4.305-3.755 10.162-4.616 15.169-2.733a15.044 15.044 0 0 1 1.241-15.46c3.415-4.746 9.072-6.91 14.478-6.088-3.434-4.296-4.385-10.323-1.932-15.66a15.01 15.01 0 0 1 13.307-8.761c-4.216-3.675-6.198-9.553-4.616-15.3 1.582-5.789 6.348-9.853 11.895-10.824-4.766-3.024-7.62-8.621-6.859-14.579v-.01a15.035 15.035 0 0 1 10.363-12.417c-5.156-2.382-8.73-7.599-8.73-13.647v-.37c0-6.398 3.994-11.855 9.621-14.028-5.627-2.163-9.622-7.63-9.622-14.018 0-6.398 3.995-11.855 9.622-14.028-5.627-2.163-9.622-7.62-9.622-14.018 0-6.399 3.995-11.856 9.622-14.018-5.627-2.173-9.622-7.63-9.622-14.028 0-6.389 3.995-11.857 9.622-14.019-5.627-2.172-9.622-7.63-9.622-14.018 0-6.388 3.985-11.845 9.592-14.018-5.527-2.112-9.512-7.42-9.642-13.707a15.02 15.02 0 0 1 8.42-13.828c-5.426-1.582-9.731-6.198-10.632-12.166-.912-5.937 1.802-11.595 6.478-14.729-5.557-.84-10.413-4.766-12.155-10.493a15.04 15.04 0 0 1 4.175-15.4 15.034 15.034 0 0 1-13.537-8.33 15.024 15.024 0 0 1 1.411-15.671c-5.355 1.001-11.074-.951-14.648-5.547a15.047 15.047 0 0 1-1.852-15.35c-4.907 2.083-10.764 1.482-15.23-2.073-4.405-3.494-6.317-8.971-5.476-14.158a15.019 15.019 0 0 1-15.01 1.943c-5.146-2.173-8.45-6.89-9.07-12.066-3.115 4.205-8.331 6.659-13.898 5.988-5.677-.691-10.233-4.466-12.185-9.452-2.003 5.076-6.709 8.881-12.516 9.442-5.848.57-11.244-2.293-14.178-6.95-1.001 5.408-4.946 10.074-10.593 11.706-5.637 1.642-11.465-.18-15.21-4.226a15.02 15.02 0 0 1-8.25 13.468c-5.246 2.653-11.314 1.932-15.74-1.352a15.02 15.02 0 0 1-5.637 14.76c-4.676 3.564-10.783 3.964-15.73 1.541 2.003 5.137 1.092 11.184-2.863 15.55-3.945 4.356-9.872 5.868-15.18 4.386 2.905 4.686 3.115 10.794.02 15.8-3.083 5.007-8.63 7.57-14.117 7.09a15 15 0 0 1 2.924 15.52c-2.113 5.486-7.09 9.02-12.566 9.562 4.396 3.314 6.799 8.931 5.737 14.709-1.061 5.787-5.306 10.183-10.593 11.715 4.936 2.463 8.33 7.56 8.33 13.447 0 6.397-3.995 11.855-9.632 14.028 5.637 2.163 9.632 7.62 9.632 14.018 0 6.398-4.005 11.854-9.632 14.018 5.627 2.172 9.632 7.63 9.632 14.027 0 6.39-4.005 11.856-9.632 14.018 5.627 2.174 9.632 7.63 9.632 14.03 0 6.388-3.995 11.855-9.632 14.017 5.637 2.163 9.632 7.63 9.632 14.018 0 6.379-3.985 11.835-9.592 14.008 5.488 2.103 9.462 7.33 9.652 13.578a15.013 15.013 0 0 1-7.88 13.688c5.327 1.361 9.713 5.617 10.964 11.354 1.252 5.748-.96 11.435-5.236 14.9a15.01 15.01 0 0 1 12.866 9.131v.01c2.293 5.407 1.161 11.405-2.403 15.6 5.467-.661 11.084 1.712 14.328 6.619 3.254 4.906 3.244 11.024.5 15.79a15.026 15.026 0 0 1 15.31 3.895c4.095 4.235 5.196 10.254 3.364 15.45 4.866-2.583 10.984-2.383 15.77 1.032 4.796 3.414 6.979 9.131 6.118 14.568 4.315-3.424 10.363-4.345 15.69-1.872a15.019 15.019 0 0 1 8.69 13.187 15.047 15.047 0 0 1 15.07-4.726c5.696 1.452 9.791 5.977 10.973 11.354 2.623-4.475 7.48-7.44 12.956-7.44.32 0 .651.01.991.03z" fill="#A9D163"/><path d="M413.87 331.485c0 84.067-53.327 152.215-83.574 152.215-84.063 0-152.21-68.148-152.21-152.215V195.87c0-84.059 68.136-152.214 152.193-152.214h.017c42.829 0 83.575 68.148 83.575 152.214v135.616" fill="#D0D766"/><path d="M317.687 498.252c-6.839-.51-12.275-5.536-13.587-11.944-3.344 5.627-10.123 8.601-16.761 6.839h-.01c-6.638-1.762-11.064-7.72-11.164-14.269-4.326 4.927-11.545 6.599-17.753 3.644-6.197-2.953-9.441-9.611-8.34-16.07-5.156 4.036-12.556 4.356-18.113.31-5.547-4.034-7.52-11.174-5.256-17.323-5.798 3.035-13.126 1.994-17.853-2.982-4.726-4.988-5.357-12.366-2.022-17.994-6.248 1.923-13.267-.44-17.002-6.198-3.734-5.767-3.014-13.136 1.302-18.054-6.508.732-12.966-2.874-15.58-9.222-2.613-6.357-.54-13.476 4.606-17.521-6.528-.47-12.225-5.207-13.617-11.936-1.392-6.718 1.952-13.327 7.75-16.352-6.328-1.67-11.044-7.358-11.184-14.227-.13-6.498 3.885-12.126 9.632-14.329-5.647-2.152-9.672-7.63-9.672-14.039 0-6.407 4.015-11.874 9.662-14.037-5.647-2.152-9.662-7.62-9.662-14.028s4.015-11.875 9.662-14.038c-5.647-2.153-9.662-7.62-9.662-14.028 0-6.41 4.015-11.875 9.662-14.04-5.647-2.15-9.662-7.618-9.662-14.026 0-6.408 4.015-11.875 9.662-14.038a15.018 15.018 0 0 1-9.652-14.178c.07-6.86 4.726-12.597 11.034-14.339-5.828-2.964-9.242-9.532-7.92-16.27 1.321-6.74 6.968-11.546 13.497-12.087-5.197-3.985-7.34-11.084-4.796-17.472 2.543-6.378 8.97-10.053 15.489-9.382-4.375-4.876-5.177-12.236-1.502-18.043 3.676-5.808 10.663-8.241 16.941-6.389-3.394-5.587-2.843-12.966 1.833-18.003 4.666-5.036 11.985-6.148 17.812-3.184-2.323-6.118-.43-13.277 5.086-17.372 5.507-4.106 12.897-3.865 18.093.12-1.161-6.438 2.013-13.127 8.18-16.15 6.168-3.025 13.407-1.433 17.783 3.443.04-6.548 4.385-12.546 11.014-14.378a15.027 15.027 0 0 1 16.83 6.669c1.252-6.429 6.63-11.505 13.478-12.096 7.079-.6 13.437 3.815 15.55 10.293 3.344-6.698 11.253-9.993 18.483-7.41 7.099 2.544 11.104 9.873 9.682 17.043 5.797-3.996 13.797-3.475 19.024 1.632v.01c5.056 4.936 5.877 12.576 2.423 18.393 6.368-1.922 13.487.601 17.131 6.539 3.585 5.847 2.684 13.177-1.722 17.993 6.448-.61 12.806 3.044 15.35 9.372 2.513 6.268.49 13.247-4.506 17.282 6.398.34 12.095 4.787 13.747 11.315v.01c1.642 6.508-1.242 13.097-6.658 16.451 6.257 1.132 11.354 6.198 12.215 12.847.871 6.638-2.743 12.826-8.49 15.53 6.077 1.832 10.553 7.41 10.683 14.098.13 6.498-3.895 12.105-9.622 14.308 5.657 2.153 9.672 7.63 9.672 14.048 0 6.399-4.005 11.866-9.652 14.029 5.647 2.162 9.652 7.63 9.652 14.038 0 6.398-4.005 11.865-9.652 14.028 5.647 2.163 9.652 7.63 9.652 14.038 0 6.398-4.005 11.865-9.652 14.028 5.647 2.163 9.652 7.629 9.652 14.028 0 6.407-4.005 11.874-9.652 14.038 5.647 2.163 9.652 7.63 9.652 14.027v.241c0 6.76-4.466 12.477-10.614 14.358 5.828 2.713 9.452 8.993 8.521 15.69-.941 6.69-6.138 11.726-12.476 12.748 5.387 3.484 8.14 10.183 6.318 16.681-1.822 6.498-7.65 10.794-14.057 10.964 4.876 4.165 6.718 11.174 4.045 17.383v-.01c-2.684 6.218-9.062 9.702-15.46 8.991 4.296 4.816 5.127 12.066 1.582 17.843-3.584 5.828-10.503 8.361-16.78 6.629 3.535 5.537 3.123 12.976-1.483 18.113-4.726 5.277-12.345 6.418-18.323 3.194 2.273 6.698-.46 14.279-6.848 17.882-6.949 3.916-15.68 1.713-19.965-4.886-1.702 6.54-7.64 11.224-14.519 11.224-.38 0-.76-.019-1.141-.04zm-22.658-34.143a15.004 15.004 0 0 1 10.863 11.485c2.824-4.736 8.16-7.74 14.038-7.3 4.856.361 9.001 2.995 11.474 6.79a14.949 14.949 0 0 1 7.15-9.293c4.655-2.633 10.122-2.503 14.517-.14a15.008 15.008 0 0 1 3.044-14.829v.01a15.008 15.008 0 0 1 15.17-4.465c-2.994-4.697-3.255-10.875-.14-15.941a15.01 15.01 0 0 1 14.457-7.08c-3.754-4.225-4.956-10.393-2.573-15.93 2.393-5.547 7.73-8.921 13.397-9.071-4.315-3.686-6.348-9.663-4.716-15.48 1.632-5.818 6.468-9.873 12.066-10.784-4.757-3.074-7.57-8.721-6.74-14.7a15.036 15.036 0 0 1 10.474-12.286c-5.117-2.392-8.661-7.59-8.661-13.607v-.24c0-6.398 4.015-11.865 9.662-14.028-5.647-2.164-9.662-7.63-9.662-14.038 0-6.4 4.015-11.865 9.662-14.028-5.647-2.163-9.662-7.63-9.662-14.028 0-6.408 4.015-11.875 9.652-14.038-5.637-2.163-9.652-7.63-9.652-14.028 0-6.409 4.015-11.876 9.662-14.038-5.647-2.163-9.662-7.63-9.662-14.029s4.005-11.866 9.632-14.028c-5.557-2.112-9.552-7.44-9.672-13.757-.12-6.11 3.424-11.425 8.62-13.878-5.486-1.652-9.781-6.388-10.572-12.446-.781-6.038 2.142-11.705 6.998-14.72-5.617-1.01-10.403-5.206-11.885-11.104-1.491-5.867.701-11.795 5.127-15.37-5.657-.31-10.884-3.804-13.137-9.401a15.037 15.037 0 0 1 2.864-15.74c-5.527.51-11.124-2.063-14.218-7.1v-.01c-3.014-4.906-2.864-10.874-.11-15.51-5.066 1.512-10.784.31-14.829-3.655a14.99 14.99 0 0 1-4.245-13.637 14.98 14.98 0 0 1-13.577 1.772c-4.546-1.622-7.82-5.217-9.222-9.472-2.263 4.516-6.748 7.78-12.155 8.24-5.867.501-11.234-2.453-14.098-7.159a15.034 15.034 0 0 1-10.743 11.605c-5.677 1.572-11.495-.34-15.18-4.435-.04 5.517-3.123 10.793-8.41 13.387a15 15 0 0 1-15.74-1.562c.972 5.427-1.091 11.194-5.817 14.709-4.736 3.524-10.854 3.845-15.78 1.351 1.953 5.157.981 11.215-3.024 15.53-4.015 4.326-9.972 5.758-15.269 4.206 2.864 4.716 3.004 10.844-.15 15.82-3.144 4.987-8.741 7.48-14.228 6.92a15.042 15.042 0 0 1 2.764 15.58c-2.183 5.466-7.22 8.95-12.716 9.411 4.375 3.365 6.718 9.022 5.587 14.8a15.009 15.009 0 0 1-10.754 11.594c4.916 2.514 8.26 7.65 8.2 13.538-.06 6.348-4.065 11.745-9.652 13.888a15.01 15.01 0 0 1 9.642 14.028 15.001 15.001 0 0 1-9.652 14.027c5.647 2.164 9.652 7.63 9.652 14.039a15.004 15.004 0 0 1-9.652 14.028c5.647 2.163 9.652 7.63 9.652 14.038a15.004 15.004 0 0 1-9.652 14.028c5.647 2.163 9.652 7.63 9.652 14.037 0 6.4-3.995 11.857-9.632 14.03 5.547 2.112 9.542 7.429 9.662 13.727a15 15 0 0 1-8.05 13.618c5.327 1.412 9.682 5.717 10.874 11.484a15.003 15.003 0 0 1-5.427 14.85c5.507.41 10.573 3.835 12.806 9.282 2.243 5.447 1.042 11.444-2.583 15.6 5.477-.621 11.094 1.821 14.288 6.758 3.204 4.947 3.134 11.075.32 15.83 5.277-1.612 11.255-.25 15.3 4.036 4.055 4.276 5.096 10.323 3.204 15.5 4.896-2.544 11.013-2.294 15.78 1.181 4.765 3.465 6.888 9.211 5.967 14.66a15.017 15.017 0 0 1 15.73-1.734c5.317 2.534 8.46 7.791 8.56 13.298a15.065 15.065 0 0 1 11.275-5.106c1.271 0 2.573.17 3.855.51z" fill="#D0D766"/><path d="M178.087 634.392c0-34.576-28.03-62.608-62.606-62.608-3.809 0-7.533.36-11.154 1.011.023-.487.038-.976.038-1.47 0-17.277-14.007-31.283-31.282-31.283-4.6 0-8.962 1.002-12.894 2.78.366-1.902.565-3.861.565-5.87 0-17.046-13.817-30.862-30.862-30.862-15.92 0-29.02 12.055-30.68 27.532H-.97V697h116.45c34.577 0 62.607-28.03 62.607-62.608" fill="#3B9F86"/><path d="M113.18 680.806c-1.095 0-2.154.15-3.17.404a40.82 40.82 0 0 0 2.948-15.252c0-22.61-18.33-40.94-40.937-40.94-1.137 0-2.26.06-3.375.149-2.74-10.615-12.38-18.455-23.849-18.455a24.68 24.68 0 0 0-5.56.639 31.726 31.726 0 0 0 1.671-10.165c0-17.542-14.22-31.762-31.762-31.762-3.54 0-6.938.587-10.116 1.657v139.814h114.15c7.204 0 13.044-5.84 13.044-13.046 0-7.204-5.84-13.043-13.044-13.043zm-80.05-27.63v-.135l.037.02-.038.115z" fill="#3BB67D"/><path d="M52.477 709.112c0 13.686 11.094 24.78 24.78 24.78 13.685 0 24.78-11.094 24.78-24.78 0-13.687-11.095-24.78-24.78-24.78-13.686 0-24.78 11.093-24.78 24.78" fill="#4FC1B3"/><path d="M-21.112 730.62c0 24.394 19.774 44.169 44.167 44.169 24.392 0 44.166-19.775 44.166-44.168 0-24.394-19.774-44.17-44.166-44.17-24.393 0-44.167 19.776-44.167 44.17" fill="#4FC1B3"/><path d="M26.316 682.597c0-13.785 11.174-24.96 24.958-24.96 13.784 0 24.958 11.175 24.958 24.96s-11.174 24.96-24.958 24.96c-13.784 0-24.958-11.175-24.958-24.96" fill="#4FC1B3"/><path d="M1358.265 558.792c0-14.93-12.102-27.033-27.033-27.033-14.93 0-27.032 12.103-27.032 27.033V752.72h54.065V558.792" fill="#FFF"/><path d="M616.85 53.22c0 8.717-7.068 15.785-15.784 15.785h-39.79c-8.717 0-15.785-7.068-15.785-15.784 0-8.716 7.068-15.782 15.784-15.782h39.791c8.716 0 15.783 7.066 15.783 15.782" fill="#D7F4FF"/><path d="M708.462 87.063c0 12.028-9.75 21.777-21.777 21.777H537.07c-12.026 0-21.776-9.749-21.776-21.777 0-12.026 9.75-21.776 21.776-21.776h149.614c12.027 0 21.777 9.75 21.777 21.776" fill="#D7F4FF"/><path d="M602.399 87.063c0 12.028-9.748 21.777-21.774 21.777H537.07c-12.026 0-21.776-9.749-21.776-21.777 0-12.026 9.75-21.776 21.776-21.776h43.554c12.026 0 21.774 9.75 21.774 21.776" fill="#FFF"/><path d="M577.06 53.22c0 8.72-7.067 15.785-15.785 15.785-8.716 0-15.784-7.066-15.784-15.784 0-8.717 7.068-15.782 15.784-15.782 8.718 0 15.784 7.065 15.784 15.782" fill="#FFF"/><path d="M746.573 123.608c0 8.71-7.06 15.77-15.77 15.77h-79.595c-8.708 0-15.77-7.06-15.77-15.77 0-8.709 7.062-15.77 15.77-15.77h79.595c8.71 0 15.77 7.061 15.77 15.77" fill="#D7F4FF"/><path d="M635.438 123.608c0-8.709 7.062-15.77 15.77-15.77h11.447c8.708 0 15.77 7.061 15.77 15.77 0 8.71-7.062 15.77-15.77 15.77h-11.447c-8.708 0-15.77-7.06-15.77-15.77M578.16 156.901c0-7.348-5.957-13.306-13.305-13.306-7.35 0-13.309 5.958-13.309 13.306 0 7.35 5.958 13.309 13.309 13.309 7.348 0 13.305-5.959 13.305-13.309" fill="#FFF"/></g></svg>