<svg width="1440" height="752" viewBox="0 0 1440 752" xmlns="http://www.w3.org/2000/svg"><title>creekside-piano</title><g fill="none" fill-rule="evenodd"><path d="M888.436 706.951H548.312c-6.729 0-12.182 5.454-12.182 12.184 0 6.729 5.453 12.183 12.182 12.183h340.124c6.729 0 12.183-5.454 12.183-12.183 0-6.73-5.454-12.184-12.183-12.184M955.658 653.053h-470.24c-6.729 0-12.183 5.454-12.183 12.183 0 6.727 5.454 12.181 12.183 12.181h470.24c6.73 0 12.183-5.454 12.183-12.181 0-6.73-5.454-12.183-12.183-12.183" fill="#888"/><path d="M934.542 488.48c0-8.39-6.8-15.192-15.19-15.192H519.24c-8.39 0-15.19 6.802-15.19 15.192v60.477h430.492V488.48" fill="#FFF"/><path d="M623.165 506.09c30.037-5.87 89.862-46.772 108.13-20.888 12.668 17.948-11.957 33.193-22.526 20.888 0 0 13.026 1.639 11.77-7.372-1.257-9.01-20.575-6.998-18.629 7.436 1.946 14.433 18.628 15.092 18.628 15.092h-89.864l-7.509-15.156" fill="#86A0AE"/><path d="M504.05 582.985h430.492v81.844H504.05v-81.844z" fill="#366178"/><path d="M794.302 632.275c0 14.99-33.581 27.142-75.006 27.142-41.424 0-75.005-12.152-75.005-27.142s33.58-27.14 75.005-27.14 75.006 12.15 75.006 27.14" fill="#EB672E"/><path d="M504.05 561.35h430.492v21.635H504.05V561.35z" fill="#91E8FF"/><path d="M489.45 549.803h23.425V664.83h-23.424V549.803zM925.718 549.803h23.423V664.83h-23.423V549.803z" fill="#91E8FF"/><path d="M955.081 532.89a3.864 3.864 0 0 0-3.865-3.864h-463.84a3.864 3.864 0 0 0-3.865 3.864v24.596a3.864 3.864 0 0 0 3.864 3.864h463.449a4.257 4.257 0 0 0 4.257-4.258V532.89" fill="#91E8FF"/><path d="M916.545 551.336H520.537v-4.428a3.864 3.864 0 0 1 3.864-3.864H912.68a3.864 3.864 0 0 1 3.865 3.864v4.428" fill="#000"/><path d="M931.053 555.258c0-2.165-1.73-3.921-3.864-3.921H509.892c-2.133 0-3.864 1.756-3.864 3.92v6.093h425.025v-6.092" fill="#FFF"/><path d="M552.287 636.66h334.02v35.47h-334.02v-35.47z" fill="#F2ECEC"/><path d="M552.287 645.097h20.696V718.8h-20.696v-73.704zM865.61 645.097h20.696V718.8H865.61v-73.704z" fill="#F2ECEC"/><path d="M893.815 626.028a3.864 3.864 0 0 0-3.864-3.865h-341.31a3.864 3.864 0 0 0-3.864 3.865v21.265a3.864 3.864 0 0 0 3.864 3.864h341.31a3.864 3.864 0 0 0 3.864-3.864v-21.265" fill="#FFF"/><path d="M504.05 507.73c42.523-18.023 94.606-21.663 140.14-1.64 52.161 22.936 147.22 8.956 212.245-2.866 41.307-7.51 78.107 15.018 78.107 15.018v10.784H504.05V507.73" fill="#366178"/></g></svg>