<svg width="1440" height="752" viewBox="0 0 1440 752" xmlns="http://www.w3.org/2000/svg"><title>generic-piano</title><g fill="none" fill-rule="evenodd"><g fill="#999"><path d="M887.752 707.04H548.056c-6.721 0-12.167 5.446-12.167 12.167 0 6.72 5.446 12.168 12.167 12.168h339.696c6.721 0 12.168-5.448 12.168-12.168 0-6.721-5.447-12.167-12.168-12.167M954.89 653.211H485.24c-6.719 0-12.165 5.446-12.165 12.165 0 6.72 5.446 12.167 12.165 12.167h469.65c6.72 0 12.167-5.447 12.167-12.167 0-6.719-5.447-12.165-12.167-12.165"/></g><path d="M935.976 488.101c0-8.38-6.793-15.172-15.172-15.172H521.196c-8.379 0-15.172 6.792-15.172 15.172v94.383h429.952v-94.383" fill="#392722"/><path d="M721.667 485.044H758v43.551h-36.333v-43.551z" fill="#FFF"/><path d="M725.25 488.727h29.167v2.849H725.25v-2.849zM725.25 494.381h29.167v2.849H725.25v-2.849zM725.25 500.035h29.167v2.849H725.25v-2.849zM725.25 505.689h29.167v2.85H725.25v-2.85zM725.25 511.343h29.167v2.85H725.25v-2.85zM725.25 516.997h29.167v2.849H725.25v-2.849zM725.25 522.651h29.167v2.849H725.25v-2.849z" fill="#323232"/><path d="M771.333 496.939h36.333v43.551h-36.333v-43.551z" fill="#FFF"/><path d="M774.916 500.622h29.167v2.849h-29.167v-2.849zM774.916 506.276h29.167v2.849h-29.167v-2.849zM774.916 511.93h29.167v2.849h-29.167v-2.849zM774.916 517.584h29.167v2.85h-29.167v-2.85zM774.916 523.238h29.167v2.849h-29.167v-2.849zM774.916 528.893h29.167v2.849h-29.167v-2.849zM774.916 534.547h29.167v2.849h-29.167v-2.849z" fill="#323232"/><path d="M506.024 582.484h429.951v81.739H506.024v-81.739z" fill="#000"/><path d="M491.444 549.345h23.395v114.879h-23.395V549.345zM927.162 549.345h23.394v114.879h-23.394V549.345z" fill="#392722"/><path d="M956.488 532.454a3.858 3.858 0 0 0-3.859-3.859H489.371a3.858 3.858 0 0 0-3.859 3.859v24.564a3.859 3.859 0 0 0 3.859 3.859h462.865a4.251 4.251 0 0 0 4.252-4.252v-24.171" fill="#6E3F30"/><path d="M918 550.876H522.49v-4.422a3.859 3.859 0 0 1 3.86-3.859h387.791a3.858 3.858 0 0 1 3.859 3.859v4.422" fill="#323232"/><path d="M932.49 554.735a3.86 3.86 0 0 0-3.859-3.859H511.859a3.86 3.86 0 0 0-3.859 3.859v5.994h424.49v-5.994" fill="#FFF"/><path d="M554.2 636.091h333.6v35.423H554.2v-35.423z" fill="#392722"/><path d="M554.2 644.515h20.67v73.61H554.2v-73.61zM867.13 644.515h20.67v73.61h-20.67v-73.61z" fill="#392722"/><path d="M895.3 625.472a3.86 3.86 0 0 0-3.86-3.86H550.56a3.86 3.86 0 0 0-3.86 3.86v21.238a3.859 3.859 0 0 0 3.86 3.859h340.88a3.859 3.859 0 0 0 3.86-3.859v-21.238" fill="#6E3F30"/><g><path d="M266.301 438.301c0 16.568 13.431 30 30 30h9.649c16.569 0 30-13.432 30-30V379.59c0-16.569-13.431-30-30-30h-9.649c-16.569 0-30 13.431-30 30v58.711M435.776 104.342c0 33.5 9.658 54 9.658 54h-31.498l21.84-54M537.555 402.919l37.476 14.85a13.946 13.946 0 0 0 16.684-20.781l-40.66-60.065-13.5 65.996" fill="#383B33"/><path d="M443.432 20.613c0 20.389-7.656 27.276-7.656 65.8v80.53l-80.879-12.478.022-.002c14.676-2.27 25.532-16.113 25.532-32.499V86.413c0-41.438 6.78-62.887 22.148-78.423 15.368-15.536 40.833-6.796 40.833 12.623" fill="#383B33"/><path d="M560.066 441.283a13.944 13.944 0 0 0 19.886-18.144l-5.092-9.889a142.578 142.578 0 0 1-15.813-65.26v-62.347c0-75.813-61.457-137.27-137.269-137.27H397.08c-86.14 0-155.97 69.83-155.97 155.97v49.395l.225-.004v71.082c0 16.569 13.432 30 30 30h.731c16.569 0 30-13.431 30-30v-63.754a8.58 8.58 0 1 1 17.16 0v72.999c0 6.958 5.639 12.598 12.598 12.598 6.956 0 12.597-5.64 12.597-12.598v-95.437c0-43.234 35.048-78.282 78.282-78.282 41.669 0 76.035 32.641 78.179 74.255l.289 5.619a127.6 127.6 0 0 0 58.895 101.067" fill="#51534B"/><path d="M65.006 445.977H762.99v109.167H65.006V445.977z" fill="#383B33"/><path d="M48.998 445.977h730v13.485h-730v-13.485z" fill="#74766E"/><path d="M.998 493.484h826v61.66h-826v-61.66z" fill="#A6A7A1"/><path d="M152.998 493.484h674v61.66h-674v-61.66z" fill="#C3C4BE"/></g></g></svg>