<svg width="1440" height="752" viewBox="0 0 1440 752" xmlns="http://www.w3.org/2000/svg"><title>library</title><g fill="none" fill-rule="evenodd"><path d="M-2.166 665.145h1443.992l.08-666.395H-2.165v666.395" fill="#28D2FF"/><path d="M1304.686 65.692c0 8.728-7.077 15.806-15.806 15.806h-39.85c-8.73 0-15.808-7.078-15.808-15.806 0-8.728 7.078-15.805 15.808-15.805h39.85c8.729 0 15.806 7.077 15.806 15.805" fill="#D7F4FF"/><path d="M1396.439 99.581c0 12.044-9.766 21.806-21.81 21.806h-149.84c-12.046 0-21.809-9.762-21.809-21.806s9.763-21.806 21.809-21.806h149.84c12.044 0 21.81 9.762 21.81 21.806" fill="#D7F4FF"/><path d="M1290.215 99.581c0 12.044-9.763 21.806-21.808 21.806h-43.618c-12.046 0-21.809-9.762-21.809-21.806s9.763-21.806 21.809-21.806h43.618c12.045 0 21.808 9.762 21.808 21.806" fill="#FFF"/><path d="M1264.836 65.692c0 8.73-7.075 15.806-15.806 15.806-8.73 0-15.808-7.076-15.808-15.806 0-8.729 7.078-15.805 15.808-15.805s15.806 7.076 15.806 15.805" fill="#FFF"/><path d="M1434.607 137.179c0 8.722-7.071 15.792-15.794 15.792h-79.714c-8.722 0-15.794-7.07-15.794-15.792 0-8.72 7.072-15.792 15.794-15.792h79.714c8.723 0 15.794 7.072 15.794 15.792" fill="#D7F4FF"/><path d="M1323.305 137.179c0-8.72 7.072-15.792 15.794-15.792h11.463c8.721 0 15.794 7.072 15.794 15.792 0 8.722-7.073 15.792-15.794 15.792H1339.1c-8.722 0-15.794-7.07-15.794-15.792M1057.012 86.184c0-7.36-5.966-13.325-13.326-13.325s-13.329 5.965-13.329 13.325c0 7.358 5.969 13.325 13.329 13.325s13.326-5.967 13.326-13.325" fill="#FFF"/><path d="M279.36 74.355c0 13.29-10.776 24.063-24.065 24.063H140.088c-13.29 0-24.065-10.773-24.065-24.063 0-13.289 10.774-24.062 24.065-24.062h115.207c13.29 0 24.064 10.773 24.064 24.062" fill="#D7F4FF"/><path d="M351.562 113.634c0 8.959-7.263 16.221-16.222 16.221H195.38c-8.959 0-16.222-7.262-16.222-16.22 0-8.958 7.262-16.222 16.223-16.222H335.34c8.959 0 16.222 7.264 16.222 16.221" fill="#D7F4FF"/><path d="M237.245 113.635c0 8.958-7.262 16.22-16.222 16.22H179.93c-8.959 0-16.222-7.262-16.222-16.22 0-8.958 7.263-16.22 16.222-16.22h41.092c8.96 0 16.223 7.263 16.223 16.22" fill="#FFF"/><path d="M216.795 74.355c0 13.29-10.774 24.063-24.066 24.063h-52.64c-13.292 0-24.066-10.773-24.066-24.063 0-13.289 10.774-24.062 24.065-24.062h52.64c13.293 0 24.067 10.773 24.067 24.062M101.033 114.316c0-7.476-6.06-13.536-13.537-13.536-7.477 0-13.538 6.06-13.538 13.536s6.061 13.536 13.538 13.536 13.537-6.06 13.537-13.536" fill="#FFF"/><path d="M1203.893 195.523h140.743V675.78h-140.743V195.523z" fill="#6D8994"/><path d="M1325.082 348.923h116.743V675.78h-116.743V348.923zM183.503 358.536h155.85v255.586h-155.85V358.536zM-4.528 174.932h118.823V614.12H-4.528V174.932z" fill="#6D8994"/><path d="M1217.675 664.738v-60.706H-1.724v58.1h-.442v90.615h1444.073l-.081-88.009h-224.151" fill="#C7C7C4"/><path d="M303.44 648.57c0-7.128 5.777-12.905 12.904-12.905 7.126 0 12.905 5.777 12.905 12.904M1007.423 732.021c0-7.125 5.777-12.904 12.904-12.904s12.905 5.779 12.905 12.904" fill="#A7A7A5"/><path d="M371.774 705.094c0-7.127 5.776-12.904 12.904-12.904 7.126 0 12.905 5.777 12.905 12.904" fill="#ECECEB"/><path d="M1144.56 37.81c-41.918 118.867-122.12 150.528-122.12 150.528v415.693h48.026a62.81 62.81 0 0 1 52.452 28.256l21.642 32.854V37.81M1172.518 37.81h47.61v627.334h-47.61V37.81zM295.104 268.823S420.28 152.608 599.908 150.847c179.629-1.76 361.018 34.337 409.447 103.891v349.293H295.104V268.823" fill="#BF957B"/><path d="M282.01 206.175l-.002.002v397.854h26.195v-36.355a27.844 27.844 0 0 1 10.357-21.66l.076-.06a10.2 10.2 0 1 1 16.596 7.952v50.123h26.193v-73.185a18 18 0 0 1 10.634-16.419l.004-.002a10.296 10.296 0 0 1 9.807.755 10.297 10.297 0 0 1 4.691 8.643v80.208h26.195V58.003C332.83 93.465 282.01 146.679 282.009 206.175zm35.334-31.856a10.26 10.26 0 0 1 17.888 6.864v17.576c0 7.44-3.225 14.535-8.836 19.421l-.017.015a10.97 10.97 0 0 1-18.176-8.273v-11.778a35.613 35.613 0 0 1 9.132-23.816l.01-.009zm-9.142 120.663a32.2 32.2 0 0 1 9.537-22.875l.011-.01a10.26 10.26 0 0 1 17.48 7.287v32.758a23.532 23.532 0 0 1-9.685 19.018l-.024.018a10.913 10.913 0 0 1-11.37.894 10.912 10.912 0 0 1-5.95-9.727v-27.363zm16.314 188.476a10.244 10.244 0 0 1-10.699.894 10.243 10.243 0 0 1-5.614-9.147v-71.82a27.849 27.849 0 0 1 10.356-21.66l.005-.003a10.24 10.24 0 1 1 16.666 7.98v72.562a26.34 26.34 0 0 1-10.696 21.182l-.018.012zm62.045-45.095a17.962 17.962 0 0 1-10.794 16.464l-.016.007a10.242 10.242 0 0 1-14.326-9.398v-81.843c0-5.232 3.054-9.997 7.812-12.178l.005-.003a12.225 12.225 0 0 1 11.702.823 12.227 12.227 0 0 1 5.617 10.295v75.833zm0-150.493a16.353 16.353 0 0 1-9.873 15.01l-.031.014a10.91 10.91 0 0 1-15.232-10.023v-44.27a16.59 16.59 0 0 1 8.545-14.5l.044-.026a11.158 11.158 0 0 1 11.068.154 11.155 11.155 0 0 1 5.48 9.614v44.027zm0-119.801a18.795 18.795 0 0 1-10.051 16.63l-.016.008a10.29 10.29 0 0 1-10.11-.31 10.293 10.293 0 0 1-4.96-8.812v-31.14a13.68 13.68 0 0 1 6.394-11.572l.025-.016a12.224 12.224 0 0 1 12.42-.343 12.225 12.225 0 0 1 6.298 10.705v24.85zM658.513 12.865c-77.513 0-149.387 12.766-208.527 34.539V604.03h26.194v-107.16c0-7.268 5.102-13.55 12.219-15.02 1.162-.24 2.327-.478 3.497-.713a15.348 15.348 0 0 1 12.743 3.17 15.345 15.345 0 0 1 5.637 11.866V604.03h26.195V487.088c0-7.748 5.779-14.29 13.469-15.225 17.506-2.124 35.576-3.747 54.1-4.828a15.336 15.336 0 0 1 16.232 15.324v121.672h26.194v-122.49c0-4.234 1.709-8.29 4.737-11.25a15.743 15.743 0 0 1 11.356-4.487c17.277.391 44.837 1.188 65.222 2.371 8.329.483 14.81 7.365 14.81 15.708v120.148h26.193V490.085c0-4.57 1.99-8.915 5.45-11.906a15.747 15.747 0 0 1 12.573-3.682c18.054 2.648 35.428 5.84 51.996 9.521a15.71 15.71 0 0 1 12.306 15.36v104.653h26.194v-88.686a15.741 15.741 0 0 1 20.803-14.901c10.807 3.673 21.058 7.591 30.695 11.73a15.748 15.748 0 0 1 9.529 14.464v77.393h26.194v-51.32c0-4.559 2.584-8.725 6.67-10.751a12 12 0 0 1 12.597 1.195l.03.023a35.448 35.448 0 0 1 13.965 28.206v32.647h26.194V206.177c0-106.762-163.624-193.312-365.467-193.312zM938.33 287.936c0 4.142-2.059 8.012-5.494 10.328a12.458 12.458 0 0 1-11.637 1.224c-10.425-4.219-21.508-8.188-33.188-11.879a15.33 15.33 0 0 1-10.709-14.626v-53.81c0-4.993 2.432-9.675 6.517-12.546a15.348 15.348 0 0 1 14.015-1.89c11.12 4.003 21.654 8.277 31.537 12.8a15.349 15.349 0 0 1 8.959 13.955v56.444zm26.194-25.345c0-5.196 3.011-9.92 7.721-12.114a13.362 13.362 0 0 1 14.244 1.88c.46.386.914.774 1.366 1.162a28.535 28.535 0 0 1 9.931 21.643v42.43c0 4.967-2.756 9.524-7.154 11.833a13.359 13.359 0 0 1-13.805-.833l-.019-.013a28.496 28.496 0 0 1-12.284-23.442V262.59zm-360.54-93.184a15.332 15.332 0 0 1 11.458 4.137 15.347 15.347 0 0 1 4.828 11.184v57.376c0 8.128-6.342 14.853-14.459 15.312a872.175 872.175 0 0 0-52.22 4.495 15.335 15.335 0 0 1-11.985-3.783 15.355 15.355 0 0 1-5.136-11.468v-56.912c0-7.703 5.716-14.224 13.358-15.21 17.522-2.258 35.612-3.982 54.156-5.13zm-50.29-35.457a15.339 15.339 0 0 1-17.224-15.24V87.913c0-7.513 5.426-13.888 12.838-15.112 17.597-2.91 35.766-5.13 54.395-6.608a15.35 15.35 0 0 1 11.623 4.021 15.345 15.345 0 0 1 4.946 11.266v32.419c0 8.12-6.315 14.81-14.422 15.295-17.835 1.066-35.252 2.664-52.156 4.757zm92.772 45.8c0-6.653 5.392-12.046 12.045-12.046h.002c25.014 0 49.44 1.042 73.041 3.029 6.234.524 11.038 5.734 11.038 11.99v60.33a15.34 15.34 0 0 1-4.896 11.232 15.349 15.349 0 0 1-11.563 4.079c-21.914-1.606-44.515-2.448-67.62-2.448h-.002a12.045 12.045 0 0 1-12.045-12.045V179.75zm122.318 12.69c0-4.478 1.96-8.73 5.358-11.645a15.343 15.343 0 0 1 12.333-3.53c18.36 2.848 36.018 6.29 52.842 10.272a15.314 15.314 0 0 1 11.792 14.925v55.672a15.34 15.34 0 0 1-5.684 11.918 15.348 15.348 0 0 1-12.843 3.099c-16.172-3.434-33.081-6.404-50.612-8.865-7.58-1.064-13.186-7.533-13.186-15.186v-56.66zm13.084-55.975c-7.509-1.117-13.084-7.56-13.084-15.15V91.363c0-4.595 2.06-8.947 5.615-11.86a15.354 15.354 0 0 1 12.733-3.18c18.454 3.67 36.197 8.109 53.092 13.24a15.341 15.341 0 0 1 10.885 14.67v26.644c0 4.661-2.121 9.069-5.762 11.98a15.354 15.354 0 0 1-12.957 2.983c-16.146-3.632-33.024-6.773-50.522-9.375zm105.902 24.671a15.333 15.333 0 0 1-10.467-14.546V125.72a15.335 15.335 0 0 1 7.076-12.92 15.333 15.333 0 0 1 14.698-1.004c11.191 5.18 21.78 10.716 31.703 16.573a15.372 15.372 0 0 1 7.55 13.216v16.335c0 5.124-2.56 9.91-6.822 12.755a15.338 15.338 0 0 1-14.4 1.411c-9.295-3.863-19.087-7.52-29.338-10.95zM731.834 67.893c6.113.658 10.758 5.815 10.758 11.962v38.612a12.046 12.046 0 0 1-13.043 12.006c-22.978-1.88-46.728-2.868-71.035-2.868h-.002a12.048 12.048 0 0 1-12.046-12.046V76.047c0-6.652 5.394-12.046 12.048-12.046 25.113 0 49.632 1.341 73.32 3.892zM476.18 101.261a15.339 15.339 0 0 1 11.172-14.764 516.23 516.23 0 0 1 3.525-.98 15.34 15.34 0 0 1 19.4 14.799v27.64c0 7.283-5.124 13.574-12.262 15.028-1.122.228-2.24.46-3.355.692a15.344 15.344 0 0 1-18.48-15.027v-27.388zm0 98.876c0-7.197 5.006-13.438 12.036-14.98 1.164-.256 2.33-.509 3.501-.758a15.34 15.34 0 0 1 12.852 3.073 15.342 15.342 0 0 1 5.708 11.923v55.993c0 7.345-5.21 13.673-12.425 15.06-1.124.215-2.244.434-3.36.654a15.34 15.34 0 0 1-18.312-15.062v-55.903zm18.31 222.513c-4.504.89-9.17-.287-12.714-3.204a15.352 15.352 0 0 1-5.596-11.858v-75.009c0-7.267 5.102-13.548 12.219-15.018a739.58 739.58 0 0 1 8.013-1.608 11.646 11.646 0 0 1 9.63 2.449 11.654 11.654 0 0 1 4.233 8.989v79.545c0 7.347-5.21 13.673-12.425 15.06-1.123.216-2.243.434-3.36.654zm59.101-9.193a15.338 15.338 0 0 1-17.12-15.25v-75.41c0-7.747 5.779-14.29 13.469-15.223 17.506-2.127 35.576-3.748 54.1-4.829a15.333 15.333 0 0 1 11.424 4.16 15.346 15.346 0 0 1 4.807 11.165v75.58c0 8.129-6.342 14.853-14.459 15.312a874.67 874.67 0 0 0-52.22 4.495zm104.922-5.993h-.002a12.044 12.044 0 0 1-12.045-12.046v-82.23c0-6.65 5.392-12.044 12.045-12.044h.002c25 0 49.41.983 72.998 2.853a12.027 12.027 0 0 1 11.082 12.007v82.146c0 3.356-1.401 6.558-3.862 8.84a12.056 12.056 0 0 1-9.113 3.183c-23-1.776-46.773-2.71-71.105-2.71zm120.67 7.982a12.025 12.025 0 0 1-10.399-11.935v-81.978c0-3.488 1.514-6.803 4.146-9.093a12.057 12.057 0 0 1 9.587-2.85c20.671 2.917 40.475 6.542 59.224 10.8a12.027 12.027 0 0 1 9.368 11.747v81.622c0 3.647-1.654 7.096-4.494 9.384a12.05 12.05 0 0 1-10.129 2.397c-18.2-3.979-37.355-7.365-57.302-10.094zm106.582 23.004a12.038 12.038 0 0 1-8.463-11.503v-81.012c0-3.863 1.852-7.49 4.98-9.755a12.047 12.047 0 0 1 10.823-1.694c13.538 4.437 26.242 9.25 38.006 14.4a12.054 12.054 0 0 1 7.219 11.04v80.167c0 4.009-1.995 7.754-5.32 9.993a12.044 12.044 0 0 1-11.26 1.172c-11.251-4.572-23.271-8.854-35.985-12.808zm91.808 42.21a30.548 30.548 0 0 1-13.05-25.05V391.2a13.367 13.367 0 0 1 21.64-10.498l.033.027a30.475 30.475 0 0 1 11.59 23.927v68.721a11.17 11.17 0 0 1-6.082 9.944 11.165 11.165 0 0 1-11.624-.883c-.825-.595-1.66-1.188-2.507-1.778zm13.676-303.405a26.947 26.947 0 0 1 6.537 17.613v7.319a9.155 9.155 0 0 1-14.858 7.162 196.906 196.906 0 0 0-10.406-7.735 18.64 18.64 0 0 1-7.997-15.28v-3.993a13.37 13.37 0 0 1 23.234-9.02 179.882 179.882 0 0 1 3.49 3.934zM1215.362 37.81v11.648c0 6.653-5.393 12.046-12.046 12.046h-13.983c-6.654 0-12.048-5.393-12.048-12.046V37.81h-32.725v627.335h32.725V326.28c0-6.653 5.394-12.046 12.048-12.046h13.983c6.653 0 12.046 5.393 12.046 12.046v338.864h32.725V37.81h-32.725zm-12.046 48.638c6.653 0 12.046 5.394 12.046 12.046v35.773c0 6.653-5.393 12.045-12.046 12.045h-13.983c-6.653 0-12.047-5.392-12.047-12.045V98.494c0-6.652 5.394-12.046 12.047-12.046h13.983zm-13.983 202.843c-6.654 0-12.048-5.394-12.048-12.046v-93.943c0-6.652 5.394-12.045 12.048-12.045h13.983c6.653 0 12.046 5.393 12.046 12.045v93.943c0 6.652-5.393 12.046-12.046 12.046h-13.983z" fill="#FFC7A4"/><path d="M412.754 58.003h37.23V604.03h-37.23V58.003z" fill="#BF957B"/><path d="M220.594 683.387c0 11.628-19.528 21.054-43.618 21.054-24.09 0-43.618-9.426-43.618-21.054 0-11.628 19.528-21.055 43.618-21.055 24.09 0 43.618 9.427 43.618 21.055" fill="#815130"/><path d="M193.52 471.126c0-9.136-7.406-16.543-16.544-16.543-9.137 0-16.545 7.407-16.545 16.543v212.26h33.09v-212.26" fill="#9A7459"/><path d="M337.422 391.055c0 78.078-64.229 141.374-143.462 141.374-79.231 0-143.463-63.296-143.463-141.374v-.694c0-78.077 64.232-141.372 143.463-141.374 79.233 0 143.462 63.297 143.462 141.374v.694" fill="#5AB55C"/><path d="M193.67 547.466c-6.85-.01-12.616-4.593-14.43-10.86-2.979 5.806-9.537 9.185-16.256 7.872-6.728-1.314-11.532-6.929-12.103-13.436-4.041 5.124-11.14 7.19-17.488 4.602-6.348-2.597-9.968-9.034-9.266-15.532-4.964 4.252-12.324 4.893-18.05 1.124-5.736-3.77-8.042-10.789-6.097-17.025-5.696 3.207-13.036 2.416-17.93-2.386-4.893-4.814-5.795-12.153-2.677-17.889-6.207 2.037-13.266-.17-17.127-5.845-3.86-5.674-3.31-13.054.882-18.077-6.498.772-12.996-2.778-15.653-9.114-2.657-6.337-.652-13.466 4.452-17.558-6.518-.541-12.173-5.323-13.507-12.072-1.344-6.737 2.046-13.314 7.872-16.302-6.258-1.826-10.83-7.6-10.83-14.45 0-6.856 4.583-12.642 10.86-14.447-5.816-3.008-9.186-9.595-7.832-16.323v-.01c1.364-6.738 7.02-11.51 13.558-12.022-5.104-4.111-7.09-11.24-4.412-17.576 2.677-6.327 9.175-9.866 15.673-9.074-4.182-5.035-4.713-12.413-.832-18.078 3.87-5.675 10.94-7.85 17.147-5.796-3.109-5.755-2.186-13.084 2.717-17.887 4.904-4.804 12.244-5.565 17.93-2.346-1.925-6.237.401-13.245 6.137-17.005 5.746-3.76 13.096-3.088 18.05 1.173-.682-6.497 2.958-12.924 9.316-15.501 6.347-2.578 13.437-.501 17.468 4.632.592-6.498 5.405-12.102 12.133-13.396 6.729-1.303 13.277 2.095 16.245 7.9 1.825-6.255 7.601-10.818 14.45-10.818 6.85.011 12.625 4.583 14.44 10.84 2.978-5.796 9.527-9.195 16.255-7.882 6.729 1.303 11.532 6.91 12.114 13.415 4.04-5.122 11.13-7.198 17.478-4.61 6.358 2.586 9.988 9.013 9.296 15.51a15.06 15.06 0 0 1 18.05-1.143c5.725 3.77 8.042 10.779 6.106 17.015 5.686-3.21 13.036-2.426 17.93 2.377 4.894 4.802 5.806 12.142 2.697 17.887 6.208-2.045 13.267.15 17.138 5.814 3.86 5.676 3.319 13.056-.863 18.088 6.498-.78 12.996 2.769 15.664 9.095 2.667 6.337.672 13.465-4.433 17.567 6.529.521 12.184 5.304 13.528 12.042v.01c1.344 6.737-2.036 13.315-7.862 16.313 6.277 1.815 10.86 7.59 10.86 14.447v.322c0 6.867-4.603 12.654-10.89 14.458 5.806 3.017 9.175 9.606 7.812 16.343-1.364 6.728-7.03 11.501-13.558 12.013 5.094 4.11 7.07 11.25 4.382 17.576-2.677 6.317-9.185 9.855-15.683 9.054 4.171 5.044 4.693 12.423.812 18.088-3.88 5.655-10.95 7.83-17.147 5.774 3.098 5.757 2.166 13.086-2.748 17.878-4.903 4.793-12.254 5.545-17.93 2.327 1.916 6.235-.42 13.245-6.156 16.995-5.746 3.75-13.107 3.078-18.05-1.193.672 6.497-2.969 12.924-9.326 15.49v.01c-6.358 2.568-13.447.482-17.478-4.662-.592 6.497-5.405 12.092-12.144 13.386-6.729 1.293-13.267-2.116-16.235-7.921a15.038 15.038 0 0 1-14.44 10.799h-.02zm.05-30.08c5.835.009 10.89 3.339 13.376 8.2 1.535-5.232 5.877-9.443 11.602-10.536 5.716-1.103 11.302 1.203 14.67 5.483.502-5.423 3.942-10.386 9.347-12.562 5.395-2.187 11.321-1.003 15.452 2.547a15.04 15.04 0 0 1 6.74-14.138c4.873-3.188 10.91-3.178 15.652-.492-1.594-5.213-.29-11.109 3.871-15.17 4.162-4.07 10.088-5.233 15.252-3.519-2.577-4.793-2.447-10.828.843-15.621a15.045 15.045 0 0 1 14.249-6.428c-3.46-4.19-4.523-10.116-2.246-15.46 2.266-5.345 7.25-8.693 12.665-9.124-4.222-3.42-6.438-9.005-5.285-14.69 1.143-5.684 5.365-9.965 10.58-11.47a15.039 15.039 0 0 1-8.103-13.355v-.322c0-5.824 3.31-10.877 8.143-13.374-5.215-1.514-9.427-5.805-10.56-11.5-1.133-5.686 1.103-11.27 5.325-14.67-5.405-.45-10.389-3.81-12.645-9.154-2.256-5.354-1.173-11.28 2.296-15.46-5.394.651-10.96-1.665-14.229-6.458-3.279-4.812-3.39-10.838-.802-15.631a15.06 15.06 0 0 1-15.252-3.55c-4.152-4.08-5.435-9.976-3.83-15.19a15.032 15.032 0 0 1-15.654-.531c-4.864-3.19-7.27-8.733-6.699-14.148-4.141 3.54-10.067 4.703-15.462 2.507-5.395-2.197-8.825-7.17-9.316-12.593-3.38 4.281-8.965 6.567-14.68 5.454-5.727-1.114-10.049-5.335-11.573-10.568-2.507 4.853-7.56 8.172-13.397 8.16-5.836 0-10.89-3.327-13.377-8.18-1.534 5.234-5.866 9.445-11.592 10.548a15.042 15.042 0 0 1-14.68-5.466 15.019 15.019 0 0 1-9.326 12.575 15.033 15.033 0 0 1-15.453-2.527c.552 5.413-1.855 10.95-6.728 14.138a15.006 15.006 0 0 1-15.654.51c1.605 5.215.311 11.11-3.85 15.181a15.029 15.029 0 0 1-15.253 3.53c2.578 4.792 2.457 10.827-.822 15.63-3.279 4.794-8.854 7.099-14.25 6.438 3.47 4.191 4.533 10.117 2.277 15.46a15.04 15.04 0 0 1-12.665 9.135c4.222 3.41 6.458 8.994 5.315 14.679h-.01c-1.143 5.695-5.355 9.975-10.57 11.49 4.824 2.496 8.133 7.55 8.133 13.355 0 5.836-3.32 10.89-8.173 13.386 5.215 1.524 9.416 5.816 10.55 11.51 1.133 5.696-1.113 11.27-5.345 14.669 5.405.452 10.389 3.82 12.635 9.165a15.049 15.049 0 0 1-2.307 15.45 15.044 15.044 0 0 1 14.22 6.488c3.269 4.803 3.379 10.839.782 15.621 5.174-1.694 11.09-.511 15.242 3.57a15.044 15.044 0 0 1 3.82 15.19c4.744-2.667 10.79-2.657 15.654.552 4.863 3.198 7.26 8.743 6.678 14.157 4.152-3.53 10.078-4.692 15.463-2.488 5.395 2.207 8.814 7.18 9.306 12.605 3.38-4.271 8.975-6.558 14.69-5.435 5.716 1.113 10.038 5.345 11.562 10.578 2.497-4.842 7.551-8.151 13.367-8.151h.03z" fill="#5AB55C"/><path d="M294.408 394.892c0 84.181-45.973 152.422-117.43 152.422-84.19 0-152.44-68.24-152.44-152.42v-1.042c0-84.18 68.25-152.422 152.44-152.423 71.457 0 117.43 68.243 117.43 152.423v1.04" fill="#A9D163"/><path d="M162.864 561.762c-7.03-.581-12.515-5.904-13.598-12.573-3.319 5.887-10.318 8.984-17.117 7.1-6.799-1.885-11.2-8.152-11.02-14.9-4.352 5.154-11.813 6.899-18.14 3.78-6.328-3.128-9.487-10.097-8.053-16.695-5.234 4.262-12.885 4.583-18.52.342-5.637-4.232-7.452-11.67-4.814-17.877-5.937 3.218-13.508 2.114-18.26-3.078-4.764-5.205-5.175-12.844-1.445-18.47-6.417 2.065-13.657-.41-17.378-6.396-3.71-5.997-2.707-13.576 2.006-18.409-6.699.832-13.357-2.948-15.894-9.525a15.056 15.056 0 0 1 5.405-17.727c-6.739-.431-12.575-5.384-13.838-12.323-1.254-6.928 2.456-13.616 8.603-16.393-6.498-1.665-11.3-7.55-11.3-14.569 0-7.04 4.832-12.944 11.36-14.589-6.136-2.808-9.817-9.505-8.533-16.433 1.293-6.93 7.15-11.862 13.888-12.263-5.515-3.9-7.881-11.17-5.324-17.747 2.567-6.567 9.245-10.327 15.944-9.455-4.693-4.853-5.676-12.443-1.936-18.418 3.74-5.987 11-8.423 17.408-6.337-3.71-5.635-3.259-13.275 1.525-18.45 4.773-5.184 12.354-6.246 18.27-3.008-2.607-6.226-.762-13.645 4.894-17.856 5.655-4.211 13.296-3.86 18.51.41-1.403-6.597 1.786-13.545 8.123-16.644 6.338-3.087 13.788-1.323 18.12 3.85-.15-6.747 4.282-12.984 11.091-14.84 6.809-1.853 13.788 1.275 17.077 7.16 1.113-6.658 6.629-11.951 13.658-12.513 7.07-.561 13.387 3.86 15.493 10.327 2.467-6.466 9.185-10.568 16.305-9.485v.01c7.18 1.094 12.404 7.1 12.755 14.078 4.162-5.635 11.843-7.76 18.441-4.703 6.578 3.059 9.908 10.268 8.313 17.066 5.515-4.232 13.427-4.191 18.922.511 5.466 4.661 6.76 12.392 3.52 18.488 6.308-2.686 13.848-.781 18.05 5.004 4.172 5.734 3.69 13.425-.712 18.59 6.628-1.274 13.527 2.064 16.486 8.472 2.938 6.367 1.053 13.725-4.142 17.958 6.679-.08 12.826 4.321 14.68 11.058v.01c1.846 6.699-1.162 13.597-6.888 16.955 6.558.923 11.953 6.127 12.815 13.015.873 6.867-3.038 13.225-9.125 15.762 6.327 1.785 10.96 7.59 10.96 14.488v.371c0 6.908-4.663 12.724-11 14.489 6.077 2.557 9.967 8.933 9.085 15.802-.893 6.878-6.307 12.072-12.876 12.974 5.726 3.378 8.704 10.277 6.84 16.985-1.876 6.737-8.053 11.118-14.731 10.998 5.184 4.261 7.039 11.632 4.07 17.989-2.977 6.397-9.897 9.705-16.525 8.392 4.382 5.194 4.823 12.884.632 18.61-4.232 5.765-11.793 7.63-18.09 4.912 3.209 6.106 1.865 13.837-3.62 18.47-5.525 4.662-13.427 4.662-18.922.4 1.544 6.808-1.826 13.986-8.424 17.005-6.618 3.008-14.28.833-18.4-4.822-.412 6.978-5.666 12.944-12.846 13.997-7.13 1.032-13.808-3.099-16.245-9.576-2.006 6.056-7.721 10.308-14.26 10.308-.42 0-.842-.02-1.273-.062zm15.332-20.303a15.045 15.045 0 0 1 12.104-10.136c5.706-.832 11.14 1.663 14.32 6.016a15.042 15.042 0 0 1 8.774-12.795c5.264-2.396 11.18-1.513 15.462 1.795-1.193-5.304.532-11.059 4.964-14.809 4.503-3.81 10.6-4.512 15.663-2.326a15.03 15.03 0 0 1 1.204-15.873c3.56-4.852 9.486-6.947 15.031-5.864-3.66-4.342-4.693-10.578-2.136-16.064 2.588-5.544 8.123-8.773 13.869-8.682a15.04 15.04 0 0 1-4.934-15.651c1.655-5.957 6.679-10.077 12.435-10.87-5.014-2.967-8.053-8.732-7.26-14.879.802-6.176 5.234-10.989 10.88-12.563-5.405-2.277-9.206-7.63-9.206-13.867v-.37c0-6.258 3.82-11.621 9.246-13.887-5.636-1.595-10.058-6.427-10.84-12.604-.772-6.146 2.286-11.901 7.31-14.86-5.756-.811-10.77-4.942-12.404-10.908a15.04 15.04 0 0 1 4.993-15.641c-5.745.069-11.27-3.179-13.838-8.734-2.537-5.494-1.474-11.73 2.206-16.062-5.545 1.063-11.461-1.063-15.001-5.936-3.49-4.803-3.72-10.98-1.123-15.892-5.084 2.155-11.171 1.424-15.654-2.406a15.027 15.027 0 0 1-4.873-14.87 15.038 15.038 0 0 1-15.493 1.705 15.033 15.033 0 0 1-8.684-12.855c-3.209 4.341-8.654 6.799-14.36 5.926-5.806-.882-10.328-4.973-12.043-10.197-2.015 5.233-6.889 9.135-12.855 9.606-6.047.481-11.532-2.687-14.32-7.64-.943 5.603-5.034 10.427-10.88 12.021-5.846 1.595-11.833-.49-15.483-4.842.12 5.685-2.998 11.2-8.453 13.845-5.445 2.667-11.713 1.736-16.115-1.864 1.173 5.565-.872 11.561-5.726 15.18a15.042 15.042 0 0 1-16.204 1.144c2.186 5.253 1.283 11.53-2.828 15.991a15.028 15.028 0 0 1-15.714 4.112c3.119 4.762 3.39 11.098.18 16.243-3.218 5.132-9.034 7.66-14.68 6.938 3.951 4.101 5.395 10.266 3.19 15.912-2.197 5.645-7.431 9.215-13.107 9.556 4.633 3.288 7.2 9.073 6.087 15.03-1.103 5.955-5.586 10.437-11.101 11.83 5.184 2.377 8.784 7.61 8.784 13.687 0 6.096-3.63 11.34-8.844 13.706 5.515 1.414 9.977 5.915 11.06 11.88a15.027 15.027 0 0 1-6.157 15c5.666.373 10.89 3.962 13.066 9.616 2.176 5.656.712 11.812-3.249 15.893 5.646-.702 11.442 1.855 14.63 6.998 3.2 5.164 2.899 11.49-.24 16.244 5.425-1.735 11.602-.301 15.694 4.17a15.051 15.051 0 0 1 2.757 16.012 15.053 15.053 0 0 1 16.195 1.204c4.853 3.65 6.869 9.656 5.666 15.22 4.422-3.579 10.69-4.491 16.134-1.804 5.435 2.676 8.534 8.202 8.383 13.897 3.68-4.342 9.667-6.407 15.513-4.784 5.836 1.615 9.908 6.458 10.83 12.072 2.808-4.952 8.303-8.09 14.35-7.579 5.966.491 10.83 4.412 12.825 9.665z" fill="#A9D163"/><path d="M260.68 394.892c0 84.181-53.41 152.422-83.702 152.422-84.19 0-152.44-68.24-152.44-152.42v-1.042c0-84.18 68.25-152.422 152.44-152.423 42.894 0 83.701 68.243 83.701 152.423v1.04" fill="#D0D766"/><path d="M161.42 561.642c-7.05-.65-12.515-6.065-13.497-12.773-3.36 5.896-10.42 8.964-17.218 7.008-6.819-1.954-11.17-8.301-10.89-15.09-4.392 5.175-11.903 6.869-18.23 3.68-6.318-3.198-9.416-10.237-7.872-16.844a15.057 15.057 0 0 1-18.592.22v-.01c-5.615-4.3-7.35-11.79-4.612-17.997a15.052 15.052 0 0 1-18.3-3.219c-4.724-5.274-5.045-12.964-1.204-18.55-6.468 2.047-13.718-.5-17.388-6.557-3.67-6.056-2.557-13.665 2.246-18.448-6.729.802-13.387-3.048-15.864-9.686-2.477-6.627.04-13.907 5.656-17.707-6.759-.46-12.585-5.494-13.778-12.483-1.184-6.97 2.637-13.636 8.854-16.323-6.518-1.704-11.291-7.66-11.22-14.699.06-7.079 5.003-12.965 11.601-14.498-6.147-2.858-9.787-9.626-8.413-16.564 1.384-6.959 7.34-11.831 14.129-12.112-5.525-3.95-7.842-11.29-5.184-17.858 2.657-6.567 9.416-10.247 16.134-9.255-4.683-4.902-5.585-12.542-1.755-18.5 3.831-5.954 11.151-8.3 17.559-6.084-3.68-5.696-3.159-13.366 1.715-18.5v-.01c4.863-5.133 12.494-6.085 18.37-2.727-2.567-6.276-.631-13.716 5.105-17.867 5.725-4.16 13.407-3.68 18.57.712-1.363-6.637 1.926-13.597 8.324-16.614 6.408-3.018 13.868-1.123 18.12 4.161-.09-6.788 4.432-13.005 11.291-14.769 6.86-1.775 13.828 1.484 17.027 7.47 1.164-6.678 6.769-11.942 13.839-12.403 7.41-.481 13.928 4.492 15.603 11.49 3.65-6.868 12.033-9.866 19.283-6.707 7.03 3.077 10.53 10.868 8.413 18.036 5.997-4.01 14.19-3.227 19.304 2.197h-.01c4.973 5.274 5.394 13.185 1.413 18.9 6.559-2.006 13.859.702 17.429 6.898 3.51 6.107 2.246 13.656-2.618 18.33 6.669-.713 13.227 3.127 15.684 9.695 2.437 6.516.06 13.665-5.365 17.516 6.628.26 12.525 4.903 14.079 11.671 1.544 6.747-1.715 13.475-7.52 16.603 6.507 1.064 11.772 6.348 12.514 13.226.742 6.858-3.25 13.145-9.366 15.581 6.307 1.795 10.94 7.59 10.94 14.478v.231c0 6.979-4.753 12.834-11.19 14.539 6.126 2.597 9.997 9.064 9.024 15.962-.973 6.898-6.478 12.032-13.086 12.824 5.706 3.41 8.664 10.327 6.759 17.025-1.906 6.698-8.053 11.04-14.701 10.938 5.204 4.141 7.19 11.401 4.402 17.788-2.808 6.397-9.516 9.866-16.114 8.834 4.602 4.853 5.545 12.383 1.825 18.318v-.01c-3.74 5.986-11.01 8.433-17.429 6.327 3.821 5.655 3.41 13.395-1.424 18.62-4.973 5.384-12.965 6.316-18.972 2.586 2.437 7.009-.622 14.91-7.42 18.349-7.33 3.7-16.255.842-20.086-6.378-1.755 6.477-7.681 11.09-14.5 11.09-.461 0-.923-.02-1.394-.06zm2.758-29.96a15.036 15.036 0 0 1 11.913 7.942c1.083-3.97 3.77-7.48 7.731-9.474 4.853-2.457 10.399-2.036 14.71.631-1.754-5.073-.731-10.92 3.17-15.13 4.11-4.462 10.308-5.865 15.723-4.09-3.219-4.783-3.53-11.2-.28-16.394 3.288-5.264 9.305-7.79 15.07-6.89-4.02-4.26-5.344-10.667-2.847-16.373 2.507-5.714 8.132-9.093 14.009-9.012-4.593-3.66-6.79-9.857-5.084-15.863 1.704-6.005 6.828-10.126 12.665-10.828-5.044-3.018-8.063-8.844-7.18-15.02.872-6.177 5.365-10.929 11.03-12.444a15.019 15.019 0 0 1-9.165-13.846v-.231c0-6.336 3.91-11.75 9.446-13.966-5.716-1.625-10.168-6.578-10.85-12.855-.672-6.267 2.597-12.041 7.812-14.859-5.847-.962-10.81-5.354-12.214-11.48-1.404-6.106 1.123-12.192 5.926-15.621-5.876-.231-11.311-3.912-13.497-9.766-2.166-5.786-.532-12.073 3.65-16.103-5.736.602-11.562-2.147-14.63-7.47-2.989-5.205-2.517-11.45.691-16.073-5.294 1.605-11.29.221-15.332-4.08a15.026 15.026 0 0 1-3.49-14.559 14.998 14.998 0 0 1-14.36 1.274c-4.492-1.956-7.54-5.846-8.613-10.258-2.367 4.422-6.9 7.57-12.284 7.921a15.057 15.057 0 0 1-14.25-7.92 15.036 15.036 0 0 1-11.06 11.96c-5.896 1.515-11.873-.68-15.463-5.122a15.045 15.045 0 0 1-8.634 13.816c-5.505 2.586-11.792 1.554-16.154-2.145a15.056 15.056 0 0 1-5.907 15.19c-4.933 3.57-11.31 3.72-16.285.892 2.166 5.294 1.194 11.6-2.998 16.023-4.192 4.42-10.429 5.745-15.844 3.88 3.109 4.813 3.32 11.18.02 16.303a15.038 15.038 0 0 1-14.84 6.747c3.94 4.152 5.334 10.367 3.048 16.013-2.277 5.645-7.601 9.155-13.307 9.394 4.643 3.33 7.17 9.185 5.987 15.151-1.184 5.976-5.756 10.408-11.322 11.721 5.185 2.416 8.754 7.7 8.694 13.787-.06 6.136-3.78 11.37-9.055 13.656 5.525 1.453 9.988 6.026 11.01 12.032 1.023 5.996-1.664 11.771-6.387 14.98 5.696.4 10.91 4.05 13.036 9.744a15.048 15.048 0 0 1-3.47 15.914c5.676-.663 11.482 1.945 14.63 7.148a15.036 15.036 0 0 1-.45 16.293 15.062 15.062 0 0 1 15.723 4.312c4.061 4.541 4.864 10.869 2.567 16.103 5.044-2.698 11.412-2.377 16.245 1.333 4.843 3.71 6.799 9.776 5.505 15.35a15.016 15.016 0 0 1 16.205-1.704c5.435 2.738 8.494 8.333 8.253 14.048a15.051 15.051 0 0 1 15.603-4.703c5.846 1.675 9.887 6.598 10.73 12.253 2.617-4.582 7.55-7.59 13.056-7.59.461 0 .932.02 1.394.059z" fill="#D0D766"/></g></svg>