<svg width="1440" height="752" viewBox="0 0 1440 752" xmlns="http://www.w3.org/2000/svg"><title>library-piano</title><g fill="none" fill-rule="evenodd"><path d="M887.752 707.04H548.056c-6.721 0-12.167 5.446-12.167 12.167 0 6.72 5.446 12.168 12.167 12.168h339.696c6.721 0 12.168-5.448 12.168-12.168 0-6.721-5.447-12.167-12.168-12.167M954.89 653.211H485.24c-6.719 0-12.165 5.446-12.165 12.165 0 6.72 5.446 12.167 12.165 12.167h469.65c6.72 0 12.167-5.447 12.167-12.167 0-6.719-5.447-12.165-12.167-12.165" fill="#999"/><path d="M933.76 488.849c0-8.379-6.792-15.172-15.171-15.172H518.981c-8.379 0-15.172 6.793-15.172 15.172v60.399H933.76v-60.399" fill="#E5E5E5"/><path d="M503.81 572.429h429.951v92.543H503.81v-92.543z" fill="#B0B0B0"/><path d="M910.333 639.102h-37.498v-29.999h23.998c7.457 0 13.5 6.043 13.5 13.499v16.5" fill="#EF5281"/><path d="M530.026 637H598v27.972h-67.974V637z" fill="#0573E9"/><path d="M503.81 561.625h429.951v21.607H503.81v-21.607z" fill="#E5E5E5"/><path d="M489.229 550.093h23.394v114.879h-23.394V550.093zM924.947 550.093h23.394v114.879h-23.394V550.093z" fill="#E5E5E5"/><path d="M954.273 533.202a3.859 3.859 0 0 0-3.859-3.859H487.155a3.858 3.858 0 0 0-3.858 3.859v24.564a3.858 3.858 0 0 0 3.858 3.859h462.867a4.25 4.25 0 0 0 4.251-4.252v-24.171" fill="#FFF"/><path d="M915.785 551.624h-395.51v-4.422a3.859 3.859 0 0 1 3.859-3.859h387.792a3.859 3.859 0 0 1 3.859 3.859v4.422" fill="#000"/><path d="M930.276 555.541c0-2.162-1.729-3.916-3.86-3.916H509.644c-2.131 0-3.859 1.754-3.859 3.916v6.084h424.491v-6.084" fill="#FFF"/><path d="M551.985 636.839h333.599v35.423H551.985v-35.423z" fill="#E5E5E5"/><path d="M551.985 645.264h20.67v73.609h-20.67v-73.609zM864.915 645.264h20.67v73.609h-20.67v-73.609z" fill="#E5E5E5"/><path d="M893.084 626.22a3.859 3.859 0 0 0-3.858-3.86H548.344a3.86 3.86 0 0 0-3.86 3.86v21.238a3.86 3.86 0 0 0 3.86 3.859h340.882a3.858 3.858 0 0 0 3.858-3.859V626.22" fill="#FFF"/><path d="M616 672.262v-1.103c0-10.958 8.883-19.842 19.842-19.842h33.316c10.959 0 19.842 8.884 19.842 19.842v1.103h-73" fill="#EF5281"/><path d="M801 672.262c0-6.772-5.49-12.262-12.262-12.262h-71.476C710.49 660 705 665.49 705 672.262h96M551.985 708.67c11.416 0 20.67-9.254 20.67-20.67h-20.67v20.67M864.915 693.335h20.669v-20.67h-10.335c-5.708 0-10.334 4.627-10.334 10.335v10.335M609 622.36c0 8.085-6.554 14.64-14.64 14.64h-4.72c-8.086 0-14.64-6.555-14.64-14.64h34" fill="#0573E9"/><path d="M587 651.317a8.907 8.907 0 0 0-8.907-8.907H562.32v8.907H587" fill="#EF5281"/><path d="M655.202 561.625h63.191c11.933 0 21.607 9.674 21.607 21.607h-63.19c-11.934 0-21.608-9.673-21.608-21.607" fill="#0573E9"/><path d="M489.229 561.625h40.797c0 11.934-9.673 21.607-21.607 21.607h-19.19v-21.607" fill="#5AB55C"/><path d="M857.5 583.232c0 12.022-9.746 21.768-21.768 21.768h-33.464c-12.022 0-21.768-9.746-21.768-21.768h77" fill="#0573E9"/><path d="M637.036 485.792h36.333v43.551h-36.333v-43.551z" fill="#FFF"/><path d="M640.619 489.475h29.167v2.85h-29.167v-2.85zM640.619 495.129h29.167v2.849h-29.167v-2.849zM640.619 500.783h29.167v2.849h-29.167v-2.849zM640.619 506.437h29.167v2.85h-29.167v-2.85zM640.619 512.091h29.167v2.85h-29.167v-2.85zM640.619 517.745h29.167v2.849h-29.167v-2.849zM640.619 523.399h29.167v2.849h-29.167v-2.849z" fill="#323232"/><path d="M832.585 473.677c0 17.3-14.024 31.323-31.324 31.323h-32.938C751.024 505 737 490.977 737 473.677h95.585M518.981 473.677c-8.379 0-15.172 6.793-15.172 15.172V505h57.145c17.299 0 31.323-14.023 31.323-31.323h-73.296" fill="#0573E9"/><path d="M930.276 549.248h18.066v23.924h-18.066v-23.924z" fill="#5AB55C"/><path d="M930.276 549.248v12.377h19.746a4.25 4.25 0 0 0 4.251-4.252v-8.125h-23.997" fill="#5AB55C"/></g></svg>