<svg width="1440" height="752" viewBox="0 0 1440 752" xmlns="http://www.w3.org/2000/svg"><title>lot-19-piano</title><g fill="none" fill-rule="evenodd"><path d="M889.225 706.919H548.586c-6.74 0-12.201 5.461-12.201 12.198 0 6.738 5.462 12.2 12.201 12.2h340.639c6.739 0 12.2-5.462 12.2-12.2 0-6.737-5.461-12.198-12.2-12.198M956.549 652.944H485.597c-6.737 0-12.2 5.461-12.2 12.201 0 6.735 5.463 12.197 12.2 12.197H956.55c6.738 0 12.2-5.462 12.2-12.197 0-6.74-5.462-12.201-12.2-12.201" fill="#888"/><path d="M935.36 488.147c0-8.4-6.811-15.212-15.214-15.212H519.431c-8.403 0-15.214 6.811-15.214 15.212v60.56h431.142v-60.56" fill="#FFF"/><path d="M918.52 499.139v-18.067l-9.338 6.997a19.827 19.827 0 0 1-5.704 2.987v-9.984l-9.337 6.997a19.827 19.827 0 0 1-5.704 2.987v-9.984l-9.338 6.997a19.827 19.827 0 0 1-5.704 2.987v-9.984l-9.338 6.997c-.435.327-.88.633-1.33.92-6.762 4.288-15.067 3.981-21.609-.92l-9.338-6.997v18.067h-24.735v-14.057h-16.712v14.057h-28.747v-14.057h-31.42v-4.01h-9.359v4.01h-4.68v14.057h-15.375v-14.057h-21.393v14.057h-97.603v-14.057h-18.719v14.057h-19.386v-14.057h-29.415v14.057h-10.018v29.61H935.36v-29.61h-16.84" fill="#A6ADB9"/><path d="M504.218 582.781H935.36v81.956H504.218v-81.956z" fill="#EF5281"/><path d="M518.915 582.781h401.748v68.266H518.915V582.78z" fill="#F0618C"/><path d="M504.218 561.117H935.36v21.664H504.218v-21.664z" fill="#A6ADB9"/><path d="M489.596 549.554h23.46v115.184h-23.46V549.554zM926.522 549.554h23.459v115.184h-23.459V549.554z" fill="#A6ADB9"/><path d="M955.93 532.618a3.87 3.87 0 0 0-3.87-3.869H487.516a3.868 3.868 0 0 0-3.868 3.87v24.628a3.869 3.869 0 0 0 3.868 3.87h464.15a4.262 4.262 0 0 0 4.263-4.264v-24.235" fill="#FFF"/><path d="M917.335 551.09H520.728v-4.435a3.87 3.87 0 0 1 3.87-3.869h388.867a3.87 3.87 0 0 1 3.87 3.87v4.433" fill="#000"/><path d="M931.866 555.017c0-2.168-1.734-3.927-3.87-3.927H510.067c-2.137 0-3.87 1.759-3.87 3.927v6.1h425.668v-6.1M552.526 636.53H887.05v35.518H552.526V636.53z" fill="#FFF"/><path d="M552.526 644.978h20.727v73.804h-20.727v-73.804zM866.324 644.978h20.726v73.804h-20.726v-73.804z" fill="#FFF"/><path d="M894.57 625.883a3.87 3.87 0 0 0-3.868-3.87H548.875a3.87 3.87 0 0 0-3.87 3.87v21.295a3.87 3.87 0 0 0 3.87 3.869h341.827a3.868 3.868 0 0 0 3.869-3.87v-21.294" fill="#F697B3"/><path d="M623.189 485.082h36.433v43.667H623.19v-43.667z" fill="#FFF"/><path d="M626.781 488.775h29.248v2.858h-29.248v-2.858zM626.781 494.444h29.248v2.857h-29.248v-2.857zM626.781 500.113h29.248v2.857h-29.248v-2.857zM626.781 505.782h29.248v2.858h-29.248v-2.858zM626.781 511.451h29.248v2.858h-29.248v-2.858zM626.781 517.12h29.248v2.857h-29.248v-2.857zM626.781 522.79h29.248v2.856h-29.248v-2.857z" fill="#323232"/></g></svg>