<svg width="1440" height="752" viewBox="0 0 1440 752" xmlns="http://www.w3.org/2000/svg"><title>lot-19</title><g fill="none" fill-rule="evenodd"><path d="M-2.959-1.251h1443.043v665.987H-2.959V-1.25z" fill="#28D2FF"/><path d="M1089.7 29.222c0 9.553-7.74 17.296-17.284 17.296H946.163c-9.548 0-17.285-7.743-17.285-17.296 0-9.55 7.737-17.294 17.285-17.294h126.253c9.544 0 17.283 7.743 17.283 17.294" fill="#D7F4FF"/><path d="M886.268 61.48c0 8.816 7.144 15.963 15.955 15.963h84.347c8.81 0 15.954-7.147 15.954-15.964 0-8.818-7.143-15.965-15.954-15.965h-84.347c-8.811 0-15.955 7.147-15.955 15.965" fill="#D7F4FF"/><path d="M934.309 61.48c0 8.816-7.144 15.963-15.955 15.963h-21.626c-8.811 0-15.955-7.147-15.955-15.964s7.144-15.964 15.955-15.964h21.626c8.811 0 15.955 7.147 15.955 15.964M961.732 29.223c0 9.552-7.739 17.295-17.286 17.295-9.545 0-17.283-7.743-17.283-17.295 0-9.552 7.738-17.295 17.283-17.295 9.547 0 17.286 7.743 17.286 17.295" fill="#FFF"/><path d="M839.227 62.482c0-8.795-7.126-15.926-15.916-15.926s-15.917 7.13-15.917 15.926 7.126 15.926 15.917 15.926c8.79 0 15.916-7.13 15.916-15.926M961.212 195.438c0-9.967-8.075-18.048-18.037-18.048h-54.502c-9.962 0-18.037 8.08-18.037 18.048 0 9.967 8.075 18.048 18.037 18.048h54.502c9.962 0 18.037-8.08 18.037-18.048" fill="#D7F4FF"/><path d="M921.13 195.438c0-9.967-8.075-18.048-18.037-18.048h-14.42c-9.962 0-18.037 8.08-18.037 18.048 0 9.967 8.075 18.048 18.037 18.048h14.42c9.962 0 18.037-8.08 18.037-18.048" fill="#FFF"/><path d="M917.805 165.711c0-8.73-7.072-15.806-15.796-15.806-8.723 0-15.796 7.076-15.796 15.806 0 8.728 7.073 15.805 15.796 15.805 8.724 0 15.796-7.077 15.796-15.805" fill="#FFF"/><path d="M975.045-1.251h418.858v357.036H975.045V-1.251z" fill="#475C63"/><path d="M1004.384-1.251h376.292v357.036h-376.292V-1.251z" fill="#5E7A84"/><path d="M1039.249-1.25h332.61v357.036h-332.61V-1.25z" fill="#7DA2B0"/><path d="M330.648-1.252h418.858v357.036H330.648V-1.252z" fill="#475C63"/><path d="M343.875-1.252h376.29v357.036h-376.29V-1.252z" fill="#5E7A84"/><path d="M352.693-1.252h332.61v357.036l-332.61-.001V-1.252" fill="#7DA2B0"/><path d="M-2.959-1.251h584.801v357.036h-584.8V-1.251z" fill="#F8EDC9"/><path d="M-2.959 35.098h584.801v20.14h-584.8v-20.14z" fill="#B9B297"/><path d="M-2.959 135.254H449.97v220.532H-2.959V135.254z" fill="#28D2FF"/><path d="M1150.815-1.251h288.327V355.11h-288.327V-1.251z" fill="#98E0F8"/><path d="M1206.395 249.436h232.748v73.612h-232.748v-73.612z" fill="#28D2FF"/><path d="M190.515 345.652c0-15.543 12.592-28.142 28.125-28.142s28.125 12.599 28.125 28.142c0 15.542-12.592 28.142-28.125 28.142s-28.125-12.6-28.125-28.142" fill="#3B8186"/><path d="M136.35 345.652c0-15.543 12.591-28.142 28.124-28.142 15.534 0 28.126 12.599 28.126 28.142 0 15.542-12.592 28.142-28.126 28.142-15.533 0-28.124-12.6-28.124-28.142" fill="#3B8186"/><path d="M175.932 307.087c0-15.541 12.591-28.142 28.125-28.142 15.533 0 28.126 12.6 28.126 28.142 0 15.544-12.593 28.142-28.126 28.142-15.534 0-28.125-12.598-28.125-28.142" fill="#3B8186"/><path d="M154.064 335.23c0-15.543 12.593-28.143 28.125-28.143 15.533 0 28.125 12.6 28.125 28.142 0 15.543-12.592 28.143-28.125 28.143-15.532 0-28.125-12.6-28.125-28.143M92.6 335.23c0-15.543 12.593-28.143 28.126-28.143 15.533 0 28.124 12.6 28.124 28.142 0 15.543-12.59 28.143-28.124 28.143-15.533 0-28.126-12.6-28.126-28.143" fill="#3B8186"/><path d="M29.06 327.934c0-23.025 18.655-41.692 41.667-41.692 23.011 0 41.666 18.667 41.666 41.692s-18.655 41.692-41.666 41.692c-23.012 0-41.667-18.667-41.667-41.692M33.443 225.624c0-23.482 19.025-42.519 42.493-42.519 23.469 0 42.493 19.037 42.493 42.519s-19.024 42.519-42.493 42.519c-23.468 0-42.493-19.037-42.493-42.519" fill="#3B8186"/><path d="M28.302 271.65c0-22.295 18.062-40.367 40.342-40.367 22.28 0 40.341 18.072 40.341 40.367 0 22.293-18.06 40.367-40.341 40.367-22.28 0-40.342-18.074-40.342-40.367" fill="#3B8186"/><path d="M93.486 280.734c0-27.386 22.187-49.586 49.557-49.586s49.557 22.2 49.557 49.586c0 27.387-22.188 49.586-49.557 49.586-27.37 0-49.557-22.2-49.557-49.586M-22.745 168.43c0-25.172 20.393-45.578 45.55-45.578 25.158 0 45.552 20.406 45.552 45.577 0 25.173-20.394 45.58-45.551 45.58-25.158 0-45.551-20.407-45.551-45.58" fill="#3B8186"/><path d="M-22.745 168.43h72.027v191.813h-72.027V168.429z" fill="#3B8186"/><path d="M17.436 279.148c0-11.117-9.006-20.128-20.115-20.128-11.11 0-20.115 9.011-20.115 20.128 0 11.116 9.006 20.128 20.115 20.128 11.11 0 20.115-9.012 20.115-20.128" fill="#3B9F86"/><path d="M-22.794 279.148h40.23v76.645h-40.23v-76.645z" fill="#3B9F86"/><path d="M63.618 294.413c0 14.463-11.717 26.187-26.17 26.187-14.454 0-26.17-11.724-26.17-26.187 0-14.462 11.716-26.186 26.17-26.186 14.453 0 26.17 11.724 26.17 26.186" fill="#3B9F86"/><path d="M82.532 323.237c0 9.877-8.001 17.88-17.87 17.88-9.87 0-17.872-8.003-17.872-17.88 0-9.876 8.002-17.88 17.872-17.88 9.869 0 17.87 8.004 17.87 17.88" fill="#3B9F86"/><path d="M98.278 346.514c0 8.36-6.772 15.135-15.127 15.135s-15.127-6.776-15.127-15.135c0-8.36 6.772-15.136 15.127-15.136s15.127 6.776 15.127 15.136" fill="#3B8186"/><path d="M5.63 335.23h77.52v20.37H5.63v-20.37z" fill="#3B9F86"/><path d="M5.63 312.017h54.863v28.334H5.631v-28.334zM98.327 346.514c0 8.36-6.772 15.135-15.127 15.135s-15.127-6.776-15.127-15.135c0-8.36 6.772-15.136 15.127-15.136s15.127 6.776 15.127 15.136" fill="#3B9F86"/><path d="M-22.745 315.584h31.15v44.16h-31.15v-44.16z" fill="#3B9F86"/><path d="M8.404 315.584c0 8.607-6.973 15.584-15.576 15.584-8.601 0-15.573-6.977-15.573-15.584S-15.773 300-7.172 300c8.603 0 15.576 6.977 15.576 15.584" fill="#3B9F86"/><path d="M21.71 331.87c0 4.995-4.046 9.042-9.036 9.042-4.991 0-9.036-4.047-9.036-9.042 0-4.99 4.045-9.04 9.036-9.04 4.99 0 9.036 4.05 9.036 9.04" fill="#3B9F86"/><path d="M40.467 352.034c0 10.176-8.244 18.427-18.415 18.427-10.17 0-18.414-8.251-18.414-18.427s8.244-18.427 18.414-18.427c10.171 0 18.415 8.25 18.415 18.427" fill="#3B9F86"/><path d="M-2.959 601.368h1443.043v151.38H-2.959v-151.38z" fill="#ECECEB"/><path d="M-2.959 351.03h1443.043v401.717H-2.959V351.03z" fill="#ECECEB"/><path d="M1056.415 675.45c0-7.126 5.774-12.904 12.895-12.904 7.123 0 12.896 5.778 12.896 12.904M1358.963 721.972c0-7.127 5.774-12.903 12.895-12.903 7.122 0 12.896 5.776 12.896 12.903" fill="#A7A7A5"/><path d="M-2.959 511.934h1443.043v89.433H-2.959v-89.433z" fill="#D3CFCE"/><path d="M-2.959 511.934h1443.043v44.718H-2.959v-44.718z" fill="#A69F9D"/><path d="M-2.959 511.934h1443.043v22.36H-2.959v-22.36z" fill="#999AA0"/><path d="M-2.959 556.653h1443.043v22.36H-2.959v-22.36z" fill="#BCB7B5"/><path d="M-2.959 374.377h1443.043v89.433H-2.959v-89.433z" fill="#D3CFCE"/><path d="M-2.959 374.377h1443.043v44.717H-2.959v-44.717z" fill="#A69F9D"/><path d="M-2.959 374.377h1443.043v22.36H-2.959v-22.36z" fill="#999AA0"/><path d="M-2.959 419.094h1443.043v22.36H-2.959v-22.36z" fill="#BCB7B5"/><path d="M118.696 580.662c0-9.55-7.738-17.294-17.284-17.294-9.547 0-17.285 7.743-17.285 17.294v29.631c0 9.551 7.738 17.295 17.285 17.295 9.546 0 17.284-7.744 17.284-17.295v-29.63" fill="#A9D163"/><path d="M139.737 608.413c0-10.59-8.58-19.175-19.162-19.175-10.583 0-19.163 8.585-19.163 19.175 0 10.589 8.58 19.175 19.163 19.175s19.162-8.586 19.162-19.175M278.202 608.413c0-10.59-8.58-19.175-19.163-19.175-10.584 0-19.163 8.585-19.163 19.175 0 10.589 8.58 19.175 19.163 19.175 10.584 0 19.163-8.586 19.163-19.175" fill="#3B9F86"/><path d="M301.874 611.421c0-8.203-6.645-14.851-14.842-14.851-8.197 0-14.842 6.648-14.842 14.851 0 8.203 6.645 14.85 14.842 14.85 8.197 0 14.842-6.647 14.842-14.85" fill="#3B9F86"/><path d="M184.548 601.172c0-14.589-11.819-26.415-26.399-26.415s-26.399 11.826-26.399 26.415c0 14.588 11.82 26.416 26.4 26.416 14.58 0 26.398-11.828 26.398-26.416" fill="#5AB55C"/><path d="M195.35 544.569c0-6.23-5.048-11.28-11.274-11.28-6.225 0-11.272 5.05-11.272 11.28v73.691c0 6.23 5.047 11.28 11.272 11.28 6.226 0 11.273-5.05 11.273-11.28V544.57" fill="#A9D163"/><path d="M187.834 606.758c0-11.505 9.32-20.832 20.818-20.832h18.484c11.498 0 20.818 9.327 20.818 20.832 0 11.503-9.32 20.83-20.818 20.83h-18.484c-11.498 0-20.818-9.327-20.818-20.83" fill="#5AB55C"/><path d="M314.632 616.025v.453c0 58.262-43.087 105.494-96.237 105.494H161.65c-53.15 0-96.237-47.232-96.237-105.494v-.453h249.218" fill="#BCBCBC"/><path d="M108.123 563.368a6.713 6.713 0 0 0-6.711-6.715 6.713 6.713 0 0 0-6.712 6.715 6.713 6.713 0 0 0 6.712 6.714 6.713 6.713 0 0 0 6.71-6.714M228.828 586.844a6.713 6.713 0 0 0-6.71-6.715 6.713 6.713 0 0 0-6.712 6.715 6.713 6.713 0 0 0 6.711 6.715 6.713 6.713 0 0 0 6.711-6.715" fill="#EF5281"/><path d="M270.454 591.638a6.712 6.712 0 0 0-6.71-6.715 6.712 6.712 0 0 0-6.711 6.715 6.713 6.713 0 0 0 6.71 6.715 6.713 6.713 0 0 0 6.711-6.715M118.696 591.638a6.713 6.713 0 0 0-6.711-6.715 6.713 6.713 0 0 0-6.711 6.715 6.713 6.713 0 0 0 6.71 6.715 6.713 6.713 0 0 0 6.712-6.715" fill="#FFC64A"/><path d="M1296.095 596.735c0-15.127-12.257-27.392-27.376-27.392h-41.27c-15.119 0-27.376 12.265-27.376 27.392 0 15.128 12.257 27.393 27.376 27.393h41.27c15.119 0 27.376-12.265 27.376-27.393" fill="#A9D163"/><path d="M1278.468 607.966c0-7.957-6.446-14.407-14.398-14.407s-14.398 6.45-14.398 14.407c0 7.956 6.446 14.406 14.398 14.406s14.398-6.45 14.398-14.406" fill="#5AB55C"/><path d="M1184.196 608.414c0-10.59 8.578-19.175 19.163-19.175 10.583 0 19.162 8.585 19.162 19.175 0 10.589-8.58 19.175-19.162 19.175-10.585 0-19.163-8.586-19.163-19.175M1096.834 608.414c0-10.59 8.58-19.175 19.162-19.175 10.585 0 19.164 8.585 19.164 19.175 0 10.589-8.58 19.175-19.164 19.175-10.582 0-19.162-8.586-19.162-19.175" fill="#3B9F86"/><path d="M1073.162 611.422c0-8.203 6.645-14.851 14.84-14.851 8.2 0 14.844 6.648 14.844 14.851 0 8.203-6.645 14.85-14.843 14.85-8.196 0-14.84-6.647-14.84-14.85" fill="#3B9F86"/><path d="M1139.384 601.173c0-14.589 11.82-26.416 26.4-26.416 14.58 0 26.4 11.827 26.4 26.416 0 14.588-11.82 26.416-26.4 26.416-14.58 0-26.4-11.828-26.4-26.416" fill="#5AB55C"/><path d="M1128.585 572.397c0-6.23 5.046-11.28 11.272-11.28s11.272 5.05 11.272 11.28v45.864c0 6.23-5.046 11.28-11.272 11.28s-11.272-5.05-11.272-11.28v-45.864" fill="#A9D163"/><path d="M1060.404 616.026v.453c0 58.262 43.087 105.494 96.237 105.494h56.745c53.148 0 96.236-47.232 96.236-105.494v-.453h-249.218" fill="#BCBCBC"/><path d="M1104.58 591.639a6.714 6.714 0 0 1 6.712-6.715 6.713 6.713 0 0 1 6.711 6.715 6.713 6.713 0 0 1-6.71 6.715 6.714 6.714 0 0 1-6.712-6.715M1205.238 591.639a6.712 6.712 0 0 1 6.71-6.715 6.713 6.713 0 0 1 6.711 6.715 6.713 6.713 0 0 1-6.71 6.715 6.713 6.713 0 0 1-6.711-6.715" fill="#FFC64A"/><path d="M1250.648 596.57a6.712 6.712 0 1 1 13.422 0 6.713 6.713 0 0 1-6.711 6.715 6.713 6.713 0 0 1-6.711-6.715M1169.575 576.798a6.713 6.713 0 0 1 6.71-6.716 6.713 6.713 0 0 1 6.711 6.716 6.713 6.713 0 0 1-6.71 6.715 6.712 6.712 0 0 1-6.711-6.715" fill="#EF5281"/><path d="M418.851 320.754a7.858 7.858 0 0 0-7.856-7.86 7.859 7.859 0 0 0-7.857 7.86v157.225a7.86 7.86 0 0 0 7.857 7.862c4.34 0 7.856-3.52 7.856-7.862V320.754" fill="#BCCBBE"/><path d="M418.851 457.285a7.858 7.858 0 0 0-7.856-7.861 7.859 7.859 0 0 0-7.857 7.86V614.51a7.86 7.86 0 0 0 7.857 7.862c4.34 0 7.856-3.52 7.856-7.862V457.285" fill="#DCE4DD"/><path d="M258.7 491.708c0-6.481 5.251-11.734 11.727-11.734 6.478 0 11.727 5.253 11.727 11.734M386.818 696.824c0-7.127 5.774-12.904 12.895-12.904 7.124 0 12.897 5.777 12.897 12.904" fill="#A7A7A5"/></g></svg>