<svg width="1440" height="752" viewBox="0 0 1440 752" xmlns="http://www.w3.org/2000/svg"><title>nelson</title><g fill="none" fill-rule="evenodd"><path d="M-2.316-1.25H1440.77v665.987H-2.316V-1.25z" fill="#28D2FF"/><path d="M498.496 47.975c0 8.729-7.073 15.805-15.797 15.805h-39.823c-8.723 0-15.796-7.076-15.796-15.805 0-8.728 7.073-15.804 15.796-15.804H482.7c8.724 0 15.797 7.076 15.797 15.804" fill="#D7F4FF"/><path d="M590.184 81.864c0 12.043-9.758 21.806-21.795 21.806H418.652c-12.036 0-21.793-9.763-21.793-21.806 0-12.044 9.757-21.806 21.793-21.806h149.737c12.037 0 21.795 9.762 21.795 21.806" fill="#D7F4FF"/><path d="M484.034 81.864c0 12.043-9.756 21.806-21.793 21.806h-43.589c-12.036 0-21.793-9.763-21.793-21.806 0-12.044 9.757-21.806 21.793-21.806h43.589c12.037 0 21.793 9.762 21.793 21.806" fill="#FFF"/><path d="M458.673 47.975c0 8.73-7.072 15.805-15.797 15.805-8.723 0-15.796-7.074-15.796-15.805 0-8.729 7.073-15.804 15.796-15.804 8.725 0 15.797 7.075 15.797 15.804" fill="#FFF"/><path d="M628.327 119.462c0 8.722-7.066 15.792-15.783 15.792h-79.66c-8.716 0-15.782-7.07-15.782-15.792 0-8.721 7.066-15.792 15.782-15.792h79.66c8.717 0 15.783 7.07 15.783 15.792" fill="#D7F4FF"/><path d="M517.102 119.462c0-8.721 7.066-15.792 15.782-15.792h11.455c8.715 0 15.783 7.07 15.783 15.792s-7.068 15.792-15.783 15.792h-11.455c-8.716 0-15.782-7.07-15.782-15.792M459.774 151.797c0-7.36-5.96-13.324-13.316-13.324-7.355 0-13.319 5.965-13.319 13.324s5.964 13.327 13.319 13.327 13.316-5.968 13.316-13.327" fill="#FFF"/><path d="M-2.316-1.251h281.07v272.56H-2.316V-1.251z" fill="#EEEEED"/><path d="M22.67 12.47h38.106V50.6H22.67V12.47zM87 12.47h38.108V50.6H87V12.47zM151.33 12.47h38.109V50.6H151.33V12.47zM215.661 12.47h38.107V50.6h-38.107V12.47zM22.67 79.582h38.106v38.13H22.67v-38.13zM87 79.582h38.108v38.13H87v-38.13zM151.33 79.582h38.109v38.13H151.33v-38.13zM215.661 79.582h38.107v38.13h-38.107v-38.13zM22.67 146.694h38.106v38.13H22.67v-38.13zM87 146.694h38.108v38.13H87v-38.13zM151.33 146.694h38.109v38.13H151.33v-38.13zM215.661 146.694h38.107v38.13h-38.107v-38.13zM22.67 213.806h38.106v38.13H22.67v-38.13zM87 213.806h38.108v38.13H87v-38.13zM151.33 213.806h38.109v38.13H151.33v-38.13zM215.661 213.806h38.107v38.13h-38.107v-38.13z" fill="#28D2FF"/><path d="M331.576 245.037c0-6.707-5.434-12.144-12.137-12.144-6.704 0-12.138 5.437-12.138 12.144v155.825h24.275V245.037" fill="#9A7459"/><path d="M437.143 186.257c0 57.318-47.12 103.785-105.245 103.785-58.125 0-105.246-46.467-105.246-103.785v-.51c0-57.317 47.121-103.785 105.246-103.786 58.126 0 105.245 46.469 105.245 103.786v.51" fill="#5AB55C"/><path d="M323.548 304.803c-7.305-.502-13.037-6.148-13.898-13.166-3.548 6.117-11.043 9.064-17.968 6.637-6.924-2.425-10.953-9.414-9.9-16.413-5.05 4.954-13.067 5.776-19.09 1.584-6.023-4.19-8.037-11.992-5.15-18.458-6.204 3.418-14.15 2.066-18.83-3.6-4.68-5.654-4.52-13.726 0-19.18-6.894 1.614-14.19-1.855-17.155-8.583-2.967-6.738-.602-14.47 5.26-18.48a15.034 15.034 0 0 1-14.129-13.003c-.982-7.27 3.397-14.028 10.111-16.273-6.704-2.267-11.073-9.044-10.07-16.314v.01c1.011-7.299 7.084-12.643 14.179-12.974-5.863-4.02-8.207-11.761-5.221-18.489 2.986-6.728 10.281-10.177 17.186-8.543-4.51-5.464-4.65-13.535.04-19.19a15.021 15.021 0 0 1 18.829-3.54c-2.866-6.477-.832-14.278 5.2-18.449 6.033-4.18 14.05-3.338 19.09 1.635-1.032-7.009 3.016-13.977 9.94-16.384 6.925-2.406 14.42.552 17.948 6.678.872-7.019 6.624-12.643 13.94-13.125 7.294-.481 13.728 4.352 15.511 11.18 2.686-6.537 9.71-10.458 16.895-9.004 7.185 1.464 12.126 7.84 12.035 14.92 4.33-5.605 12.166-7.51 18.7-4.182 6.533 3.34 9.59 10.8 7.615 17.597 5.672-4.231 13.729-3.98 19.13.983 5.411 4.963 6.363 12.974 2.625 19 6.614-2.557 14.31-.13 18.178 6.106v.01c3.868 6.247 2.615 14.228-2.625 19.01 7.064-.641 13.818 3.81 15.822 10.89 2.005 7.078-1.412 14.408-7.766 17.566 6.945 1.323 12.196 7.43 12.196 14.77v.23c0 7.35-5.271 13.464-12.236 14.779 6.343 3.168 9.74 10.507 7.716 17.586-2.024 7.07-8.788 11.51-15.853 10.84 5.221 4.792 6.464 12.783 2.576 19.03-3.888 6.226-11.594 8.631-18.188 6.066 3.708 6.026 2.736 14.037-2.686 18.98-5.41 4.943-13.458 5.183-19.12.942 1.955 6.798-1.122 14.248-7.665 17.567-6.544 3.308-14.36 1.383-18.68-4.221.061 7.079-4.89 13.425-12.084 14.87-7.175 1.443-14.19-2.498-16.865-9.035-1.714 6.496-7.636 11.17-14.51 11.17-.341 0-.682-.01-1.033-.03zm14.931-20.726a15.018 15.018 0 0 1 11.564-10.869c5.793-1.163 11.464 1.164 14.851 5.536-.04-5.525 2.977-10.87 8.247-13.536 5.261-2.667 11.354-1.936 15.783 1.362-1.513-5.313-.03-11.268 4.32-15.25 4.358-3.98 10.42-4.912 15.572-2.917-2.886-4.702-3.067-10.83.05-15.832a15.033 15.033 0 0 1 14.16-7.018c-4.05-3.731-5.893-9.556-4.27-15.21a15.023 15.023 0 0 1 11.644-10.639c-4.91-2.476-8.287-7.57-8.287-13.445v-.23c0-5.898 3.397-11 8.327-13.467a15.05 15.05 0 0 1-11.624-10.678 15.068 15.068 0 0 1 4.31-15.19c-5.482.491-11.034-2.056-14.13-7.059-3.107-5.003-2.916-11.13-.01-15.832-5.16 1.975-11.213 1.033-15.562-2.958-4.35-3.99-5.812-9.956-4.28-15.27-4.439 3.299-10.531 4.01-15.792 1.323-5.261-2.677-8.267-8.03-8.207-13.565-3.397 4.361-9.079 6.687-14.871 5.504-5.792-1.173-10.131-5.545-11.544-10.899-2.124 5.124-7.005 8.874-12.917 9.265-5.892.38-11.213-2.687-13.989-7.48-.701 5.485-4.41 10.377-9.98 12.323a15.026 15.026 0 0 1-15.473-3.48c.802 5.475-1.463 11.19-6.323 14.549-4.85 3.359-10.983 3.47-15.823.792 2.225 5.063 1.573 11.16-2.194 15.702-3.768 4.532-9.64 6.276-15.002 5.023a15.06 15.06 0 0 1 2.135 15.671c-2.385 5.375-7.526 8.653-13.027 8.924a15.04 15.04 0 0 1 6.373 14.448 15.049 15.049 0 0 1-10.1 12.203c5.22 1.773 9.278 6.377 10.07 12.232a15.057 15.057 0 0 1-6.403 14.428 15.041 15.041 0 0 1 12.997 8.953 15.073 15.073 0 0 1-2.175 15.663c5.371-1.244 11.223.52 14.981 5.062 3.758 4.543 4.39 10.648 2.155 15.702 4.84-2.657 10.983-2.536 15.823.842 4.85 3.37 7.094 9.085 6.283 14.56 3.958-3.86 9.91-5.385 15.482-3.44 5.571 1.954 9.27 6.858 9.95 12.352 2.786-4.792 8.117-7.85 14.01-7.439v-.01c5.902.401 10.782 4.161 12.896 9.294z" fill="#5AB55C"/><path d="M405.588 189.072c0 61.8-33.726 111.897-86.15 111.897-61.761 0-111.83-50.098-111.83-111.897v-.764c0-61.799 50.068-111.895 111.83-111.896 52.424 0 86.15 50.098 86.15 111.897v.763" fill="#A9D163"/><path d="M308.748 315.561c-6.875-.572-12.286-5.695-13.518-12.162-3.738 5.414-10.753 7.921-17.286 5.654h.01c-6.534-2.256-10.512-8.563-10.101-15.14-4.96 4.332-12.376 5.014-18.148 1.214-5.762-3.8-8.057-10.89-6.043-17.156-5.872 2.979-13.217 1.825-17.877-3.278-4.66-5.094-5.15-12.523-1.663-18.098-6.423 1.434-13.268-1.484-16.524-7.571-3.267-6.085-1.914-13.425 2.835-17.977a15.042 15.042 0 0 1-14.159-11.43c-1.653-6.698 1.463-13.466 7.195-16.704-6.293-1.795-10.893-7.59-10.893-14.458 0-6.9 4.63-12.704 10.953-14.479-5.712-3.268-8.808-10.046-7.125-16.744 1.694-6.698 7.636-11.21 14.22-11.36-4.74-4.582-6.063-11.922-2.776-17.998 3.297-6.076 10.161-8.964 16.574-7.49-3.467-5.605-2.946-13.034 1.744-18.108 4.67-5.073 12.025-6.196 17.887-3.198-1.994-6.277.341-13.356 6.113-17.126 5.782-3.78 13.197-3.058 18.138 1.294-.381-6.578 3.627-12.874 10.16-15.1 6.534-2.236 13.539.3 17.257 5.735 1.262-6.467 6.694-11.56 13.568-12.112 6.974-.552 13.207 3.75 15.392 10.067 3.106-6.107 10.11-9.496 17.035-7.771h.01c6.975 1.745 11.584 8.101 11.384 15.02 5.13-4.612 12.937-5.224 18.779-1.053 5.782 4.13 7.766 11.6 5.19 17.907 6.254-2.516 13.639-.581 17.778 5.124 4.078 5.615 3.707 13.115-.451 18.278 6.533-.661 12.967 3.049 15.492 9.455a15.06 15.06 0 0 1-4.73 17.356c6.393.803 11.794 5.686 12.947 12.373 1.142 6.638-2.245 13.015-7.937 15.942 6.053 1.936 10.442 7.62 10.442 14.318v.29c0 6.719-4.41 12.403-10.482 14.34 5.682 2.937 9.06 9.324 7.887 15.961-1.173 6.688-6.594 11.551-12.997 12.323 5.1 4.02 7.185 11.05 4.67 17.386-2.556 6.407-9.01 10.086-15.533 9.395 4.139 5.184 4.47 12.683.37 18.288h-.01c-4.168 5.686-11.563 7.58-17.806 5.024 2.535 6.327.511 13.796-5.301 17.887-5.872 4.131-13.679 3.48-18.77-1.173.161 6.917-4.498 13.255-11.493 14.95-6.934 1.674-13.909-1.755-16.975-7.871-2.085 5.915-7.716 10.026-14.16 10.026-.42 0-.841-.01-1.272-.05zm2.505-29.97c5.411.452 9.91 3.72 12.185 8.243 1.644-4.633 5.512-8.373 10.642-9.616 5.03-1.223 10.091.25 13.659 3.488a15.008 15.008 0 0 1 6.373-12.622 14.982 14.982 0 0 1 14.34-1.625c-1.854-4.662-1.343-10.147 1.844-14.488a15.043 15.043 0 0 1 13.688-6.067 15.025 15.025 0 0 1-2.225-14.938c2.105-5.294 6.885-8.733 12.166-9.376-4.21-3.318-6.504-8.782-5.512-14.427a15.052 15.052 0 0 1 10.262-11.731c-4.82-2.507-8.117-7.551-8.117-13.357v-.29c0-5.825 3.317-10.878 8.157-13.375-5.151-1.654-9.24-6.056-10.222-11.761a15.054 15.054 0 0 1 5.552-14.418 15.03 15.03 0 0 1-12.125-9.415c-2.055-5.214-.992-10.88 2.274-14.95a15.018 15.018 0 0 1-13.658-6.126c-3.167-4.362-3.648-9.856-1.764-14.509-4.6 1.845-10.01 1.384-14.35-1.714-4.228-3.018-6.423-7.83-6.293-12.664-3.587 3.209-8.657 4.653-13.678 3.4-5.12-1.274-8.959-5.034-10.572-9.666-2.295 4.502-6.804 7.74-12.205 8.171h-.01c-5.552.442-10.652-2.205-13.588-6.497-1.003 5.104-4.63 9.555-9.911 11.35-5.271 1.805-10.863.502-14.77-2.938.29 5.204-2.125 10.408-6.795 13.466a15.021 15.021 0 0 1-15.051.802c1.563 4.973.5 10.618-3.287 14.73a15.03 15.03 0 0 1-14.41 4.461 15.051 15.051 0 0 1 .431 15.08c-2.666 4.913-7.656 7.74-12.857 7.87 3.738 3.62 5.502 9.085 4.139 14.5a15.049 15.049 0 0 1-10.512 10.808 15.031 15.031 0 0 1 7.586 13.065c0 5.614-3.077 10.507-7.636 13.094 5 1.433 9.119 5.435 10.462 10.859v-.01a15.043 15.043 0 0 1-4.2 14.478c5.202.15 10.182 3.008 12.818 7.921a15.032 15.032 0 0 1-.491 15.07 15.023 15.023 0 0 1 14.38 4.532c3.767 4.121 4.81 9.776 3.216 14.75 4.66-2.347 10.402-2.217 15.061.862a15.037 15.037 0 0 1 6.734 13.495c3.929-3.419 9.52-4.702 14.791-2.877 5.271 1.825 8.879 6.285 9.86 11.4 2.726-3.95 7.296-6.497 12.346-6.497.421 0 .842.02 1.273.06z" fill="#A9D163"/><path d="M380.844 189.072c0 61.8-39.182 111.897-61.405 111.897-61.762 0-111.831-50.098-111.831-111.897v-.764c0-61.799 50.068-111.895 111.83-111.896 31.47 0 61.406 50.098 61.406 111.897v.763" fill="#D0D766"/><path d="M311.954 315.792c-7.235-.421-12.977-5.906-13.989-12.804-3.457 6.065-10.802 9.084-17.696 6.848-6.905-2.236-11.084-9.004-10.312-15.952-4.87 5.003-12.746 6.065-18.85 2.156-6.112-3.91-8.437-11.501-5.941-18.028-5.973 3.61-13.85 2.657-18.78-2.657-4.92-5.315-5.28-13.245-1.242-18.93-6.684 1.985-14.06-.913-17.496-7.3-3.438-6.387-1.784-14.157 3.567-18.65a15.018 15.018 0 0 1-15.091-11.5c-1.704-7.05 1.864-14.137 8.167-17.125-6.764-1.524-11.785-7.601-11.705-14.82v.01c.07-7.248 5.251-13.254 12.085-14.608-6.222-3.148-9.6-10.337-7.706-17.336 1.894-7.018 8.448-11.52 15.412-11.09-5.23-4.631-6.673-12.442-3.066-18.749 3.598-6.287 11.063-8.984 17.697-6.818-3.888-5.795-3.327-13.706 1.743-18.89 5.071-5.184 12.957-5.926 18.83-2.166-2.305-6.587.23-14.097 6.433-17.847 6.213-3.75 14.05-2.477 18.789 2.657-.581-6.968 3.768-13.606 10.732-15.661 6.955-2.046 14.21 1.163 17.497 7.319 1.202-6.868 7.094-12.182 14.33-12.413 8.076-.26 14.87 5.916 15.472 13.907 5.19-6.066 14.28-7.019 20.642-2.066 6.003 4.693 7.486 13.025 3.748 19.432 6.684-2.537 14.42 0 18.218 6.347 3.708 6.196 2.435 13.977-2.625 18.71 6.824-.652 13.428 3.458 15.672 10.246 2.225 6.718-.551 13.887-6.283 17.477 6.704.631 12.386 5.755 13.438 12.733 1.042 6.939-2.836 13.496-9.019 16.103 6.474 1.675 11.254 7.56 11.254 14.559v.19c0 7.109-4.94 13.065-11.564 14.639 6.193 2.797 9.9 9.575 8.557 16.544v.01c-1.342 6.968-7.295 11.871-14.079 12.171 5.572 3.891 7.967 11.23 5.361 17.837-2.605 6.619-9.39 10.358-16.133 9.376 4.78 4.912 5.722 12.643 1.844 18.65-3.939 6.105-11.564 8.4-18.078 5.854 3.668 6.197 2.445 14.319-3.227 19.13-6.162 5.225-15.321 4.624-20.753-1.262-.641 7.811-7.185 13.796-14.96 13.796-.301 0-.592-.01-.893-.03zm-22.416-34.572v.01c5.611 1.815 9.42 6.618 10.241 12.082a15.03 15.03 0 0 1 13.929-7.55 14.956 14.956 0 0 1 10.151 4.793c.32-3.83 2.104-7.54 5.271-10.217 4.35-3.7 10.191-4.482 15.162-2.547a15.067 15.067 0 0 1 .32-15.812 15.05 15.05 0 0 1 14.78-6.729c-3.987-4.1-5.44-10.316-3.206-15.99a15.027 15.027 0 0 1 13.308-9.516c-4.7-3.299-7.295-9.164-6.133-15.17a15.024 15.024 0 0 1 11.284-11.792c-5.211-2.366-8.829-7.61-8.829-13.707v-.19c0-6.236 3.788-11.58 9.18-13.856-5.642-1.474-10.152-6.186-11.084-12.323-.922-6.106 1.964-11.901 6.885-14.99-5.752-.55-10.913-4.411-12.847-10.247-1.904-5.745-.15-11.82 3.998-15.711-5.581.521-11.233-2.126-14.3-7.26a15.034 15.034 0 0 1-.09-15.29c-4.75 1.795-10.281 1.143-14.57-2.206a15 15 0 0 1-5.752-10.728 14.994 14.994 0 0 1-10.923 5.224c-5.902.19-11.113-3.048-13.728-7.921a15.053 15.053 0 0 1-10.552 11.811 15.027 15.027 0 0 1-15.272-4.201c.441 5.514-2.174 11.06-7.225 14.107-5.05 3.048-11.183 2.778-15.853-.2a15.059 15.059 0 0 1-3.447 15.49c-4.128 4.222-10.141 5.495-15.402 3.78 3.077 4.603 3.487 10.73.551 15.853a15.026 15.026 0 0 1-13.939 7.54c4.129 3.67 6.083 9.495 4.54 15.19-1.543 5.695-6.153 9.736-11.564 10.829a15.019 15.019 0 0 1 8.217 13.556c-.05 5.945-3.558 11.049-8.578 13.445a15.046 15.046 0 0 1 11.283 11.14c1.383 5.734-.721 11.49-4.94 15.049 5.512-.17 10.923 2.708 13.719 7.911 2.795 5.194 2.214 11.31-.972 15.822 5.3-1.564 11.273-.13 15.281 4.202 4.019 4.331 4.99 10.407 3.027 15.58 4.74-2.847 10.882-2.967 15.863.22 4.97 3.19 7.435 8.815 6.834 14.31a15.058 15.058 0 0 1 10.742-4.523c1.543 0 3.107.24 4.64.732z" fill="#D0D766"/><path d="M1169.424 245.037c0-6.707-5.435-12.144-12.137-12.144-6.703 0-12.138 5.437-12.138 12.144v155.825h24.275V245.037" fill="#9A7459"/><path d="M1274.992 186.257c0 57.318-47.12 103.785-105.246 103.785-58.124 0-105.246-46.467-105.246-103.785v-.51c0-57.317 47.12-103.785 105.246-103.786 58.126 0 105.246 46.469 105.246 103.786v.51" fill="#5AB55C"/><path d="M1161.4 304.803c-7.306-.502-13.048-6.148-13.9-13.166-3.547 6.117-11.053 9.064-17.967 6.637-6.924-2.425-10.953-9.414-9.9-16.413-5.061 4.954-13.078 5.776-19.1 1.584-6.023-4.19-8.027-12-5.151-18.458-6.193 3.418-14.14 2.066-18.82-3.6-4.679-5.654-4.519-13.726 0-19.18-6.903 1.614-14.189-1.855-17.155-8.583-2.966-6.738-.601-14.47 5.261-18.48-7.095-.35-13.147-5.704-14.13-13.003-.981-7.27 3.398-14.028 10.112-16.273-6.704-2.267-11.073-9.034-10.071-16.314v.01c1.002-7.299 7.075-12.643 14.17-12.974-5.853-4.02-8.198-11.761-5.212-18.489 2.977-6.728 10.282-10.177 17.186-8.543-4.52-5.464-4.66-13.535.04-19.19 4.69-5.645 12.647-6.979 18.83-3.54-2.867-6.477-.832-14.278 5.2-18.449 6.033-4.18 14.04-3.338 19.08 1.635-1.022-7.009 3.016-13.977 9.95-16.384 6.925-2.406 14.41.552 17.948 6.678.872-7.019 6.624-12.643 13.929-13.125 7.305-.481 13.728 4.352 15.522 11.18 2.686-6.537 9.71-10.458 16.885-9.004 7.195 1.464 12.135 7.84 12.045 14.92 4.33-5.605 12.165-7.51 18.699-4.182 6.534 3.34 9.59 10.8 7.616 17.597 5.672-4.231 13.718-3.98 19.13.983 5.41 4.963 6.353 12.974 2.625 19 6.614-2.557 14.31-.13 18.178 6.106v.01c3.868 6.247 2.605 14.228-2.626 19.01 7.065-.641 13.819 3.81 15.823 10.89 1.994 7.078-1.413 14.408-7.766 17.566 6.944 1.323 12.195 7.43 12.195 14.77v.23c0 7.35-5.27 13.464-12.235 14.779 6.343 3.168 9.73 10.507 7.716 17.586-2.024 7.07-8.788 11.51-15.863 10.84 5.23 4.792 6.473 12.783 2.585 19.03-3.888 6.226-11.594 8.631-18.197 6.066 3.717 6.026 2.745 14.037-2.676 18.98-5.411 4.943-13.468 5.183-19.13.942 1.964 6.798-1.122 14.248-7.656 17.567-6.543 3.308-14.37 1.383-18.688-4.221.07 7.079-4.88 13.425-12.076 14.87-7.174 1.443-14.189-2.498-16.865-9.035-1.723 6.496-7.645 11.17-14.51 11.17-.34 0-.691-.01-1.032-.03zm14.92-20.726c1.433-5.354 5.782-9.705 11.574-10.869 5.792-1.163 11.464 1.173 14.851 5.546-.04-5.535 2.976-10.88 8.247-13.546 5.261-2.667 11.354-1.936 15.783 1.362a15.032 15.032 0 0 1 4.319-15.25 15.01 15.01 0 0 1 15.562-2.917c-2.876-4.702-3.056-10.83.06-15.832a15.033 15.033 0 0 1 14.16-7.018c-4.049-3.731-5.892-9.556-4.28-15.21a15.035 15.035 0 0 1 11.655-10.639c-4.92-2.476-8.287-7.57-8.287-13.445v-.23c0-5.898 3.387-11 8.327-13.467a15.036 15.036 0 0 1-11.624-10.678c-1.603-5.655.26-11.47 4.309-15.19-5.481.491-11.033-2.056-14.13-7.059-3.106-5.003-2.915-11.13-.02-15.832-5.15 1.975-11.203 1.033-15.552-2.958-4.349-3.99-5.812-9.956-4.279-15.27-4.439 3.299-10.531 4.01-15.792 1.323-5.261-2.677-8.268-8.04-8.207-13.565-3.398 4.361-9.09 6.687-14.871 5.504-5.802-1.173-10.131-5.545-11.544-10.899-2.125 5.124-7.015 8.874-12.917 9.265a15.024 15.024 0 0 1-13.99-7.48c-.7 5.485-4.408 10.377-9.99 12.323-5.572 1.935-11.514.4-15.462-3.47.792 5.465-1.473 11.18-6.323 14.539a15.008 15.008 0 0 1-15.823.792c2.224 5.063 1.573 11.16-2.205 15.702-3.768 4.532-9.63 6.276-15 5.023a15.04 15.04 0 0 1 2.144 15.671c-2.385 5.365-7.536 8.653-13.027 8.924a15.04 15.04 0 0 1 6.373 14.448 15.044 15.044 0 0 1-10.111 12.203c5.23 1.773 9.289 6.377 10.08 12.232.782 5.815-1.873 11.309-6.403 14.428a15.041 15.041 0 0 1 12.997 8.953 15.054 15.054 0 0 1-2.184 15.663c5.371-1.244 11.233.52 14.981 5.062 3.768 4.543 4.4 10.648 2.154 15.702 4.85-2.657 10.983-2.536 15.833.842 4.84 3.37 7.095 9.085 6.283 14.56a15.055 15.055 0 0 1 15.483-3.44c5.561 1.954 9.259 6.858 9.95 12.352 2.786-4.792 8.117-7.85 14.01-7.439v-.01c5.902.401 10.782 4.161 12.886 9.294z" fill="#5AB55C"/><path d="M1243.436 189.072c0 61.8-33.727 111.897-86.148 111.897-61.764 0-111.833-50.098-111.833-111.897v-.764c0-61.799 50.07-111.895 111.833-111.896 52.421 0 86.148 50.098 86.148 111.897v.763" fill="#A9D163"/><path d="M1146.598 315.561c-6.874-.572-12.285-5.695-13.518-12.162-3.737 5.414-10.762 7.921-17.286 5.654-6.523-2.256-10.501-8.563-10.09-15.14-4.96 4.332-12.386 5.014-18.148 1.214-5.762-3.8-8.057-10.89-6.043-17.156-5.872 2.979-13.227 1.825-17.877-3.278-4.66-5.094-5.15-12.523-1.673-18.098-6.414 1.434-13.258-1.484-16.525-7.571-3.257-6.085-1.914-13.425 2.846-17.977-6.584-.18-12.506-4.722-14.16-11.43-1.653-6.698 1.464-13.466 7.196-16.704-6.293-1.795-10.893-7.59-10.893-14.458 0-6.9 4.63-12.704 10.953-14.479-5.722-3.268-8.809-10.046-7.125-16.744 1.683-6.698 7.626-11.21 14.22-11.36-4.75-4.582-6.073-11.922-2.776-17.998 3.297-6.076 10.15-8.964 16.574-7.49-3.467-5.605-2.946-13.034 1.734-18.108 4.68-5.073 12.035-6.196 17.887-3.208-1.984-6.267.35-13.346 6.123-17.116 5.782-3.78 13.197-3.058 18.137 1.294-.38-6.578 3.618-12.874 10.161-15.1 6.534-2.236 13.539.3 17.256 5.735 1.263-6.467 6.694-11.56 13.568-12.112 6.975-.552 13.208 3.75 15.392 10.067 3.107-6.107 10.111-9.496 17.036-7.771 6.984 1.745 11.594 8.101 11.394 15.02 5.13-4.612 12.936-5.224 18.779-1.053 5.782 4.13 7.766 11.6 5.19 17.907 6.243-2.516 13.639-.581 17.777 5.124 4.079 5.615 3.708 13.115-.45 18.278 6.523-.661 12.966 3.049 15.481 9.455 2.496 6.347.381 13.366-4.72 17.356 6.394.803 11.795 5.686 12.948 12.373 1.142 6.638-2.245 13.015-7.937 15.942 6.053 1.936 10.442 7.62 10.442 14.318v.29c0 6.719-4.41 12.403-10.482 14.34a15.046 15.046 0 0 1 7.886 15.961c-1.182 6.688-6.593 11.551-12.997 12.333 5.101 4.01 7.185 11.04 4.67 17.376h-.01c-2.545 6.407-8.999 10.086-15.532 9.395 4.138 5.184 4.48 12.683.37 18.288-4.168 5.686-11.573 7.58-17.806 5.024 2.535 6.327.51 13.796-5.301 17.887-5.873 4.131-13.679 3.48-18.77-1.173.15 6.917-4.499 13.255-11.493 14.95-6.935 1.674-13.92-1.755-16.976-7.871-2.084 5.915-7.726 10.026-14.159 10.026-.42 0-.852-.01-1.273-.05zm2.506-29.97c5.41.452 9.91 3.72 12.185 8.243a15.02 15.02 0 0 1 10.642-9.616c5.03-1.223 10.08.25 13.648 3.488-.1-4.831 2.125-9.624 6.384-12.622a14.982 14.982 0 0 1 14.34-1.625c-1.854-4.662-1.343-10.147 1.843-14.488 3.267-4.462 8.548-6.597 13.679-6.067a15.047 15.047 0 0 1-2.215-14.938c2.104-5.294 6.884-8.733 12.165-9.376-4.208-3.318-6.503-8.782-5.511-14.427 1.002-5.706 5.1-10.087 10.261-11.731a15.033 15.033 0 0 1-8.117-13.357v-.29a15.027 15.027 0 0 1 8.157-13.375 15.014 15.014 0 0 1-10.221-11.761c-.982-5.655 1.333-11.11 5.552-14.418a15.03 15.03 0 0 1-12.126-9.415c-2.054-5.214-.992-10.88 2.275-14.95-5.14.511-10.412-1.644-13.668-6.126-3.167-4.362-3.648-9.856-1.764-14.509-4.59 1.845-10.01 1.384-14.34-1.714a15.003 15.003 0 0 1-6.293-12.664c-3.587 3.209-8.658 4.653-13.678 3.4-5.12-1.274-8.959-5.034-10.572-9.676-2.295 4.512-6.804 7.75-12.216 8.181-5.561.442-10.652-2.205-13.598-6.497-.992 5.104-4.62 9.555-9.9 11.35-5.271 1.805-10.863.502-14.771-2.938.29 5.204-2.124 10.408-6.794 13.466a15.04 15.04 0 0 1-15.061.802 15.038 15.038 0 0 1-3.277 14.73 15.03 15.03 0 0 1-14.41 4.461 15.027 15.027 0 0 1 .42 15.08c-2.655 4.913-7.645 7.74-12.856 7.87a15.025 15.025 0 0 1 4.139 14.5 15.02 15.02 0 0 1-10.502 10.808 15.031 15.031 0 0 1 7.585 13.065c0 5.614-3.076 10.507-7.635 13.094 5 1.433 9.119 5.435 10.461 10.859v-.01a15.066 15.066 0 0 1-4.198 14.478c5.2.15 10.17 3.008 12.816 7.921a15.032 15.032 0 0 1-.49 15.07 15.023 15.023 0 0 1 14.38 4.532c3.767 4.121 4.81 9.776 3.216 14.75 4.65-2.347 10.401-2.208 15.061.862 4.66 3.068 7.055 8.292 6.734 13.495 3.928-3.419 9.52-4.702 14.79-2.877a15.013 15.013 0 0 1 9.851 11.4c2.736-3.95 7.295-6.497 12.356-6.497.42 0 .842.02 1.273.06z" fill="#A9D163"/><path d="M1218.692 189.072c0 61.8-39.181 111.897-61.404 111.897-61.764 0-111.833-50.098-111.833-111.897v-.764c0-61.799 50.07-111.895 111.833-111.896 31.467 0 61.404 50.098 61.404 111.897v.763" fill="#D0D766"/><path d="M1149.805 315.792c-7.235-.421-12.977-5.906-14-12.804-3.446 6.065-10.791 9.084-17.686 6.848-6.904-2.236-11.083-9.004-10.311-15.952-4.88 5.003-12.747 6.065-18.85 2.156-6.112-3.91-8.437-11.501-5.952-18.028-5.972 3.61-13.839 2.657-18.769-2.657-4.93-5.315-5.28-13.245-1.242-18.93-6.684 1.985-14.07-.913-17.497-7.3-3.437-6.387-1.783-14.157 3.568-18.65-6.975.241-13.398-4.44-15.092-11.5-1.703-7.05 1.854-14.137 8.167-17.116-6.764-1.533-11.784-7.61-11.714-14.828v.01c.08-7.25 5.26-13.255 12.095-14.609-6.223-3.148-9.6-10.337-7.706-17.336 1.894-7.018 8.438-11.52 15.412-11.09-5.23-4.631-6.684-12.442-3.076-18.749 3.607-6.287 11.073-8.984 17.707-6.818-3.889-5.795-3.327-13.706 1.743-18.89 5.06-5.184 12.957-5.926 18.83-2.166-2.305-6.587.22-14.097 6.433-17.847 6.203-3.75 14.039-2.477 18.779 2.647-.572-6.958 3.778-13.596 10.742-15.651 6.954-2.046 14.21 1.163 17.496 7.319 1.203-6.868 7.085-12.182 14.33-12.413 8.077-.26 14.871 5.916 15.462 13.907 5.201-6.066 14.29-7.019 20.643-2.066 6.013 4.693 7.486 13.025 3.748 19.432 6.684-2.537 14.43 0 18.228 6.347 3.697 6.196 2.435 13.977-2.626 18.71 6.824-.652 13.428 3.468 15.673 10.246 2.225 6.718-.551 13.887-6.293 17.477 6.714.631 12.396 5.755 13.448 12.733 1.042 6.939-2.836 13.496-9.019 16.103a15.024 15.024 0 0 1 11.243 14.559v.19h.01c0 7.109-4.94 13.065-11.564 14.639 6.193 2.797 9.9 9.575 8.558 16.544v.01c-1.343 6.968-7.295 11.871-14.08 12.171a15.053 15.053 0 0 1 5.362 17.837c-2.605 6.619-9.39 10.358-16.133 9.376 4.78 4.912 5.721 12.643 1.843 18.65-3.938 6.105-11.564 8.4-18.077 5.854 3.667 6.197 2.445 14.319-3.227 19.13-6.173 5.225-15.322 4.624-20.753-1.262-.651 7.811-7.185 13.796-14.971 13.796-.29 0-.581-.01-.882-.03zm-22.417-34.572v.01c5.612 1.815 9.42 6.628 10.232 12.082 2.745-4.792 8.046-7.89 13.939-7.55a14.923 14.923 0 0 1 10.15 4.803c.321-3.84 2.105-7.55 5.262-10.227 4.359-3.7 10.2-4.482 15.171-2.547a15.067 15.067 0 0 1 .32-15.812 15.042 15.042 0 0 1 14.782-6.729c-3.989-4.1-5.442-10.316-3.207-15.99 2.235-5.697 7.566-9.255 13.308-9.516a15.051 15.051 0 0 1-6.143-15.17c1.152-5.996 5.722-10.468 11.293-11.792-5.21-2.366-8.838-7.62-8.838-13.707l.01-.1-.01-.09c0-6.236 3.788-11.58 9.189-13.856-5.642-1.474-10.161-6.186-11.083-12.323-.922-6.106 1.964-11.901 6.884-14.99-5.752-.55-10.912-4.411-12.846-10.247-1.904-5.745-.15-11.82 3.988-15.711a15.035 15.035 0 0 1-14.3-7.26c-2.906-4.862-2.746-10.708-.09-15.29a14.991 14.991 0 0 1-14.56-2.206 15.021 15.021 0 0 1-5.752-10.738 14.968 14.968 0 0 1-10.923 5.234c-5.902.19-11.113-3.048-13.728-7.921a15.05 15.05 0 0 1-10.562 11.811c-5.652 1.664-11.504-.15-15.262-4.201.44 5.514-2.175 11.06-7.225 14.107a15.021 15.021 0 0 1-15.853-.2 15.059 15.059 0 0 1-3.447 15.49c-4.129 4.222-10.141 5.495-15.402 3.78 3.076 4.603 3.487 10.73.551 15.853a15.026 15.026 0 0 1-13.939 7.54c4.129 3.67 6.083 9.495 4.54 15.19-1.544 5.695-6.153 9.736-11.575 10.829 4.93 2.506 8.288 7.649 8.227 13.556-.06 5.945-3.557 11.049-8.587 13.445a15.044 15.044 0 0 1 11.293 11.14c1.383 5.734-.721 11.49-4.95 15.049 5.521-.17 10.933 2.708 13.728 7.911 2.796 5.203 2.215 11.31-.972 15.822a15.022 15.022 0 0 1 15.282 4.202c4.018 4.331 4.99 10.407 3.026 15.58 4.74-2.847 10.883-2.967 15.853.22a15.055 15.055 0 0 1 6.844 14.31 15.058 15.058 0 0 1 10.743-4.523c1.533 0 3.096.24 4.64.732z" fill="#D0D766"/><path d="M-2.316 396.133H1440.77v268.604H-2.316V396.133z" fill="#515F8D"/><path d="M1377.183 74.695c0 9.968-8.076 18.048-18.038 18.048h-54.504c-9.963 0-18.038-8.08-18.038-18.048 0-9.968 8.075-18.048 18.038-18.048h54.504c9.962 0 18.038 8.08 18.038 18.048" fill="#D7F4FF"/><path d="M1337.1 74.695c0 9.968-8.077 18.048-18.038 18.048h-14.421c-9.963 0-18.038-8.08-18.038-18.048 0-9.968 8.075-18.048 18.038-18.048h14.42c9.962 0 18.038 8.08 18.038 18.048" fill="#FFF"/><path d="M1333.774 104.422c0 8.73-7.072 15.806-15.797 15.806-8.724 0-15.795-7.076-15.795-15.806 0-8.728 7.071-15.805 15.795-15.805 8.725 0 15.797 7.077 15.797 15.805" fill="#FFF"/><path d="M-2.316 601.367H1440.77v151.38H-2.316v-151.38z" fill="#ECECEB"/><path d="M-2.316 561.117H1440.77v40.25H-2.316v-40.25z" fill="#BCBCBC"/><path d="M904.81 209.65v79.707H533.557V209.65H-2.316v186.483h1442.998V209.65H904.81" fill="#FFF"/><path d="M533.557 251.76h371.252v54.14H533.557v-54.14z" fill="#D9DADC"/><path d="M-2.316 305.9H1440.77v13.986H-2.316V305.9z" fill="#EEEEED"/><path d="M571.302 238.637c-4.92 0-8.91 3.991-8.91 8.915v4.207h17.82v-4.207c0-4.924-3.989-8.915-8.91-8.915m104.219 0c-4.92 0-8.91 3.991-8.91 8.915v4.207h17.82v-4.207c0-4.924-3.99-8.915-8.91-8.915m120.25 0c-4.92 0-8.91 3.991-8.91 8.915v4.207h17.819v-4.207c0-4.924-3.99-8.915-8.91-8.915m71.295 0c-4.92 0-8.91 3.991-8.91 8.915v4.207h17.82v-4.207c0-4.924-3.99-8.915-8.91-8.915" fill="#30AAE9"/><path d="M659.627 499.55c-4.843 0-8.769-3.929-8.769-8.774v-23.282c0-4.845 3.926-8.774 8.769-8.774 4.842 0 8.768 3.929 8.768 8.774v23.282c0 4.845-3.926 8.774-8.768 8.774m153.12-34.618c-4.816 0-8.718-3.905-8.718-8.723 0-4.818 3.902-8.723 8.718-8.723 4.815 0 8.718 3.905 8.718 8.723 0 4.818-3.903 8.723-8.718 8.723m-226.278-9.655c-5.116 0-9.264-4.149-9.264-9.268 0-5.119 4.148-9.269 9.264-9.269 5.115 0 9.263 4.15 9.263 9.269 0 5.12-4.148 9.268-9.263 9.268m74.213-9.268c-4.683 0-8.478-3.798-8.478-8.483 0-4.685 3.795-8.482 8.478-8.482s8.477 3.797 8.477 8.482c0 4.685-3.794 8.483-8.477 8.483m215.292-49.876H858.71v91.13c0 4.817-3.903 8.723-8.718 8.723-4.815 0-8.718-3.906-8.718-8.723v-91.13h-19.808v27.102c0 4.818-3.903 8.725-8.718 8.725-4.816 0-8.718-3.907-8.718-8.725v-27.102h-18.073v53.192c0 5.717-4.633 10.352-10.346 10.352-5.715 0-10.347-4.635-10.347-10.352v-53.192H748.95v35.253c0 6.596-5.344 11.942-11.936 11.942s-11.935-5.346-11.935-11.942v-35.253h-15.784v47.043c0 6.343-5.139 11.484-11.477 11.484-6.34 0-11.478-5.14-11.478-11.484v-47.043h-17.679v7.963a7.982 7.982 0 0 1-7.98 7.984 7.982 7.982 0 0 1-7.979-7.984v-7.963h-20.74a8.708 8.708 0 0 1-7.457 4.203 8.708 8.708 0 0 1-7.458-4.203h-21.315v13.24c0 4.817-3.903 8.723-8.718 8.723-4.816 0-8.72-3.906-8.72-8.723v-13.24h-15.901v95.499a7.276 7.276 0 0 0 7.19 7.277h.067l.084.002a7.28 7.28 0 0 0 7.273-7.28v-9.574c0-5.037 4.082-9.122 9.118-9.122 5.035 0 9.118 4.085 9.118 9.122v27.664c0 1.112-.21 2.173-.573 3.159h21.248c-.08-40.42-.131-40.905-.131-41.403v-38.244c0-4.819 3.903-8.723 8.718-8.723 4.815 0 8.718 3.904 8.718 8.723v38.244c0 .498-.051.983-.13 41.403h70.868c10.98 0 19.882-8.908 19.882-19.895v-22.233c0-6.552 5.31-11.864 11.859-11.864 6.548 0 11.857 5.312 11.857 11.864v43.617h19.126a10.365 10.365 0 0 1-.086-1.267v-28.563c0-5.676 4.598-10.277 10.271-10.277 5.673 0 10.272 4.6 10.272 10.277l-.038 7.453a9.796 9.796 0 0 0 9.79 9.843c5.406 0 9.788-4.385 9.788-9.795v-.483c0-5.399 4.374-9.775 9.77-9.775 5.397 0 9.77 4.376 9.77 9.775v5.015c0 9.83 7.964 17.797 17.788 17.797h31.964V396.133" fill="#3D88C7"/><path d="M849.447 362.465c-5.117 0-9.263-4.15-9.263-9.268 0-5.12 4.146-9.269 9.263-9.269 5.116 0 9.262 4.15 9.262 9.269 0 5.118-4.146 9.268-9.262 9.268m-224.942-24.282c-4.815 0-8.718-3.905-8.718-8.723 0-4.818 3.903-8.723 8.718-8.723 4.815 0 8.718 3.905 8.718 8.723 0 4.818-3.903 8.723-8.718 8.723m251.47-18.297h-18.29c-1.262 3.895-4.92 6.711-9.232 6.711-4.314 0-7.97-2.816-9.231-6.711h-17.757v33.975c0 4.818-3.903 8.723-8.718 8.723-4.816 0-8.718-3.905-8.718-8.723v-33.975H786.86v11.39c0 6.15-4.983 11.136-11.13 11.136-6.148 0-11.13-4.986-11.13-11.136v-11.39h-24.429c5.08 1.545 8.778 6.27 8.778 11.857 0 6.844-5.545 12.392-12.385 12.392s-12.383-5.548-12.383-12.392c0-5.588 3.696-10.312 8.777-11.857h-23.87c.136.703.205 1.427.205 2.168v20.098c0 6.341-5.138 11.483-11.477 11.483-6.34 0-11.478-5.142-11.478-11.483v-20.098c0-.74.07-1.465.205-2.168h-88.3c-.168 4.835-4.14 8.705-9.014 8.705s-8.845-3.87-9.012-8.705h-17.825v76.247h15.902v-41.488c0-4.818 3.903-8.723 8.719-8.723 4.815 0 8.718 3.905 8.718 8.723v41.488h21.315a8.683 8.683 0 0 1-1.26-4.52v-29.44c0-4.818 3.903-8.723 8.718-8.723 4.815 0 8.718 3.905 8.718 8.723v29.44a8.683 8.683 0 0 1-1.26 4.52h20.74V333.24a7.982 7.982 0 0 1 7.979-7.984 7.982 7.982 0 0 1 7.98 7.984v62.892h17.678v-3.303c0-6.342 5.139-11.484 11.478-11.484 6.338 0 11.477 5.142 11.477 11.484v3.303h15.784V379.03c0-6.594 5.343-11.941 11.935-11.941 6.592 0 11.936 5.347 11.936 11.941v17.103h16.313v-30.647c0-5.717 4.632-10.353 10.347-10.353 5.713 0 10.346 4.636 10.346 10.353v30.647h18.073v-2.338c0-4.817 3.902-8.723 8.718-8.723 4.815 0 8.718 3.906 8.718 8.723v2.338h19.808v-5.368c0-4.817 3.903-8.724 8.718-8.724 4.815 0 8.718 3.907 8.718 8.724v5.368h17.265v-76.247" fill="#71B7E9"/><path d="M562.393 305.9h17.819v-54.14h-17.82v54.14zm122.037-54.14h-17.819v46.008a8.13 8.13 0 0 1-8.128 8.132 8.13 8.13 0 0 1-8.127-8.132v-5.488a7.517 7.517 0 0 0-7.515-7.52 7.517 7.517 0 0 0-7.516 7.52v2.59c0 6.092-4.935 11.03-11.022 11.03-6.087 0-11.023-4.938-11.023-11.03v-27.156a7.517 7.517 0 0 0-7.515-7.52 7.517 7.517 0 0 0-7.516 7.52V305.9h166.352v-13.62a7.517 7.517 0 0 0-7.516-7.52 7.517 7.517 0 0 0-7.515 7.52v1.047c0 6.944-5.626 12.573-12.566 12.573s-12.566-5.63-12.566-12.573v-25.613a7.517 7.517 0 0 0-7.515-7.52 7.517 7.517 0 0 0-7.516 7.52v9.647c0 6.901-5.592 12.496-12.489 12.496-6.896 0-12.488-5.595-12.488-12.496v-25.602zm120.25 0h-17.819v54.14h51.89v-31.668a7.517 7.517 0 0 0-7.516-7.52 7.517 7.517 0 0 0-7.515 7.52v10.195c0 5.26-4.263 9.525-9.52 9.525-5.258 0-9.52-4.264-9.52-9.525v-32.668zm53.475 54.14h17.82v-54.14h-17.82v54.14z" fill="#65ACDE"/><path d="M580.212 305.9h-17.82v13.986h17.826a8.42 8.42 0 0 1-.006-.32V305.9m184.389 0H598.249v13.667c0 .106-.002.213-.006.319h88.3c1.015-5.304 5.676-9.316 11.274-9.316 5.598 0 10.26 4.012 11.272 9.316h23.87a12.38 12.38 0 0 1 3.606-.534c1.255 0 2.466.187 3.607.534h24.429V305.9m74.15 0h-51.89v13.986h17.168v-4.27c0-4.815 3.902-8.723 8.718-8.723 4.815 0 8.718 3.908 8.718 8.723v4.27h17.757a9.705 9.705 0 0 1-.471-2.986v-11m37.223 0h-17.819v10.99a9.705 9.705 0 0 1-.47 2.996h18.29V305.9" fill="#6BB2E3"/><path d="M875.974 251.76h28.836v54.14h-28.836v-54.14zM533.557 251.76h28.836v54.14h-28.836v-54.14z" fill="#BCBCBC"/><path d="M176.542 684.95c0-7.126 5.774-12.902 12.896-12.902 7.123 0 12.897 5.776 12.897 12.903" fill="#A7A7A5"/><path d="M369.117 713.37c0-7.127 5.774-12.903 12.896-12.903 7.124 0 12.898 5.776 12.898 12.903M1113.788 647.24c0-7.127 5.773-12.904 12.896-12.904 7.123 0 12.897 5.777 12.897 12.904M1383.01 647.24c0-7.127 5.774-12.904 12.896-12.904 7.123 0 12.897 5.777 12.897 12.904" fill="#C7C7C4"/><path d="M1237.093 715.987c0-7.127 5.773-12.903 12.896-12.903 7.123 0 12.897 5.776 12.897 12.903" fill="#A7A7A5"/><path d="M-2.316 508.639H1440.77v92.727H-2.316V508.64z" fill="#BCBCBC"/><path d="M756.077 256.685c-4.704 0-8.518 3.816-8.518 8.523 0 4.706 3.814 8.522 8.518 8.522 4.704 0 8.518-3.816 8.518-8.522 0-4.707-3.814-8.523-8.518-8.523" fill="#65ACDE"/><path d="M640.855 243.237c-4.705 0-8.518 3.816-8.518 8.522h17.035c0-4.706-3.814-8.522-8.517-8.522" fill="#30AAE9"/><path d="M649.372 251.76h-17.035c0 4.706 3.813 8.522 8.518 8.522 4.703 0 8.517-3.816 8.517-8.523" fill="#65ACDE"/><path d="M873.469 206.94c-21.397 0-20.023 24.679-20.023 24.679s2.004-7.633 20.023-7.633c4.704 0 8.518-3.816 8.518-8.523s-3.814-8.523-8.518-8.523M567.571 206.272c-4.704 0-8.517 3.815-8.517 8.522 0 4.707 3.813 8.523 8.517 8.523 18.019 0 20.023 7.633 20.023 7.633s1.374-24.678-20.023-24.678M714.665 206.272c-4.705 0-8.518 3.815-8.518 8.522 0 4.707 3.813 8.523 8.518 8.523 18.018 0 20.023 7.633 20.023 7.633s1.373-24.678-20.023-24.678" fill="#30AAE9"/></g></svg>