<svg width="1440" height="752" viewBox="0 0 1440 752" xmlns="http://www.w3.org/2000/svg"><title>nelson-piano</title><g fill="none" fill-rule="evenodd"><path d="M888.591 706.841H548.895c-6.72 0-12.167 5.447-12.167 12.167 0 6.719 5.447 12.167 12.167 12.167h339.696c6.721 0 12.167-5.448 12.167-12.167 0-6.72-5.446-12.167-12.167-12.167M955.729 653.011H486.08c-2.52 0-4.861.765-6.803 2.078a12.154 12.154 0 0 0-5.364 10.087v.002c.001 6.719 5.448 12.165 12.167 12.165h469.649c2.52 0 4.861-.765 6.803-2.077a12.153 12.153 0 0 0 5.364-10.088v-.002c0-6.718-5.446-12.165-12.167-12.165" fill="#999"/><path d="M504.689 575.719H934.64v89.054H504.689v-89.054z" fill="#D1F1FF"/><path d="M925.827 549.894h23.393v114.879h-23.393V549.894z" fill="#FFF"/><path d="M934.641 488.649c0-8.378-6.793-15.172-15.172-15.172H519.86c-8.378 0-15.171 6.794-15.171 15.172v60.4h429.952v-60.4" fill="#EF5281"/><path d="M504.689 530.557l53.219-37.787 13.499 24.776 31.498-22.616 13.5 24.947 29.997-17.869 13.263 17.869L683.9 494.93l6 14.157 10.5-7.079 16.499 23.522 38.998-30.6 15 32.025 16.499-16.951 8.999 14.621 25.499-26.847 10.499 30.602 22.5-22.143 10.902 24.32 13.096-14.021 10.5 14.021 13.499-13.011 7.499 6.789 9-9.594 9 13.639 6.252-5.654v14.776H504.689v-6.945" fill="#FFF"/><path d="M623.332 485.593h36.333v43.551h-36.333v-43.551z" fill="#FFF"/><path d="M626.915 489.275h29.167v2.85h-29.167v-2.85zM626.915 494.93h29.167v2.849h-29.167v-2.849zM626.915 500.584h29.167v2.849h-29.167v-2.849zM626.915 506.237h29.167v2.85h-29.167v-2.85zM626.915 511.892h29.167v2.85h-29.167v-2.85zM626.915 517.546h29.167v2.849h-29.167v-2.849zM626.915 523.2h29.167v2.849h-29.167V523.2z" fill="#323232"/><path d="M504.689 561.426H949.22v21.607H504.689v-21.607z" fill="#EF5281"/><path d="M490.108 549.894h23.395v114.879h-23.395V549.894z" fill="#EF5281"/><path d="M955.153 533.003a3.859 3.859 0 0 0-3.859-3.859H488.035a3.86 3.86 0 0 0-3.859 3.859v24.563a3.86 3.86 0 0 0 3.859 3.86h462.866a4.252 4.252 0 0 0 4.252-4.252v-24.171" fill="#D1F1FF"/><path d="M916.665 551.425h-395.51v-4.422a3.859 3.859 0 0 1 3.859-3.859h387.792a3.859 3.859 0 0 1 3.859 3.859v4.422" fill="#000"/><path d="M931.155 555.342c0-2.162-1.728-3.916-3.859-3.916H510.523c-2.13 0-3.858 1.754-3.858 3.916v6.084h424.49v-6.084M552.865 636.64h333.6v35.423h-333.6V636.64z" fill="#FFF"/><path d="M552.865 645.065h20.67v73.609h-20.67v-73.609zM865.795 645.065h20.67v73.609h-20.67v-73.609z" fill="#FFF"/><path d="M893.965 626.021a3.86 3.86 0 0 0-3.86-3.86H549.224a3.86 3.86 0 0 0-3.859 3.86v21.238a3.859 3.859 0 0 0 3.859 3.859h340.881a3.86 3.86 0 0 0 3.86-3.859v-21.238" fill="#EF5281"/></g></svg>