<svg width="1440" height="752" viewBox="0 0 1440 752" xmlns="http://www.w3.org/2000/svg" xmlns:xlink="http://www.w3.org/1999/xlink"><title>oceanic-plaza</title><defs><path id="a" d="M0 752h1854.608V0H0z"/></defs><g fill="none" fill-rule="evenodd"><path fill="#515F8D" d="M-10 608.01h1469.607V.001H-10z"/><path fill="#B8C5DA" d="M877.954 608.01h581.654V.001H877.954zM-23.625 608.01h379.944V.001H-23.625z"/><path fill="#BDE2F0" d="M344.074 608.01h39.866V.001h-39.866zM210.632 608.01h39.866V.001h-39.866zM77.19 608.01h39.866V.001H77.19z"/><g transform="translate(-395)"><path d="M1376.085 175.85c0-44.78-36.3-81.08-81.08-81.08s-81.08 36.3-81.08 81.08 36.3 81.08 81.08 81.08 81.08-36.3 81.08-81.08z" fill="#3B9F86"/><path d="M1288.235 239.071c6.71.71 12.13 5.12 14.45 10.99 1.07-6.21 5.46-11.62 11.87-13.69 6.4-2.069 13.13-.25 17.63 4.16-1.55-6.108.26-12.85 5.27-17.35 5.01-4.5 11.91-5.57 17.81-3.37a17.5 17.5 0 0 1-2.21-17.98c2.75-6.14 8.6-9.908 14.87-10.31-5.57-2.94-9.36-8.79-9.34-15.53v-.14c0-6.74 3.81-12.59 9.39-15.508-6.28-.411-12.12-4.201-14.86-10.341-2.74-6.16-1.65-13.04 2.25-17.99-5.91 2.19-12.8 1.11-17.81-3.41v.01c-5-4.51-6.8-11.26-5.24-17.36-4.5 4.39-11.23 6.2-17.63 4.12-6.4-2.08-10.78-7.5-11.84-13.71-2.34 5.86-7.77 10.25-14.47 10.95-6.69.69-12.89-2.49-16.38-7.72.25 6.28-2.91 12.49-8.73 15.85-5.84 3.37-12.81 3-18.13-.37 2.79 5.65 2.42 12.63-1.55 18.07-3.97 5.44-10.48 7.92-16.7 7.01 4.83 4.02 7.33 10.52 5.93 17.1-1.4 6.59-6.34 11.52-12.41 13.22a17.5 17.5 0 0 1 12.38 13.25c1.39 6.58-1.13 13.07-5.97 17.08 6.23-.9 12.74 1.6 16.69 7.04 3.96 5.46 4.31 12.43 1.51 18.08 5.33-3.36 12.3-3.72 18.13-.34 5.81 3.38 8.96 9.59 8.7 15.87 3.17-4.74 8.57-7.78 14.53-7.78.61 0 1.23.04 1.86.1m-3.67 34.81c-9.25-.97-16.05-8.98-15.65-18.14-5.09 7.63-15.3 10.08-23.34 5.41-8.04-4.66-10.98-14.74-6.88-22.93-7.74 4.9-18.06 3-23.52-4.52-5.46-7.52-4.06-17.93 3.02-23.77-9.08 1.34-17.75-4.61-19.66-13.71-1.91-9.09 3.6-18.02 12.43-20.46-8.82-2.47-14.32-11.41-12.39-20.49 1.94-9.1 10.61-15.03 19.69-13.67-7.06-5.85-8.44-16.27-2.96-23.78 5.47-7.5 15.79-9.38 23.52-4.46-4.08-8.21-1.12-18.28 6.93-22.92 8.05-4.66 18.27-2.18 23.33 5.47-.38-9.17 6.44-17.16 15.69-18.12 9.23-.95 17.53 5.46 19.05 14.48 3.37-8.52 12.84-13.06 21.68-10.19 8.85 2.88 13.83 12.13 11.54 21.01 6.55-6.41 17.04-6.7 23.94-.48 6.9 6.22 7.7 16.68 2.01 23.86 8.59-3.21 18.3.79 22.09 9.28 3.78 8.49.25 18.39-7.88 22.63 9.14.58 16.38 8.18 16.38 17.47v.33c-.08 9.23-7.31 16.76-16.41 17.32 8.12 4.26 11.62 14.16 7.82 22.65-3.8 8.47-13.52 12.45-22.1 9.23 5.67 7.19 4.85 17.65-2.06 23.85-6.92 6.21-17.41 5.89-23.95-.53 2.28 8.88-2.73 18.12-11.58 20.98-8.85 2.85-18.31-1.71-21.66-10.25-1.43 8.42-8.76 14.55-17.23 14.55-.61 0-1.23-.03-1.85-.1" fill="#3B9F86"/><path d="M1335.92 175.85c0-44.78-36.3-81.08-81.08-81.08s-81.08 36.3-81.08 81.08 36.3 81.08 81.08 81.08 81.08-36.3 81.08-81.08" fill="#3BB67D"/><path d="M1248.075 239.071c6.7.71 12.12 5.12 14.44 10.99a17.495 17.495 0 0 1 11.88-13.69c6.4-2.069 13.13-.25 17.62 4.15-1.55-6.098.26-12.84 5.28-17.34 5.01-4.5 11.91-5.57 17.81-3.37-3.89-4.95-4.97-11.84-2.21-17.98 2.75-6.14 8.59-9.908 14.87-10.31-5.57-2.94-9.36-8.79-9.35-15.53v-.14c0-6.74 3.81-12.59 9.39-15.508-6.27-.411-12.12-4.201-14.86-10.341-2.74-6.15-1.64-13.04 2.26-17.99-5.91 2.19-12.81 1.11-17.81-3.41v.01c-5.01-4.51-6.8-11.26-5.24-17.36-4.51 4.39-11.24 6.2-17.64 4.12s-10.78-7.5-11.84-13.71a17.506 17.506 0 0 1-14.47 10.95c-6.69.69-12.89-2.49-16.37-7.72.24 6.28-2.92 12.49-8.74 15.85-5.83 3.37-12.8 3-18.13-.37 2.79 5.65 2.43 12.63-1.55 18.07-3.96 5.44-10.47 7.92-16.7 7.01 4.83 4.02 7.33 10.52 5.94 17.1-1.41 6.59-6.35 11.52-12.42 13.22 6.07 1.71 11 6.65 12.39 13.25 1.38 6.58-1.13 13.07-5.97 17.08 6.23-.9 12.73 1.6 16.68 7.04h.01c3.96 5.46 4.31 12.43 1.51 18.08 5.33-3.36 12.3-3.72 18.12-.33 5.82 3.37 8.96 9.58 8.71 15.86 3.17-4.74 8.56-7.78 14.53-7.78.61 0 1.23.04 1.86.1m-3.68 34.81c-9.24-.97-16.04-8.98-15.65-18.14-5.08 7.63-15.3 10.08-23.34 5.41-8.03-4.66-10.97-14.74-6.88-22.93-7.74 4.9-18.05 3-23.51-4.52-5.46-7.52-4.06-17.93 3.02-23.77-9.09 1.34-17.75-4.61-19.67-13.71-1.9-9.09 3.61-18.01 12.43-20.46-8.81-2.47-14.31-11.4-12.38-20.49 1.93-9.1 10.61-15.03 19.69-13.67-7.07-5.85-8.44-16.26-2.97-23.77v-.01c5.48-7.5 15.8-9.38 23.53-4.46-4.08-8.21-1.12-18.28 6.93-22.92 8.05-4.66 18.26-2.18 23.33 5.47-.38-9.17 6.44-17.16 15.69-18.12 9.23-.95 17.53 5.46 19.05 14.48 3.37-8.52 12.84-13.06 21.68-10.19 8.84 2.87 13.83 12.13 11.53 21.01 6.55-6.41 17.05-6.7 23.95-.48 6.9 6.22 7.7 16.68 2 23.86 8.59-3.21 18.31.79 22.09 9.28 3.79 8.49.26 18.39-7.88 22.63 9.15.58 16.39 8.18 16.39 17.47v.22c-.03 9.29-7.28 16.87-16.42 17.43 8.12 4.26 11.63 14.16 7.82 22.65-3.8 8.47-13.52 12.45-22.1 9.23 5.68 7.19 4.86 17.65-2.05 23.85-6.92 6.21-17.42 5.89-23.95-.53 2.28 8.88-2.73 18.12-11.58 20.98-8.85 2.85-18.31-1.71-21.66-10.24-1.44 8.41-8.76 14.54-17.23 14.54-.61 0-1.23-.03-1.86-.1" fill="#3BB67D"/><path d="M1582.689 175.85c0-44.78-36.3-81.08-81.08-81.08s-81.08 36.3-81.08 81.08 36.3 81.08 81.08 81.08 81.08-36.3 81.08-81.08" fill="#3B9F86"/><path d="M1494.84 239.071c6.71.71 12.13 5.12 14.45 10.99 1.07-6.21 5.46-11.62 11.87-13.69 6.4-2.069 13.13-.25 17.63 4.16-1.55-6.108.26-12.85 5.27-17.35 5.01-4.5 11.91-5.57 17.81-3.37a17.5 17.5 0 0 1-2.21-17.98c2.75-6.14 8.6-9.908 14.87-10.31-5.57-2.94-9.36-8.79-9.34-15.53v-.14c0-6.74 3.81-12.59 9.39-15.508-6.28-.411-12.12-4.201-14.86-10.341-2.74-6.16-1.65-13.04 2.25-17.99-5.91 2.19-12.8 1.11-17.81-3.41v.01c-5-4.51-6.8-11.26-5.24-17.36-4.5 4.39-11.23 6.2-17.63 4.12-6.4-2.08-10.78-7.5-11.84-13.71-2.34 5.86-7.77 10.25-14.47 10.95-6.69.69-12.89-2.49-16.38-7.72.25 6.28-2.91 12.49-8.73 15.85-5.84 3.37-12.81 3-18.13-.37 2.79 5.65 2.42 12.63-1.55 18.07-3.97 5.44-10.48 7.92-16.7 7.01 4.83 4.02 7.33 10.52 5.93 17.1-1.4 6.59-6.34 11.52-12.41 13.22a17.5 17.5 0 0 1 12.38 13.25c1.39 6.58-1.13 13.07-5.97 17.08 6.23-.9 12.74 1.6 16.69 7.04 3.96 5.46 4.31 12.43 1.51 18.08 5.33-3.36 12.3-3.72 18.13-.34 5.81 3.38 8.96 9.59 8.7 15.87 3.17-4.74 8.57-7.78 14.53-7.78.61 0 1.23.04 1.86.1m-3.67 34.81c-9.25-.97-16.05-8.98-15.65-18.14-5.09 7.63-15.3 10.08-23.34 5.41-8.04-4.66-10.98-14.74-6.88-22.93-7.74 4.9-18.06 3-23.52-4.52-5.46-7.52-4.06-17.93 3.02-23.77-9.08 1.34-17.75-4.61-19.66-13.71-1.91-9.09 3.6-18.02 12.43-20.46-8.82-2.47-14.32-11.41-12.39-20.49 1.94-9.1 10.61-15.03 19.69-13.67-7.06-5.85-8.44-16.27-2.96-23.78 5.47-7.5 15.79-9.38 23.52-4.46-4.08-8.21-1.12-18.28 6.93-22.92 8.05-4.66 18.27-2.18 23.33 5.47-.38-9.17 6.44-17.16 15.69-18.12 9.23-.95 17.53 5.46 19.05 14.48 3.37-8.52 12.84-13.06 21.68-10.19 8.85 2.88 13.83 12.13 11.54 21.01 6.55-6.41 17.04-6.7 23.94-.48 6.9 6.22 7.7 16.68 2.01 23.86 8.59-3.21 18.3.79 22.09 9.28 3.78 8.49.25 18.39-7.88 22.63 9.14.58 16.38 8.18 16.38 17.47v.33c-.08 9.23-7.31 16.76-16.41 17.32 8.12 4.26 11.62 14.16 7.82 22.65-3.8 8.47-13.52 12.45-22.1 9.23 5.67 7.19 4.85 17.65-2.06 23.85-6.92 6.21-17.41 5.89-23.95-.53 2.28 8.88-2.73 18.12-11.58 20.98-8.85 2.85-18.31-1.71-21.66-10.25-1.43 8.42-8.76 14.55-17.23 14.55-.61 0-1.23-.03-1.85-.1" fill="#3B9F86"/><path d="M1542.525 175.85c0-44.78-36.301-81.08-81.08-81.08-44.781 0-81.08 36.3-81.08 81.08s36.299 81.08 81.08 81.08c44.779 0 81.08-36.3 81.08-81.08" fill="#3BB67D"/><path d="M1454.68 239.071c6.7.71 12.12 5.12 14.44 10.99a17.495 17.495 0 0 1 11.88-13.69c6.4-2.069 13.13-.25 17.62 4.15-1.55-6.098.26-12.84 5.28-17.34 5.01-4.5 11.909-5.57 17.81-3.37-3.89-4.95-4.97-11.84-2.21-17.98 2.75-6.14 8.59-9.908 14.87-10.31-5.57-2.94-9.36-8.79-9.35-15.53v-.14c0-6.74 3.809-12.59 9.39-15.508-6.27-.411-12.121-4.201-14.86-10.341-2.741-6.15-1.64-13.04 2.259-17.99-5.91 2.19-12.81 1.11-17.81-3.41v.01c-5.01-4.51-6.8-11.26-5.24-17.36-4.51 4.39-11.24 6.2-17.64 4.12s-10.78-7.5-11.84-13.71a17.503 17.503 0 0 1-14.47 10.95c-6.69.69-12.89-2.49-16.37-7.72.24 6.28-2.92 12.49-8.74 15.85-5.83 3.37-12.8 3-18.13-.37 2.79 5.65 2.43 12.63-1.55 18.07-3.96 5.44-10.47 7.92-16.7 7.01 4.83 4.02 7.33 10.52 5.94 17.1a17.524 17.524 0 0 1-12.42 13.22c6.07 1.71 11 6.65 12.39 13.25 1.38 6.58-1.13 13.07-5.97 17.08 6.23-.9 12.73 1.6 16.68 7.04h.01c3.96 5.46 4.31 12.43 1.51 18.08 5.33-3.36 12.3-3.72 18.12-.33 5.82 3.37 8.96 9.58 8.71 15.86 3.17-4.74 8.56-7.78 14.53-7.78.61 0 1.23.04 1.86.1m-3.68 34.81c-9.24-.97-16.04-8.98-15.65-18.14-5.08 7.63-15.3 10.08-23.34 5.41-8.03-4.66-10.97-14.74-6.88-22.93-7.74 4.9-18.05 3-23.51-4.52-5.46-7.52-4.06-17.93 3.02-23.77-9.09 1.34-17.75-4.61-19.67-13.71-1.9-9.09 3.61-18.01 12.43-20.46-8.81-2.47-14.31-11.4-12.38-20.49 1.93-9.1 10.61-15.03 19.69-13.67-7.07-5.85-8.44-16.26-2.97-23.77v-.01c5.48-7.5 15.8-9.38 23.53-4.46-4.08-8.21-1.12-18.28 6.93-22.92 8.05-4.66 18.26-2.18 23.33 5.47-.38-9.17 6.44-17.16 15.69-18.12 9.23-.95 17.53 5.46 19.05 14.48 3.37-8.52 12.84-13.06 21.68-10.19 8.84 2.87 13.83 12.13 11.53 21.01 6.55-6.41 17.05-6.7 23.95-.48 6.9 6.22 7.7 16.68 2 23.86 8.59-3.21 18.31.79 22.09 9.28 3.79 8.49.26 18.39-7.88 22.63 9.15.58 16.39 8.18 16.39 17.47v.22c-.03 9.29-7.28 16.87-16.42 17.43 8.12 4.26 11.63 14.16 7.82 22.65-3.8 8.47-13.52 12.45-22.1 9.23 5.68 7.19 4.86 17.65-2.05 23.85-6.92 6.21-17.42 5.89-23.95-.53 2.28 8.88-2.73 18.12-11.58 20.98-8.85 2.85-18.31-1.71-21.66-10.24-1.44 8.41-8.76 14.54-17.23 14.54-.61 0-1.23-.03-1.86-.1" fill="#3BB67D"/><path d="M478.258 175.85c0-44.78-36.3-81.08-81.08-81.08s-81.08 36.3-81.08 81.08 36.3 81.08 81.08 81.08 81.08-36.3 81.08-81.08" fill="#3B9F86"/><path d="M390.408 239.071c6.71.71 12.13 5.12 14.45 10.99 1.07-6.21 5.46-11.62 11.87-13.69 6.4-2.069 13.13-.25 17.63 4.16-1.55-6.108.26-12.85 5.27-17.35 5.01-4.5 11.91-5.57 17.81-3.37a17.5 17.5 0 0 1-2.21-17.98c2.75-6.14 8.6-9.908 14.87-10.31-5.57-2.94-9.36-8.79-9.34-15.53v-.14c0-6.74 3.81-12.59 9.39-15.508-6.28-.411-12.12-4.201-14.86-10.341-2.74-6.16-1.65-13.04 2.25-17.99-5.91 2.19-12.8 1.11-17.81-3.41v.01c-5-4.51-6.8-11.26-5.24-17.36-4.5 4.39-11.23 6.2-17.63 4.12-6.4-2.08-10.78-7.5-11.84-13.71-2.34 5.86-7.77 10.25-14.47 10.95-6.69.69-12.89-2.49-16.38-7.72.25 6.28-2.91 12.49-8.73 15.85-5.84 3.37-12.81 3-18.13-.37 2.79 5.65 2.42 12.63-1.55 18.07-3.97 5.44-10.48 7.92-16.7 7.01 4.83 4.02 7.33 10.52 5.93 17.1-1.4 6.59-6.34 11.52-12.41 13.22a17.5 17.5 0 0 1 12.38 13.25c1.39 6.58-1.13 13.07-5.97 17.08 6.23-.9 12.74 1.6 16.69 7.04 3.96 5.46 4.31 12.43 1.51 18.08 5.33-3.36 12.3-3.72 18.13-.34 5.81 3.38 8.96 9.59 8.7 15.87 3.17-4.74 8.57-7.78 14.53-7.78.61 0 1.23.04 1.86.1m-3.67 34.81c-9.25-.97-16.05-8.98-15.65-18.14-5.09 7.63-15.3 10.08-23.34 5.41-8.04-4.66-10.98-14.74-6.88-22.93-7.74 4.9-18.06 3-23.52-4.52-5.46-7.52-4.06-17.93 3.02-23.77-9.08 1.34-17.75-4.61-19.66-13.71-1.91-9.09 3.6-18.02 12.43-20.46-8.82-2.47-14.32-11.41-12.39-20.49 1.94-9.1 10.61-15.03 19.69-13.67-7.06-5.85-8.44-16.27-2.96-23.78 5.47-7.5 15.79-9.38 23.52-4.46-4.08-8.21-1.12-18.28 6.93-22.92 8.05-4.66 18.27-2.18 23.33 5.47-.38-9.17 6.44-17.16 15.69-18.12 9.23-.95 17.53 5.46 19.05 14.48 3.37-8.52 12.84-13.06 21.68-10.19 8.85 2.88 13.83 12.13 11.54 21.01 6.55-6.41 17.04-6.7 23.94-.48 6.9 6.22 7.7 16.68 2.01 23.86 8.59-3.21 18.3.79 22.09 9.28 3.78 8.49.25 18.39-7.88 22.63 9.14.58 16.38 8.18 16.38 17.47v.33c-.08 9.23-7.31 16.76-16.41 17.32 8.12 4.26 11.62 14.16 7.82 22.65-3.8 8.47-13.52 12.45-22.1 9.23 5.67 7.19 4.85 17.65-2.06 23.85-6.92 6.21-17.41 5.89-23.95-.53 2.28 8.88-2.73 18.12-11.58 20.98-8.85 2.85-18.31-1.71-21.66-10.25-1.43 8.42-8.76 14.55-17.23 14.55-.61 0-1.23-.03-1.85-.1" fill="#3B9F86"/><path d="M438.094 175.85c0-44.78-36.301-81.08-81.08-81.08-44.781 0-81.08 36.3-81.08 81.08s36.299 81.08 81.08 81.08c44.779 0 81.08-36.3 81.08-81.08" fill="#3BB67D"/><path d="M350.249 239.071c6.7.71 12.12 5.12 14.44 10.99a17.495 17.495 0 0 1 11.88-13.69c6.4-2.069 13.13-.25 17.62 4.15-1.55-6.098.26-12.84 5.28-17.34 5.01-4.5 11.909-5.57 17.81-3.37-3.89-4.95-4.97-11.84-2.21-17.98 2.75-6.14 8.59-9.908 14.87-10.31-5.57-2.94-9.36-8.79-9.35-15.53v-.14c0-6.74 3.809-12.59 9.39-15.508-6.27-.411-12.121-4.201-14.86-10.341-2.741-6.15-1.64-13.04 2.259-17.99-5.91 2.19-12.81 1.11-17.81-3.41v.01c-5.01-4.51-6.8-11.26-5.24-17.36-4.51 4.39-11.24 6.2-17.64 4.12s-10.78-7.5-11.84-13.71a17.506 17.506 0 0 1-14.47 10.95c-6.69.69-12.89-2.49-16.37-7.72.24 6.28-2.92 12.49-8.74 15.85-5.83 3.37-12.8 3-18.13-.37 2.79 5.65 2.43 12.63-1.55 18.07-3.96 5.44-10.47 7.92-16.7 7.01 4.83 4.02 7.33 10.52 5.94 17.1a17.524 17.524 0 0 1-12.42 13.22c6.07 1.71 11 6.65 12.39 13.25 1.38 6.58-1.13 13.07-5.97 17.08 6.23-.9 12.73 1.6 16.68 7.04h.01c3.96 5.46 4.31 12.43 1.51 18.08 5.33-3.36 12.3-3.72 18.12-.33 5.82 3.37 8.96 9.58 8.71 15.86 3.17-4.74 8.56-7.78 14.53-7.78.61 0 1.23.04 1.86.1m-3.68 34.81c-9.24-.97-16.04-8.98-15.65-18.14-5.08 7.63-15.3 10.08-23.34 5.41-8.03-4.66-10.97-14.74-6.88-22.93-7.74 4.9-18.05 3-23.51-4.52-5.46-7.52-4.06-17.93 3.02-23.77-9.09 1.34-17.75-4.61-19.67-13.71-1.9-9.09 3.61-18.01 12.43-20.46-8.81-2.47-14.31-11.4-12.38-20.49 1.93-9.1 10.61-15.03 19.69-13.67-7.07-5.85-8.44-16.26-2.97-23.77v-.01c5.48-7.5 15.8-9.38 23.53-4.46-4.08-8.21-1.12-18.28 6.93-22.92 8.05-4.66 18.26-2.18 23.33 5.47-.38-9.17 6.44-17.16 15.69-18.12 9.23-.95 17.53 5.46 19.05 14.48 3.37-8.52 12.84-13.06 21.68-10.19 8.84 2.87 13.83 12.13 11.53 21.01 6.55-6.41 17.05-6.7 23.95-.48 6.9 6.22 7.7 16.68 2 23.86 8.59-3.21 18.31.79 22.09 9.28 3.79 8.49.26 18.39-7.88 22.63 9.15.58 16.39 8.18 16.39 17.47v.22c-.03 9.29-7.28 16.87-16.42 17.43 8.12 4.26 11.63 14.16 7.82 22.65-3.8 8.47-13.52 12.45-22.1 9.23 5.68 7.19 4.86 17.65-2.05 23.85-6.92 6.21-17.42 5.89-23.95-.53 2.28 8.88-2.73 18.12-11.58 20.98-8.85 2.85-18.31-1.71-21.66-10.24-1.44 8.41-8.76 14.54-17.23 14.54-.61 0-1.23-.03-1.86-.1" fill="#3BB67D"/><path d="M684.862 175.85c0-44.78-36.3-81.08-81.08-81.08s-81.08 36.3-81.08 81.08 36.3 81.08 81.08 81.08 81.08-36.3 81.08-81.08" fill="#3B9F86"/><path d="M597.013 239.071c6.71.71 12.13 5.12 14.45 10.99 1.07-6.21 5.46-11.62 11.87-13.69 6.4-2.069 13.13-.25 17.63 4.16-1.55-6.108.26-12.85 5.27-17.35 5.01-4.5 11.91-5.57 17.81-3.37a17.5 17.5 0 0 1-2.21-17.98c2.75-6.14 8.6-9.908 14.87-10.31-5.57-2.94-9.36-8.79-9.34-15.53v-.14c0-6.74 3.81-12.59 9.39-15.508-6.28-.411-12.12-4.201-14.86-10.341-2.74-6.16-1.65-13.04 2.25-17.99-5.91 2.19-12.8 1.11-17.81-3.41v.01c-5-4.51-6.8-11.26-5.24-17.36-4.5 4.39-11.23 6.2-17.63 4.12-6.4-2.08-10.78-7.5-11.84-13.71-2.34 5.86-7.77 10.25-14.47 10.95-6.69.69-12.89-2.49-16.38-7.72.25 6.28-2.91 12.49-8.73 15.85-5.84 3.37-12.81 3-18.13-.37 2.79 5.65 2.42 12.63-1.55 18.07-3.97 5.44-10.48 7.92-16.7 7.01 4.83 4.02 7.33 10.52 5.93 17.1-1.4 6.59-6.34 11.52-12.41 13.22a17.5 17.5 0 0 1 12.38 13.25c1.39 6.58-1.13 13.07-5.97 17.08 6.23-.9 12.74 1.6 16.69 7.04 3.96 5.46 4.31 12.43 1.51 18.08 5.33-3.36 12.3-3.72 18.13-.34 5.81 3.38 8.96 9.59 8.7 15.87 3.17-4.74 8.57-7.78 14.53-7.78.61 0 1.23.04 1.86.1m-3.67 34.81c-9.25-.97-16.05-8.98-15.65-18.14-5.09 7.63-15.3 10.08-23.34 5.41-8.04-4.66-10.98-14.74-6.88-22.93-7.74 4.9-18.06 3-23.52-4.52-5.46-7.52-4.06-17.93 3.02-23.77-9.08 1.34-17.75-4.61-19.66-13.71-1.91-9.09 3.6-18.02 12.43-20.46-8.82-2.47-14.32-11.41-12.39-20.49 1.94-9.1 10.61-15.03 19.69-13.67-7.06-5.85-8.44-16.27-2.96-23.78 5.47-7.5 15.79-9.38 23.52-4.46-4.08-8.21-1.12-18.28 6.93-22.92 8.05-4.66 18.27-2.18 23.33 5.47-.38-9.17 6.44-17.16 15.69-18.12 9.23-.95 17.53 5.46 19.05 14.48 3.37-8.52 12.84-13.06 21.68-10.19 8.85 2.88 13.83 12.13 11.54 21.01 6.55-6.41 17.04-6.7 23.94-.48 6.9 6.22 7.7 16.68 2.01 23.86 8.59-3.21 18.3.79 22.09 9.28 3.78 8.49.25 18.39-7.88 22.63 9.14.58 16.38 8.18 16.38 17.47v.33c-.08 9.23-7.31 16.76-16.41 17.32 8.12 4.26 11.62 14.16 7.82 22.65-3.8 8.47-13.52 12.45-22.1 9.23 5.67 7.19 4.85 17.65-2.06 23.85-6.92 6.21-17.41 5.89-23.95-.53 2.28 8.88-2.73 18.12-11.58 20.98-8.85 2.85-18.31-1.71-21.66-10.25-1.43 8.42-8.76 14.55-17.23 14.55-.61 0-1.23-.03-1.85-.1" fill="#3B9F86"/><path d="M644.698 175.85c0-44.78-36.3-81.08-81.08-81.08s-81.08 36.3-81.08 81.08 36.3 81.08 81.08 81.08 81.08-36.3 81.08-81.08" fill="#3BB67D"/><path d="M556.853 239.071c6.7.71 12.12 5.12 14.44 10.99a17.495 17.495 0 0 1 11.88-13.69c6.4-2.069 13.13-.25 17.62 4.15-1.55-6.098.26-12.84 5.28-17.34 5.01-4.5 11.909-5.57 17.81-3.37-3.89-4.95-4.97-11.84-2.21-17.98 2.75-6.14 8.59-9.908 14.87-10.31-5.57-2.94-9.36-8.79-9.35-15.53v-.14c0-6.74 3.809-12.59 9.39-15.508-6.27-.411-12.121-4.201-14.86-10.341-2.741-6.15-1.64-13.04 2.259-17.99-5.909 2.19-12.809 1.11-17.809-3.41v.01c-5.01-4.51-6.8-11.26-5.24-17.36-4.51 4.39-11.24 6.2-17.64 4.12s-10.78-7.5-11.84-13.71a17.506 17.506 0 0 1-14.471 10.95c-6.689.69-12.889-2.49-16.369-7.72.24 6.28-2.92 12.49-8.74 15.85-5.83 3.37-12.8 3-18.13-.37 2.79 5.65 2.43 12.63-1.55 18.07-3.961 5.44-10.47 7.92-16.7 7.01 4.83 4.02 7.33 10.52 5.94 17.1a17.524 17.524 0 0 1-12.42 13.22c6.07 1.71 11 6.65 12.39 13.25 1.38 6.58-1.131 13.07-5.97 17.08 6.23-.9 12.73 1.6 16.68 7.04h.01c3.96 5.46 4.31 12.43 1.51 18.08 5.329-3.36 12.3-3.72 18.119-.33 5.821 3.37 8.96 9.58 8.71 15.86 3.171-4.74 8.56-7.78 14.531-7.78.61 0 1.23.04 1.86.1m-3.68 34.81c-9.24-.97-16.04-8.98-15.651-18.14-5.079 7.63-15.299 10.08-23.339 5.41-8.03-4.66-10.971-14.74-6.88-22.93-7.74 4.9-18.051 3-23.51-4.52-5.46-7.52-4.061-17.93 3.02-23.77-9.09 1.34-17.75-4.61-19.67-13.71-1.9-9.09 3.609-18.01 12.43-20.46-8.81-2.47-14.31-11.4-12.38-20.49 1.93-9.1 10.61-15.03 19.69-13.67-7.07-5.85-8.44-16.26-2.97-23.77v-.01c5.48-7.5 15.799-9.38 23.53-4.46-4.08-8.21-1.12-18.28 6.93-22.92 8.05-4.66 18.26-2.18 23.33 5.47-.38-9.17 6.44-17.16 15.69-18.12 9.23-.95 17.53 5.46 19.05 14.48 3.37-8.52 12.84-13.06 21.68-10.19 8.839 2.87 13.83 12.13 11.53 21.01 6.55-6.41 17.05-6.7 23.95-.48 6.899 6.22 7.7 16.68 2 23.86 8.59-3.21 18.31.79 22.09 9.28 3.789 8.49.26 18.39-7.88 22.63 9.149.58 16.39 8.18 16.39 17.47v.22c-.03 9.29-7.28 16.87-16.42 17.43 8.12 4.26 11.63 14.16 7.82 22.65-3.8 8.47-13.52 12.45-22.101 9.23 5.681 7.19 4.861 17.65-2.049 23.85-6.92 6.21-17.42 5.89-23.951-.53 2.281 8.88-2.73 18.12-11.579 20.98-8.85 2.85-18.31-1.71-21.66-10.24-1.44 8.41-8.761 14.54-17.23 14.54-.61 0-1.23-.03-1.86-.1" fill="#3BB67D"/><mask id="b" fill="#fff"><use xlink:href="#a"/></mask><path fill="#BFBFBF" mask="url(#b)" d="M1606.86 752h247.748V220.814H1606.86z"/><path fill="#D9D9D9" mask="url(#b)" d="M1158.74 608.01h448.12V220.814h-448.12z"/><path fill="#C1C1C1" mask="url(#b)" d="M257.204 608.01h448.12V220.814h-448.12z"/><path fill="#D9D9D9" mask="url(#b)" d="M600.61 608.01h104.714V220.814H600.61z"/><path fill="#6F6F6F" mask="url(#b)" d="M588.083 432.625h570.657v-80.662H705.324z"/><path fill="#CCC" mask="url(#b)" d="M1606.86 340.814h247.666v-120H1606.86z"/><path fill="#FFF" mask="url(#b)" d="M455 608.01h983.74v-19.598H455zM420 587.312h983.74v-19.598H420zM385 566.613h983.74v-19.598H385zM350 545.915h983.74v-19.598H350zM315 525.217h983.74v-19.598H315zM280 504.519h983.74v-19.598H280zM245 483.821h983.74v-19.598H245z"/><path fill="#8F8F8F" mask="url(#b)" d="M280 608.01h983.74v-19.598H280zM245 587.312h983.74v-19.598H245zM210 566.613h983.74v-19.598H210zM175 545.915h983.74v-19.598H175zM140 525.217h983.74v-19.598H140zM105 504.519h983.74v-19.598H105zM70 483.821h983.74v-19.598H70z"/><path fill="#6F6F6F" mask="url(#b)" d="M280 609.11h983.74v-7.797H280zM245 588.411h983.74v-7.797H245zM210 567.713h983.74v-7.797H210zM175 547.015h983.74v-7.797H175zM140 526.317h983.74v-7.797H140zM105 505.619h983.74v-7.797H105zM70 484.92h983.74v-7.797H70zM35 464.222h983.74v-7.797H35zM0 443.524h983.74v-7.797H0z"/><path fill="#FFF" mask="url(#b)" d="M210 463.122h983.74v-19.598H210zM983.74 442.424h175v-19.598h-175z"/><path fill="#8F8F8F" mask="url(#b)" d="M35 463.122h983.74v-19.598H35zM0 442.424h983.74v-19.598H0z"/><path fill="#D9D9D9" mask="url(#b)" d="M986.083 605.211H897.87l-161-182.385h44.213z"/><path fill="#6F6F6F" mask="url(#b)" d="M455 609.11h983.74v-7.797H455zM420 588.411h983.74v-7.797H420zM385 567.713h983.74v-7.797H385zM350 547.015h983.74v-7.797H350zM315 526.317h983.74v-7.797H315zM280 505.619h983.74v-7.797H280zM245 484.92h983.74v-7.797H245zM210 464.222h983.74v-7.797H210zM175 443.524h983.74v-7.797H175z"/><path fill="#4A4A4A" mask="url(#b)" d="M1155.131 462.814h7.996v-49.347h-7.996zM1275.788 526.394h7.996v-49.347h-7.996zM1380.135 588.488h7.996v-49.347h-7.996zM1463.788 640.313h7.996v-49.347h-7.996z"/><path fill="#565656" mask="url(#b)" d="M1465.127 567.966l-302-177.499h-41.343v23h41.343l302 177.499h41.343v-23z"/><path fill="#E8E8E8" mask="url(#b)" d="M385 752h1469.608V608.01H385z"/><path fill="#565656" mask="url(#b)" d="M705.324 351.963h453.416v-46.798H705.324z"/><path d="M1750.24 653.182c0-7.107 5.761-12.87 12.868-12.87 7.11 0 12.87 5.763 12.87 12.87h-25.739z" fill="#FFF" mask="url(#b)"/><path d="M1058.37 714.814c0-7.107 5.762-12.87 12.87-12.87s12.87 5.763 12.87 12.87h-25.74z" fill="#BFBFBF" mask="url(#b)"/><path d="M619.747 646.747c0-7.107 5.762-12.869 12.87-12.869 7.107 0 12.87 5.762 12.87 12.87h-25.74z" fill="#FFF" mask="url(#b)"/><path d="M1625.376 721.248c0-7.107 5.762-12.869 12.869-12.869 7.109 0 12.87 5.762 12.87 12.87h-25.74z" fill="#8F8F85" mask="url(#b)"/></g></g></svg>