<svg width="1440" height="752" viewBox="0 0 1440 752" xmlns="http://www.w3.org/2000/svg" xmlns:xlink="http://www.w3.org/1999/xlink"><title>oceanic-plaza-piano</title><defs><path d="M73.437.347C37.061 4.416 8.847 8.792.399 10.147v74.877h73.038V.347z" id="a"/><path d="M.12 90.143h57.1V.322C36.636 2.065 17.102 4.186.12 6.252v83.891z" id="c"/><path d="M.976 94.143h73.038V.64A758.816 758.816 0 0 0 54.598.383c-17.51 0-35.686.674-53.622 1.764v91.996z" id="e"/><path d="M57.796 2.565C38.797 1.303 19.401.473.697.39V93.1h57.1V2.565z" id="g"/><path d="M73.677 8.7C54.684 6.087 28.952 2.878.639.265v85.98h73.038V8.7z" id="i"/><path d="M57.459 9.884a15.098 15.098 0 0 0-8.056-2.314S29.833 4.301.36.535v77.882h57.099V9.884z" id="k"/><path id="m" d="M491.571 25.1V.767H.001V25.1h491.57z"/><path id="o" d="M0 298h491.571V.125H0z"/></defs><g fill="none" fill-rule="evenodd"><path d="M934.574 517.618c0-8.38-6.792-15.172-15.171-15.172 0 0-108.88-18.188-199.805-18.188-90.925 0-199.803 18.188-199.803 18.188-8.38 0-15.172 6.793-15.172 15.172v60.399h429.951v-60.4z" fill="#B1DBF6"/><g transform="translate(522 491.875)"><mask id="b" fill="#fff"><use xlink:href="#a"/></mask><path fill="#E0F1FB" mask="url(#b)" d="M32.128 85.024L.399 73.01 41.707-36.1l31.73 12.014z"/></g><g transform="translate(579 487.875)"><mask id="d" fill="#fff"><use xlink:href="#c"/></mask><path fill="#E0F1FB" mask="url(#d)" d="M15.91 90.194L.12 84.216 41.43-24.893l15.79 5.978z"/></g><g transform="translate(665 483.875)"><mask id="f" fill="#fff"><use xlink:href="#e"/></mask><path fill="#E0F1FB" mask="url(#f)" d="M32.705 94.93L.976 82.915 42.284-26.193l31.73 12.013z"/></g><g transform="translate(722 483.875)"><mask id="h" fill="#fff"><use xlink:href="#g"/></mask><path fill="#E0F1FB" mask="url(#h)" d="M16.487 93.1L.697 87.122l41.31-109.11 15.79 5.979z"/></g><g transform="translate(813 488.875)"><mask id="j" fill="#fff"><use xlink:href="#i"/></mask><path fill="#E0F1FB" mask="url(#j)" d="M32.368 86.247L.639 74.234l41.308-109.11 31.73 12.014z"/></g><g transform="translate(870 494.875)"><mask id="l" fill="#fff"><use xlink:href="#k"/></mask><path fill="#E0F1FB" mask="url(#l)" d="M16.15 78.417L.36 72.44 41.669-36.67l15.79 5.978z"/></g><g transform="translate(474 453.875)"><g transform="translate(0 219)"><mask id="n" fill="#fff"><use xlink:href="#m"/></mask><path d="M491.571 12.934c0-6.72-5.448-12.167-12.166-12.167H12.167C5.447.767 0 6.214 0 12.934 0 19.653 5.447 25.1 12.167 25.1h467.238c6.718 0 12.166-5.447 12.166-12.166" fill="#B2B2B2" mask="url(#n)"/></g><mask id="p" fill="#fff"><use xlink:href="#o"/></mask><path fill="#2A5C70" mask="url(#p)" d="M30.623 231.933h429.951v-87.224H30.623z"/><path fill="#91E8FF" mask="url(#p)" d="M30.623 150.193h429.951v-21.607H30.623z"/><path fill="#91E8FF" mask="url(#p)" d="M16.042 231.933h23.395V117.054H16.042zM451.761 231.933h23.393V117.054h-23.393z"/><path d="M427.614 285.834c0-6.72-5.447-12.167-12.166-12.167H75.75c-6.72 0-12.167 5.447-12.167 12.167 0 6.719 5.447 12.166 12.167 12.166h339.698c6.72 0 12.166-5.447 12.166-12.166" fill="#B2B2B2" mask="url(#p)"/><path fill="#91E8FF" mask="url(#p)" d="M78.798 239.223h333.6V203.8h-333.6z"/><path fill="#91E8FF" mask="url(#p)" d="M78.799 285.834h20.67v-73.609h-20.67zM391.728 285.834h20.67v-73.609h-20.67z"/><path d="M419.899 193.18a3.859 3.859 0 0 0-3.86-3.858H75.159a3.859 3.859 0 0 0-3.86 3.859v21.238a3.86 3.86 0 0 0 3.86 3.86h340.881a3.86 3.86 0 0 0 3.86-3.86V193.18zM302.432 96.304h36.333V52.753h-36.333z" fill="#FFF" mask="url(#p)"/><path fill="#323232" mask="url(#p)" d="M306.015 59.286h29.167v-2.85h-29.167zM306.015 64.939h29.167V62.09h-29.167zM306.015 70.593h29.167v-2.849h-29.167zM306.015 76.248h29.167v-2.85h-29.167zM306.015 81.902h29.167v-2.85h-29.167zM306.015 87.555h29.167v-2.849h-29.167zM306.015 93.209h29.167V90.36h-29.167z"/><path fill="#FFF" mask="url(#p)" d="M118.639 104.093h36.333V60.542h-36.333z"/><path fill="#323232" mask="url(#p)" d="M122.222 67.075h29.167v-2.85h-29.167zM122.222 72.728h29.167v-2.849h-29.167zM122.222 78.382h29.167v-2.849h-29.167zM122.222 84.037h29.167v-2.85h-29.167zM122.222 89.691h29.167v-2.85h-29.167zM122.222 95.344h29.167v-2.849h-29.167zM122.222 100.999h29.167V98.15h-29.167z"/><path d="M481.087 100.163a3.859 3.859 0 0 0-3.859-3.859H13.97a3.859 3.859 0 0 0-3.86 3.86v24.562a3.86 3.86 0 0 0 3.86 3.86h462.866a4.25 4.25 0 0 0 4.251-4.252v-24.17z" fill="#28D2FF" mask="url(#p)"/><path d="M442.599 118.585H47.089v-4.422a3.859 3.859 0 0 1 3.86-3.859h387.79a3.859 3.859 0 0 1 3.86 3.859v4.422z" fill="#000" mask="url(#p)"/><path d="M457.089 122.502c0-2.162-1.728-3.916-3.86-3.916H36.458c-2.131 0-3.858 1.754-3.858 3.916v6.084h424.49v-6.084z" fill="#FFF" mask="url(#p)"/></g></g></svg>