<svg width="1440" height="752" viewBox="0 0 1440 752" xmlns="http://www.w3.org/2000/svg" xmlns:xlink="http://www.w3.org/1999/xlink"><title>orpheum-piano</title><defs><path d="M16.574 66.587V15.81C16.574 7.43 9.782.638 1.403.638H.935v65.95h15.639z" id="a"/></defs><g fill="none" fill-rule="evenodd"><path d="M934.574 509.527c0-8.38-6.793-15.172-15.17-15.172H519.794c-8.38 0-15.172 6.793-15.172 15.172v60.399h429.951v-60.4z" fill="#2A5C70"/><path d="M921.883 570.004H517.805v-51.552c0-7.152 6.384-12.95 14.259-12.95h375.56c7.875 0 14.259 5.798 14.259 12.95v51.552zm-10.426-68.487H528.232c-8.036 0-14.55 6.514-14.55 14.55v57.923h412.324v-57.923c0-8.036-6.514-14.55-14.55-14.55z" fill="#FF505E"/><path d="M965.571 685.65c0-6.72-5.448-12.166-12.166-12.166H486.167c-6.72 0-12.167 5.447-12.167 12.167 0 6.719 5.447 12.166 12.167 12.166h467.238c6.718 0 12.166-5.447 12.166-12.166" fill="#B2B2A8"/><g transform="translate(918 493.717)"><mask id="b" fill="#fff"><use xlink:href="#a"/></mask><path fill="#F47739" mask="url(#b)" d="M101.238 60.117l-6.469 6.47L.935-27.245l6.47-6.472z"/></g><g><path fill="#2A5C70" d="M504.623 685.65h429.951v-87.224H504.623z"/><path fill="#DDD" d="M504.623 603.91h429.951v-21.607H504.623z"/><path fill="#DDD" d="M490.042 685.65h23.395V570.771h-23.395zM925.761 685.65h23.393V570.771h-23.393z"/><path d="M895.065 568.303H547.412c-7.276 0-13.174-5.898-13.174-13.173v-25.165c0-7.276 5.898-13.174 13.174-13.174h347.653c7.275 0 13.173 5.898 13.173 13.174v25.165c0 7.275-5.898 13.173-13.173 13.173" fill="#F292A5"/><path d="M901.614 739.551c0-6.72-5.447-12.167-12.166-12.167H549.75c-6.72 0-12.167 5.447-12.167 12.167 0 6.719 5.447 12.166 12.167 12.166h339.698c6.72 0 12.166-5.447 12.166-12.166" fill="#B2B2A8"/><path fill="#FFF" d="M552.798 692.94h333.6v-35.423h-333.6z"/><path fill="#FFF" d="M552.799 739.551h20.67v-73.609h-20.67zM865.728 739.551h20.67v-73.609h-20.67z"/><path d="M893.899 646.898a3.859 3.859 0 0 0-3.86-3.86H549.159a3.859 3.859 0 0 0-3.86 3.86v21.238a3.86 3.86 0 0 0 3.86 3.86h340.881a3.86 3.86 0 0 0 3.86-3.86v-21.238z" fill="#FFC64A"/><path fill="#FFF" d="M744.586 557.81h36.333v-43.551h-36.333z"/><path fill="#323232" d="M748.169 520.792h29.167v-2.85h-29.167zM748.169 526.445h29.167v-2.849h-29.167zM748.169 532.099h29.167v-2.849h-29.167zM748.169 537.754h29.167v-2.85h-29.167zM748.169 543.408h29.167v-2.85h-29.167zM748.169 549.061h29.167v-2.849h-29.167zM748.169 554.715h29.167v-2.849h-29.167z"/><path fill="#FFF" d="M701.432 550.021h36.333V506.47h-36.333z"/><path fill="#323232" d="M705.015 513.003h29.167v-2.85h-29.167zM705.015 518.656h29.167v-2.849h-29.167zM705.015 524.31h29.167v-2.849h-29.167zM705.015 529.965h29.167v-2.85h-29.167zM705.015 535.619h29.167v-2.85h-29.167zM705.015 541.272h29.167v-2.849h-29.167zM705.015 546.926h29.167v-2.849h-29.167z"/><path fill="#FFF" d="M655.586 550.021h36.333V506.47h-36.333z"/><path fill="#323232" d="M659.169 513.003h29.167v-2.85h-29.167zM659.169 518.656h29.167v-2.849h-29.167zM659.169 524.31h29.167v-2.849h-29.167zM659.169 529.965h29.167v-2.85h-29.167zM659.169 535.619h29.167v-2.85h-29.167zM659.169 541.272h29.167v-2.849h-29.167zM659.169 546.926h29.167v-2.849h-29.167z"/><path d="M955.087 553.88a3.859 3.859 0 0 0-3.859-3.859H487.97a3.859 3.859 0 0 0-3.86 3.86v24.562a3.86 3.86 0 0 0 3.86 3.86h462.866a4.25 4.25 0 0 0 4.251-4.252v-24.17z" fill="#DDD"/><path d="M916.599 572.302h-395.51v-4.422a3.859 3.859 0 0 1 3.86-3.859h387.79a3.859 3.859 0 0 1 3.86 3.859v4.422z" fill="#000"/><path d="M931.089 576.219c0-2.162-1.728-3.916-3.86-3.916H510.458c-2.131 0-3.858 1.754-3.858 3.916v6.084h424.49v-6.084z" fill="#FFF"/></g></g></svg>