<svg width="1440" height="752" viewBox="0 0 1440 752" xmlns="http://www.w3.org/2000/svg" xmlns:xlink="http://www.w3.org/1999/xlink"><title>orpheum</title><defs><path id="a" d="M0 832h1490.623V.911H0z"/></defs><g fill="none" fill-rule="evenodd"><path fill="#F7DCDA" d="M-.459 607.099h1440.081V-.911H-.459z"/><path fill="#2A5C70" d="M1008.36 607.099h431.262V289.151H1008.36z"/><path fill="#B1DBF6" d="M1037.611 607.099h402.011V393.977h-402.011z"/><path fill="#DDD" d="M1008.361 607.099h29.25V393.977h-29.25z"/><path fill="#C85BA2" d="M-.459 237.704h431.262V-.911H-.459z"/><path fill="#F292A5" d="M-.459 607.099h431.262V303.094H-.459z"/><path fill="#B1DBF6" d="M430.803 607.099h577.558V289.152H430.803z"/><path fill="#BFBFB2" d="M-.459 751.089h1440.081v-143.99H-.459z"/><path fill="#FFC64A" d="M572.361 592.566h266v-97.665h-266z"/><path fill="#6B6B6B" d="M586.658 607.099h237.406v-14.533H586.658z"/><path fill="#BF2F31" d="M586.658 494.901h237.406V417.72H586.658z"/><path fill="#FFC64A" d="M572.361 417.72h266v-36.088h-266z"/><path fill="#FFC64A" d="M762.361 505.928h14V399.676h-14zM634.361 505.928h14V399.676h-14z"/><path fill="#EFF9FD" d="M714.361 494.901h34v-24.679h-34z"/><path fill="#FFF" d="M851.837 606.933h17V432.144h-17zM968.837 606.933h17V432.144h-17z"/><path fill="#FFF" d="M851.837 447.959h117v-15.816h-117z"/><path fill="#6CC4EB" d="M868.361 607.099h88.953V448.125h-88.953z"/><path fill="#6CC4EB" d="M868.361 607.099h88.953V448.125h-88.953z"/><path fill="#FFF" d="M931.694 546.997h11.333v-34h-11.333z"/><path fill="#A57AB4" d="M430.803 198.015h577.558V-.911H430.803z"/><path fill="#B8A2A1" d="M-.459 303.094h431.262v-65.39H-.459z"/><path fill="#B57A7C" d="M-.459 546.997h277.943V381.631H-.459z"/><path fill="#B1DBF6" d="M122.991 546.997h154.492v-106.78H122.991zM-51 546.997h154.492v-106.78H-51z"/><g transform="translate(-51 -80.911)"><path d="M36.628 504.886h290.73a3.137 3.137 0 0 0 3.128-3.128 3.137 3.137 0 0 0-3.128-3.127H36.628a3.137 3.137 0 0 0-3.128 3.127 3.137 3.137 0 0 0 3.128 3.128zM36.628 488.719h290.73a3.137 3.137 0 0 0 3.128-3.128 3.137 3.137 0 0 0-3.128-3.127H36.628a3.137 3.137 0 0 0-3.128 3.127 3.137 3.137 0 0 0 3.128 3.127" fill="#FF505E"/><mask id="b" fill="#fff"><use xlink:href="#a"/></mask><path fill="#FFF" mask="url(#b)" d="M452.552 368.651h636.059V275.96H452.552z"/><path fill="#ECE3D2" mask="url(#b)" d="M452.552 384.005h636.059v-15.354H452.552zM452.552 283.637h636.059v-15.354H452.552z"/><path fill="#7F9DA9" mask="url(#b)" d="M1059.361 474.887h431.262v-31.498h-431.262z"/><path fill="#FFF" mask="url(#b)" d="M1045.655 384.005H481.803V688.01h41.119V411.417h495.32V688.01h41.119V384.005z"/><path d="M770.582 96.268c36.02 0 65.22 29.2 65.22 65.221v86.91H705.362v-86.91c0-36.021 29.2-65.221 65.22-65.221M332.659 280.319h88.82v-88.82h-88.82zM332.659 154.325h88.82v-88.82h-88.82zM202.824 280.319h88.82v-88.82h-88.82zM202.824 154.325h88.82v-88.82h-88.82zM11.675 280.319h88.82v-88.82h-88.82zM11.675 154.325h88.82v-88.82h-88.82z" fill="#7C5C87" mask="url(#b)"/><path d="M41.79.911h94.91c5.11 0 9.292 4.181 9.292 9.291v272.404c0 5.11-4.181 9.29-9.291 9.29H41.79c-5.11 0-9.291-4.18-9.291-9.29V10.202c0-5.11 4.18-9.29 9.29-9.29" fill="#F292A5" mask="url(#b)"/><path d="M55.395 13.882h67.702c5.11 0 9.29 4.181 9.29 9.291v246.462c0 5.11-4.18 9.291-9.29 9.291H55.395c-5.11 0-9.291-4.18-9.291-9.29V23.172c0-5.11 4.18-9.29 9.29-9.29z" stroke="#FF505E" stroke-width="6" mask="url(#b)"/><path d="M98.505 258.899h-18.52c-6.068 0-10.988-4.92-10.988-10.99V44.899c0-6.068 4.92-10.99 10.989-10.99h18.519c6.069 0 10.99 4.922 10.99 10.99v203.01c0 6.07-4.921 10.99-10.99 10.99" fill="#FFF" mask="url(#b)"/><path d="M141.623 724.889c0-7.107 5.762-12.87 12.869-12.87 7.109 0 12.87 5.763 12.87 12.87h-25.74zM351.33 770.35c0-7.107 5.762-12.869 12.869-12.869 7.108 0 12.87 5.762 12.87 12.87h-25.74z" fill="#8F8F85" mask="url(#b)"/><path d="M827.491 763.916c0-7.107 5.762-12.87 12.87-12.87 7.107 0 12.87 5.763 12.87 12.87h-25.74z" fill="#FFF" mask="url(#b)"/><path d="M1310.491 724.889c0-7.107 5.762-12.87 12.87-12.87s12.87 5.763 12.87 12.87h-25.74z" fill="#8F8F85" mask="url(#b)"/><path d="M1399.621 743.133c0-7.107 5.762-12.87 12.87-12.87s12.87 5.763 12.87 12.87h-25.74z" fill="#FFF" mask="url(#b)"/></g></g></svg>