<svg width="1440" height="752" viewBox="0 0 1440 752" xmlns="http://www.w3.org/2000/svg"><title>phantom-piano</title><g fill="none" fill-rule="evenodd"><path d="M889.026 707.776H547.934c-6.747 0-12.217 5.468-12.217 12.215 0 6.746 5.47 12.214 12.217 12.214h341.092c6.748 0 12.217-5.468 12.217-12.214 0-6.747-5.47-12.215-12.217-12.215M956.439 653.739H484.861c-6.747 0-12.218 5.468-12.218 12.214 0 6.745 5.47 12.213 12.218 12.213H956.44c6.749 0 12.218-5.468 12.218-12.213 0-6.746-5.47-12.214-12.218-12.214" fill="#888"/><path d="M935.263 488.741c0-8.411-6.82-15.23-15.233-15.23H518.78c-8.413 0-15.233 6.819-15.233 15.23v60.633h431.716v-60.633" fill="#B73F13"/><path d="M622.677 485.672h36.482v43.72h-36.482v-43.72z" fill="#FFF"/><path d="M626.274 489.37h29.286v2.86h-29.286v-2.86zM626.274 495.046h29.286v2.86h-29.286v-2.86zM626.274 500.722h29.286v2.86h-29.286v-2.86zM626.274 506.397h29.286v2.861h-29.286v-2.86zM626.274 512.073h29.286v2.861h-29.286v-2.86zM626.274 517.75h29.286v2.86h-29.286v-2.86zM626.274 523.425h29.286v2.86h-29.286v-2.86z" fill="#323232"/><path d="M503.547 583.49h431.716v82.055H503.547V583.49z" fill="#B73F13"/><path d="M503.547 561.799h431.716v21.69H503.547V561.8z" fill="#F4541A"/><path d="M488.906 550.222h23.49v115.324h-23.49V550.222zM926.414 550.222h23.49v115.324h-23.49V550.222z" fill="#F4541A"/><path d="M955.86 533.266a3.874 3.874 0 0 0-3.875-3.874h-465.16a3.874 3.874 0 0 0-3.876 3.874v24.66a3.874 3.874 0 0 0 3.875 3.873h464.767c2.359 0 4.27-1.91 4.27-4.268v-24.265" fill="#F4541A"/><path d="M917.215 551.76H520.08v-4.44a3.874 3.874 0 0 1 3.875-3.874H913.34a3.875 3.875 0 0 1 3.876 3.874v4.44" fill="#000"/><path d="M931.764 555.691c0-2.17-1.735-3.93-3.875-3.93H509.405c-2.14 0-3.875 1.76-3.875 3.93v6.108h426.234v-6.108" fill="#FFF"/><path d="M551.92 637.304h334.97v35.56H551.92v-35.56z" fill="#F4541A"/><path d="M551.92 645.762h20.755v73.894h-20.754v-73.894zM866.135 645.762h20.755v73.894h-20.755v-73.894z" fill="#F4541A"/><path d="M894.42 626.644a3.875 3.875 0 0 0-3.875-3.875h-342.28a3.875 3.875 0 0 0-3.875 3.875v21.32a3.874 3.874 0 0 0 3.875 3.874h342.28a3.874 3.874 0 0 0 3.875-3.874v-21.32" fill="#FFF"/></g></svg>