<svg width="1440" height="752" viewBox="0 0 1440 752" xmlns="http://www.w3.org/2000/svg"><title>phantom-blue-piano</title><g fill="none" fill-rule="evenodd"><path d="M900.645 719.117c0-6.738-5.459-12.2-12.19-12.2H548.048c-6.734 0-12.193 5.462-12.193 12.2 0 6.737 5.459 12.2 12.193 12.2h340.405c6.732 0 12.191-5.463 12.191-12.2M967.923 665.144c0-6.738-5.458-12.199-12.193-12.199H485.104c-6.735 0-12.193 5.461-12.193 12.2 0 6.736 5.458 12.198 12.193 12.198H955.73c6.735 0 12.193-5.462 12.193-12.199" fill="#C7C7C4"/><path d="M934.597 488.147c0-8.4-6.806-15.212-15.203-15.212h-400.44c-8.397 0-15.203 6.811-15.203 15.212v60.56h430.846v-60.56" fill="#4B769D"/><path d="M855.291 485.082H891.7v43.667H855.29v-43.667z" fill="#FFF"/><path d="M858.88 488.775h29.23v2.858h-29.23v-2.858zM858.88 494.444h29.23v2.857h-29.23v-2.857zM858.88 500.113h29.23v2.857h-29.23v-2.857zM858.88 505.782h29.23v2.858h-29.23v-2.858zM858.88 511.451h29.23v2.858h-29.23v-2.858zM858.88 517.12h29.23v2.857h-29.23v-2.857zM858.88 522.79h29.23v2.856h-29.23v-2.857z" fill="#323232"/><path d="M503.75 582.781h430.847v81.956H503.75v-81.956z" fill="#163F63"/><path d="M503.75 561.117h430.847v21.664H503.75v-21.664z" fill="#4B769D"/><path d="M489.14 549.554h23.443v115.184H489.14V549.554zM925.766 549.554h23.441v115.184h-23.441V549.554z" fill="#4B769D"/><path d="M955.153 532.618c0-2.137-1.731-3.869-3.867-3.869H487.063a3.867 3.867 0 0 0-3.867 3.87v24.628c0 2.137 1.73 3.87 3.867 3.87h463.829a4.261 4.261 0 0 0 4.26-4.264v-24.235" fill="#235F8D"/><path d="M916.584 551.09H520.251v-4.435a3.868 3.868 0 0 1 3.868-3.869h388.598a3.868 3.868 0 0 1 3.867 3.87v4.433" fill="#000"/><path d="M931.105 555.017c0-2.168-1.732-3.927-3.867-3.927h-417.64c-2.135 0-3.867 1.759-3.867 3.927v6.1h425.374v-6.1" fill="#FFF"/><path d="M552.027 636.53h334.295v35.518H552.027V636.53z" fill="#4B769D"/><path d="M552.027 644.978h20.713v73.804h-20.713v-73.804zM865.609 644.978h20.713v73.804h-20.713v-73.804z" fill="#4B769D"/><path d="M893.837 625.883a3.869 3.869 0 0 0-3.868-3.87H548.38a3.869 3.869 0 0 0-3.868 3.87v21.295a3.868 3.868 0 0 0 3.868 3.869h341.59a3.868 3.868 0 0 0 3.868-3.87v-21.294" fill="#235F8D"/></g></svg>