<svg width="1440" height="752" viewBox="0 0 1440 752" xmlns="http://www.w3.org/2000/svg"><title>random-park</title><g fill="none" fill-rule="evenodd"><path d="M0 0h1440v664.629H0V0z" fill="#28D2FF"/><path d="M307.155 649.63c0-22.367 18.132-40.499 40.499-40.499s40.499 18.132 40.499 40.499-18.132 40.499-40.499 40.499-40.499-18.132-40.499-40.499" fill="#3B9F86"/><path d="M229.159 649.63c0-22.367 18.132-40.499 40.499-40.499s40.499 18.132 40.499 40.499-18.132 40.499-40.499 40.499-40.499-18.132-40.499-40.499" fill="#3B9F86"/><path d="M286.156 594.133c0-22.367 18.132-40.499 40.499-40.499 22.368 0 40.499 18.132 40.499 40.499s-18.131 40.499-40.499 40.499c-22.367 0-40.499-18.132-40.499-40.499" fill="#3B9F86"/><path d="M254.668 634.632c0-22.367 18.131-40.499 40.499-40.499 22.367 0 40.499 18.132 40.499 40.499s-18.132 40.499-40.499 40.499c-22.368 0-40.499-18.132-40.499-40.499M166.163 634.632c0-22.367 18.131-40.499 40.499-40.499 22.367 0 40.499 18.132 40.499 40.499s-18.132 40.499-40.499 40.499c-22.368 0-40.499-18.132-40.499-40.499" fill="#3B9F86"/><path d="M74.667 624.133c0-33.137 26.862-59.998 59.999-59.998 33.136 0 59.998 26.861 59.998 59.998 0 33.135-26.862 59.997-59.998 59.997-33.137 0-59.999-26.862-59.999-59.997M80.979 476.898c0-33.793 27.394-61.188 61.188-61.188 33.793 0 61.188 27.395 61.188 61.188 0 33.794-27.395 61.188-61.188 61.188-33.794 0-61.188-27.394-61.188-61.188" fill="#3B9F86"/><path d="M73.577 543.134c0-32.083 26.007-58.09 58.09-58.09s58.09 26.007 58.09 58.09-26.007 58.09-58.09 58.09-58.09-26.007-58.09-58.09" fill="#3B9F86"/><path d="M167.438 556.208c0-39.411 31.949-71.359 71.359-71.359 39.411 0 71.36 31.948 71.36 71.359 0 39.411-31.949 71.359-71.36 71.359-39.41 0-71.359-31.948-71.359-71.359M.07 394.592C.07 358.366 29.437 329 65.662 329c36.226 0 65.592 29.366 65.592 65.592 0 36.225-29.366 65.591-65.592 65.591-36.225 0-65.592-29.366-65.592-65.591" fill="#3B9F86"/><path d="M.07 394.592h103.716v276.036H.07V394.592z" fill="#3B9F86"/><path d="M57.93 553.925c0-15.997-12.968-28.965-28.965-28.965S0 537.928 0 553.925s12.968 28.965 28.965 28.965 28.965-12.968 28.965-28.965" fill="#3B8186"/><path d="M0 553.925h57.93v110.299H0V553.925z" fill="#3B8186"/><path d="M124.43 575.892c0 20.813-16.872 37.685-37.685 37.685-20.812 0-37.684-16.872-37.684-37.685 0-20.812 16.872-37.684 37.684-37.684 20.813 0 37.685 16.872 37.685 37.684" fill="#3B8186"/><path d="M151.665 617.373c0 14.212-11.521 25.733-25.733 25.733s-25.733-11.521-25.733-25.733 11.521-25.733 25.733-25.733 25.733 11.521 25.733 25.733" fill="#3B8186"/><path d="M174.338 650.87c0 12.03-9.752 21.783-21.782 21.783-12.031 0-21.783-9.753-21.783-21.783 0-12.03 9.752-21.783 21.783-21.783 12.03 0 21.782 9.753 21.782 21.783" fill="#3B8186"/><path d="M40.93 634.632h111.626v29.313H40.93v-29.313z" fill="#3B8186"/><path d="M40.93 601.224h79V642h-79v-40.776zM174.409 650.87c0 12.03-9.753 21.783-21.783 21.783-12.03 0-21.783-9.753-21.783-21.783 0-12.03 9.753-21.783 21.783-21.783 12.03 0 21.783 9.753 21.783 21.783" fill="#3B8186"/><path d="M.07 606.36h44.855v63.549H.07V606.36z" fill="#A9D163"/><path d="M44.925 606.36c0 12.386-10.042 22.426-22.428 22.426C10.11 628.786.07 618.746.07 606.36s10.04-22.428 22.427-22.428c12.386 0 22.428 10.042 22.428 22.428" fill="#A9D163"/><path d="M64.083 629.798c0 7.185-5.825 13.012-13.011 13.012-7.186 0-13.011-5.827-13.011-13.012 0-7.185 5.825-13.012 13.011-13.012 7.186 0 13.011 5.827 13.011 13.012" fill="#A9D163"/><path d="M91.094 658.814c0 14.645-11.872 26.517-26.517 26.517-14.644 0-26.516-11.872-26.516-26.517 0-14.644 11.872-26.517 26.516-26.517 14.645 0 26.517 11.873 26.517 26.517" fill="#A9D163"/><path d="M1181 619.565c0-24.525-19.882-44.406-44.406-44.406-24.526 0-44.407 19.881-44.407 44.406 0 24.526 19.881 44.407 44.407 44.407 24.524 0 44.406-19.881 44.406-44.407" fill="#3B9F86"/><path d="M1110.644 644.534c0-16.924-13.719-30.643-30.644-30.643-16.925 0-30.644 13.719-30.644 30.643s13.719 30.643 30.644 30.643c16.925 0 30.644-13.719 30.644-30.643M1229.153 569.491c0-22.621-18.337-40.958-40.959-40.958-22.622 0-40.959 18.337-40.959 40.958s18.337 40.958 40.959 40.958c22.622 0 40.959-18.337 40.959-40.958" fill="#3B9F86"/><path d="M1300.806 570.295c0-22.621-18.337-40.959-40.959-40.959-22.622 0-40.959 18.338-40.959 40.959 0 22.621 18.337 40.958 40.959 40.958 22.622 0 40.959-18.337 40.959-40.958" fill="#3B9F86"/><path d="M1440.081 529.337c0-43.218-35.033-78.253-78.253-78.253-43.221 0-78.254 35.035-78.254 78.253 0 43.217 35.033 78.251 78.254 78.251 43.22 0 78.253-35.034 78.253-78.251" fill="#3B9F86"/><path d="M1170 564.135h270.081v100.494H1170V564.135z" fill="#3B9F86"/><path d="M1083.004 625.631h357.077v59.7h-357.077v-59.7z" fill="#3B9F86"/><path d="M1321.903 664.215c0-15.498-12.563-28.061-28.06-28.061-15.497 0-28.061 12.563-28.061 28.061 0 15.497 12.564 28.06 28.061 28.06s28.06-12.563 28.06-28.06" fill="#3B8186"/><path d="M1363.843 529.337h76.238v94.22h-76.238v-94.22z" fill="#3B9F86"/><path d="M1364.653 624.133c0-20.119-16.31-36.429-36.427-36.429-20.119 0-36.429 16.31-36.429 36.429 0 20.118 16.31 36.427 36.429 36.427 20.117 0 36.427-16.309 36.427-36.427M1380 556.872h60.081V681.32H1380V556.872z" fill="#3B8186"/><path d="M1374.13 561.157c0-18.212 14.764-32.976 32.975-32.976 18.212 0 32.976 14.764 32.976 32.976s-14.764 32.976-32.976 32.976c-18.211 0-32.975-14.764-32.975-32.976" fill="#3B8186"/><path d="M1388.558 588.56c0-11.599-9.403-21-21-21-11.598 0-21 9.401-21 21 0 11.597 9.402 21 21 21 11.597 0 21-9.403 21-21" fill="#3B8186"/><path d="M1317 603.39h90.105v61.239H1317V603.39z" fill="#3B8186"/><path d="M1409 642.433h31v28.194h-31v-28.194z" fill="#A9D163"/><path d="M1440 642c0 8.56-6.939 15.5-15.5 15.5s-15.5-6.94-15.5-15.5c0-8.561 6.939-15.5 15.5-15.5s15.5 6.939 15.5 15.5" fill="#A9D163"/><path d="M1361 652.714c0-14.36 11.641-26 26-26s26 11.64 26 26c0 14.359-11.641 26-26 26s-26-11.641-26-26" fill="#A9D163"/><path d="M1440 437.138c0-15.74-12.76-28.5-28.5-28.5s-28.5 12.76-28.5 28.5 12.76 28.5 28.5 28.5 28.5-12.76 28.5-28.5" fill="#3B9F86"/><path d="M1401.962 437.138H1440V526h-38.038v-88.862z" fill="#3B9F86"/><path d="M451.87 697c0-7.108-5.762-12.87-12.87-12.87s-12.87 5.762-12.87 12.87" fill="#FFF"/><path d="M340.019 672.407a6.306 6.306 0 1 1-12.613 0v-20.385a6.306 6.306 0 0 1 12.613 0v20.385" fill="#3B8186"/><path d="M328.489 666.282a6.306 6.306 0 1 1-12.613 0v-20.385a6.306 6.306 0 0 1 6.307-6.306 6.306 6.306 0 0 1 6.306 6.306v20.385" fill="#A9D163"/><path d="M323.849 664.163a6.305 6.305 0 0 1 0 8.918 6.305 6.305 0 0 1-8.919 0l-14.414-14.413a6.307 6.307 0 1 1 8.919-8.919l14.414 14.414" fill="#A9D163"/><path d="M1231.02 672.407a6.308 6.308 0 0 1-12.614 0v-20.385a6.307 6.307 0 0 1 12.614 0v20.385" fill="#3B8186"/><path d="M1219.488 666.282a6.306 6.306 0 0 1-12.612 0v-20.385a6.306 6.306 0 1 1 12.612 0v20.385" fill="#A9D163"/><path d="M1214.849 664.163a6.304 6.304 0 0 1 .001 8.918 6.306 6.306 0 0 1-8.92 0l-14.414-14.413a6.307 6.307 0 1 1 8.919-8.919l14.414 14.414" fill="#A9D163"/><path d="M496.808 642.591a6.28 6.28 0 0 0-4.36 1.757v29.484a6.28 6.28 0 0 0 4.36 1.757 6.306 6.306 0 0 0 6.306-6.307v-20.385a6.306 6.306 0 0 0-6.306-6.306" fill="#C1BBA9"/><path d="M494.448 666.282a6.306 6.306 0 1 1-12.613 0v-20.385a6.306 6.306 0 0 1 6.307-6.306 6.306 6.306 0 0 1 6.306 6.306v20.385" fill="#3B9F86"/><path d="M489.808 664.163a6.305 6.305 0 0 1 0 8.918 6.305 6.305 0 0 1-8.919 0l-14.414-14.413a6.307 6.307 0 1 1 8.919-8.919l14.414 14.414M943.253 666.282a6.306 6.306 0 1 0 12.612 0v-20.385a6.306 6.306 0 1 0-12.612 0v20.385" fill="#3B9F86"/><path d="M947.893 664.163a6.304 6.304 0 0 0-.001 8.918 6.306 6.306 0 0 0 8.92 0l14.414-14.413a6.308 6.308 0 0 0 0-8.919 6.305 6.305 0 0 0-8.919 0l-14.414 14.414" fill="#3B9F86"/><path d="M0 664.224h1440.081V752H0v-87.776zM1250.251 593.67c-6.931-6.932-5.319-19.778-5.319-19.778s12.847-1.613 19.778 5.318c6.932 6.93 5.319 19.779 5.319 19.779s-12.847 1.611-19.778-5.319" fill="#A9D163"/><path d="M1310.96 710.229c-6.932 6.931-19.779 5.319-19.779 5.319s-1.613-12.848 5.319-19.779c6.93-6.93 19.779-5.319 19.779-5.319s1.611 12.848-5.319 19.779" fill="#3B9F86"/><path d="M1209.593 606.088c-9.803-.001-17.747-10.224-17.747-10.224s7.944-10.225 17.747-10.225c9.801 0 17.746 10.225 17.746 10.225s-7.945 10.223-17.746 10.224" fill="#3B8186"/><path d="M216.397 578.451c-6.932 6.931-19.779 5.319-19.779 5.319s-1.613-12.848 5.319-19.779c6.93-6.931 19.779-5.318 19.779-5.318s1.611 12.847-5.319 19.778M253.716 596.726c-9.803 0-17.748-10.224-17.748-10.224s7.945-10.226 17.747-10.225c9.801-.001 17.746 10.225 17.746 10.225s-7.944 10.224-17.745 10.224" fill="#A9D163"/><path d="M237.17 633.166c-6.932-6.933-5.319-19.779-5.319-19.779s12.847-1.613 19.778 5.319c6.931 6.93 5.319 19.778 5.319 19.778s-12.847 1.612-19.778-5.318" fill="#3B8186"/><path d="M134.88 706.789c-9.803-.002-17.747-10.225-17.747-10.225s7.944-10.225 17.747-10.225c9.8 0 17.746 10.225 17.746 10.225s-7.945 10.223-17.746 10.225" fill="#3B9F86"/><path d="M1110.869 702.999c0-7.107-5.762-12.87-12.869-12.87s-12.869 5.763-12.869 12.87" fill="#FFF"/><path d="M1013.945 718.125c0-7.108-5.761-12.87-12.869-12.87s-12.87 5.762-12.87 12.87" fill="#3B9F86"/><path d="M414 340.645c0 13.255-10.745 23.999-23.999 23.999H275.113c-13.254 0-23.998-10.744-23.998-23.999 0-13.254 10.744-23.998 23.998-23.998h114.888c13.254 0 23.999 10.744 23.999 23.998" fill="#D7F4FF"/><path d="M486.002 379.821c0 8.934-7.243 16.177-16.177 16.177H330.252c-8.934 0-16.177-7.242-16.177-16.177 0-8.935 7.243-16.178 16.177-16.178h139.573c8.934 0 16.177 7.243 16.177 16.178" fill="#D7F4FF"/><path d="M372.002 379.821c0 8.935-7.243 16.177-16.177 16.177h-40.979c-8.934 0-16.177-7.242-16.177-16.177 0-8.934 7.242-16.178 16.177-16.178h40.978c8.935 0 16.178 7.244 16.178 16.178" fill="#FFF"/><path d="M351.608 340.645c0 13.255-10.744 23.999-23.999 23.999h-52.496c-13.254 0-23.998-10.744-23.998-23.999 0-13.254 10.744-23.998 23.998-23.998h52.496c13.255 0 23.999 10.744 23.999 23.998M236.167 380.5c0-7.456-6.044-13.5-13.5-13.5s-13.5 6.044-13.5 13.5 6.044 13.5 13.5 13.5 13.5-6.044 13.5-13.5" fill="#FFF"/><path d="M442 227c0 9.941-8.059 18-18 18h-54.392c-9.94 0-18-8.059-18-18 0-9.942 8.06-18 18-18H424c9.941 0 18 8.058 18 18" fill="#D7F4FF"/><path d="M402 227c0 9.941-8.059 18-18 18h-14.392c-9.94 0-18-8.059-18-18 0-9.942 8.06-18 18-18H384c9.941 0 18 8.058 18 18" fill="#FFF"/><path d="M398.682 256.649c0 8.706-7.058 15.763-15.764 15.763s-15.764-7.057-15.764-15.763 7.058-15.763 15.764-15.763 15.764 7.057 15.764 15.763" fill="#FFF"/><path d="M1108.502 394.592c0 8.705-7.058 15.763-15.764 15.763h-39.739c-8.706 0-15.764-7.058-15.764-15.763 0-8.706 7.058-15.764 15.764-15.764h39.739c8.706 0 15.764 7.058 15.764 15.764" fill="#D7F4FF"/><path d="M1200 428.39c0 12.012-9.737 21.749-21.749 21.749h-149.426c-12.012 0-21.749-9.737-21.749-21.749 0-12.011 9.737-21.748 21.749-21.748h149.426c12.012 0 21.749 9.737 21.749 21.748" fill="#D7F4FF"/><path d="M1094.071 428.39c0 12.012-9.737 21.749-21.749 21.749h-43.497c-12.012 0-21.749-9.737-21.749-21.749 0-12.011 9.737-21.748 21.749-21.748h43.497c12.012 0 21.749 9.737 21.749 21.748" fill="#FFF"/><path d="M1068.763 394.591c0 8.707-7.058 15.764-15.764 15.764s-15.764-7.057-15.764-15.764c0-8.706 7.058-15.763 15.764-15.763s15.764 7.057 15.764 15.763" fill="#FFF"/><path d="M1238.063 465.889c0 8.699-7.051 15.75-15.75 15.75h-79.494c-8.698 0-15.75-7.051-15.75-15.75s7.052-15.75 15.75-15.75h79.494c8.699 0 15.75 7.051 15.75 15.75" fill="#D7F4FF"/><path d="M1127.069 465.889c0-8.699 7.052-15.75 15.75-15.75h11.431c8.698 0 15.75 7.051 15.75 15.75s-7.052 15.75-15.75 15.75h-11.431c-8.698 0-15.75-7.051-15.75-15.75M1069.862 498.139c0-7.34-5.95-13.29-13.29-13.29-7.34 0-13.29 5.95-13.29 13.29 0 7.34 5.95 13.29 13.29 13.29 7.34 0 13.29-5.95 13.29-13.29" fill="#FFF"/><path d="M1363.843 160.829c0 9.526-7.723 17.249-17.249 17.249H1220.6c-9.527 0-17.249-7.723-17.249-17.249 0-9.527 7.722-17.249 17.249-17.249h125.994c9.526 0 17.249 7.722 17.249 17.249" fill="#D7F4FF"/><path d="M1160.829 193c0 8.792 7.129 15.921 15.922 15.921h84.174c8.793 0 15.922-7.129 15.922-15.921 0-8.795-7.129-15.923-15.922-15.923h-84.174c-8.793 0-15.922 7.128-15.922 15.923" fill="#D7F4FF"/><path d="M1208.77 193c0 8.793-7.129 15.921-15.922 15.921h-21.582c-8.793 0-15.922-7.128-15.922-15.921 0-8.794 7.129-15.922 15.922-15.922h21.582c8.793 0 15.922 7.128 15.922 15.922M1236.137 160.829c0 9.526-7.723 17.249-17.249 17.249-9.527 0-17.249-7.723-17.249-17.249 0-9.527 7.722-17.249 17.249-17.249 9.526 0 17.249 7.722 17.249 17.249" fill="#FFF"/><path d="M1113.884 194c0-8.772-7.112-15.884-15.884-15.884s-15.884 7.112-15.884 15.884c0 8.773 7.112 15.884 15.884 15.884s15.884-7.111 15.884-15.884" fill="#D7F4FF"/></g></svg>