<svg width="1440" height="752" viewBox="0 0 1440 752" xmlns="http://www.w3.org/2000/svg"><title>robson-park-piano</title><g fill="none" fill-rule="evenodd"><path d="M900.495 719.117c0-6.738-5.46-12.2-12.192-12.2H547.899c-6.734 0-12.194 5.462-12.194 12.2 0 6.737 5.46 12.2 12.194 12.2h340.404c6.733 0 12.192-5.463 12.192-12.2M967.772 665.143c0-6.738-5.459-12.198-12.191-12.198H484.953c-2.525 0-4.871.768-6.817 2.083a12.19 12.19 0 0 0-5.376 10.115v.001c.001 6.738 5.46 12.199 12.193 12.199H955.58c2.525 0 4.87-.768 6.816-2.084a12.19 12.19 0 0 0 5.375-10.115" fill="#5AB55C"/><path d="M934.447 488.147c0-8.4-6.807-15.212-15.204-15.212H518.804c-8.396 0-15.204 6.811-15.204 15.212v60.56h430.847v-60.56" fill="#91E8FF"/><path d="M934.447 488.147c0-8.4-6.807-15.212-15.204-15.212H518.804c-8.396 0-15.204 6.811-15.204 15.212h430.847" fill="#FF7F0B"/><path d="M622.49 485.082h36.41v43.667h-36.41v-43.667z" fill="#FFF"/><path d="M626.08 488.775h29.228v2.858H626.08v-2.858zM626.08 494.444h29.228v2.857H626.08v-2.857zM626.08 500.113h29.228v2.857H626.08v-2.857zM626.08 505.782h29.228v2.858H626.08v-2.858zM626.08 511.451h29.228v2.858H626.08v-2.858zM626.08 517.12h29.228v2.857H626.08v-2.857zM626.08 522.79h29.228v2.856H626.08v-2.857z" fill="#323232"/><path d="M503.6 582.781h430.847v81.956H503.6v-81.956z" fill="#91E8FF"/><path d="M503.6 561.117h430.847v21.664H503.6v-21.664z" fill="#D1F1FF"/><path d="M488.99 549.554h23.443v115.184h-23.444V549.554zM925.615 549.554h23.443v115.184h-23.443V549.554z" fill="#D1F1FF"/><path d="M955.002 532.618a3.868 3.868 0 0 0-3.868-3.869H486.913a3.868 3.868 0 0 0-3.868 3.87v24.628a3.869 3.869 0 0 0 3.868 3.87H950.74a4.261 4.261 0 0 0 4.261-4.264v-24.235" fill="#D1F1FF"/><path d="M916.434 551.09H520.101v-4.435c0-2.137 1.73-3.869 3.867-3.869h388.598a3.868 3.868 0 0 1 3.868 3.87v4.433" fill="#000"/><path d="M930.954 555.017c0-2.168-1.731-3.927-3.867-3.927h-417.64c-2.136 0-3.867 1.759-3.867 3.927v6.1h425.374v-6.1" fill="#FFF"/><path d="M551.877 636.53H886.17v35.518H551.877V636.53z" fill="#FF7F0B"/><path d="M551.877 644.978h20.713v73.804h-20.713v-73.804zM865.457 644.978h20.713v73.804h-20.713v-73.804z" fill="#FF7F0B"/><path d="M893.686 625.883c0-2.137-1.73-3.87-3.867-3.87h-341.59a3.868 3.868 0 0 0-3.868 3.87v21.295c0 2.137 1.73 3.869 3.867 3.869h341.59a3.867 3.867 0 0 0 3.868-3.87v-21.294" fill="#D1F1FF"/></g></svg>