<svg width="1440" height="752" viewBox="0 0 1440 752" xmlns="http://www.w3.org/2000/svg"><title>robson-park</title><g fill="none" fill-rule="evenodd"><path d="M-2.475-1.251h1443.08v665.987H-2.476V-1.25z" fill="#28D2FF"/><path d="M-2.475 424.708h1442.998v12.732H-2.475v-12.732z" fill="#ECECEB"/><path d="M189.601 424.708h12.725v176.658H189.6V424.708zM451.131 424.708h12.725v176.658H451.13V424.708zM712.66 424.708h12.725v176.658h-12.724V424.708zM974.191 424.708h12.725v176.658H974.19V424.708zM1235.722 424.708h12.724v176.658h-12.724V424.708z" fill="#ECECEB"/><path d="M1208.97 103.743c0 13.29-10.766 24.063-24.048 24.063h-115.127c-13.282 0-24.05-10.773-24.05-24.063s10.768-24.063 24.05-24.063h115.127c13.282 0 24.049 10.774 24.049 24.063" fill="#D7F4FF"/><path d="M1281.123 143.022c0 8.958-7.26 16.22-16.212 16.22H1125.05c-8.953 0-16.212-7.262-16.212-16.22 0-8.959 7.259-16.22 16.212-16.22h139.862c8.953 0 16.212 7.261 16.212 16.22" fill="#D7F4FF"/><path d="M1166.886 143.023c0 8.958-7.259 16.22-16.211 16.22h-41.065c-8.953 0-16.211-7.262-16.211-16.22 0-8.959 7.258-16.22 16.21-16.22h41.065c8.953 0 16.212 7.261 16.212 16.22" fill="#FFF"/><path d="M1146.449 103.743c0 13.29-10.767 24.063-24.049 24.063h-52.605c-13.282 0-24.05-10.773-24.05-24.063s10.768-24.063 24.05-24.063h52.605c13.282 0 24.049 10.774 24.049 24.063M1030.768 143.703c0-7.476-6.057-13.536-13.528-13.536-7.472 0-13.528 6.06-13.528 13.536s6.056 13.536 13.528 13.536c7.471 0 13.528-6.06 13.528-13.536" fill="#FFF"/><path d="M444.597 288.655c0 9.967-8.076 18.048-18.038 18.048h-54.504c-9.961 0-18.037-8.08-18.037-18.048 0-9.968 8.076-18.048 18.037-18.048h54.504c9.962 0 18.038 8.08 18.038 18.048" fill="#D7F4FF"/><path d="M404.515 288.655c0 9.967-8.077 18.048-18.038 18.048h-14.422c-9.961 0-18.037-8.08-18.037-18.048 0-9.968 8.076-18.048 18.037-18.048h14.422c9.96 0 18.038 8.08 18.038 18.048" fill="#FFF"/><path d="M401.189 318.382c0 8.73-7.072 15.806-15.796 15.806-8.725 0-15.797-7.076-15.797-15.806 0-8.728 7.072-15.805 15.797-15.805 8.724 0 15.796 7.077 15.796 15.805" fill="#FFF"/><path d="M357.026 119.306c0 9.554-7.74 17.296-17.285 17.296H213.485c-9.547 0-17.285-7.742-17.285-17.296 0-9.55 7.738-17.293 17.285-17.293H339.74c9.546 0 17.285 7.743 17.285 17.293" fill="#D7F4FF"/><path d="M153.59 151.564c0 8.816 7.143 15.964 15.954 15.964h84.35c8.811 0 15.955-7.148 15.955-15.964 0-8.819-7.144-15.964-15.955-15.964h-84.35c-8.81 0-15.955 7.145-15.955 15.964" fill="#D7F4FF"/><path d="M201.63 151.564c0 8.816-7.144 15.964-15.955 15.964h-21.627c-8.811 0-15.955-7.148-15.955-15.964 0-8.817 7.144-15.964 15.955-15.964h21.627c8.811 0 15.955 7.147 15.955 15.964M229.054 119.308c0 9.552-7.739 17.294-17.285 17.294-9.547 0-17.285-7.742-17.285-17.294s7.738-17.295 17.285-17.295c9.546 0 17.285 7.743 17.285 17.295" fill="#FFF"/><path d="M106.547 152.566c0-8.794-7.126-15.925-15.917-15.925-8.79 0-15.918 7.131-15.918 15.925 0 8.798 7.127 15.928 15.918 15.928 8.79 0 15.917-7.13 15.917-15.928" fill="#D7F4FF"/><path d="M-2.475 601.367h1443.08v151.38H-2.476v-151.38z" fill="#A9D163"/><path d="M1367.124 616.367c0-9.641-7.812-17.457-17.448-17.457s-17.447 7.816-17.447 17.457c0 9.643 7.811 17.458 17.447 17.458s17.448-7.815 17.448-17.458" fill="#5AB55C"/><path d="M1393.705 591.431c0-12.516-10.141-22.663-22.65-22.663-12.51 0-22.65 10.147-22.65 22.663 0 12.517 10.14 22.663 22.65 22.663 12.509 0 22.65-10.146 22.65-22.663M1403.247 549.586h37.356v64.508h-37.356v-64.508z" fill="#5AB55C"/><path d="M1399.597 552.252c0-11.33 9.18-20.515 20.504-20.515 11.323 0 20.502 9.184 20.502 20.515 0 11.33-9.179 20.516-20.502 20.516-11.324 0-20.504-9.186-20.504-20.516" fill="#5AB55C"/><path d="M1408.568 569.3c0-7.216-5.847-13.064-13.058-13.064-7.21 0-13.057 5.848-13.057 13.064 0 7.214 5.847 13.065 13.057 13.065 7.211 0 13.058-5.85 13.058-13.065" fill="#5AB55C"/><path d="M1364.075 578.526h56.026v38.099h-56.026v-38.1z" fill="#5AB55C"/><path d="M1421.278 602.817h19.275v17.54h-19.275v-17.54z" fill="#A9D163"/><path d="M1440.553 602.546c0 5.327-4.314 9.644-9.637 9.644s-9.638-4.317-9.638-9.644c0-5.325 4.315-9.642 9.638-9.642 5.323 0 9.637 4.317 9.637 9.642" fill="#A9D163"/><path d="M1391.433 609.213c0-8.934 7.238-16.176 16.167-16.176 8.927 0 16.165 7.242 16.165 16.176 0 8.933-7.238 16.175-16.165 16.175-8.929 0-16.167-7.242-16.167-16.175" fill="#A9D163"/><path d="M1357.78 620.357c0-11.285 9.141-20.432 20.42-20.432 11.276 0 20.419 9.147 20.419 20.432 0 11.284-9.143 20.43-20.42 20.43-11.278 0-20.42-9.146-20.42-20.43" fill="#A9D163"/><path d="M208.496 481.075c0-6.708-5.434-12.145-12.137-12.145-6.704 0-12.137 5.437-12.137 12.145v155.824h24.274V481.075" fill="#9A7459"/><path d="M314.065 422.293c0 57.318-47.12 103.785-105.247 103.785-58.124 0-105.246-46.467-105.246-103.785v-.51c0-57.317 47.121-103.784 105.246-103.785 58.127 0 105.247 46.468 105.247 103.786v.509" fill="#5AB55C"/><path d="M200.473 540.837c-7.315-.501-13.047-6.146-13.91-13.164-3.537 6.116-11.042 9.054-17.956 6.638-6.925-2.427-10.953-9.415-9.901-16.414-5.06 4.953-13.077 5.776-19.1 1.584-6.022-4.19-8.036-11.991-5.15-18.46-6.193 3.42-14.14 2.067-18.82-3.589v-.009c-4.68-5.655-4.519-13.726 0-19.18-6.904 1.613-14.189-1.856-17.155-8.584-2.966-6.738-.601-14.469 5.26-18.48-7.084-.35-13.147-5.704-14.129-13.003-.992-7.27 3.397-14.037 10.111-16.273-6.704-2.267-11.073-9.035-10.07-16.313 1.002-7.29 7.074-12.634 14.169-12.965-5.852-4.021-8.197-11.76-5.21-18.489 2.975-6.727 10.28-10.177 17.185-8.542-4.52-5.465-4.66-13.547.04-19.192 4.69-5.644 12.636-6.978 18.829-3.55-2.866-6.466-.832-14.266 5.2-18.437 6.033-4.181 14.04-3.33 19.09 1.634-1.032-7.01 3.007-13.977 9.941-16.383 6.925-2.408 14.41.551 17.947 6.677.872-7.018 6.624-12.643 13.93-13.124 7.305-.482 13.728 4.341 15.522 11.17 2.685-6.528 9.71-10.449 16.885-8.985 7.195 1.454 12.135 7.83 12.045 14.91 4.329-5.595 12.155-7.51 18.699-4.171 6.533 3.329 9.59 10.788 7.615 17.586 5.672-4.23 13.729-3.98 19.13.982 5.411 4.964 6.353 12.975 2.626 19.001 6.613-2.556 14.3-.13 18.167 6.116v-.01c3.878 6.257 2.616 14.238-2.615 19.03 7.065-.652 13.809 3.8 15.813 10.879 2.004 7.08-1.403 14.409-7.766 17.567 6.954 1.324 12.195 7.43 12.195 14.768V422.294h.01c0 7.35-5.271 13.466-12.235 14.78 6.343 3.166 9.73 10.507 7.716 17.586-2.025 7.068-8.789 11.51-15.863 10.838 5.23 4.793 6.473 12.784 2.575 19.03-3.888 6.227-11.584 8.634-18.188 6.067 3.718 6.026 2.746 14.037-2.675 18.98-5.422 4.942-13.468 5.184-19.13.943 1.954 6.797-1.122 14.247-7.656 17.566-6.544 3.308-14.37 1.384-18.689-4.221.07 7.079-4.89 13.425-12.075 14.87-7.185 1.443-14.19-2.497-16.865-9.035-1.724 6.497-7.646 11.17-14.51 11.17-.34 0-.692-.01-1.032-.031zm14.92-20.725c1.434-5.353 5.773-9.705 11.575-10.868 5.782-1.164 11.464 1.173 14.85 5.545-.05-5.536 2.977-10.88 8.238-13.546 5.27-2.667 11.363-1.935 15.793 1.364a15.03 15.03 0 0 1 4.319-15.25 15.032 15.032 0 0 1 15.562-2.92 15.045 15.045 0 0 1 .06-15.831 15.023 15.023 0 0 1 14.15-7.019c-4.039-3.729-5.883-9.554-4.27-15.2 1.614-5.654 6.253-9.616 11.655-10.647-4.92-2.478-8.298-7.57-8.298-13.446h.01V422.062a15.037 15.037 0 0 1 8.328-13.464c-5.401-1.043-10.031-5.024-11.624-10.68-1.604-5.654.25-11.469 4.309-15.189-5.482.491-11.033-2.055-14.13-7.059-3.106-5.003-2.916-11.13-.02-15.831-5.15 1.975-11.203 1.032-15.552-2.958-4.35-3.99-5.812-9.957-4.279-15.27-4.44 3.298-10.542 4.01-15.803 1.322h.01c-5.26-2.676-8.277-8.04-8.207-13.576-3.397 4.372-9.089 6.699-14.87 5.514-5.803-1.172-10.132-5.543-11.545-10.898-2.124 5.124-7.014 8.874-12.917 9.265-5.892.38-11.223-2.687-13.999-7.48a15.035 15.035 0 0 1-9.98 12.323 15.016 15.016 0 0 1-15.463-3.48 15.075 15.075 0 0 1-6.323 14.55c-4.85 3.357-10.982 3.468-15.823.791 2.225 5.064 1.574 11.16-2.204 15.702a15.02 15.02 0 0 1-15.001 5.023 15.04 15.04 0 0 1 2.144 15.672c-2.385 5.364-7.535 8.652-13.027 8.923a15.039 15.039 0 0 1 6.373 14.449 15.044 15.044 0 0 1-10.11 12.202 15.024 15.024 0 0 1 10.07 12.232c.792 5.816-1.864 11.31-6.393 14.429 5.491.28 10.622 3.58 12.987 8.953 2.375 5.385 1.333 11.41-2.175 15.662 5.372-1.245 11.234.521 14.982 5.062 3.767 4.552 4.399 10.65 2.154 15.703 4.85-2.657 10.983-2.538 15.833.841 4.84 3.37 7.095 9.085 6.283 14.56 3.958-3.862 9.9-5.385 15.472-3.44v.01c5.572 1.946 9.27 6.849 9.95 12.343 2.787-4.782 8.118-7.842 14.02-7.44v-.01c5.902.4 10.782 4.16 12.887 9.294z" fill="#5AB55C"/><path d="M282.508 425.11c0 61.8-33.726 111.896-86.148 111.896-61.763 0-111.832-50.098-111.832-111.896v-.765c0-61.798 50.069-111.895 111.832-111.896 52.422 0 86.148 50.099 86.148 111.897v.764" fill="#A9D163"/><path d="M185.672 551.596c-6.884-.571-12.286-5.695-13.518-12.162-3.738 5.425-10.762 7.92-17.286 5.664-6.524-2.265-10.502-8.571-10.091-15.149-4.96 4.33-12.386 5.013-18.148 1.213-5.762-3.8-8.056-10.888-6.042-17.155-5.872 2.977-13.228 1.825-17.877-3.269l-.01-.01c-4.65-5.093-5.141-12.513-1.664-18.099a15.026 15.026 0 0 1-16.524-7.57c-3.267-6.085-1.914-13.414 2.846-17.976-6.584-.18-12.506-4.713-14.16-11.42a15.043 15.043 0 0 1 7.195-16.705c-6.293-1.805-10.892-7.6-10.892-14.47 0-6.898 4.63-12.703 10.952-14.477-5.722-3.268-8.808-10.047-7.124-16.735 1.683-6.707 7.625-11.219 14.22-11.369-4.75-4.583-6.073-11.922-2.777-17.999 3.287-6.075 10.151-8.962 16.565-7.489-3.457-5.604-2.936-13.034 1.743-18.108 4.68-5.073 12.035-6.197 17.888-3.208-1.985-6.267.34-13.346 6.122-17.115 5.782-3.78 13.198-3.058 18.138 1.293-.38-6.577 3.617-12.874 10.161-15.1 6.534-2.236 13.538.3 17.256 5.735 1.263-6.458 6.684-11.56 13.568-12.103 6.975-.56 13.208 3.741 15.392 10.058 3.097-6.106 10.101-9.495 17.035-7.77 6.985 1.744 11.595 8.1 11.394 15.02 5.12-4.613 12.927-5.226 18.77-1.055 5.791 4.132 7.775 11.602 5.2 17.919 6.243-2.527 13.638-.582 17.777 5.113 4.078 5.625 3.698 13.115-.451 18.279 6.523-.662 12.967 3.048 15.482 9.454 2.495 6.347.38 13.365-4.73 17.367 6.404.792 11.805 5.675 12.957 12.362 1.143 6.638-2.254 13.015-7.936 15.943 6.052 1.935 10.441 7.62 10.441 14.328 0 .04-.01.09-.01.14 0 .04.01.09.01.14 0 6.718-4.409 12.412-10.481 14.338a15.049 15.049 0 0 1-5.11 28.295c5.09 4.011 7.184 11.04 4.659 17.376-2.546 6.407-8.999 10.087-15.533 9.405 4.139 5.174 4.48 12.674.371 18.278-4.168 5.685-11.574 7.58-17.807 5.024 2.535 6.327.501 13.797-5.3 17.887-5.873 4.141-13.68 3.48-18.78-1.163.16 6.908-4.49 13.245-11.484 14.94-6.934 1.684-13.919-1.745-16.975-7.87-2.084 5.915-7.726 10.035-14.17 10.035-.42 0-.841-.02-1.262-.06zm2.505-29.969c5.411.45 9.91 3.72 12.185 8.242a15.02 15.02 0 0 1 24.291-6.117c-.1-4.842 2.124-9.635 6.373-12.633a15.023 15.023 0 0 1 14.35-1.624c-1.864-4.662-1.353-10.148 1.844-14.49a14.994 14.994 0 0 1 13.678-6.055c-3.246-4.091-4.279-9.755-2.214-14.95a15.018 15.018 0 0 1 12.155-9.374c-4.199-3.319-6.494-8.783-5.502-14.428 1.003-5.705 5.101-10.088 10.252-11.731a15.043 15.043 0 0 1-8.107-13.357v-.279a15.03 15.03 0 0 1 8.157-13.386 15.014 15.014 0 0 1-10.221-11.76c-.982-5.657 1.332-11.11 5.551-14.42-5.28-.66-10.05-4.11-12.135-9.414h.01c-2.054-5.215-.992-10.879 2.275-14.95-5.141.512-10.412-1.644-13.669-6.126-3.166-4.362-3.647-9.856-1.753-14.51-4.6 1.847-10.021 1.385-14.35-1.714a15 15 0 0 1-6.293-12.662 15.01 15.01 0 0 1-13.679 3.399h-.01a15.005 15.005 0 0 1-10.562-9.667c-2.294 4.503-6.804 7.741-12.215 8.173-5.562.44-10.652-2.206-13.598-6.499-1.002 5.105-4.62 9.557-9.9 11.351-5.282 1.805-10.863.502-14.771-2.937.29 5.203-2.125 10.417-6.795 13.465-4.68 3.058-10.421 3.169-15.06.802 1.562 4.973.5 10.618-3.288 14.73-3.778 4.1-9.32 5.623-14.4 4.461 2.736 4.442 3.087 10.177.421 15.08-2.655 4.913-7.656 7.74-12.856 7.871a15.025 15.025 0 0 1 4.138 14.499 15.02 15.02 0 0 1-10.502 10.808 15.031 15.031 0 0 1 7.586 13.064c0 5.616-3.086 10.519-7.646 13.095 5.01 1.434 9.13 5.435 10.462 10.86 1.343 5.413-.441 10.868-4.189 14.468 5.201.16 10.171 3.008 12.807 7.93 2.645 4.914 2.265 10.639-.481 15.06a15.012 15.012 0 0 1 14.38 4.542v-.01a15.04 15.04 0 0 1 3.216 14.75 15.047 15.047 0 0 1 15.062.862 15.048 15.048 0 0 1 6.734 13.496c3.928-3.42 9.52-4.694 14.79-2.868 5.271 1.814 8.869 6.277 9.85 11.39 2.737-3.95 7.296-6.497 12.357-6.497.42.009.841.02 1.272.06z" fill="#A9D163"/><path d="M257.765 425.11c0 61.8-39.182 111.896-61.405 111.896-61.763 0-111.832-50.098-111.832-111.896v-.765c0-61.798 50.069-111.895 111.832-111.896 31.468 0 61.405 50.099 61.405 111.897v.764" fill="#D0D766"/><path d="M188.879 551.826c-7.235-.421-12.977-5.895-14-12.803-3.447 6.066-10.792 9.094-17.686 6.848-6.905-2.237-11.083-9.005-10.312-15.942-4.88 4.993-12.746 6.056-18.859 2.146-6.102-3.91-8.427-11.502-5.942-18.019-5.973 3.6-13.849 2.648-18.77-2.666-4.93-5.314-5.28-13.246-1.242-18.931-6.684 1.986-14.069-.912-17.496-7.299-3.437-6.386-1.784-14.157 3.567-18.639-6.974.23-13.397-4.452-15.101-11.5h.01c-1.714-7.059 1.854-14.148 8.157-17.127-6.754-1.533-11.775-7.609-11.704-14.818.07-7.25 5.25-13.256 12.095-14.609-6.223-3.148-9.6-10.338-7.706-17.336 1.894-7.008 8.437-11.52 15.412-11.089-5.231-4.632-6.684-12.443-3.077-18.74 3.608-6.296 11.073-8.993 17.707-6.828-3.898-5.785-3.327-13.707 1.734-18.89 5.07-5.183 12.967-5.925 18.839-2.165-2.315-6.578.22-14.108 6.433-17.849 6.203-3.749 14.04-2.475 18.78 2.648-.582-6.958 3.777-13.596 10.732-15.651 6.954-2.046 14.22 1.163 17.506 7.32 1.202-6.869 7.085-12.183 14.33-12.414 8.076-.25 14.87 5.916 15.462 13.907 5.19-6.056 14.29-7.018 20.643-2.065 6.012 4.692 7.485 13.034 3.748 19.441 6.683-2.547 14.43-.01 18.227 6.347 3.698 6.186 2.435 13.967-2.625 18.699 6.814-.641 13.428 3.46 15.672 10.248 2.215 6.717-.55 13.886-6.293 17.476 6.714.632 12.386 5.765 13.438 12.734 1.053 6.948-2.826 13.495-9.008 16.102 6.463 1.674 11.243 7.56 11.243 14.559v.19c0 7.108-4.93 13.075-11.564 14.64 6.203 2.797 9.91 9.575 8.568 16.553-1.343 6.969-7.295 11.88-14.08 12.171 5.572 3.902 7.957 11.24 5.362 17.839-2.606 6.627-9.39 10.357-16.134 9.374 4.78 4.913 5.722 12.644 1.844 18.65-3.948 6.106-11.564 8.402-18.078 5.855 3.668 6.197 2.445 14.318-3.226 19.131-6.173 5.224-15.322 4.622-20.753-1.263-.652 7.81-7.185 13.796-14.972 13.796-.29 0-.58-.01-.881-.03zm-22.417-34.56c5.612 1.814 9.42 6.627 10.231 12.092 2.746-4.803 8.047-7.902 13.93-7.56a14.99 14.99 0 0 1 10.16 4.802c.321-3.83 2.095-7.55 5.261-10.227 4.36-3.69 10.201-4.472 15.172-2.547a15.047 15.047 0 0 1 .32-15.812c3.287-5.094 9.14-7.53 14.771-6.728-3.978-4.1-5.431-10.318-3.206-15.992h.01c2.234-5.695 7.565-9.254 13.297-9.515-4.7-3.299-7.285-9.165-6.133-15.17 1.153-5.996 5.722-10.468 11.294-11.792-5.21-2.366-8.838-7.61-8.838-13.707v-.189c0-6.238 3.787-11.58 9.189-13.857-5.652-1.474-10.161-6.186-11.083-12.322-.922-6.107 1.964-11.902 6.874-14.991a15.039 15.039 0 0 1-12.837-10.246c-1.904-5.746-.15-11.822 3.988-15.712a15.02 15.02 0 0 1-14.3-7.26c-2.905-4.862-2.745-10.708-.09-15.29-4.74 1.795-10.27 1.143-14.56-2.206-3.487-2.707-5.441-6.648-5.752-10.728a15.003 15.003 0 0 1-10.922 5.234c-5.903.18-11.113-3.058-13.729-7.931-.962 5.443-4.9 10.147-10.562 11.811-5.652 1.665-11.514-.15-15.271-4.2.45 5.514-2.165 11.058-7.215 14.106a15.043 15.043 0 0 1-15.853-.191 15.048 15.048 0 0 1-3.448 15.482c-4.128 4.221-10.14 5.494-15.402 3.779a15.06 15.06 0 0 1 .552 15.863 15.038 15.038 0 0 1-13.94 7.53c4.13 3.67 6.083 9.495 4.54 15.19-1.543 5.695-6.153 9.736-11.574 10.829 4.93 2.507 8.287 7.65 8.227 13.556a15.037 15.037 0 0 1-8.588 13.444c5.391 1.235 9.9 5.396 11.284 11.14 1.393 5.735-.712 11.5-4.94 15.05 5.52-.17 10.932 2.717 13.728 7.912a15.073 15.073 0 0 1-.972 15.82 15.027 15.027 0 0 1 15.282 4.203 15.073 15.073 0 0 1 3.026 15.581c4.74-2.847 10.883-2.958 15.853.23 4.97 3.178 7.435 8.804 6.844 14.299a15.066 15.066 0 0 1 10.742-4.523c1.534 0 3.097.241 4.64.743z" fill="#D0D766"/><path d="M759.89 481.075c0-6.708-5.434-12.145-12.138-12.145-6.703 0-12.137 5.437-12.137 12.145v155.824h24.275V481.075" fill="#9A7459"/><path d="M865.457 422.293c0 57.318-47.12 103.785-105.245 103.785-58.125 0-105.246-46.467-105.246-103.785v-.51c0-57.317 47.12-103.784 105.246-103.785 58.125 0 105.245 46.468 105.245 103.786v.509" fill="#5AB55C"/><path d="M751.868 540.837h-.01c-7.305-.501-13.037-6.146-13.899-13.164-3.547 6.116-11.043 9.054-17.957 6.638-6.934-2.427-10.963-9.415-9.91-16.414-5.051 4.953-13.068 5.776-19.09 1.584-6.023-4.19-8.037-11.991-5.15-18.46-6.204 3.42-14.15 2.067-18.82-3.589v-.009c-4.68-5.655-4.53-13.726 0-19.18-6.904 1.613-14.2-1.856-17.156-8.584-2.966-6.738-.6-14.469 5.261-18.48-7.094-.35-13.147-5.704-14.14-13.003-.981-7.27 3.408-14.037 10.112-16.273-6.704-2.267-11.073-9.035-10.071-16.313 1.012-7.29 7.085-12.634 14.18-12.965-5.853-4.021-8.208-11.76-5.221-18.489 2.986-6.727 10.291-10.177 17.185-8.542-4.509-5.465-4.65-13.547.05-19.192 4.69-5.644 12.637-6.978 18.83-3.55-2.866-6.466-.832-14.266 5.2-18.437 6.033-4.181 14.04-3.33 19.08 1.634-1.032-7.01 3.016-13.977 9.94-16.383 6.935-2.408 14.42.551 17.958 6.677.872-7.018 6.614-12.643 13.929-13.124 7.305-.482 13.728 4.341 15.522 11.17 2.686-6.528 9.71-10.449 16.885-8.985 7.185 1.454 12.125 7.83 12.035 14.91 4.34-5.595 12.166-7.51 18.71-4.171 6.533 3.329 9.589 10.788 7.605 17.586 5.682-4.23 13.728-3.98 19.14.982 5.4 4.964 6.353 12.975 2.625 19.001 6.604-2.556 14.3-.13 18.168 6.116v-.01c3.878 6.257 2.615 14.238-2.626 19.03 7.075-.652 13.82 3.8 15.823 10.879 2.004 7.08-1.413 14.409-7.766 17.567 6.945 1.324 12.195 7.43 12.195 14.768V422.294c0 7.35-5.26 13.466-12.225 14.78 6.343 3.166 9.73 10.507 7.706 17.586-2.024 7.068-8.788 11.51-15.853 10.838 5.231 4.793 6.464 12.784 2.576 19.03-3.889 6.227-11.585 8.634-18.188 6.067 3.707 6.026 2.745 14.037-2.676 18.98-5.421 4.942-13.468 5.184-19.13.943 1.954 6.797-1.122 14.247-7.665 17.566-6.534 3.308-14.36 1.384-18.68-4.221.07 7.079-4.89 13.425-12.074 14.87-7.185 1.443-14.19-2.497-16.865-9.035-1.724 6.497-7.646 11.17-14.51 11.17-.341 0-.692-.01-1.033-.031zm14.921-20.725c1.433-5.353 5.772-9.705 11.574-10.868 5.782-1.164 11.464 1.173 14.841 5.545-.04-5.536 2.986-10.88 8.247-13.546 5.261-2.667 11.354-1.935 15.783 1.364-1.513-5.314-.03-11.27 4.33-15.25 4.348-3.971 10.41-4.904 15.561-2.92-2.886-4.7-3.066-10.827.06-15.831 3.107-4.993 8.669-7.53 14.15-7.019-4.038-3.729-5.882-9.554-4.269-15.2 1.613-5.654 6.253-9.616 11.654-10.647-4.92-2.478-8.297-7.57-8.297-13.446V422.062c0-5.894 3.397-10.998 8.337-13.464-5.4-1.043-10.03-5.024-11.624-10.68-1.603-5.654.25-11.469 4.31-15.189-5.482.491-11.034-2.055-14.13-7.059-3.107-5.003-2.916-11.13-.02-15.831-5.15 1.975-11.214 1.032-15.553-2.958a15.029 15.029 0 0 1-4.278-15.27c-4.44 3.298-10.542 4.01-15.803 1.322-5.261-2.676-8.267-8.04-8.207-13.576-3.397 4.372-9.08 6.699-14.861 5.514h-.01c-5.792-1.172-10.121-5.543-11.544-10.898a15.031 15.031 0 0 1-12.907 9.265 15.042 15.042 0 0 1-14-7.48 15.051 15.051 0 0 1-9.98 12.323c-5.581 1.934-11.514.39-15.462-3.48a15.075 15.075 0 0 1-6.323 14.55 15.028 15.028 0 0 1-15.833.791 15.05 15.05 0 0 1-2.195 15.702 15.02 15.02 0 0 1-15 5.023c3.497 4.251 4.529 10.286 2.134 15.672-2.375 5.364-7.526 8.652-13.017 8.923 4.53 3.118 7.175 8.623 6.363 14.449-.802 5.845-4.87 10.437-10.101 12.202a15.024 15.024 0 0 1 10.07 12.232c.792 5.816-1.863 11.31-6.392 14.429 5.491.28 10.622 3.58 12.987 8.953 2.374 5.385 1.332 11.41-2.175 15.662 5.371-1.245 11.223.521 14.981 5.062a15.047 15.047 0 0 1 2.155 15.703c4.85-2.657 10.982-2.538 15.822.841 4.85 3.37 7.105 9.085 6.294 14.56 3.958-3.862 9.9-5.385 15.472-3.44v.01c5.571 1.946 9.269 6.849 9.95 12.343 2.786-4.782 8.117-7.842 14.02-7.44v-.01c5.902.4 10.772 4.16 12.886 9.294z" fill="#5AB55C"/><path d="M833.902 425.11c0 61.8-33.726 111.896-86.15 111.896-61.762 0-111.83-50.098-111.83-111.896v-.765c0-61.798 50.067-111.895 111.83-111.896 52.424 0 86.15 50.099 86.15 111.897v.764" fill="#A9D163"/><path d="M737.058 551.596c-6.875-.571-12.286-5.695-13.509-12.162-3.747 5.425-10.762 7.92-17.285 5.664-6.534-2.265-10.512-8.571-10.091-15.149-4.96 4.33-12.386 5.013-18.148 1.213h-.01c-5.752-3.8-8.057-10.888-6.043-17.155-5.862 2.977-13.217 1.825-17.877-3.269-4.65-5.093-5.14-12.523-1.663-18.109-6.424 1.435-13.268-1.483-16.525-7.57-3.266-6.085-1.914-13.414 2.846-17.976-6.583-.18-12.506-4.713-14.16-11.42v-.012c-1.653-6.696 1.464-13.464 7.196-16.703-6.293-1.795-10.903-7.59-10.903-14.46 0-6.898 4.64-12.703 10.963-14.477-5.722-3.268-8.808-10.047-7.125-16.735 1.684-6.707 7.626-11.219 14.22-11.369-4.75-4.583-6.073-11.922-2.776-17.999 3.287-6.065 10.151-8.962 16.564-7.489-3.457-5.604-2.936-13.034 1.744-18.108 4.68-5.073 12.035-6.197 17.887-3.198-1.984-6.277.34-13.356 6.123-17.125 5.772-3.78 13.187-3.058 18.138 1.293-.381-6.577 3.617-12.874 10.15-15.1 6.544-2.236 13.549.3 17.266 5.735 1.253-6.458 6.684-11.56 13.569-12.103 6.964-.56 13.207 3.741 15.392 10.058 3.096-6.106 10.1-9.495 17.035-7.77 6.975 1.744 11.594 8.1 11.394 15.02 5.12-4.613 12.927-5.226 18.769-1.055 5.782 4.132 7.766 11.602 5.2 17.919a15.02 15.02 0 0 1 17.767 5.113c4.079 5.625 3.708 13.115-.45 18.279 6.533-.662 12.966 3.048 15.492 9.454 2.495 6.347.38 13.365-4.73 17.367 6.393.792 11.794 5.675 12.947 12.362h.01c1.142 6.638-2.255 13.015-7.947 15.943 6.063 1.945 10.442 7.62 10.442 14.328v.28c0 6.718-4.4 12.412-10.482 14.338 5.682 2.938 9.059 9.325 7.887 15.963-1.173 6.687-6.594 11.56-12.987 12.332 5.09 4.011 7.174 11.04 4.66 17.376-2.546 6.407-9 10.087-15.533 9.405 4.139 5.174 4.48 12.674.37 18.278-4.168 5.685-11.573 7.58-17.806 5.024 2.535 6.327.5 13.797-5.311 17.887-5.862 4.141-13.669 3.48-18.77-1.163.161 6.908-4.499 13.245-11.483 14.94-6.945 1.684-13.92-1.745-16.985-7.87-2.085 5.915-7.716 10.035-14.16 10.035-.42 0-.842-.02-1.272-.06zm14.7-21.727c1.633-4.632 5.501-8.373 10.632-9.616a15.02 15.02 0 0 1 13.659 3.499c-.1-4.842 2.124-9.635 6.373-12.633a15.023 15.023 0 0 1 14.35-1.624c-1.864-4.662-1.353-10.148 1.833-14.49a15.011 15.011 0 0 1 13.689-6.055c-3.257-4.091-4.29-9.755-2.215-14.95a15.018 15.018 0 0 1 12.155-9.374c-4.198-3.319-6.493-8.783-5.501-14.428a15.024 15.024 0 0 1 10.251-11.731c-4.82-2.507-8.117-7.54-8.117-13.357v-.279c0-5.836 3.317-10.89 8.167-13.386a15.042 15.042 0 0 1-10.23-11.76c-.973-5.657 1.342-11.11 5.56-14.42-5.28-.66-10.05-4.11-12.134-9.414a15.05 15.05 0 0 1 2.284-14.95c-5.14.512-10.411-1.644-13.668-6.126-3.167-4.362-3.648-9.856-1.764-14.51-4.6 1.847-10.01 1.385-14.34-1.714-4.238-3.017-6.433-7.83-6.303-12.662a15.003 15.003 0 0 1-13.678 3.399 15.005 15.005 0 0 1-10.562-9.667 15.041 15.041 0 0 1-12.215 8.173c-5.562.44-10.653-2.206-13.599-6.499-1.002 5.105-4.63 9.557-9.9 11.351-5.281 1.805-10.863.502-14.78-2.937.3 5.203-2.115 10.417-6.785 13.465a15.04 15.04 0 0 1-15.061.802c1.563 4.973.5 10.618-3.287 14.73a15.032 15.032 0 0 1-14.41 4.461c2.736 4.432 3.096 10.177.43 15.08-2.655 4.913-7.655 7.74-12.856 7.871 3.738 3.62 5.502 9.083 4.139 14.499a15.02 15.02 0 0 1-10.502 10.808 15.022 15.022 0 0 1 7.576 13.064 15.027 15.027 0 0 1-7.636 13.095 15.02 15.02 0 0 1 10.461 10.86 15.051 15.051 0 0 1-4.188 14.468c5.19.16 10.17 3.008 12.806 7.93v-.01c2.646 4.924 2.265 10.649-.48 15.07a15.029 15.029 0 0 1 14.38 4.532h-.01a15.067 15.067 0 0 1 3.226 14.75c4.65-2.347 10.392-2.206 15.051.862a15.048 15.048 0 0 1 6.734 13.496 15.028 15.028 0 0 1 14.801-2.868c5.26 1.814 8.868 6.277 9.85 11.39 2.957-4.281 8.067-6.91 13.619-6.437 5.411.45 9.92 3.72 12.195 8.242z" fill="#A9D163"/><path d="M809.158 425.11c0 61.8-39.182 111.896-61.405 111.896-61.763 0-111.832-50.098-111.832-111.896v-.765c0-61.798 50.068-111.895 111.832-111.896 31.468 0 61.405 50.099 61.405 111.897v.764" fill="#D0D766"/><path d="M740.274 551.826c-7.245-.421-12.977-5.895-13.999-12.803-3.457 6.066-10.792 9.094-17.697 6.848-6.904-2.237-11.073-9.005-10.301-15.942-4.88 4.993-12.747 6.056-18.86 2.146-6.102-3.91-8.427-11.502-5.942-18.019-5.972 3.6-13.848 2.648-18.779-2.666-4.92-5.314-5.27-13.246-1.232-18.931-6.684 1.986-14.07-.912-17.507-7.299-3.437-6.386-1.773-14.157 3.578-18.639-6.985.23-13.398-4.452-15.101-11.5-1.704-7.059 1.863-14.148 8.167-17.127-6.765-1.523-11.775-7.609-11.705-14.818.07-7.25 5.251-13.256 12.085-14.609-6.223-3.148-9.59-10.338-7.696-17.336 1.894-7.008 8.438-11.52 15.412-11.089-5.23-4.632-6.684-12.443-3.076-18.74 3.607-6.296 11.073-8.993 17.697-6.828-3.888-5.795-3.327-13.707 1.743-18.89s12.967-5.925 18.84-2.165c-2.315-6.578.22-14.098 6.423-17.849 6.213-3.749 14.049-2.475 18.789 2.648-.581-6.958 3.778-13.596 10.732-15.651 6.955-2.046 14.21 1.163 17.496 7.32 1.213-6.869 7.095-12.183 14.34-12.414 8.077-.25 14.871 5.916 15.462 13.907 5.191-6.056 14.28-7.018 20.643-2.065 6.003 4.692 7.486 13.034 3.748 19.441 6.684-2.547 14.43-.01 18.228 6.347 3.698 6.186 2.435 13.967-2.626 18.699 6.815-.641 13.428 3.46 15.673 10.248 2.215 6.717-.551 13.886-6.293 17.476 6.714.632 12.386 5.755 13.438 12.734 1.052 6.948-2.826 13.495-9.019 16.102 6.474 1.674 11.254 7.56 11.254 14.559v.19c0 7.108-4.93 13.075-11.564 14.64 6.202 2.797 9.91 9.575 8.567 16.553-1.342 6.969-7.295 11.88-14.089 12.171 5.572 3.902 7.967 11.24 5.371 17.839-2.605 6.627-9.39 10.357-16.143 9.374 4.78 4.913 5.722 12.644 1.854 18.65-3.949 6.106-11.565 8.402-18.088 5.855 3.668 6.197 2.455 14.318-3.227 19.131-6.163 5.224-15.312 4.622-20.743-1.263-.651 7.81-7.195 13.796-14.971 13.796-.29 0-.591-.01-.882-.03zm-22.416-34.56c5.601 1.814 9.41 6.627 10.23 12.092 2.747-4.803 8.038-7.902 13.93-7.56a14.99 14.99 0 0 1 10.16 4.802c.322-3.83 2.095-7.55 5.262-10.227 4.359-3.69 10.201-4.472 15.171-2.547a15.047 15.047 0 0 1 .321-15.812c3.287-5.094 9.139-7.53 14.77-6.728-3.978-4.1-5.43-10.318-3.206-15.992 2.245-5.695 7.576-9.254 13.308-9.515-4.7-3.299-7.295-9.165-6.133-15.17 1.152-5.996 5.712-10.468 11.293-11.792-5.21-2.366-8.838-7.61-8.838-13.707v-.189c0-6.238 3.788-11.58 9.19-13.857-5.653-1.474-10.162-6.186-11.084-12.322-.922-6.107 1.964-11.902 6.874-14.991-5.742-.55-10.912-4.41-12.836-10.246h-.01c-1.894-5.746-.14-11.822 3.998-15.712a15.02 15.02 0 0 1-14.3-7.26c-2.906-4.862-2.745-10.708-.09-15.29-4.74 1.795-10.271 1.143-14.56-2.206-3.487-2.707-5.441-6.648-5.752-10.728a15.003 15.003 0 0 1-10.923 5.234h-.01a15.03 15.03 0 0 1-13.718-7.931c-.972 5.443-4.9 10.147-10.562 11.811a15.027 15.027 0 0 1-15.272-4.2c.451 5.514-2.164 11.058-7.225 14.106a15.006 15.006 0 0 1-15.843-.2c1.814 5.224.682 11.26-3.447 15.491a15.026 15.026 0 0 1-15.402 3.779 15.06 15.06 0 0 1 .551 15.863c-2.936 5.124-8.427 7.86-13.949 7.53a15.06 15.06 0 0 1 4.55 15.19 15.042 15.042 0 0 1-11.574 10.829c4.93 2.507 8.287 7.65 8.227 13.556a15.037 15.037 0 0 1-8.588 13.444 15.02 15.02 0 0 1 11.283 11.14 15.04 15.04 0 0 1-4.94 15.05c5.521-.17 10.933 2.717 13.718 7.912a15.03 15.03 0 0 1-.972 15.82 15.043 15.043 0 0 1 15.292 4.203 15.073 15.073 0 0 1 3.027 15.581c4.74-2.847 10.882-2.958 15.852.23 4.97 3.178 7.436 8.804 6.835 14.299a15.1 15.1 0 0 1 10.742-4.523c1.543 0 3.106.241 4.65.743z" fill="#D0D766"/><path d="M1191.264 481.075c0-6.708-5.434-12.145-12.138-12.145-6.703 0-12.137 5.437-12.137 12.145v155.824h24.275V481.075" fill="#9A7459"/><path d="M1296.831 422.293c0 57.318-47.12 103.785-105.245 103.785-58.125 0-105.246-46.467-105.246-103.785v-.51c0-57.317 47.121-103.784 105.246-103.785 58.126 0 105.245 46.468 105.245 103.786v.509" fill="#5AB55C"/><path d="M1183.234 540.837c-7.305-.501-13.037-6.146-13.898-13.164-3.548 6.116-11.043 9.054-17.968 6.638-6.924-2.427-10.952-9.415-9.9-16.414-5.05 4.953-13.067 5.776-19.09 1.584-6.022-4.19-8.037-11.991-5.15-18.46-6.204 3.42-14.15 2.067-18.83-3.589v-.009c-4.68-5.655-4.52-13.726.01-19.18-6.904 1.613-14.2-1.856-17.155-8.584-2.967-6.738-.602-14.469 5.25-18.48a15.034 15.034 0 0 1-14.129-13.003c-.982-7.27 3.407-14.037 10.111-16.273-6.704-2.267-11.073-9.035-10.07-16.313 1.011-7.29 7.084-12.634 14.179-12.965-5.852-4.021-8.207-11.76-5.221-18.489 2.986-6.727 10.281-10.177 17.186-8.542-4.51-5.465-4.65-13.547.05-19.192 4.69-5.644 12.636-6.978 18.829-3.55-2.866-6.466-.832-14.266 5.2-18.437 6.023-4.181 14.04-3.33 19.08 1.634-1.032-7.01 3.016-13.977 9.94-16.383 6.925-2.408 14.42.551 17.948 6.677.882-7.018 6.624-12.643 13.94-13.124 7.304-.482 13.728 4.341 15.511 11.17 2.696-6.528 9.72-10.449 16.895-8.985 7.185 1.454 12.126 7.83 12.035 14.91 4.34-5.595 12.166-7.51 18.7-4.171 6.543 3.329 9.6 10.788 7.615 17.586 5.672-4.23 13.729-3.98 19.14.982 5.401 4.964 6.353 12.975 2.625 19.001 6.604-2.556 14.3-.13 18.168 6.116v-.01c3.878 6.257 2.616 14.238-2.625 19.03 7.064-.652 13.818 3.8 15.823 10.879 2.004 7.08-1.413 14.409-7.767 17.567 6.945 1.324 12.196 7.43 12.196 14.768V422.294c0 7.35-5.271 13.466-12.236 14.78 6.343 3.166 9.74 10.507 7.716 17.586-2.024 7.068-8.788 11.51-15.853 10.838 5.221 4.793 6.464 12.784 2.576 19.03-3.888 6.227-11.594 8.634-18.188 6.067 3.708 6.026 2.746 14.037-2.676 18.98-5.42 4.942-13.468 5.184-19.13.943 1.955 6.797-1.122 14.247-7.665 17.566-6.544 3.308-14.36 1.384-18.68-4.221.061 7.079-4.89 13.425-12.074 14.87-7.185 1.443-14.2-2.497-16.865-9.035-1.724 6.497-7.646 11.17-14.52 11.17-.341 0-.682-.01-1.033-.031zm14.932-20.725a15.015 15.015 0 0 1 11.574-10.868h-.01c5.792-1.164 11.463 1.173 14.85 5.545-.04-5.536 2.977-10.88 8.248-13.546 5.26-2.667 11.353-1.935 15.782 1.364-1.513-5.314-.03-11.27 4.33-15.25 4.348-3.971 10.41-4.904 15.562-2.92-2.886-4.7-3.067-10.827.05-15.831a15.039 15.039 0 0 1 14.16-7.019 15.035 15.035 0 0 1-4.27-15.2c1.614-5.654 6.253-9.616 11.654-10.647-4.92-2.478-8.297-7.57-8.297-13.446V422.062c0-5.894 3.397-10.998 8.338-13.464-5.402-1.043-10.031-5.024-11.635-10.68a15.05 15.05 0 0 1 4.32-15.189c-5.482.491-11.044-2.055-14.14-7.059-3.106-5.003-2.906-11.13-.01-15.831-5.16 1.975-11.213 1.032-15.552-2.958-4.36-3.99-5.822-9.957-4.29-15.27a15 15 0 0 1-15.792 1.322c-5.261-2.676-8.267-8.04-8.207-13.576-3.397 4.372-9.079 6.699-14.871 5.514-5.792-1.172-10.121-5.543-11.544-10.898-2.124 5.124-7.005 8.874-12.917 9.265-5.892.38-11.213-2.687-13.989-7.48-.701 5.484-4.409 10.378-9.98 12.323a15.028 15.028 0 0 1-15.473-3.48 15.035 15.035 0 0 1-6.323 14.55c-4.85 3.357-10.983 3.468-15.823.791 2.225 5.064 1.573 11.16-2.194 15.702a15.02 15.02 0 0 1-15.002 5.023 15.06 15.06 0 0 1 2.135 15.672c-2.385 5.364-7.526 8.652-13.017 8.923a15.032 15.032 0 0 1 6.363 14.449c-.802 5.845-4.87 10.437-10.1 12.202a15.024 15.024 0 0 1 10.07 12.232c.792 5.816-1.864 11.31-6.393 14.429 5.481.28 10.622 3.58 12.987 8.953 2.365 5.385 1.333 11.41-2.175 15.662 5.371-1.245 11.224.521 14.981 5.062a15.047 15.047 0 0 1 2.155 15.703c4.84-2.657 10.983-2.538 15.823.841 4.85 3.37 7.094 9.085 6.283 14.56 3.958-3.862 9.91-5.385 15.482-3.44v.01c5.572 1.946 9.27 6.849 9.95 12.343 2.786-4.794 8.117-7.842 14.01-7.44v-.01c5.912.4 10.782 4.16 12.897 9.294z" fill="#5AB55C"/><path d="M1265.276 425.11c0 61.8-33.727 111.896-86.148 111.896-61.763 0-111.832-50.098-111.832-111.896v-.765c0-61.798 50.068-111.895 111.832-111.896 52.42 0 86.148 50.099 86.148 111.897v.764" fill="#A9D163"/><path d="M1168.434 551.596c-6.875-.571-12.286-5.695-13.508-12.162-3.748 5.425-10.763 7.92-17.286 5.664-6.534-2.265-10.512-8.571-10.091-15.149-4.97 4.33-12.386 5.013-18.158 1.213-5.762-3.8-8.057-10.888-6.042-17.155-5.873 2.977-13.218 1.825-17.878-3.269-4.65-5.093-5.15-12.523-1.663-18.109-6.423 1.435-13.268-1.483-16.524-7.57-3.267-6.085-1.914-13.414 2.835-17.976-6.583-.18-12.495-4.713-14.149-11.42v-.012c-1.663-6.696 1.463-13.464 7.185-16.703-6.283-1.795-10.893-7.59-10.893-14.46 0-6.898 4.64-12.703 10.953-14.477-5.712-3.268-8.808-10.047-7.115-16.735 1.684-6.707 7.626-11.219 14.21-11.369-4.74-4.583-6.063-11.922-2.766-17.999 3.287-6.075 10.151-8.962 16.565-7.489-3.458-5.604-2.937-13.034 1.743-18.108 4.67-5.073 12.025-6.197 17.887-3.198-1.984-6.277.341-13.356 6.123-17.125h-.01c5.782-3.78 13.197-3.058 18.148 1.293-.381-6.577 3.617-12.874 10.15-15.1 6.534-2.236 13.549.3 17.267 5.735 1.252-6.458 6.684-11.56 13.558-12.103 6.974-.56 13.217 3.741 15.402 10.058 3.096-6.106 10.1-9.495 17.035-7.77 6.975 1.744 11.594 8.1 11.384 15.02 5.13-4.613 12.937-5.226 18.779-1.055 5.782 4.132 7.766 11.602 5.19 17.919 6.254-2.527 13.639-.582 17.778 5.113 4.078 5.625 3.707 13.115-.451 18.279 6.533-.662 12.967 3.048 15.492 9.454 2.495 6.347.38 13.365-4.73 17.367 6.393.792 11.795 5.675 12.947 12.362 1.152 6.638-2.245 13.015-7.937 15.943a15.033 15.033 0 0 1 10.442 14.328v.28c0 6.718-4.399 12.412-10.482 14.338 5.682 2.938 9.06 9.325 7.887 15.963-1.173 6.687-6.594 11.56-12.997 12.332 5.1 4.011 7.185 11.04 4.67 17.376-2.546 6.407-9 10.087-15.533 9.405 4.139 5.174 4.48 12.674.371 18.278-4.169 5.685-11.574 7.58-17.807 5.024 2.535 6.327.501 13.797-5.311 17.887-5.872 4.141-13.668 3.48-18.77-1.163.161 6.908-4.498 13.245-11.493 14.94-6.934 1.684-13.909-1.745-16.975-7.87-2.085 5.915-7.716 10.035-14.16 10.035-.42 0-.841-.02-1.272-.06zm2.505-29.969c5.411.45 9.92 3.72 12.185 8.242 1.644-4.632 5.512-8.373 10.642-9.616a15.02 15.02 0 0 1 13.659 3.499c-.1-4.842 2.124-9.635 6.373-12.633a15.006 15.006 0 0 1 14.34-1.624c-1.854-4.662-1.343-10.148 1.844-14.49a15.011 15.011 0 0 1 13.688-6.055c-3.257-4.091-4.289-9.755-2.225-14.95a15.032 15.032 0 0 1 12.166-9.374c-4.199-3.319-6.494-8.783-5.502-14.428a15.024 15.024 0 0 1 10.252-11.731c-4.82-2.507-8.117-7.54-8.117-13.357v-.279a15.049 15.049 0 0 1 8.157-13.386c-5.151-1.654-9.24-6.056-10.222-11.76-.972-5.657 1.343-11.11 5.552-14.42-5.281-.66-10.04-4.11-12.125-9.414a15.05 15.05 0 0 1 2.284-14.95c-5.14.512-10.411-1.644-13.668-6.126-3.166-4.362-3.647-9.856-1.764-14.51-4.6 1.847-10.01 1.385-14.34-1.714h-.01c-4.228-3.017-6.423-7.83-6.292-12.662a15.003 15.003 0 0 1-13.679 3.399c-5.11-1.274-8.958-5.034-10.572-9.667-2.295 4.503-6.804 7.741-12.205 8.173-5.562.44-10.652-2.206-13.598-6.499-1.003 5.105-4.63 9.557-9.901 11.351a15.002 15.002 0 0 1-14.78-2.937c.3 5.203-2.115 10.417-6.795 13.465-4.67 3.058-10.411 3.169-15.051.802 1.563 4.973.5 10.618-3.287 14.73a15.032 15.032 0 0 1-14.41 4.461c2.736 4.432 3.087 10.177.431 15.08-2.666 4.913-7.656 7.74-12.857 7.871 3.738 3.62 5.502 9.083 4.139 14.499a15.02 15.02 0 0 1-10.502 10.808 15.022 15.022 0 0 1 7.576 13.064 15.027 15.027 0 0 1-7.636 13.095c5 1.434 9.119 5.435 10.462 10.86a15.033 15.033 0 0 1-4.199 14.468c5.2.16 10.181 3.008 12.817 7.93v-.01a15.054 15.054 0 0 1-.481 15.07c5.08-1.134 10.612.412 14.37 4.532a15.067 15.067 0 0 1 3.226 14.75c4.65-2.347 10.392-2.206 15.051.862a15.048 15.048 0 0 1 6.734 13.496c3.929-3.42 9.52-4.694 14.791-2.868h.01c5.261 1.814 8.869 6.277 9.85 11.39 2.736-3.95 7.296-6.497 12.356-6.497.411.009.842.02 1.263.06z" fill="#A9D163"/><path d="M1240.533 425.11c0 61.8-39.183 111.896-61.405 111.896-61.763 0-111.832-50.098-111.832-111.896v-.765c0-61.798 50.068-111.895 111.832-111.896 31.467 0 61.405 50.099 61.405 111.897v.764" fill="#D0D766"/><path d="M1171.64 551.826c-7.235-.421-12.977-5.895-13.989-12.803-3.457 6.066-10.792 9.094-17.696 6.848-6.905-2.237-11.073-9.005-10.302-15.942-4.88 4.993-12.746 6.056-18.859 2.146-6.103-3.91-8.438-11.502-5.942-18.019-5.973 3.6-13.85 2.648-18.78-2.666-4.92-5.314-5.28-13.246-1.242-18.931-6.684 1.986-14.06-.912-17.496-7.299-3.437-6.386-1.774-14.157 3.567-18.639-6.974.23-13.388-4.452-15.091-11.5-1.704-7.059 1.864-14.148 8.167-17.127-6.764-1.533-11.775-7.609-11.705-14.818.07-7.25 5.251-13.256 12.086-14.609-6.223-3.148-9.6-10.338-7.707-17.336a15.039 15.039 0 0 1 15.423-11.089c-5.241-4.632-6.684-12.443-3.077-18.74 3.608-6.296 11.063-8.993 17.697-6.828-3.888-5.795-3.327-13.707 1.744-18.89 5.07-5.183 12.956-5.925 18.829-2.165-2.305-6.578.23-14.098 6.433-17.849 6.213-3.749 14.05-2.475 18.789 2.648-.581-6.958 3.778-13.596 10.732-15.651 6.955-2.046 14.21 1.163 17.497 7.32 1.212-6.869 7.094-12.183 14.34-12.414h-.01c8.086-.25 14.87 5.916 15.472 13.907 5.19-6.056 14.28-7.018 20.642-2.065 6.003 4.692 7.486 13.034 3.748 19.441 6.684-2.547 14.43-.01 18.228 6.347 3.698 6.186 2.435 13.967-2.635 18.699 6.824-.641 13.428 3.46 15.672 10.248 2.225 6.717-.54 13.886-6.283 17.476 6.704.632 12.386 5.765 13.438 12.734 1.042 6.948-2.836 13.495-9.019 16.102 6.474 1.674 11.254 7.56 11.254 14.559v.19c0 7.108-4.94 13.075-11.564 14.64 6.203 2.797 9.91 9.575 8.568 16.553a15.033 15.033 0 0 1-14.09 12.171c5.572 3.902 7.967 11.24 5.371 17.839-2.605 6.627-9.39 10.357-16.143 9.374 4.78 4.913 5.722 12.644 1.844 18.65-3.938 6.106-11.564 8.402-18.078 5.855 3.668 6.197 2.445 14.318-3.227 19.131-6.162 5.224-15.321 4.622-20.753-1.263-.641 7.81-7.185 13.796-14.96 13.796-.291 0-.592-.01-.893-.03zm-22.406-34.56c5.601 1.814 9.41 6.627 10.231 12.092 2.746-4.803 8.037-7.902 13.929-7.56a14.99 14.99 0 0 1 10.161 4.802c.32-3.83 2.094-7.54 5.261-10.227 4.35-3.69 10.191-4.472 15.172-2.547a15.046 15.046 0 0 1 .31-15.812c3.297-5.094 9.15-7.53 14.781-6.728-3.988-4.1-5.441-10.318-3.207-15.992a15.029 15.029 0 0 1 13.308-9.515c-4.7-3.299-7.295-9.165-6.133-15.17a15.027 15.027 0 0 1 11.284-11.792c-5.211-2.366-8.829-7.61-8.829-13.707v-.189c0-6.238 3.788-11.58 9.18-13.857-5.642-1.474-10.152-6.186-11.084-12.322-.912-6.107 1.974-11.902 6.885-14.991-5.752-.55-10.913-4.41-12.847-10.246-1.894-5.746-.14-11.822 3.998-15.712-5.581.52-11.233-2.117-14.3-7.26-2.905-4.862-2.745-10.708-.09-15.29a15.008 15.008 0 0 1-14.57-2.206 14.951 14.951 0 0 1-5.742-10.728 15.007 15.007 0 0 1-10.933 5.234c-5.892.18-11.113-3.058-13.728-7.931-.962 5.443-4.9 10.147-10.552 11.811a15.027 15.027 0 0 1-15.272-4.2c.441 5.514-2.174 11.058-7.225 14.106-5.05 3.049-11.183 2.777-15.853-.2 1.824 5.224.692 11.26-3.447 15.491a15.004 15.004 0 0 1-15.392 3.779c3.067 4.603 3.487 10.73.551 15.863-2.936 5.124-8.427 7.86-13.949 7.53 4.139 3.67 6.083 9.495 4.54 15.19-1.533 5.695-6.153 9.746-11.564 10.829a15.047 15.047 0 0 1-.361 27c5.391 1.235 9.9 5.396 11.283 11.14 1.383 5.735-.721 11.491-4.94 15.05a15.035 15.035 0 0 1 13.719 7.912 15.03 15.03 0 0 1-.972 15.82c5.3-1.562 11.273-.129 15.281 4.203a15.03 15.03 0 0 1 3.027 15.581c4.75-2.847 10.882-2.958 15.863.23 4.97 3.178 7.435 8.804 6.834 14.299a15.1 15.1 0 0 1 10.742-4.523c1.543 0 3.107.241 4.65.743z" fill="#D0D766"/><path d="M39.894 550.856c0-11.707-9.485-21.198-21.185-21.198s-21.184 9.49-21.184 21.198c0 11.706 9.485 21.196 21.184 21.196 11.7 0 21.185-9.49 21.185-21.196" fill="#5AB55C"/><path d="M-2.475 550.856h42.37v80.717h-42.37v-80.717z" fill="#5AB55C"/><path d="M88.532 566.932c0 15.23-12.34 27.578-27.563 27.578-15.22 0-27.561-12.348-27.561-27.578 0-15.231 12.34-27.578 27.56-27.578 15.225 0 27.564 12.347 27.564 27.578" fill="#5AB55C"/><path d="M108.452 597.288c0 10.4-8.427 18.83-18.822 18.83-10.394 0-18.822-8.43-18.822-18.83 0-10.402 8.428-18.832 18.822-18.832 10.395 0 18.822 8.43 18.822 18.832" fill="#5AB55C"/><path d="M125.034 621.8c0 8.806-7.133 15.942-15.931 15.942-8.798 0-15.932-7.136-15.932-15.942 0-8.803 7.134-15.939 15.932-15.939s15.931 7.136 15.931 15.94" fill="#5AB55C"/><path d="M27.46 609.918h81.643v21.45H27.46v-21.45z" fill="#5AB55C"/><path d="M27.46 585.47h57.781v29.84h-57.78v-29.84z" fill="#5AB55C"/><path d="M107.495 617.884c0 7.591-6.15 13.742-13.735 13.742-7.586 0-13.735-6.15-13.735-13.742 0-7.589 6.15-13.741 13.735-13.741 7.586 0 13.735 6.152 13.735 13.741" fill="#5AB55C"/><path d="M-2.424 589.228h32.806v46.506H-2.424v-46.506z" fill="#A9D163"/><path d="M30.382 589.228c0 9.064-7.344 16.41-16.404 16.41-9.059 0-16.402-7.346-16.402-16.41 0-9.065 7.343-16.412 16.402-16.412 9.06 0 16.404 7.347 16.404 16.412" fill="#A9D163"/><path d="M44.394 606.38c0 5.259-4.26 9.523-9.515 9.523-5.257 0-9.517-4.264-9.517-9.523 0-5.258 4.26-9.523 9.517-9.523 5.255 0 9.515 4.265 9.515 9.523" fill="#A9D163"/><path d="M64.15 627.614c0 10.718-8.683 19.405-19.394 19.405-10.711 0-19.394-8.687-19.394-19.405 0-10.717 8.683-19.406 19.394-19.406 10.711 0 19.394 8.69 19.394 19.406" fill="#A9D163"/><path d="M98.446 637.743c0 10.716-8.684 19.404-19.395 19.404-10.71 0-19.393-8.688-19.393-19.404 0-10.719 8.682-19.407 19.393-19.407 10.71 0 19.395 8.688 19.395 19.407" fill="#A9D163"/><path d="M1216.664 688.332c0-7.127 5.774-12.903 12.897-12.903s12.897 5.776 12.897 12.903M366.37 709.754c0-7.125 5.773-12.903 12.895-12.903 7.124 0 12.897 5.778 12.897 12.903" fill="#5AB55C"/><path d="M242.554 678.499c0-7.126 5.774-12.904 12.897-12.904s12.897 5.778 12.897 12.904M970.153 732.02c0-7.125 5.774-12.903 12.896-12.903 7.122 0 12.896 5.778 12.896 12.903" fill="#3B9F86"/></g></svg>