<svg width="1440" height="752" viewBox="0 0 1440 752" xmlns="http://www.w3.org/2000/svg" xmlns:xlink="http://www.w3.org/1999/xlink"><title>spyglass-piano</title><defs><path id="a" d="M430.568 16.101c0-8.38-6.792-15.172-15.171-15.172H15.789C7.41.929.617 7.721.617 16.101V76.5h429.951V16.101"/><path id="c" d="M.617 82.224h429.951V.485H.617"/></defs><g fill="none" fill-rule="evenodd"><path d="M965.565 664.224c0-6.719-5.448-12.166-12.166-12.166H486.161c-6.72 0-12.167 5.447-12.167 12.166s5.447 12.167 12.167 12.167h467.238c6.718 0 12.166-5.448 12.166-12.167" fill="#C7C7C4"/><path d="M934.568 488.101c0-8.38-6.792-15.172-15.171-15.172H519.789c-8.379 0-15.172 6.792-15.172 15.172V548.5h429.951v-60.399" fill="#F2F2F1"/><g transform="translate(504 472)"><mask id="b" fill="#fff"><use xlink:href="#a"/></mask><path d="M25.898 60.408l-6.468 6.47-93.834-93.832 6.469-6.472 93.833 93.834" fill="#05B3E9" mask="url(#b)"/><path d="M77.898 60.408l-6.468 6.47-93.834-93.832 6.469-6.472 93.833 93.834" fill="#F47739" mask="url(#b)"/><path d="M135.231 60.408l-6.468 6.47L34.93-26.954l6.468-6.472 93.833 93.834" fill="#05B3E9" mask="url(#b)"/><path d="M187.231 60.408l-6.468 6.47L86.93-26.954l6.468-6.472 93.833 93.834" fill="#F47739" mask="url(#b)"/><path d="M244.565 60.408l-6.468 6.47-93.834-93.832 6.469-6.472 93.833 93.834" fill="#05B3E9" mask="url(#b)"/><path d="M296.565 60.408l-6.468 6.47-93.834-93.832 6.469-6.472 93.833 93.834" fill="#F47739" mask="url(#b)"/><path d="M353.898 60.408l-6.468 6.47-93.833-93.832 6.468-6.472 93.833 93.834" fill="#05B3E9" mask="url(#b)"/><path d="M405.898 60.408l-6.468 6.47-93.833-93.832 6.468-6.472 93.833 93.834" fill="#F47739" mask="url(#b)"/><path d="M463.232 60.408l-6.468 6.47-93.834-93.832 6.469-6.472 93.833 93.834" fill="#05B3E9" mask="url(#b)"/><path d="M515.232 60.408l-6.468 6.47-93.834-93.832 6.469-6.472 93.833 93.834" fill="#F47739" mask="url(#b)"/></g><path d="M504.617 582.484h429.951v81.739H504.617v-81.739z" fill="#D9D9D6"/><g transform="translate(504 582)"><mask id="d" fill="#fff"><use xlink:href="#c"/></mask><path d="M19.893 84.582l-6.468 6.47L-80.408-2.78l6.469-6.472 93.832 93.834" fill="#05B3E9" mask="url(#d)"/><path d="M71.894 84.582l-6.469 6.47L-28.408-2.78l6.468-6.472 93.834 93.834" fill="#F47739" mask="url(#d)"/><path d="M129.228 84.582l-6.469 6.47L28.925-2.78l6.469-6.472 93.834 93.834" fill="#05B3E9" mask="url(#d)"/><path d="M181.228 84.582l-6.469 6.47L80.925-2.78l6.47-6.472 93.833 93.834" fill="#F47739" mask="url(#d)"/><path d="M238.561 84.582l-6.469 6.47L138.259-2.78l6.468-6.472 93.834 93.834" fill="#05B3E9" mask="url(#d)"/><path d="M290.561 84.582l-6.469 6.47L190.259-2.78l6.469-6.472 93.833 93.834" fill="#F47739" mask="url(#d)"/><path d="M347.894 84.582l-6.468 6.47L247.592-2.78l6.47-6.472 93.832 93.834" fill="#05B3E9" mask="url(#d)"/><path d="M399.895 84.582l-6.469 6.47L299.592-2.78l6.47-6.472 93.833 93.834" fill="#F47739" mask="url(#d)"/><path d="M457.227 84.582l-6.468 6.47L356.926-2.78l6.468-6.472 93.833 93.834" fill="#05B3E9" mask="url(#d)"/><path d="M509.228 84.582l-6.469 6.47L408.926-2.78l6.468-6.472 93.834 93.834" fill="#F47739" mask="url(#d)"/></g><path d="M504.617 560.877h429.951v21.607H504.617v-21.607z" fill="#F2F2F1"/><path d="M794.594 492.833h36.333v43.551h-36.333v-43.551z" fill="#FFF"/><path d="M798.177 496.516h29.167v2.85h-29.167v-2.85zM798.177 502.17h29.167v2.849h-29.167v-2.849zM798.177 507.824h29.167v2.849h-29.167v-2.849zM798.177 513.477h29.167v2.85h-29.167v-2.85zM798.177 519.132h29.167v2.85h-29.167v-2.85zM798.177 524.786h29.167v2.849h-29.167v-2.849zM798.177 530.44h29.167v2.849h-29.167v-2.849z" fill="#323232"/><path d="M490.036 549.345h23.395v114.879h-23.395V549.345zM925.755 549.345h23.393v114.879h-23.393V549.345z" fill="#F2F2F1"/><path d="M955.081 532.454a3.858 3.858 0 0 0-3.859-3.859H487.964a3.859 3.859 0 0 0-3.86 3.859v24.564a3.86 3.86 0 0 0 3.86 3.859H950.83a4.25 4.25 0 0 0 4.251-4.252v-24.171" fill="#FFF"/><path d="M916.593 550.876h-395.51v-4.422a3.859 3.859 0 0 1 3.859-3.859h387.791a3.859 3.859 0 0 1 3.86 3.859v4.422" fill="#000"/><path d="M931.083 554.793c0-2.162-1.729-3.916-3.859-3.916H510.451c-2.131 0-3.858 1.754-3.858 3.916v6.084h424.49v-6.084" fill="#FFF"/><path d="M916.824 718.125c0-6.72-5.447-12.167-12.166-12.167H564.96c-6.72 0-12.167 5.447-12.167 12.167 0 6.719 5.447 12.166 12.167 12.166h339.698c6.719 0 12.166-5.447 12.166-12.166" fill="#C7C7C4"/><path d="M849.26 485.044h36.333v43.551H849.26v-43.551z" fill="#FFF"/><path d="M852.843 488.727h29.167v2.85h-29.167v-2.85zM852.843 494.381h29.167v2.849h-29.167v-2.849zM852.843 500.035h29.167v2.849h-29.167v-2.849zM852.843 505.689h29.167v2.85h-29.167v-2.85zM852.843 511.343h29.167v2.85h-29.167v-2.85zM852.843 516.997h29.167v2.849h-29.167v-2.849zM852.843 522.651h29.167v2.849h-29.167v-2.849z" fill="#323232"/><path d="M552.793 636.091h333.6v35.423h-333.6v-35.423z" fill="#FFF"/><path d="M552.793 644.516h20.67v73.609h-20.67v-73.609zM865.723 644.516h20.67v73.609h-20.67v-73.609z" fill="#FFF"/><path d="M893.893 625.472a3.86 3.86 0 0 0-3.86-3.86H549.151a3.859 3.859 0 0 0-3.858 3.86v21.238a3.858 3.858 0 0 0 3.858 3.859h340.882a3.859 3.859 0 0 0 3.86-3.859v-21.238" fill="#F2F2F1"/></g></svg>