<svg width="1440" height="752" viewBox="0 0 1440 752" xmlns="http://www.w3.org/2000/svg"><title>spyglass</title><g fill="none" fill-rule="evenodd"><path d="M.593 0h1440v707.883H.593V0z" fill="#28D2FF"/><path d="M666.466 398.957c21.019-25.826 48.963-44.593 80.786-54.397 88.172-27.164 206.807-119.409 282.569-119.409 88.842 0 102.986-64.322 172.41-64.322 69.425 0 122.477 137.559 180.419 164.687 57.943 27.128 58.023 35.411 58.023 35.411v176.468h-886.88l112.673-138.438" fill="#5AB55C"/><path d="M1261.155 433.715c-23.998-58.423-121.493-85.571-173.99-88.421-52.498-2.851-82.496-9.149-82.496-35.654 0-26.506 73.496-34.991 101.995-50.129 28.496-15.137 71.99-58.352 91.556-98.6-65.989 2.423-81.298 64.24-168.399 64.24-75.566 0-193.788 91.772-281.887 119.198-32.29 10.052-60.586 29.265-81.745 55.647L553.793 537.395h700.627c0 .001 30.734-45.257 6.735-103.68" fill="#5A9780"/><path d="M13.218 401.571c110.121-83.425 233.192-228.918 311.188-228.918 77.996 0 106.792 71.198 179.39 81.347 67.037 9.372 73.451 90.54 181.51 102.92 18.895 2.164 36.567 10.511 50.208 23.762 23.398 22.73 62.919 55.816 101.4 63.608 20.573 4.165 100.531 17.121 143.959 24.091 18.542 2.975 35.938 11.099 50.072 23.465l.007.005a183.035 183.035 0 0 0 120.527 45.285h9.942-1141.5l-6.703-135.565" fill="#5AB55C"/><path d="M359.068 511.343c-12.631-28.793-74.364-32.704-75.026-92.63-.663-59.926-34.542-96.162-39.835-139.565-7.5-61.497 76.496-70.226 80.199-106.495-77.473 0-214.261 156.054-323.813 239.737v124.746h355.191c5.563-4.346 9.299-12.083 3.284-25.793" fill="#5A9780"/><path d="M.592 550.876h1440v157.006H.592V550.876z" fill="#3499DF"/><path d="M1128 560.729s4.333 12.604 17.667 15.271c13.333 2.667 25.733 9.333 31.976 15.334 8.614 8.28 24.588 24.383 51.69 24.383h211.34v-54.988H1128" fill="#096EDA"/><path d="M627.842 345.294h110.581V529.78H627.842V345.294z" fill="#B1DBF6"/><path d="M1138.005 408.214h102.333V529.78h-102.333V408.214z" fill="#E4CBC2"/><path d="M1138.005 408.214h58.652V529.78h-58.652V408.214z" fill="#EFE0DA"/><path d="M1144.54 502.651h22.792v13h-22.792v-13z" fill="#B1E6F6"/><path d="M1144.54 477.007h22.792v13h-22.792v-13z" fill="#E4CBC2"/><path d="M1144.54 451.364h22.792v13h-22.792v-13z" fill="#FFF"/><path d="M1144.54 425.72h22.792v13h-22.792v-13z" fill="#E4CBC2"/><path d="M1167.331 425.72h22.791v13h-22.791v-13zM1167.331 451.363h22.791v13h-22.791v-13zM1167.331 477.007h22.791v13h-22.791v-13z" fill="#F9F3F0"/><path d="M1167.331 502.65h22.791v13h-22.791v-13z" fill="#FFF"/><path d="M1240.337 302.07h102.333v227.709h-102.333V302.07z" fill="#B1DBF6"/><path d="M1240.337 302.07h54.686v227.709h-54.686V302.07z" fill="#D0E9F9"/><path d="M1246.971 309.639h20.709v13h-20.709v-13z" fill="#D7F4FF"/><path d="M1246.971 335.283h20.709v13h-20.709v-13z" fill="#D0E9F9"/><path d="M1246.971 360.927h20.709v13h-20.709v-13z" fill="#B1DBF6"/><path d="M1246.971 386.57h20.709v13h-20.709v-13z" fill="#FFF"/><path d="M1246.971 412.213h20.709v13h-20.709v-13z" fill="#EFFBFF"/><path d="M1246.971 437.857h20.709v13h-20.709v-13z" fill="#FFF"/><path d="M1246.971 463.5h20.709v13h-20.709v-13zM1246.971 489.143h20.709v13h-20.709v-13z" fill="#B1DBF6"/><path d="M1267.68 489.144h20.709v13h-20.709v-13z" fill="#D7F4FF"/><path d="M1267.68 463.501h20.709v13h-20.709v-13z" fill="#FFF"/><path d="M1267.68 437.857h20.709v13h-20.709v-13z" fill="#B1DBF6"/><path d="M1267.68 412.214h20.709v13h-20.709v-13z" fill="#FFF"/><path d="M1267.68 386.57h20.709v13h-20.709v-13z" fill="#D0E9F9"/><path d="M1267.68 360.927h20.709v13h-20.709v-13z" fill="#FFF"/><path d="M1267.68 335.283h20.709v13h-20.709v-13zM1267.68 309.64h20.709v13h-20.709v-13z" fill="#B1DBF6"/><path d="M738.424 286.648h107.253v243.131H738.424V286.648z" fill="#D7F4FF"/><path d="M738.424 286.648h58.835v243.131h-58.835V286.648z" fill="#EFFBFF"/><path d="M767.841 497.646h24.292v13h-24.292v-13z" fill="#B1E6F6"/><path d="M767.841 472.002h24.292v13h-24.292v-13z" fill="#B1DBF6"/><path d="M767.841 446.359h24.292v13h-24.292v-13z" fill="#D0F0F9"/><path d="M767.841 420.715h24.292v13h-24.292v-13z" fill="#B1E6F6"/><path d="M767.841 395.072h24.292v13h-24.292v-13z" fill="#EFFBFF"/><path d="M767.841 369.428h24.292v13h-24.292v-13z" fill="#FFF"/><path d="M743.55 369.428h24.291v13H743.55v-13z" fill="#EFFBFF"/><path d="M743.55 395.071h24.291v13H743.55v-13z" fill="#B1DBF6"/><path d="M743.55 420.715h24.291v13H743.55v-13z" fill="#D0F0F9"/><path d="M743.55 446.358h24.291v13H743.55v-13zM743.55 472.002h24.291v13H743.55v-13z" fill="#EFFBFF"/><path d="M743.55 497.645h24.291v13H743.55v-13z" fill="#FFF"/><path d="M492.236 286.648h102.333v243.131H492.236V286.648z" fill="#B1DBF6"/><path d="M549.333 352h19.75v13h-19.75v-13z" fill="#EFFBFF"/><path d="M549.333 377.644h19.75v13h-19.75v-13z" fill="#B1DBF6"/><path d="M549.333 403.287h19.75v13h-19.75v-13z" fill="#D7F4FF"/><path d="M549.333 428.931h19.75v13h-19.75v-13z" fill="#EFFBFF"/><path d="M549.333 454.574h19.75v13h-19.75v-13z" fill="#D0F0F9"/><path d="M549.333 480.218h19.75v13h-19.75v-13z" fill="#FFF"/><path d="M549.333 505.861h19.75v13h-19.75v-13z" fill="#B1DBF6"/><path d="M569.083 505.861h19.75v13h-19.75v-13z" fill="#EFFBFF"/><path d="M569.083 480.218h19.75v13h-19.75v-13zM569.083 454.574h19.75v13h-19.75v-13z" fill="#B1DBF6"/><path d="M569.083 428.931h19.75v13h-19.75v-13zM569.083 403.287h19.75v13h-19.75v-13z" fill="#EFFBFF"/><path d="M569.083 377.644h19.75v13h-19.75v-13z" fill="#D7F4FF"/><path d="M569.083 352h19.75v13h-19.75v-13z" fill="#B1DBF6"/><path d="M1342.67 357.364h97.996V529.78h-97.996V357.364z" fill="#B1E6F6"/><path d="M1342.67 357.364h57.917V529.78h-57.917V357.364z" fill="#D0F0F9"/><path d="M1040.67 529.78L1440.673 367v117.849l-281.642 44.931H1040.67" fill="#ECECEB"/><path d="M1069.168 529.78l371.505-140.402v95.471L1147.115 532l-77.947-2.22" fill="#999"/><path d="M1440.673 422.875l-344.36 106.905h-28.146l372.506-142.404v35.499" fill="#DADAD8"/><path d="M881.646 408.214h85.009V529.78h-85.009V408.214z" fill="#D0E9F9"/><path d="M.592 529.78h1440v30.95H.592v-30.95z" fill="#A9D163"/><path d="M1202.231 560.729H1128c0-17.092-13.856-30.949-30.95-30.949H1092h103.5l6.731 30.949" fill="#5AB55C"/><path d="M1189.171 504h18.107v45.345h-18.107V504zM1277.899 483h22.174v71h-22.174v-71zM1397.43 448.39h28.297v108.943h-28.297V448.39z" fill="#999"/><path d="M.592 615.717h1440.081v34.441H.592v-34.441z" fill="#C7C7C4"/><path d="M94.485 632.5h97.673v13.654H94.485V632.5zM382 632.5h97.674v13.654H382V632.5zM669 632.938h97.674v13.654H669v-13.654zM956 632.5h97.674v13.654H956V632.5z" fill="#3499DF"/><path d="M1249.026 632.5h97.673v13.654h-97.673V632.5z" fill="#096EDA"/><path d="M452.462 697c0-7.108-5.762-12.87-12.87-12.87s-12.869 5.762-12.869 12.87" fill="#FFF"/><path d="M1148.007 560.284a4.715 4.715 0 0 0 4.716 4.716h49.84a4.715 4.715 0 0 0 4.715-4.716v-13.16h-59.271v13.16M1425.727 555.803h-89.178V577h83.082a6.097 6.097 0 0 0 6.096-6.097v-15.1M1237.337 570h57.109a5.627 5.627 0 0 0 5.627-5.627v-12.249h-62.736V570" fill="#999"/><path d="M1242.98 570h-17.857a5.628 5.628 0 0 1-5.627-5.627V483h23.484v87M1167.184 565h-14.461a4.715 4.715 0 0 1-4.716-4.716V504h19.177v61M1346.049 577h-23.821a6.147 6.147 0 0 1-6.147-6.148V448.39h29.968V577" fill="#DADAD8"/><path d="M.593 312H91v217.78H.593V312z" fill="#EFE0DA"/><path d="M49.216 312H91v217.78H49.216V312z" fill="#E4CBC2"/><path d="M140.322 401h90.408v128.78h-90.408V401z" fill="#B1DBF6"/><path d="M63.668 362H166v167.78H63.668V362z" fill="#D7F4FF"/><path d="M63.668 362h60.334v167.78H63.668V362z" fill="#EFFBFF"/><path d="M199.667 295H302v234.78H199.667V295z" fill="#D7F4FF"/><path d="M199.667 295h61.039v234.78h-61.039V295z" fill="#EFFBFF"/><path d="M334.426 339.783h102.332V529.78H334.426V339.783z" fill="#B1E6F6"/><path d="M334.426 339.783h53.772V529.78h-53.772V339.783z" fill="#D0F0F9"/><path d="M492.236 286.648h49.763v243.131h-49.763V286.648z" fill="#D0E9F9"/><path d="M927.488 353.941h102.333v175.838H927.488V353.941z" fill="#B1E6F6"/><path d="M970.271 353.941h59.549v175.838h-59.549V353.941z" fill="#D0F0F9"/><path d="M401.067 398h108.332v131.78H401.067V398z" fill="#D7F4FF"/><path d="M401.067 398h63.627v131.78h-63.627V398z" fill="#EFFBFF"/><path d="M.592 644.515h1440.081V752H.592V644.515z" fill="#ECECEB"/><path d="M1162.076 680.192c0-7.107-5.762-12.87-12.869-12.87-7.108 0-12.87 5.763-12.87 12.87" fill="#FFF"/><path d="M1326.139 695.318c0-7.107-5.762-12.869-12.869-12.869-7.109 0-12.871 5.762-12.871 12.869M266.706 718.125c0-7.108-5.762-12.87-12.87-12.87s-12.87 5.762-12.87 12.87" fill="#A7A7A5"/><path d="M58 355h113v13.915H58V355zM1132.671 403h107.667v13.914h-107.667V403z" fill="#FFF"/><path d="M341.333 352h19.75v13h-19.75v-13z" fill="#EFFBFF"/><path d="M341.333 377.644h19.75v13h-19.75v-13zM341.333 403.287h19.75v13h-19.75v-13z" fill="#B1DBF6"/><path d="M341.333 428.931h19.75v13h-19.75v-13z" fill="#EFFBFF"/><path d="M341.333 454.574h19.75v13h-19.75v-13z" fill="#D0F0F9"/><path d="M341.333 480.218h19.75v13h-19.75v-13z" fill="#FFF"/><path d="M341.333 505.861h19.75v13h-19.75v-13z" fill="#B1DBF6"/><path d="M361.083 505.861h19.751v13h-19.751v-13z" fill="#EFFBFF"/><path d="M361.083 480.218h19.751v13h-19.751v-13zM361.083 454.574h19.751v13h-19.751v-13z" fill="#B1DBF6"/><path d="M361.083 428.931h19.751v13h-19.751v-13z" fill="#EFFBFF"/><path d="M361.083 403.287h19.751v13h-19.751v-13z" fill="#D0F0F9"/><path d="M361.083 377.644h19.751v13h-19.751v-13z" fill="#FFF"/><path d="M361.083 352h19.751v13h-19.751v-13zM71.669 377.644h22.165v13H71.669v-13zM71.669 403.287h22.165v13H71.669v-13z" fill="#B1DBF6"/><path d="M71.669 428.931h22.165v13H71.669v-13z" fill="#EFFBFF"/><path d="M71.669 454.574h22.165v13H71.669v-13z" fill="#D0F0F9"/><path d="M71.669 480.218h22.165v13H71.669v-13z" fill="#FFF"/><path d="M71.669 505.861h22.165v13H71.669v-13z" fill="#B1DBF6"/><path d="M93.835 505.861h22.166v13H93.835v-13z" fill="#EFFBFF"/><path d="M93.835 480.218h22.166v13H93.835v-13zM93.835 454.574h22.166v13H93.835v-13z" fill="#B1DBF6"/><path d="M93.835 428.931h22.166v13H93.835v-13z" fill="#EFFBFF"/><path d="M93.835 403.287h22.166v13H93.835v-13z" fill="#D0F0F9"/><path d="M93.835 377.644h22.166v13H93.835v-13z" fill="#FFF"/><path d="M978.055 495.643h22.792v13h-22.792v-13z" fill="#B1E6F6"/><path d="M978.055 470h22.792v13h-22.792v-13z" fill="#B1DBF6"/><path d="M978.055 444.357h22.792v13h-22.792v-13z" fill="#D0F0F9"/><path d="M978.055 418.713h22.792v13h-22.792v-13z" fill="#B1E6F6"/><path d="M978.055 393.07h22.792v13h-22.792v-13z" fill="#EFFBFF"/><path d="M978.055 367.427h22.792v13h-22.792v-13z" fill="#FFF"/><path d="M1000.846 367.426h22.791v13h-22.791v-13z" fill="#EFFBFF"/><path d="M1000.846 393.069h22.791v13h-22.791v-13z" fill="#B1DBF6"/><path d="M1000.846 418.713h22.791v13h-22.791v-13z" fill="#D0F0F9"/><path d="M1000.846 444.356h22.791v13h-22.791v-13zM1000.846 470h22.791v13h-22.791v-13z" fill="#EFFBFF"/><path d="M1000.846 495.643h22.791v13h-22.791v-13z" fill="#FFF"/><path d="M205.999 309.639h23.181v13h-23.181v-13z" fill="#D7F4FF"/><path d="M205.999 335.283h23.181v13h-23.181v-13z" fill="#FFF"/><path d="M205.999 360.927h23.181v13h-23.181v-13z" fill="#B1DBF6"/><path d="M205.999 386.57h23.181v13h-23.181v-13z" fill="#FFF"/><path d="M205.999 412.213h23.181v13h-23.181v-13z" fill="#EFFBFF"/><path d="M205.999 437.857h23.181v13h-23.181v-13z" fill="#FFF"/><path d="M205.999 463.5h23.181v13h-23.181v-13zM205.999 489.143h23.181v13h-23.181v-13z" fill="#B1DBF6"/><path d="M229.181 489.144h23.181v13h-23.181v-13z" fill="#D7F4FF"/><path d="M229.181 463.501h23.181v13h-23.181v-13z" fill="#FFF"/><path d="M229.181 437.857h23.181v13h-23.181v-13z" fill="#B1DBF6"/><path d="M229.181 412.214h23.181v13h-23.181v-13z" fill="#FFF"/><path d="M229.181 386.57h23.181v13h-23.181v-13z" fill="#EFFBFF"/><path d="M229.181 360.927h23.181v13h-23.181v-13z" fill="#FFF"/><path d="M229.181 335.283h23.181v13h-23.181v-13zM229.181 309.64h23.181v13h-23.181v-13z" fill="#B1DBF6"/><path d="M473.236 508.156h14v11.689h-14v-11.689z" fill="#D7F4FF"/><path d="M473.236 485.1h14v11.689h-14V485.1z" fill="#FFF"/><path d="M473.236 462.041h14v11.689h-14v-11.689z" fill="#D0E9F9"/><path d="M473.236 438.983h14v11.69h-14v-11.69z" fill="#FFF"/><path d="M473.236 415.925h14v11.689h-14v-11.689z" fill="#EFFBFF"/><path d="M487.238 415.925h14v11.689h-14v-11.689z" fill="#D7F4FF"/><path d="M487.238 438.982h14v11.689h-14v-11.689z" fill="#EFFBFF"/><path d="M487.238 462.04h14v11.689h-14V462.04z" fill="#B1DBF6"/><path d="M487.238 485.097h14v11.69h-14v-11.69z" fill="#FFF"/><path d="M487.238 508.156h14v11.689h-14v-11.689z" fill="#EFFBFF"/><path d="M395.185 391.042H516v13.915H395.185v-13.915z" fill="#FFF"/><path d="M124.002 368.915H166v5.012h-41.998v-5.012z" fill="#C7E4F1"/><path d="M63.668 368.915h60.334v5.012H63.668v-5.012z" fill="#DAEBF1"/><path d="M166 368.915H63.668 166" fill="#E7EDF1"/><path d="M464.694 404.957h44.704v5.012h-44.704v-5.012z" fill="#C7E4F1"/><path d="M401.067 404.957h63.627v5.012h-63.627v-5.012z" fill="#DAEBF1"/><path d="M509.398 404.957H401.067h108.331" fill="#E7EDF1"/><path d="M1196.657 416.914h43.68v5.013h-43.68v-5.013z" fill="#D1C3C0"/><path d="M1138.005 416.914h58.652v5.013h-58.652v-5.013z" fill="#DAD4D3"/><path d="M1240.337 416.914h-102.332 102.332" fill="#E7EDF1"/><path d="M346.182 327.334H365v12.449h-18.818v-12.449zM140.322 342.551h18.818V355h-18.818v-12.449zM1310.747 289.621h18.818v12.45h-18.818v-12.45z" fill="#EFFBFF"/><path d="M1341.12 160.829c0 9.526-7.723 17.249-17.249 17.249h-54.559c-9.526 0-17.249-7.723-17.249-17.249 0-9.527 7.723-17.249 17.249-17.249h54.559c9.526 0 17.249 7.722 17.249 17.249" fill="#D7F4FF"/><path d="M1209.542 193c0 8.792 7.128 15.921 15.921 15.921h84.174c8.793 0 15.922-7.129 15.922-15.921 0-8.795-7.129-15.923-15.922-15.923h-84.174c-8.793 0-15.921 7.128-15.921 15.923" fill="#D7F4FF"/><path d="M1257.482 193c0 8.793-7.129 15.921-15.922 15.921h-21.582c-8.793 0-15.922-7.128-15.922-15.921 0-8.794 7.129-15.922 15.922-15.922h21.582c8.793 0 15.922 7.128 15.922 15.922M1284.849 160.829c0 9.526-7.723 17.249-17.249 17.249s-17.249-7.723-17.249-17.249c0-9.527 7.723-17.249 17.249-17.249s17.249 7.722 17.249 17.249" fill="#FFF"/><path d="M1395.069 160.829c0-8.773-7.111-15.884-15.884-15.884-8.772 0-15.884 7.111-15.884 15.884s7.112 15.884 15.884 15.884c8.773 0 15.884-7.111 15.884-15.884M1046.719 139.263c0 8.894 7.21 16.104 16.104 16.104h67.016c8.894 0 16.104-7.21 16.104-16.104 0-8.894-7.21-16.104-16.104-16.104h-67.016c-8.894 0-16.104 7.21-16.104 16.104" fill="#D7F4FF"/><path d="M1092.508 139.263c0 8.894-7.21 16.104-16.105 16.104h-13.58c-8.894 0-16.104-7.21-16.104-16.104 0-8.894 7.21-16.104 16.104-16.104h13.58c8.895 0 16.105 7.21 16.105 16.104" fill="#FFF"/><path d="M442.064 227.56c0 10.295-8.346 18.641-18.64 18.641h-46.717c-10.294 0-18.64-8.346-18.64-18.641 0-10.293 8.346-18.639 18.64-18.639h46.717c10.294 0 18.64 8.346 18.64 18.639" fill="#D7F4FF"/><path d="M396.198 227.56c0 10.295-8.345 18.641-18.639 18.641h-23.058c-10.294 0-18.64-8.346-18.64-18.641 0-10.293 8.346-18.639 18.64-18.639h23.058c10.294 0 18.639 8.346 18.639 18.639M403.671 275.385c0 7.862-6.374 14.236-14.236 14.236-7.862 0-14.236-6.374-14.236-14.236 0-7.862 6.374-14.236 14.236-14.236 7.862 0 14.236 6.374 14.236 14.236" fill="#FFF"/><text font-family="San Francisco Text" font-size="23.1" fill="#323232"><tspan x="729.848" y="268.431"> </tspan></text></g></svg>