<svg width="1440" height="752" viewBox="0 0 1440 752" xmlns="http://www.w3.org/2000/svg"><title>strathcona</title><g transform="translate(-61)" fill="none" fill-rule="evenodd"><path fill="#28D2FF" d="M61 0h1440v675.63H61z"/><path fill="#3B9F86" d="M1120 604h381.179v68.541H1120z"/><path fill="#3B9F86" d="M1351 422h150.179v241.684H1351z"/><path fill="#3B9F86" d="M1203 527h213.97v104.382H1203z"/><path fill="#1B6C72" d="M1167 618h334.179v70H1167z"/><path d="M1134.372 639.186c0-12.805-10.381-23.186-23.186-23.186S1088 626.381 1088 639.186v21.674c0 12.805 10.381 23.186 23.186 23.186s23.186-10.381 23.186-23.186v-21.674z" fill="#3B9F86"/><circle fill="#3B9F86" cx="267.916" cy="542.916" r="56.916"/><circle fill="#3B9F86" cx="354.916" cy="601.916" r="56.916"/><circle fill="#3B9F86" cx="427.02" cy="636.02" r="42.02"/><path d="M508.991 658.631c0 7.528-6.103 13.631-13.631 13.631h-34.729c-7.528 0-13.631-6.103-13.631-13.631 0-7.528 6.103-13.631 13.631-13.631h34.729c7.528.001 13.631 6.103 13.631 13.631z" fill="#4FC1B3"/><g fill="#1B6C72"><path d="M404.162 670.438a6.306 6.306 0 0 0 12.612 0v-20.385a6.307 6.307 0 0 0-6.307-6.307 6.305 6.305 0 0 0-6.305 6.307v20.385z"/><path d="M408.801 668.318a6.308 6.308 0 0 0 8.919 8.919l14.414-14.414a6.308 6.308 0 0 0 0-8.92 6.306 6.306 0 0 0-8.919.001l-14.414 14.414z"/></g><path fill="#3B9F86" d="M61 523h250.809v147.397H61z"/><path fill="#3B9F86" d="M61 631h338.571v59.7H61z"/><path d="M359 637.304c0-8.452 6.852-15.304 15.304-15.304h2.439c8.452 0 15.304 6.852 15.304 15.304v17.743H359v-17.743z" fill="#A9D163"/><path d="M1106.286 672.407a6.307 6.307 0 0 1-12.613 0v-20.385a6.307 6.307 0 0 1 6.307-6.307 6.306 6.306 0 0 1 6.306 6.307v20.385z" fill="#1B6C72"/><path d="M1094.755 666.282a6.307 6.307 0 0 1-12.613 0v-20.385a6.307 6.307 0 0 1 6.307-6.307 6.306 6.306 0 0 1 6.306 6.307v20.385z" fill="#A9D163"/><path d="M1090.115 664.163a6.307 6.307 0 1 1-8.919 8.919l-14.414-14.414a6.308 6.308 0 0 1 0-8.92 6.304 6.304 0 0 1 8.918.001l14.415 14.414z" fill="#A9D163"/><path d="M278.536 587h43.843a53.657 53.657 0 0 1 53.655 53.653v.002c0 14.497-11.752 26.25-26.25 26.25H276L278.536 587z" fill="#1B6C72"/><path fill="#A9D163" d="M61 664h1440.082v87.776H61z"/><path d="M309 601.333c0 7.732-6.268 14-14 14s-14-6.268-14-14V574c0-7.732 6.268-14 14-14s14 6.268 14 14v27.333z" fill="#4FC1B3"/><path d="M295.613 615.407c-6.668.051-12.046 5.471-12.046 12.139v19.803L268 647.257V601h28.817l-1.204 14.407z" fill="#4FC1B3"/><circle fill="#3B9F86" cx="69.34" cy="368.34" r="45.34"/><circle fill="#3B9F86" cx="150.253" cy="498.253" r="78.253"/><circle fill="#4FC1B3" cx="176.77" cy="531.77" r="35.77"/><path fill="#3B9F86" d="M61 535h76.238v94.22H61zM50 436.673C50 413.657 68.657 395 91.673 395c23.015 0 41.672 18.657 41.672 41.673 0 23.016-18.657 41.673-41.672 41.673-23.016 0-41.673-18.657-41.673-41.673z"/><path d="M136.169 483.731c0-17.247-13.979-31.225-31.225-31.225a24.78 24.78 0 0 1-20.607-11.018C79.308 433.959 70.734 429 61 429v56.099c4.6 0 8.937-1.114 12.768-3.077a31.25 31.25 0 0 0-.048 1.709c0 17.244 13.98 31.222 31.225 31.222 17.244-.001 31.224-13.978 31.224-31.222zM273 647.912c0 16.568-13.431 30-30 30h-25c-16.569 0-30-13.432-30-30V522h55c16.569 0 30 13.432 30 30v95.912z" fill="#4FC1B3"/><path d="M167.113 541.845a40.71 40.71 0 0 0 2.286-13.467c0-22.539-18.272-40.811-40.81-40.811a40.61 40.61 0 0 0-21.053 5.847c.333-1.578.516-3.211.516-4.889 0-12.993-10.533-23.525-23.526-23.525S61 475.533 61 488.526v50.916h.502v49.503h74.18c.249 1.947 14.219 15.771 31.424 15.771 17.361 0 31.436-14.073 31.436-31.436 0-17.359-14.071-31.432-31.429-31.435z" fill="#1B6C72"/><path d="M512.74 696.869c0-7.107-5.762-12.869-12.87-12.869S487 689.762 487 696.869" fill="#FFF"/><path d="M404.941 719.941c-6.932 6.932-19.779 5.32-19.779 5.32s-1.612-12.849 5.32-19.779c6.93-6.93 19.778-5.32 19.778-5.32s1.61 12.85-5.319 19.78z" fill="#3B9F86"/><path d="M1171.738 702.869c0-7.106-5.762-12.869-12.869-12.869S1146 695.763 1146 702.869" fill="#FFF"/><path d="M1074.739 717.869c0-7.107-5.762-12.869-12.869-12.869-7.108 0-12.87 5.762-12.87 12.869" fill="#3B9F86"/><path d="M314 679c0-26.51-21.49-48-48-48s-48 21.49-48 48 21.49 48 48 48c26.509 0 48-21.49 48-48z" fill="#A9D163"/><path d="M276.416 626.207c0-15.026-12.182-27.207-27.208-27.207C234.181 599 222 611.181 222 626.207c0 15.027 12.181 27.208 27.208 27.208s27.208-12.18 27.208-27.208z" fill="#A9D163"/><g transform="translate(86 533)"><path d="M14.075 16.652C6.412 16.652.203 8.66.203 8.66S6.413.668 14.075.669C21.735.668 27.948 8.66 27.948 8.66s-6.212 7.992-13.873 7.992z" fill="#FFF"/><circle fill="#323232" cx="15.075" cy="8.661" r="5.464"/></g><g fill="#A9D163"><path d="M394.853 668.22a6.307 6.307 0 0 0 12.613 0v-20.385a6.307 6.307 0 0 0-6.307-6.307 6.306 6.306 0 0 0-6.306 6.307v20.385z"/><path d="M399.492 666.101a6.308 6.308 0 0 0 8.919 8.919l14.414-14.414a6.308 6.308 0 0 0 0-8.92 6.306 6.306 0 0 0-8.919.001l-14.414 14.414z"/></g><path d="M306.648 507S280 531.02 280 559.188v112.131" stroke="#A9D163" stroke-width="8"/><path d="M349.218 483.416c9.149 9.148 9.15 23.982 0 33.132-9.149 9.148-23.982 9.148-33.131 0l-19.217-19.217c-9.149-9.149-9.149-23.983 0-33.132 9.15-9.15 23.983-9.149 33.132 0a6.087 6.087 0 0 1 0 8.61l-6.307 6.307 10.608 10.607 6.307-6.307a6.086 6.086 0 0 1 8.608 0z" fill="#F495B6"/><path fill="#FFF" d="M313.029 480.136h20.03v20.031h-20.03z"/><path d="M333.652 490.373a7.5 7.5 0 0 1-10.608-10.606l22.217-22.217a7.5 7.5 0 0 1 10.607 10.607l-22.216 22.216z" fill="#FFC64A"/><path d="M250 416s26.648 24.02 26.648 52.188v201.166" stroke="#A9D163" stroke-width="8"/><g transform="translate(299 554)"><circle fill="#775AA6" cx="19.211" cy="37.81" r="18.59"/><circle fill="#B561A6" cx="36.382" cy="26.59" r="12.394"/><circle fill="#F496BF" cx="44.825" cy="14.953" r="8.263"/><circle fill="#FFC64A" cx="53.096" cy="6.422" r="6.197"/></g><g transform="translate(189 469)"><path d="M8.308 36.991c6.483-6.038 16.635-5.679 22.674.805 6.039 6.486 5.678 16.636-.806 22.674-6.482 6.039-16.635 5.68-22.674-.804-6.038-6.485-5.677-16.636.806-22.675z" fill="#775AA6"/><circle fill="#B561A6" cx="11.47" cy="32.828" r="10.696"/><circle fill="#F496BF" cx="10.352" cy="20.471" r="7.13"/><circle fill="#FFC64A" cx="7.989" cy="10.493" r="5.347"/><circle fill="#FFF" cx="3.873" cy="3.711" r="3.564"/></g><circle fill="#1B6C72" cx="356.823" cy="667.823" r="12.823"/><circle fill="#1B6C72" cx="337.6" cy="663.6" r="10.6"/><path d="M488.334 639.667c0 6.995-5.671 12.666-12.667 12.666-6.996 0-12.667-5.671-12.667-12.666 0-6.996 5.671-12.667 12.667-12.667 6.996 0 12.667 5.671 12.667 12.667z" fill="#4FC1B3"/><circle fill="#3B9F86" cx="1142.5" cy="602.5" r="36.5"/><circle fill="#3B9F86" cx="1201" cy="562" r="53"/><circle fill="#3B9F86" cx="1300.485" cy="520.485" r="70.485"/><g transform="translate(173 90)"><path d="M102.135 16.422c0 8.705-7.058 15.764-15.764 15.764H46.632c-8.706 0-15.764-7.059-15.764-15.764 0-8.706 7.058-15.764 15.764-15.764h39.739c8.706 0 15.764 7.058 15.764 15.764z" fill="#D7F4FF"/><path d="M193.633 50.221c0 12.012-9.737 21.748-21.749 21.748H22.458C10.446 71.969.709 62.233.709 50.221s9.737-21.749 21.749-21.749h149.426c12.012 0 21.749 9.737 21.749 21.749z" fill="#D7F4FF"/><path d="M87.704 50.221c0 12.012-9.737 21.748-21.749 21.748H22.458C10.446 71.969.709 62.233.709 50.221s9.737-21.749 21.749-21.749h43.497c12.012 0 21.749 9.737 21.749 21.749z" fill="#FFF"/><circle fill="#FFF" cx="46.631" cy="16.422" r="15.764"/><path d="M231.696 87.719c0 8.699-7.052 15.75-15.75 15.75h-79.494c-8.698 0-15.75-7.051-15.75-15.75 0-8.698 7.052-15.75 15.75-15.75h79.494c8.699 0 15.75 7.052 15.75 15.75z" fill="#D7F4FF"/><path d="M120.702 87.719c0-8.698 7.052-15.75 15.75-15.75h11.431c8.698 0 15.75 7.052 15.75 15.75 0 8.699-7.052 15.75-15.75 15.75h-11.431c-8.698 0-15.75-7.051-15.75-15.75z" fill="#FFF"/><circle fill="#FFF" cx="50.205" cy="119.969" r="13.29"/></g><path d="M615.744 400.427c0 7.772-6.3 14.071-14.072 14.071h-34.227c-7.772 0-14.072-6.299-14.072-14.071 0-7.772 6.3-14.071 14.072-14.071h34.227c7.772-.001 14.072 6.298 14.072 14.071z" fill="#D7F4FF"/><path d="M644.604 361.386c0 15.382-12.469 27.852-27.852 27.852h-51.416c-15.382 0-27.852-12.47-27.852-27.852s12.469-27.852 27.852-27.852h51.416c15.383 0 27.852 12.47 27.852 27.852z" fill="#D7F4FF"/><path d="M509.733 361.386c0 15.382 12.47 27.852 27.852 27.852h23.08c15.382 0 27.852-12.47 27.852-27.852s-12.469-27.852-27.852-27.852h-23.08c-15.381 0-27.852 12.47-27.852 27.852z" fill="#FFF"/><path d="M597.997 400.427c0 7.772-6.3 14.071-14.072 14.071h-34.227c-7.771 0-14.072-6.299-14.072-14.071 0-7.772 6.301-14.071 14.072-14.071h34.227c7.772-.001 14.072 6.298 14.072 14.071z" fill="#FFF"/><g transform="translate(678 303)"><path d="M90.919 18.47c0 9.941-8.059 18-18 18H18.527c-9.941 0-18-8.059-18-18s8.059-18 18-18h54.392c9.941 0 18 8.058 18 18z" fill="#D7F4FF"/><path d="M50.919 18.47c0 9.941-8.059 18-18 18H18.527c-9.941 0-18-8.059-18-18s8.059-18 18-18h14.392c9.941 0 18 8.058 18 18z" fill="#FFF"/><circle fill="#FFF" cx="31.837" cy="48.118" r="15.764"/></g><g transform="translate(1069 115)"><path d="M169.626 140.296c0 12.426-10.073 22.499-22.499 22.499H73.729c-12.426 0-22.499-10.073-22.499-22.499 0-12.426 10.073-22.499 22.499-22.499h73.398c12.426 0 22.499 10.073 22.499 22.499z" fill="#D7F4FF"/><path d="M105.122 105.564c0 8.414-6.821 15.235-15.235 15.235H40.185c-8.415 0-15.235-6.821-15.235-15.235s6.821-15.235 15.235-15.235h49.702c8.414 0 15.235 6.821 15.235 15.235z" fill="#D7F4FF"/><path d="M96.13 140.296c0 12.426-10.073 22.499-22.499 22.499H37.632c-12.425 0-22.499-10.073-22.499-22.499 0-12.426 10.073-22.499 22.499-22.499h35.999c12.426 0 22.499 10.073 22.499 22.499z" fill="#FFF"/><path d="M55.354 105.564c0 8.414-6.821 15.235-15.235 15.235H15.742c-8.414 0-15.235-6.821-15.235-15.235s6.821-15.235 15.235-15.235h24.377c8.414 0 15.235 6.821 15.235 15.235z" fill="#FFF"/><circle fill="#FFF" cx="158.007" cy="14.061" r="13.499"/><g><path d="M296.953 72.307c0-8.568-6.946-15.514-15.513-15.514h-73.968c-8.567 0-15.513 6.945-15.513 15.514 0 8.567 6.946 15.513 15.513 15.513h73.968c8.567-.001 15.513-6.946 15.513-15.513z" fill="#D7F4FF"/><path d="M247.865 48.821c0 7.456-6.044 13.5-13.5 13.5h-28.907c-7.456 0-13.5-6.044-13.5-13.5s6.044-13.5 13.5-13.5h28.907c7.456 0 13.5 6.044 13.5 13.5z" fill="#D7F4FF"/><path d="M230.959 72.307c0 8.567-6.945 15.513-15.513 15.513h-34.971c-8.568 0-15.513-6.945-15.513-15.513s6.945-15.514 15.513-15.514h34.971c8.568 0 15.513 6.945 15.513 15.514z" fill="#FFF"/><path d="M220.46 48.821c0 7.456-6.044 13.5-13.5 13.5s-13.5-6.044-13.5-13.5 6.044-13.5 13.5-13.5c7.457 0 13.5 6.044 13.5 13.5z" fill="#FFF"/></g></g><circle fill="#3B9F86" cx="1357.485" cy="439.485" r="45.485"/><circle fill="#3B9F86" cx="1466.089" cy="359.089" r="35.089"/><circle fill="#3B9F86" cx="1444.701" cy="439.701" r="56.701"/><circle fill="#1B6C72" cx="1152" cy="663" r="17"/><circle fill="#1B6C72" cx="1177.515" cy="632.515" r="25.515"/><path d="M1181 607.019c0 27.073 21.947 49.021 49.02 49.021 27.072 0 49.019-21.947 49.019-49.021 0-27.07-21.947-49.019-49.019-49.019-27.073.001-49.02 21.949-49.02 49.019z" fill="#1B6C72"/><circle fill="#1B6C72" cx="1177.5" cy="663.5" r="12.5"/><circle fill="#A9D163" cx="1217.792" cy="661.792" r="27.792"/><path fill="#3B9F86" d="M1466 358h35.171v112.609H1466z"/><circle fill="#1B6C72" cx="1393.488" cy="494.488" r="41.488"/><circle fill="#1B6C72" cx="1442" cy="474" r="20"/><circle fill="#1B6C72" cx="1472.423" cy="454.423" r="28.423"/><path fill="#1B6C72" d="M1457 451h44.179v175.214H1457z"/><path fill="#1B6C72" d="M1340 488h126.089v142H1340z"/><circle fill="#A9D163" cx="1255.344" cy="652.344" r="36.344"/><path d="M327 687.076a9.5 9.5 0 0 1-9.5 9.5 9.5 9.5 0 0 1-9.5-9.5V656.5a9.5 9.5 0 0 1 9.5-9.5 9.5 9.5 0 0 1 9.5 9.5v30.576z" fill="#A9D163"/><path d="M419.712 585.637l-10.689 10.855a56.369 56.369 0 0 0-16.203 39.549v31.785" stroke="#A9D163" stroke-width="5"/><g transform="translate(397 565)"><g fill="#FFC64A"><path d="M37.778 20.634c0 8.322-6.746 15.069-15.066 15.069S7.646 28.956 7.646 20.634c0-8.319 6.746-15.063 15.066-15.063 8.32-.001 15.066 6.743 15.066 15.063z"/><path d="M11.451 40.188c-3.59-2.06-4.82-6.649-2.75-10.24 2.07-3.59 6.66-4.819 10.24-2.75 3.59 2.07 4.82 6.66 2.75 10.24a7.497 7.497 0 0 1-6.5 3.76c-1.27 0-2.56-.319-3.74-1.01zm12.32-2.75a7.5 7.5 0 0 1 2.72-10.25c3.59-2.069 8.18-.85 10.25 2.73a7.5 7.5 0 0 1-2.72 10.25 7.463 7.463 0 0 1-3.76 1.01 7.49 7.49 0 0 1-6.49-3.74zM.141 20.688a7.505 7.505 0 0 1 7.49-7.52c4.14-.01 7.51 3.34 7.51 7.479.01 4.141-3.34 7.511-7.48 7.521h-.01c-4.14.001-7.5-3.35-7.51-7.48zm30.14-.049v-.04c-.02-4.14 3.32-7.51 7.47-7.53a7.51 7.51 0 0 1 7.53 7.471v.099c0 4.14-3.36 7.49-7.5 7.49-4.15 0-7.5-3.351-7.5-7.49zm-21.62-9.26a7.485 7.485 0 0 1 2.7-10.25 7.5 7.5 0 0 1 10.26 2.7 7.51 7.51 0 0 1-2.71 10.26 7.457 7.457 0 0 1-3.77 1.02 7.473 7.473 0 0 1-6.48-3.73zm17.81 2.68h-.01a7.493 7.493 0 0 1-2.77-10.229 7.498 7.498 0 0 1 10.24-2.78c3.59 2.06 4.83 6.649 2.77 10.24a7.478 7.478 0 0 1-6.51 3.77 7.393 7.393 0 0 1-3.72-1.001z"/></g><circle fill="#FFF" cx="22.712" cy="20.636" r="5.802"/></g><circle fill="#1B6C72" cx="379.825" cy="660.825" r="17.825"/><path d="M1350.463 522.895c7.206-4.623 11.985-12.698 11.985-21.895 0-14.36-11.641-26-26-26s-26 11.64-26 26c0 .947.051 1.883.149 2.804a15.84 15.84 0 0 1-15.75 17.531c-27.529 0-49.847 22.317-49.847 49.848v.22c0 27.53 22.317 49.848 49.847 49.848h43.201c27.529 0 49.847-22.317 49.847-49.848v-.22c.001-23.244-15.909-42.771-37.432-48.288z" fill="#1B6C72"/><path d="M232 557.542a15.359 15.359 0 0 1 22.067 13.818v35.128" stroke="#A9D163" stroke-width="8"/><path d="M240.016 578.234a4.773 4.773 0 0 1-1.553 6.57 4.774 4.774 0 0 1-6.569-1.555l-14.182-22.969a4.774 4.774 0 0 1 1.553-6.568 4.775 4.775 0 0 1 6.569 1.553l14.182 22.97z" fill="#1B6C72"/><g><path d="M300.698 432.61c-6.932 6.932-19.779 5.319-19.779 5.319s-1.612-12.848 5.319-19.778c6.93-6.931 19.779-5.32 19.779-5.32s1.611 12.85-5.319 19.779z" fill="#A9D163"/><path d="M282.293 436.939l-8.098 8.099" stroke="#A9D163" stroke-width="6"/></g><g><path d="M262.271 482.63c6.932 6.932 5.319 19.779 5.319 19.779s-12.847 1.613-19.778-5.318c-6.931-6.93-5.32-19.779-5.32-19.779s12.849-1.612 19.779 5.318z" fill="#A9D163"/><path d="M266.6 501.036l8.099 8.098" stroke="#A9D163" stroke-width="6"/></g><g transform="translate(1272 492)"><path d="M9.562 41.678c7.253-6.757 18.614-6.354 25.372.9 6.757 7.258 6.353 18.615-.903 25.371-7.253 6.758-18.614 6.355-25.372-.899-6.756-7.257-6.351-18.614.903-25.372z" fill="#775AA6"/><circle fill="#B561A6" cx="13.1" cy="37.019" r="11.968"/><circle fill="#F496BF" cx="11.848" cy="23.192" r="7.978"/><circle fill="#FFC64A" cx="9.205" cy="12.027" r="5.984"/><circle fill="#FFF" cx="4.599" cy="4.438" r="3.988"/></g><g><path d="M228.758 374.323c9.149-9.149 23.983-9.15 33.132 0 9.148 9.148 9.148 23.982 0 33.132l-19.217 19.217c-9.149 9.148-23.983 9.148-33.132 0-9.15-9.15-9.149-23.983 0-33.132a6.086 6.086 0 0 1 8.609 0l6.307 6.307 10.607-10.607-6.307-6.307a6.09 6.09 0 0 1 .001-8.61z" fill="#F495B6"/><path fill="#FFF" d="M225.478 390.482h20.031v20.03h-20.031z"/><path d="M235.715 389.89a7.5 7.5 0 1 1-10.606 10.607l-22.217-22.217a7.5 7.5 0 1 1 10.607-10.606l22.216 22.216z" fill="#FFC64A"/></g><circle fill="#A9D163" cx="1220.908" cy="629.908" r="13.908"/><g><path d="M1181.299 556.065l10.69 10.855a56.369 56.369 0 0 1 16.203 39.549v31.785" stroke="#A9D163" stroke-width="5"/><g transform="translate(1158 535)"><g fill="#FFC64A"><path d="M8.233 21.062c0 8.322 6.746 15.069 15.065 15.069 8.321 0 15.067-6.747 15.067-15.069 0-8.319-6.746-15.063-15.067-15.063-8.319 0-15.065 6.744-15.065 15.063z"/><path d="M24.311 37.869c-2.06-3.58-.83-8.171 2.75-10.24a7.505 7.505 0 0 1 10.25 2.75c2.07 3.59.84 8.18-2.75 10.24a7.483 7.483 0 0 1-3.74 1.01 7.515 7.515 0 0 1-6.51-3.76zm-12.32 2.73a7.512 7.512 0 0 1-2.73-10.25 7.503 7.503 0 0 1 10.26-2.729 7.5 7.5 0 0 1 2.72 10.25 7.496 7.496 0 0 1-6.49 3.739 7.548 7.548 0 0 1-3.76-1.01zm26.36-12a7.505 7.505 0 0 1-7.49-7.52 7.502 7.502 0 0 1 7.52-7.48c4.14.01 7.49 3.37 7.48 7.521a7.498 7.498 0 0 1-7.5 7.479h-.01zm-37.62-7.54V20.969c.02-4.14 3.39-7.49 7.53-7.47 4.15.02 7.49 3.39 7.47 7.529v.031c0 4.15-3.36 7.5-7.5 7.5-4.14 0-7.5-3.35-7.5-7.5zm26.37-6.54c-3.58-2.09-4.8-6.68-2.71-10.26 2.08-3.58 6.68-4.79 10.26-2.7 3.57 2.08 4.79 6.67 2.7 10.25a7.506 7.506 0 0 1-6.49 3.73c-1.28 0-2.58-.33-3.76-1.02zm-17.79-2.8c-2.07-3.59-.82-8.18 2.77-10.24a7.501 7.501 0 0 1 10.24 2.78c2.06 3.59.82 8.17-2.78 10.229-1.17.681-2.45 1-3.72 1-2.6 0-5.13-1.349-6.51-3.769z"/></g><circle fill="#FFF" cx="23.3" cy="21.064" r="5.802"/></g><path d="M1209.732 628.652V468.961" stroke="#A9D163" stroke-width="5"/><g transform="translate(1188 447)"><g fill="#FFC64A"><path d="M7.543 21.071c0 8.322 6.746 15.069 15.066 15.069s15.066-6.747 15.066-15.069c0-8.319-6.746-15.063-15.066-15.063-8.319 0-15.066 6.744-15.066 15.063z"/><path d="M23.621 37.879a7.505 7.505 0 0 1 2.76-10.24c3.58-2.07 8.17-.84 10.24 2.75 2.07 3.59.84 8.17-2.75 10.24a7.483 7.483 0 0 1-3.74 1.01c-2.59 0-5.12-1.35-6.51-3.76zm-12.32 2.729a7.512 7.512 0 0 1-2.73-10.25c2.08-3.59 6.67-4.81 10.25-2.729 3.59 2.08 4.81 6.67 2.73 10.25a7.501 7.501 0 0 1-6.5 3.74 7.51 7.51 0 0 1-3.75-1.011zm26.36-12a7.505 7.505 0 0 1-7.49-7.52 7.502 7.502 0 0 1 7.52-7.48 7.497 7.497 0 0 1 7.48 7.521c0 4.13-3.36 7.479-7.49 7.479h-.02zm-37.62-7.54V20.978c.02-4.14 3.39-7.49 7.53-7.47 4.14.02 7.49 3.39 7.47 7.53v.03c0 4.141-3.35 7.5-7.5 7.5-4.14 0-7.5-3.359-7.5-7.5zm26.37-6.54c-3.58-2.09-4.8-6.68-2.71-10.26a7.485 7.485 0 0 1 10.25-2.7c3.58 2.08 4.79 6.67 2.71 10.25a7.504 7.504 0 0 1-6.49 3.73 7.418 7.418 0 0 1-3.76-1.02zm-17.79-2.799c-2.07-3.59-.82-8.18 2.77-10.24a7.501 7.501 0 0 1 10.24 2.78c2.06 3.59.82 8.17-2.78 10.23a7.48 7.48 0 0 1-10.23-2.77z"/></g><circle fill="#FFF" cx="22.61" cy="21.073" r="5.802"/></g><path d="M1239.547 594.007c-8.61 4.688-20.476-.494-20.476-.494s2.087-12.778 10.697-17.466c8.607-4.687 20.476.493 20.476.493s-2.09 12.781-10.697 17.467z" fill="#A9D163"/><path d="M1220.668 592.951l-10.058 5.478" stroke="#A9D163" stroke-width="3"/><g><path d="M1238.972 546.48c-8.61 4.688-20.476-.494-20.476-.494s2.087-12.778 10.697-17.466c8.607-4.687 20.476.493 20.476.493s-2.09 12.782-10.697 17.467z" fill="#A9D163"/><path d="M1220.093 545.425l-10.058 5.477" stroke="#A9D163" stroke-width="3"/></g><g><path d="M1180.701 517.741c8.61 4.688 20.476-.494 20.476-.494s-2.087-12.778-10.697-17.466c-8.607-4.687-20.476.493-20.476.493s2.09 12.782 10.697 17.467z" fill="#A9D163"/><path d="M1199.58 516.686l10.058 5.477" stroke="#A9D163" stroke-width="3"/></g></g><g><g transform="translate(1195 371)"><circle fill="#4FC1B3" cx="202.355" cy="210.263" r="45.466"/><path d="M231.821 298.719c0 16.568 13.432 30 30 30H276c16.568 0 30-13.432 30-30v-139.65c0-20.483-16.605-37.089-37.089-37.089-20.484 0-37.089 16.605-37.089 37.089v139.65h-.001z" fill="#4FC1B3"/><path fill="#4FC1B3" d="M192.598 263.669h113.484V381H192.598z"/><g transform="translate(96 198)" fill="#3B9F86"><circle cx="97.831" cy="98.338" r="81.08"/><path d="M87.391 196.369c-9.25-.971-16.05-8.98-15.65-18.141-5.09 7.63-15.3 10.08-23.34 5.41-8.04-4.66-10.98-14.74-6.88-22.93-7.74 4.899-18.06 3-23.52-4.521-5.46-7.52-4.06-17.93 3.02-23.77-9.08 1.34-17.75-4.61-19.66-13.71-1.91-9.09 3.6-18.021 12.43-20.46-8.82-2.471-14.32-11.41-12.39-20.49 1.94-9.1 10.61-15.03 19.69-13.67-7.06-5.851-8.44-16.271-2.96-23.78 5.47-7.5 15.79-9.38 23.52-4.46-4.08-8.21-1.12-18.28 6.93-22.92 8.05-4.66 18.27-2.18 23.33 5.47-.38-9.17 6.44-17.16 15.69-18.12 9.23-.949 17.53 5.46 19.05 14.48 3.37-8.521 12.84-13.061 21.68-10.19 8.85 2.88 13.83 12.13 11.54 21.011 6.55-6.41 17.04-6.7 23.94-.48 6.9 6.22 7.7 16.68 2.01 23.86 8.59-3.21 18.3.79 22.09 9.279 3.78 8.49.25 18.391-7.88 22.631 9.14.579 16.38 8.18 16.38 17.47v.33c-.08 9.229-7.31 16.76-16.41 17.319 8.12 4.261 11.62 14.16 7.82 22.65-3.8 8.47-13.52 12.45-22.1 9.23 5.67 7.189 4.85 17.649-2.06 23.85-6.92 6.21-17.41 5.89-23.95-.53 2.28 8.88-2.73 18.12-11.58 20.98-8.85 2.85-18.31-1.71-21.66-10.25-1.43 8.42-8.76 14.55-17.23 14.55a16.27 16.27 0 0 1-1.85-.098zm3.67-34.81c6.71.71 12.13 5.12 14.45 10.99 1.07-6.21 5.46-11.62 11.87-13.69 6.4-2.069 13.13-.25 17.63 4.16-1.55-6.109.26-12.85 5.27-17.35 5.01-4.5 11.91-5.57 17.81-3.37a17.5 17.5 0 0 1-2.21-17.98c2.75-6.14 8.6-9.909 14.87-10.31-5.57-2.94-9.36-8.79-9.34-15.53v-.14c0-6.74 3.81-12.59 9.39-15.51-6.28-.41-12.12-4.2-14.86-10.341-2.74-6.159-1.65-13.04 2.25-17.989-5.91 2.189-12.8 1.109-17.81-3.41v.01c-5-4.51-6.8-11.26-5.24-17.36-4.5 4.391-11.23 6.2-17.63 4.12-6.4-2.08-10.78-7.5-11.84-13.71-2.34 5.86-7.77 10.25-14.47 10.95-6.69.69-12.89-2.49-16.38-7.72.25 6.28-2.91 12.49-8.73 15.85-5.84 3.37-12.81 3-18.13-.37 2.79 5.65 2.42 12.63-1.55 18.07-3.97 5.44-10.48 7.92-16.7 7.01 4.83 4.021 7.33 10.521 5.93 17.101-1.4 6.59-6.34 11.52-12.41 13.22a17.499 17.499 0 0 1 12.38 13.25c1.39 6.58-1.13 13.07-5.97 17.08 6.23-.9 12.74 1.6 16.69 7.04 3.96 5.46 4.31 12.43 1.51 18.08 5.33-3.36 12.3-3.721 18.13-.34a17.51 17.51 0 0 1 8.7 15.869c3.17-4.739 8.57-7.779 14.53-7.779.61-.001 1.23.039 1.86.099z"/></g><path d="M268.911 164.797v-57.825a60.389 60.389 0 0 0-15.887-40.821L238.822 50.67" stroke="#A9D163" stroke-width="8"/><path d="M257.845 177.516a4.773 4.773 0 0 1-5.015-8.121l22.969-14.182a4.773 4.773 0 0 1 5.015 8.121l-22.969 14.182z" fill="#1B6C72"/><path d="M221.848 9.349c9.148-9.149 23.982-9.15 33.132 0 9.148 9.148 9.148 23.982 0 33.131l-19.217 19.217c-9.149 9.149-23.983 9.149-33.132 0-9.15-9.149-9.149-23.982 0-33.131a6.086 6.086 0 0 1 8.609 0l6.307 6.307 10.607-10.607-6.307-6.307a6.09 6.09 0 0 1 .001-8.61z" fill="#F495B6"/><path fill="#FFF" d="M218.791 25.507h20.03v20.031h-20.03z"/><path d="M228.805 24.915a7.5 7.5 0 0 1 .001 10.607 7.499 7.499 0 0 1-10.607 0l-22.217-22.217a7.5 7.5 0 0 1 10.607-10.607l22.216 22.217z" fill="#FFC64A"/><path d="M246.233 108.424c9.403 2.773 14.129 14.828 14.129 14.828s-10.512 7.56-19.914 4.786c-9.4-2.772-14.13-14.827-14.13-14.827s10.515-7.561 19.915-4.787z" fill="#A9D163"/><path d="M258.836 122.52l10.985 3.239" stroke="#A9D163" stroke-width="6"/><path d="M291.94 66.063c-6.932 6.932-19.779 5.319-19.779 5.319s-1.613-12.848 5.318-19.778c6.93-6.931 19.779-5.32 19.779-5.32s1.612 12.85-5.318 19.779z" fill="#A9D163"/><path d="M273.534 70.393l-8.098 8.098" stroke="#A9D163" stroke-width="6"/><path d="M138.607 379.669H37.334c-15.43 0-27.938-12.508-27.938-27.938s12.508-27.938 27.938-27.938h101.273v55.876z" fill="#4FC1B3"/><circle fill="#4FC1B3" cx="50.818" cy="315.371" r="12.52"/><g transform="translate(56 198)" fill="#3BB67D"><circle cx="97.667" cy="98.338" r="81.08"/><path d="M87.221 196.369c-9.24-.971-16.04-8.98-15.65-18.141-5.08 7.63-15.3 10.08-23.34 5.41-8.03-4.66-10.97-14.74-6.88-22.93-7.74 4.899-18.05 3-23.51-4.521-5.46-7.52-4.06-17.93 3.02-23.77-9.09 1.34-17.75-4.61-19.67-13.71-1.9-9.09 3.61-18.011 12.43-20.46-8.81-2.471-14.31-11.4-12.38-20.49 1.93-9.1 10.61-15.03 19.69-13.67-7.07-5.851-8.44-16.26-2.97-23.771v-.01c5.48-7.5 15.8-9.38 23.53-4.46-4.08-8.21-1.12-18.28 6.93-22.92 8.05-4.66 18.26-2.18 23.33 5.47-.38-9.17 6.44-17.16 15.69-18.12 9.23-.949 17.53 5.46 19.05 14.48 3.37-8.521 12.84-13.061 21.68-10.19 8.84 2.87 13.83 12.13 11.53 21.011 6.55-6.41 17.05-6.7 23.95-.48 6.9 6.22 7.7 16.68 2 23.86 8.59-3.21 18.31.79 22.09 9.279 3.79 8.49.26 18.391-7.88 22.631 9.15.579 16.39 8.18 16.39 17.47v.22c-.03 9.29-7.28 16.87-16.42 17.43 8.12 4.261 11.63 14.16 7.82 22.65-3.8 8.47-13.52 12.45-22.1 9.23 5.68 7.189 4.86 17.649-2.05 23.85-6.92 6.21-17.42 5.89-23.95-.53 2.28 8.88-2.73 18.12-11.58 20.98-8.85 2.85-18.31-1.71-21.66-10.24-1.44 8.41-8.76 14.54-17.23 14.54-.61.002-1.23-.029-1.86-.098zm3.68-34.81c6.7.71 12.12 5.12 14.44 10.99a17.495 17.495 0 0 1 11.88-13.69c6.4-2.069 13.13-.25 17.62 4.15-1.55-6.1.26-12.84 5.28-17.34 5.01-4.5 11.91-5.57 17.81-3.37-3.89-4.95-4.97-11.84-2.21-17.98 2.75-6.14 8.59-9.909 14.87-10.31-5.57-2.94-9.36-8.79-9.35-15.53v-.14c0-6.74 3.81-12.59 9.39-15.51-6.27-.41-12.12-4.2-14.86-10.341-2.74-6.149-1.64-13.04 2.26-17.989-5.91 2.189-12.81 1.109-17.81-3.41v.01c-5.01-4.51-6.8-11.26-5.24-17.36-4.51 4.391-11.24 6.2-17.64 4.12s-10.78-7.5-11.84-13.71a17.506 17.506 0 0 1-14.47 10.95c-6.69.69-12.89-2.49-16.37-7.72.24 6.28-2.92 12.49-8.74 15.85-5.83 3.37-12.8 3-18.13-.37 2.79 5.65 2.43 12.63-1.55 18.07-3.96 5.44-10.47 7.92-16.7 7.01 4.83 4.021 7.33 10.521 5.94 17.101-1.41 6.59-6.35 11.52-12.42 13.22 6.07 1.71 11 6.65 12.39 13.25 1.38 6.58-1.13 13.07-5.97 17.08 6.23-.9 12.73 1.6 16.68 7.04h.01c3.96 5.46 4.31 12.43 1.51 18.08 5.33-3.36 12.3-3.721 18.12-.33 5.82 3.37 8.96 9.58 8.71 15.859 3.17-4.739 8.56-7.779 14.53-7.779.61-.001 1.23.039 1.86.099z"/></g><g transform="translate(116 244)"><g fill="#FFC64A"><circle cx="17.752" cy="18.012" r="9.931"/><path d="M10.261 27.948c0-1.1.24-2.14.66-3.079-.94.42-1.98.659-3.08.67-4.15 0-7.51-3.351-7.52-7.49-.01-4.14 3.34-7.51 7.48-7.51 1.1-.011 2.15.229 3.09.649a7.368 7.368 0 0 1-.67-3.08 7.504 7.504 0 0 1 7.48-7.529 7.502 7.502 0 0 1 7.52 7.479 7.6 7.6 0 0 1-.65 3.09 7.54 7.54 0 0 1 3.08-.68c4.14-.021 7.51 3.33 7.53 7.47V18.009c0 4.14-3.36 7.5-7.5 7.5-1.1 0-2.14-.23-3.08-.66.42.94.66 1.99.66 3.09.01 4.141-3.35 7.5-7.49 7.5-4.14.009-7.5-3.34-7.51-7.491zm5.06-9.929c0 1.101-.23 2.15-.66 3.09.94-.43 1.99-.67 3.09-.67 1.11 0 2.15.24 3.1.67a7.46 7.46 0 0 1-.67-3.1v-.01c0-1.101.23-2.15.65-3.09-.94.43-1.99.67-3.09.67-1.1.01-2.15-.23-3.09-.65.43.94.67 1.99.67 3.09z"/></g><circle fill="#FFF" cx="17.752" cy="18.013" r="3.824"/></g><g transform="translate(161 307)"><g fill="#FFC64A"><circle cx="17.997" cy="18.301" r="9.931"/><path d="M10.511 28.238c0-1.1.23-2.14.65-3.079-.93.42-1.98.659-3.08.659-4.14.011-7.51-3.34-7.51-7.479a7.504 7.504 0 0 1 7.48-7.521c1.1 0 2.14.24 3.09.66a7.533 7.533 0 0 1-.68-3.08 7.51 7.51 0 0 1 7.48-7.529 7.495 7.495 0 0 1 7.52 7.479c.01 1.1-.23 2.14-.65 3.09.94-.43 1.99-.68 3.09-.68 4.14-.021 7.51 3.33 7.53 7.47V18.299c0 4.14-3.36 7.5-7.5 7.5-1.1 0-2.15-.23-3.09-.66.43.94.67 1.98.67 3.08 0 4.15-3.35 7.51-7.49 7.51a7.49 7.49 0 0 1-7.51-7.491zm4.4-6.84c.94-.43 1.98-.67 3.09-.67 1.1 0 2.15.24 3.09.67-.43-.95-.66-2-.66-3.1v-.01a7.26 7.26 0 0 1 .65-3.091c-.94.431-1.99.671-3.09.671-1.11 0-2.15-.23-3.1-.65.43.94.67 1.979.67 3.09a7.401 7.401 0 0 1-.65 3.09z"/></g><circle fill="#FFF" cx="17.997" cy="18.302" r="3.824"/></g><g transform="translate(0 303)"><circle fill="#775AA6" cx="34.43" cy="32.374" r="15.526"/><circle fill="#B561A6" cx="20.09" cy="23.003" r="10.351"/><circle fill="#F496BF" cx="13.039" cy="13.285" r="6.9"/><circle fill="#FFC64A" cx="6.131" cy="6.16" r="5.175"/></g></g><g fill="#4FC1B3"><path d="M335.213 731.506c0 13.336-10.812 24.147-24.148 24.147h-72.907c-13.336 0-24.148-10.812-24.148-24.147 0-13.337 10.812-24.148 24.148-24.148h72.907c13.336-.001 24.148 10.811 24.148 24.148z"/><path d="M243.088 700.59c0-11.035 8.946-19.981 19.981-19.981 11.036 0 19.982 8.946 19.982 19.981v.001c0 11.035-8.946 19.981-19.982 19.981-11.035 0-19.981-8.946-19.981-19.982z"/></g><g transform="translate(34 567)" fill="#3B9F86"><circle cx="113.754" cy="112.611" r="95.62"/><path d="M113.711 212.339c-2.7 8.09-10.98 13.2-19.63 11.689-8.66-1.529-14.71-9.17-14.47-17.71-5.31 6.69-14.85 8.65-22.46 4.25-7.61-4.399-10.66-13.649-7.51-21.58-7.27 4.46-16.9 3.061-22.55-3.67-5.65-6.729-5.37-16.47.3-22.85-8.37 1.72-16.95-2.9-19.96-11.16-3.01-8.27.6-17.33 8.12-21.39-8.44-1.24-14.92-8.521-14.92-17.311V112.367c.02-8.79 6.51-16.051 14.94-17.28-7.5-4.07-11.08-13.141-8.06-21.391 3.02-8.26 11.6-12.859 19.96-11.13-5.64-6.39-5.9-16.12-.24-22.84v.01c5.67-6.72 15.3-8.109 22.56-3.63-3.13-7.939-.06-17.18 7.55-21.569 7.62-4.391 17.17-2.4 22.46 4.3-.22-8.54 5.84-16.18 14.51-17.68 8.65-1.5 16.92 3.63 19.6 11.72 2.7-8.08 10.99-13.19 19.63-11.66 8.67 1.53 14.7 9.19 14.46 17.72 5.31-6.68 14.86-8.64 22.47-4.22 7.59 4.41 10.63 13.66 7.48 21.58 7.27-4.45 16.9-3.03 22.54 3.7 5.65 6.729 5.35 16.47-.32 22.85 8.37-1.71 16.95 2.92 19.95 11.18 3 8.271-.62 17.33-8.15 21.381 8.44 1.25 14.91 8.539 14.9 17.329 0 8.78-6.48 16.04-14.92 17.29 7.51 4.061 11.11 13.12 8.09 21.381-3.02 8.26-11.6 12.869-19.95 11.14 5.64 6.39 5.92 16.12.26 22.85-5.65 6.721-15.29 8.12-22.55 3.641 3.14 7.939.08 17.18-7.53 21.58-7.61 4.399-17.17 2.42-22.47-4.28.24 8.54-5.82 16.189-14.48 17.7-1.02.18-2.03.27-3.03.27-7.49 0-14.22-4.83-16.58-11.97zm-13.58-22.79c6.55 1.149 11.61 5.81 13.58 11.7 1.98-5.891 7.04-10.54 13.59-11.681 6.54-1.149 12.86 1.5 16.72 6.36-.16-6.2 2.99-12.3 8.74-15.62v.01c5.76-3.33 12.62-3.01 17.92.23a17.494 17.494 0 0 1 2.89-17.69c4.27-5.08 10.82-7.12 16.9-5.88-4.09-4.649-5.58-11.34-3.31-17.569 2.28-6.24 7.73-10.391 13.86-11.311-5.45-2.97-9.15-8.76-9.15-15.4.01-6.659 3.73-12.439 9.2-15.39-6.14-.93-11.59-5.1-13.85-11.34-2.27-6.24-.76-12.94 3.35-17.58-6.08 1.23-12.64-.82-16.9-5.91a17.486 17.486 0 0 1-2.86-17.689c-5.31 3.229-12.17 3.529-17.91.199-5.74-3.329-8.88-9.43-8.72-15.619a17.488 17.488 0 0 1-16.72 6.319c-6.55-1.16-11.6-5.819-13.57-11.71-1.98 5.88-7.05 10.53-13.6 11.67v-.01c-6.54 1.14-12.86-1.52-16.71-6.38.15 6.2-3.01 12.29-8.76 15.61-5.76 3.319-12.63 2.989-17.92-.261 2.27 5.78 1.38 12.601-2.91 17.681v.01c-4.28 5.07-10.83 7.1-16.9 5.86 4.08 4.659 5.57 11.35 3.28 17.579-2.28 6.23-7.73 10.381-13.87 11.29 5.46 2.98 9.15 8.771 9.13 15.41v.17c0 6.65-3.71 12.44-9.17 15.4 6.13.92 11.59 5.08 13.86 11.32v.01c2.27 6.24.77 12.93-3.34 17.58 6.09-1.24 12.64.8 16.92 5.89 4.27 5.09 5.15 11.91 2.87 17.69 5.3-3.24 12.16-3.551 17.91-.221 5.75 3.32 8.89 9.41 8.73 15.61 3.26-4.09 8.27-6.6 13.67-6.6 1.01.003 2.03.083 3.05.263z"/></g><g fill="#3BB67D"><path d="M18.022 677.609c0 52.81 42.811 95.621 95.619 95.621 52.81 0 72.19-42.812 72.19-95.621s-19.38-95.621-72.19-95.621c-52.808 0-95.619 42.812-95.619 95.621z"/><path d="M95.261 789.238c-8.84-1.439-15.04-9.279-14.66-18.01-5.19 7.04-14.93 9.25-22.72 4.83-7.78-4.42-10.88-13.899-7.52-21.96-7.28 4.811-17.17 3.53-22.96-3.28-5.8-6.83-5.45-16.8.48-23.21-8.5 2.021-17.36-2.59-20.45-11s.68-17.66 8.48-21.63c-8.67-1.04-15.39-8.42-15.39-17.37v-.37c.03-8.949 6.77-16.3 15.43-17.329-7.77-3.99-11.51-13.25-8.4-21.65 3.12-8.39 11.98-12.97 20.48-10.93-5.91-6.431-6.22-16.4-.4-23.19 5.81-6.81 15.71-8.05 22.98-3.21-3.35-8.07-.22-17.55 7.58-21.94 7.81-4.399 17.55-2.159 22.71 4.9-.36-8.74 5.87-16.55 14.72-17.97 8.84-1.42 17.19 4.05 19.59 12.45 2.8-8.44 11.61-13.54 20.47-11.53 9.11 2.07 14.94 10.89 13.39 19.99 6.82-6.391 17.53-6.311 24.24.31 6.63 6.521 6.96 17.01.94 23.93 8.62-2.12 17.6 2.601 20.64 11.141 2.95 8.27-.72 17.3-8.25 21.31 8.33.7 15.19 7.32 15.93 15.93.74 8.471-4.7 16.051-12.57 18.32 7.87 2.28 13.29 9.87 12.54 18.34-.75 8.61-7.63 15.221-15.97 15.91 7.53 4.021 11.17 13.061 8.2 21.34-3.06 8.53-12.07 13.21-20.68 11.07 5.98 6.95 5.59 17.44-1.06 23.93-6.75 6.58-17.46 6.61-24.25.19 1.5 9.1-4.36 17.89-13.47 19.91-8.86 1.97-17.65-3.16-20.42-11.61-2.16 7.48-9.05 12.63-16.78 12.62-.94-.001-1.89-.072-2.85-.232zm5.65-34.54c6.66 1.091 11.82 5.801 13.8 11.79 1.73-5.93 6.55-10.76 13.01-12.199 5.89-1.311 11.74.52 15.82 4.37a17.47 17.47 0 0 1 5.06-15.36c4.49-4.38 10.74-5.86 16.42-4.46-3.96-4.62-5.39-11.18-3.19-17.311 2.39-6.659 8.39-10.97 15-11.529-5.97-3.21-9.78-9.771-9.15-16.96.65-7.41 5.83-13.33 12.57-15.28-6.74-1.96-11.91-7.89-12.55-15.3-.62-7.2 3.21-13.75 9.2-16.95-6.62-.57-12.61-4.91-14.98-11.57-2.19-6.16-.73-12.72 3.26-17.33-5.69 1.38-11.95-.13-16.43-4.54a17.483 17.483 0 0 1-4.97-15.39c-4.1 3.83-9.96 5.63-15.84 4.3-6.44-1.46-11.24-6.31-12.95-12.24-2 5.98-7.18 10.671-13.83 11.74-6.7 1.07-13.13-1.81-16.89-6.93.25 6.35-2.98 12.6-8.9 15.93a17.467 17.467 0 0 1-18.26-.66c2.42 5.891 1.54 12.891-2.88 18.061-4.41 5.16-11.18 7.12-17.36 5.649 4.29 4.69 5.86 11.551 3.5 17.91-2.36 6.36-8.03 10.53-14.33 11.29 5.65 2.92 9.5 8.82 9.48 15.62v.259c0 6.801-3.88 12.7-9.54 15.59 6.3.78 11.96 4.971 14.3 11.351v-.01c2.34 6.38.74 13.239-3.56 17.909 6.19-1.449 12.95.53 17.36 5.711 4.4 5.18 5.26 12.18 2.82 18.05 5.31-3.49 12.35-3.95 18.26-.601 5.9 3.351 9.11 9.61 8.85 15.95 3.24-4.37 8.42-7.09 14.05-7.09.94.001 1.9.071 2.85.23z"/></g><g transform="translate(127 608)"><g fill="#FFC64A"><circle cx="17.646" cy="18.158" r="9.931"/><path d="M10.161 28.099c-.01-1.1.23-2.15.66-3.09-.94.43-1.99.67-3.09.67-4.14.01-7.51-3.34-7.52-7.48-.01-4.14 3.35-7.51 7.49-7.52 1.1 0 2.14.23 3.09.66-.43-.94-.67-1.99-.68-3.09-.01-4.141 3.34-7.511 7.48-7.521a7.496 7.496 0 0 1 7.52 7.48c.01 1.1-.23 2.14-.65 3.08.94-.431 1.98-.67 3.09-.67 4.02-.021 7.31 3.13 7.51 7.109.01.141.02.28.02.431 0 4.14-3.36 7.5-7.51 7.5-1.09 0-2.14-.24-3.08-.66.43.939.67 1.979.67 3.08 0 4.14-3.35 7.51-7.5 7.51-4.14.011-7.5-3.35-7.5-7.489zm5.05-9.94a7.281 7.281 0 0 1-.66 3.1c.95-.43 1.99-.67 3.1-.67 1.1 0 2.15.24 3.09.66-.43-.94-.67-1.99-.67-3.09v-.011c0-1.1.23-2.149.66-3.1-.95.43-1.99.68-3.09.68-1.11 0-2.15-.229-3.1-.66.43.951.67 1.991.67 3.091z"/></g><circle fill="#FFF" cx="17.646" cy="18.159" r="3.824"/></g><g transform="translate(109 697)"><circle fill="#F28B58" cx="18.308" cy="17.976" r="9.931"/><path d="M10.821 27.919c0-1.101.23-2.15.66-3.09-.94.43-1.99.67-3.09.67-4.14.01-7.51-3.34-7.52-7.48v-.01c0-4.14 3.35-7.5 7.49-7.51 1.1 0 2.14.229 3.09.649a7.533 7.533 0 0 1-.68-3.08c-.01-4.14 3.34-7.51 7.48-7.52 4.14-.021 7.51 3.33 7.52 7.47a7.405 7.405 0 0 1-.65 3.09c.94-.43 1.99-.67 3.09-.68 4.02-.01 7.31 3.14 7.52 7.12 0 .14.01.28.01.43 0 4.141-3.36 7.5-7.5 7.5-1.1 0-2.15-.24-3.09-.67.43.95.67 1.99.67 3.09a7.51 7.51 0 0 1-7.49 7.511c-4.15 0-7.51-3.35-7.51-7.49zm5.06-9.94c0 1.11-.24 2.15-.66 3.101.94-.431 1.99-.67 3.09-.67 1.1 0 2.15.239 3.09.659a7.567 7.567 0 0 1-.66-3.09v-.01c-.01-1.11.23-2.15.65-3.1-.94.43-1.99.67-3.09.68-1.1 0-2.15-.23-3.1-.66.43.94.67 1.99.68 3.09z" fill="#FFC64A"/><circle fill="#FFF" cx="18.308" cy="17.977" r="3.824"/></g><g transform="translate(75 647)"><g fill="#FFC64A"><circle cx="17.654" cy="17.933" r="9.931"/><path d="M10.161 27.869c0-1.101.24-2.141.66-3.08-.94.42-1.98.659-3.08.67a7.505 7.505 0 0 1-7.52-7.49 7.49 7.49 0 0 1 7.49-7.51c1.1-.011 2.14.229 3.08.649a7.368 7.368 0 0 1-.67-3.08 7.497 7.497 0 0 1 7.48-7.52c4.14-.021 7.51 3.33 7.52 7.47 0 1.101-.23 2.15-.65 3.09a7.49 7.49 0 0 1 10.61 6.79v.071c0 4.15-3.35 7.5-7.5 7.5-1.1 0-2.14-.23-3.08-.66.42.94.66 1.99.66 3.09.01 4.141-3.35 7.5-7.49 7.511a7.513 7.513 0 0 1-7.51-7.501zm5.06-9.931a7.259 7.259 0 0 1-.66 3.09 7.62 7.62 0 0 1 3.1-.659c1.1-.011 2.15.229 3.09.659a7.426 7.426 0 0 1-.67-3.1v-.01c0-1.101.23-2.15.66-3.09-.95.43-1.99.67-3.1.67-1.1.01-2.14-.23-3.09-.65.43.941.67 1.991.67 3.09z"/></g><circle fill="#FFF" cx="17.654" cy="17.934" r="3.824"/></g></g></g></svg>