<svg width="1440" height="752" viewBox="0 0 1440 752" xmlns="http://www.w3.org/2000/svg"><title>strathcona-piano</title><g fill="none" fill-rule="evenodd"><path d="M918.791 718.068c0-6.737-5.462-12.197-12.198-12.197H565.989c-6.738 0-12.199 5.46-12.199 12.197 0 6.736 5.461 12.197 12.2 12.197h340.603c6.736 0 12.198-5.46 12.198-12.197" fill="#5AB55C"/><path d="M935.568 488.101c0-8.38-6.793-15.172-15.172-15.172H520.788c-8.379 0-15.171 6.792-15.171 15.172V548.5h429.951v-60.399" fill="#782C2A"/><path d="M624.259 485.044h36.333v43.551h-36.333v-43.551z" fill="#FFF"/><path d="M627.842 488.727h29.167v2.849h-29.167v-2.849zM627.842 494.381h29.167v2.849h-29.167v-2.849zM627.842 500.035h29.167v2.849h-29.167v-2.849zM627.842 505.689h29.167v2.85h-29.167v-2.85zM627.842 511.343h29.167v2.85h-29.167v-2.85zM627.842 516.997h29.167v2.849h-29.167v-2.849zM627.842 522.651h29.167v2.849h-29.167v-2.849z" fill="#323232"/><path d="M505.617 582.484h429.951v81.739H505.617v-81.739z" fill="#782C2A"/><path d="M505.617 560.877h429.951v21.607H505.617v-21.607z" fill="#C94244"/><path d="M491.036 549.345h23.395v114.879h-23.395V549.345zM926.754 549.345h23.394v114.879h-23.394V549.345z" fill="#C94244"/><path d="M956.081 532.454a3.86 3.86 0 0 0-3.859-3.859H488.963a3.859 3.859 0 0 0-3.859 3.859v24.564a3.86 3.86 0 0 0 3.859 3.859h462.866a4.252 4.252 0 0 0 4.252-4.252v-24.171" fill="#C94244"/><path d="M917.592 550.876H522.083v-4.422a3.858 3.858 0 0 1 3.858-3.859h387.792a3.859 3.859 0 0 1 3.859 3.859v4.422" fill="#000"/><path d="M932.083 554.793c0-2.162-1.729-3.917-3.859-3.917H511.451c-2.131 0-3.859 1.755-3.859 3.917v6.084h424.491v-6.084" fill="#FFF"/><path d="M553.793 636.091h333.6v35.423h-333.6v-35.423z" fill="#C94244"/><path d="M553.79 644.515h20.67v73.61h-20.67v-73.61zM866.722 644.515h20.67v73.61h-20.67v-73.61z" fill="#C94244"/><path d="M894.892 625.472a3.86 3.86 0 0 0-3.859-3.86H550.151a3.859 3.859 0 0 0-3.858 3.86v21.238a3.858 3.858 0 0 0 3.858 3.859h340.882a3.859 3.859 0 0 0 3.859-3.859v-21.238" fill="#FFF"/></g></svg>