<svg width="1440" height="752" viewBox="0 0 1440 752" xmlns="http://www.w3.org/2000/svg"><title>travelling-piano</title><g fill="none" fill-rule="evenodd"><path d="M899.638 724.676c0-6.73-5.454-12.183-12.183-12.183H547.297c-6.729 0-12.183 5.454-12.183 12.183 0 6.728 5.454 12.183 12.183 12.183h340.158c6.729 0 12.183-5.455 12.183-12.183M966.867 670.774c0-6.73-5.455-12.183-12.183-12.183H484.398c-2.524 0-4.867.767-6.812 2.081a12.168 12.168 0 0 0-5.371 10.102c0 6.728 5.455 12.183 12.183 12.183h470.286c2.523 0 4.867-.767 6.812-2.081a12.171 12.171 0 0 0 5.371-10.101v-.001" fill="#5AB55C"/><path d="M933.566 494.012c0-8.39-6.802-15.19-15.193-15.19H518.225c-8.391 0-15.193 6.8-15.193 15.19v60.48h430.534v-60.48" fill="#222532"/><path d="M536.36 490.952h36.382v43.609h-36.383v-43.609z" fill="#FFF"/><path d="M539.947 494.64h29.207v2.853h-29.207v-2.854zM539.947 500.302h29.207v2.852h-29.207v-2.852zM539.947 505.963h29.207v2.853h-29.207v-2.853zM539.947 511.624h29.207v2.853h-29.207v-2.853zM539.947 517.286h29.207v2.854h-29.207v-2.854zM539.947 522.948h29.207v2.852h-29.207v-2.852zM539.947 528.609h29.207v2.853h-29.207v-2.853z" fill="#323232"/><path d="M585.924 496.908h36.382v43.609h-36.382v-43.609z" fill="#FFF"/><path d="M589.511 500.596h29.207v2.854H589.51v-2.854zM589.511 506.258h29.207v2.852H589.51v-2.852zM589.511 511.919h29.207v2.853H589.51v-2.853zM589.511 517.58h29.207v2.854H589.51v-2.854zM589.511 523.242h29.207v2.854H589.51v-2.854zM589.511 528.903h29.207v2.853H589.51v-2.853zM589.511 534.565h29.207v2.853H589.51v-2.853z" fill="#323232"/><path d="M503.032 582.938h430.534v87.43H503.032v-87.43z" fill="#4E515B"/><path d="M503.032 566.886h430.534v21.635H503.032v-21.635z" fill="#222532"/><path d="M488.432 555.338h23.426V670.37h-23.426v-115.03zM924.74 555.338h23.425V670.37H924.74v-115.03z" fill="#222532"/><path d="M954.107 538.425a3.864 3.864 0 0 0-3.865-3.864H486.356a3.864 3.864 0 0 0-3.864 3.864v24.595a3.865 3.865 0 0 0 3.864 3.866h463.493a4.258 4.258 0 0 0 4.258-4.258v-24.203" fill="#4E515B"/><path d="M915.566 556.871H519.52v-4.428a3.863 3.863 0 0 1 3.864-3.864H911.7a3.863 3.863 0 0 1 3.865 3.864v4.428" fill="#000"/><path d="M930.075 560.793c0-2.164-1.73-3.92-3.864-3.92H508.874c-2.134 0-3.864 1.756-3.864 3.92v6.093h425.065v-6.093" fill="#FFF"/><path d="M551.274 642.199h334.052v35.47H551.274v-35.47z" fill="#71747C"/><path d="M551.274 650.634h20.698v73.706h-20.698v-73.706zM864.627 650.634h20.698v73.706h-20.698v-73.706z" fill="#71747C"/><path d="M892.835 631.566a3.865 3.865 0 0 0-3.864-3.865H547.628a3.864 3.864 0 0 0-3.864 3.865v21.266a3.863 3.863 0 0 0 3.864 3.864H888.97a3.864 3.864 0 0 0 3.864-3.864v-21.266" fill="#222532"/><path d="M671.411 523.611c15.521-15.06 28.015-22.936 50.412-22.936s40.552 10.27 40.552 22.936h-90.964M838.356 514.058a9.554 9.554 0 1 0-19.108 0 9.554 9.554 0 0 0 9.554 9.553c5.276 0 9.554-4.277 9.554-9.553M808.335 516.038a7.574 7.574 0 1 0-15.148 0 7.574 7.574 0 0 0 15.148 0M877.21 511.253c0-6.825-5.534-12.358-12.359-12.358-6.826 0-12.359 5.533-12.359 12.358 0 6.826 5.533 12.358 12.359 12.358 6.825 0 12.359-5.532 12.359-12.358" fill="#FFF"/><path d="M883.572 519.982a3.63 3.63 0 0 0-3.63-3.631h-14.894a3.63 3.63 0 0 0 0 7.26h14.893a3.63 3.63 0 0 0 3.631-3.63M843.727 520.892a2.719 2.719 0 0 0-2.718-2.719h-11.602a2.72 2.72 0 0 0 0 5.438h11.602a2.719 2.719 0 0 0 2.718-2.72M812.269 521.12a2.493 2.493 0 0 0-2.493-2.493h-9.029a2.493 2.493 0 0 0 0 4.984h9.03a2.492 2.492 0 0 0 2.492-2.492M674.762 522.357a3.35 3.35 0 1 0-6.701 0 3.35 3.35 0 0 0 6.7 0M616.48 672.934c0-6.132-4.97-11.102-11.103-11.102-6.132 0-11.102 4.97-11.102 11.102M653.995 672.934c0-6.132-4.97-11.102-11.102-11.102-6.133 0-11.102 4.97-11.102 11.102M691.51 672.934c0-6.132-4.97-11.102-11.103-11.102-6.132 0-11.102 4.97-11.102 11.102M729.026 672.934c0-6.132-4.97-11.102-11.103-11.102-6.132 0-11.102 4.97-11.102 11.102M766.541 672.934c0-6.132-4.97-11.102-11.102-11.102-6.132 0-11.103 4.97-11.103 11.102M804.057 672.934c0-6.132-4.97-11.102-11.102-11.102-6.133 0-11.103 4.97-11.103 11.102M841.573 672.934c0-6.132-4.971-11.102-11.103-11.102s-11.103 4.97-11.103 11.102" fill="#FFF"/></g></svg>