<svg width="1440" height="752" viewBox="0 0 1440 752" xmlns="http://www.w3.org/2000/svg"><title>travelling</title><g fill="none" fill-rule="evenodd"><path d="M-1.475-1.956h1442.032v337.87H-1.475V-1.955z" fill="#28D2FF"/><path d="M332.554 61.202c0 13.272-10.76 24.03-24.032 24.03H193.48c-13.273 0-24.032-10.758-24.032-24.03 0-13.271 10.759-24.031 24.032-24.031h115.043c13.271 0 24.032 10.76 24.032 24.031" fill="#D7F4FF"/><path d="M404.652 100.428c0 8.947-7.253 16.2-16.199 16.2h-139.76c-8.948 0-16.2-7.253-16.2-16.2s7.252-16.2 16.2-16.2h139.76c8.946 0 16.2 7.253 16.2 16.2" fill="#D7F4FF"/><path d="M290.498 100.43c0 8.946-7.252 16.199-16.198 16.199h-41.036c-8.946 0-16.199-7.253-16.199-16.199 0-8.947 7.253-16.2 16.2-16.2h41.034c8.946 0 16.199 7.253 16.199 16.2" fill="#FFF"/><path d="M270.076 61.202c0 13.272-10.758 24.03-24.03 24.03h-52.567c-13.273 0-24.032-10.758-24.032-24.03 0-13.271 10.759-24.031 24.032-24.031h52.567c13.272 0 24.03 10.76 24.03 24.031M154.48 101.109c0-7.465-6.052-13.518-13.519-13.518-7.467 0-13.518 6.053-13.518 13.518 0 7.467 6.051 13.518 13.518 13.518 7.467 0 13.519-6.051 13.519-13.518" fill="#FFF"/><path d="M1017.231 45.277c0 9.54-7.733 17.273-17.272 17.273H873.794c-9.54 0-17.273-7.733-17.273-17.273 0-9.537 7.733-17.27 17.273-17.27H999.96c9.539 0 17.272 7.733 17.272 17.27" fill="#D7F4FF"/><path d="M813.942 77.492c0 8.804 7.139 15.943 15.943 15.943h84.289c8.805 0 15.942-7.139 15.942-15.943 0-8.807-7.137-15.943-15.942-15.943h-84.29c-8.803 0-15.942 7.136-15.942 15.943" fill="#D7F4FF"/><path d="M861.947 77.492c0 8.804-7.139 15.943-15.943 15.943h-21.612c-8.805 0-15.942-7.139-15.942-15.943 0-8.805 7.137-15.943 15.942-15.943h21.612c8.804 0 15.943 7.138 15.943 15.943M889.352 45.28c0 9.537-7.733 17.27-17.273 17.27s-17.272-7.733-17.272-17.27c0-9.54 7.733-17.273 17.272-17.273 9.54 0 17.273 7.733 17.273 17.272" fill="#FFF"/><path d="M766.934 78.493c0-8.783-7.122-15.904-15.906-15.904-8.785 0-15.906 7.12-15.906 15.904 0 8.785 7.121 15.905 15.906 15.905 8.784 0 15.906-7.12 15.906-15.905" fill="#D7F4FF"/><path d="M559.447 240.207h81.635v105.56h-81.635v-105.56z" fill="#878C94"/><path d="M612.931 151.535h102.75v194.232h-102.75V151.535zM794.502 82.569h102.75v263.198h-102.75V82.569zM945.109 109.31h102.75v236.457h-102.75V109.31zM1102.75 181.092h102.751v164.675h-102.75V181.092z" fill="#878C94"/><path d="M1197.056 248.65h102.749v97.116h-102.75V248.65z" fill="#878C94"/><path d="M1271.654 116.347h78.162v229.419h-78.162V116.347zM711.458 227.539h112.603v118.227H711.458V227.539zM-1.475 424.586v-158.03h54.744v-82.644l33.46 25.078c6.42 4.815 13.321 8.365 20.445 10.711v-35.789l33.459 25.078c6.42 4.815 13.322 8.365 20.447 10.711v-35.789l33.457 25.078c6.423 4.815 13.323 8.365 20.447 10.711v-35.789l33.459 25.078a72.953 72.953 0 0 0 4.771 3.299c24.234 15.368 53.996 14.27 77.44-3.299l33.466-25.078v240.674H-1.475" fill="#878C94"/><path d="M107.63 295.097h139.345v50.669H107.63v-50.67zM1184.15 341.512h69.817v34.908h-69.818v-34.908z" fill="#A6ADB9"/><path d="M351.132 268.088h160.055v145.238H351.132V268.088z" fill="#878C94"/><path d="M-1.475 335.915h1442.032v419.703H-1.475V335.915z" fill="#A6ADB9"/><path d="M-1.475 469.644h1442.032V755.62H-1.475V469.644z" fill="#DBDEE3"/><path d="M45.722 439.606h75.236v67.585H45.722v-67.585z" fill="#DBDEE3"/><path d="M156.956 371.61l-49.326 42.958v92.624h98.652v-92.624l-49.326-42.957" fill="#DBDEE3"/><path d="M217.066 371.61l-49.326 42.958v92.624h98.651v-92.624l-49.325-42.957" fill="#DBDEE3"/><path d="M279.121 382.507l-49.325 42.956v92.624h98.651v-92.624l-49.326-42.956" fill="#DBDEE3"/><path d="M344.21 371.61l-49.326 42.958v92.624h98.651v-92.624L344.21 371.61M1357.792 371.61l-49.326 42.958v92.624h98.652v-92.624l-49.326-42.957" fill="#DBDEE3"/><path d="M1407.576 371.61l-49.325 42.958v92.624h98.651v-92.624l-49.326-42.957M1105.298 371.61h75.688v110.028h-75.688V371.611z" fill="#DBDEE3"/><path d="M1171.056 406.038h75.689v75.6h-75.689v-75.6z" fill="#DBDEE3"/><path d="M1243.639 316.21h84.16v165.428h-84.16V316.211z" fill="#DBDEE3"/><path d="M222.071 603.445c0-16.279 13.196-29.475 29.475-29.475 16.28 0 29.476 13.196 29.476 29.475 0 16.277-13.197 29.473-29.476 29.473s-29.475-13.196-29.475-29.473" fill="#3B9F86"/><path d="M165.305 603.445c0-16.279 13.197-29.475 29.476-29.475 16.278 0 29.475 13.196 29.475 29.475 0 16.277-13.197 29.473-29.475 29.473-16.279 0-29.476-13.196-29.476-29.473" fill="#3B9F86"/><path d="M206.789 563.055c0-16.278 13.196-29.474 29.474-29.474 16.28 0 29.475 13.196 29.475 29.474s-13.196 29.473-29.475 29.473c-16.278 0-29.474-13.195-29.474-29.473" fill="#3B9F86"/><path d="M183.87 592.528c0-16.278 13.197-29.473 29.476-29.473 16.278 0 29.475 13.195 29.475 29.473 0 16.279-13.197 29.475-29.475 29.475-16.279 0-29.475-13.196-29.475-29.475M119.457 592.528c0-16.278 13.196-29.473 29.474-29.473 16.28 0 29.476 13.195 29.476 29.473 0 16.279-13.196 29.475-29.476 29.475-16.278 0-29.474-13.196-29.474-29.475" fill="#3B9F86"/><path d="M52.867 584.887c0-24.116 19.55-43.664 43.666-43.664 24.117 0 43.667 19.548 43.667 43.664 0 24.116-19.55 43.666-43.667 43.666-24.115 0-43.666-19.55-43.666-43.666M57.46 477.735c0-24.595 19.937-44.53 44.533-44.53 24.595 0 44.533 19.935 44.533 44.53 0 24.593-19.938 44.53-44.533 44.53-24.596 0-44.533-19.937-44.533-44.53" fill="#3B9F86"/><path d="M52.073 525.938c0-23.348 18.928-42.275 42.278-42.275 23.35 0 42.279 18.927 42.279 42.275 0 23.35-18.929 42.278-42.279 42.278-23.35 0-42.278-18.928-42.278-42.278" fill="#3B9F86"/><path d="M120.386 535.454c0-28.682 23.251-51.933 51.935-51.933 28.683 0 51.935 23.251 51.935 51.933 0 28.683-23.252 51.934-51.935 51.934-28.684 0-51.935-23.251-51.935-51.934M-1.425 417.834c0-26.364 21.373-47.736 47.737-47.736 26.366 0 47.739 21.372 47.739 47.736 0 26.364-21.373 47.736-47.739 47.736-26.364 0-47.737-21.372-47.737-47.736" fill="#3B9F86"/><path d="M-1.425 417.834H74.06v200.89H-1.425v-200.89z" fill="#3B9F86"/><path d="M40.685 533.793c0-11.643-9.438-21.081-21.08-21.081-11.644 0-21.08 9.438-21.08 21.08 0 11.642 9.436 21.08 21.08 21.08 11.642 0 21.08-9.438 21.08-21.08" fill="#3B8186"/><path d="M-1.475 533.793h42.16v80.272h-42.16v-80.272z" fill="#3B8186"/><path d="M89.084 549.78c0 15.147-12.28 27.425-27.427 27.425-15.146 0-27.426-12.278-27.426-27.425s12.28-27.426 27.426-27.426c15.148 0 27.427 12.279 27.427 27.426" fill="#3B8186"/><path d="M108.906 579.968c0 10.343-8.385 18.727-18.73 18.727-10.342 0-18.727-8.384-18.727-18.727s8.385-18.728 18.728-18.728c10.344 0 18.73 8.385 18.73 18.728" fill="#3B8186"/><path d="M125.407 604.347c0 8.754-7.098 15.852-15.853 15.852-8.756 0-15.853-7.098-15.853-15.852 0-8.756 7.097-15.853 15.853-15.853 8.755 0 15.853 7.097 15.853 15.853" fill="#3B8186"/><path d="M28.313 592.528h81.241v21.334H28.313v-21.334z" fill="#3B8186"/><path d="M28.313 568.216h57.496v29.675H28.313v-29.675zM125.458 604.347c0 8.754-7.097 15.852-15.853 15.852s-15.853-7.098-15.853-15.852c0-8.756 7.097-15.853 15.853-15.853s15.853 7.097 15.853 15.853" fill="#3B8186"/><path d="M-1.425 571.953H31.22v46.25H-1.425v-46.25z" fill="#A9D163"/><path d="M31.22 571.953c0 9.014-7.308 16.322-16.323 16.322-9.014 0-16.322-7.308-16.322-16.322 0-9.015 7.308-16.321 16.322-16.321 9.015 0 16.323 7.306 16.323 16.321" fill="#A9D163"/><path d="M45.164 589.01c0 5.23-4.24 9.47-9.469 9.47a9.469 9.469 0 0 1-9.47-9.47 9.47 9.47 0 0 1 18.939 0" fill="#A9D163"/><path d="M64.821 610.128c0 10.659-8.638 19.299-19.298 19.299-10.658 0-19.298-8.64-19.298-19.3 0-10.657 8.64-19.297 19.298-19.297 10.66 0 19.298 8.64 19.298 19.298" fill="#A9D163"/><path d="M1239.883 577.042c0-18.995-15.4-34.393-34.395-34.393-18.996 0-34.396 15.398-34.396 34.393 0 18.996 15.4 34.395 34.396 34.395 18.996 0 34.395-15.399 34.395-34.395" fill="#3B9F86"/><path d="M1185.389 596.38c0-13.107-10.627-23.733-23.735-23.733-13.11 0-23.736 10.626-23.736 23.733 0 13.11 10.626 23.735 23.736 23.735 13.108 0 23.735-10.625 23.735-23.735M1277.181 538.258c0-17.52-14.203-31.723-31.725-31.723-17.522 0-31.725 14.203-31.725 31.723s14.203 31.724 31.725 31.724c17.522 0 31.725-14.204 31.725-31.724" fill="#3B9F86"/><path d="M1332.68 538.88c0-17.52-14.203-31.724-31.726-31.724-17.522 0-31.725 14.203-31.725 31.725 0 17.52 14.203 31.723 31.725 31.723 17.523 0 31.726-14.202 31.726-31.723" fill="#3B9F86"/><path d="M1440.556 507.157c0-33.472-27.135-60.61-60.611-60.61s-60.612 27.138-60.612 60.61c0 33.474 27.136 60.609 60.612 60.609s60.611-27.135 60.611-60.61" fill="#3B9F86"/><path d="M1231.363 534.11h209.193v77.835h-209.193v-77.836z" fill="#3B9F86"/><path d="M1163.98 581.74h276.576v46.24H1163.98v-46.24z" fill="#3B9F86"/><path d="M1349.021 611.625c0-12.004-9.731-21.735-21.734-21.735-12.003 0-21.735 9.73-21.735 21.735 0 12.003 9.732 21.733 21.735 21.733s21.734-9.73 21.734-21.733" fill="#3B8186"/><path d="M1381.506 507.157h59.051v72.976h-59.05v-72.976z" fill="#3B9F86"/><path d="M1382.134 580.58c0-15.583-12.634-28.216-28.216-28.216-15.583 0-28.216 12.633-28.216 28.217 0 15.581 12.633 28.213 28.216 28.213 15.582 0 28.216-12.632 28.216-28.213M1394.02 528.484h46.536v96.389h-46.536v-96.39z" fill="#3B8186"/><path d="M1389.474 531.803c0-14.105 11.435-25.54 25.541-25.54 14.107 0 25.541 11.435 25.541 25.54 0 14.106-11.434 25.54-25.54 25.54-14.107 0-25.542-11.434-25.542-25.54" fill="#3B8186"/><path d="M1400.648 553.027c0-8.984-7.282-16.265-16.265-16.265s-16.266 7.281-16.266 16.265c0 8.982 7.283 16.265 16.266 16.265 8.983 0 16.265-7.283 16.265-16.265" fill="#3B8186"/><path d="M1345.223 564.513h69.791v47.432h-69.791v-47.432z" fill="#3B8186"/><path d="M1416.482 594.754h24.012v21.837h-24.012v-21.837z" fill="#A9D163"/><path d="M1440.494 594.419c0 6.63-5.375 12.005-12.006 12.005-6.63 0-12.006-5.375-12.006-12.005 0-6.63 5.376-12.005 12.006-12.005s12.006 5.374 12.006 12.005" fill="#A9D163"/><path d="M1379.304 602.717c0-11.122 9.015-20.138 20.138-20.138 11.122 0 20.139 9.016 20.139 20.138 0 11.121-9.017 20.137-20.139 20.137-11.123 0-20.138-9.016-20.138-20.137" fill="#A9D163"/><path d="M1440.494 435.748c0-12.193-9.883-22.076-22.075-22.076s-22.075 9.883-22.075 22.076c0 12.19 9.883 22.074 22.075 22.074s22.075-9.883 22.075-22.074" fill="#3B9F86"/><path d="M1411.031 435.748h29.463v68.824h-29.463v-68.824z" fill="#3B9F86"/><path d="M1278.627 617.969a4.885 4.885 0 1 1-9.77 0V602.18a4.885 4.885 0 1 1 9.77 0v15.788" fill="#3B8186"/><path d="M1269.695 613.226a4.885 4.885 0 0 1-9.77 0v-15.79a4.885 4.885 0 0 1 9.77 0v15.79" fill="#A9D163"/><path d="M1266.101 611.583a4.885 4.885 0 1 1-6.908 6.91l-11.164-11.165a4.885 4.885 0 1 1 6.908-6.908l11.164 11.163M1293.522 556.985c-5.368-5.369-4.12-15.319-4.12-15.319s9.951-1.248 15.32 4.12c5.368 5.368 4.12 15.318 4.12 15.318s-9.952 1.249-15.32-4.119" fill="#A9D163"/><path d="M1262.03 566.604c-7.593 0-13.746-7.92-13.746-7.92s6.153-7.92 13.746-7.92c7.592 0 13.746 7.92 13.746 7.92s-6.154 7.92-13.746 7.92" fill="#3B8186"/><path d="M156.018 551.641c-5.045 5.045-14.396 3.872-14.396 3.872s-1.173-9.35 3.872-14.394c5.043-5.045 14.395-3.872 14.395-3.872s1.172 9.35-3.871 14.394M183.179 564.942c-7.135-.001-12.918-7.44-12.918-7.44s5.783-7.443 12.917-7.442c7.133 0 12.915 7.441 12.915 7.441s-5.782 7.44-12.914 7.44" fill="#A9D163"/><path d="M171.136 591.462c-5.045-5.045-3.871-14.394-3.871-14.394s9.35-1.174 14.395 3.87c5.043 5.044 3.87 14.395 3.87 14.395s-9.349 1.173-14.394-3.871" fill="#3B8186"/><path d="M-1.475 611.438h1442.032v144.18H-1.475v-144.18z" fill="#A9D163"/><path d="M292.307 439.632a8.072 8.072 0 1 0-16.143 0v185.85a8.071 8.071 0 0 0 8.072 8.072 8.07 8.07 0 0 0 8.071-8.071V439.632" fill="#F0505E"/><path d="M223.805 438.38a6.82 6.82 0 0 0 6.82 6.82h54.862a6.82 6.82 0 0 0 0-13.64h-54.862a6.82 6.82 0 0 0-6.82 6.82M371.553 626.776a6.348 6.348 0 0 0-6.348-6.349h-82.692a6.35 6.35 0 0 0 0 12.696h82.692a6.348 6.348 0 0 0 6.348-6.347" fill="#F0505E"/><path d="M302.593 620.698c0-11.703-9.487-21.19-21.19-21.19-11.701 0-21.19 9.487-21.19 21.19 0 11.7 9.489 21.186 21.19 21.186 11.703 0 21.19-9.485 21.19-21.186" fill="#222532"/><path d="M288.517 620.696a7.114 7.114 0 0 0-14.226 0 7.113 7.113 0 0 0 14.226 0" fill="#A6ADB9"/><path d="M1459.202 715.204c0-6.729-5.454-12.183-12.183-12.183h-417.604c-6.73 0-12.184 5.454-12.184 12.183 0 6.728 5.455 12.183 12.184 12.183h417.604c6.729 0 12.183-5.455 12.183-12.183" fill="#5AB55C"/><path d="M1037.73 700.884l245.333-124.478.01.048c2.448 11.632-3.218 23.422-13.819 28.801l-209.382 106.24a15.473 15.473 0 0 1-22.141-10.61" fill="#DBDEE3"/><path d="M338.245 687.488c0-7.117 5.77-12.886 12.887-12.886 7.117 0 12.887 5.77 12.887 12.886" fill="#FFF"/><path d="M1008.153 648.641c0-7.116 5.769-12.886 12.886-12.886 7.118 0 12.888 5.77 12.888 12.886" fill="#5AB55C"/><path d="M1105.298 634.424c0-7.117 5.77-12.886 12.887-12.886 7.117 0 12.887 5.77 12.887 12.886" fill="#FFF"/><path d="M110.486 655.085c0-7.118 5.769-12.886 12.887-12.886 7.117 0 12.887 5.768 12.887 12.886" fill="#5AB55C"/><path d="M419.155 131.83h92.033v247.762h-92.033V131.83z" fill="#A6ADB9"/><path d="M496.108 183.797h70.376v195.795h-70.376V183.797zM670.64 254.28h121.048v91.486H670.64V254.28zM824.06 278.208h121.048v67.559H824.06v-67.56z" fill="#A6ADB9"/><path d="M884.585 148.72h92.896v197.047h-92.896V148.72zM1033.782 57.233h92.896v288.533h-92.896V57.233zM1347.66 57.233h92.897v288.533h-92.897V57.233zM496.108 286.654h121.047v59.112H496.108v-59.112zM330.018 306.358h121.05v39.408h-121.05v-39.408zM746.647 199.389h91.489v146.378h-91.489V199.389z" fill="#A6ADB9"/><path d="M552.474 363.6l-49.325 42.957v92.624H601.8v-92.624L552.474 363.6M808.45 413.848l-49.327 42.955v92.624h98.651v-92.624l-49.324-42.955" fill="#DBDEE3"/><path d="M900.84 371.61l-49.326 42.958v92.624h98.651v-92.624L900.84 371.61M727.828 399.53l-49.326 42.955v92.625h98.651v-92.625l-49.325-42.955" fill="#DBDEE3"/><path d="M643.714 399.53l-49.326 42.955v92.625h98.652v-92.625l-49.326-42.955M368.501 330.439h87.118v151.199h-87.118v-151.2zM933.921 353.469h87.118v128.169h-87.118V353.469z" fill="#DBDEE3"/><path d="M1009.941 399.53h65.517v82.108h-65.517V399.53z" fill="#DBDEE3"/><path d="M513.831 359.203c-4.45 0-8.431 1.973-11.143 5.082-3.565-7.104-10.91-11.984-19.4-11.984-6.67 0-12.633 3.012-16.613 7.747-5.143-10.373-15.835-17.51-28.197-17.51-17.375 0-31.46 14.086-31.46 31.458h121.607c0-8.17-6.624-14.793-14.794-14.793" fill="#FFF"/><path d="M1284.132 109.933c0 9.955-8.07 18.023-18.024 18.023h-54.466c-9.954 0-18.024-8.068-18.024-18.023 0-9.954 8.07-18.024 18.024-18.024h54.466c9.953 0 18.024 8.07 18.024 18.024" fill="#D7F4FF"/><path d="M1244.078 109.933c0 9.955-8.07 18.023-18.024 18.023h-14.412c-9.954 0-18.024-8.068-18.024-18.023 0-9.954 8.07-18.024 18.024-18.024h14.412c9.953 0 18.024 8.07 18.024 18.024" fill="#FFF"/><path d="M1240.755 139.62c0 8.72-7.067 15.785-15.785 15.785-8.717 0-15.785-7.066-15.785-15.784 0-8.717 7.068-15.785 15.785-15.785 8.718 0 15.785 7.068 15.785 15.785" fill="#FFF"/><path d="M515.367 373.996h13.259v23.531h-13.259v-23.531z" fill="#DBDEE3"/><path d="M1241.271 183.006c0-8.852 7.175-16.026 16.026-16.026h218.28v512.283h-210.285c-13.267 0-24.02-10.754-24.02-24.02V183.006" fill="#222532"/><path d="M1455.347 621.538h-214.076v35.11c0 12.49 10.124 22.615 22.614 22.615h191.462v-57.725" fill="#4E515B"/><path d="M1216.28 679.263c0-5.916 4.795-10.711 10.711-10.711h70.86v10.71h-81.571" fill="#4E515B"/><path d="M1250.283 630.55a9.011 9.011 0 0 0-9.012-9.012 9.011 9.011 0 0 0-9.012 9.011v19.56a9.011 9.011 0 0 0 9.012 9.011 9.011 9.011 0 0 0 9.012-9.012V630.55" fill="#EF5281"/></g></svg>