<svg width="1440" height="752" viewBox="0 0 1440 752" xmlns="http://www.w3.org/2000/svg" xmlns:xlink="http://www.w3.org/1999/xlink"><title>woodwards</title><defs><path id="a" d="M0 757h1486.435V.425H0z"/></defs><g fill="none" fill-rule="evenodd"><path fill="#FFC7A4" d="M-.647 751.575h1440.082V-5H-.647z"/><path fill="#BF957B" d="M513.72 339.777h239.6V116.022h-239.6zM513.72 607.585h239.6V383.83h-239.6zM233.36 339.777h239.6V116.022h-239.6zM233.36 607.585h239.6V383.83h-239.6zM-47 339.777h239.6V116.022H-47zM-47 607.585h239.6V383.83H-47z"/><path fill="#FFD2B6" d="M1184.611 751.575h254.823V-5h-254.823z"/><path fill="#BF957B" d="M1229.47 233.338v-55.855h-208.985v112.155h208.984z"/><path fill="#FFE9DB" d="M-.647 751.575h1440.082v-143.99H-.647z"/><path fill="#B1DBF6" d="M526.731 339.777h239.6V116.022h-239.6zM526.731 607.585h239.6V383.83h-239.6zM246.37 339.777h239.6V116.022h-239.6zM246.37 607.585h239.6V383.83h-239.6zM-33.99 339.777h239.6V116.022h-239.6zM-33.99 607.585h239.6V383.83h-239.6z"/><path fill="#E0F1FB" d="M585.958 607.585h51.565l69.73-223.755h-51.566zM654.892 607.585h20.491l69.73-223.755h-20.492zM276.661 607.585h58.001l78.432-223.755h-58zM354.199 607.585h23.049L455.68 383.83h-23.05zM-6.004 607.585h65.061l87.98-223.755H81.974zM80.972 607.585h25.854l87.979-223.755H168.95zM585.958 339.777h51.565l69.73-223.755h-51.566zM654.892 339.777h20.491l69.73-223.755h-20.492zM276.661 339.777h58.001l78.432-223.755h-58zM354.199 339.777h23.049l78.432-223.755h-23.05zM-6.004 339.777h65.061l87.98-223.755H81.974zM80.972 339.777h25.854l87.979-223.755H168.95z"/><g transform="translate(-47 -5.425)"><path d="M1091.633 441.129H911.731s26.49 70.102 94.876 79.644c0 0 48.987-29.866 85.026-79.644z" fill="#D9D9D9"/><path d="M1006.607 520.773c-61.496-20.43-89.652-69.477-89.652-69.477h-53.953c13.081 63.579 78.826 99.49 104.536 102.424 25.711 2.935 39.069-32.947 39.069-32.947" fill="#A5A5A5"/><path d="M896.136 666.312v-17.448a77.489 77.489 0 0 1 28.813-60.286c45.66-36.872 132.92-108.898 166.684-147.45v86.71L896.136 666.313zM990.367 164.63c17.724-22.148 15.195-63.758 3.517-105.62-97.504-3.717-236.369 15.336-266.386 52.81-30.017 37.474-15.043 108.318-15.043 108.318s143.028-63.33 277.912-55.508" fill="#BFBFBF"/><path d="M814.64 317.552c-39.506-21.127-103.536-73.854-103.536-106.07 0-31.3 71.49-78.486 272.595-62.402 7.665.613 11.507 9.574 6.668 15.55l-38.761 47.87-60.082-.077 4.612 99.91-81.495 5.22z" fill="#8F8F8F"/><path d="M878.458 305.4s-51.556-48.482-37.933-74.366c13.623-25.885 51-18.61 51-18.61 34.826 37.681 71.61 91.734 71.61 91.734s-72.628 29.29-84.677 1.243" fill="#A5A5A5"/><path d="M1049.561 238.763s-38.147 15.44-70.844 16.349c-32.698.908-51.77-26.34-60.854-42.69h-26.34c19.074 57.222 47.504 81.745 60.083 91.736h50.076s37.888-22.707 47.88-65.395" fill="#D9D9D9"/><path d="M978.717 304.158s50.863-26.34 70.844-65.395v73.569l-70.844-8.174z" fill="#A5A5A5"/><mask id="b" fill="#fff"><use xlink:href="#a"/></mask><path fill="#303030" mask="url(#b)" d="M1179.229 327.856h97.241v-32.793h-97.241z"/><path fill="#B1DBF6" mask="url(#b)" d="M1165.819 295.063h110.65v-56.3h-110.65z"/><path fill="#FFF" mask="url(#b)" d="M1165.819 248.467h110.65v-9.704h-110.65z"/><path d="M732.14 454.564c-19.543-29.607-19.512-65.029 0-115.892 67.65-32.698 155.75-34.514 187.54-34.514h112.37s129.227-45.413 133.769-65.395c30.88 33.606 21.799 91.369 0 107.9-21.798 16.532-125.34 70.119-125.34 70.119s-121.708 24.347-308.34 37.782" fill="#BFBFBF" mask="url(#b)"/><path d="M967.538 553.72c-66.83.194-195.068-42.528-237.938-102.56-4.92-6.888-.731-16.534 7.668-17.586 21.977-2.754 63.993-7.096 114.293-7.709 74.476-.909 188.917-9.083 188.917-9.083l-67.21 34.514H863s19.79 63.16 104.538 102.424" fill="#8F8F8F" mask="url(#b)"/><path d="M1185.58 441.129h-93.946V541.29s70.905-59.671 93.947-100.162" fill="gray" mask="url(#b)"/><path d="M863.002 673.42h186.02l148.05-117.21s14.483-85.246-11.491-115.082c0 0-169.518 166.228-322.58 232.292" fill="#FFF" mask="url(#b)"/><path fill="#E0F1FB" mask="url(#b)" d="M1201.045 295.063h25.846l18.244-46.596h-25.846zM1239.243 295.063h10.899l18.244-46.596h-10.9z"/><path fill="#EFF9FD" mask="url(#b)" d="M610.864 613.01h57.882v-92.237h-57.882zM680.381 613.01h57.882v-92.237h-57.882z"/><path d="M154.253 697.874c0-7.107 5.762-12.869 12.869-12.869 7.109 0 12.87 5.762 12.87 12.869h-25.74z" fill="#FFF" mask="url(#b)"/><path d="M522.728 672.746c0-7.107 5.762-12.869 12.869-12.869 7.109 0 12.87 5.762 12.87 12.87h-25.739z" fill="#FFC7A4" mask="url(#b)"/><path d="M1081.398 719.938c0-7.106 5.762-12.869 12.869-12.869s12.87 5.763 12.87 12.87h-25.74z" fill="#BF957B" mask="url(#b)"/><path d="M1369.11 651.875c0-7.107 5.761-12.869 12.868-12.869 7.11 0 12.87 5.762 12.87 12.87h-25.739z" fill="#FFF" mask="url(#b)"/></g></g></svg>