<svg width="1440" height="752" viewBox="0 0 1440 752" xmlns="http://www.w3.org/2000/svg" xmlns:xlink="http://www.w3.org/1999/xlink"><title>woodwards-piano</title><defs><path d="M16.574 66.587V15.81C16.574 7.43 9.782.638 1.403.638H.935v65.95h15.639z" id="a"/></defs><g fill="none" fill-rule="evenodd"><path d="M934.574 509.527c0-8.38-6.793-15.172-15.17-15.172H519.794c-8.38 0-15.172 6.793-15.172 15.172v60.399h429.951v-60.4z" fill="gray"/><path d="M965.571 685.65c0-6.72-5.448-12.166-12.166-12.166H486.167c-6.72 0-12.167 5.447-12.167 12.167 0 6.719 5.447 12.166 12.167 12.166h467.238c6.718 0 12.166-5.447 12.166-12.166" fill="#E5C5B3"/><g transform="translate(918 493.717)"><mask id="b" fill="#fff"><use xlink:href="#a"/></mask><path fill="#F47739" mask="url(#b)" d="M101.238 60.117l-6.469 6.47L.935-27.245l6.47-6.472z"/></g><g><path fill="#303030" d="M504.623 685.65h429.951v-87.224H504.623z"/><path fill="#6F4B42" d="M504.623 603.91h429.951v-21.607H504.623z"/><path fill="#6F4B42" d="M490.042 685.65h23.395V570.771h-23.395zM925.761 685.65h23.393V570.771h-23.393z"/><path d="M901.614 739.551c0-6.72-5.447-12.167-12.166-12.167H549.75c-6.72 0-12.167 5.447-12.167 12.167 0 6.719 5.447 12.166 12.167 12.166h339.698c6.72 0 12.166-5.447 12.166-12.166" fill="#E5C5B3"/><path fill="#6F4B42" d="M552.798 692.94h333.6v-35.423h-333.6z"/><path fill="#6F4B42" d="M552.799 739.551h20.67v-73.609h-20.67zM865.728 739.551h20.67v-73.609h-20.67z"/><path d="M893.899 646.898a3.859 3.859 0 0 0-3.86-3.86H549.159a3.859 3.859 0 0 0-3.86 3.86v21.238a3.86 3.86 0 0 0 3.86 3.86h340.881a3.86 3.86 0 0 0 3.86-3.86v-21.238z" fill="#99402E"/><path fill="#A5361C" d="M513.908 562.008h6.575v-62.667h-6.575z"/><path fill="#A5361C" d="M519.908 562.008h6.575v-62.667h-6.575zM563.687 562.008h6.575v-62.667h-6.575zM620.041 562.008h6.575v-62.667h-6.575zM669.82 562.008h6.575v-62.667h-6.575zM719.599 562.008h6.575v-62.667h-6.575zM769.378 562.008h6.575v-62.667h-6.575zM819.157 562.008h6.575v-62.667h-6.575zM868.935 562.008h6.575v-62.667h-6.575zM918.714 562.008h6.575v-62.667h-6.575z"/><path fill="#A5361C" d="M570.262 562.008h6.575v-62.667h-6.575zM613.466 562.008h6.575v-62.667h-6.575zM663.245 562.008h6.575v-62.667h-6.575zM713.024 562.008h6.575v-62.667h-6.575zM762.803 562.008h6.575v-62.667h-6.575zM812.581 562.008h6.575v-62.667h-6.575zM862.36 562.008h6.575v-62.667h-6.575zM912.139 562.008h6.575v-62.667h-6.575z"/><path fill="#A5361C" d="M522.854 561.2l47.652-57.287-3.74-4.127-47.652 57.287z"/><path fill="#A5361C" d="M574.002 499.786l47.652 57.287-3.74 4.127-47.652-57.287zM671.947 499.786l47.652 57.287-3.74 4.127-47.652-57.287zM771.628 499.786l47.651 57.287-3.74 4.127-47.651-57.287zM871.308 499.786l47.652 57.287-3.74 4.127-47.652-57.287z"/><path fill="#A5361C" d="M623.781 561.2l47.652-57.287-3.74-4.127-47.652 57.287zM723.339 561.2l47.652-57.287-3.74-4.127-47.652 57.287zM822.897 561.2l47.652-57.287-3.74-4.127-47.652 57.287z"/><path fill="#FFF" d="M744.586 557.81h36.333v-43.551h-36.333z"/><path fill="#323232" d="M748.169 520.792h29.167v-2.85h-29.167zM748.169 526.445h29.167v-2.849h-29.167zM748.169 532.099h29.167v-2.849h-29.167zM748.169 537.753h29.167v-2.85h-29.167zM748.169 543.408h29.167v-2.85h-29.167zM748.169 549.061h29.167v-2.849h-29.167zM748.169 554.715h29.167v-2.849h-29.167z"/><path fill="#FFF" d="M701.432 550.021h36.333V506.47h-36.333z"/><path fill="#323232" d="M705.015 513.003h29.167v-2.85h-29.167zM705.015 518.656h29.167v-2.849h-29.167zM705.015 524.31h29.167v-2.849h-29.167zM705.015 529.965h29.167v-2.85h-29.167zM705.015 535.619h29.167v-2.85h-29.167zM705.015 541.272h29.167v-2.849h-29.167zM705.015 546.926h29.167v-2.849h-29.167z"/><path fill="#FFF" d="M655.586 550.021h36.333V506.47h-36.333z"/><path fill="#323232" d="M659.169 513.003h29.167v-2.85h-29.167zM659.169 518.656h29.167v-2.849h-29.167zM659.169 524.31h29.167v-2.849h-29.167zM659.169 529.965h29.167v-2.85h-29.167zM659.169 535.619h29.167v-2.85h-29.167zM659.169 541.272h29.167v-2.849h-29.167zM659.169 546.926h29.167v-2.849h-29.167z"/><path d="M955.087 553.88a3.859 3.859 0 0 0-3.859-3.859H487.97a3.859 3.859 0 0 0-3.86 3.86v24.562a3.86 3.86 0 0 0 3.86 3.86h462.866a4.25 4.25 0 0 0 4.251-4.252v-24.17z" fill="#6F4B42"/><path d="M916.599 572.302h-395.51v-4.422a3.859 3.859 0 0 1 3.86-3.859h387.79a3.859 3.859 0 0 1 3.86 3.859v4.422z" fill="#000"/><path d="M931.089 576.219c0-2.162-1.728-3.916-3.86-3.916H510.458c-2.131 0-3.858 1.754-3.858 3.916v6.084h424.49v-6.084z" fill="#FFF"/></g></g></svg>